<svg width="50" height="12" viewBox="0 0 50 12" fill="none" xmlns="http://www.w3.org/2000/svg">
<path d="M1.84967 9.00014V1.63014L2.20167 2.00413H0.034668V1.30013H2.64167V9.00014H1.84967Z" fill="#979797"/>
<path d="M10.1772 9.05514C9.62718 9.05514 9.13218 8.93047 8.69218 8.68114C8.25952 8.4318 7.91852 8.08714 7.66918 7.64714C7.41985 7.1998 7.29518 6.68647 7.29518 6.10714C7.29518 5.52047 7.41985 5.00713 7.66918 4.56714C7.91852 4.12714 8.25952 3.78613 8.69218 3.54413C9.13218 3.2948 9.62718 3.17013 10.1772 3.17013C10.6832 3.17013 11.1342 3.2838 11.5302 3.51113C11.9335 3.73847 12.2525 4.07213 12.4872 4.51213C12.7292 4.9448 12.8502 5.47647 12.8502 6.10714C12.8502 6.73047 12.7329 7.26214 12.4982 7.70214C12.2635 8.14214 11.9445 8.47947 11.5412 8.71414C11.1452 8.94147 10.6905 9.05514 10.1772 9.05514ZM10.2322 8.36213C10.6428 8.36213 11.0095 8.27047 11.3322 8.08714C11.6622 7.89647 11.9188 7.63247 12.1022 7.29514C12.2928 6.95047 12.3882 6.55447 12.3882 6.10714C12.3882 5.65247 12.2928 5.25647 12.1022 4.91914C11.9188 4.5818 11.6622 4.32147 11.3322 4.13813C11.0095 3.94747 10.6428 3.85213 10.2322 3.85213C9.82885 3.85213 9.46585 3.94747 9.14318 4.13813C8.82052 4.32147 8.56385 4.5818 8.37318 4.91914C8.18252 5.25647 8.08718 5.65247 8.08718 6.10714C8.08718 6.55447 8.18252 6.95047 8.37318 7.29514C8.56385 7.63247 8.82052 7.89647 9.14318 8.08714C9.46585 8.27047 9.82885 8.36213 10.2322 8.36213ZM12.4102 9.00014V7.26214L12.4872 6.09614L12.3772 4.93013V0.838135H13.1582V9.00014H12.4102Z" fill="#979797"/>
<path d="M18.9523 9.00014V7.72414L18.9193 7.51514V5.38113C18.9193 4.8898 18.7799 4.51213 18.5013 4.24813C18.2299 3.98413 17.8229 3.85213 17.2803 3.85213C16.9063 3.85213 16.5506 3.91447 16.2133 4.03913C15.8759 4.1638 15.5899 4.3288 15.3553 4.53414L15.0033 3.95113C15.2966 3.7018 15.6486 3.51113 16.0593 3.37913C16.4699 3.2398 16.9026 3.17013 17.3573 3.17013C18.1053 3.17013 18.6809 3.35713 19.0843 3.73113C19.4949 4.0978 19.7003 4.6588 19.7003 5.41413V9.00014H18.9523ZM16.9613 9.05514C16.5286 9.05514 16.1509 8.98547 15.8283 8.84614C15.5129 8.69947 15.2709 8.50147 15.1023 8.25214C14.9336 7.99547 14.8493 7.70214 14.8493 7.37214C14.8493 7.07147 14.9189 6.80014 15.0583 6.55814C15.2049 6.3088 15.4396 6.1108 15.7623 5.96414C16.0923 5.81014 16.5323 5.73314 17.0823 5.73314H19.0733V6.31614H17.1043C16.5469 6.31614 16.1583 6.41514 15.9383 6.61314C15.7256 6.81114 15.6193 7.0568 15.6193 7.35014C15.6193 7.68014 15.7476 7.94414 16.0043 8.14214C16.2609 8.34014 16.6203 8.43914 17.0823 8.43914C17.5223 8.43914 17.8999 8.34014 18.2153 8.14214C18.5379 7.9368 18.7726 7.64347 18.9193 7.26214L19.0953 7.80114C18.9486 8.18247 18.6919 8.4868 18.3253 8.71414C17.9659 8.94147 17.5113 9.05514 16.9613 9.05514Z" fill="#979797"/>
<path d="M21.7581 11.1891C21.4868 11.1891 21.2265 11.1451 20.9771 11.0571C20.7351 10.9691 20.5261 10.8371 20.3501 10.6611L20.7131 10.0781C20.8598 10.2175 21.0175 10.3238 21.1861 10.3971C21.3621 10.4778 21.5565 10.5181 21.7691 10.5181C22.0258 10.5181 22.2458 10.4448 22.4291 10.2981C22.6198 10.1588 22.7995 9.90947 22.9681 9.55014L23.3421 8.70314L23.4301 8.58214L25.8061 3.22513H26.5761L23.6831 9.69314C23.5218 10.0671 23.3421 10.3641 23.1441 10.5841C22.9535 10.8041 22.7445 10.9581 22.5171 11.0461C22.2898 11.1415 22.0368 11.1891 21.7581 11.1891ZM23.2981 9.16514L20.6361 3.22513H21.4501L23.8041 8.52714L23.2981 9.16514Z" fill="#979797"/>
<path d="M34.1739 9.00014V7.72414L34.1409 7.51514V5.38113C34.1409 4.8898 34.0016 4.51213 33.7229 4.24813C33.4516 3.98413 33.0446 3.85213 32.5019 3.85213C32.1279 3.85213 31.7723 3.91447 31.4349 4.03913C31.0976 4.1638 30.8116 4.3288 30.5769 4.53414L30.2249 3.95113C30.5183 3.7018 30.8703 3.51113 31.2809 3.37913C31.6916 3.2398 32.1243 3.17013 32.5789 3.17013C33.3269 3.17013 33.9026 3.35713 34.3059 3.73113C34.7166 4.0978 34.9219 4.6588 34.9219 5.41413V9.00014H34.1739ZM32.1829 9.05514C31.7503 9.05514 31.3726 8.98547 31.0499 8.84614C30.7346 8.69947 30.4926 8.50147 30.3239 8.25214C30.1553 7.99547 30.0709 7.70214 30.0709 7.37214C30.0709 7.07147 30.1406 6.80014 30.2799 6.55814C30.4266 6.3088 30.6613 6.1108 30.9839 5.96414C31.3139 5.81014 31.7539 5.73314 32.3039 5.73314H34.2949V6.31614H32.3259C31.7686 6.31614 31.3799 6.41514 31.1599 6.61314C30.9473 6.81114 30.8409 7.0568 30.8409 7.35014C30.8409 7.68014 30.9693 7.94414 31.2259 8.14214C31.4826 8.34014 31.8419 8.43914 32.3039 8.43914C32.7439 8.43914 33.1216 8.34014 33.4369 8.14214C33.7596 7.9368 33.9943 7.64347 34.1409 7.26214L34.3169 7.80114C34.1703 8.18247 33.9136 8.4868 33.5469 8.71414C33.1876 8.94147 32.7329 9.05514 32.1829 9.05514Z" fill="#979797"/>
<path d="M39.5072 11.1891C38.9792 11.1891 38.4732 11.1121 37.9892 10.9581C37.5052 10.8041 37.1129 10.5841 36.8122 10.2981L37.2082 9.70414C37.4796 9.94614 37.8132 10.1368 38.2092 10.2761C38.6126 10.4228 39.0379 10.4961 39.4852 10.4961C40.2186 10.4961 40.7576 10.3238 41.1022 9.97914C41.4469 9.6418 41.6192 9.1138 41.6192 8.39513V6.95413L41.7292 5.96414L41.6522 4.97413V3.22513H42.4002V8.29613C42.4002 9.29347 42.1546 10.0231 41.6632 10.4851C41.1792 10.9545 40.4606 11.1891 39.5072 11.1891ZM39.3642 8.78014C38.8142 8.78014 38.3192 8.6628 37.8792 8.42814C37.4392 8.18614 37.0909 7.85247 36.8342 7.42714C36.5849 7.0018 36.4602 6.51414 36.4602 5.96414C36.4602 5.41414 36.5849 4.93013 36.8342 4.51213C37.0909 4.0868 37.4392 3.7568 37.8792 3.52214C38.3192 3.28747 38.8142 3.17013 39.3642 3.17013C39.8776 3.17013 40.3396 3.27647 40.7502 3.48913C41.1609 3.7018 41.4872 4.01714 41.7292 4.43514C41.9712 4.85314 42.0922 5.3628 42.0922 5.96414C42.0922 6.56547 41.9712 7.07514 41.7292 7.49314C41.4872 7.91114 41.1609 8.23013 40.7502 8.45014C40.3396 8.67014 39.8776 8.78014 39.3642 8.78014ZM39.4412 8.08714C39.8666 8.08714 40.2442 7.99914 40.5742 7.82314C40.9042 7.6398 41.1646 7.39047 41.3552 7.07514C41.5459 6.75247 41.6412 6.38214 41.6412 5.96414C41.6412 5.54614 41.5459 5.17947 41.3552 4.86413C41.1646 4.5488 40.9042 4.30313 40.5742 4.12714C40.2442 3.9438 39.8666 3.85213 39.4412 3.85213C39.0232 3.85213 38.6456 3.9438 38.3082 4.12714C37.9782 4.30313 37.7179 4.5488 37.5272 4.86413C37.3439 5.17947 37.2522 5.54614 37.2522 5.96414C37.2522 6.38214 37.3439 6.75247 37.5272 7.07514C37.7179 7.39047 37.9782 7.6398 38.3082 7.82314C38.6456 7.99914 39.0232 8.08714 39.4412 8.08714Z" fill="#979797"/>
<path d="M46.9275 9.05514C46.3702 9.05514 45.8678 8.93047 45.4205 8.68114C44.9805 8.42447 44.6322 8.07614 44.3755 7.63614C44.1188 7.1888 43.9905 6.67914 43.9905 6.10714C43.9905 5.5278 44.1188 5.01814 44.3755 4.57814C44.6322 4.13814 44.9805 3.79347 45.4205 3.54413C45.8605 3.2948 46.3628 3.17013 46.9275 3.17013C47.4995 3.17013 48.0055 3.2948 48.4455 3.54413C48.8928 3.79347 49.2412 4.13814 49.4905 4.57814C49.7472 5.01814 49.8755 5.5278 49.8755 6.10714C49.8755 6.67914 49.7472 7.1888 49.4905 7.63614C49.2412 8.07614 48.8928 8.42447 48.4455 8.68114C47.9982 8.93047 47.4922 9.05514 46.9275 9.05514ZM46.9275 8.36213C47.3455 8.36213 47.7158 8.27047 48.0385 8.08714C48.3612 7.89647 48.6142 7.63247 48.7975 7.29514C48.9882 6.95047 49.0835 6.55447 49.0835 6.10714C49.0835 5.65247 48.9882 5.25647 48.7975 4.91914C48.6142 4.5818 48.3612 4.32147 48.0385 4.13813C47.7158 3.94747 47.3492 3.85213 46.9385 3.85213C46.5278 3.85213 46.1612 3.94747 45.8385 4.13813C45.5158 4.32147 45.2592 4.5818 45.0685 4.91914C44.8778 5.25647 44.7825 5.65247 44.7825 6.10714C44.7825 6.55447 44.8778 6.95047 45.0685 7.29514C45.2592 7.63247 45.5158 7.89647 45.8385 8.08714C46.1612 8.27047 46.5242 8.36213 46.9275 8.36213Z" fill="#979797"/>
</svg>
