<svg width="50" height="12" viewBox="0 0 50 12" fill="none" xmlns="http://www.w3.org/2000/svg">
<path d="M1.84967 8.99965V1.62965L2.20167 2.00365H0.034668V1.29965H2.64167V8.99965H1.84967Z" fill="#979797"/>
<path d="M10.1772 9.05465C9.62718 9.05465 9.13218 8.92998 8.69218 8.68065C8.25952 8.43131 7.91852 8.08665 7.66918 7.64665C7.41985 7.19931 7.29518 6.68598 7.29518 6.10665C7.29518 5.51998 7.41985 5.00665 7.66918 4.56665C7.91852 4.12665 8.25952 3.78565 8.69218 3.54365C9.13218 3.29431 9.62718 3.16965 10.1772 3.16965C10.6832 3.16965 11.1342 3.28331 11.5302 3.51065C11.9335 3.73798 12.2525 4.07165 12.4872 4.51165C12.7292 4.94431 12.8502 5.47598 12.8502 6.10665C12.8502 6.72998 12.7329 7.26165 12.4982 7.70165C12.2635 8.14165 11.9445 8.47898 11.5412 8.71365C11.1452 8.94098 10.6905 9.05465 10.1772 9.05465ZM10.2322 8.36165C10.6428 8.36165 11.0095 8.26998 11.3322 8.08665C11.6622 7.89598 11.9188 7.63198 12.1022 7.29465C12.2928 6.94998 12.3882 6.55398 12.3882 6.10665C12.3882 5.65198 12.2928 5.25598 12.1022 4.91865C11.9188 4.58131 11.6622 4.32098 11.3322 4.13765C11.0095 3.94698 10.6428 3.85165 10.2322 3.85165C9.82885 3.85165 9.46585 3.94698 9.14318 4.13765C8.82052 4.32098 8.56385 4.58131 8.37318 4.91865C8.18252 5.25598 8.08718 5.65198 8.08718 6.10665C8.08718 6.55398 8.18252 6.94998 8.37318 7.29465C8.56385 7.63198 8.82052 7.89598 9.14318 8.08665C9.46585 8.26998 9.82885 8.36165 10.2322 8.36165ZM12.4102 8.99965V7.26165L12.4872 6.09565L12.3772 4.92965V0.837646H13.1582V8.99965H12.4102Z" fill="#979797"/>
<path d="M18.9523 8.99965V7.72365L18.9193 7.51465V5.38065C18.9193 4.88931 18.7799 4.51165 18.5013 4.24765C18.2299 3.98365 17.8229 3.85165 17.2803 3.85165C16.9063 3.85165 16.5506 3.91398 16.2133 4.03865C15.8759 4.16331 15.5899 4.32831 15.3553 4.53365L15.0033 3.95065C15.2966 3.70131 15.6486 3.51065 16.0593 3.37865C16.4699 3.23931 16.9026 3.16965 17.3573 3.16965C18.1053 3.16965 18.6809 3.35665 19.0843 3.73065C19.4949 4.09731 19.7003 4.65831 19.7003 5.41365V8.99965H18.9523ZM16.9613 9.05465C16.5286 9.05465 16.1509 8.98498 15.8283 8.84565C15.5129 8.69898 15.2709 8.50098 15.1023 8.25165C14.9336 7.99498 14.8493 7.70165 14.8493 7.37165C14.8493 7.07098 14.9189 6.79965 15.0583 6.55765C15.2049 6.30831 15.4396 6.11031 15.7623 5.96365C16.0923 5.80965 16.5323 5.73265 17.0823 5.73265H19.0733V6.31565H17.1043C16.5469 6.31565 16.1583 6.41465 15.9383 6.61265C15.7256 6.81065 15.6193 7.05631 15.6193 7.34965C15.6193 7.67965 15.7476 7.94365 16.0043 8.14165C16.2609 8.33965 16.6203 8.43865 17.0823 8.43865C17.5223 8.43865 17.8999 8.33965 18.2153 8.14165C18.5379 7.93631 18.7726 7.64298 18.9193 7.26165L19.0953 7.80065C18.9486 8.18198 18.6919 8.48631 18.3253 8.71365C17.9659 8.94098 17.5113 9.05465 16.9613 9.05465Z" fill="#979797"/>
<path d="M21.7581 11.1886C21.4868 11.1886 21.2265 11.1446 20.9771 11.0566C20.7351 10.9686 20.5261 10.8366 20.3501 10.6606L20.7131 10.0776C20.8598 10.217 21.0175 10.3233 21.1861 10.3966C21.3621 10.4773 21.5565 10.5176 21.7691 10.5176C22.0258 10.5176 22.2458 10.4443 22.4291 10.2976C22.6198 10.1583 22.7995 9.90898 22.9681 9.54965L23.3421 8.70265L23.4301 8.58165L25.8061 3.22465H26.5761L23.6831 9.69265C23.5218 10.0666 23.3421 10.3636 23.1441 10.5836C22.9535 10.8036 22.7445 10.9576 22.5171 11.0456C22.2898 11.141 22.0368 11.1886 21.7581 11.1886ZM23.2981 9.16465L20.6361 3.22465H21.4501L23.8041 8.52665L23.2981 9.16465Z" fill="#979797"/>
<path d="M34.1739 8.99965V7.72365L34.1409 7.51465V5.38065C34.1409 4.88931 34.0016 4.51165 33.7229 4.24765C33.4516 3.98365 33.0446 3.85165 32.5019 3.85165C32.1279 3.85165 31.7723 3.91398 31.4349 4.03865C31.0976 4.16331 30.8116 4.32831 30.5769 4.53365L30.2249 3.95065C30.5183 3.70131 30.8703 3.51065 31.2809 3.37865C31.6916 3.23931 32.1243 3.16965 32.5789 3.16965C33.3269 3.16965 33.9026 3.35665 34.3059 3.73065C34.7166 4.09731 34.9219 4.65831 34.9219 5.41365V8.99965H34.1739ZM32.1829 9.05465C31.7503 9.05465 31.3726 8.98498 31.0499 8.84565C30.7346 8.69898 30.4926 8.50098 30.3239 8.25165C30.1553 7.99498 30.0709 7.70165 30.0709 7.37165C30.0709 7.07098 30.1406 6.79965 30.2799 6.55765C30.4266 6.30831 30.6613 6.11031 30.9839 5.96365C31.3139 5.80965 31.7539 5.73265 32.3039 5.73265H34.2949V6.31565H32.3259C31.7686 6.31565 31.3799 6.41465 31.1599 6.61265C30.9473 6.81065 30.8409 7.05631 30.8409 7.34965C30.8409 7.67965 30.9693 7.94365 31.2259 8.14165C31.4826 8.33965 31.8419 8.43865 32.3039 8.43865C32.7439 8.43865 33.1216 8.33965 33.4369 8.14165C33.7596 7.93631 33.9943 7.64298 34.1409 7.26165L34.3169 7.80065C34.1703 8.18198 33.9136 8.48631 33.5469 8.71365C33.1876 8.94098 32.7329 9.05465 32.1829 9.05465Z" fill="#979797"/>
<path d="M39.5072 11.1886C38.9792 11.1886 38.4732 11.1116 37.9892 10.9576C37.5052 10.8036 37.1129 10.5836 36.8122 10.2976L37.2082 9.70365C37.4796 9.94565 37.8132 10.1363 38.2092 10.2756C38.6126 10.4223 39.0379 10.4956 39.4852 10.4956C40.2186 10.4956 40.7576 10.3233 41.1022 9.97865C41.4469 9.64131 41.6192 9.11331 41.6192 8.39465V6.95365L41.7292 5.96365L41.6522 4.97365V3.22465H42.4002V8.29565C42.4002 9.29298 42.1546 10.0226 41.6632 10.4846C41.1792 10.954 40.4606 11.1886 39.5072 11.1886ZM39.3642 8.77965C38.8142 8.77965 38.3192 8.66231 37.8792 8.42765C37.4392 8.18565 37.0909 7.85198 36.8342 7.42665C36.5849 7.00131 36.4602 6.51365 36.4602 5.96365C36.4602 5.41365 36.5849 4.92965 36.8342 4.51165C37.0909 4.08631 37.4392 3.75631 37.8792 3.52165C38.3192 3.28698 38.8142 3.16965 39.3642 3.16965C39.8776 3.16965 40.3396 3.27598 40.7502 3.48865C41.1609 3.70131 41.4872 4.01665 41.7292 4.43465C41.9712 4.85265 42.0922 5.36231 42.0922 5.96365C42.0922 6.56498 41.9712 7.07465 41.7292 7.49265C41.4872 7.91065 41.1609 8.22965 40.7502 8.44965C40.3396 8.66965 39.8776 8.77965 39.3642 8.77965ZM39.4412 8.08665C39.8666 8.08665 40.2442 7.99865 40.5742 7.82265C40.9042 7.63931 41.1646 7.38998 41.3552 7.07465C41.5459 6.75198 41.6412 6.38165 41.6412 5.96365C41.6412 5.54565 41.5459 5.17898 41.3552 4.86365C41.1646 4.54831 40.9042 4.30265 40.5742 4.12665C40.2442 3.94331 39.8666 3.85165 39.4412 3.85165C39.0232 3.85165 38.6456 3.94331 38.3082 4.12665C37.9782 4.30265 37.7179 4.54831 37.5272 4.86365C37.3439 5.17898 37.2522 5.54565 37.2522 5.96365C37.2522 6.38165 37.3439 6.75198 37.5272 7.07465C37.7179 7.38998 37.9782 7.63931 38.3082 7.82265C38.6456 7.99865 39.0232 8.08665 39.4412 8.08665Z" fill="#979797"/>
<path d="M46.9275 9.05465C46.3702 9.05465 45.8678 8.92998 45.4205 8.68065C44.9805 8.42398 44.6322 8.07565 44.3755 7.63565C44.1188 7.18831 43.9905 6.67865 43.9905 6.10665C43.9905 5.52731 44.1188 5.01765 44.3755 4.57765C44.6322 4.13765 44.9805 3.79298 45.4205 3.54365C45.8605 3.29431 46.3628 3.16965 46.9275 3.16965C47.4995 3.16965 48.0055 3.29431 48.4455 3.54365C48.8928 3.79298 49.2412 4.13765 49.4905 4.57765C49.7472 5.01765 49.8755 5.52731 49.8755 6.10665C49.8755 6.67865 49.7472 7.18831 49.4905 7.63565C49.2412 8.07565 48.8928 8.42398 48.4455 8.68065C47.9982 8.92998 47.4922 9.05465 46.9275 9.05465ZM46.9275 8.36165C47.3455 8.36165 47.7158 8.26998 48.0385 8.08665C48.3612 7.89598 48.6142 7.63198 48.7975 7.29465C48.9882 6.94998 49.0835 6.55398 49.0835 6.10665C49.0835 5.65198 48.9882 5.25598 48.7975 4.91865C48.6142 4.58131 48.3612 4.32098 48.0385 4.13765C47.7158 3.94698 47.3492 3.85165 46.9385 3.85165C46.5278 3.85165 46.1612 3.94698 45.8385 4.13765C45.5158 4.32098 45.2592 4.58131 45.0685 4.91865C44.8778 5.25598 44.7825 5.65198 44.7825 6.10665C44.7825 6.55398 44.8778 6.94998 45.0685 7.29465C45.2592 7.63198 45.5158 7.89598 45.8385 8.08665C46.1612 8.26998 46.5242 8.36165 46.9275 8.36165Z" fill="#979797"/>
</svg>
