<svg width="84" height="17" viewBox="0 0 84 17" fill="none" xmlns="http://www.w3.org/2000/svg">
<path d="M0.802002 15.9999L7.666 0.599937H11.186L18.072 15.9999H14.332L8.7 2.40394H10.108L4.454 15.9999H0.802002ZM4.234 12.6999L5.18 9.99394H13.1L14.068 12.6999H4.234Z" fill="#C92020"/>
<path d="M19.6698 15.9999V0.599937H27.1938C29.1298 0.599937 30.5818 0.966604 31.5498 1.69994C32.5324 2.43327 33.0238 3.40127 33.0238 4.60394C33.0238 5.4106 32.8258 6.1146 32.4298 6.71594C32.0338 7.3026 31.4911 7.75727 30.8018 8.07994C30.1124 8.4026 29.3204 8.56394 28.4258 8.56394L28.8438 7.66194C29.8118 7.66194 30.6698 7.82327 31.4178 8.14594C32.1658 8.45394 32.7451 8.91594 33.1558 9.53194C33.5811 10.1479 33.7938 10.9033 33.7938 11.7979C33.7938 13.1179 33.2731 14.1519 32.2318 14.8999C31.1904 15.6333 29.6578 15.9999 27.6338 15.9999H19.6698ZM23.2118 13.3159H27.3698C28.2938 13.3159 28.9904 13.1693 29.4598 12.8759C29.9438 12.5679 30.1858 12.0839 30.1858 11.4239C30.1858 10.7786 29.9438 10.3019 29.4598 9.99394C28.9904 9.67127 28.2938 9.50994 27.3698 9.50994H22.9478V6.91394H26.7538C27.6191 6.91394 28.2791 6.76727 28.7338 6.47394C29.2031 6.16594 29.4378 5.70394 29.4378 5.08794C29.4378 4.4866 29.2031 4.03927 28.7338 3.74594C28.2791 3.43794 27.6191 3.28394 26.7538 3.28394H23.2118V13.3159Z" fill="#C92020"/>
<path d="M43.972 16.2639C42.7547 16.2639 41.6254 16.0659 40.584 15.6699C39.5574 15.2739 38.6627 14.7166 37.9 13.9979C37.152 13.2793 36.5654 12.4359 36.14 11.4679C35.7294 10.4999 35.524 9.44394 35.524 8.29994C35.524 7.15594 35.7294 6.09994 36.14 5.13194C36.5654 4.16394 37.1594 3.3206 37.922 2.60194C38.6847 1.88327 39.5793 1.32594 40.606 0.929936C41.6327 0.533937 42.7474 0.335938 43.95 0.335938C45.1674 0.335938 46.282 0.533937 47.294 0.929936C48.3207 1.32594 49.208 1.88327 49.956 2.60194C50.7187 3.3206 51.3127 4.16394 51.738 5.13194C52.1634 6.08527 52.376 7.14127 52.376 8.29994C52.376 9.44394 52.1634 10.5073 51.738 11.4899C51.3127 12.4579 50.7187 13.3013 49.956 14.0199C49.208 14.7239 48.3207 15.2739 47.294 15.6699C46.282 16.0659 45.1747 16.2639 43.972 16.2639ZM43.95 13.2279C44.6394 13.2279 45.27 13.1106 45.842 12.8759C46.4287 12.6413 46.942 12.3039 47.382 11.8639C47.822 11.4239 48.1594 10.9033 48.394 10.3019C48.6434 9.7006 48.768 9.03327 48.768 8.29994C48.768 7.5666 48.6434 6.89927 48.394 6.29794C48.1594 5.6966 47.822 5.17594 47.382 4.73594C46.9567 4.29594 46.4507 3.9586 45.864 3.72394C45.2774 3.48927 44.6394 3.37194 43.95 3.37194C43.2607 3.37194 42.6227 3.48927 42.036 3.72394C41.464 3.9586 40.958 4.29594 40.518 4.73594C40.078 5.17594 39.7334 5.6966 39.484 6.29794C39.2494 6.89927 39.132 7.5666 39.132 8.29994C39.132 9.0186 39.2494 9.68594 39.484 10.3019C39.7334 10.9033 40.0707 11.4239 40.496 11.8639C40.936 12.3039 41.4494 12.6413 42.036 12.8759C42.6227 13.1106 43.2607 13.2279 43.95 13.2279Z" fill="#C92020"/>
<path d="M61.8965 16.2639C59.7112 16.2639 58.0025 15.6553 56.7705 14.4379C55.5385 13.2206 54.9225 11.4826 54.9225 9.22394V0.599937H58.4865V9.09194C58.4865 10.5586 58.7872 11.6146 59.3885 12.2599C59.9899 12.9053 60.8332 13.2279 61.9185 13.2279C63.0039 13.2279 63.8472 12.9053 64.4485 12.2599C65.0499 11.6146 65.3505 10.5586 65.3505 9.09194V0.599937H68.8705V9.22394C68.8705 11.4826 68.2545 13.2206 67.0225 14.4379C65.7905 15.6553 64.0819 16.2639 61.8965 16.2639Z" fill="#C92020"/>
<path d="M75.3246 15.9999V3.50394H70.3966V0.599937H83.8166V3.50394H78.8886V15.9999H75.3246Z" fill="#C92020"/>
</svg>
