<svg width="425" height="31" viewBox="0 0 425 31" fill="none" xmlns="http://www.w3.org/2000/svg">
<path d="M2.73 0.611894L1.918 3.71989L1.694 2.66989C2.02066 2.66989 2.29133 2.77256 2.506 2.97789C2.72066 3.18323 2.828 3.45856 2.828 3.80389C2.828 4.14923 2.72066 4.42923 2.506 4.64389C2.29133 4.84923 2.02533 4.95189 1.708 4.95189C1.372 4.95189 1.09666 4.84456 0.881998 4.62989C0.667331 4.41523 0.559998 4.13989 0.559998 3.80389C0.559998 3.69189 0.564664 3.58923 0.573997 3.49589C0.592664 3.39323 0.625331 3.27189 0.671997 3.13189C0.718664 2.99189 0.783998 2.81456 0.867998 2.59989L1.61 0.611894H2.73ZM5.698 0.611894L4.886 3.71989L4.662 2.66989C4.98866 2.66989 5.25933 2.77256 5.474 2.97789C5.68866 3.18323 5.796 3.45856 5.796 3.80389C5.796 4.14923 5.68866 4.42923 5.474 4.64389C5.25933 4.84923 4.99333 4.95189 4.676 4.95189C4.34 4.95189 4.06466 4.84456 3.85 4.62989C3.63533 4.41523 3.528 4.13989 3.528 3.80389C3.528 3.69189 3.53266 3.58923 3.542 3.49589C3.56066 3.39323 3.59333 3.27189 3.64 3.13189C3.68666 2.99189 3.752 2.81456 3.836 2.59989L4.578 0.611894H5.698Z" fill="black"/>
<path d="M5.82258 10.9999L10.2326 1.19989H12.0246L16.4486 10.9999H14.5446L10.7506 2.16589H11.4786L7.69858 10.9999H5.82258ZM7.85258 8.7319L8.34258 7.30389H13.6346L14.1246 8.7319H7.85258Z" fill="black"/>
<path d="M26.9629 3.43989C27.5602 3.43989 28.0876 3.55656 28.5449 3.78989C29.0116 4.02323 29.3756 4.38256 29.6369 4.86789C29.8982 5.34389 30.0289 5.95989 30.0289 6.71589V10.9999H28.2789V6.93989C28.2789 6.27723 28.1342 5.78256 27.8449 5.45589C27.5556 5.12923 27.1402 4.96589 26.5989 4.96589C26.2162 4.96589 25.8756 5.04989 25.5769 5.21789C25.2876 5.38589 25.0589 5.63323 24.8909 5.95989C24.7322 6.28656 24.6529 6.70189 24.6529 7.20589V10.9999H22.9029V6.93989C22.9029 6.27723 22.7582 5.78256 22.4689 5.45589C22.1796 5.12923 21.7642 4.96589 21.2229 4.96589C20.8402 4.96589 20.4996 5.04989 20.2009 5.21789C19.9116 5.38589 19.6829 5.63323 19.5149 5.95989C19.3562 6.28656 19.2769 6.70189 19.2769 7.20589V10.9999H17.5269V3.52389H19.1929V5.51189L18.8989 4.92389C19.1509 4.43856 19.5149 4.06989 19.9909 3.81789C20.4762 3.56589 21.0269 3.43989 21.6429 3.43989C22.3429 3.43989 22.9496 3.61256 23.4629 3.95789C23.9856 4.30323 24.3309 4.82589 24.4989 5.52589L23.8129 5.28789C24.0556 4.72789 24.4569 4.27989 25.0169 3.94389C25.5769 3.60789 26.2256 3.43989 26.9629 3.43989Z" fill="black"/>
<path d="M36.8712 10.9999V9.48789L36.7732 9.16589V6.51989C36.7732 6.00656 36.6192 5.60989 36.3112 5.32989C36.0032 5.04056 35.5365 4.89589 34.9112 4.89589C34.4912 4.89589 34.0759 4.96123 33.6652 5.09189C33.2639 5.22256 32.9232 5.40456 32.6432 5.63789L31.9572 4.36389C32.3585 4.05589 32.8345 3.82723 33.3852 3.67789C33.9452 3.51923 34.5239 3.43989 35.1212 3.43989C36.2039 3.43989 37.0392 3.70123 37.6272 4.22389C38.2245 4.73723 38.5232 5.53523 38.5232 6.61789V10.9999H36.8712ZM34.5192 11.0979C33.9592 11.0979 33.4692 11.0046 33.0492 10.8179C32.6292 10.6219 32.3025 10.3559 32.0692 10.0199C31.8452 9.67456 31.7332 9.28723 31.7332 8.85789C31.7332 8.43789 31.8312 8.05989 32.0272 7.72389C32.2325 7.38789 32.5639 7.12189 33.0212 6.92589C33.4785 6.72989 34.0852 6.63189 34.8412 6.63189H37.0112V7.79389H34.9672C34.3699 7.79389 33.9685 7.89189 33.7632 8.08789C33.5578 8.27456 33.4552 8.5079 33.4552 8.7879C33.4552 9.10523 33.5812 9.35723 33.8332 9.54389C34.0852 9.73056 34.4352 9.82389 34.8832 9.82389C35.3125 9.82389 35.6952 9.72589 36.0312 9.52989C36.3765 9.33389 36.6239 9.04456 36.7732 8.66189L37.0672 9.71189C36.8992 10.1506 36.5959 10.4912 36.1572 10.7339C35.7279 10.9766 35.1819 11.0979 34.5192 11.0979Z" fill="black"/>
<path d="M40.1531 10.9999V9.89389L44.7591 4.32189L45.0811 4.92389H40.2371V3.52389H46.4811V4.62989L41.8751 10.2019L41.5251 9.5999H46.6071V10.9999H40.1531Z" fill="black"/>
<path d="M48.2203 10.9999V3.52389H49.9703V10.9999H48.2203ZM49.1023 2.29189C48.7756 2.29189 48.5049 2.18923 48.2903 1.98389C48.0849 1.77856 47.9823 1.53123 47.9823 1.24189C47.9823 0.943228 48.0849 0.695894 48.2903 0.499894C48.5049 0.294561 48.7756 0.191895 49.1023 0.191895C49.4289 0.191895 49.6949 0.289894 49.9003 0.485894C50.1149 0.672561 50.2223 0.910561 50.2223 1.19989C50.2223 1.50789 50.1196 1.76923 49.9143 1.98389C49.7089 2.18923 49.4383 2.29189 49.1023 2.29189Z" fill="black"/>
<path d="M56.5091 3.43989C57.1065 3.43989 57.6385 3.55656 58.1051 3.78989C58.5811 4.02323 58.9545 4.38256 59.2251 4.86789C59.4958 5.34389 59.6311 5.95989 59.6311 6.71589V10.9999H57.8811V6.93989C57.8811 6.27723 57.7225 5.78256 57.4051 5.45589C57.0971 5.12923 56.6631 4.96589 56.1031 4.96589C55.6925 4.96589 55.3285 5.04989 55.0111 5.21789C54.6938 5.38589 54.4465 5.63789 54.2691 5.97389C54.1011 6.30056 54.0171 6.7159 54.0171 7.21989V10.9999H52.2671V3.52389H53.9331V5.53989L53.6391 4.92389C53.9005 4.44789 54.2785 4.08389 54.7731 3.83189C55.2771 3.57056 55.8558 3.43989 56.5091 3.43989Z" fill="black"/>
<path d="M65.2528 13.8139C64.5621 13.8139 63.8855 13.7206 63.2228 13.5339C62.5695 13.3566 62.0328 13.0952 61.6128 12.7499L62.3968 11.4339C62.7235 11.7046 63.1341 11.9192 63.6288 12.0779C64.1328 12.2459 64.6415 12.3299 65.1548 12.3299C65.9761 12.3299 66.5781 12.1386 66.9608 11.7559C67.3435 11.3826 67.5348 10.8179 67.5348 10.0619V8.7319L67.6748 7.03789L67.6188 5.34389V3.52389H69.2848V9.86589C69.2848 11.2192 68.9395 12.2132 68.2488 12.8479C67.5581 13.4919 66.5595 13.8139 65.2528 13.8139ZM65.0288 10.6639C64.3195 10.6639 63.6755 10.5146 63.0968 10.2159C62.5275 9.9079 62.0748 9.48323 61.7388 8.94189C61.4121 8.40056 61.2488 7.76589 61.2488 7.03789C61.2488 6.31923 61.4121 5.68923 61.7388 5.14789C62.0748 4.60656 62.5275 4.18656 63.0968 3.88789C63.6755 3.58923 64.3195 3.43989 65.0288 3.43989C65.6635 3.43989 66.2328 3.56589 66.7368 3.81789C67.2408 4.06989 67.6421 4.46189 67.9408 4.99389C68.2488 5.52589 68.4028 6.20723 68.4028 7.03789C68.4028 7.86856 68.2488 8.55456 67.9408 9.09589C67.6421 9.62789 67.2408 10.0246 66.7368 10.2859C66.2328 10.5379 65.6635 10.6639 65.0288 10.6639ZM65.2948 9.1799C65.7335 9.1799 66.1255 9.09123 66.4708 8.91389C66.8161 8.72723 67.0821 8.47523 67.2688 8.15789C67.4648 7.83123 67.5628 7.45789 67.5628 7.03789C67.5628 6.61789 67.4648 6.24923 67.2688 5.93189C67.0821 5.60523 66.8161 5.35789 66.4708 5.18989C66.1255 5.01256 65.7335 4.92389 65.2948 4.92389C64.8561 4.92389 64.4595 5.01256 64.1048 5.18989C63.7595 5.35789 63.4888 5.60523 63.2928 5.93189C63.1061 6.24923 63.0128 6.61789 63.0128 7.03789C63.0128 7.45789 63.1061 7.83123 63.2928 8.15789C63.4888 8.47523 63.7595 8.72723 64.1048 8.91389C64.4595 9.09123 64.8561 9.1799 65.2948 9.1799Z" fill="black"/>
<path d="M75.6926 10.9999V3.10389C75.6926 2.31989 75.9213 1.69456 76.3786 1.22789C76.8453 0.751894 77.508 0.513895 78.3666 0.513895C78.6746 0.513895 78.964 0.546561 79.2346 0.611894C79.5146 0.677228 79.748 0.779894 79.9346 0.919894L79.4586 2.23589C79.328 2.13323 79.1786 2.05856 79.0106 2.01189C78.8426 1.95589 78.67 1.92789 78.4926 1.92789C78.1286 1.92789 77.8533 2.03056 77.6666 2.23589C77.48 2.43189 77.3866 2.73056 77.3866 3.13189V3.97189L77.4426 4.75589V10.9999H75.6926ZM74.4606 4.97989V3.57989H79.4446V4.97989H74.4606Z" fill="black"/>
<path d="M83.8732 11.0979C83.1079 11.0979 82.4266 10.9346 81.8292 10.6079C81.2319 10.2719 80.7606 9.81456 80.4152 9.2359C80.0699 8.65723 79.8972 7.99923 79.8972 7.26189C79.8972 6.51523 80.0699 5.85723 80.4152 5.28789C80.7606 4.70923 81.2319 4.25656 81.8292 3.92989C82.4266 3.60323 83.1079 3.43989 83.8732 3.43989C84.6479 3.43989 85.3339 3.60323 85.9312 3.92989C86.5379 4.25656 87.0092 4.70456 87.3452 5.27389C87.6906 5.84323 87.8632 6.50589 87.8632 7.26189C87.8632 7.99923 87.6906 8.65723 87.3452 9.2359C87.0092 9.81456 86.5379 10.2719 85.9312 10.6079C85.3339 10.9346 84.6479 11.0979 83.8732 11.0979ZM83.8732 9.5999C84.3026 9.5999 84.6852 9.50656 85.0212 9.31989C85.3572 9.13323 85.6186 8.86256 85.8052 8.50789C86.0012 8.15323 86.0992 7.7379 86.0992 7.26189C86.0992 6.77656 86.0012 6.36123 85.8052 6.01589C85.6186 5.66123 85.3572 5.39056 85.0212 5.20389C84.6852 5.01723 84.3072 4.92389 83.8872 4.92389C83.4579 4.92389 83.0752 5.01723 82.7392 5.20389C82.4126 5.39056 82.1512 5.66123 81.9552 6.01589C81.7592 6.36123 81.6612 6.77656 81.6612 7.26189C81.6612 7.7379 81.7592 8.15323 81.9552 8.50789C82.1512 8.86256 82.4126 9.13323 82.7392 9.31989C83.0752 9.50656 83.4532 9.5999 83.8732 9.5999Z" fill="black"/>
<path d="M92.8967 11.0979C92.1313 11.0979 91.45 10.9346 90.8527 10.6079C90.2553 10.2719 89.784 9.81456 89.4387 9.2359C89.0933 8.65723 88.9207 7.99923 88.9207 7.26189C88.9207 6.51523 89.0933 5.85723 89.4387 5.28789C89.784 4.70923 90.2553 4.25656 90.8527 3.92989C91.45 3.60323 92.1313 3.43989 92.8967 3.43989C93.6713 3.43989 94.3573 3.60323 94.9547 3.92989C95.5613 4.25656 96.0327 4.70456 96.3687 5.27389C96.714 5.84323 96.8867 6.50589 96.8867 7.26189C96.8867 7.99923 96.714 8.65723 96.3687 9.2359C96.0327 9.81456 95.5613 10.2719 94.9547 10.6079C94.3573 10.9346 93.6713 11.0979 92.8967 11.0979ZM92.8967 9.5999C93.326 9.5999 93.7087 9.50656 94.0447 9.31989C94.3807 9.13323 94.642 8.86256 94.8287 8.50789C95.0247 8.15323 95.1227 7.7379 95.1227 7.26189C95.1227 6.77656 95.0247 6.36123 94.8287 6.01589C94.642 5.66123 94.3807 5.39056 94.0447 5.20389C93.7087 5.01723 93.3307 4.92389 92.9107 4.92389C92.4813 4.92389 92.0987 5.01723 91.7627 5.20389C91.436 5.39056 91.1747 5.66123 90.9787 6.01589C90.7827 6.36123 90.6847 6.77656 90.6847 7.26189C90.6847 7.7379 90.7827 8.15323 90.9787 8.50789C91.1747 8.86256 91.436 9.13323 91.7627 9.31989C92.0987 9.50656 92.4767 9.5999 92.8967 9.5999Z" fill="black"/>
<path d="M101.724 11.0979C101.005 11.0979 100.357 10.9392 99.7781 10.6219C99.2088 10.2952 98.7608 9.84723 98.4341 9.27789C98.1074 8.70856 97.9441 8.03656 97.9441 7.26189C97.9441 6.48723 98.1074 5.81523 98.4341 5.24589C98.7608 4.67656 99.2088 4.23323 99.7781 3.91589C100.357 3.59856 101.005 3.43989 101.724 3.43989C102.349 3.43989 102.909 3.57989 103.404 3.85989C103.899 4.13056 104.291 4.54589 104.58 5.10589C104.869 5.66589 105.014 6.38456 105.014 7.26189C105.014 8.12989 104.874 8.84856 104.594 9.41789C104.314 9.97789 103.927 10.3979 103.432 10.6779C102.937 10.9579 102.368 11.0979 101.724 11.0979ZM101.934 9.5999C102.354 9.5999 102.727 9.50656 103.054 9.31989C103.39 9.13323 103.656 8.86256 103.852 8.50789C104.057 8.15323 104.16 7.7379 104.16 7.26189C104.16 6.77656 104.057 6.36123 103.852 6.01589C103.656 5.66123 103.39 5.39056 103.054 5.20389C102.727 5.01723 102.354 4.92389 101.934 4.92389C101.514 4.92389 101.136 5.01723 100.8 5.20389C100.473 5.39056 100.207 5.66123 100.002 6.01589C99.8061 6.36123 99.7081 6.77656 99.7081 7.26189C99.7081 7.7379 99.8061 8.15323 100.002 8.50789C100.207 8.86256 100.473 9.13323 100.8 9.31989C101.136 9.50656 101.514 9.5999 101.934 9.5999ZM104.202 10.9999V9.2359L104.272 7.24789L104.132 5.25989V0.611894H105.868V10.9999H104.202Z" fill="black"/>
<path d="M116.647 10.9999V9.48789L116.549 9.16589V6.51989C116.549 6.00656 116.395 5.60989 116.087 5.32989C115.779 5.04056 115.312 4.89589 114.687 4.89589C114.267 4.89589 113.851 4.96123 113.441 5.09189C113.039 5.22256 112.699 5.40456 112.419 5.63789L111.733 4.36389C112.134 4.05589 112.61 3.82723 113.161 3.67789C113.721 3.51923 114.299 3.43989 114.897 3.43989C115.979 3.43989 116.815 3.70123 117.403 4.22389C118 4.73723 118.299 5.53523 118.299 6.61789V10.9999H116.647ZM114.295 11.0979C113.735 11.0979 113.245 11.0046 112.825 10.8179C112.405 10.6219 112.078 10.3559 111.845 10.0199C111.621 9.67456 111.509 9.28723 111.509 8.85789C111.509 8.43789 111.607 8.05989 111.803 7.72389C112.008 7.38789 112.339 7.12189 112.797 6.92589C113.254 6.72989 113.861 6.63189 114.617 6.63189H116.787V7.79389H114.743C114.145 7.79389 113.744 7.89189 113.539 8.08789C113.333 8.27456 113.231 8.5079 113.231 8.7879C113.231 9.10523 113.357 9.35723 113.609 9.54389C113.861 9.73056 114.211 9.82389 114.659 9.82389C115.088 9.82389 115.471 9.72589 115.807 9.52989C116.152 9.33389 116.399 9.04456 116.549 8.66189L116.843 9.71189C116.675 10.1506 116.371 10.4912 115.933 10.7339C115.503 10.9766 114.957 11.0979 114.295 11.0979Z" fill="black"/>
<path d="M124.786 3.43989C125.384 3.43989 125.916 3.55656 126.382 3.78989C126.858 4.02323 127.232 4.38256 127.502 4.86789C127.773 5.34389 127.908 5.95989 127.908 6.71589V10.9999H126.158V6.93989C126.158 6.27723 126 5.78256 125.682 5.45589C125.374 5.12923 124.94 4.96589 124.38 4.96589C123.97 4.96589 123.606 5.04989 123.288 5.21789C122.971 5.38589 122.724 5.63789 122.546 5.97389C122.378 6.30056 122.294 6.7159 122.294 7.21989V10.9999H120.544V3.52389H122.21V5.53989L121.916 4.92389C122.178 4.44789 122.556 4.08389 123.05 3.83189C123.554 3.57056 124.133 3.43989 124.786 3.43989Z" fill="black"/>
<path d="M133.306 11.0979C132.587 11.0979 131.939 10.9392 131.36 10.6219C130.791 10.2952 130.343 9.84723 130.016 9.27789C129.689 8.70856 129.526 8.03656 129.526 7.26189C129.526 6.48723 129.689 5.81523 130.016 5.24589C130.343 4.67656 130.791 4.23323 131.36 3.91589C131.939 3.59856 132.587 3.43989 133.306 3.43989C133.931 3.43989 134.491 3.57989 134.986 3.85989C135.481 4.13056 135.873 4.54589 136.162 5.10589C136.451 5.66589 136.596 6.38456 136.596 7.26189C136.596 8.12989 136.456 8.84856 136.176 9.41789C135.896 9.97789 135.509 10.3979 135.014 10.6779C134.519 10.9579 133.95 11.0979 133.306 11.0979ZM133.516 9.5999C133.936 9.5999 134.309 9.50656 134.636 9.31989C134.972 9.13323 135.238 8.86256 135.434 8.50789C135.639 8.15323 135.742 7.7379 135.742 7.26189C135.742 6.77656 135.639 6.36123 135.434 6.01589C135.238 5.66123 134.972 5.39056 134.636 5.20389C134.309 5.01723 133.936 4.92389 133.516 4.92389C133.096 4.92389 132.718 5.01723 132.382 5.20389C132.055 5.39056 131.789 5.66123 131.584 6.01589C131.388 6.36123 131.29 6.77656 131.29 7.26189C131.29 7.7379 131.388 8.15323 131.584 8.50789C131.789 8.86256 132.055 9.13323 132.382 9.31989C132.718 9.50656 133.096 9.5999 133.516 9.5999ZM135.784 10.9999V9.2359L135.854 7.24789L135.714 5.25989V0.611894H137.45V10.9999H135.784Z" fill="black"/>
<path d="M147.137 11.0979C146.306 11.0979 145.578 10.9346 144.953 10.6079C144.337 10.2719 143.856 9.81456 143.511 9.2359C143.175 8.65723 143.007 7.99923 143.007 7.26189C143.007 6.51523 143.17 5.85723 143.497 5.28789C143.833 4.70923 144.29 4.25656 144.869 3.92989C145.457 3.60323 146.124 3.43989 146.871 3.43989C147.599 3.43989 148.247 3.59856 148.817 3.91589C149.386 4.23323 149.834 4.68123 150.161 5.25989C150.487 5.83856 150.651 6.51989 150.651 7.30389C150.651 7.37856 150.646 7.46256 150.637 7.55589C150.637 7.64923 150.632 7.73789 150.623 7.82189H144.393V6.65989H149.699L149.013 7.02389C149.022 6.59456 148.933 6.21656 148.747 5.88989C148.56 5.56323 148.303 5.30656 147.977 5.11989C147.659 4.93323 147.291 4.83989 146.871 4.83989C146.441 4.83989 146.063 4.93323 145.737 5.11989C145.419 5.30656 145.167 5.56789 144.981 5.90389C144.803 6.23056 144.715 6.61789 144.715 7.06589V7.34589C144.715 7.79389 144.817 8.19056 145.023 8.53589C145.228 8.88123 145.517 9.14723 145.891 9.33389C146.264 9.52056 146.693 9.6139 147.179 9.6139C147.599 9.6139 147.977 9.54856 148.313 9.41789C148.649 9.28723 148.947 9.08189 149.209 8.8019L150.147 9.87989C149.811 10.2719 149.386 10.5752 148.873 10.7899C148.369 10.9952 147.79 11.0979 147.137 11.0979Z" fill="black"/>
<path d="M151.105 10.9999L154.395 6.71589L154.367 7.65389L151.231 3.52389H153.177L155.375 6.46389H154.633L156.845 3.52389H158.735L155.571 7.65389L155.585 6.71589L158.861 10.9999H156.887L154.577 7.87789L155.305 7.97589L153.037 10.9999H151.105Z" fill="black"/>
<path d="M164.296 11.0979C163.689 11.0979 163.134 10.9579 162.63 10.6779C162.135 10.3979 161.739 9.97789 161.44 9.41789C161.151 8.84856 161.006 8.12989 161.006 7.26189C161.006 6.38456 161.146 5.66589 161.426 5.10589C161.715 4.54589 162.107 4.13056 162.602 3.85989C163.097 3.57989 163.661 3.43989 164.296 3.43989C165.033 3.43989 165.682 3.59856 166.242 3.91589C166.811 4.23323 167.259 4.67656 167.586 5.24589C167.922 5.81523 168.09 6.48723 168.09 7.26189C168.09 8.03656 167.922 8.71323 167.586 9.29189C167.259 9.86123 166.811 10.3046 166.242 10.6219C165.682 10.9392 165.033 11.0979 164.296 11.0979ZM160.152 13.7159V3.52389H161.818V5.28789L161.762 7.27589L161.902 9.2639V13.7159H160.152ZM164.1 9.5999C164.52 9.5999 164.893 9.50656 165.22 9.31989C165.556 9.13323 165.822 8.86256 166.018 8.50789C166.214 8.15323 166.312 7.7379 166.312 7.26189C166.312 6.77656 166.214 6.36123 166.018 6.01589C165.822 5.66123 165.556 5.39056 165.22 5.20389C164.893 5.01723 164.52 4.92389 164.1 4.92389C163.68 4.92389 163.302 5.01723 162.966 5.20389C162.63 5.39056 162.364 5.66123 162.168 6.01589C161.972 6.36123 161.874 6.77656 161.874 7.26189C161.874 7.7379 161.972 8.15323 162.168 8.50789C162.364 8.86256 162.63 9.13323 162.966 9.31989C163.302 9.50656 163.68 9.5999 164.1 9.5999Z" fill="black"/>
<path d="M173.264 11.0979C172.433 11.0979 171.705 10.9346 171.08 10.6079C170.464 10.2719 169.983 9.81456 169.638 9.2359C169.302 8.65723 169.134 7.99923 169.134 7.26189C169.134 6.51523 169.297 5.85723 169.624 5.28789C169.96 4.70923 170.417 4.25656 170.996 3.92989C171.584 3.60323 172.251 3.43989 172.998 3.43989C173.726 3.43989 174.374 3.59856 174.944 3.91589C175.513 4.23323 175.961 4.68123 176.288 5.25989C176.614 5.83856 176.778 6.51989 176.778 7.30389C176.778 7.37856 176.773 7.46256 176.764 7.55589C176.764 7.64923 176.759 7.73789 176.75 7.82189H170.52V6.65989H175.826L175.14 7.02389C175.149 6.59456 175.06 6.21656 174.874 5.88989C174.687 5.56323 174.43 5.30656 174.104 5.11989C173.786 4.93323 173.418 4.83989 172.998 4.83989C172.568 4.83989 172.19 4.93323 171.864 5.11989C171.546 5.30656 171.294 5.56789 171.108 5.90389C170.93 6.23056 170.842 6.61789 170.842 7.06589V7.34589C170.842 7.79389 170.944 8.19056 171.15 8.53589C171.355 8.88123 171.644 9.14723 172.018 9.33389C172.391 9.52056 172.82 9.6139 173.306 9.6139C173.726 9.6139 174.104 9.54856 174.44 9.41789C174.776 9.28723 175.074 9.08189 175.336 8.8019L176.274 9.87989C175.938 10.2719 175.513 10.5752 175 10.7899C174.496 10.9952 173.917 11.0979 173.264 11.0979Z" fill="black"/>
<path d="M178.459 10.9999V3.52389H180.125V5.58189L179.929 4.97989C180.153 4.47589 180.503 4.09323 180.979 3.83189C181.464 3.57056 182.066 3.43989 182.785 3.43989V5.10589C182.71 5.08723 182.64 5.07789 182.575 5.07789C182.509 5.06856 182.444 5.06389 182.379 5.06389C181.716 5.06389 181.189 5.25989 180.797 5.65189C180.405 6.03456 180.209 6.60856 180.209 7.37389V10.9999H178.459Z" fill="black"/>
<path d="M184.269 10.9999V3.52389H186.019V10.9999H184.269ZM185.151 2.29189C184.824 2.29189 184.554 2.18923 184.339 1.98389C184.134 1.77856 184.031 1.53123 184.031 1.24189C184.031 0.943228 184.134 0.695894 184.339 0.499894C184.554 0.294561 184.824 0.191895 185.151 0.191895C185.478 0.191895 185.744 0.289894 185.949 0.485894C186.164 0.672561 186.271 0.910561 186.271 1.19989C186.271 1.50789 186.168 1.76923 185.963 1.98389C185.758 2.18923 185.487 2.29189 185.151 2.29189Z" fill="black"/>
<path d="M191.83 11.0979C190.999 11.0979 190.271 10.9346 189.646 10.6079C189.03 10.2719 188.549 9.81456 188.204 9.2359C187.868 8.65723 187.7 7.99923 187.7 7.26189C187.7 6.51523 187.863 5.85723 188.19 5.28789C188.526 4.70923 188.983 4.25656 189.562 3.92989C190.15 3.60323 190.817 3.43989 191.564 3.43989C192.292 3.43989 192.941 3.59856 193.51 3.91589C194.079 4.23323 194.527 4.68123 194.854 5.25989C195.181 5.83856 195.344 6.51989 195.344 7.30389C195.344 7.37856 195.339 7.46256 195.33 7.55589C195.33 7.64923 195.325 7.73789 195.316 7.82189H189.086V6.65989H194.392L193.706 7.02389C193.715 6.59456 193.627 6.21656 193.44 5.88989C193.253 5.56323 192.997 5.30656 192.67 5.11989C192.353 4.93323 191.984 4.83989 191.564 4.83989C191.135 4.83989 190.757 4.93323 190.43 5.11989C190.113 5.30656 189.861 5.56789 189.674 5.90389C189.497 6.23056 189.408 6.61789 189.408 7.06589V7.34589C189.408 7.79389 189.511 8.19056 189.716 8.53589C189.921 8.88123 190.211 9.14723 190.584 9.33389C190.957 9.52056 191.387 9.6139 191.872 9.6139C192.292 9.6139 192.67 9.54856 193.006 9.41789C193.342 9.28723 193.641 9.08189 193.902 8.8019L194.84 9.87989C194.504 10.2719 194.079 10.5752 193.566 10.7899C193.062 10.9952 192.483 11.0979 191.83 11.0979Z" fill="black"/>
<path d="M201.267 3.43989C201.864 3.43989 202.396 3.55656 202.863 3.78989C203.339 4.02323 203.712 4.38256 203.983 4.86789C204.254 5.34389 204.389 5.95989 204.389 6.71589V10.9999H202.639V6.93989C202.639 6.27723 202.48 5.78256 202.163 5.45589C201.855 5.12923 201.421 4.96589 200.861 4.96589C200.45 4.96589 200.086 5.04989 199.769 5.21789C199.452 5.38589 199.204 5.63789 199.027 5.97389C198.859 6.30056 198.775 6.7159 198.775 7.21989V10.9999H197.025V3.52389H198.691V5.53989L198.397 4.92389C198.658 4.44789 199.036 4.08389 199.531 3.83189C200.035 3.57056 200.614 3.43989 201.267 3.43989Z" fill="black"/>
<path d="M210.053 11.0979C209.269 11.0979 208.569 10.9346 207.953 10.6079C207.346 10.2719 206.87 9.81456 206.525 9.2359C206.179 8.65723 206.007 7.99923 206.007 7.26189C206.007 6.51523 206.179 5.85723 206.525 5.28789C206.87 4.70923 207.346 4.25656 207.953 3.92989C208.569 3.60323 209.269 3.43989 210.053 3.43989C210.781 3.43989 211.42 3.58923 211.971 3.88789C212.531 4.17723 212.955 4.60656 213.245 5.17589L211.901 5.95989C211.677 5.60523 211.401 5.34389 211.075 5.17589C210.757 5.00789 210.412 4.92389 210.039 4.92389C209.609 4.92389 209.222 5.01723 208.877 5.20389C208.531 5.39056 208.261 5.66123 208.065 6.01589C207.869 6.36123 207.771 6.77656 207.771 7.26189C207.771 7.74723 207.869 8.16723 208.065 8.52189C208.261 8.86723 208.531 9.13323 208.877 9.31989C209.222 9.50656 209.609 9.5999 210.039 9.5999C210.412 9.5999 210.757 9.51589 211.075 9.34789C211.401 9.17989 211.677 8.91856 211.901 8.56389L213.245 9.34789C212.955 9.9079 212.531 10.3419 211.971 10.6499C211.42 10.9486 210.781 11.0979 210.053 11.0979Z" fill="black"/>
<path d="M218.162 11.0979C217.331 11.0979 216.603 10.9346 215.978 10.6079C215.362 10.2719 214.881 9.81456 214.536 9.2359C214.2 8.65723 214.032 7.99923 214.032 7.26189C214.032 6.51523 214.195 5.85723 214.522 5.28789C214.858 4.70923 215.315 4.25656 215.894 3.92989C216.482 3.60323 217.149 3.43989 217.896 3.43989C218.624 3.43989 219.273 3.59856 219.842 3.91589C220.411 4.23323 220.859 4.68123 221.186 5.25989C221.513 5.83856 221.676 6.51989 221.676 7.30389C221.676 7.37856 221.671 7.46256 221.662 7.55589C221.662 7.64923 221.657 7.73789 221.648 7.82189H215.418V6.65989H220.724L220.038 7.02389C220.047 6.59456 219.959 6.21656 219.772 5.88989C219.585 5.56323 219.329 5.30656 219.002 5.11989C218.685 4.93323 218.316 4.83989 217.896 4.83989C217.467 4.83989 217.089 4.93323 216.762 5.11989C216.445 5.30656 216.193 5.56789 216.006 5.90389C215.829 6.23056 215.74 6.61789 215.74 7.06589V7.34589C215.74 7.79389 215.843 8.19056 216.048 8.53589C216.253 8.88123 216.543 9.14723 216.916 9.33389C217.289 9.52056 217.719 9.6139 218.204 9.6139C218.624 9.6139 219.002 9.54856 219.338 9.41789C219.674 9.28723 219.973 9.08189 220.234 8.8019L221.172 9.87989C220.836 10.2719 220.411 10.5752 219.898 10.7899C219.394 10.9952 218.815 11.0979 218.162 11.0979Z" fill="black"/>
<path d="M223.917 11.0979C223.6 11.0979 223.329 10.9906 223.105 10.7759C222.881 10.5519 222.769 10.2719 222.769 9.93589C222.769 9.58123 222.881 9.30123 223.105 9.09589C223.329 8.88123 223.6 8.7739 223.917 8.7739C224.234 8.7739 224.505 8.88123 224.729 9.09589C224.953 9.30123 225.065 9.58123 225.065 9.93589C225.065 10.2719 224.953 10.5519 224.729 10.7759C224.505 10.9906 224.234 11.0979 223.917 11.0979Z" fill="black"/>
<path d="M233.85 11.1399C233.085 11.1399 232.352 11.0326 231.652 10.8179C230.952 10.5939 230.397 10.3092 229.986 9.96389L230.616 8.54989C231.008 8.85789 231.493 9.11456 232.072 9.31989C232.651 9.52523 233.243 9.6279 233.85 9.6279C234.363 9.6279 234.779 9.57189 235.096 9.45989C235.413 9.34789 235.647 9.19856 235.796 9.01189C235.945 8.81589 236.02 8.59656 236.02 8.3539C236.02 8.05523 235.913 7.81723 235.698 7.63989C235.483 7.45323 235.203 7.30856 234.858 7.20589C234.522 7.09389 234.144 6.99123 233.724 6.89789C233.313 6.80456 232.898 6.69723 232.478 6.57589C232.067 6.44523 231.689 6.28189 231.344 6.08589C231.008 5.88056 230.733 5.60989 230.518 5.27389C230.303 4.93789 230.196 4.50856 230.196 3.98589C230.196 3.45389 230.336 2.96856 230.616 2.52989C230.905 2.08189 231.339 1.72723 231.918 1.46589C232.506 1.19523 233.248 1.05989 234.144 1.05989C234.732 1.05989 235.315 1.13456 235.894 1.28389C236.473 1.43323 236.977 1.64789 237.406 1.92789L236.832 3.34189C236.393 3.08056 235.941 2.88923 235.474 2.76789C235.007 2.63723 234.559 2.57189 234.13 2.57189C233.626 2.57189 233.215 2.63256 232.898 2.75389C232.59 2.87523 232.361 3.03389 232.212 3.22989C232.072 3.42589 232.002 3.64989 232.002 3.90189C232.002 4.20056 232.105 4.44323 232.31 4.62989C232.525 4.80723 232.8 4.94723 233.136 5.04989C233.481 5.15256 233.864 5.25523 234.284 5.35789C234.704 5.45123 235.119 5.55856 235.53 5.67989C235.95 5.80123 236.328 5.95989 236.664 6.15589C237.009 6.35189 237.285 6.61789 237.49 6.95389C237.705 7.28989 237.812 7.71456 237.812 8.22789C237.812 8.75056 237.667 9.2359 237.378 9.6839C237.098 10.1226 236.664 10.4772 236.076 10.7479C235.488 11.0092 234.746 11.1399 233.85 11.1399Z" fill="black"/>
<path d="M242.263 11.0979C241.441 11.0979 240.807 10.8879 240.359 10.4679C239.911 10.0386 239.687 9.40856 239.687 8.57789V1.87189H241.437V8.53589C241.437 8.89056 241.525 9.16589 241.703 9.36189C241.889 9.55789 242.146 9.6559 242.473 9.6559C242.865 9.6559 243.191 9.55323 243.453 9.34789L243.943 10.5939C243.737 10.7619 243.485 10.8879 243.187 10.9719C242.888 11.0559 242.58 11.0979 242.263 11.0979ZM238.455 4.97989V3.57989H243.439V4.97989H238.455Z" fill="black"/>
<path d="M249.988 10.9999V9.48789L249.89 9.16589V6.51989C249.89 6.00656 249.736 5.60989 249.428 5.32989C249.12 5.04056 248.654 4.89589 248.028 4.89589C247.608 4.89589 247.193 4.96123 246.782 5.09189C246.381 5.22256 246.04 5.40456 245.76 5.63789L245.074 4.36389C245.476 4.05589 245.952 3.82723 246.502 3.67789C247.062 3.51923 247.641 3.43989 248.238 3.43989C249.321 3.43989 250.156 3.70123 250.744 4.22389C251.342 4.73723 251.64 5.53523 251.64 6.61789V10.9999H249.988ZM247.636 11.0979C247.076 11.0979 246.586 11.0046 246.166 10.8179C245.746 10.6219 245.42 10.3559 245.186 10.0199C244.962 9.67456 244.85 9.28723 244.85 8.85789C244.85 8.43789 244.948 8.05989 245.144 7.72389C245.35 7.38789 245.681 7.12189 246.138 6.92589C246.596 6.72989 247.202 6.63189 247.958 6.63189H250.128V7.79389H248.084C247.487 7.79389 247.086 7.89189 246.88 8.08789C246.675 8.27456 246.572 8.5079 246.572 8.7879C246.572 9.10523 246.698 9.35723 246.95 9.54389C247.202 9.73056 247.552 9.82389 248 9.82389C248.43 9.82389 248.812 9.72589 249.148 9.52989C249.494 9.33389 249.741 9.04456 249.89 8.66189L250.184 9.71189C250.016 10.1506 249.713 10.4912 249.274 10.7339C248.845 10.9766 248.299 11.0979 247.636 11.0979Z" fill="black"/>
<path d="M254.124 10.9999V3.10389C254.124 2.31989 254.353 1.69456 254.81 1.22789C255.277 0.751894 255.94 0.513895 256.798 0.513895C257.106 0.513895 257.396 0.546561 257.666 0.611894C257.946 0.677228 258.18 0.779894 258.366 0.919894L257.89 2.23589C257.76 2.13323 257.61 2.05856 257.442 2.01189C257.274 1.95589 257.102 1.92789 256.924 1.92789C256.56 1.92789 256.285 2.03056 256.098 2.23589C255.912 2.43189 255.818 2.73056 255.818 3.13189V3.97189L255.874 4.75589V10.9999H254.124ZM252.892 4.97989V3.57989H257.876V4.97989H252.892Z" fill="black"/>
<path d="M259.333 10.9999V3.10389C259.333 2.31989 259.562 1.69456 260.019 1.22789C260.486 0.751894 261.149 0.513895 262.007 0.513895C262.315 0.513895 262.605 0.546561 262.875 0.611894C263.155 0.677228 263.389 0.779894 263.575 0.919894L263.099 2.23589C262.969 2.13323 262.819 2.05856 262.651 2.01189C262.483 1.95589 262.311 1.92789 262.133 1.92789C261.769 1.92789 261.494 2.03056 261.307 2.23589C261.121 2.43189 261.027 2.73056 261.027 3.13189V3.97189L261.083 4.75589V10.9999H259.333ZM258.101 4.97989V3.57989H263.085V4.97989H258.101Z" fill="black"/>
<path d="M268.132 10.9999V3.52389H269.798V5.58189L269.602 4.97989C269.826 4.47589 270.176 4.09323 270.652 3.83189C271.138 3.57056 271.74 3.43989 272.458 3.43989V5.10589C272.384 5.08723 272.314 5.07789 272.248 5.07789C272.183 5.06856 272.118 5.06389 272.052 5.06389C271.39 5.06389 270.862 5.25989 270.47 5.65189C270.078 6.03456 269.882 6.60856 269.882 7.37389V10.9999H268.132Z" fill="black"/>
<path d="M277.389 11.0979C276.558 11.0979 275.83 10.9346 275.205 10.6079C274.589 10.2719 274.108 9.81456 273.763 9.2359C273.427 8.65723 273.259 7.99923 273.259 7.26189C273.259 6.51523 273.422 5.85723 273.749 5.28789C274.085 4.70923 274.542 4.25656 275.121 3.92989C275.709 3.60323 276.376 3.43989 277.123 3.43989C277.851 3.43989 278.499 3.59856 279.069 3.91589C279.638 4.23323 280.086 4.68123 280.413 5.25989C280.739 5.83856 280.903 6.51989 280.903 7.30389C280.903 7.37856 280.898 7.46256 280.889 7.55589C280.889 7.64923 280.884 7.73789 280.875 7.82189H274.645V6.65989H279.951L279.265 7.02389C279.274 6.59456 279.185 6.21656 278.999 5.88989C278.812 5.56323 278.555 5.30656 278.229 5.11989C277.911 4.93323 277.543 4.83989 277.123 4.83989C276.693 4.83989 276.315 4.93323 275.989 5.11989C275.671 5.30656 275.419 5.56789 275.233 5.90389C275.055 6.23056 274.967 6.61789 274.967 7.06589V7.34589C274.967 7.79389 275.069 8.19056 275.275 8.53589C275.48 8.88123 275.769 9.14723 276.143 9.33389C276.516 9.52056 276.945 9.6139 277.431 9.6139C277.851 9.6139 278.229 9.54856 278.565 9.41789C278.901 9.28723 279.199 9.08189 279.461 8.8019L280.399 9.87989C280.063 10.2719 279.638 10.5752 279.125 10.7899C278.621 10.9952 278.042 11.0979 277.389 11.0979Z" fill="black"/>
<path d="M286.984 10.9999V9.48789L286.886 9.16589V6.51989C286.886 6.00656 286.732 5.60989 286.424 5.32989C286.116 5.04056 285.65 4.89589 285.024 4.89589C284.604 4.89589 284.189 4.96123 283.778 5.09189C283.377 5.22256 283.036 5.40456 282.756 5.63789L282.07 4.36389C282.472 4.05589 282.948 3.82723 283.498 3.67789C284.058 3.51923 284.637 3.43989 285.234 3.43989C286.317 3.43989 287.152 3.70123 287.74 4.22389C288.338 4.73723 288.636 5.53523 288.636 6.61789V10.9999H286.984ZM284.632 11.0979C284.072 11.0979 283.582 11.0046 283.162 10.8179C282.742 10.6219 282.416 10.3559 282.182 10.0199C281.958 9.67456 281.846 9.28723 281.846 8.85789C281.846 8.43789 281.944 8.05989 282.14 7.72389C282.346 7.38789 282.677 7.12189 283.134 6.92589C283.592 6.72989 284.198 6.63189 284.954 6.63189H287.124V7.79389H285.08C284.483 7.79389 284.082 7.89189 283.876 8.08789C283.671 8.27456 283.568 8.5079 283.568 8.7879C283.568 9.10523 283.694 9.35723 283.946 9.54389C284.198 9.73056 284.548 9.82389 284.996 9.82389C285.426 9.82389 285.808 9.72589 286.144 9.52989C286.49 9.33389 286.737 9.04456 286.886 8.66189L287.18 9.71189C287.012 10.1506 286.709 10.4912 286.27 10.7339C285.841 10.9766 285.295 11.0979 284.632 11.0979Z" fill="black"/>
<path d="M290.882 10.9999V0.611894H292.632V10.9999H290.882Z" fill="black"/>
<path d="M294.929 10.9999V0.611894H296.679V10.9999H294.929Z" fill="black"/>
<path d="M299.592 13.8139C299.228 13.8139 298.864 13.7532 298.5 13.6319C298.136 13.5106 297.833 13.3426 297.59 13.1279L298.29 11.8399C298.467 11.9986 298.668 12.1246 298.892 12.2179C299.116 12.3112 299.345 12.3579 299.578 12.3579C299.895 12.3579 300.152 12.2786 300.348 12.1199C300.544 11.9612 300.726 11.6952 300.894 11.3219L301.328 10.3419L301.468 10.1319L304.296 3.52389H305.976L302.476 11.6019C302.243 12.1619 301.981 12.6052 301.692 12.9319C301.412 13.2586 301.095 13.4872 300.74 13.6179C300.395 13.7486 300.012 13.8139 299.592 13.8139ZM301.132 11.2659L297.758 3.52389H299.578L302.322 9.97789L301.132 11.2659Z" fill="black"/>
<path d="M312.591 10.9999L309.847 3.52389H311.499L313.851 10.1179H313.067L315.531 3.52389H317.001L319.395 10.1179H318.625L321.047 3.52389H322.601L319.843 10.9999H318.163L315.979 5.16189H316.497L314.271 10.9999H312.591Z" fill="black"/>
<path d="M327.113 11.0979C326.283 11.0979 325.555 10.9346 324.929 10.6079C324.313 10.2719 323.833 9.81456 323.487 9.2359C323.151 8.65723 322.983 7.99923 322.983 7.26189C322.983 6.51523 323.147 5.85723 323.473 5.28789C323.809 4.70923 324.267 4.25656 324.845 3.92989C325.433 3.60323 326.1 3.43989 326.847 3.43989C327.575 3.43989 328.224 3.59856 328.793 3.91589C329.363 4.23323 329.811 4.68123 330.137 5.25989C330.464 5.83856 330.627 6.51989 330.627 7.30389C330.627 7.37856 330.622 7.46256 330.613 7.55589C330.613 7.64923 330.609 7.73789 330.599 7.82189H324.369V6.65989H329.675L328.989 7.02389C328.999 6.59456 328.91 6.21656 328.723 5.88989C328.536 5.56323 328.28 5.30656 327.953 5.11989C327.636 4.93323 327.267 4.83989 326.847 4.83989C326.418 4.83989 326.04 4.93323 325.713 5.11989C325.396 5.30656 325.144 5.56789 324.957 5.90389C324.78 6.23056 324.691 6.61789 324.691 7.06589V7.34589C324.691 7.79389 324.794 8.19056 324.999 8.53589C325.204 8.88123 325.494 9.14723 325.867 9.33389C326.24 9.52056 326.67 9.6139 327.155 9.6139C327.575 9.6139 327.953 9.54856 328.289 9.41789C328.625 9.28723 328.924 9.08189 329.185 8.8019L330.123 9.87989C329.787 10.2719 329.363 10.5752 328.849 10.7899C328.345 10.9952 327.766 11.0979 327.113 11.0979Z" fill="black"/>
<path d="M336.55 3.43989C337.147 3.43989 337.679 3.55656 338.146 3.78989C338.622 4.02323 338.995 4.38256 339.266 4.86789C339.537 5.34389 339.672 5.95989 339.672 6.71589V10.9999H337.922V6.93989C337.922 6.27723 337.763 5.78256 337.446 5.45589C337.138 5.12923 336.704 4.96589 336.144 4.96589C335.733 4.96589 335.369 5.04989 335.052 5.21789C334.735 5.38589 334.487 5.63789 334.31 5.97389C334.142 6.30056 334.058 6.7159 334.058 7.21989V10.9999H332.308V3.52389H333.974V5.53989L333.68 4.92389C333.941 4.44789 334.319 4.08389 334.814 3.83189C335.318 3.57056 335.897 3.43989 336.55 3.43989Z" fill="black"/>
<path d="M344.706 11.0979C343.885 11.0979 343.25 10.8879 342.802 10.4679C342.354 10.0386 342.13 9.40856 342.13 8.57789V1.87189H343.88V8.53589C343.88 8.89056 343.969 9.16589 344.146 9.36189C344.333 9.55789 344.589 9.6559 344.916 9.6559C345.308 9.6559 345.635 9.55323 345.896 9.34789L346.386 10.5939C346.181 10.7619 345.929 10.8879 345.63 10.9719C345.331 11.0559 345.023 11.0979 344.706 11.0979ZM340.898 4.97989V3.57989H345.882V4.97989H340.898Z" fill="black"/>
<path d="M356.301 10.9999V9.48789L356.203 9.16589V6.51989C356.203 6.00656 356.049 5.60989 355.741 5.32989C355.433 5.04056 354.966 4.89589 354.341 4.89589C353.921 4.89589 353.506 4.96123 353.095 5.09189C352.694 5.22256 352.353 5.40456 352.073 5.63789L351.387 4.36389C351.788 4.05589 352.264 3.82723 352.815 3.67789C353.375 3.51923 353.954 3.43989 354.551 3.43989C355.634 3.43989 356.469 3.70123 357.057 4.22389C357.654 4.73723 357.953 5.53523 357.953 6.61789V10.9999H356.301ZM353.949 11.0979C353.389 11.0979 352.899 11.0046 352.479 10.8179C352.059 10.6219 351.732 10.3559 351.499 10.0199C351.275 9.67456 351.163 9.28723 351.163 8.85789C351.163 8.43789 351.261 8.05989 351.457 7.72389C351.662 7.38789 351.994 7.12189 352.451 6.92589C352.908 6.72989 353.515 6.63189 354.271 6.63189H356.441V7.79389H354.397C353.8 7.79389 353.398 7.89189 353.193 8.08789C352.988 8.27456 352.885 8.5079 352.885 8.7879C352.885 9.10523 353.011 9.35723 353.263 9.54389C353.515 9.73056 353.865 9.82389 354.313 9.82389C354.742 9.82389 355.125 9.72589 355.461 9.52989C355.806 9.33389 356.054 9.04456 356.203 8.66189L356.497 9.71189C356.329 10.1506 356.026 10.4912 355.587 10.7339C355.158 10.9766 354.612 11.0979 353.949 11.0979Z" fill="black"/>
<path d="M364.343 11.0979C363.708 11.0979 363.143 10.9579 362.649 10.6779C362.154 10.3979 361.762 9.97789 361.473 9.41789C361.193 8.84856 361.053 8.12989 361.053 7.26189C361.053 6.38456 361.197 5.66589 361.487 5.10589C361.785 4.54589 362.182 4.13056 362.677 3.85989C363.181 3.57989 363.736 3.43989 364.343 3.43989C365.08 3.43989 365.729 3.59856 366.289 3.91589C366.858 4.23323 367.306 4.67656 367.633 5.24589C367.969 5.81523 368.137 6.48723 368.137 7.26189C368.137 8.03656 367.969 8.70856 367.633 9.27789C367.306 9.84723 366.858 10.2952 366.289 10.6219C365.729 10.9392 365.08 11.0979 364.343 11.0979ZM360.199 10.9999V0.611894H361.949V5.25989L361.809 7.24789L361.865 9.2359V10.9999H360.199ZM364.147 9.5999C364.567 9.5999 364.94 9.50656 365.267 9.31989C365.603 9.13323 365.869 8.86256 366.065 8.50789C366.261 8.15323 366.359 7.7379 366.359 7.26189C366.359 6.77656 366.261 6.36123 366.065 6.01589C365.869 5.66123 365.603 5.39056 365.267 5.20389C364.94 5.01723 364.567 4.92389 364.147 4.92389C363.727 4.92389 363.349 5.01723 363.013 5.20389C362.677 5.39056 362.411 5.66123 362.215 6.01589C362.019 6.36123 361.921 6.77656 361.921 7.26189C361.921 7.7379 362.019 8.15323 362.215 8.50789C362.411 8.86256 362.677 9.13323 363.013 9.31989C363.349 9.50656 363.727 9.5999 364.147 9.5999Z" fill="black"/>
<path d="M373.156 11.0979C372.391 11.0979 371.71 10.9346 371.112 10.6079C370.515 10.2719 370.044 9.81456 369.698 9.2359C369.353 8.65723 369.18 7.99923 369.18 7.26189C369.18 6.51523 369.353 5.85723 369.698 5.28789C370.044 4.70923 370.515 4.25656 371.112 3.92989C371.71 3.60323 372.391 3.43989 373.156 3.43989C373.931 3.43989 374.617 3.60323 375.214 3.92989C375.821 4.25656 376.292 4.70456 376.628 5.27389C376.974 5.84323 377.146 6.50589 377.146 7.26189C377.146 7.99923 376.974 8.65723 376.628 9.2359C376.292 9.81456 375.821 10.2719 375.214 10.6079C374.617 10.9346 373.931 11.0979 373.156 11.0979ZM373.156 9.5999C373.586 9.5999 373.968 9.50656 374.304 9.31989C374.64 9.13323 374.902 8.86256 375.088 8.50789C375.284 8.15323 375.382 7.7379 375.382 7.26189C375.382 6.77656 375.284 6.36123 375.088 6.01589C374.902 5.66123 374.64 5.39056 374.304 5.20389C373.968 5.01723 373.59 4.92389 373.17 4.92389C372.741 4.92389 372.358 5.01723 372.022 5.20389C371.696 5.39056 371.434 5.66123 371.238 6.01589C371.042 6.36123 370.944 6.77656 370.944 7.26189C370.944 7.7379 371.042 8.15323 371.238 8.50789C371.434 8.86256 371.696 9.13323 372.022 9.31989C372.358 9.50656 372.736 9.5999 373.156 9.5999Z" fill="black"/>
<path d="M380.603 10.9999L377.397 3.52389H379.217L381.975 10.1179H381.079L383.935 3.52389H385.615L382.409 10.9999H380.603Z" fill="black"/>
<path d="M390.017 11.0979C389.187 11.0979 388.459 10.9346 387.833 10.6079C387.217 10.2719 386.737 9.81456 386.391 9.2359C386.055 8.65723 385.887 7.99923 385.887 7.26189C385.887 6.51523 386.051 5.85723 386.377 5.28789C386.713 4.70923 387.171 4.25656 387.749 3.92989C388.337 3.60323 389.005 3.43989 389.751 3.43989C390.479 3.43989 391.128 3.59856 391.697 3.91589C392.267 4.23323 392.715 4.68123 393.041 5.25989C393.368 5.83856 393.531 6.51989 393.531 7.30389C393.531 7.37856 393.527 7.46256 393.517 7.55589C393.517 7.64923 393.513 7.73789 393.503 7.82189H387.273V6.65989H392.579L391.893 7.02389C391.903 6.59456 391.814 6.21656 391.627 5.88989C391.441 5.56323 391.184 5.30656 390.857 5.11989C390.54 4.93323 390.171 4.83989 389.751 4.83989C389.322 4.83989 388.944 4.93323 388.617 5.11989C388.3 5.30656 388.048 5.56789 387.861 5.90389C387.684 6.23056 387.595 6.61789 387.595 7.06589V7.34589C387.595 7.79389 387.698 8.19056 387.903 8.53589C388.109 8.88123 388.398 9.14723 388.771 9.33389C389.145 9.52056 389.574 9.6139 390.059 9.6139C390.479 9.6139 390.857 9.54856 391.193 9.41789C391.529 9.28723 391.828 9.08189 392.089 8.8019L393.027 9.87989C392.691 10.2719 392.267 10.5752 391.753 10.7899C391.249 10.9952 390.671 11.0979 390.017 11.0979Z" fill="black"/>
<path d="M403.688 10.9999V9.48789L403.59 9.16589V6.51989C403.59 6.00656 403.436 5.60989 403.128 5.32989C402.82 5.04056 402.353 4.89589 401.728 4.89589C401.308 4.89589 400.892 4.96123 400.482 5.09189C400.08 5.22256 399.74 5.40456 399.46 5.63789L398.774 4.36389C399.175 4.05589 399.651 3.82723 400.202 3.67789C400.762 3.51923 401.34 3.43989 401.938 3.43989C403.02 3.43989 403.856 3.70123 404.444 4.22389C405.041 4.73723 405.34 5.53523 405.34 6.61789V10.9999H403.688ZM401.336 11.0979C400.776 11.0979 400.286 11.0046 399.866 10.8179C399.446 10.6219 399.119 10.3559 398.886 10.0199C398.662 9.67456 398.55 9.28723 398.55 8.85789C398.55 8.43789 398.648 8.05989 398.844 7.72389C399.049 7.38789 399.38 7.12189 399.838 6.92589C400.295 6.72989 400.902 6.63189 401.658 6.63189H403.828V7.79389H401.784C401.186 7.79389 400.785 7.89189 400.58 8.08789C400.374 8.27456 400.272 8.5079 400.272 8.7879C400.272 9.10523 400.398 9.35723 400.65 9.54389C400.902 9.73056 401.252 9.82389 401.7 9.82389C402.129 9.82389 402.512 9.72589 402.848 9.52989C403.193 9.33389 403.44 9.04456 403.59 8.66189L403.884 9.71189C403.716 10.1506 403.412 10.4912 402.974 10.7339C402.544 10.9766 401.998 11.0979 401.336 11.0979Z" fill="black"/>
<path d="M411.828 3.43989C412.425 3.43989 412.957 3.55656 413.423 3.78989C413.9 4.02323 414.273 4.38256 414.543 4.86789C414.814 5.34389 414.949 5.95989 414.949 6.71589V10.9999H413.199V6.93989C413.199 6.27723 413.041 5.78256 412.724 5.45589C412.415 5.12923 411.982 4.96589 411.422 4.96589C411.011 4.96589 410.647 5.04989 410.329 5.21789C410.012 5.38589 409.765 5.63789 409.587 5.97389C409.419 6.30056 409.336 6.7159 409.336 7.21989V10.9999H407.586V3.52389H409.251V5.53989L408.957 4.92389C409.219 4.44789 409.597 4.08389 410.091 3.83189C410.595 3.57056 411.174 3.43989 411.828 3.43989Z" fill="black"/>
<path d="M420.347 11.0979C419.629 11.0979 418.98 10.9392 418.401 10.6219C417.832 10.2952 417.384 9.84723 417.057 9.27789C416.73 8.70856 416.567 8.03656 416.567 7.26189C416.567 6.48723 416.73 5.81523 417.057 5.24589C417.384 4.67656 417.832 4.23323 418.401 3.91589C418.98 3.59856 419.629 3.43989 420.347 3.43989C420.973 3.43989 421.533 3.57989 422.027 3.85989C422.522 4.13056 422.914 4.54589 423.203 5.10589C423.492 5.66589 423.637 6.38456 423.637 7.26189C423.637 8.12989 423.497 8.84856 423.217 9.41789C422.937 9.97789 422.55 10.3979 422.055 10.6779C421.56 10.9579 420.991 11.0979 420.347 11.0979ZM420.557 9.5999C420.977 9.5999 421.35 9.50656 421.677 9.31989C422.013 9.13323 422.279 8.86256 422.475 8.50789C422.68 8.15323 422.783 7.7379 422.783 7.26189C422.783 6.77656 422.68 6.36123 422.475 6.01589C422.279 5.66123 422.013 5.39056 421.677 5.20389C421.35 5.01723 420.977 4.92389 420.557 4.92389C420.137 4.92389 419.759 5.01723 419.423 5.20389C419.096 5.39056 418.83 5.66123 418.625 6.01589C418.429 6.36123 418.331 6.77656 418.331 7.26189C418.331 7.7379 418.429 8.15323 418.625 8.50789C418.83 8.86256 419.096 9.13323 419.423 9.31989C419.759 9.50656 420.137 9.5999 420.557 9.5999ZM422.825 10.9999V9.2359L422.895 7.24789L422.755 5.25989V0.611894H424.491V10.9999H422.825Z" fill="black"/>
<path d="M5.292 28.0979C4.65733 28.0979 4.09266 27.9579 3.598 27.6779C3.10333 27.3979 2.71133 26.9779 2.422 26.4179C2.142 25.8486 2.002 25.1299 2.002 24.2619C2.002 23.3846 2.14666 22.6659 2.436 22.1059C2.73466 21.5459 3.13133 21.1306 3.626 20.8599C4.13 20.5799 4.68533 20.4399 5.292 20.4399C6.02933 20.4399 6.678 20.5986 7.238 20.9159C7.80733 21.2332 8.25533 21.6766 8.582 22.2459C8.918 22.8152 9.086 23.4872 9.086 24.2619C9.086 25.0366 8.918 25.7086 8.582 26.2779C8.25533 26.8472 7.80733 27.2952 7.238 27.6219C6.678 27.9392 6.02933 28.0979 5.292 28.0979ZM1.148 27.9999V17.6119H2.898V22.2599L2.758 24.2479L2.814 26.2359V27.9999H1.148ZM5.096 26.5999C5.516 26.5999 5.88933 26.5066 6.216 26.3199C6.552 26.1332 6.818 25.8626 7.014 25.5079C7.21 25.1532 7.308 24.7379 7.308 24.2619C7.308 23.7766 7.21 23.3612 7.014 23.0159C6.818 22.6612 6.552 22.3906 6.216 22.2039C5.88933 22.0172 5.516 21.9239 5.096 21.9239C4.676 21.9239 4.298 22.0172 3.962 22.2039C3.626 22.3906 3.36 22.6612 3.164 23.0159C2.968 23.3612 2.87 23.7766 2.87 24.2619C2.87 24.7379 2.968 25.1532 3.164 25.5079C3.36 25.8626 3.626 26.1332 3.962 26.3199C4.298 26.5066 4.676 26.5999 5.096 26.5999Z" fill="black"/>
<path d="M14.2597 28.0979C13.429 28.0979 12.701 27.9346 12.0757 27.6079C11.4597 27.2719 10.979 26.8146 10.6337 26.2359C10.2977 25.6572 10.1297 24.9992 10.1297 24.2619C10.1297 23.5152 10.293 22.8572 10.6197 22.2879C10.9557 21.7092 11.413 21.2566 11.9917 20.9299C12.5797 20.6032 13.247 20.4399 13.9937 20.4399C14.7217 20.4399 15.3703 20.5986 15.9397 20.9159C16.509 21.2332 16.957 21.6812 17.2837 22.2599C17.6103 22.8386 17.7737 23.5199 17.7737 24.3039C17.7737 24.3786 17.769 24.4626 17.7597 24.5559C17.7597 24.6492 17.755 24.7379 17.7457 24.8219H11.5157V23.6599H16.8217L16.1357 24.0239C16.145 23.5946 16.0563 23.2166 15.8697 22.8899C15.683 22.5632 15.4263 22.3066 15.0997 22.1199C14.7823 21.9332 14.4137 21.8399 13.9937 21.8399C13.5643 21.8399 13.1863 21.9332 12.8597 22.1199C12.5423 22.3066 12.2903 22.5679 12.1037 22.9039C11.9263 23.2306 11.8377 23.6179 11.8377 24.0659V24.3459C11.8377 24.7939 11.9403 25.1906 12.1457 25.5359C12.351 25.8812 12.6403 26.1472 13.0137 26.3339C13.387 26.5206 13.8163 26.6139 14.3017 26.6139C14.7217 26.6139 15.0997 26.5486 15.4357 26.4179C15.7717 26.2872 16.0703 26.0819 16.3317 25.8019L17.2697 26.8799C16.9337 27.2719 16.509 27.5752 15.9957 27.7899C15.4917 27.9952 14.913 28.0979 14.2597 28.0979Z" fill="black"/>
<path d="M19.9339 30.8139C19.5699 30.8139 19.2059 30.7532 18.8419 30.6319C18.4779 30.5106 18.1746 30.3426 17.9319 30.1279L18.6319 28.8399C18.8093 28.9986 19.0099 29.1246 19.2339 29.2179C19.4579 29.3112 19.6866 29.3579 19.9199 29.3579C20.2373 29.3579 20.4939 29.2786 20.6899 29.1199C20.8859 28.9612 21.0679 28.6952 21.2359 28.3219L21.6699 27.3419L21.8099 27.1319L24.6379 20.5239H26.3179L22.8179 28.6019C22.5846 29.1619 22.3233 29.6052 22.0339 29.9319C21.7539 30.2586 21.4366 30.4872 21.0819 30.6179C20.7366 30.7486 20.3539 30.8139 19.9339 30.8139ZM21.4739 28.2659L18.0999 20.5239H19.9199L22.6639 26.9779L21.4739 28.2659Z" fill="black"/>
<path d="M30.5666 28.0979C29.8013 28.0979 29.1199 27.9346 28.5226 27.6079C27.9253 27.2719 27.4539 26.8146 27.1086 26.2359C26.7633 25.6572 26.5906 24.9992 26.5906 24.2619C26.5906 23.5152 26.7633 22.8572 27.1086 22.2879C27.4539 21.7092 27.9253 21.2566 28.5226 20.9299C29.1199 20.6032 29.8013 20.4399 30.5666 20.4399C31.3413 20.4399 32.0273 20.6032 32.6246 20.9299C33.2313 21.2566 33.7026 21.7046 34.0386 22.2739C34.3839 22.8432 34.5566 23.5059 34.5566 24.2619C34.5566 24.9992 34.3839 25.6572 34.0386 26.2359C33.7026 26.8146 33.2313 27.2719 32.6246 27.6079C32.0273 27.9346 31.3413 28.0979 30.5666 28.0979ZM30.5666 26.5999C30.9959 26.5999 31.3786 26.5066 31.7146 26.3199C32.0506 26.1332 32.3119 25.8626 32.4986 25.5079C32.6946 25.1532 32.7926 24.7379 32.7926 24.2619C32.7926 23.7766 32.6946 23.3612 32.4986 23.0159C32.3119 22.6612 32.0506 22.3906 31.7146 22.2039C31.3786 22.0172 31.0006 21.9239 30.5806 21.9239C30.1513 21.9239 29.7686 22.0172 29.4326 22.2039C29.1059 22.3906 28.8446 22.6612 28.6486 23.0159C28.4526 23.3612 28.3546 23.7766 28.3546 24.2619C28.3546 24.7379 28.4526 25.1532 28.6486 25.5079C28.8446 25.8626 29.1059 26.1332 29.4326 26.3199C29.7686 26.5066 30.1466 26.5999 30.5666 26.5999Z" fill="black"/>
<path d="M40.472 20.4399C41.0694 20.4399 41.6014 20.5566 42.068 20.7899C42.544 21.0232 42.9174 21.3826 43.188 21.8679C43.4587 22.3439 43.594 22.9599 43.594 23.7159V27.9999H41.844V23.9399C41.844 23.2772 41.6854 22.7826 41.368 22.4559C41.06 22.1292 40.626 21.9659 40.066 21.9659C39.6554 21.9659 39.2914 22.0499 38.974 22.2179C38.6567 22.3859 38.4094 22.6379 38.232 22.9739C38.064 23.3006 37.98 23.7159 37.98 24.2199V27.9999H36.23V20.5239H37.896V22.5399L37.602 21.9239C37.8634 21.4479 38.2414 21.0839 38.736 20.8319C39.24 20.5706 39.8187 20.4399 40.472 20.4399Z" fill="black"/>
<path d="M48.9917 28.0979C48.273 28.0979 47.6244 27.9392 47.0457 27.6219C46.4764 27.2952 46.0284 26.8472 45.7017 26.2779C45.375 25.7086 45.2117 25.0366 45.2117 24.2619C45.2117 23.4872 45.375 22.8152 45.7017 22.2459C46.0284 21.6766 46.4764 21.2332 47.0457 20.9159C47.6244 20.5986 48.273 20.4399 48.9917 20.4399C49.617 20.4399 50.177 20.5799 50.6717 20.8599C51.1664 21.1306 51.5583 21.5459 51.8477 22.1059C52.137 22.6659 52.2817 23.3846 52.2817 24.2619C52.2817 25.1299 52.1417 25.8486 51.8617 26.4179C51.5817 26.9779 51.1944 27.3979 50.6997 27.6779C50.205 27.9579 49.6357 28.0979 48.9917 28.0979ZM49.2017 26.5999C49.6217 26.5999 49.995 26.5066 50.3217 26.3199C50.6577 26.1332 50.9237 25.8626 51.1197 25.5079C51.325 25.1532 51.4277 24.7379 51.4277 24.2619C51.4277 23.7766 51.325 23.3612 51.1197 23.0159C50.9237 22.6612 50.6577 22.3906 50.3217 22.2039C49.995 22.0172 49.6217 21.9239 49.2017 21.9239C48.7817 21.9239 48.4037 22.0172 48.0677 22.2039C47.741 22.3906 47.475 22.6612 47.2697 23.0159C47.0737 23.3612 46.9757 23.7766 46.9757 24.2619C46.9757 24.7379 47.0737 25.1532 47.2697 25.5079C47.475 25.8626 47.741 26.1332 48.0677 26.3199C48.4037 26.5066 48.7817 26.5999 49.2017 26.5999ZM51.4697 27.9999V26.2359L51.5397 24.2479L51.3997 22.2599V17.6119H53.1357V27.9999H51.4697Z" fill="black"/>
<path d="M62.1222 28.0979C61.3008 28.0979 60.6662 27.8879 60.2182 27.4679C59.7702 27.0386 59.5462 26.4086 59.5462 25.5779V18.8719H61.2962V25.5359C61.2962 25.8906 61.3848 26.1659 61.5622 26.3619C61.7488 26.5579 62.0055 26.6559 62.3322 26.6559C62.7242 26.6559 63.0508 26.5532 63.3122 26.3479L63.8022 27.5939C63.5968 27.7619 63.3448 27.8879 63.0462 27.9719C62.7475 28.0559 62.4395 28.0979 62.1222 28.0979ZM58.3142 21.9799V20.5799H63.2982V21.9799H58.3142Z" fill="black"/>
<path d="M68.3557 28.0979C67.5903 28.0979 66.909 27.9346 66.3117 27.6079C65.7143 27.2719 65.243 26.8146 64.8977 26.2359C64.5523 25.6572 64.3797 24.9992 64.3797 24.2619C64.3797 23.5152 64.5523 22.8572 64.8977 22.2879C65.243 21.7092 65.7143 21.2566 66.3117 20.9299C66.909 20.6032 67.5903 20.4399 68.3557 20.4399C69.1303 20.4399 69.8163 20.6032 70.4137 20.9299C71.0203 21.2566 71.4917 21.7046 71.8277 22.2739C72.173 22.8432 72.3457 23.5059 72.3457 24.2619C72.3457 24.9992 72.173 25.6572 71.8277 26.2359C71.4917 26.8146 71.0203 27.2719 70.4137 27.6079C69.8163 27.9346 69.1303 28.0979 68.3557 28.0979ZM68.3557 26.5999C68.785 26.5999 69.1677 26.5066 69.5037 26.3199C69.8397 26.1332 70.101 25.8626 70.2877 25.5079C70.4837 25.1532 70.5817 24.7379 70.5817 24.2619C70.5817 23.7766 70.4837 23.3612 70.2877 23.0159C70.101 22.6612 69.8397 22.3906 69.5037 22.2039C69.1677 22.0172 68.7897 21.9239 68.3697 21.9239C67.9403 21.9239 67.5577 22.0172 67.2217 22.2039C66.895 22.3906 66.6337 22.6612 66.4377 23.0159C66.2417 23.3612 66.1437 23.7766 66.1437 24.2619C66.1437 24.7379 66.2417 25.1532 66.4377 25.5079C66.6337 25.8626 66.895 26.1332 67.2217 26.3199C67.5577 26.5066 67.9357 26.5999 68.3557 26.5999Z" fill="black"/>
<path d="M87.3242 20.4399C87.9216 20.4399 88.4489 20.5566 88.9062 20.7899C89.3729 21.0232 89.7369 21.3826 89.9982 21.8679C90.2596 22.3439 90.3902 22.9599 90.3902 23.7159V27.9999H88.6402V23.9399C88.6402 23.2772 88.4956 22.7826 88.2062 22.4559C87.9169 22.1292 87.5016 21.9659 86.9602 21.9659C86.5776 21.9659 86.2369 22.0499 85.9382 22.2179C85.6489 22.3859 85.4202 22.6332 85.2522 22.9599C85.0936 23.2866 85.0142 23.7019 85.0142 24.2059V27.9999H83.2642V23.9399C83.2642 23.2772 83.1196 22.7826 82.8302 22.4559C82.5409 22.1292 82.1256 21.9659 81.5842 21.9659C81.2016 21.9659 80.8609 22.0499 80.5622 22.2179C80.2729 22.3859 80.0442 22.6332 79.8762 22.9599C79.7176 23.2866 79.6382 23.7019 79.6382 24.2059V27.9999H77.8882V20.5239H79.5542V22.5119L79.2602 21.9239C79.5122 21.4386 79.8762 21.0699 80.3522 20.8179C80.8376 20.5659 81.3882 20.4399 82.0042 20.4399C82.7042 20.4399 83.3109 20.6126 83.8242 20.9579C84.3469 21.3032 84.6922 21.8259 84.8602 22.5259L84.1742 22.2879C84.4169 21.7279 84.8182 21.2799 85.3782 20.9439C85.9382 20.6079 86.5869 20.4399 87.3242 20.4399Z" fill="black"/>
<path d="M97.2325 27.9999V26.4879L97.1345 26.1659V23.5199C97.1345 23.0066 96.9805 22.6099 96.6725 22.3299C96.3645 22.0406 95.8979 21.8959 95.2725 21.8959C94.8525 21.8959 94.4372 21.9612 94.0265 22.0919C93.6252 22.2226 93.2845 22.4046 93.0045 22.6379L92.3185 21.3639C92.7198 21.0559 93.1958 20.8272 93.7465 20.6779C94.3065 20.5192 94.8852 20.4399 95.4825 20.4399C96.5652 20.4399 97.4005 20.7012 97.9885 21.2239C98.5859 21.7372 98.8845 22.5352 98.8845 23.6179V27.9999H97.2325ZM94.8805 28.0979C94.3205 28.0979 93.8305 28.0046 93.4105 27.8179C92.9905 27.6219 92.6638 27.3559 92.4305 27.0199C92.2065 26.6746 92.0945 26.2872 92.0945 25.8579C92.0945 25.4379 92.1925 25.0599 92.3885 24.7239C92.5938 24.3879 92.9252 24.1219 93.3825 23.9259C93.8399 23.7299 94.4465 23.6319 95.2025 23.6319H97.3725V24.7939H95.3285C94.7312 24.7939 94.3298 24.8919 94.1245 25.0879C93.9192 25.2746 93.8165 25.5079 93.8165 25.7879C93.8165 26.1052 93.9425 26.3572 94.1945 26.5439C94.4465 26.7306 94.7965 26.8239 95.2445 26.8239C95.6739 26.8239 96.0565 26.7259 96.3925 26.5299C96.7379 26.3339 96.9852 26.0446 97.1345 25.6619L97.4285 26.7119C97.2605 27.1506 96.9572 27.4912 96.5185 27.7339C96.0892 27.9766 95.5432 28.0979 94.8805 28.0979Z" fill="black"/>
<path d="M102.558 26.3339L102.6 24.1359L106.506 20.5239H108.606L105.288 23.8559L104.364 24.6259L102.558 26.3339ZM101.13 27.9999V17.6119H102.88V27.9999H101.13ZM106.772 27.9999L104.042 24.6259L105.148 23.2259L108.9 27.9999H106.772Z" fill="black"/>
<path d="M113.244 28.0979C112.413 28.0979 111.685 27.9346 111.06 27.6079C110.444 27.2719 109.963 26.8146 109.618 26.2359C109.282 25.6572 109.114 24.9992 109.114 24.2619C109.114 23.5152 109.277 22.8572 109.604 22.2879C109.94 21.7092 110.397 21.2566 110.976 20.9299C111.564 20.6032 112.231 20.4399 112.978 20.4399C113.706 20.4399 114.355 20.5986 114.924 20.9159C115.493 21.2332 115.941 21.6812 116.268 22.2599C116.595 22.8386 116.758 23.5199 116.758 24.3039C116.758 24.3786 116.753 24.4626 116.744 24.5559C116.744 24.6492 116.739 24.7379 116.73 24.8219H110.5V23.6599H115.806L115.12 24.0239C115.129 23.5946 115.041 23.2166 114.854 22.8899C114.667 22.5632 114.411 22.3066 114.084 22.1199C113.767 21.9332 113.398 21.8399 112.978 21.8399C112.549 21.8399 112.171 21.9332 111.844 22.1199C111.527 22.3066 111.275 22.5679 111.088 22.9039C110.911 23.2306 110.822 23.6179 110.822 24.0659V24.3459C110.822 24.7939 110.925 25.1906 111.13 25.5359C111.335 25.8812 111.625 26.1472 111.998 26.3339C112.371 26.5206 112.801 26.6139 113.286 26.6139C113.706 26.6139 114.084 26.5486 114.42 26.4179C114.756 26.2872 115.055 26.0819 115.316 25.8019L116.254 26.8799C115.918 27.2719 115.493 27.5752 114.98 27.7899C114.476 27.9952 113.897 28.0979 113.244 28.0979Z" fill="black"/>
<path d="M124.618 28.0979C123.993 28.0979 123.391 28.0186 122.812 27.8599C122.243 27.6919 121.79 27.4912 121.454 27.2579L122.126 25.9279C122.462 26.1426 122.863 26.3199 123.33 26.4599C123.797 26.5999 124.263 26.6699 124.73 26.6699C125.281 26.6699 125.677 26.5952 125.92 26.4459C126.172 26.2966 126.298 26.0959 126.298 25.8439C126.298 25.6386 126.214 25.4846 126.046 25.3819C125.878 25.2699 125.659 25.1859 125.388 25.1299C125.117 25.0739 124.814 25.0226 124.478 24.9759C124.151 24.9292 123.82 24.8686 123.484 24.7939C123.157 24.7099 122.859 24.5932 122.588 24.4439C122.317 24.2852 122.098 24.0752 121.93 23.8139C121.762 23.5526 121.678 23.2072 121.678 22.7779C121.678 22.3019 121.813 21.8912 122.084 21.5459C122.355 21.1912 122.733 20.9206 123.218 20.7339C123.713 20.5379 124.296 20.4399 124.968 20.4399C125.472 20.4399 125.981 20.4959 126.494 20.6079C127.007 20.7199 127.432 20.8786 127.768 21.0839L127.096 22.4139C126.741 22.1992 126.382 22.0546 126.018 21.9799C125.663 21.8959 125.309 21.8539 124.954 21.8539C124.422 21.8539 124.025 21.9332 123.764 22.0919C123.512 22.2506 123.386 22.4512 123.386 22.6939C123.386 22.9179 123.47 23.0859 123.638 23.1979C123.806 23.3099 124.025 23.3986 124.296 23.4639C124.567 23.5292 124.865 23.5852 125.192 23.6319C125.528 23.6692 125.859 23.7299 126.186 23.8139C126.513 23.8979 126.811 24.0146 127.082 24.1639C127.362 24.3039 127.586 24.5046 127.754 24.7659C127.922 25.0272 128.006 25.3679 128.006 25.7879C128.006 26.2546 127.866 26.6606 127.586 27.0059C127.315 27.3512 126.928 27.6219 126.424 27.8179C125.92 28.0046 125.318 28.0979 124.618 28.0979Z" fill="black"/>
<path d="M132.677 28.0979C132.043 28.0979 131.483 27.9812 130.997 27.7479C130.512 27.5052 130.134 27.1412 129.863 26.6559C129.593 26.1612 129.457 25.5406 129.457 24.7939V20.5239H131.207V24.5559C131.207 25.2279 131.357 25.7319 131.655 26.0679C131.963 26.3946 132.397 26.5579 132.957 26.5579C133.368 26.5579 133.723 26.4739 134.021 26.3059C134.329 26.1379 134.567 25.8859 134.735 25.5499C134.913 25.2139 135.001 24.7986 135.001 24.3039V20.5239H136.751V27.9999H135.085V25.9839L135.379 26.5999C135.127 27.0852 134.759 27.4586 134.273 27.7199C133.788 27.9719 133.256 28.0979 132.677 28.0979Z" fill="black"/>
<path d="M139.043 27.9999V20.5239H140.709V22.5819L140.513 21.9799C140.737 21.4759 141.087 21.0932 141.563 20.8319C142.048 20.5706 142.65 20.4399 143.369 20.4399V22.1059C143.294 22.0872 143.224 22.0779 143.159 22.0779C143.093 22.0686 143.028 22.0639 142.963 22.0639C142.3 22.0639 141.773 22.2599 141.381 22.6519C140.989 23.0346 140.793 23.6086 140.793 24.3739V27.9999H139.043Z" fill="black"/>
<path d="M148.299 28.0979C147.468 28.0979 146.74 27.9346 146.115 27.6079C145.499 27.2719 145.018 26.8146 144.673 26.2359C144.337 25.6572 144.169 24.9992 144.169 24.2619C144.169 23.5152 144.332 22.8572 144.659 22.2879C144.995 21.7092 145.452 21.2566 146.031 20.9299C146.619 20.6032 147.286 20.4399 148.033 20.4399C148.761 20.4399 149.409 20.5986 149.979 20.9159C150.548 21.2332 150.996 21.6812 151.323 22.2599C151.649 22.8386 151.813 23.5199 151.813 24.3039C151.813 24.3786 151.808 24.4626 151.799 24.5559C151.799 24.6492 151.794 24.7379 151.785 24.8219H145.555V23.6599H150.861L150.175 24.0239C150.184 23.5946 150.095 23.2166 149.909 22.8899C149.722 22.5632 149.465 22.3066 149.139 22.1199C148.821 21.9332 148.453 21.8399 148.033 21.8399C147.603 21.8399 147.225 21.9332 146.899 22.1199C146.581 22.3066 146.329 22.5679 146.143 22.9039C145.965 23.2306 145.877 23.6179 145.877 24.0659V24.3459C145.877 24.7939 145.979 25.1906 146.185 25.5359C146.39 25.8812 146.679 26.1472 147.053 26.3339C147.426 26.5206 147.855 26.6139 148.341 26.6139C148.761 26.6139 149.139 26.5486 149.475 26.4179C149.811 26.2872 150.109 26.0819 150.371 25.8019L151.309 26.8799C150.973 27.2719 150.548 27.5752 150.035 27.7899C149.531 27.9952 148.952 28.0979 148.299 28.0979Z" fill="black"/>
<path d="M157.363 27.9999V20.5239H159.113V27.9999H157.363ZM158.245 19.2919C157.918 19.2919 157.648 19.1892 157.433 18.9839C157.228 18.7786 157.125 18.5312 157.125 18.2419C157.125 17.9432 157.228 17.6959 157.433 17.4999C157.648 17.2946 157.918 17.1919 158.245 17.1919C158.572 17.1919 158.838 17.2899 159.043 17.4859C159.258 17.6726 159.365 17.9106 159.365 18.1999C159.365 18.5079 159.262 18.7692 159.057 18.9839C158.852 19.1892 158.581 19.2919 158.245 19.2919Z" fill="black"/>
<path d="M164.224 28.0979C163.402 28.0979 162.768 27.8879 162.32 27.4679C161.872 27.0386 161.648 26.4086 161.648 25.5779V18.8719H163.398V25.5359C163.398 25.8906 163.486 26.1659 163.664 26.3619C163.85 26.5579 164.107 26.6559 164.434 26.6559C164.826 26.6559 165.152 26.5532 165.414 26.3479L165.904 27.5939C165.698 27.7619 165.446 27.8879 165.148 27.9719C164.849 28.0559 164.541 28.0979 164.224 28.0979ZM160.416 21.9799V20.5799H165.4V21.9799H160.416Z" fill="black"/>
<path d="M172.864 27.9999L170.12 20.5239H171.772L174.124 27.1179H173.34L175.804 20.5239H177.274L179.668 27.1179H178.898L181.32 20.5239H182.874L180.116 27.9999H178.436L176.252 22.1619H176.77L174.544 27.9999H172.864Z" fill="black"/>
<path d="M188.451 27.9999V26.4879L188.353 26.1659V23.5199C188.353 23.0066 188.199 22.6099 187.891 22.3299C187.583 22.0406 187.117 21.8959 186.491 21.8959C186.071 21.8959 185.656 21.9612 185.245 22.0919C184.844 22.2226 184.503 22.4046 184.223 22.6379L183.537 21.3639C183.939 21.0559 184.415 20.8272 184.965 20.6779C185.525 20.5192 186.104 20.4399 186.701 20.4399C187.784 20.4399 188.619 20.7012 189.207 21.2239C189.805 21.7372 190.103 22.5352 190.103 23.6179V27.9999H188.451ZM186.099 28.0979C185.539 28.0979 185.049 28.0046 184.629 27.8179C184.209 27.6219 183.883 27.3559 183.649 27.0199C183.425 26.6746 183.313 26.2872 183.313 25.8579C183.313 25.4379 183.411 25.0599 183.607 24.7239C183.813 24.3879 184.144 24.1219 184.601 23.9259C185.059 23.7299 185.665 23.6319 186.421 23.6319H188.591V24.7939H186.547C185.95 24.7939 185.549 24.8919 185.343 25.0879C185.138 25.2746 185.035 25.5079 185.035 25.7879C185.035 26.1052 185.161 26.3572 185.413 26.5439C185.665 26.7306 186.015 26.8239 186.463 26.8239C186.893 26.8239 187.275 26.7259 187.611 26.5299C187.957 26.3339 188.204 26.0446 188.353 25.6619L188.647 26.7119C188.479 27.1506 188.176 27.4912 187.737 27.7339C187.308 27.9766 186.762 28.0979 186.099 28.0979Z" fill="black"/>
<path d="M194.659 28.0979C194.034 28.0979 193.432 28.0186 192.853 27.8599C192.284 27.6919 191.831 27.4912 191.495 27.2579L192.167 25.9279C192.503 26.1426 192.905 26.3199 193.371 26.4599C193.838 26.5999 194.305 26.6699 194.771 26.6699C195.322 26.6699 195.719 26.5952 195.961 26.4459C196.213 26.2966 196.339 26.0959 196.339 25.8439C196.339 25.6386 196.255 25.4846 196.087 25.3819C195.919 25.2699 195.7 25.1859 195.429 25.1299C195.159 25.0739 194.855 25.0226 194.519 24.9759C194.193 24.9292 193.861 24.8686 193.525 24.7939C193.199 24.7099 192.9 24.5932 192.629 24.4439C192.359 24.2852 192.139 24.0752 191.971 23.8139C191.803 23.5526 191.719 23.2072 191.719 22.7779C191.719 22.3019 191.855 21.8912 192.125 21.5459C192.396 21.1912 192.774 20.9206 193.259 20.7339C193.754 20.5379 194.337 20.4399 195.009 20.4399C195.513 20.4399 196.022 20.4959 196.535 20.6079C197.049 20.7199 197.473 20.8786 197.809 21.0839L197.137 22.4139C196.783 22.1992 196.423 22.0546 196.059 21.9799C195.705 21.8959 195.35 21.8539 194.995 21.8539C194.463 21.8539 194.067 21.9332 193.805 22.0919C193.553 22.2506 193.427 22.4512 193.427 22.6939C193.427 22.9179 193.511 23.0859 193.679 23.1979C193.847 23.3099 194.067 23.3986 194.337 23.4639C194.608 23.5292 194.907 23.5852 195.233 23.6319C195.569 23.6692 195.901 23.7299 196.227 23.8139C196.554 23.8979 196.853 24.0146 197.123 24.1639C197.403 24.3039 197.627 24.5046 197.795 24.7659C197.963 25.0272 198.047 25.3679 198.047 25.7879C198.047 26.2546 197.907 26.6606 197.627 27.0059C197.357 27.3512 196.969 27.6219 196.465 27.8179C195.961 28.0046 195.359 28.0979 194.659 28.0979Z" fill="black"/>
<path d="M206.937 28.0979C206.107 28.0979 205.379 27.9346 204.753 27.6079C204.137 27.2719 203.657 26.8146 203.311 26.2359C202.975 25.6572 202.807 24.9992 202.807 24.2619C202.807 23.5152 202.971 22.8572 203.297 22.2879C203.633 21.7092 204.091 21.2566 204.669 20.9299C205.257 20.6032 205.925 20.4399 206.671 20.4399C207.399 20.4399 208.048 20.5986 208.617 20.9159C209.187 21.2332 209.635 21.6812 209.961 22.2599C210.288 22.8386 210.451 23.5199 210.451 24.3039C210.451 24.3786 210.447 24.4626 210.437 24.5559C210.437 24.6492 210.433 24.7379 210.423 24.8219H204.193V23.6599H209.499L208.813 24.0239C208.823 23.5946 208.734 23.2166 208.547 22.8899C208.361 22.5632 208.104 22.3066 207.777 22.1199C207.46 21.9332 207.091 21.8399 206.671 21.8399C206.242 21.8399 205.864 21.9332 205.537 22.1199C205.22 22.3066 204.968 22.5679 204.781 22.9039C204.604 23.2306 204.515 23.6179 204.515 24.0659V24.3459C204.515 24.7939 204.618 25.1906 204.823 25.5359C205.029 25.8812 205.318 26.1472 205.691 26.3339C206.065 26.5206 206.494 26.6139 206.979 26.6139C207.399 26.6139 207.777 26.5486 208.113 26.4179C208.449 26.2872 208.748 26.0819 209.009 25.8019L209.947 26.8799C209.611 27.2719 209.187 27.5752 208.673 27.7899C208.169 27.9952 207.591 28.0979 206.937 28.0979Z" fill="black"/>
<path d="M216.374 20.4399C216.972 20.4399 217.504 20.5566 217.97 20.7899C218.446 21.0232 218.82 21.3826 219.09 21.8679C219.361 22.3439 219.496 22.9599 219.496 23.7159V27.9999H217.746V23.9399C217.746 23.2772 217.588 22.7826 217.27 22.4559C216.962 22.1292 216.528 21.9659 215.968 21.9659C215.558 21.9659 215.194 22.0499 214.876 22.2179C214.559 22.3859 214.312 22.6379 214.134 22.9739C213.966 23.3006 213.882 23.7159 213.882 24.2199V27.9999H212.132V20.5239H213.798V22.5399L213.504 21.9239C213.766 21.4479 214.144 21.0839 214.638 20.8319C215.142 20.5706 215.721 20.4399 216.374 20.4399Z" fill="black"/>
<path d="M220.946 30.8139C220.62 30.8139 220.312 30.7766 220.022 30.7019C219.724 30.6366 219.472 30.5292 219.266 30.3799L219.77 29.0779C220.041 29.2739 220.382 29.3719 220.792 29.3719C221.11 29.3719 221.357 29.2692 221.534 29.0639C221.712 28.8679 221.8 28.5739 221.8 28.1819V20.5239H223.55V28.1399C223.55 28.9612 223.322 29.6099 222.864 30.0859C222.416 30.5712 221.777 30.8139 220.946 30.8139ZM222.668 19.2919C222.342 19.2919 222.071 19.1892 221.856 18.9839C221.651 18.7786 221.548 18.5312 221.548 18.2419C221.548 17.9432 221.651 17.6959 221.856 17.4999C222.071 17.2946 222.342 17.1919 222.668 17.1919C222.995 17.1919 223.261 17.2899 223.466 17.4859C223.681 17.6726 223.788 17.9106 223.788 18.1999C223.788 18.5079 223.686 18.7692 223.48 18.9839C223.275 19.1892 223.004 19.2919 222.668 19.2919Z" fill="black"/>
<path d="M229.205 28.0979C228.44 28.0979 227.759 27.9346 227.161 27.6079C226.564 27.2719 226.093 26.8146 225.747 26.2359C225.402 25.6572 225.229 24.9992 225.229 24.2619C225.229 23.5152 225.402 22.8572 225.747 22.2879C226.093 21.7092 226.564 21.2566 227.161 20.9299C227.759 20.6032 228.44 20.4399 229.205 20.4399C229.98 20.4399 230.666 20.6032 231.263 20.9299C231.87 21.2566 232.341 21.7046 232.677 22.2739C233.023 22.8432 233.195 23.5059 233.195 24.2619C233.195 24.9992 233.023 25.6572 232.677 26.2359C232.341 26.8146 231.87 27.2719 231.263 27.6079C230.666 27.9346 229.98 28.0979 229.205 28.0979ZM229.205 26.5999C229.635 26.5999 230.017 26.5066 230.353 26.3199C230.689 26.1332 230.951 25.8626 231.137 25.5079C231.333 25.1532 231.431 24.7379 231.431 24.2619C231.431 23.7766 231.333 23.3612 231.137 23.0159C230.951 22.6612 230.689 22.3906 230.353 22.2039C230.017 22.0172 229.639 21.9239 229.219 21.9239C228.79 21.9239 228.407 22.0172 228.071 22.2039C227.745 22.3906 227.483 22.6612 227.287 23.0159C227.091 23.3612 226.993 23.7766 226.993 24.2619C226.993 24.7379 227.091 25.1532 227.287 25.5079C227.483 25.8626 227.745 26.1332 228.071 26.3199C228.407 26.5066 228.785 26.5999 229.205 26.5999Z" fill="black"/>
<path d="M235.28 30.8139C234.916 30.8139 234.552 30.7532 234.188 30.6319C233.824 30.5106 233.52 30.3426 233.278 30.1279L233.978 28.8399C234.155 28.9986 234.356 29.1246 234.58 29.2179C234.804 29.3112 235.032 29.3579 235.266 29.3579C235.583 29.3579 235.84 29.2786 236.036 29.1199C236.232 28.9612 236.414 28.6952 236.582 28.3219L237.016 27.3419L237.156 27.1319L239.984 20.5239H241.664L238.164 28.6019C237.93 29.1619 237.669 29.6052 237.38 29.9319C237.1 30.2586 236.782 30.4872 236.428 30.6179C236.082 30.7486 235.7 30.8139 235.28 30.8139ZM236.82 28.2659L233.446 20.5239H235.266L238.01 26.9779L236.82 28.2659Z" fill="black"/>
<path d="M247.131 27.9999V26.4879L247.033 26.1659V23.5199C247.033 23.0066 246.879 22.6099 246.571 22.3299C246.263 22.0406 245.796 21.8959 245.171 21.8959C244.751 21.8959 244.336 21.9612 243.925 22.0919C243.524 22.2226 243.183 22.4046 242.903 22.6379L242.217 21.3639C242.618 21.0559 243.094 20.8272 243.645 20.6779C244.205 20.5192 244.784 20.4399 245.381 20.4399C246.464 20.4399 247.299 20.7012 247.887 21.2239C248.484 21.7372 248.783 22.5352 248.783 23.6179V27.9999H247.131ZM244.779 28.0979C244.219 28.0979 243.729 28.0046 243.309 27.8179C242.889 27.6219 242.562 27.3559 242.329 27.0199C242.105 26.6746 241.993 26.2872 241.993 25.8579C241.993 25.4379 242.091 25.0599 242.287 24.7239C242.492 24.3879 242.824 24.1219 243.281 23.9259C243.738 23.7299 244.345 23.6319 245.101 23.6319H247.271V24.7939H245.227C244.63 24.7939 244.228 24.8919 244.023 25.0879C243.818 25.2746 243.715 25.5079 243.715 25.7879C243.715 26.1052 243.841 26.3572 244.093 26.5439C244.345 26.7306 244.695 26.8239 245.143 26.8239C245.572 26.8239 245.955 26.7259 246.291 26.5299C246.636 26.3339 246.884 26.0446 247.033 25.6619L247.327 26.7119C247.159 27.1506 246.856 27.4912 246.417 27.7339C245.988 27.9766 245.442 28.0979 244.779 28.0979Z" fill="black"/>
<path d="M255.173 28.0979C254.538 28.0979 253.974 27.9579 253.479 27.6779C252.984 27.3979 252.592 26.9779 252.303 26.4179C252.023 25.8486 251.883 25.1299 251.883 24.2619C251.883 23.3846 252.028 22.6659 252.317 22.1059C252.616 21.5459 253.012 21.1306 253.507 20.8599C254.011 20.5799 254.566 20.4399 255.173 20.4399C255.91 20.4399 256.559 20.5986 257.119 20.9159C257.688 21.2332 258.136 21.6766 258.463 22.2459C258.799 22.8152 258.967 23.4872 258.967 24.2619C258.967 25.0366 258.799 25.7086 258.463 26.2779C258.136 26.8472 257.688 27.2952 257.119 27.6219C256.559 27.9392 255.91 28.0979 255.173 28.0979ZM251.029 27.9999V17.6119H252.779V22.2599L252.639 24.2479L252.695 26.2359V27.9999H251.029ZM254.977 26.5999C255.397 26.5999 255.77 26.5066 256.097 26.3199C256.433 26.1332 256.699 25.8626 256.895 25.5079C257.091 25.1532 257.189 24.7379 257.189 24.2619C257.189 23.7766 257.091 23.3612 256.895 23.0159C256.699 22.6612 256.433 22.3906 256.097 22.2039C255.77 22.0172 255.397 21.9239 254.977 21.9239C254.557 21.9239 254.179 22.0172 253.843 22.2039C253.507 22.3906 253.241 22.6612 253.045 23.0159C252.849 23.3612 252.751 23.7766 252.751 24.2619C252.751 24.7379 252.849 25.1532 253.045 25.5079C253.241 25.8626 253.507 26.1332 253.843 26.3199C254.179 26.5066 254.557 26.5999 254.977 26.5999Z" fill="black"/>
<path d="M260.627 27.9999V17.6119H262.377V27.9999H260.627Z" fill="black"/>
<path d="M268.187 28.0979C267.357 28.0979 266.629 27.9346 266.003 27.6079C265.387 27.2719 264.907 26.8146 264.561 26.2359C264.225 25.6572 264.057 24.9992 264.057 24.2619C264.057 23.5152 264.221 22.8572 264.547 22.2879C264.883 21.7092 265.341 21.2566 265.919 20.9299C266.507 20.6032 267.175 20.4399 267.921 20.4399C268.649 20.4399 269.298 20.5986 269.867 20.9159C270.437 21.2332 270.885 21.6812 271.211 22.2599C271.538 22.8386 271.701 23.5199 271.701 24.3039C271.701 24.3786 271.697 24.4626 271.687 24.5559C271.687 24.6492 271.683 24.7379 271.673 24.8219H265.443V23.6599H270.749L270.063 24.0239C270.073 23.5946 269.984 23.2166 269.797 22.8899C269.611 22.5632 269.354 22.3066 269.027 22.1199C268.71 21.9332 268.341 21.8399 267.921 21.8399C267.492 21.8399 267.114 21.9332 266.787 22.1199C266.47 22.3066 266.218 22.5679 266.031 22.9039C265.854 23.2306 265.765 23.6179 265.765 24.0659V24.3459C265.765 24.7939 265.868 25.1906 266.073 25.5359C266.279 25.8812 266.568 26.1472 266.941 26.3339C267.315 26.5206 267.744 26.6139 268.229 26.6139C268.649 26.6139 269.027 26.5486 269.363 26.4179C269.699 26.2872 269.998 26.0819 270.259 25.8019L271.197 26.8799C270.861 27.2719 270.437 27.5752 269.923 27.7899C269.419 27.9952 268.841 28.0979 268.187 28.0979Z" fill="black"/>
<path d="M273.942 28.0979C273.625 28.0979 273.354 27.9906 273.13 27.7759C272.906 27.5519 272.794 27.2719 272.794 26.9359C272.794 26.5812 272.906 26.3012 273.13 26.0959C273.354 25.8812 273.625 25.7739 273.942 25.7739C274.26 25.7739 274.53 25.8812 274.754 26.0959C274.978 26.3012 275.09 26.5812 275.09 26.9359C275.09 27.2719 274.978 27.5519 274.754 27.7759C274.53 27.9906 274.26 28.0979 273.942 28.0979Z" fill="black"/>
<path d="M276.065 21.8539L276.877 18.7459L277.115 19.7959C276.788 19.7959 276.513 19.6932 276.289 19.4879C276.074 19.2826 275.967 19.0072 275.967 18.6619C275.967 18.3166 276.074 18.0412 276.289 17.8359C276.513 17.6212 276.784 17.5139 277.101 17.5139C277.428 17.5139 277.698 17.6212 277.913 17.8359C278.128 18.0506 278.235 18.3259 278.235 18.6619C278.235 18.7646 278.226 18.8719 278.207 18.9839C278.198 19.0866 278.17 19.2079 278.123 19.3479C278.086 19.4786 278.02 19.6512 277.927 19.8659L277.199 21.8539H276.065ZM279.033 21.8539L279.845 18.7459L280.083 19.7959C279.756 19.7959 279.481 19.6932 279.257 19.4879C279.042 19.2826 278.935 19.0072 278.935 18.6619C278.935 18.3166 279.042 18.0412 279.257 17.8359C279.481 17.6212 279.752 17.5139 280.069 17.5139C280.396 17.5139 280.666 17.6212 280.881 17.8359C281.096 18.0506 281.203 18.3259 281.203 18.6619C281.203 18.7646 281.194 18.8719 281.175 18.9839C281.166 19.0866 281.138 19.2079 281.091 19.3479C281.054 19.4786 280.988 19.6512 280.895 19.8659L280.167 21.8539H279.033Z" fill="black"/>
</svg>
