<svg width="350" height="350" viewBox="0 0 350 350" fill="none" xmlns="http://www.w3.org/2000/svg">
<path d="M175 0C95.9436 0 29.1665 66.7771 29.1665 145.833C29.1665 224.89 95.9436 291.667 175 291.667C254.056 291.667 320.833 224.89 320.833 145.833C320.833 66.7771 254.056 0 175 0ZM175 72.9167C200.185 72.9167 218.75 91.4667 218.75 116.667C218.75 141.867 200.185 160.417 175 160.417C149.829 160.417 131.25 141.867 131.25 116.667C131.25 91.4667 149.829 72.9167 175 72.9167ZM100.537 215.425C113.619 196.175 135.435 183.342 160.417 183.342H189.583C214.579 183.342 236.381 196.175 249.462 215.425C230.825 235.375 204.385 247.917 175 247.917C145.614 247.917 119.175 235.375 100.537 215.425Z" fill="#C2C6CC"/>
</svg>
