<svg width="44" height="44" viewBox="0 0 44 44" fill="none" xmlns="http://www.w3.org/2000/svg">
<path d="M22 3.6665C12.0615 3.6665 3.66667 12.0613 3.66667 21.9998C3.66667 31.9383 12.0615 40.3332 22 40.3332C31.9385 40.3332 40.3333 31.9383 40.3333 21.9998C40.3333 12.0613 31.9385 3.6665 22 3.6665ZM22 12.8332C25.1662 12.8332 27.5 15.1652 27.5 18.3332C27.5 21.5012 25.1662 23.8332 22 23.8332C18.8357 23.8332 16.5 21.5012 16.5 18.3332C16.5 15.1652 18.8357 12.8332 22 12.8332ZM12.639 30.7485C14.2835 28.3285 17.0262 26.7152 20.1667 26.7152H23.8333C26.9757 26.7152 29.7165 28.3285 31.361 30.7485C29.018 33.2565 25.6942 34.8332 22 34.8332C18.3058 34.8332 14.982 33.2565 12.639 30.7485Z" fill="#C2C6CC"/>
</svg>
