<svg width="138" height="12" viewBox="0 0 138 12" fill="none" xmlns="http://www.w3.org/2000/svg">
<path d="M5.85221 11.1399C5.10554 11.1399 4.41021 11.0186 3.76621 10.7759C3.13154 10.5239 2.57621 10.1739 2.10021 9.72589C1.63354 9.26856 1.26954 8.73189 1.00821 8.11589C0.746878 7.49989 0.616211 6.82789 0.616211 6.09989C0.616211 5.37189 0.746878 4.69989 1.00821 4.08389C1.26954 3.46789 1.63821 2.93589 2.11421 2.48789C2.59021 2.03056 3.14554 1.68056 3.78021 1.43789C4.41488 1.18589 5.11021 1.05989 5.86621 1.05989C6.66888 1.05989 7.40154 1.19989 8.06421 1.47989C8.72688 1.75056 9.28688 2.15656 9.74421 2.69789L8.56821 3.80389C8.21354 3.42123 7.81688 3.13656 7.37821 2.94989C6.93954 2.75389 6.46354 2.65589 5.95021 2.65589C5.43688 2.65589 4.96554 2.73989 4.53621 2.90789C4.11621 3.07589 3.74754 3.31389 3.43021 3.62189C3.12221 3.92989 2.87954 4.29389 2.70221 4.71389C2.53421 5.13389 2.45021 5.59589 2.45021 6.09989C2.45021 6.60389 2.53421 7.06589 2.70221 7.48589C2.87954 7.90589 3.12221 8.26989 3.43021 8.57789C3.74754 8.88589 4.11621 9.12389 4.53621 9.29189C4.96554 9.4599 5.43688 9.54389 5.95021 9.54389C6.46354 9.54389 6.93954 9.45056 7.37821 9.2639C7.81688 9.06789 8.21354 8.7739 8.56821 8.3819L9.74421 9.50189C9.28688 10.0339 8.72688 10.4399 8.06421 10.7199C7.40154 10.9999 6.66421 11.1399 5.85221 11.1399Z" fill="white"/>
<path d="M15.8577 10.9999V9.48789L15.7597 9.16589V6.51989C15.7597 6.00656 15.6057 5.60989 15.2977 5.32989C14.9897 5.04056 14.5231 4.89589 13.8977 4.89589C13.4777 4.89589 13.0624 4.96123 12.6517 5.09189C12.2504 5.22256 11.9097 5.40456 11.6297 5.63789L10.9437 4.36389C11.3451 4.05589 11.8211 3.82723 12.3717 3.67789C12.9317 3.51923 13.5104 3.43989 14.1077 3.43989C15.1904 3.43989 16.0257 3.70123 16.6137 4.22389C17.2111 4.73723 17.5097 5.53523 17.5097 6.61789V10.9999H15.8577ZM13.5057 11.0979C12.9457 11.0979 12.4557 11.0046 12.0357 10.8179C11.6157 10.6219 11.2891 10.3559 11.0557 10.0199C10.8317 9.67456 10.7197 9.28723 10.7197 8.85789C10.7197 8.43789 10.8177 8.05989 11.0137 7.72389C11.2191 7.38789 11.5504 7.12189 12.0077 6.92589C12.4651 6.72989 13.0717 6.63189 13.8277 6.63189H15.9977V7.79389H13.9537C13.3564 7.79389 12.9551 7.89189 12.7497 8.08789C12.5444 8.27456 12.4417 8.5079 12.4417 8.7879C12.4417 9.10523 12.5677 9.35723 12.8197 9.54389C13.0717 9.73056 13.4217 9.82389 13.8697 9.82389C14.2991 9.82389 14.6817 9.72589 15.0177 9.52989C15.3631 9.33389 15.6104 9.04456 15.7597 8.66189L16.0537 9.71189C15.8857 10.1506 15.5824 10.4912 15.1437 10.7339C14.7144 10.9766 14.1684 11.0979 13.5057 11.0979Z" fill="white"/>
<path d="M23.9976 3.43989C24.595 3.43989 25.127 3.55656 25.5936 3.78989C26.0696 4.02323 26.443 4.38256 26.7136 4.86789C26.9843 5.34389 27.1196 5.95989 27.1196 6.71589V10.9999H25.3696V6.93989C25.3696 6.27723 25.211 5.78256 24.8936 5.45589C24.5856 5.12923 24.1516 4.96589 23.5916 4.96589C23.181 4.96589 22.817 5.04989 22.4996 5.21789C22.1823 5.38589 21.935 5.63789 21.7576 5.97389C21.5896 6.30056 21.5056 6.7159 21.5056 7.21989V10.9999H19.7556V3.52389H21.4216V5.53989L21.1276 4.92389C21.389 4.44789 21.767 4.08389 22.2616 3.83189C22.7656 3.57056 23.3443 3.43989 23.9976 3.43989Z" fill="white"/>
<path d="M32.7833 11.0979C31.9993 11.0979 31.2993 10.9346 30.6833 10.6079C30.0766 10.2719 29.6006 9.81456 29.2553 9.2359C28.91 8.65723 28.7373 7.99923 28.7373 7.26189C28.7373 6.51523 28.91 5.85723 29.2553 5.28789C29.6006 4.70923 30.0766 4.25656 30.6833 3.92989C31.2993 3.60323 31.9993 3.43989 32.7833 3.43989C33.5113 3.43989 34.1506 3.58923 34.7013 3.88789C35.2613 4.17723 35.686 4.60656 35.9753 5.17589L34.6313 5.95989C34.4073 5.60523 34.132 5.34389 33.8053 5.17589C33.488 5.00789 33.1426 4.92389 32.7693 4.92389C32.34 4.92389 31.9526 5.01723 31.6073 5.20389C31.262 5.39056 30.9913 5.66123 30.7953 6.01589C30.5993 6.36123 30.5013 6.77656 30.5013 7.26189C30.5013 7.74723 30.5993 8.16723 30.7953 8.52189C30.9913 8.86723 31.262 9.13323 31.6073 9.31989C31.9526 9.50656 32.34 9.5999 32.7693 9.5999C33.1426 9.5999 33.488 9.51589 33.8053 9.34789C34.132 9.17989 34.4073 8.91856 34.6313 8.56389L35.9753 9.34789C35.686 9.9079 35.2613 10.3419 34.7013 10.6499C34.1506 10.9486 33.5113 11.0979 32.7833 11.0979Z" fill="white"/>
<path d="M40.8927 11.0979C40.062 11.0979 39.334 10.9346 38.7087 10.6079C38.0927 10.2719 37.612 9.81456 37.2667 9.2359C36.9307 8.65723 36.7627 7.99923 36.7627 7.26189C36.7627 6.51523 36.926 5.85723 37.2527 5.28789C37.5887 4.70923 38.046 4.25656 38.6247 3.92989C39.2127 3.60323 39.88 3.43989 40.6267 3.43989C41.3547 3.43989 42.0033 3.59856 42.5727 3.91589C43.142 4.23323 43.59 4.68123 43.9167 5.25989C44.2433 5.83856 44.4067 6.51989 44.4067 7.30389C44.4067 7.37856 44.402 7.46256 44.3927 7.55589C44.3927 7.64923 44.388 7.73789 44.3787 7.82189H38.1487V6.65989H43.4547L42.7687 7.02389C42.778 6.59456 42.6893 6.21656 42.5027 5.88989C42.316 5.56323 42.0593 5.30656 41.7327 5.11989C41.4153 4.93323 41.0467 4.83989 40.6267 4.83989C40.1973 4.83989 39.8193 4.93323 39.4927 5.11989C39.1753 5.30656 38.9233 5.56789 38.7367 5.90389C38.5593 6.23056 38.4707 6.61789 38.4707 7.06589V7.34589C38.4707 7.79389 38.5733 8.19056 38.7787 8.53589C38.984 8.88123 39.2733 9.14723 39.6467 9.33389C40.02 9.52056 40.4493 9.6139 40.9347 9.6139C41.3547 9.6139 41.7327 9.54856 42.0687 9.41789C42.4047 9.28723 42.7033 9.08189 42.9647 8.8019L43.9027 9.87989C43.5667 10.2719 43.142 10.5752 42.6287 10.7899C42.1247 10.9952 41.546 11.0979 40.8927 11.0979Z" fill="white"/>
<path d="M46.0877 10.9999V0.611894H47.8377V10.9999H46.0877Z" fill="white"/>
<path d="M54.1717 10.9999V1.19989H58.2037C59.0717 1.19989 59.8137 1.33989 60.4297 1.61989C61.055 1.89989 61.5357 2.30123 61.8717 2.82389C62.2077 3.34656 62.3757 3.96723 62.3757 4.68589C62.3757 5.40456 62.2077 6.02523 61.8717 6.54789C61.5357 7.06123 61.055 7.45789 60.4297 7.73789C59.8137 8.00856 59.0717 8.14389 58.2037 8.14389H55.1797L55.9917 7.31789V10.9999H54.1717ZM60.5837 10.9999L58.1057 7.44389H60.0517L62.5437 10.9999H60.5837ZM55.9917 7.51389L55.1797 6.64589H58.1197C58.9223 6.64589 59.5243 6.47323 59.9257 6.12789C60.3363 5.78256 60.5417 5.30189 60.5417 4.68589C60.5417 4.06056 60.3363 3.57989 59.9257 3.24389C59.5243 2.90789 58.9223 2.73989 58.1197 2.73989H55.1797L55.9917 1.84389V7.51389Z" fill="white"/>
<path d="M67.7579 11.0979C66.9273 11.0979 66.1992 10.9346 65.5739 10.6079C64.9579 10.2719 64.4772 9.81456 64.1319 9.2359C63.7959 8.65723 63.6279 7.99923 63.6279 7.26189C63.6279 6.51523 63.7912 5.85723 64.1179 5.28789C64.4539 4.70923 64.9112 4.25656 65.4899 3.92989C66.0779 3.60323 66.7453 3.43989 67.4919 3.43989C68.2199 3.43989 68.8686 3.59856 69.4379 3.91589C70.0073 4.23323 70.4552 4.68123 70.7819 5.25989C71.1086 5.83856 71.2719 6.51989 71.2719 7.30389C71.2719 7.37856 71.2673 7.46256 71.2579 7.55589C71.2579 7.64923 71.2533 7.73789 71.2439 7.82189H65.0139V6.65989H70.3199L69.6339 7.02389C69.6432 6.59456 69.5546 6.21656 69.3679 5.88989C69.1813 5.56323 68.9246 5.30656 68.5979 5.11989C68.2806 4.93323 67.9119 4.83989 67.4919 4.83989C67.0626 4.83989 66.6846 4.93323 66.3579 5.11989C66.0406 5.30656 65.7886 5.56789 65.6019 5.90389C65.4246 6.23056 65.3359 6.61789 65.3359 7.06589V7.34589C65.3359 7.79389 65.4386 8.19056 65.6439 8.53589C65.8492 8.88123 66.1386 9.14723 66.5119 9.33389C66.8853 9.52056 67.3146 9.6139 67.7999 9.6139C68.2199 9.6139 68.5979 9.54856 68.9339 9.41789C69.2699 9.28723 69.5686 9.08189 69.8299 8.8019L70.7679 9.87989C70.4319 10.2719 70.0073 10.5752 69.4939 10.7899C68.9899 10.9952 68.4113 11.0979 67.7579 11.0979Z" fill="white"/>
<path d="M75.2629 11.0979C74.6376 11.0979 74.0356 11.0186 73.4569 10.8599C72.8876 10.6919 72.4349 10.4912 72.0989 10.2579L72.7709 8.92789C73.1069 9.14256 73.5082 9.31989 73.9749 9.45989C74.4416 9.59989 74.9082 9.6699 75.3749 9.6699C75.9256 9.6699 76.3222 9.59523 76.5649 9.44589C76.8169 9.29656 76.9429 9.09589 76.9429 8.84389C76.9429 8.63856 76.8589 8.48456 76.6909 8.3819C76.5229 8.26989 76.3036 8.18589 76.0329 8.12989C75.7622 8.07389 75.4589 8.02256 75.1229 7.97589C74.7962 7.92923 74.4649 7.86856 74.1289 7.79389C73.8022 7.70989 73.5036 7.59323 73.2329 7.44389C72.9622 7.28523 72.7429 7.07523 72.5749 6.81389C72.4069 6.55256 72.3229 6.20723 72.3229 5.77789C72.3229 5.30189 72.4582 4.89123 72.7289 4.54589C72.9996 4.19123 73.3776 3.92056 73.8629 3.73389C74.3576 3.53789 74.9409 3.43989 75.6129 3.43989C76.1169 3.43989 76.6256 3.49589 77.1389 3.60789C77.6522 3.71989 78.0769 3.87856 78.4129 4.08389L77.7409 5.41389C77.3862 5.19923 77.0269 5.05456 76.6629 4.97989C76.3082 4.89589 75.9536 4.85389 75.5989 4.85389C75.0669 4.85389 74.6702 4.93323 74.4089 5.09189C74.1569 5.25056 74.0309 5.45123 74.0309 5.69389C74.0309 5.91789 74.1149 6.08589 74.2829 6.19789C74.4509 6.30989 74.6702 6.39856 74.9409 6.46389C75.2116 6.52923 75.5102 6.58523 75.8369 6.63189C76.1729 6.66923 76.5042 6.72989 76.8309 6.81389C77.1576 6.89789 77.4562 7.01456 77.7269 7.16389C78.0069 7.30389 78.2309 7.50456 78.3989 7.76589C78.5669 8.02723 78.6509 8.3679 78.6509 8.7879C78.6509 9.25456 78.5109 9.66056 78.2309 10.0059C77.9602 10.3512 77.5729 10.6219 77.0689 10.8179C76.5649 11.0046 75.9629 11.0979 75.2629 11.0979Z" fill="white"/>
<path d="M83.672 11.0979C82.8413 11.0979 82.1133 10.9346 81.488 10.6079C80.872 10.2719 80.3913 9.81456 80.046 9.2359C79.71 8.65723 79.542 7.99923 79.542 7.26189C79.542 6.51523 79.7053 5.85723 80.032 5.28789C80.368 4.70923 80.8253 4.25656 81.404 3.92989C81.992 3.60323 82.6593 3.43989 83.406 3.43989C84.134 3.43989 84.7826 3.59856 85.352 3.91589C85.9213 4.23323 86.3693 4.68123 86.696 5.25989C87.0226 5.83856 87.186 6.51989 87.186 7.30389C87.186 7.37856 87.1813 7.46256 87.172 7.55589C87.172 7.64923 87.1673 7.73789 87.158 7.82189H80.928V6.65989H86.234L85.548 7.02389C85.5573 6.59456 85.4687 6.21656 85.282 5.88989C85.0953 5.56323 84.8386 5.30656 84.512 5.11989C84.1946 4.93323 83.826 4.83989 83.406 4.83989C82.9766 4.83989 82.5986 4.93323 82.272 5.11989C81.9546 5.30656 81.7026 5.56789 81.516 5.90389C81.3386 6.23056 81.25 6.61789 81.25 7.06589V7.34589C81.25 7.79389 81.3526 8.19056 81.558 8.53589C81.7633 8.88123 82.0526 9.14723 82.426 9.33389C82.7993 9.52056 83.2286 9.6139 83.714 9.6139C84.134 9.6139 84.512 9.54856 84.848 9.41789C85.184 9.28723 85.4826 9.08189 85.744 8.8019L86.682 9.87989C86.346 10.2719 85.9213 10.5752 85.408 10.7899C84.904 10.9952 84.3253 11.0979 83.672 11.0979Z" fill="white"/>
<path d="M88.867 10.9999V3.52389H90.533V5.58189L90.337 4.97989C90.561 4.47589 90.911 4.09323 91.387 3.83189C91.8723 3.57056 92.4743 3.43989 93.193 3.43989V5.10589C93.1183 5.08723 93.0483 5.07789 92.983 5.07789C92.9176 5.06856 92.8523 5.06389 92.787 5.06389C92.1243 5.06389 91.597 5.25989 91.205 5.65189C90.813 6.03456 90.617 6.60856 90.617 7.37389V10.9999H88.867Z" fill="white"/>
<path d="M96.9389 10.9999L93.7329 3.52389H95.5529L98.311 10.1179H97.4149L100.271 3.52389H101.951L98.7449 10.9999H96.9389Z" fill="white"/>
<path d="M107.418 10.9999V9.48789L107.32 9.16589V6.51989C107.32 6.00656 107.166 5.60989 106.858 5.32989C106.55 5.04056 106.084 4.89589 105.458 4.89589C105.038 4.89589 104.623 4.96123 104.212 5.09189C103.811 5.22256 103.47 5.40456 103.19 5.63789L102.504 4.36389C102.906 4.05589 103.382 3.82723 103.932 3.67789C104.492 3.51923 105.071 3.43989 105.668 3.43989C106.751 3.43989 107.586 3.70123 108.174 4.22389C108.772 4.73723 109.07 5.53523 109.07 6.61789V10.9999H107.418ZM105.066 11.0979C104.506 11.0979 104.016 11.0046 103.596 10.8179C103.176 10.6219 102.85 10.3559 102.616 10.0199C102.392 9.67456 102.28 9.28723 102.28 8.85789C102.28 8.43789 102.378 8.05989 102.574 7.72389C102.78 7.38789 103.111 7.12189 103.568 6.92589C104.026 6.72989 104.632 6.63189 105.388 6.63189H107.558V7.79389H105.514C104.917 7.79389 104.516 7.89189 104.31 8.08789C104.105 8.27456 104.002 8.5079 104.002 8.7879C104.002 9.10523 104.128 9.35723 104.38 9.54389C104.632 9.73056 104.982 9.82389 105.43 9.82389C105.86 9.82389 106.242 9.72589 106.578 9.52989C106.924 9.33389 107.171 9.04456 107.32 8.66189L107.614 9.71189C107.446 10.1506 107.143 10.4912 106.704 10.7339C106.275 10.9766 105.729 11.0979 105.066 11.0979Z" fill="white"/>
<path d="M114.13 11.0979C113.309 11.0979 112.674 10.8879 112.226 10.4679C111.778 10.0386 111.554 9.40856 111.554 8.57789V1.87189H113.304V8.53589C113.304 8.89056 113.393 9.16589 113.57 9.36189C113.757 9.55789 114.014 9.6559 114.34 9.6559C114.732 9.6559 115.059 9.55323 115.32 9.34789L115.81 10.5939C115.605 10.7619 115.353 10.8879 115.054 10.9719C114.756 11.0559 114.448 11.0979 114.13 11.0979ZM110.322 4.97989V3.57989H115.306V4.97989H110.322Z" fill="white"/>
<path d="M117.25 10.9999V3.52389H119V10.9999H117.25ZM118.132 2.29189C117.805 2.29189 117.534 2.18923 117.32 1.98389C117.114 1.77856 117.012 1.53123 117.012 1.24189C117.012 0.943228 117.114 0.695894 117.32 0.499894C117.534 0.294561 117.805 0.191895 118.132 0.191895C118.458 0.191895 118.724 0.289894 118.93 0.485894C119.144 0.672561 119.252 0.910561 119.252 1.19989C119.252 1.50789 119.149 1.76923 118.944 1.98389C118.738 2.18923 118.468 2.29189 118.132 2.29189Z" fill="white"/>
<path d="M124.657 11.0979C123.891 11.0979 123.21 10.9346 122.613 10.6079C122.015 10.2719 121.544 9.81456 121.199 9.2359C120.853 8.65723 120.681 7.99923 120.681 7.26189C120.681 6.51523 120.853 5.85723 121.199 5.28789C121.544 4.70923 122.015 4.25656 122.613 3.92989C123.21 3.60323 123.891 3.43989 124.657 3.43989C125.431 3.43989 126.117 3.60323 126.715 3.92989C127.321 4.25656 127.793 4.70456 128.129 5.27389C128.474 5.84323 128.647 6.50589 128.647 7.26189C128.647 7.99923 128.474 8.65723 128.129 9.2359C127.793 9.81456 127.321 10.2719 126.715 10.6079C126.117 10.9346 125.431 11.0979 124.657 11.0979ZM124.657 9.5999C125.086 9.5999 125.469 9.50656 125.805 9.31989C126.141 9.13323 126.402 8.86256 126.589 8.50789C126.785 8.15323 126.883 7.7379 126.883 7.26189C126.883 6.77656 126.785 6.36123 126.589 6.01589C126.402 5.66123 126.141 5.39056 125.805 5.20389C125.469 5.01723 125.091 4.92389 124.671 4.92389C124.241 4.92389 123.859 5.01723 123.523 5.20389C123.196 5.39056 122.935 5.66123 122.739 6.01589C122.543 6.36123 122.445 6.77656 122.445 7.26189C122.445 7.7379 122.543 8.15323 122.739 8.50789C122.935 8.86256 123.196 9.13323 123.523 9.31989C123.859 9.50656 124.237 9.5999 124.657 9.5999Z" fill="white"/>
<path d="M134.562 3.43989C135.159 3.43989 135.691 3.55656 136.158 3.78989C136.634 4.02323 137.007 4.38256 137.278 4.86789C137.549 5.34389 137.684 5.95989 137.684 6.71589V10.9999H135.934V6.93989C135.934 6.27723 135.775 5.78256 135.458 5.45589C135.15 5.12923 134.716 4.96589 134.156 4.96589C133.745 4.96589 133.381 5.04989 133.064 5.21789C132.747 5.38589 132.499 5.63789 132.322 5.97389C132.154 6.30056 132.07 6.7159 132.07 7.21989V10.9999H130.32V3.52389H131.986V5.53989L131.692 4.92389C131.953 4.44789 132.331 4.08389 132.826 3.83189C133.33 3.57056 133.909 3.43989 134.562 3.43989Z" fill="white"/>
</svg>
