<svg width="375" height="31" viewBox="0 0 375 31" fill="none" xmlns="http://www.w3.org/2000/svg">
<path d="M15.5121 30.2401C13.4054 30.2401 11.4587 29.8935 9.67207 29.2001C7.8854 28.4801 6.33874 27.4801 5.03207 26.2001C3.7254 24.9201 2.69874 23.4135 1.95207 21.6801C1.23207 19.9468 0.87207 18.0535 0.87207 16.0001C0.87207 13.9468 1.23207 12.0535 1.95207 10.3201C2.69874 8.58678 3.7254 7.08012 5.03207 5.80012C6.3654 4.52012 7.9254 3.53345 9.71207 2.84012C11.4987 2.12012 13.4454 1.76012 15.5521 1.76012C17.5787 1.76012 19.4854 2.10678 21.2721 2.80012C23.0587 3.46678 24.5654 4.48012 25.7921 5.84012L23.9121 7.72012C22.7654 6.54678 21.4987 5.70678 20.1121 5.20012C18.7254 4.66678 17.2321 4.40012 15.6321 4.40012C13.9521 4.40012 12.3921 4.69345 10.9521 5.28012C9.51207 5.84012 8.25874 6.65345 7.19207 7.72012C6.1254 8.76012 5.2854 9.98678 4.67207 11.4001C4.0854 12.7868 3.79207 14.3201 3.79207 16.0001C3.79207 17.6801 4.0854 19.2268 4.67207 20.6401C5.2854 22.0268 6.1254 23.2535 7.19207 24.3201C8.25874 25.3601 9.51207 26.1735 10.9521 26.7601C12.3921 27.3201 13.9521 27.6001 15.6321 27.6001C17.2321 27.6001 18.7254 27.3335 20.1121 26.8001C21.4987 26.2668 22.7654 25.4135 23.9121 24.2401L25.7921 26.1201C24.5654 27.4801 23.0587 28.5068 21.2721 29.2001C19.4854 29.8935 17.5654 30.2401 15.5121 30.2401Z" fill="black"/>
<path d="M41.9246 30.2001C39.8979 30.2001 38.0712 29.7468 36.4446 28.8401C34.8446 27.9068 33.5779 26.6401 32.6446 25.0401C31.7112 23.4135 31.2446 21.5601 31.2446 19.4801C31.2446 17.3735 31.7112 15.5201 32.6446 13.9201C33.5779 12.3201 34.8446 11.0668 36.4446 10.1601C38.0446 9.25345 39.8712 8.80012 41.9246 8.80012C44.0046 8.80012 45.8446 9.25345 47.4446 10.1601C49.0712 11.0668 50.3379 12.3201 51.2446 13.9201C52.1779 15.5201 52.6446 17.3735 52.6446 19.4801C52.6446 21.5601 52.1779 23.4135 51.2446 25.0401C50.3379 26.6401 49.0712 27.9068 47.4446 28.8401C45.8179 29.7468 43.9779 30.2001 41.9246 30.2001ZM41.9246 27.6801C43.4446 27.6801 44.7912 27.3468 45.9646 26.6801C47.1379 25.9868 48.0579 25.0268 48.7246 23.8001C49.4179 22.5468 49.7646 21.1068 49.7646 19.4801C49.7646 17.8268 49.4179 16.3868 48.7246 15.1601C48.0579 13.9335 47.1379 12.9868 45.9646 12.3201C44.7912 11.6268 43.4579 11.2801 41.9646 11.2801C40.4712 11.2801 39.1379 11.6268 37.9646 12.3201C36.7912 12.9868 35.8579 13.9335 35.1646 15.1601C34.4712 16.3868 34.1246 17.8268 34.1246 19.4801C34.1246 21.1068 34.4712 22.5468 35.1646 23.8001C35.8579 25.0268 36.7912 25.9868 37.9646 26.6801C39.1379 27.3468 40.4579 27.6801 41.9246 27.6801Z" fill="black"/>
<path d="M71.9627 8.80012C73.6694 8.80012 75.1627 9.13345 76.4427 9.80012C77.7494 10.4401 78.7627 11.4268 79.4827 12.7601C80.2294 14.0935 80.6027 15.7735 80.6027 17.8001V30.0001H77.7627V18.0801C77.7627 15.8668 77.2027 14.2001 76.0827 13.0801C74.9894 11.9335 73.4427 11.3601 71.4427 11.3601C69.9494 11.3601 68.6427 11.6668 67.5227 12.2801C66.4294 12.8668 65.576 13.7334 64.9627 14.8801C64.376 16.0001 64.0827 17.3601 64.0827 18.9601V30.0001H61.2427V9.00012H63.9627V14.7601L63.5227 13.6801C64.1894 12.1601 65.256 10.9734 66.7227 10.1201C68.1894 9.24012 69.936 8.80012 71.9627 8.80012Z" fill="black"/>
<path d="M91.5539 30.0001V6.36012C91.5539 4.49345 92.1006 2.98678 93.1939 1.84012C94.2873 0.69345 95.8606 0.120117 97.9139 0.120117C98.714 0.120117 99.4873 0.226783 100.234 0.440117C100.981 0.653451 101.607 0.986785 102.114 1.44012L101.154 3.56012C100.754 3.21345 100.287 2.96012 99.7539 2.80012C99.2206 2.61345 98.6473 2.52012 98.0339 2.52012C96.8339 2.52012 95.9139 2.85345 95.2739 3.52012C94.6339 4.18678 94.3139 5.17345 94.3139 6.48012V9.68012L94.3939 11.0001V30.0001H91.5539ZM87.7939 11.3601V9.00012H100.794V11.3601H87.7939ZM104.634 30.0001V9.00012H107.474V30.0001H104.634ZM106.074 4.36012C105.487 4.36012 104.994 4.16012 104.594 3.76012C104.194 3.36012 103.994 2.88012 103.994 2.32012C103.994 1.76012 104.194 1.29345 104.594 0.920116C104.994 0.520117 105.487 0.320116 106.074 0.320116C106.661 0.320116 107.154 0.506783 107.554 0.880116C107.954 1.25345 108.154 1.72012 108.154 2.28012C108.154 2.86678 107.954 3.36012 107.554 3.76012C107.181 4.16012 106.687 4.36012 106.074 4.36012Z" fill="black"/>
<path d="M118.249 30.0001V9.00012H120.969V14.7201L120.689 13.7201C121.276 12.1201 122.262 10.9068 123.649 10.0801C125.036 9.22678 126.756 8.80012 128.809 8.80012V11.5601C128.702 11.5601 128.596 11.5601 128.489 11.5601C128.382 11.5335 128.276 11.5201 128.169 11.5201C125.956 11.5201 124.222 12.2001 122.969 13.5601C121.716 14.8935 121.089 16.8001 121.089 19.2801V30.0001H118.249Z" fill="black"/>
<path d="M163.031 8.80012C164.738 8.80012 166.218 9.13345 167.471 9.80012C168.751 10.4401 169.738 11.4268 170.431 12.7601C171.151 14.0935 171.511 15.7735 171.511 17.8001V30.0001H168.671V18.0801C168.671 15.8668 168.138 14.2001 167.071 13.0801C166.031 11.9335 164.551 11.3601 162.631 11.3601C161.191 11.3601 159.938 11.6668 158.871 12.2801C157.831 12.8668 157.018 13.7334 156.431 14.8801C155.871 16.0001 155.591 17.3601 155.591 18.9601V30.0001H152.751V18.0801C152.751 15.8668 152.218 14.2001 151.151 13.0801C150.084 11.9335 148.591 11.3601 146.671 11.3601C145.258 11.3601 144.018 11.6668 142.951 12.2801C141.884 12.8668 141.058 13.7334 140.471 14.8801C139.911 16.0001 139.631 17.3601 139.631 18.9601V30.0001H136.791V9.00012H139.511V14.6801L139.071 13.6801C139.711 12.1601 140.738 10.9734 142.151 10.1201C143.591 9.24012 145.284 8.80012 147.231 8.80012C149.284 8.80012 151.031 9.32012 152.471 10.3601C153.911 11.3735 154.844 12.9068 155.271 14.9601L154.151 14.5201C154.764 12.8134 155.844 11.4401 157.391 10.4001C158.964 9.33345 160.844 8.80012 163.031 8.80012Z" fill="black"/>
<path d="M191.402 30.0001L204.202 2.00012H207.122L219.922 30.0001H216.802L205.042 3.72012H206.242L194.482 30.0001H191.402ZM196.442 22.5201L197.322 20.1201H213.602L214.482 22.5201H196.442Z" fill="black"/>
<path d="M235.278 30.2001C233.198 30.2001 231.332 29.7468 229.678 28.8401C228.052 27.9068 226.772 26.6401 225.838 25.0401C224.905 23.4135 224.438 21.5601 224.438 19.4801C224.438 17.3735 224.905 15.5201 225.838 13.9201C226.772 12.3201 228.052 11.0668 229.678 10.1601C231.332 9.25345 233.198 8.80012 235.278 8.80012C237.065 8.80012 238.678 9.14678 240.118 9.84012C241.558 10.5335 242.692 11.5735 243.518 12.9601L241.398 14.4001C240.678 13.3335 239.785 12.5468 238.718 12.0401C237.652 11.5335 236.492 11.2801 235.238 11.2801C233.745 11.2801 232.398 11.6268 231.198 12.3201C229.998 12.9868 229.052 13.9335 228.358 15.1601C227.665 16.3868 227.318 17.8268 227.318 19.4801C227.318 21.1335 227.665 22.5735 228.358 23.8001C229.052 25.0268 229.998 25.9868 231.198 26.6801C232.398 27.3468 233.745 27.6801 235.238 27.6801C236.492 27.6801 237.652 27.4268 238.718 26.9201C239.785 26.4135 240.678 25.6401 241.398 24.6001L243.518 26.0401C242.692 27.4001 241.558 28.4401 240.118 29.1601C238.678 29.8535 237.065 30.2001 235.278 30.2001Z" fill="black"/>
<path d="M260.266 30.2001C258.186 30.2001 256.319 29.7468 254.666 28.8401C253.039 27.9068 251.759 26.6401 250.826 25.0401C249.892 23.4135 249.426 21.5601 249.426 19.4801C249.426 17.3735 249.892 15.5201 250.826 13.9201C251.759 12.3201 253.039 11.0668 254.666 10.1601C256.319 9.25345 258.186 8.80012 260.266 8.80012C262.052 8.80012 263.666 9.14678 265.106 9.84012C266.546 10.5335 267.679 11.5735 268.506 12.9601L266.386 14.4001C265.666 13.3335 264.772 12.5468 263.706 12.0401C262.639 11.5335 261.479 11.2801 260.226 11.2801C258.732 11.2801 257.386 11.6268 256.186 12.3201C254.986 12.9868 254.039 13.9335 253.346 15.1601C252.652 16.3868 252.306 17.8268 252.306 19.4801C252.306 21.1335 252.652 22.5735 253.346 23.8001C254.039 25.0268 254.986 25.9868 256.186 26.6801C257.386 27.3468 258.732 27.6801 260.226 27.6801C261.479 27.6801 262.639 27.4268 263.706 26.9201C264.772 26.4135 265.666 25.6401 266.386 24.6001L268.506 26.0401C267.679 27.4001 266.546 28.4401 265.106 29.1601C263.666 29.8535 262.052 30.2001 260.266 30.2001Z" fill="black"/>
<path d="M285.093 30.2001C283.067 30.2001 281.24 29.7468 279.613 28.8401C278.013 27.9068 276.747 26.6401 275.813 25.0401C274.88 23.4135 274.413 21.5601 274.413 19.4801C274.413 17.3735 274.88 15.5201 275.813 13.9201C276.747 12.3201 278.013 11.0668 279.613 10.1601C281.213 9.25345 283.04 8.80012 285.093 8.80012C287.173 8.80012 289.013 9.25345 290.613 10.1601C292.24 11.0668 293.507 12.3201 294.413 13.9201C295.347 15.5201 295.813 17.3735 295.813 19.4801C295.813 21.5601 295.347 23.4135 294.413 25.0401C293.507 26.6401 292.24 27.9068 290.613 28.8401C288.987 29.7468 287.147 30.2001 285.093 30.2001ZM285.093 27.6801C286.613 27.6801 287.96 27.3468 289.133 26.6801C290.307 25.9868 291.227 25.0268 291.893 23.8001C292.587 22.5468 292.933 21.1068 292.933 19.4801C292.933 17.8268 292.587 16.3868 291.893 15.1601C291.227 13.9335 290.307 12.9868 289.133 12.3201C287.96 11.6268 286.627 11.2801 285.133 11.2801C283.64 11.2801 282.307 11.6268 281.133 12.3201C279.96 12.9868 279.027 13.9335 278.333 15.1601C277.64 16.3868 277.293 17.8268 277.293 19.4801C277.293 21.1068 277.64 22.5468 278.333 23.8001C279.027 25.0268 279.96 25.9868 281.133 26.6801C282.307 27.3468 283.627 27.6801 285.093 27.6801Z" fill="black"/>
<path d="M313.091 30.2001C311.305 30.2001 309.745 29.8668 308.411 29.2001C307.078 28.5335 306.038 27.5335 305.291 26.2001C304.571 24.8668 304.211 23.2001 304.211 21.2001V9.00012H307.051V20.8801C307.051 23.1201 307.598 24.8134 308.691 25.9601C309.811 27.0801 311.371 27.6401 313.371 27.6401C314.838 27.6401 316.105 27.3468 317.171 26.7601C318.265 26.1468 319.091 25.2668 319.651 24.1201C320.238 22.9734 320.531 21.6001 320.531 20.0001V9.00012H323.371V30.0001H320.651V24.2401L321.091 25.2801C320.425 26.8268 319.385 28.0401 317.971 28.9201C316.585 29.7734 314.958 30.2001 313.091 30.2001Z" fill="black"/>
<path d="M344.806 8.80012C346.513 8.80012 348.006 9.13345 349.286 9.80012C350.593 10.4401 351.606 11.4268 352.326 12.7601C353.073 14.0935 353.446 15.7735 353.446 17.8001V30.0001H350.606V18.0801C350.606 15.8668 350.046 14.2001 348.926 13.0801C347.833 11.9335 346.286 11.3601 344.286 11.3601C342.793 11.3601 341.486 11.6668 340.366 12.2801C339.273 12.8668 338.42 13.7334 337.806 14.8801C337.22 16.0001 336.926 17.3601 336.926 18.9601V30.0001H334.086V9.00012H336.806V14.7601L336.366 13.6801C337.033 12.1601 338.1 10.9734 339.566 10.1201C341.033 9.24012 342.78 8.80012 344.806 8.80012Z" fill="black"/>
<path d="M370.558 30.2001C368.584 30.2001 367.064 29.6668 365.998 28.6001C364.931 27.5334 364.398 26.0268 364.398 24.0801V4.36012H367.238V23.9201C367.238 25.1468 367.544 26.0935 368.158 26.7601C368.798 27.4268 369.704 27.7601 370.878 27.7601C372.131 27.7601 373.171 27.4001 373.998 26.6801L374.998 28.7201C374.438 29.2268 373.758 29.6001 372.958 29.8401C372.184 30.0801 371.384 30.2001 370.558 30.2001ZM360.638 11.3601V9.00012H373.638V11.3601H360.638Z" fill="black"/>
</svg>
