<svg width="287" height="128" viewBox="0 0 287 128" fill="none" xmlns="http://www.w3.org/2000/svg">
<path d="M6.822 13.032C5.85 13.032 4.944 12.876 4.104 12.564C3.276 12.24 2.556 11.784 1.944 11.196C1.332 10.608 0.852 9.918 0.504 9.126C0.168 8.334 0 7.464 0 6.516C0 5.568 0.168 4.698 0.504 3.906C0.852 3.114 1.332 2.424 1.944 1.836C2.568 1.248 3.294 0.797999 4.122 0.485999C4.95 0.162 5.856 0 6.84 0C7.932 0 8.916 0.192 9.792 0.576C10.68 0.947999 11.424 1.5 12.024 2.232L10.152 3.96C9.72 3.468 9.24 3.102 8.712 2.862C8.184 2.61 7.608 2.484 6.984 2.484C6.396 2.484 5.856 2.58 5.364 2.772C4.872 2.964 4.446 3.24 4.086 3.6C3.726 3.96 3.444 4.386 3.24 4.878C3.048 5.37 2.952 5.916 2.952 6.516C2.952 7.116 3.048 7.662 3.24 8.154C3.444 8.646 3.726 9.072 4.086 9.432C4.446 9.792 4.872 10.068 5.364 10.26C5.856 10.452 6.396 10.548 6.984 10.548C7.608 10.548 8.184 10.428 8.712 10.188C9.24 9.936 9.72 9.558 10.152 9.054L12.024 10.782C11.424 11.514 10.68 12.072 9.792 12.456C8.916 12.84 7.926 13.032 6.822 13.032Z" fill="#483332"/>
<path d="M19.8495 13.032C18.8535 13.032 17.9295 12.87 17.0775 12.546C16.2375 12.222 15.5055 11.766 14.8815 11.178C14.2695 10.59 13.7895 9.9 13.4415 9.108C13.1055 8.316 12.9375 7.452 12.9375 6.516C12.9375 5.58 13.1055 4.716 13.4415 3.924C13.7895 3.132 14.2755 2.442 14.8995 1.854C15.5235 1.266 16.2555 0.809999 17.0955 0.485999C17.9355 0.162 18.8475 0 19.8315 0C20.8275 0 21.7395 0.162 22.5675 0.485999C23.4075 0.809999 24.1335 1.266 24.7455 1.854C25.3695 2.442 25.8555 3.132 26.2035 3.924C26.5515 4.704 26.7255 5.568 26.7255 6.516C26.7255 7.452 26.5515 8.322 26.2035 9.126C25.8555 9.918 25.3695 10.608 24.7455 11.196C24.1335 11.772 23.4075 12.222 22.5675 12.546C21.7395 12.87 20.8335 13.032 19.8495 13.032ZM19.8315 10.548C20.3955 10.548 20.9115 10.452 21.3795 10.26C21.8595 10.068 22.2795 9.792 22.6395 9.432C22.9995 9.072 23.2755 8.646 23.4675 8.154C23.6715 7.662 23.7735 7.116 23.7735 6.516C23.7735 5.916 23.6715 5.37 23.4675 4.878C23.2755 4.386 22.9995 3.96 22.6395 3.6C22.2915 3.24 21.8775 2.964 21.3975 2.772C20.9175 2.58 20.3955 2.484 19.8315 2.484C19.2675 2.484 18.7455 2.58 18.2655 2.772C17.7975 2.964 17.3835 3.24 17.0235 3.6C16.6635 3.96 16.3815 4.386 16.1775 4.878C15.9855 5.37 15.8895 5.916 15.8895 6.516C15.8895 7.104 15.9855 7.65 16.1775 8.154C16.3815 8.646 16.6575 9.072 17.0055 9.432C17.3655 9.792 17.7855 10.068 18.2655 10.26C18.7455 10.452 19.2675 10.548 19.8315 10.548Z" fill="#483332"/>
<path d="M28.917 12.816V0.215999H31.329L38.763 9.288H37.593V0.215999H40.473V12.816H38.079L30.627 3.744H31.797V12.816H28.917Z" fill="#483332"/>
<path d="M46.0641 12.816V2.592H42.0321V0.215999H53.0121V2.592H48.9801V12.816H46.0641Z" fill="#483332"/>
<path d="M52.2923 12.816L57.9082 0.215999H60.7882L66.4222 12.816H63.3622L58.7542 1.692H59.9062L55.2803 12.816H52.2923ZM55.1003 10.116L55.8743 7.902H62.3543L63.1463 10.116H55.1003Z" fill="#483332"/>
<path d="M73.5837 13.032C72.6117 13.032 71.7057 12.876 70.8657 12.564C70.0377 12.24 69.3177 11.784 68.7057 11.196C68.0937 10.608 67.6137 9.918 67.2657 9.126C66.9297 8.334 66.7617 7.464 66.7617 6.516C66.7617 5.568 66.9297 4.698 67.2657 3.906C67.6137 3.114 68.0937 2.424 68.7057 1.836C69.3297 1.248 70.0557 0.797999 70.8837 0.485999C71.7117 0.162 72.6177 0 73.6017 0C74.6937 0 75.6777 0.192 76.5537 0.576C77.4417 0.947999 78.1857 1.5 78.7857 2.232L76.9137 3.96C76.4817 3.468 76.0017 3.102 75.4737 2.862C74.9457 2.61 74.3697 2.484 73.7457 2.484C73.1577 2.484 72.6177 2.58 72.1257 2.772C71.6337 2.964 71.2077 3.24 70.8477 3.6C70.4877 3.96 70.2057 4.386 70.0017 4.878C69.8097 5.37 69.7137 5.916 69.7137 6.516C69.7137 7.116 69.8097 7.662 70.0017 8.154C70.2057 8.646 70.4877 9.072 70.8477 9.432C71.2077 9.792 71.6337 10.068 72.1257 10.26C72.6177 10.452 73.1577 10.548 73.7457 10.548C74.3697 10.548 74.9457 10.428 75.4737 10.188C76.0017 9.936 76.4817 9.558 76.9137 9.054L78.7857 10.782C78.1857 11.514 77.4417 12.072 76.5537 12.456C75.6777 12.84 74.6877 13.032 73.5837 13.032Z" fill="#483332"/>
<path d="M83.2418 12.816V2.592H79.2098V0.215999H90.1898V2.592H86.1578V12.816H83.2418Z" fill="#483332"/>
<path d="M96.8565 12.816V0.215999H99.7725V12.816H96.8565Z" fill="#483332"/>
<path d="M102.763 12.816V0.215999H105.175L112.609 9.288H111.439V0.215999H114.319V12.816H111.925L104.473 3.744H105.643V12.816H102.763Z" fill="#483332"/>
<path d="M120 5.886H126.048V8.226H120V5.886ZM120.216 12.816H117.3V0.215999H126.822V2.556H120.216V12.816Z" fill="#483332"/>
<path d="M134.793 13.032C133.797 13.032 132.873 12.87 132.021 12.546C131.181 12.222 130.449 11.766 129.825 11.178C129.213 10.59 128.733 9.9 128.385 9.108C128.049 8.316 127.881 7.452 127.881 6.516C127.881 5.58 128.049 4.716 128.385 3.924C128.733 3.132 129.219 2.442 129.843 1.854C130.467 1.266 131.199 0.809999 132.039 0.485999C132.879 0.162 133.791 0 134.775 0C135.771 0 136.683 0.162 137.511 0.485999C138.351 0.809999 139.077 1.266 139.689 1.854C140.313 2.442 140.799 3.132 141.147 3.924C141.495 4.704 141.669 5.568 141.669 6.516C141.669 7.452 141.495 8.322 141.147 9.126C140.799 9.918 140.313 10.608 139.689 11.196C139.077 11.772 138.351 12.222 137.511 12.546C136.683 12.87 135.777 13.032 134.793 13.032ZM134.775 10.548C135.339 10.548 135.855 10.452 136.323 10.26C136.803 10.068 137.223 9.792 137.583 9.432C137.943 9.072 138.219 8.646 138.411 8.154C138.615 7.662 138.717 7.116 138.717 6.516C138.717 5.916 138.615 5.37 138.411 4.878C138.219 4.386 137.943 3.96 137.583 3.6C137.235 3.24 136.821 2.964 136.341 2.772C135.861 2.58 135.339 2.484 134.775 2.484C134.211 2.484 133.689 2.58 133.209 2.772C132.741 2.964 132.327 3.24 131.967 3.6C131.607 3.96 131.325 4.386 131.121 4.878C130.929 5.37 130.833 5.916 130.833 6.516C130.833 7.104 130.929 7.65 131.121 8.154C131.325 8.646 131.601 9.072 131.949 9.432C132.309 9.792 132.729 10.068 133.209 10.26C133.689 10.452 134.211 10.548 134.775 10.548Z" fill="#483332"/>
<path d="M0.873047 60.816V50.316H4.96805C5.88805 50.316 6.67305 50.461 7.32305 50.751C7.97305 51.041 8.47305 51.461 8.82305 52.011C9.17305 52.561 9.34805 53.216 9.34805 53.976C9.34805 54.736 9.17305 55.391 8.82305 55.941C8.47305 56.481 7.97305 56.901 7.32305 57.201C6.67305 57.491 5.88805 57.636 4.96805 57.636H1.69805L2.37305 56.931V60.816H0.873047ZM2.37305 57.081L1.69805 56.331H4.92305C5.88305 56.331 6.60805 56.126 7.09805 55.716C7.59805 55.306 7.84805 54.726 7.84805 53.976C7.84805 53.226 7.59805 52.646 7.09805 52.236C6.60805 51.826 5.88305 51.621 4.92305 51.621H1.69805L2.37305 50.871V57.081Z" fill="#483332"/>
<path d="M15.7332 52.791C16.3832 52.791 16.9532 52.916 17.4432 53.166C17.9432 53.416 18.3332 53.796 18.6132 54.306C18.8932 54.816 19.0332 55.461 19.0332 56.241V60.816H17.5932V56.406C17.5932 55.636 17.4032 55.056 17.0232 54.666C16.6532 54.276 16.1282 54.081 15.4482 54.081C14.9382 54.081 14.4932 54.181 14.1132 54.381C13.7332 54.581 13.4382 54.876 13.2282 55.266C13.0282 55.656 12.9282 56.141 12.9282 56.721V60.816H11.4882V49.686H12.9282V55.011L12.6432 54.441C12.9032 53.921 13.3032 53.516 13.8432 53.226C14.3832 52.936 15.0132 52.791 15.7332 52.791Z" fill="#483332"/>
<path d="M25.1032 60.906C24.3032 60.906 23.5932 60.731 22.9732 60.381C22.3532 60.031 21.8632 59.551 21.5032 58.941C21.1432 58.321 20.9632 57.621 20.9632 56.841C20.9632 56.051 21.1432 55.351 21.5032 54.741C21.8632 54.131 22.3532 53.656 22.9732 53.316C23.5932 52.966 24.3032 52.791 25.1032 52.791C25.8932 52.791 26.5982 52.966 27.2182 53.316C27.8482 53.656 28.3382 54.131 28.6882 54.741C29.0482 55.341 29.2282 56.041 29.2282 56.841C29.2282 57.631 29.0482 58.331 28.6882 58.941C28.3382 59.551 27.8482 60.031 27.2182 60.381C26.5982 60.731 25.8932 60.906 25.1032 60.906ZM25.1032 59.646C25.6132 59.646 26.0682 59.531 26.4682 59.301C26.8782 59.071 27.1982 58.746 27.4282 58.326C27.6582 57.896 27.7732 57.401 27.7732 56.841C27.7732 56.271 27.6582 55.781 27.4282 55.371C27.1982 54.951 26.8782 54.626 26.4682 54.396C26.0682 54.166 25.6132 54.051 25.1032 54.051C24.5932 54.051 24.1382 54.166 23.7382 54.396C23.3382 54.626 23.0182 54.951 22.7782 55.371C22.5382 55.781 22.4182 56.271 22.4182 56.841C22.4182 57.401 22.5382 57.896 22.7782 58.326C23.0182 58.746 23.3382 59.071 23.7382 59.301C24.1382 59.531 24.5932 59.646 25.1032 59.646Z" fill="#483332"/>
<path d="M35.4647 52.791C36.1147 52.791 36.6847 52.916 37.1747 53.166C37.6747 53.416 38.0647 53.796 38.3447 54.306C38.6247 54.816 38.7647 55.461 38.7647 56.241V60.816H37.3247V56.406C37.3247 55.636 37.1347 55.056 36.7547 54.666C36.3847 54.276 35.8597 54.081 35.1797 54.081C34.6697 54.081 34.2247 54.181 33.8447 54.381C33.4647 54.581 33.1697 54.876 32.9597 55.266C32.7597 55.656 32.6597 56.141 32.6597 56.721V60.816H31.2197V52.866H32.5997V55.011L32.3747 54.441C32.6347 53.921 33.0347 53.516 33.5747 53.226C34.1147 52.936 34.7447 52.791 35.4647 52.791Z" fill="#483332"/>
<path d="M44.9696 60.906C44.1196 60.906 43.3696 60.731 42.7196 60.381C42.0796 60.031 41.5796 59.551 41.2196 58.941C40.8696 58.331 40.6946 57.631 40.6946 56.841C40.6946 56.051 40.8646 55.351 41.2046 54.741C41.5546 54.131 42.0296 53.656 42.6296 53.316C43.2396 52.966 43.9246 52.791 44.6846 52.791C45.4546 52.791 46.1346 52.961 46.7246 53.301C47.3146 53.641 47.7747 54.121 48.1046 54.741C48.4446 55.351 48.6146 56.066 48.6146 56.886C48.6146 56.946 48.6096 57.016 48.5996 57.096C48.5996 57.176 48.5946 57.251 48.5846 57.321H41.8196V56.286H47.8346L47.2496 56.646C47.2596 56.136 47.1546 55.681 46.9346 55.281C46.7146 54.881 46.4096 54.571 46.0196 54.351C45.6396 54.121 45.1946 54.006 44.6846 54.006C44.1846 54.006 43.7396 54.121 43.3496 54.351C42.9596 54.571 42.6546 54.886 42.4346 55.296C42.2146 55.696 42.1046 56.156 42.1046 56.676V56.916C42.1046 57.446 42.2246 57.921 42.4646 58.341C42.7146 58.751 43.0597 59.071 43.4996 59.301C43.9396 59.531 44.4446 59.646 45.0146 59.646C45.4846 59.646 45.9096 59.566 46.2896 59.406C46.6796 59.246 47.0196 59.006 47.3096 58.686L48.1046 59.616C47.7446 60.036 47.2946 60.356 46.7546 60.576C46.2246 60.796 45.6296 60.906 44.9696 60.906Z" fill="#483332"/>
<path d="M50.9592 54.846C50.6792 54.846 50.4392 54.751 50.2392 54.561C50.0392 54.361 49.9392 54.111 49.9392 53.811C49.9392 53.511 50.0392 53.266 50.2392 53.076C50.4392 52.886 50.6792 52.791 50.9592 52.791C51.2292 52.791 51.4592 52.886 51.6492 53.076C51.8492 53.266 51.9492 53.511 51.9492 53.811C51.9492 54.111 51.8492 54.361 51.6492 54.561C51.4592 54.751 51.2292 54.846 50.9592 54.846ZM50.9592 60.906C50.6792 60.906 50.4392 60.811 50.2392 60.621C50.0392 60.421 49.9392 60.171 49.9392 59.871C49.9392 59.571 50.0392 59.326 50.2392 59.136C50.4392 58.946 50.6792 58.851 50.9592 58.851C51.2292 58.851 51.4592 58.946 51.6492 59.136C51.8492 59.326 51.9492 59.571 51.9492 59.871C51.9492 60.171 51.8492 60.421 51.6492 60.621C51.4592 60.811 51.2292 60.906 50.9592 60.906Z" fill="#483332"/>
<path d="M59.166 60.816V50.916L59.811 51.621H56.796V50.316H60.651V60.816H59.166Z" fill="#483332"/>
<path d="M62.7827 60.816V59.796L67.0577 55.671C67.4377 55.311 67.7177 54.996 67.8977 54.726C68.0877 54.446 68.2127 54.191 68.2727 53.961C68.3427 53.721 68.3777 53.491 68.3777 53.271C68.3777 52.731 68.1877 52.306 67.8077 51.996C67.4277 51.686 66.8727 51.531 66.1427 51.531C65.5827 51.531 65.0777 51.626 64.6277 51.816C64.1777 51.996 63.7877 52.281 63.4577 52.671L62.4377 51.786C62.8377 51.276 63.3727 50.886 64.0427 50.616C64.7227 50.336 65.4677 50.196 66.2777 50.196C67.0077 50.196 67.6427 50.316 68.1827 50.556C68.7227 50.786 69.1377 51.121 69.4277 51.561C69.7277 52.001 69.8777 52.521 69.8777 53.121C69.8777 53.461 69.8327 53.796 69.7427 54.126C69.6527 54.456 69.4827 54.806 69.2327 55.176C68.9827 55.546 68.6227 55.961 68.1527 56.421L64.3427 60.096L63.9827 59.511H70.3277V60.816H62.7827Z" fill="#483332"/>
<path d="M74.771 60.936C74.031 60.936 73.311 60.821 72.611 60.591C71.921 60.361 71.356 60.051 70.916 59.661L71.606 58.476C71.956 58.806 72.411 59.076 72.971 59.286C73.531 59.496 74.131 59.601 74.771 59.601C75.551 59.601 76.156 59.436 76.586 59.106C77.026 58.766 77.246 58.311 77.246 57.741C77.246 57.191 77.036 56.751 76.616 56.421C76.206 56.081 75.551 55.911 74.651 55.911H73.811V54.861L76.931 51.021L77.141 51.621H71.396V50.316H78.326V51.336L75.221 55.161L74.441 54.696H74.936C76.206 54.696 77.156 54.981 77.786 55.551C78.426 56.121 78.746 56.846 78.746 57.726C78.746 58.316 78.601 58.856 78.311 59.346C78.021 59.836 77.581 60.226 76.991 60.516C76.411 60.796 75.671 60.936 74.771 60.936Z" fill="#483332"/>
<path d="M79.995 58.236V57.186L85.365 50.316H86.985L81.66 57.186L80.895 56.946H89.28V58.236H79.995ZM85.83 60.816V58.236L85.875 56.946V54.666H87.285V60.816H85.83Z" fill="#483332"/>
<path d="M93.5545 60.936C92.8145 60.936 92.0945 60.821 91.3945 60.591C90.7045 60.361 90.1395 60.051 89.6995 59.661L90.3895 58.476C90.7395 58.806 91.1945 59.076 91.7545 59.286C92.3145 59.496 92.9095 59.601 93.5395 59.601C94.3395 59.601 94.9545 59.431 95.3845 59.091C95.8145 58.751 96.0295 58.296 96.0295 57.726C96.0295 57.336 95.9345 56.996 95.7445 56.706C95.5545 56.416 95.2245 56.196 94.7545 56.046C94.2945 55.886 93.6595 55.806 92.8495 55.806H90.4645L91.0195 50.316H96.9445V51.621H91.5745L92.3545 50.886L91.9195 55.221L91.1395 54.501H93.1645C94.2145 54.501 95.0595 54.636 95.6995 54.906C96.3395 55.176 96.8045 55.551 97.0945 56.031C97.3845 56.501 97.5295 57.046 97.5295 57.666C97.5295 58.266 97.3845 58.816 97.0945 59.316C96.8045 59.806 96.3645 60.201 95.7745 60.501C95.1945 60.791 94.4545 60.936 93.5545 60.936Z" fill="#483332"/>
<path d="M103.188 60.936C102.258 60.936 101.463 60.731 100.803 60.321C100.143 59.911 99.6378 59.321 99.2878 58.551C98.9478 57.771 98.7778 56.821 98.7778 55.701C98.7778 54.511 98.9878 53.506 99.4078 52.686C99.8278 51.866 100.413 51.246 101.163 50.826C101.913 50.406 102.773 50.196 103.743 50.196C104.243 50.196 104.718 50.246 105.168 50.346C105.628 50.446 106.023 50.601 106.353 50.811L105.783 51.981C105.513 51.791 105.203 51.661 104.853 51.591C104.513 51.521 104.153 51.486 103.773 51.486C102.703 51.486 101.853 51.821 101.223 52.491C100.593 53.151 100.278 54.136 100.278 55.446C100.278 55.656 100.288 55.906 100.308 56.196C100.328 56.486 100.378 56.771 100.458 57.051L99.9478 56.541C100.098 56.081 100.333 55.696 100.653 55.386C100.983 55.066 101.373 54.831 101.823 54.681C102.283 54.521 102.778 54.441 103.308 54.441C104.008 54.441 104.628 54.571 105.168 54.831C105.708 55.091 106.133 55.461 106.443 55.941C106.753 56.411 106.908 56.971 106.908 57.621C106.908 58.291 106.743 58.876 106.413 59.376C106.083 59.876 105.638 60.261 105.078 60.531C104.518 60.801 103.888 60.936 103.188 60.936ZM103.128 59.721C103.588 59.721 103.988 59.636 104.328 59.466C104.678 59.296 104.953 59.061 105.153 58.761C105.353 58.451 105.453 58.091 105.453 57.681C105.453 57.061 105.238 56.571 104.808 56.211C104.378 55.841 103.793 55.656 103.053 55.656C102.573 55.656 102.153 55.746 101.793 55.926C101.433 56.106 101.148 56.351 100.938 56.661C100.738 56.961 100.638 57.306 100.638 57.696C100.638 58.056 100.733 58.391 100.923 58.701C101.113 59.001 101.393 59.246 101.763 59.436C102.133 59.626 102.588 59.721 103.128 59.721Z" fill="#483332"/>
<path d="M109.748 60.816L114.203 50.946L114.593 51.621H108.353L109.103 50.886V53.496H107.663V50.316H115.583V51.336L111.338 60.816H109.748Z" fill="#483332"/>
<path d="M120.729 60.936C119.879 60.936 119.144 60.811 118.524 60.561C117.904 60.311 117.424 59.956 117.084 59.496C116.744 59.026 116.574 58.476 116.574 57.846C116.574 57.226 116.734 56.701 117.054 56.271C117.384 55.831 117.859 55.501 118.479 55.281C119.099 55.051 119.849 54.936 120.729 54.936C121.609 54.936 122.359 55.051 122.979 55.281C123.609 55.501 124.089 55.831 124.419 56.271C124.749 56.711 124.914 57.236 124.914 57.846C124.914 58.476 124.744 59.026 124.404 59.496C124.064 59.956 123.579 60.311 122.949 60.561C122.319 60.811 121.579 60.936 120.729 60.936ZM120.729 59.721C121.569 59.721 122.224 59.551 122.694 59.211C123.174 58.861 123.414 58.391 123.414 57.801C123.414 57.221 123.174 56.766 122.694 56.436C122.224 56.096 121.569 55.926 120.729 55.926C119.899 55.926 119.249 56.096 118.779 56.436C118.309 56.766 118.074 57.221 118.074 57.801C118.074 58.391 118.309 58.861 118.779 59.211C119.249 59.551 119.899 59.721 120.729 59.721ZM120.729 55.746C119.929 55.746 119.249 55.641 118.689 55.431C118.129 55.211 117.699 54.901 117.399 54.501C117.099 54.091 116.949 53.606 116.949 53.046C116.949 52.456 117.104 51.951 117.414 51.531C117.734 51.101 118.179 50.771 118.749 50.541C119.319 50.311 119.979 50.196 120.729 50.196C121.489 50.196 122.154 50.311 122.724 50.541C123.294 50.771 123.739 51.101 124.059 51.531C124.379 51.951 124.539 52.456 124.539 53.046C124.539 53.606 124.389 54.091 124.089 54.501C123.789 54.901 123.354 55.211 122.784 55.431C122.214 55.641 121.529 55.746 120.729 55.746ZM120.729 54.786C121.459 54.786 122.029 54.636 122.439 54.336C122.859 54.036 123.069 53.626 123.069 53.106C123.069 52.576 122.854 52.161 122.424 51.861C121.994 51.561 121.429 51.411 120.729 51.411C120.029 51.411 119.469 51.561 119.049 51.861C118.639 52.161 118.434 52.576 118.434 53.106C118.434 53.626 118.634 54.036 119.034 54.336C119.444 54.636 120.009 54.786 120.729 54.786Z" fill="#483332"/>
<path d="M129.693 50.196C130.643 50.196 131.443 50.401 132.093 50.811C132.753 51.221 133.253 51.816 133.593 52.596C133.933 53.366 134.103 54.311 134.103 55.431C134.103 56.621 133.893 57.626 133.473 58.446C133.053 59.266 132.473 59.886 131.733 60.306C130.993 60.726 130.128 60.936 129.138 60.936C128.648 60.936 128.173 60.886 127.713 60.786C127.263 60.686 126.868 60.531 126.528 60.321L127.098 59.151C127.378 59.331 127.688 59.461 128.028 59.541C128.378 59.611 128.743 59.646 129.123 59.646C130.183 59.646 131.028 59.316 131.658 58.656C132.288 57.986 132.603 56.996 132.603 55.686C132.603 55.476 132.593 55.226 132.573 54.936C132.553 54.646 132.508 54.361 132.438 54.081L132.933 54.591C132.793 55.051 132.558 55.441 132.228 55.761C131.908 56.071 131.518 56.306 131.058 56.466C130.608 56.616 130.113 56.691 129.573 56.691C128.883 56.691 128.268 56.561 127.728 56.301C127.188 56.041 126.763 55.676 126.453 55.206C126.143 54.726 125.988 54.161 125.988 53.511C125.988 52.831 126.148 52.246 126.468 51.756C126.798 51.256 127.243 50.871 127.803 50.601C128.373 50.331 129.003 50.196 129.693 50.196ZM129.753 51.411C129.303 51.411 128.903 51.496 128.553 51.666C128.203 51.836 127.928 52.071 127.728 52.371C127.538 52.671 127.443 53.031 127.443 53.451C127.443 54.071 127.658 54.566 128.088 54.936C128.518 55.296 129.098 55.476 129.828 55.476C130.308 55.476 130.728 55.386 131.088 55.206C131.458 55.026 131.743 54.781 131.943 54.471C132.153 54.161 132.258 53.816 132.258 53.436C132.258 53.066 132.163 52.731 131.973 52.431C131.783 52.131 131.503 51.886 131.133 51.696C130.763 51.506 130.303 51.411 129.753 51.411Z" fill="#483332"/>
<path d="M139.835 60.936C139.015 60.936 138.28 60.726 137.63 60.306C136.99 59.886 136.48 59.276 136.1 58.476C135.73 57.676 135.545 56.706 135.545 55.566C135.545 54.426 135.73 53.456 136.1 52.656C136.48 51.856 136.99 51.246 137.63 50.826C138.28 50.406 139.015 50.196 139.835 50.196C140.645 50.196 141.375 50.406 142.025 50.826C142.675 51.246 143.185 51.856 143.555 52.656C143.925 53.456 144.11 54.426 144.11 55.566C144.11 56.706 143.925 57.676 143.555 58.476C143.185 59.276 142.675 59.886 142.025 60.306C141.375 60.726 140.645 60.936 139.835 60.936ZM139.835 59.601C140.385 59.601 140.865 59.451 141.275 59.151C141.695 58.851 142.02 58.401 142.25 57.801C142.49 57.201 142.61 56.456 142.61 55.566C142.61 54.676 142.49 53.931 142.25 53.331C142.02 52.731 141.695 52.281 141.275 51.981C140.865 51.681 140.385 51.531 139.835 51.531C139.285 51.531 138.8 51.681 138.38 51.981C137.96 52.281 137.63 52.731 137.39 53.331C137.16 53.931 137.045 54.676 137.045 55.566C137.045 56.456 137.16 57.201 137.39 57.801C137.63 58.401 137.96 58.851 138.38 59.151C138.8 59.451 139.285 59.601 139.835 59.601Z" fill="#483332"/>
<path d="M2.23805 86.8459H7.63805V88.1209H2.23805V86.8459ZM2.37305 91.5109H8.49305V92.8159H0.873047V82.3159H8.28305V83.6209H2.37305V91.5109Z" fill="#483332"/>
<path d="M20.6569 84.7909C21.2969 84.7909 21.8619 84.9159 22.3519 85.1659C22.8419 85.4159 23.2219 85.7959 23.4919 86.3059C23.7719 86.8159 23.9119 87.4609 23.9119 88.2409V92.8159H22.4719V88.4059C22.4719 87.6359 22.2919 87.0559 21.9319 86.6659C21.5719 86.2759 21.0669 86.0809 20.4169 86.0809C19.9369 86.0809 19.5169 86.1809 19.1569 86.3809C18.7969 86.5809 18.5169 86.8759 18.3169 87.2659C18.1269 87.6559 18.0319 88.1409 18.0319 88.7209V92.8159H16.5919V88.4059C16.5919 87.6359 16.4119 87.0559 16.0519 86.6659C15.7019 86.2759 15.1969 86.0809 14.5369 86.0809C14.0669 86.0809 13.6519 86.1809 13.2919 86.3809C12.9319 86.5809 12.6519 86.8759 12.4519 87.2659C12.2519 87.6559 12.1519 88.1409 12.1519 88.7209V92.8159H10.7119V84.8659H12.0919V86.9809L11.8669 86.4409C12.1169 85.9209 12.5019 85.5159 13.0219 85.2259C13.5419 84.9359 14.1469 84.7909 14.8369 84.7909C15.5969 84.7909 16.2519 84.9809 16.8019 85.3609C17.3519 85.7309 17.7119 86.2959 17.8819 87.0559L17.2969 86.8159C17.5369 86.2059 17.9569 85.7159 18.5569 85.3459C19.1569 84.9759 19.8569 84.7909 20.6569 84.7909Z" fill="#483332"/>
<path d="M31.4965 92.8159V91.1359L31.4215 90.8209V87.9559C31.4215 87.3459 31.2415 86.8759 30.8815 86.5459C30.5315 86.2059 30.0015 86.0359 29.2915 86.0359C28.8215 86.0359 28.3615 86.1159 27.9115 86.2759C27.4615 86.4259 27.0815 86.6309 26.7715 86.8909L26.1715 85.8109C26.5815 85.4809 27.0715 85.2309 27.6415 85.0609C28.2215 84.8809 28.8265 84.7909 29.4565 84.7909C30.5465 84.7909 31.3865 85.0559 31.9765 85.5859C32.5665 86.1159 32.8615 86.9259 32.8615 88.0159V92.8159H31.4965ZM28.8865 92.9059C28.2965 92.9059 27.7765 92.8059 27.3265 92.6059C26.8865 92.4059 26.5465 92.1309 26.3065 91.7809C26.0665 91.4209 25.9465 91.0159 25.9465 90.5659C25.9465 90.1359 26.0465 89.7459 26.2465 89.3959C26.4565 89.0459 26.7915 88.7659 27.2515 88.5559C27.7215 88.3459 28.3515 88.2409 29.1415 88.2409H31.6615V89.2759H29.2015C28.4815 89.2759 27.9965 89.3959 27.7465 89.6359C27.4965 89.8759 27.3715 90.1659 27.3715 90.5059C27.3715 90.8959 27.5265 91.2109 27.8365 91.4509C28.1465 91.6809 28.5765 91.7959 29.1265 91.7959C29.6665 91.7959 30.1365 91.6759 30.5365 91.4359C30.9465 91.1959 31.2415 90.8459 31.4215 90.3859L31.7065 91.3759C31.5165 91.8459 31.1815 92.2209 30.7015 92.5009C30.2215 92.7709 29.6165 92.9059 28.8865 92.9059Z" fill="#483332"/>
<path d="M35.5263 92.8159V84.8659H36.9663V92.8159H35.5263ZM36.2463 83.3359C35.9663 83.3359 35.7313 83.2459 35.5413 83.0659C35.3613 82.8859 35.2713 82.6659 35.2713 82.4059C35.2713 82.1359 35.3613 81.9109 35.5413 81.7309C35.7313 81.5509 35.9663 81.4609 36.2463 81.4609C36.5263 81.4609 36.7563 81.5509 36.9363 81.7309C37.1263 81.9009 37.2213 82.1159 37.2213 82.3759C37.2213 82.6459 37.1313 82.8759 36.9513 83.0659C36.7713 83.2459 36.5363 83.3359 36.2463 83.3359Z" fill="#483332"/>
<path d="M39.7158 92.8159V81.6859H41.1558V92.8159H39.7158Z" fill="#483332"/>
<path d="M44.2502 86.8459C43.9702 86.8459 43.7302 86.7509 43.5302 86.5609C43.3302 86.3609 43.2302 86.1109 43.2302 85.8109C43.2302 85.5109 43.3302 85.2659 43.5302 85.0759C43.7302 84.8859 43.9702 84.7909 44.2502 84.7909C44.5202 84.7909 44.7502 84.8859 44.9402 85.0759C45.1402 85.2659 45.2402 85.5109 45.2402 85.8109C45.2402 86.1109 45.1402 86.3609 44.9402 86.5609C44.7502 86.7509 44.5202 86.8459 44.2502 86.8459ZM44.2502 92.9059C43.9702 92.9059 43.7302 92.8109 43.5302 92.6209C43.3302 92.4209 43.2302 92.1709 43.2302 91.8709C43.2302 91.5709 43.3302 91.3259 43.5302 91.1359C43.7302 90.9459 43.9702 90.8509 44.2502 90.8509C44.5202 90.8509 44.7502 90.9459 44.9402 91.1359C45.1402 91.3259 45.2402 91.5709 45.2402 91.8709C45.2402 92.1709 45.1402 92.4209 44.9402 92.6209C44.7502 92.8109 44.5202 92.9059 44.2502 92.9059Z" fill="#483332"/>
<path d="M51.332 92.8159V84.8659H52.712V87.0259L52.577 86.4859C52.797 85.9359 53.167 85.5159 53.687 85.2259C54.207 84.9359 54.847 84.7909 55.607 84.7909V86.1859C55.547 86.1759 55.487 86.1709 55.427 86.1709C55.377 86.1709 55.327 86.1709 55.277 86.1709C54.507 86.1709 53.897 86.4009 53.447 86.8609C52.997 87.3209 52.772 87.9859 52.772 88.8559V92.8159H51.332Z" fill="#483332"/>
<path d="M60.8486 92.9059C59.9986 92.9059 59.2486 92.7309 58.5986 92.3809C57.9586 92.0309 57.4586 91.5509 57.0986 90.9409C56.7486 90.3309 56.5736 89.6309 56.5736 88.8409C56.5736 88.0509 56.7436 87.3509 57.0836 86.7409C57.4336 86.1309 57.9086 85.6559 58.5086 85.3159C59.1186 84.9659 59.8036 84.7909 60.5636 84.7909C61.3336 84.7909 62.0136 84.9609 62.6036 85.3009C63.1936 85.6409 63.6536 86.1209 63.9836 86.7409C64.3236 87.3509 64.4936 88.0659 64.4936 88.8859C64.4936 88.9459 64.4886 89.0159 64.4786 89.0959C64.4786 89.1759 64.4735 89.2509 64.4636 89.3209H57.6986V88.2859H63.7136L63.1286 88.6459C63.1386 88.1359 63.0336 87.6809 62.8136 87.2809C62.5936 86.8809 62.2886 86.5709 61.8986 86.3509C61.5186 86.1209 61.0736 86.0059 60.5636 86.0059C60.0636 86.0059 59.6186 86.1209 59.2286 86.3509C58.8386 86.5709 58.5336 86.8859 58.3136 87.2959C58.0936 87.6959 57.9836 88.1559 57.9836 88.6759V88.9159C57.9836 89.4459 58.1036 89.9209 58.3436 90.3409C58.5936 90.7509 58.9386 91.0709 59.3786 91.3009C59.8186 91.5309 60.3236 91.6459 60.8936 91.6459C61.3636 91.6459 61.7886 91.5659 62.1686 91.4059C62.5586 91.2459 62.8986 91.0059 63.1886 90.6859L63.9836 91.6159C63.6236 92.0359 63.1736 92.3559 62.6336 92.5759C62.1036 92.7959 61.5086 92.9059 60.8486 92.9059Z" fill="#483332"/>
<path d="M68.7731 92.9059C68.1131 92.9059 67.4831 92.8159 66.8831 92.6359C66.2931 92.4559 65.8281 92.2359 65.4881 91.9759L66.0881 90.8359C66.4281 91.0659 66.8481 91.2609 67.3481 91.4209C67.8481 91.5809 68.3581 91.6609 68.8781 91.6609C69.5481 91.6609 70.0281 91.5659 70.3181 91.3759C70.6181 91.1859 70.7681 90.9209 70.7681 90.5809C70.7681 90.3309 70.6781 90.1359 70.4981 89.9959C70.3181 89.8559 70.0781 89.7509 69.7781 89.6809C69.4881 89.6109 69.1631 89.5509 68.8031 89.5009C68.4431 89.4409 68.0831 89.3709 67.7231 89.2909C67.3631 89.2009 67.0331 89.0809 66.7331 88.9309C66.4331 88.7709 66.1931 88.5559 66.0131 88.2859C65.8331 88.0059 65.7431 87.6359 65.7431 87.1759C65.7431 86.6959 65.8781 86.2759 66.1481 85.9159C66.4181 85.5559 66.7981 85.2809 67.2881 85.0909C67.7881 84.8909 68.3781 84.7909 69.0581 84.7909C69.5781 84.7909 70.1031 84.8559 70.6331 84.9859C71.1731 85.1059 71.6131 85.2809 71.9531 85.5109L71.3381 86.6509C70.9781 86.4109 70.6031 86.2459 70.2131 86.1559C69.8231 86.0659 69.4331 86.0209 69.0431 86.0209C68.4131 86.0209 67.9431 86.1259 67.6331 86.3359C67.3231 86.5359 67.1681 86.7959 67.1681 87.1159C67.1681 87.3859 67.2581 87.5959 67.4381 87.7459C67.6281 87.8859 67.8681 87.9959 68.1581 88.0759C68.4581 88.1559 68.7881 88.2259 69.1481 88.2859C69.5081 88.3359 69.8681 88.4059 70.2281 88.4959C70.5881 88.5759 70.9131 88.6909 71.2031 88.8409C71.5031 88.9909 71.7431 89.2009 71.9231 89.4709C72.1131 89.7409 72.2081 90.1009 72.2081 90.5509C72.2081 91.0309 72.0681 91.4459 71.7881 91.7959C71.5081 92.1459 71.1131 92.4209 70.6031 92.6209C70.0931 92.8109 69.4831 92.9059 68.7731 92.9059Z" fill="#483332"/>
<path d="M77.5478 92.9059C76.6978 92.9059 75.9478 92.7309 75.2978 92.3809C74.6578 92.0309 74.1578 91.5509 73.7978 90.9409C73.4478 90.3309 73.2728 89.6309 73.2728 88.8409C73.2728 88.0509 73.4428 87.3509 73.7828 86.7409C74.1328 86.1309 74.6078 85.6559 75.2078 85.3159C75.8178 84.9659 76.5028 84.7909 77.2628 84.7909C78.0328 84.7909 78.7128 84.9609 79.3028 85.3009C79.8928 85.6409 80.3528 86.1209 80.6828 86.7409C81.0228 87.3509 81.1928 88.0659 81.1928 88.8859C81.1928 88.9459 81.1878 89.0159 81.1778 89.0959C81.1778 89.1759 81.1728 89.2509 81.1628 89.3209H74.3978V88.2859H80.4128L79.8278 88.6459C79.8378 88.1359 79.7328 87.6809 79.5128 87.2809C79.2928 86.8809 78.9878 86.5709 78.5978 86.3509C78.2178 86.1209 77.7728 86.0059 77.2628 86.0059C76.7628 86.0059 76.3178 86.1209 75.9278 86.3509C75.5378 86.5709 75.2328 86.8859 75.0128 87.2959C74.7928 87.6959 74.6828 88.1559 74.6828 88.6759V88.9159C74.6828 89.4459 74.8028 89.9209 75.0428 90.3409C75.2928 90.7509 75.6378 91.0709 76.0778 91.3009C76.5178 91.5309 77.0228 91.6459 77.5928 91.6459C78.0628 91.6459 78.4878 91.5659 78.8678 91.4059C79.2578 91.2459 79.5978 91.0059 79.8878 90.6859L80.6828 91.6159C80.3228 92.0359 79.8728 92.3559 79.3328 92.5759C78.8028 92.7959 78.2078 92.9059 77.5478 92.9059Z" fill="#483332"/>
<path d="M83.1923 92.8159V84.8659H84.5723V87.0259L84.4373 86.4859C84.6573 85.9359 85.0274 85.5159 85.5473 85.2259C86.0673 84.9359 86.7073 84.7909 87.4673 84.7909V86.1859C87.4073 86.1759 87.3473 86.1709 87.2873 86.1709C87.2373 86.1709 87.1873 86.1709 87.1373 86.1709C86.3673 86.1709 85.7573 86.4009 85.3074 86.8609C84.8574 87.3209 84.6323 87.9859 84.6323 88.8559V92.8159H83.1923Z" fill="#483332"/>
<path d="M91.6494 92.8159L88.1694 84.8659H89.6694L92.7594 92.0659H92.0394L95.1894 84.8659H96.5994L93.1194 92.8159H91.6494Z" fill="#483332"/>
<path d="M97.9433 92.8159V84.8659H99.3833V92.8159H97.9433ZM98.6633 83.3359C98.3833 83.3359 98.1483 83.2459 97.9583 83.0659C97.7783 82.8859 97.6883 82.6659 97.6883 82.4059C97.6883 82.1359 97.7783 81.9109 97.9583 81.7309C98.1483 81.5509 98.3833 81.4609 98.6633 81.4609C98.9433 81.4609 99.1733 81.5509 99.3533 81.7309C99.5433 81.9009 99.6383 82.1159 99.6383 82.3759C99.6383 82.6459 99.5483 82.8759 99.3683 83.0659C99.1883 83.2459 98.9533 83.3359 98.6633 83.3359Z" fill="#483332"/>
<path d="M102.343 92.8159V84.1609C102.343 83.3809 102.568 82.7609 103.018 82.3009C103.478 81.8309 104.128 81.5959 104.968 81.5959C105.278 81.5959 105.573 81.6359 105.853 81.7159C106.143 81.7859 106.388 81.9009 106.588 82.0609L106.153 83.1559C106.003 83.0359 105.833 82.9459 105.643 82.8859C105.453 82.8159 105.253 82.7809 105.043 82.7809C104.623 82.7809 104.303 82.9009 104.083 83.1409C103.863 83.3709 103.753 83.7159 103.753 84.1759V85.2409L103.783 85.9009V92.8159H102.343ZM100.993 86.0509V84.8659H106.063V86.0509H100.993Z" fill="#483332"/>
<path d="M107.912 95.8159C107.532 95.8159 107.162 95.7509 106.802 95.6209C106.442 95.5009 106.132 95.3209 105.872 95.0809L106.487 94.0009C106.687 94.1909 106.907 94.3359 107.147 94.4359C107.387 94.5359 107.642 94.5859 107.912 94.5859C108.262 94.5859 108.552 94.4959 108.782 94.3159C109.012 94.1359 109.227 93.8159 109.427 93.3559L109.922 92.2609L110.072 92.0809L113.192 84.8659H114.602L110.747 93.6109C110.517 94.1709 110.257 94.6109 109.967 94.9309C109.687 95.2509 109.377 95.4759 109.037 95.6059C108.697 95.7459 108.322 95.8159 107.912 95.8159ZM109.802 93.0709L106.172 84.8659H107.672L110.762 91.9459L109.802 93.0709Z" fill="#483332"/>
<path d="M122.219 95.8459C121.179 95.8459 120.229 95.6759 119.369 95.3359C118.509 94.9959 117.769 94.5209 117.149 93.9109C116.529 93.3009 116.049 92.5809 115.709 91.7509C115.369 90.9109 115.199 89.9959 115.199 89.0059C115.199 88.0159 115.369 87.1059 115.709 86.2759C116.049 85.4459 116.529 84.7259 117.149 84.1159C117.779 83.5059 118.529 83.0359 119.399 82.7059C120.269 82.3759 121.229 82.2109 122.279 82.2109C123.309 82.2109 124.249 82.3709 125.099 82.6909C125.949 83.0109 126.684 83.4659 127.304 84.0559C127.934 84.6359 128.419 85.3309 128.759 86.1409C129.099 86.9409 129.269 87.8259 129.269 88.7959C129.269 89.6459 129.164 90.3759 128.954 90.9859C128.744 91.5959 128.439 92.0709 128.039 92.4109C127.649 92.7409 127.169 92.9059 126.599 92.9059C126.039 92.9059 125.589 92.7359 125.249 92.3959C124.919 92.0559 124.754 91.5709 124.754 90.9409V89.9209L124.829 89.0059L124.694 87.2809V85.2859H125.999V90.6859C125.999 91.0859 126.079 91.3659 126.239 91.5259C126.409 91.6859 126.614 91.7659 126.854 91.7659C127.144 91.7659 127.394 91.6509 127.604 91.4209C127.824 91.1909 127.984 90.8559 128.084 90.4159C128.194 89.9659 128.249 89.4309 128.249 88.8109C128.249 87.9709 128.104 87.2109 127.814 86.5309C127.534 85.8409 127.124 85.2459 126.584 84.7459C126.054 84.2459 125.424 83.8659 124.694 83.6059C123.974 83.3359 123.169 83.2009 122.279 83.2009C121.389 83.2009 120.574 83.3459 119.834 83.6359C119.104 83.9159 118.474 84.3159 117.944 84.8359C117.414 85.3459 117.004 85.9559 116.714 86.6659C116.434 87.3759 116.294 88.1559 116.294 89.0059C116.294 89.8659 116.434 90.6559 116.714 91.3759C116.994 92.0859 117.394 92.6959 117.914 93.2059C118.444 93.7259 119.069 94.1259 119.789 94.4059C120.519 94.6959 121.329 94.8409 122.219 94.8409C122.679 94.8409 123.164 94.7859 123.674 94.6759C124.184 94.5759 124.664 94.4109 125.114 94.1809L125.444 95.1409C124.984 95.3709 124.464 95.5459 123.884 95.6659C123.304 95.7859 122.749 95.8459 122.219 95.8459ZM121.949 92.9059C121.239 92.9059 120.609 92.7409 120.059 92.4109C119.509 92.0709 119.074 91.6109 118.754 91.0309C118.434 90.4509 118.274 89.7909 118.274 89.0509C118.274 88.3009 118.434 87.6409 118.754 87.0709C119.074 86.4909 119.509 86.0409 120.059 85.7209C120.609 85.3909 121.239 85.2259 121.949 85.2259C122.639 85.2259 123.244 85.3759 123.764 85.6759C124.284 85.9659 124.689 86.3959 124.979 86.9659C125.279 87.5359 125.429 88.2309 125.429 89.0509C125.429 89.8709 125.284 90.5659 124.994 91.1359C124.704 91.7059 124.299 92.1459 123.779 92.4559C123.259 92.7559 122.649 92.9059 121.949 92.9059ZM122.159 91.7359C122.649 91.7359 123.084 91.6309 123.464 91.4209C123.854 91.2009 124.159 90.8909 124.379 90.4909C124.609 90.0809 124.724 89.6009 124.724 89.0509C124.724 88.4909 124.609 88.0109 124.379 87.6109C124.159 87.2109 123.854 86.9059 123.464 86.6959C123.084 86.4859 122.649 86.3809 122.159 86.3809C121.659 86.3809 121.214 86.4909 120.824 86.7109C120.444 86.9209 120.144 87.2259 119.924 87.6259C119.714 88.0259 119.609 88.5009 119.609 89.0509C119.609 89.5909 119.714 90.0609 119.924 90.4609C120.144 90.8609 120.444 91.1759 120.824 91.4059C121.214 91.6259 121.659 91.7359 122.159 91.7359Z" fill="#483332"/>
<path d="M134.896 92.9059C134.046 92.9059 133.296 92.7309 132.646 92.3809C132.006 92.0309 131.506 91.5509 131.146 90.9409C130.796 90.3309 130.621 89.6309 130.621 88.8409C130.621 88.0509 130.791 87.3509 131.131 86.7409C131.481 86.1309 131.956 85.6559 132.556 85.3159C133.166 84.9659 133.851 84.7909 134.611 84.7909C135.381 84.7909 136.061 84.9609 136.651 85.3009C137.241 85.6409 137.701 86.1209 138.031 86.7409C138.371 87.3509 138.541 88.0659 138.541 88.8859C138.541 88.9459 138.536 89.0159 138.526 89.0959C138.526 89.1759 138.521 89.2509 138.511 89.3209H131.746V88.2859H137.761L137.176 88.6459C137.186 88.1359 137.081 87.6809 136.861 87.2809C136.641 86.8809 136.336 86.5709 135.946 86.3509C135.566 86.1209 135.121 86.0059 134.611 86.0059C134.111 86.0059 133.666 86.1209 133.276 86.3509C132.886 86.5709 132.581 86.8859 132.361 87.2959C132.141 87.6959 132.031 88.1559 132.031 88.6759V88.9159C132.031 89.4459 132.151 89.9209 132.391 90.3409C132.641 90.7509 132.986 91.0709 133.426 91.3009C133.866 91.5309 134.371 91.6459 134.941 91.6459C135.411 91.6459 135.836 91.5659 136.216 91.4059C136.606 91.2459 136.946 91.0059 137.236 90.6859L138.031 91.6159C137.671 92.0359 137.221 92.3559 136.681 92.5759C136.151 92.7959 135.556 92.9059 134.896 92.9059Z" fill="#483332"/>
<path d="M150.486 84.7909C151.126 84.7909 151.691 84.9159 152.181 85.1659C152.671 85.4159 153.051 85.7959 153.321 86.3059C153.601 86.8159 153.741 87.4609 153.741 88.2409V92.8159H152.301V88.4059C152.301 87.6359 152.121 87.0559 151.761 86.6659C151.401 86.2759 150.896 86.0809 150.246 86.0809C149.766 86.0809 149.346 86.1809 148.986 86.3809C148.626 86.5809 148.346 86.8759 148.146 87.2659C147.956 87.6559 147.861 88.1409 147.861 88.7209V92.8159H146.421V88.4059C146.421 87.6359 146.241 87.0559 145.881 86.6659C145.531 86.2759 145.026 86.0809 144.366 86.0809C143.896 86.0809 143.481 86.1809 143.121 86.3809C142.761 86.5809 142.481 86.8759 142.281 87.2659C142.081 87.6559 141.981 88.1409 141.981 88.7209V92.8159H140.541V84.8659H141.921V86.9809L141.696 86.4409C141.946 85.9209 142.331 85.5159 142.851 85.2259C143.371 84.9359 143.976 84.7909 144.666 84.7909C145.426 84.7909 146.081 84.9809 146.631 85.3609C147.181 85.7309 147.541 86.2959 147.711 87.0559L147.126 86.8159C147.366 86.2059 147.786 85.7159 148.386 85.3459C148.986 84.9759 149.686 84.7909 150.486 84.7909Z" fill="#483332"/>
<path d="M161.326 92.8159V91.1359L161.251 90.8209V87.9559C161.251 87.3459 161.071 86.8759 160.711 86.5459C160.361 86.2059 159.831 86.0359 159.121 86.0359C158.651 86.0359 158.191 86.1159 157.741 86.2759C157.291 86.4259 156.911 86.6309 156.601 86.8909L156.001 85.8109C156.411 85.4809 156.901 85.2309 157.471 85.0609C158.051 84.8809 158.656 84.7909 159.286 84.7909C160.376 84.7909 161.216 85.0559 161.806 85.5859C162.396 86.1159 162.691 86.9259 162.691 88.0159V92.8159H161.326ZM158.716 92.9059C158.126 92.9059 157.606 92.8059 157.156 92.6059C156.716 92.4059 156.376 92.1309 156.136 91.7809C155.896 91.4209 155.776 91.0159 155.776 90.5659C155.776 90.1359 155.876 89.7459 156.076 89.3959C156.286 89.0459 156.621 88.7659 157.081 88.5559C157.551 88.3459 158.181 88.2409 158.971 88.2409H161.491V89.2759H159.031C158.311 89.2759 157.826 89.3959 157.576 89.6359C157.326 89.8759 157.201 90.1659 157.201 90.5059C157.201 90.8959 157.356 91.2109 157.666 91.4509C157.976 91.6809 158.406 91.7959 158.956 91.7959C159.496 91.7959 159.966 91.6759 160.366 91.4359C160.776 91.1959 161.071 90.8459 161.251 90.3859L161.536 91.3759C161.346 91.8459 161.011 92.2209 160.531 92.5009C160.051 92.7709 159.446 92.9059 158.716 92.9059Z" fill="#483332"/>
<path d="M165.355 92.8159V84.8659H166.795V92.8159H165.355ZM166.075 83.3359C165.795 83.3359 165.56 83.2459 165.37 83.0659C165.19 82.8859 165.1 82.6659 165.1 82.4059C165.1 82.1359 165.19 81.9109 165.37 81.7309C165.56 81.5509 165.795 81.4609 166.075 81.4609C166.355 81.4609 166.585 81.5509 166.765 81.7309C166.955 81.9009 167.05 82.1159 167.05 82.3759C167.05 82.6459 166.96 82.8759 166.78 83.0659C166.6 83.2459 166.365 83.3359 166.075 83.3359Z" fill="#483332"/>
<path d="M169.545 92.8159V81.6859H170.985V92.8159H169.545Z" fill="#483332"/>
<path d="M174.079 92.9059C173.799 92.9059 173.559 92.8109 173.359 92.6209C173.159 92.4209 173.059 92.1709 173.059 91.8709C173.059 91.5709 173.159 91.3259 173.359 91.1359C173.559 90.9459 173.799 90.8509 174.079 90.8509C174.349 90.8509 174.579 90.9459 174.769 91.1359C174.969 91.3259 175.069 91.5709 175.069 91.8709C175.069 92.1709 174.969 92.4209 174.769 92.6209C174.579 92.8109 174.349 92.9059 174.079 92.9059Z" fill="#483332"/>
<path d="M180.422 92.9059C179.612 92.9059 178.887 92.7309 178.247 92.3809C177.617 92.0309 177.122 91.5509 176.762 90.9409C176.402 90.3309 176.222 89.6309 176.222 88.8409C176.222 88.0509 176.402 87.3509 176.762 86.7409C177.122 86.1309 177.617 85.6559 178.247 85.3159C178.887 84.9659 179.612 84.7909 180.422 84.7909C181.142 84.7909 181.782 84.9359 182.342 85.2259C182.912 85.5059 183.352 85.9259 183.662 86.4859L182.567 87.1909C182.307 86.8009 181.987 86.5159 181.607 86.3359C181.237 86.1459 180.837 86.0509 180.407 86.0509C179.887 86.0509 179.422 86.1659 179.012 86.3959C178.602 86.6259 178.277 86.9509 178.037 87.3709C177.797 87.7809 177.677 88.2709 177.677 88.8409C177.677 89.4109 177.797 89.9059 178.037 90.3259C178.277 90.7459 178.602 91.0709 179.012 91.3009C179.422 91.5309 179.887 91.6459 180.407 91.6459C180.837 91.6459 181.237 91.5559 181.607 91.3759C181.987 91.1859 182.307 90.8959 182.567 90.5059L183.662 91.1959C183.352 91.7459 182.912 92.1709 182.342 92.4709C181.782 92.7609 181.142 92.9059 180.422 92.9059Z" fill="#483332"/>
<path d="M188.814 92.9059C188.014 92.9059 187.304 92.7309 186.684 92.3809C186.064 92.0309 185.574 91.5509 185.214 90.9409C184.854 90.3209 184.674 89.6209 184.674 88.8409C184.674 88.0509 184.854 87.3509 185.214 86.7409C185.574 86.1309 186.064 85.6559 186.684 85.3159C187.304 84.9659 188.014 84.7909 188.814 84.7909C189.604 84.7909 190.309 84.9659 190.929 85.3159C191.559 85.6559 192.049 86.1309 192.399 86.7409C192.759 87.3409 192.939 88.0409 192.939 88.8409C192.939 89.6309 192.759 90.3309 192.399 90.9409C192.049 91.5509 191.559 92.0309 190.929 92.3809C190.309 92.7309 189.604 92.9059 188.814 92.9059ZM188.814 91.6459C189.324 91.6459 189.779 91.5309 190.179 91.3009C190.589 91.0709 190.909 90.7459 191.139 90.3259C191.369 89.8959 191.484 89.4009 191.484 88.8409C191.484 88.2709 191.369 87.7809 191.139 87.3709C190.909 86.9509 190.589 86.6259 190.179 86.3959C189.779 86.1659 189.324 86.0509 188.814 86.0509C188.304 86.0509 187.849 86.1659 187.449 86.3959C187.049 86.6259 186.729 86.9509 186.489 87.3709C186.249 87.7809 186.129 88.2709 186.129 88.8409C186.129 89.4009 186.249 89.8959 186.489 90.3259C186.729 90.7459 187.049 91.0709 187.449 91.3009C187.849 91.5309 188.304 91.6459 188.814 91.6459Z" fill="#483332"/>
<path d="M204.876 84.7909C205.516 84.7909 206.081 84.9159 206.571 85.1659C207.061 85.4159 207.441 85.7959 207.711 86.3059C207.991 86.8159 208.131 87.4609 208.131 88.2409V92.8159H206.691V88.4059C206.691 87.6359 206.511 87.0559 206.151 86.6659C205.791 86.2759 205.286 86.0809 204.636 86.0809C204.156 86.0809 203.736 86.1809 203.376 86.3809C203.016 86.5809 202.736 86.8759 202.536 87.2659C202.346 87.6559 202.251 88.1409 202.251 88.7209V92.8159H200.811V88.4059C200.811 87.6359 200.631 87.0559 200.271 86.6659C199.921 86.2759 199.416 86.0809 198.756 86.0809C198.286 86.0809 197.871 86.1809 197.511 86.3809C197.151 86.5809 196.871 86.8759 196.671 87.2659C196.471 87.6559 196.371 88.1409 196.371 88.7209V92.8159H194.931V84.8659H196.311V86.9809L196.086 86.4409C196.336 85.9209 196.721 85.5159 197.241 85.2259C197.761 84.9359 198.366 84.7909 199.056 84.7909C199.816 84.7909 200.471 84.9809 201.021 85.3609C201.571 85.7309 201.931 86.2959 202.101 87.0559L201.516 86.8159C201.756 86.2059 202.176 85.7159 202.776 85.3459C203.376 84.9759 204.076 84.7909 204.876 84.7909Z" fill="#483332"/>
<path d="M0.873047 124.816V114.316H2.37305V123.511H8.05805V124.816H0.873047Z" fill="#483332"/>
<path d="M12.8718 124.906C12.0718 124.906 11.3618 124.731 10.7418 124.381C10.1218 124.031 9.63176 123.551 9.27176 122.941C8.91176 122.321 8.73176 121.621 8.73176 120.841C8.73176 120.051 8.91176 119.351 9.27176 118.741C9.63176 118.131 10.1218 117.656 10.7418 117.316C11.3618 116.966 12.0718 116.791 12.8718 116.791C13.6618 116.791 14.3668 116.966 14.9868 117.316C15.6168 117.656 16.1068 118.131 16.4568 118.741C16.8168 119.341 16.9968 120.041 16.9968 120.841C16.9968 121.631 16.8168 122.331 16.4568 122.941C16.1068 123.551 15.6168 124.031 14.9868 124.381C14.3668 124.731 13.6618 124.906 12.8718 124.906ZM12.8718 123.646C13.3818 123.646 13.8368 123.531 14.2368 123.301C14.6468 123.071 14.9668 122.746 15.1968 122.326C15.4268 121.896 15.5418 121.401 15.5418 120.841C15.5418 120.271 15.4268 119.781 15.1968 119.371C14.9668 118.951 14.6468 118.626 14.2368 118.396C13.8368 118.166 13.3818 118.051 12.8718 118.051C12.3618 118.051 11.9068 118.166 11.5068 118.396C11.1068 118.626 10.7868 118.951 10.5468 119.371C10.3068 119.781 10.1868 120.271 10.1868 120.841C10.1868 121.401 10.3068 121.896 10.5468 122.326C10.7868 122.746 11.1068 123.071 11.5068 123.301C11.9068 123.531 12.3618 123.646 12.8718 123.646Z" fill="#483332"/>
<path d="M22.4532 124.906C21.6432 124.906 20.9182 124.731 20.2782 124.381C19.6482 124.031 19.1532 123.551 18.7932 122.941C18.4332 122.331 18.2532 121.631 18.2532 120.841C18.2532 120.051 18.4332 119.351 18.7932 118.741C19.1532 118.131 19.6482 117.656 20.2782 117.316C20.9182 116.966 21.6432 116.791 22.4532 116.791C23.1732 116.791 23.8132 116.936 24.3732 117.226C24.9432 117.506 25.3832 117.926 25.6932 118.486L24.5982 119.191C24.3382 118.801 24.0182 118.516 23.6382 118.336C23.2682 118.146 22.8682 118.051 22.4382 118.051C21.9182 118.051 21.4532 118.166 21.0432 118.396C20.6332 118.626 20.3082 118.951 20.0682 119.371C19.8282 119.781 19.7082 120.271 19.7082 120.841C19.7082 121.411 19.8282 121.906 20.0682 122.326C20.3082 122.746 20.6332 123.071 21.0432 123.301C21.4532 123.531 21.9182 123.646 22.4382 123.646C22.8682 123.646 23.2682 123.556 23.6382 123.376C24.0182 123.186 24.3382 122.896 24.5982 122.506L25.6932 123.196C25.3832 123.746 24.9432 124.171 24.3732 124.471C23.8132 124.761 23.1732 124.906 22.4532 124.906Z" fill="#483332"/>
<path d="M32.4926 124.816V123.136L32.4176 122.821V119.956C32.4176 119.346 32.2376 118.876 31.8776 118.546C31.5276 118.206 30.9976 118.036 30.2876 118.036C29.8176 118.036 29.3576 118.116 28.9076 118.276C28.4576 118.426 28.0776 118.631 27.7676 118.891L27.1676 117.811C27.5776 117.481 28.0676 117.231 28.6376 117.061C29.2176 116.881 29.8226 116.791 30.4526 116.791C31.5426 116.791 32.3826 117.056 32.9726 117.586C33.5626 118.116 33.8576 118.926 33.8576 120.016V124.816H32.4926ZM29.8826 124.906C29.2926 124.906 28.7726 124.806 28.3226 124.606C27.8826 124.406 27.5426 124.131 27.3026 123.781C27.0626 123.421 26.9426 123.016 26.9426 122.566C26.9426 122.136 27.0426 121.746 27.2426 121.396C27.4526 121.046 27.7876 120.766 28.2476 120.556C28.7176 120.346 29.3476 120.241 30.1376 120.241H32.6576V121.276H30.1976C29.4776 121.276 28.9926 121.396 28.7426 121.636C28.4926 121.876 28.3676 122.166 28.3676 122.506C28.3676 122.896 28.5226 123.211 28.8326 123.451C29.1426 123.681 29.5726 123.796 30.1226 123.796C30.6626 123.796 31.1326 123.676 31.5326 123.436C31.9426 123.196 32.2376 122.846 32.4176 122.386L32.7026 123.376C32.5126 123.846 32.1776 124.221 31.6976 124.501C31.2176 124.771 30.6126 124.906 29.8826 124.906Z" fill="#483332"/>
<path d="M39.2524 124.906C38.4524 124.906 37.8324 124.691 37.3924 124.261C36.9524 123.831 36.7324 123.216 36.7324 122.416V115.126H38.1724V122.356C38.1724 122.786 38.2774 123.116 38.4874 123.346C38.7074 123.576 39.0174 123.691 39.4174 123.691C39.8674 123.691 40.2424 123.566 40.5424 123.316L40.9924 124.351C40.7724 124.541 40.5074 124.681 40.1974 124.771C39.8974 124.861 39.5824 124.906 39.2524 124.906ZM35.3824 118.051V116.866H40.4524V118.051H35.3824Z" fill="#483332"/>
<path d="M42.7334 124.816V116.866H44.1734V124.816H42.7334ZM43.4534 115.336C43.1734 115.336 42.9384 115.246 42.7484 115.066C42.5684 114.886 42.4784 114.666 42.4784 114.406C42.4784 114.136 42.5684 113.911 42.7484 113.731C42.9384 113.551 43.1734 113.461 43.4534 113.461C43.7334 113.461 43.9634 113.551 44.1434 113.731C44.3334 113.901 44.4284 114.116 44.4284 114.376C44.4284 114.646 44.3384 114.876 44.1584 115.066C43.9784 115.246 43.7434 115.336 43.4534 115.336Z" fill="#483332"/>
<path d="M50.3278 124.906C49.5278 124.906 48.8178 124.731 48.1978 124.381C47.5778 124.031 47.0878 123.551 46.7278 122.941C46.3678 122.321 46.1878 121.621 46.1878 120.841C46.1878 120.051 46.3678 119.351 46.7278 118.741C47.0878 118.131 47.5778 117.656 48.1978 117.316C48.8178 116.966 49.5278 116.791 50.3278 116.791C51.1178 116.791 51.8228 116.966 52.4428 117.316C53.0728 117.656 53.5628 118.131 53.9128 118.741C54.2728 119.341 54.4528 120.041 54.4528 120.841C54.4528 121.631 54.2728 122.331 53.9128 122.941C53.5628 123.551 53.0728 124.031 52.4428 124.381C51.8228 124.731 51.1178 124.906 50.3278 124.906ZM50.3278 123.646C50.8378 123.646 51.2928 123.531 51.6928 123.301C52.1028 123.071 52.4228 122.746 52.6528 122.326C52.8828 121.896 52.9978 121.401 52.9978 120.841C52.9978 120.271 52.8828 119.781 52.6528 119.371C52.4228 118.951 52.1028 118.626 51.6928 118.396C51.2928 118.166 50.8378 118.051 50.3278 118.051C49.8178 118.051 49.3628 118.166 48.9628 118.396C48.5628 118.626 48.2428 118.951 48.0028 119.371C47.7628 119.781 47.6428 120.271 47.6428 120.841C47.6428 121.401 47.7628 121.896 48.0028 122.326C48.2428 122.746 48.5628 123.071 48.9628 123.301C49.3628 123.531 49.8178 123.646 50.3278 123.646Z" fill="#483332"/>
<path d="M60.6893 116.791C61.3393 116.791 61.9093 116.916 62.3993 117.166C62.8993 117.416 63.2893 117.796 63.5693 118.306C63.8493 118.816 63.9893 119.461 63.9893 120.241V124.816H62.5493V120.406C62.5493 119.636 62.3593 119.056 61.9793 118.666C61.6093 118.276 61.0843 118.081 60.4043 118.081C59.8943 118.081 59.4493 118.181 59.0693 118.381C58.6893 118.581 58.3943 118.876 58.1843 119.266C57.9843 119.656 57.8843 120.141 57.8843 120.721V124.816H56.4443V116.866H57.8243V119.011L57.5993 118.441C57.8593 117.921 58.2593 117.516 58.7993 117.226C59.3393 116.936 59.9693 116.791 60.6893 116.791Z" fill="#483332"/>
<path d="M66.9993 118.846C66.7193 118.846 66.4793 118.751 66.2793 118.561C66.0793 118.361 65.9793 118.111 65.9793 117.811C65.9793 117.511 66.0793 117.266 66.2793 117.076C66.4793 116.886 66.7193 116.791 66.9993 116.791C67.2693 116.791 67.4993 116.886 67.6893 117.076C67.8893 117.266 67.9893 117.511 67.9893 117.811C67.9893 118.111 67.8893 118.361 67.6893 118.561C67.4993 118.751 67.2693 118.846 66.9993 118.846ZM66.9993 124.906C66.7193 124.906 66.4793 124.811 66.2793 124.621C66.0793 124.421 65.9793 124.171 65.9793 123.871C65.9793 123.571 66.0793 123.326 66.2793 123.136C66.4793 122.946 66.7193 122.851 66.9993 122.851C67.2693 122.851 67.4993 122.946 67.6893 123.136C67.8893 123.326 67.9893 123.571 67.9893 123.871C67.9893 124.171 67.8893 124.421 67.6893 124.621C67.4993 124.811 67.2693 124.906 66.9993 124.906Z" fill="#483332"/>
<path d="M75.206 124.816V114.916L75.851 115.621H72.836V114.316H76.691V124.816H75.206Z" fill="#483332"/>
<path d="M83.2778 124.936C82.4578 124.936 81.7228 124.726 81.0728 124.306C80.4328 123.886 79.9228 123.276 79.5428 122.476C79.1728 121.676 78.9878 120.706 78.9878 119.566C78.9878 118.426 79.1728 117.456 79.5428 116.656C79.9228 115.856 80.4328 115.246 81.0728 114.826C81.7228 114.406 82.4578 114.196 83.2778 114.196C84.0878 114.196 84.8178 114.406 85.4678 114.826C86.1178 115.246 86.6278 115.856 86.9978 116.656C87.3678 117.456 87.5528 118.426 87.5528 119.566C87.5528 120.706 87.3678 121.676 86.9978 122.476C86.6278 123.276 86.1178 123.886 85.4678 124.306C84.8178 124.726 84.0878 124.936 83.2778 124.936ZM83.2778 123.601C83.8278 123.601 84.3078 123.451 84.7178 123.151C85.1378 122.851 85.4628 122.401 85.6928 121.801C85.9328 121.201 86.0528 120.456 86.0528 119.566C86.0528 118.676 85.9328 117.931 85.6928 117.331C85.4628 116.731 85.1378 116.281 84.7178 115.981C84.3078 115.681 83.8278 115.531 83.2778 115.531C82.7278 115.531 82.2428 115.681 81.8228 115.981C81.4028 116.281 81.0728 116.731 80.8328 117.331C80.6028 117.931 80.4878 118.676 80.4878 119.566C80.4878 120.456 80.6028 121.201 80.8328 121.801C81.0728 122.401 81.4028 122.851 81.8228 123.151C82.2428 123.451 82.7278 123.601 83.2778 123.601Z" fill="#483332"/>
<path d="M93.2827 124.936C92.4627 124.936 91.7277 124.726 91.0777 124.306C90.4377 123.886 89.9277 123.276 89.5477 122.476C89.1777 121.676 88.9927 120.706 88.9927 119.566C88.9927 118.426 89.1777 117.456 89.5477 116.656C89.9277 115.856 90.4377 115.246 91.0777 114.826C91.7277 114.406 92.4627 114.196 93.2827 114.196C94.0927 114.196 94.8227 114.406 95.4727 114.826C96.1227 115.246 96.6327 115.856 97.0027 116.656C97.3727 117.456 97.5577 118.426 97.5577 119.566C97.5577 120.706 97.3727 121.676 97.0027 122.476C96.6327 123.276 96.1227 123.886 95.4727 124.306C94.8227 124.726 94.0927 124.936 93.2827 124.936ZM93.2827 123.601C93.8327 123.601 94.3127 123.451 94.7227 123.151C95.1427 122.851 95.4677 122.401 95.6977 121.801C95.9377 121.201 96.0577 120.456 96.0577 119.566C96.0577 118.676 95.9377 117.931 95.6977 117.331C95.4677 116.731 95.1427 116.281 94.7227 115.981C94.3127 115.681 93.8327 115.531 93.2827 115.531C92.7327 115.531 92.2477 115.681 91.8277 115.981C91.4077 116.281 91.0777 116.731 90.8377 117.331C90.6077 117.931 90.4927 118.676 90.4927 119.566C90.4927 120.456 90.6077 121.201 90.8377 121.801C91.0777 122.401 91.4077 122.851 91.8277 123.151C92.2477 123.451 92.7327 123.601 93.2827 123.601Z" fill="#483332"/>
<path d="M105.231 119.281H110.646V120.571H105.231V119.281ZM105.381 124.816H103.881V114.316H111.291V115.621H105.381V124.816Z" fill="#483332"/>
<path d="M116.348 124.906C115.548 124.906 114.838 124.731 114.218 124.381C113.598 124.031 113.108 123.551 112.748 122.941C112.388 122.321 112.208 121.621 112.208 120.841C112.208 120.051 112.388 119.351 112.748 118.741C113.108 118.131 113.598 117.656 114.218 117.316C114.838 116.966 115.548 116.791 116.348 116.791C117.138 116.791 117.843 116.966 118.463 117.316C119.093 117.656 119.583 118.131 119.933 118.741C120.293 119.341 120.473 120.041 120.473 120.841C120.473 121.631 120.293 122.331 119.933 122.941C119.583 123.551 119.093 124.031 118.463 124.381C117.843 124.731 117.138 124.906 116.348 124.906ZM116.348 123.646C116.858 123.646 117.313 123.531 117.713 123.301C118.123 123.071 118.443 122.746 118.673 122.326C118.903 121.896 119.018 121.401 119.018 120.841C119.018 120.271 118.903 119.781 118.673 119.371C118.443 118.951 118.123 118.626 117.713 118.396C117.313 118.166 116.858 118.051 116.348 118.051C115.838 118.051 115.383 118.166 114.983 118.396C114.583 118.626 114.263 118.951 114.023 119.371C113.783 119.781 113.663 120.271 113.663 120.841C113.663 121.401 113.783 121.896 114.023 122.326C114.263 122.746 114.583 123.071 114.983 123.301C115.383 123.531 115.838 123.646 116.348 123.646Z" fill="#483332"/>
<path d="M125.87 124.906C125.07 124.906 124.36 124.731 123.74 124.381C123.12 124.031 122.63 123.551 122.27 122.941C121.91 122.321 121.73 121.621 121.73 120.841C121.73 120.051 121.91 119.351 122.27 118.741C122.63 118.131 123.12 117.656 123.74 117.316C124.36 116.966 125.07 116.791 125.87 116.791C126.66 116.791 127.365 116.966 127.985 117.316C128.615 117.656 129.105 118.131 129.455 118.741C129.815 119.341 129.995 120.041 129.995 120.841C129.995 121.631 129.815 122.331 129.455 122.941C129.105 123.551 128.615 124.031 127.985 124.381C127.365 124.731 126.66 124.906 125.87 124.906ZM125.87 123.646C126.38 123.646 126.835 123.531 127.235 123.301C127.645 123.071 127.965 122.746 128.195 122.326C128.425 121.896 128.54 121.401 128.54 120.841C128.54 120.271 128.425 119.781 128.195 119.371C127.965 118.951 127.645 118.626 127.235 118.396C126.835 118.166 126.38 118.051 125.87 118.051C125.36 118.051 124.905 118.166 124.505 118.396C124.105 118.626 123.785 118.951 123.545 119.371C123.305 119.781 123.185 120.271 123.185 120.841C123.185 121.401 123.305 121.896 123.545 122.326C123.785 122.746 124.105 123.071 124.505 123.301C124.905 123.531 125.36 123.646 125.87 123.646Z" fill="#483332"/>
<path d="M135.271 124.906C134.501 124.906 133.811 124.736 133.201 124.396C132.601 124.056 132.126 123.581 131.776 122.971C131.426 122.361 131.251 121.651 131.251 120.841C131.251 120.031 131.426 119.326 131.776 118.726C132.126 118.116 132.601 117.641 133.201 117.301C133.811 116.961 134.501 116.791 135.271 116.791C135.941 116.791 136.546 116.941 137.086 117.241C137.626 117.541 138.056 117.991 138.376 118.591C138.706 119.191 138.871 119.941 138.871 120.841C138.871 121.741 138.711 122.491 138.391 123.091C138.081 123.691 137.656 124.146 137.116 124.456C136.576 124.756 135.961 124.906 135.271 124.906ZM135.391 123.646C135.891 123.646 136.341 123.531 136.741 123.301C137.151 123.071 137.471 122.746 137.701 122.326C137.941 121.896 138.061 121.401 138.061 120.841C138.061 120.271 137.941 119.781 137.701 119.371C137.471 118.951 137.151 118.626 136.741 118.396C136.341 118.166 135.891 118.051 135.391 118.051C134.881 118.051 134.426 118.166 134.026 118.396C133.626 118.626 133.306 118.951 133.066 119.371C132.826 119.781 132.706 120.271 132.706 120.841C132.706 121.401 132.826 121.896 133.066 122.326C133.306 122.746 133.626 123.071 134.026 123.301C134.426 123.531 134.881 123.646 135.391 123.646ZM138.106 124.816V122.671L138.196 120.826L138.046 118.981V113.686H139.486V124.816H138.106Z" fill="#483332"/>
<path d="M149.509 124.936C148.709 124.936 147.944 124.816 147.214 124.576C146.484 124.326 145.909 124.006 145.489 123.616L146.044 122.446C146.444 122.796 146.954 123.086 147.574 123.316C148.194 123.546 148.839 123.661 149.509 123.661C150.119 123.661 150.614 123.591 150.994 123.451C151.374 123.311 151.654 123.121 151.834 122.881C152.014 122.631 152.104 122.351 152.104 122.041C152.104 121.681 151.984 121.391 151.744 121.171C151.514 120.951 151.209 120.776 150.829 120.646C150.459 120.506 150.049 120.386 149.599 120.286C149.149 120.186 148.694 120.071 148.234 119.941C147.784 119.801 147.369 119.626 146.989 119.416C146.619 119.206 146.319 118.926 146.089 118.576C145.859 118.216 145.744 117.756 145.744 117.196C145.744 116.656 145.884 116.161 146.164 115.711C146.454 115.251 146.894 114.886 147.484 114.616C148.084 114.336 148.844 114.196 149.764 114.196C150.374 114.196 150.979 114.276 151.579 114.436C152.179 114.596 152.699 114.826 153.139 115.126L152.644 116.326C152.194 116.026 151.719 115.811 151.219 115.681C150.719 115.541 150.234 115.471 149.764 115.471C149.174 115.471 148.689 115.546 148.309 115.696C147.929 115.846 147.649 116.046 147.469 116.296C147.299 116.546 147.214 116.826 147.214 117.136C147.214 117.506 147.329 117.801 147.559 118.021C147.799 118.241 148.104 118.416 148.474 118.546C148.854 118.676 149.269 118.796 149.719 118.906C150.169 119.006 150.619 119.121 151.069 119.251C151.529 119.381 151.944 119.551 152.314 119.761C152.694 119.971 152.999 120.251 153.229 120.601C153.459 120.951 153.574 121.401 153.574 121.951C153.574 122.481 153.429 122.976 153.139 123.436C152.849 123.886 152.399 124.251 151.789 124.531C151.189 124.801 150.429 124.936 149.509 124.936Z" fill="#483332"/>
<path d="M158.286 124.906C157.486 124.906 156.866 124.691 156.426 124.261C155.986 123.831 155.766 123.216 155.766 122.416V115.126H157.206V122.356C157.206 122.786 157.311 123.116 157.521 123.346C157.741 123.576 158.051 123.691 158.451 123.691C158.901 123.691 159.276 123.566 159.576 123.316L160.026 124.351C159.806 124.541 159.541 124.681 159.231 124.771C158.931 124.861 158.616 124.906 158.286 124.906ZM154.416 118.051V116.866H159.486V118.051H154.416Z" fill="#483332"/>
<path d="M161.767 124.816V116.866H163.147V119.026L163.012 118.486C163.232 117.936 163.602 117.516 164.122 117.226C164.642 116.936 165.282 116.791 166.042 116.791V118.186C165.982 118.176 165.922 118.171 165.862 118.171C165.812 118.171 165.762 118.171 165.712 118.171C164.942 118.171 164.332 118.401 163.882 118.861C163.432 119.321 163.207 119.986 163.207 120.856V124.816H161.767Z" fill="#483332"/>
<path d="M171.283 124.906C170.433 124.906 169.683 124.731 169.033 124.381C168.393 124.031 167.893 123.551 167.533 122.941C167.183 122.331 167.008 121.631 167.008 120.841C167.008 120.051 167.178 119.351 167.518 118.741C167.868 118.131 168.343 117.656 168.943 117.316C169.553 116.966 170.238 116.791 170.998 116.791C171.768 116.791 172.448 116.961 173.038 117.301C173.628 117.641 174.088 118.121 174.418 118.741C174.758 119.351 174.928 120.066 174.928 120.886C174.928 120.946 174.923 121.016 174.913 121.096C174.913 121.176 174.908 121.251 174.898 121.321H168.133V120.286H174.148L173.563 120.646C173.573 120.136 173.468 119.681 173.248 119.281C173.028 118.881 172.723 118.571 172.333 118.351C171.953 118.121 171.508 118.006 170.998 118.006C170.498 118.006 170.053 118.121 169.663 118.351C169.273 118.571 168.968 118.886 168.748 119.296C168.528 119.696 168.418 120.156 168.418 120.676V120.916C168.418 121.446 168.538 121.921 168.778 122.341C169.028 122.751 169.373 123.071 169.813 123.301C170.253 123.531 170.758 123.646 171.328 123.646C171.798 123.646 172.223 123.566 172.603 123.406C172.993 123.246 173.333 123.006 173.623 122.686L174.418 123.616C174.058 124.036 173.608 124.356 173.068 124.576C172.538 124.796 171.943 124.906 171.283 124.906Z" fill="#483332"/>
<path d="M180.468 124.906C179.618 124.906 178.868 124.731 178.218 124.381C177.578 124.031 177.078 123.551 176.718 122.941C176.368 122.331 176.193 121.631 176.193 120.841C176.193 120.051 176.363 119.351 176.703 118.741C177.053 118.131 177.528 117.656 178.128 117.316C178.738 116.966 179.423 116.791 180.183 116.791C180.953 116.791 181.633 116.961 182.223 117.301C182.813 117.641 183.273 118.121 183.603 118.741C183.943 119.351 184.113 120.066 184.113 120.886C184.113 120.946 184.108 121.016 184.098 121.096C184.098 121.176 184.093 121.251 184.083 121.321H177.318V120.286H183.333L182.748 120.646C182.758 120.136 182.653 119.681 182.433 119.281C182.213 118.881 181.908 118.571 181.518 118.351C181.138 118.121 180.693 118.006 180.183 118.006C179.683 118.006 179.238 118.121 178.848 118.351C178.458 118.571 178.153 118.886 177.933 119.296C177.713 119.696 177.603 120.156 177.603 120.676V120.916C177.603 121.446 177.723 121.921 177.963 122.341C178.213 122.751 178.558 123.071 178.998 123.301C179.438 123.531 179.943 123.646 180.513 123.646C180.983 123.646 181.408 123.566 181.788 123.406C182.178 123.246 182.518 123.006 182.808 122.686L183.603 123.616C183.243 124.036 182.793 124.356 182.253 124.576C181.723 124.796 181.128 124.906 180.468 124.906Z" fill="#483332"/>
<path d="M188.842 124.906C188.042 124.906 187.422 124.691 186.982 124.261C186.542 123.831 186.322 123.216 186.322 122.416V115.126H187.762V122.356C187.762 122.786 187.867 123.116 188.077 123.346C188.297 123.576 188.607 123.691 189.007 123.691C189.457 123.691 189.832 123.566 190.132 123.316L190.582 124.351C190.362 124.541 190.097 124.681 189.787 124.771C189.487 124.861 189.172 124.906 188.842 124.906ZM184.972 118.051V116.866H190.042V118.051H184.972Z" fill="#483332"/>
<path d="M191.9 127.036L192.65 124.006L192.845 124.876C192.555 124.876 192.31 124.786 192.11 124.606C191.92 124.426 191.825 124.181 191.825 123.871C191.825 123.571 191.92 123.326 192.11 123.136C192.31 122.946 192.55 122.851 192.83 122.851C193.12 122.851 193.355 122.951 193.535 123.151C193.715 123.341 193.805 123.581 193.805 123.871C193.805 123.971 193.795 124.071 193.775 124.171C193.765 124.261 193.74 124.371 193.7 124.501C193.67 124.621 193.62 124.771 193.55 124.951L192.845 127.036H191.9Z" fill="#483332"/>
<path d="M202.191 124.816V115.621H198.591V114.316H207.276V115.621H203.676V124.816H202.191Z" fill="#483332"/>
<path d="M211.285 124.906C210.485 124.906 209.775 124.731 209.155 124.381C208.535 124.031 208.045 123.551 207.685 122.941C207.325 122.321 207.145 121.621 207.145 120.841C207.145 120.051 207.325 119.351 207.685 118.741C208.045 118.131 208.535 117.656 209.155 117.316C209.775 116.966 210.485 116.791 211.285 116.791C212.075 116.791 212.78 116.966 213.4 117.316C214.03 117.656 214.52 118.131 214.87 118.741C215.23 119.341 215.41 120.041 215.41 120.841C215.41 121.631 215.23 122.331 214.87 122.941C214.52 123.551 214.03 124.031 213.4 124.381C212.78 124.731 212.075 124.906 211.285 124.906ZM211.285 123.646C211.795 123.646 212.25 123.531 212.65 123.301C213.06 123.071 213.38 122.746 213.61 122.326C213.84 121.896 213.955 121.401 213.955 120.841C213.955 120.271 213.84 119.781 213.61 119.371C213.38 118.951 213.06 118.626 212.65 118.396C212.25 118.166 211.795 118.051 211.285 118.051C210.775 118.051 210.32 118.166 209.92 118.396C209.52 118.626 209.2 118.951 208.96 119.371C208.72 119.781 208.6 120.271 208.6 120.841C208.6 121.401 208.72 121.896 208.96 122.326C209.2 122.746 209.52 123.071 209.92 123.301C210.32 123.531 210.775 123.646 211.285 123.646Z" fill="#483332"/>
<path d="M217.401 124.816V116.866H218.781V119.026L218.646 118.486C218.866 117.936 219.236 117.516 219.756 117.226C220.276 116.936 220.916 116.791 221.676 116.791V118.186C221.616 118.176 221.556 118.171 221.496 118.171C221.446 118.171 221.396 118.171 221.346 118.171C220.576 118.171 219.966 118.401 219.516 118.861C219.066 119.321 218.841 119.986 218.841 120.856V124.816H217.401Z" fill="#483332"/>
<path d="M226.783 124.906C225.983 124.906 225.273 124.731 224.653 124.381C224.033 124.031 223.543 123.551 223.183 122.941C222.823 122.321 222.643 121.621 222.643 120.841C222.643 120.051 222.823 119.351 223.183 118.741C223.543 118.131 224.033 117.656 224.653 117.316C225.273 116.966 225.983 116.791 226.783 116.791C227.573 116.791 228.278 116.966 228.898 117.316C229.528 117.656 230.018 118.131 230.368 118.741C230.728 119.341 230.908 120.041 230.908 120.841C230.908 121.631 230.728 122.331 230.368 122.941C230.018 123.551 229.528 124.031 228.898 124.381C228.278 124.731 227.573 124.906 226.783 124.906ZM226.783 123.646C227.293 123.646 227.748 123.531 228.148 123.301C228.558 123.071 228.878 122.746 229.108 122.326C229.338 121.896 229.453 121.401 229.453 120.841C229.453 120.271 229.338 119.781 229.108 119.371C228.878 118.951 228.558 118.626 228.148 118.396C227.748 118.166 227.293 118.051 226.783 118.051C226.273 118.051 225.818 118.166 225.418 118.396C225.018 118.626 224.698 118.951 224.458 119.371C224.218 119.781 224.098 120.271 224.098 120.841C224.098 121.401 224.218 121.896 224.458 122.326C224.698 122.746 225.018 123.071 225.418 123.301C225.818 123.531 226.273 123.646 226.783 123.646Z" fill="#483332"/>
<path d="M237.144 116.791C237.794 116.791 238.364 116.916 238.854 117.166C239.354 117.416 239.744 117.796 240.024 118.306C240.304 118.816 240.444 119.461 240.444 120.241V124.816H239.004V120.406C239.004 119.636 238.814 119.056 238.434 118.666C238.064 118.276 237.539 118.081 236.859 118.081C236.349 118.081 235.904 118.181 235.524 118.381C235.144 118.581 234.849 118.876 234.639 119.266C234.439 119.656 234.339 120.141 234.339 120.721V124.816H232.899V116.866H234.279V119.011L234.054 118.441C234.314 117.921 234.714 117.516 235.254 117.226C235.794 116.936 236.424 116.791 237.144 116.791Z" fill="#483332"/>
<path d="M245.839 124.906C245.039 124.906 244.419 124.691 243.979 124.261C243.539 123.831 243.319 123.216 243.319 122.416V115.126H244.759V122.356C244.759 122.786 244.864 123.116 245.074 123.346C245.294 123.576 245.604 123.691 246.004 123.691C246.454 123.691 246.829 123.566 247.129 123.316L247.579 124.351C247.359 124.541 247.094 124.681 246.784 124.771C246.484 124.861 246.169 124.906 245.839 124.906ZM241.969 118.051V116.866H247.039V118.051H241.969Z" fill="#483332"/>
<path d="M252.462 124.906C251.662 124.906 250.952 124.731 250.332 124.381C249.712 124.031 249.222 123.551 248.862 122.941C248.502 122.321 248.322 121.621 248.322 120.841C248.322 120.051 248.502 119.351 248.862 118.741C249.222 118.131 249.712 117.656 250.332 117.316C250.952 116.966 251.662 116.791 252.462 116.791C253.252 116.791 253.957 116.966 254.577 117.316C255.207 117.656 255.697 118.131 256.047 118.741C256.407 119.341 256.587 120.041 256.587 120.841C256.587 121.631 256.407 122.331 256.047 122.941C255.697 123.551 255.207 124.031 254.577 124.381C253.957 124.731 253.252 124.906 252.462 124.906ZM252.462 123.646C252.972 123.646 253.427 123.531 253.827 123.301C254.237 123.071 254.557 122.746 254.787 122.326C255.017 121.896 255.132 121.401 255.132 120.841C255.132 120.271 255.017 119.781 254.787 119.371C254.557 118.951 254.237 118.626 253.827 118.396C253.427 118.166 252.972 118.051 252.462 118.051C251.952 118.051 251.497 118.166 251.097 118.396C250.697 118.626 250.377 118.951 250.137 119.371C249.897 119.781 249.777 120.271 249.777 120.841C249.777 121.401 249.897 121.896 250.137 122.326C250.377 122.746 250.697 123.071 251.097 123.301C251.497 123.531 251.952 123.646 252.462 123.646Z" fill="#483332"/>
<path d="M257.832 127.036L258.582 124.006L258.777 124.876C258.487 124.876 258.242 124.786 258.042 124.606C257.852 124.426 257.757 124.181 257.757 123.871C257.757 123.571 257.852 123.326 258.042 123.136C258.242 122.946 258.482 122.851 258.762 122.851C259.052 122.851 259.287 122.951 259.467 123.151C259.647 123.341 259.737 123.581 259.737 123.871C259.737 123.971 259.727 124.071 259.707 124.171C259.697 124.261 259.672 124.371 259.632 124.501C259.602 124.621 259.552 124.771 259.482 124.951L258.777 127.036H257.832Z" fill="#483332"/>
<path d="M270.734 124.936C269.934 124.936 269.194 124.806 268.514 124.546C267.844 124.276 267.259 123.901 266.759 123.421C266.269 122.931 265.884 122.361 265.604 121.711C265.324 121.061 265.184 120.346 265.184 119.566C265.184 118.786 265.324 118.071 265.604 117.421C265.884 116.771 266.274 116.206 266.774 115.726C267.274 115.236 267.859 114.861 268.529 114.601C269.209 114.331 269.949 114.196 270.749 114.196C271.559 114.196 272.304 114.336 272.984 114.616C273.674 114.886 274.259 115.291 274.739 115.831L273.764 116.776C273.364 116.356 272.914 116.046 272.414 115.846C271.914 115.636 271.379 115.531 270.809 115.531C270.219 115.531 269.669 115.631 269.159 115.831C268.659 116.031 268.224 116.311 267.854 116.671C267.484 117.031 267.194 117.461 266.984 117.961C266.784 118.451 266.684 118.986 266.684 119.566C266.684 120.146 266.784 120.686 266.984 121.186C267.194 121.676 267.484 122.101 267.854 122.461C268.224 122.821 268.659 123.101 269.159 123.301C269.669 123.501 270.219 123.601 270.809 123.601C271.379 123.601 271.914 123.501 272.414 123.301C272.914 123.091 273.364 122.771 273.764 122.341L274.739 123.286C274.259 123.826 273.674 124.236 272.984 124.516C272.304 124.796 271.554 124.936 270.734 124.936Z" fill="#483332"/>
<path d="M275.04 124.816L279.795 114.316H281.28L286.05 124.816H284.475L280.23 115.156H280.83L276.585 124.816H275.04ZM277.065 122.191L277.47 120.991H283.38L283.815 122.191H277.065Z" fill="#483332"/>
</svg>
