<svg width="1242" height="32" viewBox="0 0 1242 32" fill="none" xmlns="http://www.w3.org/2000/svg">
<path d="M46.0358 28.8844C45.3084 28.8844 44.6344 28.7566 44.0137 28.501C43.393 28.2454 42.8499 27.8904 42.3843 27.4359C41.9188 26.972 41.5551 26.4372 41.2933 25.8313C41.0411 25.2254 40.915 24.5721 40.915 23.8716C40.915 23.171 41.046 22.5178 41.3078 21.9119C41.5697 21.306 41.9334 20.7758 42.3989 20.3214C42.8644 19.8575 43.4075 19.4978 44.0282 19.2422C44.6586 18.9866 45.3375 18.8587 46.0649 18.8587C46.7923 18.8587 47.4663 18.9866 48.087 19.2422C48.7174 19.4883 49.2605 19.8386 49.7163 20.293C50.1819 20.7474 50.5407 21.2776 50.7928 21.8835C51.0547 22.4799 51.1856 23.1331 51.1856 23.8432C51.1856 24.5532 51.0547 25.2159 50.7928 25.8313C50.531 26.4372 50.1625 26.972 49.6872 27.4359C49.2217 27.8904 48.6786 28.2454 48.0579 28.501C47.4372 28.7566 46.7632 28.8844 46.0358 28.8844ZM46.0212 28.1034C46.6419 28.1034 47.2141 27.9945 47.7379 27.7767C48.2616 27.559 48.7174 27.2608 49.1053 26.8821C49.503 26.494 49.8085 26.0395 50.0218 25.5188C50.2352 24.9982 50.3419 24.4396 50.3419 23.8432C50.3419 23.2467 50.2352 22.6929 50.0218 22.1817C49.8085 21.6705 49.5078 21.2255 49.1199 20.8468C48.7416 20.4682 48.2907 20.1747 47.767 19.9664C47.2529 19.7487 46.6856 19.6398 46.0649 19.6398C45.4442 19.6398 44.8671 19.7487 44.3337 19.9664C43.81 20.1747 43.3542 20.4729 42.9662 20.861C42.588 21.2492 42.2874 21.6989 42.0643 22.2101C41.8509 22.7213 41.7443 23.2751 41.7443 23.8716C41.7443 24.468 41.8509 25.0218 42.0643 25.533C42.2777 26.0443 42.5783 26.494 42.9662 26.8821C43.3542 27.2703 43.81 27.5732 44.3337 27.7909C44.8574 27.9992 45.4199 28.1034 46.0212 28.1034ZM46.1958 26.7685C45.6042 26.7685 45.0756 26.6454 44.6101 26.3993C44.1446 26.1531 43.7809 25.8123 43.5191 25.3768C43.2572 24.9414 43.1263 24.4396 43.1263 23.8716C43.1263 23.3035 43.2572 22.8018 43.5191 22.3663C43.7809 21.9308 44.1446 21.59 44.6101 21.3439C45.0756 21.0977 45.6042 20.9746 46.1958 20.9746C46.7486 20.9746 47.2335 21.0882 47.6506 21.3155C48.0773 21.5332 48.4022 21.8314 48.6253 22.2101L47.5633 22.8917C47.3984 22.6456 47.1996 22.4657 46.9668 22.3521C46.7341 22.2385 46.4722 22.1817 46.1813 22.1817C45.8709 22.1817 45.5897 22.2527 45.3375 22.3947C45.095 22.5272 44.8962 22.7213 44.7411 22.9769C44.5956 23.2231 44.5228 23.5213 44.5228 23.8716C44.5228 24.2219 44.5956 24.5248 44.7411 24.7804C44.8962 25.0266 45.095 25.2206 45.3375 25.3626C45.5897 25.4952 45.8709 25.5614 46.1813 25.5614C46.4722 25.5614 46.7341 25.5046 46.9668 25.391C47.1996 25.2774 47.3984 25.0976 47.5633 24.8514L48.6253 25.5046C48.4022 25.8928 48.0773 26.2005 47.6506 26.4277C47.2335 26.6549 46.7486 26.7685 46.1958 26.7685Z" fill="#483332"/>
<path d="M56.3546 28.8418V27.6063L60.3988 23.8574C60.7382 23.545 60.9904 23.2704 61.1553 23.0337C61.3201 22.7971 61.4268 22.5793 61.4753 22.3805C61.5335 22.1722 61.5626 21.9782 61.5626 21.7983C61.5626 21.3439 61.4026 20.9936 61.0825 20.7474C60.7625 20.4918 60.2921 20.364 59.6714 20.364C59.1768 20.364 58.7258 20.4492 58.3185 20.6196C57.9209 20.79 57.5766 21.0504 57.2856 21.4007L55.9618 20.4066C56.3594 19.8859 56.8928 19.4836 57.562 19.1996C58.2409 18.9061 58.9974 18.7593 59.8314 18.7593C60.5685 18.7593 61.2086 18.8777 61.7517 19.1144C62.3045 19.3416 62.7264 19.6682 63.0174 20.0942C63.318 20.5202 63.4683 21.0267 63.4683 21.6137C63.4683 21.9356 63.4247 22.2574 63.3374 22.5793C63.2501 22.8917 63.0853 23.2231 62.8428 23.5734C62.6003 23.9236 62.2463 24.3165 61.7808 24.752L58.3039 27.9756L57.9112 27.2797H63.8611V28.8418H56.3546Z" fill="#483332"/>
<path d="M69.2005 28.9838C68.3956 28.9838 67.6682 28.785 67.0184 28.3874C66.3783 27.9898 65.874 27.4123 65.5055 26.6549C65.1369 25.8881 64.9527 24.9603 64.9527 23.8716C64.9527 22.7829 65.1369 21.8598 65.5055 21.1024C65.874 20.3356 66.3783 19.7534 67.0184 19.3558C67.6682 18.9582 68.3956 18.7593 69.2005 18.7593C70.0152 18.7593 70.7426 18.9582 71.3827 19.3558C72.0228 19.7534 72.5271 20.3356 72.8956 21.1024C73.2739 21.8598 73.463 22.7829 73.463 23.8716C73.463 24.9603 73.2739 25.8881 72.8956 26.6549C72.5271 27.4123 72.0228 27.9898 71.3827 28.3874C70.7426 28.785 70.0152 28.9838 69.2005 28.9838ZM69.2005 27.3791C69.6758 27.3791 70.0879 27.2561 70.4371 27.0099C70.7862 26.7543 71.0578 26.3661 71.2518 25.8455C71.4554 25.3248 71.5573 24.6668 71.5573 23.8716C71.5573 23.0669 71.4554 22.4089 71.2518 21.8977C71.0578 21.377 70.7862 20.9936 70.4371 20.7474C70.0879 20.4918 69.6758 20.364 69.2005 20.364C68.7447 20.364 68.3374 20.4918 67.9785 20.7474C67.6294 20.9936 67.353 21.377 67.1493 21.8977C66.9554 22.4089 66.8584 23.0669 66.8584 23.8716C66.8584 24.6668 66.9554 25.3248 67.1493 25.8455C67.353 26.3661 67.6294 26.7543 67.9785 27.0099C68.3374 27.2561 68.7447 27.3791 69.2005 27.3791Z" fill="#483332"/>
<path d="M74.5959 28.8418V27.6063L78.6401 23.8574C78.9796 23.545 79.2317 23.2704 79.3966 23.0337C79.5615 22.7971 79.6681 22.5793 79.7166 22.3805C79.7748 22.1722 79.8039 21.9782 79.8039 21.7983C79.8039 21.3439 79.6439 20.9936 79.3238 20.7474C79.0038 20.4918 78.5334 20.364 77.9127 20.364C77.4181 20.364 76.9671 20.4492 76.5598 20.6196C76.1622 20.79 75.8179 21.0504 75.5269 21.4007L74.2031 20.4066C74.6007 19.8859 75.1341 19.4836 75.8033 19.1996C76.4822 18.9061 77.2387 18.7593 78.0728 18.7593C78.8098 18.7593 79.4499 18.8777 79.993 19.1144C80.5458 19.3416 80.9677 19.6682 81.2587 20.0942C81.5593 20.5202 81.7097 21.0267 81.7097 21.6137C81.7097 21.9356 81.666 22.2574 81.5787 22.5793C81.4914 22.8917 81.3266 23.2231 81.0841 23.5734C80.8416 23.9236 80.4877 24.3165 80.0221 24.752L76.5453 27.9756L76.1525 27.2797H82.1024V28.8418H74.5959Z" fill="#483332"/>
<path d="M86.3944 28.9838C85.6767 28.9838 84.9736 28.8844 84.285 28.6856C83.6061 28.4773 83.0339 28.1933 82.5684 27.8335L83.3831 26.3993C83.7516 26.6928 84.1977 26.9294 84.7215 27.1093C85.2452 27.2892 85.7931 27.3791 86.3653 27.3791C87.0442 27.3791 87.5728 27.2466 87.951 26.9815C88.3293 26.707 88.5184 26.3377 88.5184 25.8739C88.5184 25.4194 88.3438 25.0597 87.9947 24.7946C87.6455 24.5295 87.083 24.397 86.3071 24.397H85.3761V23.1331L88.2856 19.7534L88.5329 20.4492H83.063V18.9014H90.0022V20.1368L87.0927 23.5166L86.1035 22.9485H86.6708C87.9219 22.9485 88.8578 23.2231 89.4785 23.7722C90.1089 24.3118 90.4241 25.0076 90.4241 25.8597C90.4241 26.4182 90.2786 26.9342 89.9877 27.4075C89.6967 27.8809 89.2506 28.2643 88.6493 28.5578C88.0577 28.8418 87.3061 28.9838 86.3944 28.9838Z" fill="#483332"/>
<path d="M96.409 28.8418V18.9014H100.599C101.501 18.9014 102.272 19.0434 102.912 19.3274C103.562 19.6114 104.061 20.0185 104.41 20.5486C104.759 21.0788 104.934 21.7083 104.934 22.4373C104.934 23.1663 104.759 23.7958 104.41 24.326C104.061 24.8467 103.562 25.249 102.912 25.533C102.272 25.8076 101.501 25.9449 100.599 25.9449H97.4564L98.3001 25.107V28.8418H96.409ZM103.072 28.8418L100.497 25.2348H102.519L105.108 28.8418H103.072ZM98.3001 25.3058L97.4564 24.4254H100.511C101.345 24.4254 101.971 24.2503 102.388 23.9C102.815 23.5497 103.028 23.0621 103.028 22.4373C103.028 21.803 102.815 21.3155 102.388 20.9746C101.971 20.6338 101.345 20.4634 100.511 20.4634H97.4564L98.3001 19.5546V25.3058Z" fill="#483332"/>
<path d="M108.795 23.0337H113.858V24.5532H108.795V23.0337ZM108.941 27.2939H114.687V28.8418H107.05V18.9014H114.484V20.4492H108.941V27.2939Z" fill="#483332"/>
<path d="M119.952 28.9838C119.157 28.9838 118.396 28.8749 117.668 28.6572C116.941 28.43 116.364 28.1412 115.937 27.7909L116.592 26.3567C116.999 26.6691 117.503 26.9294 118.105 27.1377C118.706 27.346 119.322 27.4501 119.952 27.4501C120.486 27.4501 120.917 27.3933 121.247 27.2797C121.577 27.1661 121.819 27.0146 121.974 26.8253C122.13 26.6265 122.207 26.404 122.207 26.1579C122.207 25.8549 122.096 25.6135 121.873 25.4336C121.65 25.2443 121.359 25.0976 121 24.9934C120.651 24.8798 120.258 24.7757 119.821 24.681C119.395 24.5863 118.963 24.4775 118.527 24.3544C118.1 24.2219 117.707 24.0562 117.348 23.8574C116.999 23.6491 116.713 23.3745 116.49 23.0337C116.267 22.6929 116.155 22.2574 116.155 21.7273C116.155 21.1877 116.301 20.6954 116.592 20.2504C116.892 19.796 117.343 19.4362 117.945 19.1712C118.556 18.8966 119.327 18.7593 120.258 18.7593C120.869 18.7593 121.475 18.8351 122.076 18.9866C122.678 19.138 123.201 19.3558 123.647 19.6398L123.051 21.074C122.595 20.809 122.125 20.6149 121.64 20.4918C121.155 20.3593 120.689 20.293 120.243 20.293C119.72 20.293 119.293 20.3545 118.963 20.4776C118.643 20.6007 118.405 20.7616 118.25 20.9604C118.105 21.1593 118.032 21.3865 118.032 21.6421C118.032 21.945 118.139 22.1912 118.352 22.3805C118.575 22.5604 118.861 22.7024 119.21 22.8065C119.569 22.9107 119.967 23.0148 120.403 23.1189C120.84 23.2136 121.271 23.3225 121.698 23.4456C122.134 23.5686 122.527 23.7296 122.876 23.9284C123.235 24.1272 123.521 24.397 123.735 24.7378C123.958 25.0786 124.069 25.5094 124.069 26.0301C124.069 26.5602 123.919 27.0525 123.618 27.5069C123.327 27.9519 122.876 28.3116 122.265 28.5862C121.654 28.8513 120.883 28.9838 119.952 28.9838Z" fill="#483332"/>
<path d="M127.69 23.0337H132.753V24.5532H127.69V23.0337ZM127.836 27.2939H133.582V28.8418H125.945V18.9014H133.378V20.4492H127.836V27.2939Z" fill="#483332"/>
<path d="M135.69 28.8418V18.9014H139.88C140.782 18.9014 141.553 19.0434 142.193 19.3274C142.843 19.6114 143.342 20.0185 143.691 20.5486C144.041 21.0788 144.215 21.7083 144.215 22.4373C144.215 23.1663 144.041 23.7958 143.691 24.326C143.342 24.8467 142.843 25.249 142.193 25.533C141.553 25.8076 140.782 25.9449 139.88 25.9449H136.738L137.581 25.107V28.8418H135.69ZM142.353 28.8418L139.778 25.2348H141.8L144.39 28.8418H142.353ZM137.581 25.3058L136.738 24.4254H139.793C140.627 24.4254 141.252 24.2503 141.669 23.9C142.096 23.5497 142.309 23.0621 142.309 22.4373C142.309 21.803 142.096 21.3155 141.669 20.9746C141.252 20.6338 140.627 20.4634 139.793 20.4634H136.738L137.581 19.5546V25.3058Z" fill="#483332"/>
<path d="M149.342 28.8418L144.891 18.9014H146.942L150.914 27.8904H149.735L153.75 18.9014H155.641L151.204 28.8418H149.342Z" fill="#483332"/>
<path d="M156.716 28.8418V18.9014H158.607V28.8418H156.716Z" fill="#483332"/>
<path d="M163.093 23.474H168.17V25.036H163.093V23.474ZM163.253 28.8418H161.362V18.9014H168.795V20.4492H163.253V28.8418Z" fill="#483332"/>
<path d="M173.127 28.8418V24.9082L173.548 26.0443L169.126 18.9014H171.148L174.698 24.6526H173.563L177.142 18.9014H179.004L174.581 26.0443L175.018 24.9082V28.8418H173.127Z" fill="#483332"/>
<path d="M184.263 31.5967V18.3049H185.936V31.5967H184.263Z" fill="#483332"/>
<path d="M191.247 28.8418L195.83 18.9014H197.692L202.289 28.8418H200.31L196.368 19.8812H197.124L193.196 28.8418H191.247ZM193.356 26.5413L193.866 25.0928H199.365L199.874 26.5413H193.356Z" fill="#483332"/>
<path d="M203.409 28.8418V18.3049H205.228V28.8418H203.409Z" fill="#483332"/>
<path d="M207.614 28.8418V18.3049H209.433V28.8418H207.614Z" fill="#483332"/>
<path d="M215.84 28.8418V21.2587H217.571V23.3461L217.367 22.7355C217.6 22.2243 217.964 21.8361 218.459 21.5711C218.963 21.306 219.588 21.1735 220.335 21.1735V22.8633C220.258 22.8444 220.185 22.8349 220.117 22.8349C220.049 22.8255 219.981 22.8207 219.913 22.8207C219.225 22.8207 218.677 23.0195 218.269 23.4172C217.862 23.8053 217.658 24.3875 217.658 25.1638V28.8418H215.84Z" fill="#483332"/>
<path d="M221.878 28.8418V21.2587H223.696V28.8418H221.878ZM222.794 20.009C222.455 20.009 222.174 19.9049 221.951 19.6966C221.737 19.4883 221.63 19.2374 221.63 18.944C221.63 18.641 221.737 18.3901 221.951 18.1913C222.174 17.983 222.455 17.8789 222.794 17.8789C223.134 17.8789 223.41 17.9783 223.623 18.1771C223.847 18.3665 223.958 18.6079 223.958 18.9014C223.958 19.2138 223.851 19.4788 223.638 19.6966C223.425 19.9049 223.143 20.009 222.794 20.009Z" fill="#483332"/>
<path d="M229.603 31.6961C228.886 31.6961 228.183 31.6014 227.494 31.4121C226.815 31.2322 226.258 30.9672 225.821 30.6169L226.636 29.282C226.975 29.5566 227.402 29.7743 227.916 29.9352C228.44 30.1056 228.968 30.1909 229.502 30.1909C230.355 30.1909 230.981 29.9968 231.378 29.6086C231.776 29.2299 231.975 28.6572 231.975 27.8904V26.5413L232.12 24.823L232.062 23.1047V21.2587H233.793V27.6915C233.793 29.0643 233.434 30.0725 232.717 30.7163C231.999 31.3695 230.961 31.6961 229.603 31.6961ZM229.371 28.501C228.634 28.501 227.964 28.3495 227.363 28.0466C226.772 27.7341 226.301 27.3034 225.952 26.7543C225.613 26.2052 225.443 25.5614 225.443 24.823C225.443 24.094 225.613 23.455 225.952 22.9059C226.301 22.3568 226.772 21.9308 227.363 21.6279C227.964 21.3249 228.634 21.1735 229.371 21.1735C230.03 21.1735 230.622 21.3013 231.146 21.5569C231.669 21.8125 232.086 22.2101 232.397 22.7497C232.717 23.2893 232.877 23.9804 232.877 24.823C232.877 25.6656 232.717 26.3614 232.397 26.9105C232.086 27.4501 231.669 27.8525 231.146 28.1176C230.622 28.3732 230.03 28.501 229.371 28.501ZM229.647 26.9957C230.103 26.9957 230.51 26.9058 230.869 26.7259C231.228 26.5366 231.504 26.2809 231.698 25.9591C231.902 25.6277 232.004 25.249 232.004 24.823C232.004 24.397 231.902 24.023 231.698 23.7012C231.504 23.3698 231.228 23.1189 230.869 22.9485C230.51 22.7687 230.103 22.6787 229.647 22.6787C229.191 22.6787 228.779 22.7687 228.411 22.9485C228.052 23.1189 227.77 23.3698 227.567 23.7012C227.373 24.023 227.276 24.397 227.276 24.823C227.276 25.249 227.373 25.6277 227.567 25.9591C227.77 26.2809 228.052 26.5366 228.411 26.7259C228.779 26.9058 229.191 26.9957 229.647 26.9957Z" fill="#483332"/>
<path d="M240.592 21.1735C241.212 21.1735 241.765 21.2918 242.25 21.5285C242.745 21.7651 243.133 22.1296 243.414 22.6219C243.695 23.1047 243.836 23.7296 243.836 24.4964V28.8418H242.017V24.7236C242.017 24.0514 241.853 23.5497 241.523 23.2183C241.203 22.887 240.752 22.7213 240.17 22.7213C239.743 22.7213 239.365 22.8065 239.035 22.9769C238.705 23.1473 238.448 23.403 238.264 23.7438C238.09 24.0751 238.002 24.4964 238.002 25.0076V28.8418H236.184V18.3049H238.002V23.3035L237.61 22.6787C237.881 22.1959 238.274 21.8267 238.788 21.5711C239.312 21.306 239.913 21.1735 240.592 21.1735Z" fill="#483332"/>
<path d="M249.067 28.9412C248.213 28.9412 247.554 28.7282 247.088 28.3022C246.623 27.8667 246.39 27.2277 246.39 26.3851V19.583H248.208V26.3425C248.208 26.7022 248.301 26.9815 248.485 27.1803C248.679 27.3791 248.946 27.4785 249.285 27.4785C249.692 27.4785 250.032 27.3744 250.303 27.1661L250.812 28.43C250.599 28.6004 250.337 28.7282 250.027 28.8134C249.717 28.8986 249.397 28.9412 249.067 28.9412ZM245.11 22.7355V21.3155H250.289V22.7355H245.11Z" fill="#483332"/>
<path d="M254.709 28.9412C254.059 28.9412 253.433 28.8607 252.832 28.6998C252.24 28.5294 251.77 28.3258 251.421 28.0892L252.119 26.7401C252.468 26.9578 252.885 27.1377 253.37 27.2797C253.855 27.4217 254.34 27.4927 254.825 27.4927C255.397 27.4927 255.81 27.417 256.062 27.2655C256.324 27.114 256.454 26.9105 256.454 26.6549C256.454 26.4466 256.367 26.2904 256.193 26.1863C256.018 26.0727 255.79 25.9875 255.509 25.9307C255.228 25.8739 254.912 25.8218 254.563 25.7745C254.224 25.7271 253.88 25.6656 253.53 25.5898C253.191 25.5046 252.881 25.3863 252.599 25.2348C252.318 25.0739 252.09 24.8609 251.916 24.5958C251.741 24.3307 251.654 23.9804 251.654 23.545C251.654 23.0621 251.794 22.6456 252.076 22.2953C252.357 21.9356 252.75 21.661 253.254 21.4717C253.768 21.2729 254.374 21.1735 255.072 21.1735C255.596 21.1735 256.125 21.2303 256.658 21.3439C257.192 21.4575 257.633 21.6184 257.982 21.8267L257.284 23.1757C256.915 22.958 256.542 22.8113 256.163 22.7355C255.795 22.6503 255.426 22.6077 255.058 22.6077C254.505 22.6077 254.093 22.6882 253.821 22.8491C253.559 23.0101 253.429 23.2136 253.429 23.4598C253.429 23.687 253.516 23.8574 253.69 23.971C253.865 24.0846 254.093 24.1745 254.374 24.2408C254.655 24.3071 254.966 24.3639 255.305 24.4112C255.654 24.4491 255.999 24.5106 256.338 24.5958C256.678 24.681 256.988 24.7993 257.269 24.9508C257.56 25.0928 257.793 25.2964 257.967 25.5614C258.142 25.8265 258.229 26.1721 258.229 26.5981C258.229 27.0714 258.084 27.4833 257.793 27.8335C257.512 28.1838 257.109 28.4584 256.585 28.6572C256.062 28.8465 255.436 28.9412 254.709 28.9412Z" fill="#483332"/>
<path d="M263.816 28.8418V21.2587H265.547V23.3461L265.343 22.7355C265.576 22.2243 265.94 21.8361 266.434 21.5711C266.939 21.306 267.564 21.1735 268.311 21.1735V22.8633C268.233 22.8444 268.161 22.8349 268.093 22.8349C268.025 22.8255 267.957 22.8207 267.889 22.8207C267.2 22.8207 266.653 23.0195 266.245 23.4172C265.838 23.8053 265.634 24.3875 265.634 25.1638V28.8418H263.816Z" fill="#483332"/>
<path d="M273.434 28.9412C272.571 28.9412 271.814 28.7755 271.165 28.4442C270.524 28.1034 270.025 27.6395 269.666 27.0525C269.317 26.4656 269.142 25.7981 269.142 25.0502C269.142 24.2929 269.312 23.6254 269.652 23.0479C270.001 22.461 270.476 22.0018 271.077 21.6705C271.688 21.3391 272.382 21.1735 273.158 21.1735C273.914 21.1735 274.588 21.3344 275.18 21.6563C275.771 21.9782 276.237 22.4326 276.576 23.0195C276.916 23.6065 277.085 24.2976 277.085 25.0928C277.085 25.1686 277.081 25.2538 277.071 25.3484C277.071 25.4431 277.066 25.533 277.056 25.6182H270.583V24.4396H276.096L275.383 24.8088C275.393 24.3733 275.301 23.9899 275.107 23.6586C274.913 23.3272 274.646 23.0669 274.307 22.8775C273.977 22.6882 273.594 22.5935 273.158 22.5935C272.711 22.5935 272.319 22.6882 271.979 22.8775C271.649 23.0669 271.388 23.3319 271.194 23.6728C271.009 24.0041 270.917 24.397 270.917 24.8514V25.1354C270.917 25.5898 271.024 25.9922 271.237 26.3425C271.451 26.6928 271.751 26.9626 272.139 27.1519C272.527 27.3413 272.973 27.4359 273.478 27.4359C273.914 27.4359 274.307 27.3697 274.656 27.2371C275.005 27.1046 275.315 26.8963 275.587 26.6123L276.562 27.7057C276.213 28.1034 275.771 28.411 275.238 28.6288C274.714 28.8371 274.113 28.9412 273.434 28.9412Z" fill="#483332"/>
<path d="M281.232 28.9412C280.583 28.9412 279.957 28.8607 279.356 28.6998C278.764 28.5294 278.294 28.3258 277.945 28.0892L278.643 26.7401C278.992 26.9578 279.409 27.1377 279.894 27.2797C280.379 27.4217 280.864 27.4927 281.349 27.4927C281.921 27.4927 282.333 27.417 282.585 27.2655C282.847 27.114 282.978 26.9105 282.978 26.6549C282.978 26.4466 282.891 26.2904 282.716 26.1863C282.542 26.0727 282.314 25.9875 282.033 25.9307C281.751 25.8739 281.436 25.8218 281.087 25.7745C280.748 25.7271 280.403 25.6656 280.054 25.5898C279.715 25.5046 279.404 25.3863 279.123 25.2348C278.842 25.0739 278.614 24.8609 278.439 24.5958C278.265 24.3307 278.178 23.9804 278.178 23.545C278.178 23.0621 278.318 22.6456 278.599 22.2953C278.881 21.9356 279.273 21.661 279.778 21.4717C280.292 21.2729 280.898 21.1735 281.596 21.1735C282.12 21.1735 282.648 21.2303 283.182 21.3439C283.715 21.4575 284.157 21.6184 284.506 21.8267L283.807 23.1757C283.439 22.958 283.065 22.8113 282.687 22.7355C282.319 22.6503 281.95 22.6077 281.582 22.6077C281.029 22.6077 280.617 22.6882 280.345 22.8491C280.083 23.0101 279.952 23.2136 279.952 23.4598C279.952 23.687 280.04 23.8574 280.214 23.971C280.389 24.0846 280.617 24.1745 280.898 24.2408C281.179 24.3071 281.49 24.3639 281.829 24.4112C282.178 24.4491 282.522 24.5106 282.862 24.5958C283.201 24.681 283.512 24.7993 283.793 24.9508C284.084 25.0928 284.317 25.2964 284.491 25.5614C284.666 25.8265 284.753 26.1721 284.753 26.5981C284.753 27.0714 284.608 27.4833 284.317 27.8335C284.035 28.1838 283.633 28.4584 283.109 28.6572C282.585 28.8465 281.96 28.9412 281.232 28.9412Z" fill="#483332"/>
<path d="M289.97 28.9412C289.107 28.9412 288.351 28.7755 287.701 28.4442C287.061 28.1034 286.561 27.6395 286.203 27.0525C285.854 26.4656 285.679 25.7981 285.679 25.0502C285.679 24.2929 285.849 23.6254 286.188 23.0479C286.537 22.461 287.012 22.0018 287.614 21.6705C288.225 21.3391 288.918 21.1735 289.694 21.1735C290.451 21.1735 291.125 21.3344 291.716 21.6563C292.308 21.9782 292.773 22.4326 293.113 23.0195C293.452 23.6065 293.622 24.2976 293.622 25.0928C293.622 25.1686 293.617 25.2538 293.607 25.3484C293.607 25.4431 293.603 25.533 293.593 25.6182H287.119V24.4396H292.633L291.92 24.8088C291.93 24.3733 291.837 23.9899 291.643 23.6586C291.449 23.3272 291.183 23.0669 290.843 22.8775C290.514 22.6882 290.13 22.5935 289.694 22.5935C289.248 22.5935 288.855 22.6882 288.516 22.8775C288.186 23.0669 287.924 23.3319 287.73 23.6728C287.546 24.0041 287.454 24.397 287.454 24.8514V25.1354C287.454 25.5898 287.56 25.9922 287.774 26.3425C287.987 26.6928 288.288 26.9626 288.676 27.1519C289.064 27.3413 289.51 27.4359 290.014 27.4359C290.451 27.4359 290.843 27.3697 291.192 27.2371C291.542 27.1046 291.852 26.8963 292.124 26.6123L293.098 27.7057C292.749 28.1034 292.308 28.411 291.774 28.6288C291.251 28.8371 290.649 28.9412 289.97 28.9412Z" fill="#483332"/>
<path d="M295.369 28.8418V21.2587H297.1V23.3461L296.896 22.7355C297.129 22.2243 297.493 21.8361 297.987 21.5711C298.492 21.306 299.117 21.1735 299.864 21.1735V22.8633C299.786 22.8444 299.714 22.8349 299.646 22.8349C299.578 22.8255 299.51 22.8207 299.442 22.8207C298.753 22.8207 298.205 23.0195 297.798 23.4172C297.391 23.8053 297.187 24.3875 297.187 25.1638V28.8418H295.369Z" fill="#483332"/>
<path d="M303.756 28.8418L300.425 21.2587H302.316L305.182 27.9472H304.251L307.219 21.2587H308.964L305.633 28.8418H303.756Z" fill="#483332"/>
<path d="M313.539 28.9412C312.676 28.9412 311.92 28.7755 311.27 28.4442C310.63 28.1034 310.13 27.6395 309.771 27.0525C309.422 26.4656 309.248 25.7981 309.248 25.0502C309.248 24.2929 309.417 23.6254 309.757 23.0479C310.106 22.461 310.581 22.0018 311.183 21.6705C311.794 21.3391 312.487 21.1735 313.263 21.1735C314.019 21.1735 314.693 21.3344 315.285 21.6563C315.877 21.9782 316.342 22.4326 316.682 23.0195C317.021 23.6065 317.191 24.2976 317.191 25.0928C317.191 25.1686 317.186 25.2538 317.176 25.3484C317.176 25.4431 317.171 25.533 317.162 25.6182H310.688V24.4396H316.201L315.489 24.8088C315.498 24.3733 315.406 23.9899 315.212 23.6586C315.018 23.3272 314.752 23.0669 314.412 22.8775C314.082 22.6882 313.699 22.5935 313.263 22.5935C312.817 22.5935 312.424 22.6882 312.085 22.8775C311.755 23.0669 311.493 23.3319 311.299 23.6728C311.115 24.0041 311.023 24.397 311.023 24.8514V25.1354C311.023 25.5898 311.129 25.9922 311.343 26.3425C311.556 26.6928 311.857 26.9626 312.245 27.1519C312.632 27.3413 313.079 27.4359 313.583 27.4359C314.019 27.4359 314.412 27.3697 314.761 27.2371C315.11 27.1046 315.421 26.8963 315.692 26.6123L316.667 27.7057C316.318 28.1034 315.877 28.411 315.343 28.6288C314.819 28.8371 314.218 28.9412 313.539 28.9412Z" fill="#483332"/>
<path d="M322.225 28.9412C321.478 28.9412 320.804 28.7803 320.203 28.4584C319.611 28.127 319.146 27.6726 318.807 27.0951C318.467 26.5176 318.297 25.836 318.297 25.0502C318.297 24.2645 318.467 23.5828 318.807 23.0053C319.146 22.4278 319.611 21.9782 320.203 21.6563C320.804 21.3344 321.478 21.1735 322.225 21.1735C322.875 21.1735 323.457 21.3155 323.971 21.5995C324.485 21.874 324.892 22.2953 325.193 22.8633C325.494 23.4314 325.644 24.1603 325.644 25.0502C325.644 25.9307 325.498 26.6596 325.207 27.2371C324.917 27.8051 324.514 28.2312 324 28.5152C323.486 28.7992 322.894 28.9412 322.225 28.9412ZM322.443 27.4217C322.88 27.4217 323.268 27.3271 323.607 27.1377C323.956 26.9484 324.233 26.6738 324.436 26.3141C324.65 25.9543 324.756 25.533 324.756 25.0502C324.756 24.5579 324.65 24.1367 324.436 23.7864C324.233 23.4266 323.956 23.1521 323.607 22.9627C323.268 22.7734 322.88 22.6787 322.443 22.6787C322.007 22.6787 321.614 22.7734 321.265 22.9627C320.926 23.1521 320.649 23.4266 320.436 23.7864C320.232 24.1367 320.13 24.5579 320.13 25.0502C320.13 25.533 320.232 25.9543 320.436 26.3141C320.649 26.6738 320.926 26.9484 321.265 27.1377C321.614 27.3271 322.007 27.4217 322.443 27.4217ZM324.8 28.8418V27.0525L324.873 25.036L324.727 23.0195V18.3049H326.531V28.8418H324.8Z" fill="#483332"/>
<path fill-rule="evenodd" clip-rule="evenodd" d="M1242 1.01547H0V0.12793H1242V1.01547Z" fill="#E0E2E6"/>
</svg>
