<svg width="369" height="31" viewBox="0 0 369 31" fill="none" xmlns="http://www.w3.org/2000/svg">
<path d="M15.4916 30.2398C13.3849 30.2398 11.4382 29.8932 9.65156 29.1998C7.8649 28.4798 6.31823 27.4798 5.01156 26.1998C3.7049 24.9198 2.67823 23.4132 1.93156 21.6798C1.21156 19.9465 0.851562 18.0532 0.851562 15.9998C0.851562 13.9465 1.21156 12.0532 1.93156 10.3198C2.67823 8.58649 3.7049 7.07982 5.01156 5.79983C6.3449 4.51982 7.9049 3.53316 9.69156 2.83983C11.4782 2.11983 13.4249 1.75982 15.5316 1.75982C17.5582 1.75982 19.4649 2.10649 21.2516 2.79983C23.0382 3.46649 24.5449 4.47982 25.7716 5.83982L23.8916 7.71982C22.7449 6.54649 21.4782 5.70649 20.0916 5.19983C18.7049 4.66649 17.2116 4.39982 15.6116 4.39982C13.9316 4.39982 12.3716 4.69316 10.9316 5.27983C9.49156 5.83983 8.23823 6.65316 7.17156 7.71982C6.1049 8.75982 5.2649 9.98649 4.65156 11.3998C4.0649 12.7865 3.77156 14.3198 3.77156 15.9998C3.77156 17.6798 4.0649 19.2265 4.65156 20.6398C5.2649 22.0265 6.1049 23.2532 7.17156 24.3198C8.23823 25.3598 9.49156 26.1732 10.9316 26.7598C12.3716 27.3198 13.9316 27.5998 15.6116 27.5998C17.2116 27.5998 18.7049 27.3332 20.0916 26.7998C21.4782 26.2665 22.7449 25.4132 23.8916 24.2398L25.7716 26.1198C24.5449 27.4798 23.0382 28.5065 21.2516 29.1998C19.4649 29.8932 17.5449 30.2398 15.4916 30.2398Z" fill="black"/>
<path d="M34.2816 29.9998V8.99982H37.0016V14.7198L36.7216 13.7198C37.3082 12.1198 38.2949 10.9065 39.6816 10.0798C41.0682 9.22649 42.7882 8.79983 44.8416 8.79983V11.5598C44.7349 11.5598 44.6282 11.5598 44.5216 11.5598C44.4149 11.5332 44.3082 11.5198 44.2016 11.5198C41.9882 11.5198 40.2549 12.1998 39.0016 13.5598C37.7482 14.8932 37.1216 16.7998 37.1216 19.2798V29.9998H34.2816Z" fill="black"/>
<path d="M61.5484 30.1998C59.3618 30.1998 57.4418 29.7465 55.7884 28.8398C54.1351 27.9065 52.8418 26.6398 51.9084 25.0398C50.9751 23.4132 50.5084 21.5598 50.5084 19.4798C50.5084 17.3998 50.9484 15.5598 51.8284 13.9598C52.7351 12.3598 53.9618 11.1065 55.5084 10.1998C57.0818 9.26649 58.8418 8.79983 60.7884 8.79983C62.7618 8.79983 64.5084 9.25316 66.0284 10.1598C67.5751 11.0398 68.7884 12.2932 69.6684 13.9198C70.5484 15.5198 70.9884 17.3732 70.9884 19.4798C70.9884 19.6132 70.9751 19.7598 70.9484 19.9198C70.9484 20.0532 70.9484 20.1998 70.9484 20.3598H52.6684V18.2398H69.4284L68.3084 19.0798C68.3084 17.5598 67.9751 16.2132 67.3084 15.0398C66.6684 13.8398 65.7884 12.9065 64.6684 12.2398C63.5484 11.5732 62.2551 11.2398 60.7884 11.2398C59.3484 11.2398 58.0551 11.5732 56.9084 12.2398C55.7618 12.9065 54.8684 13.8398 54.2284 15.0398C53.5884 16.2398 53.2684 17.6132 53.2684 19.1598V19.5998C53.2684 21.1998 53.6151 22.6132 54.3084 23.8398C55.0284 25.0398 56.0151 25.9865 57.2684 26.6798C58.5484 27.3465 60.0018 27.6798 61.6284 27.6798C62.9084 27.6798 64.0951 27.4532 65.1884 26.9998C66.3084 26.5465 67.2684 25.8532 68.0684 24.9198L69.6684 26.7598C68.7351 27.8798 67.5618 28.7332 66.1484 29.3198C64.7618 29.9065 63.2284 30.1998 61.5484 30.1998Z" fill="black"/>
<path d="M92.1431 29.9998V25.3598L92.0231 24.5998V16.8398C92.0231 15.0532 91.5165 13.6798 90.5031 12.7198C89.5165 11.7598 88.0365 11.2798 86.0631 11.2798C84.7031 11.2798 83.4098 11.5065 82.1831 11.9598C80.9565 12.4132 79.9165 13.0132 79.0631 13.7598L77.7831 11.6398C78.8498 10.7332 80.1298 10.0398 81.6231 9.55982C83.1165 9.05316 84.6898 8.79983 86.3431 8.79983C89.0631 8.79983 91.1565 9.47983 92.6231 10.8398C94.1165 12.1732 94.8631 14.2132 94.8631 16.9598V29.9998H92.1431ZM84.9031 30.1998C83.3298 30.1998 81.9565 29.9465 80.7831 29.4398C79.6365 28.9065 78.7565 28.1865 78.1431 27.2798C77.5298 26.3465 77.2231 25.2798 77.2231 24.0798C77.2231 22.9865 77.4765 21.9998 77.9831 21.1198C78.5165 20.2132 79.3698 19.4932 80.5431 18.9598C81.7431 18.3998 83.3431 18.1198 85.3431 18.1198H92.5831V20.2398H85.4231C83.3965 20.2398 81.9831 20.5998 81.1831 21.3198C80.4098 22.0398 80.0231 22.9332 80.0231 23.9998C80.0231 25.1998 80.4898 26.1598 81.4231 26.8798C82.3565 27.5998 83.6631 27.9598 85.3431 27.9598C86.9431 27.9598 88.3165 27.5998 89.4631 26.8798C90.6365 26.1332 91.4898 25.0665 92.0231 23.6798L92.6631 25.6398C92.1298 27.0265 91.1965 28.1332 89.8631 28.9598C88.5565 29.7865 86.9031 30.1998 84.9031 30.1998Z" fill="black"/>
<path d="M112.017 30.1998C110.044 30.1998 108.524 29.6665 107.457 28.5998C106.39 27.5332 105.857 26.0265 105.857 24.0798V4.35983H108.697V23.9198C108.697 25.1465 109.004 26.0932 109.617 26.7598C110.257 27.4265 111.164 27.7598 112.337 27.7598C113.59 27.7598 114.63 27.3998 115.457 26.6798L116.457 28.7198C115.897 29.2265 115.217 29.5998 114.417 29.8398C113.644 30.0798 112.844 30.1998 112.017 30.1998ZM102.097 11.3598V8.99982H115.097V11.3598H102.097Z" fill="black"/>
<path d="M132.605 30.1998C130.418 30.1998 128.498 29.7465 126.845 28.8398C125.191 27.9065 123.898 26.6398 122.965 25.0398C122.031 23.4132 121.565 21.5598 121.565 19.4798C121.565 17.3998 122.005 15.5598 122.885 13.9598C123.791 12.3598 125.018 11.1065 126.565 10.1998C128.138 9.26649 129.898 8.79983 131.845 8.79983C133.818 8.79983 135.565 9.25316 137.085 10.1598C138.631 11.0398 139.845 12.2932 140.725 13.9198C141.605 15.5198 142.045 17.3732 142.045 19.4798C142.045 19.6132 142.031 19.7598 142.005 19.9198C142.005 20.0532 142.005 20.1998 142.005 20.3598H123.725V18.2398H140.485L139.365 19.0798C139.365 17.5598 139.031 16.2132 138.365 15.0398C137.725 13.8398 136.845 12.9065 135.725 12.2398C134.605 11.5732 133.311 11.2398 131.845 11.2398C130.405 11.2398 129.111 11.5732 127.965 12.2398C126.818 12.9065 125.925 13.8398 125.285 15.0398C124.645 16.2398 124.325 17.6132 124.325 19.1598V19.5998C124.325 21.1998 124.671 22.6132 125.365 23.8398C126.085 25.0398 127.071 25.9865 128.325 26.6798C129.605 27.3465 131.058 27.6798 132.685 27.6798C133.965 27.6798 135.151 27.4532 136.245 26.9998C137.365 26.5465 138.325 25.8532 139.125 24.9198L140.725 26.7598C139.791 27.8798 138.618 28.7332 137.205 29.3198C135.818 29.9065 134.285 30.1998 132.605 30.1998Z" fill="black"/>
<path d="M164.494 29.9998V1.99982H174.974C177.347 1.99982 179.387 2.38649 181.094 3.15983C182.801 3.90649 184.107 4.99983 185.014 6.43983C185.947 7.85316 186.414 9.57316 186.414 11.5998C186.414 13.5732 185.947 15.2798 185.014 16.7198C184.107 18.1332 182.801 19.2265 181.094 19.9998C179.387 20.7732 177.347 21.1598 174.974 21.1598H166.134L167.454 19.7598V29.9998H164.494ZM167.454 19.9998L166.134 18.5598H174.894C177.694 18.5598 179.814 17.9598 181.254 16.7598C182.721 15.5332 183.454 13.8132 183.454 11.5998C183.454 9.35983 182.721 7.62649 181.254 6.39983C179.814 5.17316 177.694 4.55982 174.894 4.55982H166.134L167.454 3.15983V19.9998Z" fill="black"/>
<path d="M207.979 29.9998V25.3598L207.859 24.5998V16.8398C207.859 15.0532 207.352 13.6798 206.339 12.7198C205.352 11.7598 203.872 11.2798 201.899 11.2798C200.539 11.2798 199.246 11.5065 198.019 11.9598C196.792 12.4132 195.752 13.0132 194.899 13.7598L193.619 11.6398C194.686 10.7332 195.966 10.0398 197.459 9.55982C198.952 9.05316 200.526 8.79983 202.179 8.79983C204.899 8.79983 206.992 9.47983 208.459 10.8398C209.952 12.1732 210.699 14.2132 210.699 16.9598V29.9998H207.979ZM200.739 30.1998C199.166 30.1998 197.792 29.9465 196.619 29.4398C195.472 28.9065 194.592 28.1865 193.979 27.2798C193.366 26.3465 193.059 25.2798 193.059 24.0798C193.059 22.9865 193.312 21.9998 193.819 21.1198C194.352 20.2132 195.206 19.4932 196.379 18.9598C197.579 18.3998 199.179 18.1198 201.179 18.1198H208.419V20.2398H201.259C199.232 20.2398 197.819 20.5998 197.019 21.3198C196.246 22.0398 195.859 22.9332 195.859 23.9998C195.859 25.1998 196.326 26.1598 197.259 26.8798C198.192 27.5998 199.499 27.9598 201.179 27.9598C202.779 27.9598 204.152 27.5998 205.299 26.8798C206.472 26.1332 207.326 25.0665 207.859 23.6798L208.499 25.6398C207.966 27.0265 207.032 28.1332 205.699 28.9598C204.392 29.7865 202.739 30.1998 200.739 30.1998Z" fill="black"/>
<path d="M226.853 30.1998C225.119 30.1998 223.479 29.9598 221.933 29.4798C220.386 28.9732 219.173 28.3465 218.293 27.5998L219.573 25.3598C220.426 25.9998 221.519 26.5598 222.853 27.0398C224.186 27.4932 225.586 27.7198 227.053 27.7198C229.053 27.7198 230.493 27.4132 231.373 26.7998C232.253 26.1598 232.693 25.3198 232.693 24.2798C232.693 23.5065 232.439 22.9065 231.933 22.4798C231.453 22.0265 230.813 21.6932 230.013 21.4798C229.213 21.2398 228.319 21.0398 227.333 20.8798C226.346 20.7198 225.359 20.5332 224.373 20.3198C223.413 20.1065 222.533 19.7998 221.733 19.3998C220.933 18.9732 220.279 18.3998 219.773 17.6798C219.293 16.9598 219.053 15.9998 219.053 14.7998C219.053 13.6532 219.373 12.6265 220.013 11.7198C220.653 10.8132 221.586 10.1065 222.813 9.59982C224.066 9.06649 225.586 8.79983 227.373 8.79983C228.733 8.79983 230.093 8.98649 231.453 9.35983C232.813 9.70649 233.933 10.1732 234.813 10.7598L233.573 13.0398C232.639 12.3998 231.639 11.9465 230.573 11.6798C229.506 11.3865 228.439 11.2398 227.373 11.2398C225.479 11.2398 224.079 11.5732 223.173 12.2398C222.293 12.8798 221.853 13.7065 221.853 14.7198C221.853 15.5198 222.093 16.1465 222.573 16.5998C223.079 17.0532 223.733 17.4132 224.533 17.6798C225.359 17.9198 226.253 18.1198 227.213 18.2798C228.199 18.4398 229.173 18.6398 230.133 18.8798C231.119 19.0932 232.013 19.3998 232.813 19.7998C233.639 20.1732 234.293 20.7198 234.773 21.4398C235.279 22.1332 235.533 23.0532 235.533 24.1998C235.533 25.4265 235.186 26.4932 234.493 27.3998C233.826 28.2798 232.839 28.9732 231.533 29.4798C230.253 29.9598 228.693 30.1998 226.853 30.1998Z" fill="black"/>
<path d="M249.184 30.1998C247.451 30.1998 245.811 29.9598 244.264 29.4798C242.717 28.9732 241.504 28.3465 240.624 27.5998L241.904 25.3598C242.757 25.9998 243.851 26.5598 245.184 27.0398C246.517 27.4932 247.917 27.7198 249.384 27.7198C251.384 27.7198 252.824 27.4132 253.704 26.7998C254.584 26.1598 255.024 25.3198 255.024 24.2798C255.024 23.5065 254.771 22.9065 254.264 22.4798C253.784 22.0265 253.144 21.6932 252.344 21.4798C251.544 21.2398 250.651 21.0398 249.664 20.8798C248.677 20.7198 247.691 20.5332 246.704 20.3198C245.744 20.1065 244.864 19.7998 244.064 19.3998C243.264 18.9732 242.611 18.3998 242.104 17.6798C241.624 16.9598 241.384 15.9998 241.384 14.7998C241.384 13.6532 241.704 12.6265 242.344 11.7198C242.984 10.8132 243.917 10.1065 245.144 9.59982C246.397 9.06649 247.917 8.79983 249.704 8.79983C251.064 8.79983 252.424 8.98649 253.784 9.35983C255.144 9.70649 256.264 10.1732 257.144 10.7598L255.904 13.0398C254.971 12.3998 253.971 11.9465 252.904 11.6798C251.837 11.3865 250.771 11.2398 249.704 11.2398C247.811 11.2398 246.411 11.5732 245.504 12.2398C244.624 12.8798 244.184 13.7065 244.184 14.7198C244.184 15.5198 244.424 16.1465 244.904 16.5998C245.411 17.0532 246.064 17.4132 246.864 17.6798C247.691 17.9198 248.584 18.1198 249.544 18.2798C250.531 18.4398 251.504 18.6398 252.464 18.8798C253.451 19.0932 254.344 19.3998 255.144 19.7998C255.971 20.1732 256.624 20.7198 257.104 21.4398C257.611 22.1332 257.864 23.0532 257.864 24.1998C257.864 25.4265 257.517 26.4932 256.824 27.3998C256.157 28.2798 255.171 28.9732 253.864 29.4798C252.584 29.9598 251.024 30.1998 249.184 30.1998Z" fill="black"/>
<path d="M269.765 29.9998L261.845 8.99982H264.565L271.765 28.4798H270.525L277.925 8.99982H280.365L287.685 28.4798H286.445L293.765 8.99982H296.365L288.405 29.9998H285.725L278.685 11.6798H279.525L272.445 29.9998H269.765Z" fill="black"/>
<path d="M311.415 30.1998C309.388 30.1998 307.562 29.7465 305.935 28.8398C304.335 27.9065 303.068 26.6398 302.135 25.0398C301.202 23.4132 300.735 21.5598 300.735 19.4798C300.735 17.3732 301.202 15.5198 302.135 13.9198C303.068 12.3198 304.335 11.0665 305.935 10.1598C307.535 9.25316 309.362 8.79983 311.415 8.79983C313.495 8.79983 315.335 9.25316 316.935 10.1598C318.562 11.0665 319.828 12.3198 320.735 13.9198C321.668 15.5198 322.135 17.3732 322.135 19.4798C322.135 21.5598 321.668 23.4132 320.735 25.0398C319.828 26.6398 318.562 27.9065 316.935 28.8398C315.308 29.7465 313.468 30.1998 311.415 30.1998ZM311.415 27.6798C312.935 27.6798 314.282 27.3465 315.455 26.6798C316.628 25.9865 317.548 25.0265 318.215 23.7998C318.908 22.5465 319.255 21.1065 319.255 19.4798C319.255 17.8265 318.908 16.3865 318.215 15.1598C317.548 13.9332 316.628 12.9865 315.455 12.3198C314.282 11.6265 312.948 11.2798 311.455 11.2798C309.962 11.2798 308.628 11.6265 307.455 12.3198C306.282 12.9865 305.348 13.9332 304.655 15.1598C303.962 16.3865 303.615 17.8265 303.615 19.4798C303.615 21.1065 303.962 22.5465 304.655 23.7998C305.348 25.0265 306.282 25.9865 307.455 26.6798C308.628 27.3465 309.948 27.6798 311.415 27.6798Z" fill="black"/>
<path d="M330.733 29.9998V8.99982H333.453V14.7198L333.173 13.7198C333.76 12.1198 334.746 10.9065 336.133 10.0798C337.52 9.22649 339.24 8.79983 341.293 8.79983V11.5598C341.186 11.5598 341.08 11.5598 340.973 11.5598C340.866 11.5332 340.76 11.5198 340.653 11.5198C338.44 11.5198 336.706 12.1998 335.453 13.5598C334.2 14.8932 333.573 16.7998 333.573 19.2798V29.9998H330.733Z" fill="black"/>
<path d="M357.44 30.1998C355.44 30.1998 353.64 29.7465 352.04 28.8398C350.467 27.9332 349.227 26.6798 348.32 25.0798C347.413 23.4532 346.96 21.5865 346.96 19.4798C346.96 17.3465 347.413 15.4798 348.32 13.8798C349.227 12.2798 350.467 11.0398 352.04 10.1598C353.64 9.25316 355.44 8.79983 357.44 8.79983C359.28 8.79983 360.92 9.21316 362.36 10.0398C363.827 10.8665 364.987 12.0798 365.84 13.6798C366.72 15.2532 367.16 17.1865 367.16 19.4798C367.16 21.7465 366.733 23.6798 365.88 25.2798C365.027 26.8798 363.867 28.1065 362.4 28.9598C360.96 29.7865 359.307 30.1998 357.44 30.1998ZM357.64 27.6798C359.133 27.6798 360.467 27.3465 361.64 26.6798C362.84 25.9865 363.773 25.0265 364.44 23.7998C365.133 22.5465 365.48 21.1065 365.48 19.4798C365.48 17.8265 365.133 16.3865 364.44 15.1598C363.773 13.9332 362.84 12.9865 361.64 12.3198C360.467 11.6265 359.133 11.2798 357.64 11.2798C356.173 11.2798 354.853 11.6265 353.68 12.3198C352.507 12.9865 351.573 13.9332 350.88 15.1598C350.187 16.3865 349.84 17.8265 349.84 19.4798C349.84 21.1065 350.187 22.5465 350.88 23.7998C351.573 25.0265 352.507 25.9865 353.68 26.6798C354.853 27.3465 356.173 27.6798 357.64 27.6798ZM365.56 29.9998V23.6798L365.84 19.4398L365.44 15.1998V0.319824H368.28V29.9998H365.56Z" fill="black"/>
</svg>
