<svg width="386" height="30" viewBox="0 0 386 30" fill="none" xmlns="http://www.w3.org/2000/svg">
<path d="M14.6986 29.2398C12.5919 29.2398 10.6453 28.8931 8.85859 28.1998C7.07193 27.4798 5.52526 26.4798 4.21859 25.1998C2.91193 23.9198 1.88526 22.4131 1.13859 20.6798C0.418594 18.9464 0.0585938 17.0531 0.0585938 14.9998C0.0585938 12.9464 0.418594 11.0531 1.13859 9.31977C1.88526 7.58643 2.91193 6.07977 4.21859 4.79977C5.55193 3.51977 7.11193 2.5331 8.89859 1.83977C10.6853 1.11977 12.6319 0.759766 14.7386 0.759766C16.7653 0.759766 18.6719 1.10643 20.4586 1.79977C22.2453 2.46643 23.7519 3.47977 24.9786 4.83977L23.0986 6.71976C21.9519 5.54643 20.6853 4.70643 19.2986 4.19977C17.9119 3.66643 16.4186 3.39977 14.8186 3.39977C13.1386 3.39977 11.5786 3.6931 10.1386 4.27977C8.69859 4.83977 7.44526 5.6531 6.37859 6.71976C5.31193 7.75977 4.47193 8.98643 3.85859 10.3998C3.27193 11.7864 2.97859 13.3198 2.97859 14.9998C2.97859 16.6798 3.27193 18.2264 3.85859 19.6398C4.47193 21.0264 5.31193 22.2531 6.37859 23.3198C7.44526 24.3598 8.69859 25.1731 10.1386 25.7598C11.5786 26.3198 13.1386 26.5998 14.8186 26.5998C16.4186 26.5998 17.9119 26.3331 19.2986 25.7998C20.6853 25.2664 21.9519 24.4131 23.0986 23.2398L24.9786 25.1198C23.7519 26.4798 22.2453 27.5064 20.4586 28.1998C18.6719 28.8931 16.7519 29.2398 14.6986 29.2398Z" fill="black"/>
<path d="M33.4886 28.9998V7.99977H36.2086V13.7198L35.9286 12.7198C36.5153 11.1198 37.5019 9.90643 38.8886 9.07977C40.2753 8.22643 41.9953 7.79977 44.0486 7.79977V10.5598C43.9419 10.5598 43.8353 10.5598 43.7286 10.5598C43.6219 10.5331 43.5153 10.5198 43.4086 10.5198C41.1953 10.5198 39.4619 11.1998 38.2086 12.5598C36.9553 13.8931 36.3286 15.7998 36.3286 18.2798V28.9998H33.4886Z" fill="black"/>
<path d="M60.7555 29.1998C58.5688 29.1998 56.6488 28.7464 54.9955 27.8398C53.3421 26.9064 52.0488 25.6398 51.1155 24.0398C50.1821 22.4131 49.7155 20.5598 49.7155 18.4798C49.7155 16.3998 50.1555 14.5598 51.0355 12.9598C51.9421 11.3598 53.1688 10.1064 54.7155 9.19977C56.2888 8.26643 58.0488 7.79977 59.9955 7.79977C61.9688 7.79977 63.7155 8.2531 65.2355 9.15977C66.7821 10.0398 67.9955 11.2931 68.8755 12.9198C69.7555 14.5198 70.1955 16.3731 70.1955 18.4798C70.1955 18.6131 70.1821 18.7598 70.1555 18.9198C70.1555 19.0531 70.1555 19.1998 70.1555 19.3598H51.8755V17.2398H68.6355L67.5155 18.0798C67.5155 16.5598 67.1821 15.2131 66.5155 14.0398C65.8755 12.8398 64.9955 11.9064 63.8755 11.2398C62.7555 10.5731 61.4621 10.2398 59.9955 10.2398C58.5555 10.2398 57.2621 10.5731 56.1155 11.2398C54.9688 11.9064 54.0755 12.8398 53.4355 14.0398C52.7955 15.2398 52.4755 16.6131 52.4755 18.1598V18.5998C52.4755 20.1998 52.8221 21.6131 53.5155 22.8398C54.2355 24.0398 55.2221 24.9864 56.4755 25.6798C57.7555 26.3464 59.2088 26.6798 60.8355 26.6798C62.1155 26.6798 63.3021 26.4531 64.3955 25.9998C65.5155 25.5464 66.4755 24.8531 67.2755 23.9198L68.8755 25.7598C67.9421 26.8798 66.7688 27.7331 65.3555 28.3198C63.9688 28.9064 62.4355 29.1998 60.7555 29.1998Z" fill="black"/>
<path d="M91.3502 28.9998V24.3598L91.2302 23.5998V15.8398C91.2302 14.0531 90.7235 12.6798 89.7102 11.7198C88.7235 10.7598 87.2435 10.2798 85.2702 10.2798C83.9102 10.2798 82.6168 10.5064 81.3902 10.9598C80.1635 11.4131 79.1235 12.0131 78.2702 12.7598L76.9902 10.6398C78.0568 9.7331 79.3368 9.03977 80.8302 8.55976C82.3235 8.0531 83.8968 7.79977 85.5502 7.79977C88.2702 7.79977 90.3635 8.47977 91.8302 9.83977C93.3235 11.1731 94.0702 13.2131 94.0702 15.9598V28.9998H91.3502ZM84.1102 29.1998C82.5368 29.1998 81.1635 28.9464 79.9902 28.4398C78.8435 27.9064 77.9635 27.1864 77.3502 26.2798C76.7368 25.3464 76.4302 24.2798 76.4302 23.0798C76.4302 21.9864 76.6835 20.9998 77.1902 20.1198C77.7235 19.2131 78.5768 18.4931 79.7502 17.9598C80.9501 17.3998 82.5502 17.1198 84.5502 17.1198H91.7902V19.2398H84.6302C82.6035 19.2398 81.1902 19.5998 80.3902 20.3198C79.6168 21.0398 79.2302 21.9331 79.2302 22.9998C79.2302 24.1998 79.6968 25.1598 80.6302 25.8798C81.5635 26.5998 82.8702 26.9598 84.5502 26.9598C86.1502 26.9598 87.5235 26.5998 88.6702 25.8798C89.8435 25.1331 90.6968 24.0664 91.2302 22.6798L91.8702 24.6398C91.3368 26.0264 90.4035 27.1331 89.0702 27.9598C87.7635 28.7864 86.1102 29.1998 84.1102 29.1998Z" fill="black"/>
<path d="M111.224 29.1998C109.251 29.1998 107.731 28.6664 106.664 27.5998C105.597 26.5331 105.064 25.0264 105.064 23.0798V3.35977H107.904V22.9198C107.904 24.1464 108.211 25.0931 108.824 25.7598C109.464 26.4264 110.371 26.7598 111.544 26.7598C112.797 26.7598 113.837 26.3998 114.664 25.6798L115.664 27.7198C115.104 28.2264 114.424 28.5998 113.624 28.8398C112.851 29.0798 112.051 29.1998 111.224 29.1998ZM101.304 10.3598V7.99977H114.304V10.3598H101.304Z" fill="black"/>
<path d="M131.812 29.1998C129.625 29.1998 127.705 28.7464 126.052 27.8398C124.398 26.9064 123.105 25.6398 122.172 24.0398C121.238 22.4131 120.772 20.5598 120.772 18.4798C120.772 16.3998 121.212 14.5598 122.092 12.9598C122.998 11.3598 124.225 10.1064 125.772 9.19977C127.345 8.26643 129.105 7.79977 131.052 7.79977C133.025 7.79977 134.772 8.2531 136.292 9.15977C137.838 10.0398 139.052 11.2931 139.932 12.9198C140.812 14.5198 141.252 16.3731 141.252 18.4798C141.252 18.6131 141.238 18.7598 141.212 18.9198C141.212 19.0531 141.212 19.1998 141.212 19.3598H122.932V17.2398H139.692L138.572 18.0798C138.572 16.5598 138.238 15.2131 137.572 14.0398C136.932 12.8398 136.052 11.9064 134.932 11.2398C133.812 10.5731 132.518 10.2398 131.052 10.2398C129.612 10.2398 128.318 10.5731 127.172 11.2398C126.025 11.9064 125.132 12.8398 124.492 14.0398C123.852 15.2398 123.532 16.6131 123.532 18.1598V18.5998C123.532 20.1998 123.878 21.6131 124.572 22.8398C125.292 24.0398 126.278 24.9864 127.532 25.6798C128.812 26.3464 130.265 26.6798 131.892 26.6798C133.172 26.6798 134.358 26.4531 135.452 25.9998C136.572 25.5464 137.532 24.8531 138.332 23.9198L139.932 25.7598C138.998 26.8798 137.825 27.7331 136.412 28.3198C135.025 28.9064 133.492 29.1998 131.812 29.1998Z" fill="black"/>
<path d="M174.981 29.2398C171.408 29.2398 168.594 28.2131 166.541 26.1598C164.488 24.1064 163.461 21.0664 163.461 17.0398V0.999765H166.421V16.9198C166.421 20.2264 167.168 22.6664 168.661 24.2398C170.154 25.8131 172.261 26.5998 174.981 26.5998C177.728 26.5998 179.848 25.8131 181.341 24.2398C182.834 22.6664 183.581 20.2264 183.581 16.9198V0.999765H186.461V17.0398C186.461 21.0664 185.434 24.1064 183.381 26.1598C181.354 28.2131 178.554 29.2398 174.981 29.2398Z" fill="black"/>
<path d="M203.221 29.1998C201.487 29.1998 199.847 28.9598 198.301 28.4798C196.754 27.9731 195.541 27.3464 194.661 26.5998L195.941 24.3598C196.794 24.9998 197.887 25.5598 199.221 26.0398C200.554 26.4931 201.954 26.7198 203.421 26.7198C205.421 26.7198 206.861 26.4131 207.741 25.7998C208.621 25.1598 209.061 24.3198 209.061 23.2798C209.061 22.5064 208.807 21.9064 208.301 21.4798C207.821 21.0264 207.181 20.6931 206.381 20.4798C205.581 20.2398 204.687 20.0398 203.701 19.8798C202.714 19.7198 201.727 19.5331 200.741 19.3198C199.781 19.1064 198.901 18.7998 198.101 18.3998C197.301 17.9731 196.647 17.3998 196.141 16.6798C195.661 15.9598 195.421 14.9998 195.421 13.7998C195.421 12.6531 195.741 11.6264 196.381 10.7198C197.021 9.8131 197.954 9.10643 199.181 8.59977C200.434 8.06643 201.954 7.79977 203.741 7.79977C205.101 7.79977 206.461 7.98643 207.821 8.35977C209.181 8.70643 210.301 9.1731 211.181 9.75977L209.941 12.0398C209.007 11.3998 208.007 10.9464 206.941 10.6798C205.874 10.3864 204.807 10.2398 203.741 10.2398C201.847 10.2398 200.447 10.5731 199.541 11.2398C198.661 11.8798 198.221 12.7064 198.221 13.7198C198.221 14.5198 198.461 15.1464 198.941 15.5998C199.447 16.0531 200.101 16.4131 200.901 16.6798C201.727 16.9198 202.621 17.1198 203.581 17.2798C204.567 17.4398 205.541 17.6398 206.501 17.8798C207.487 18.0931 208.381 18.3998 209.181 18.7998C210.007 19.1731 210.661 19.7198 211.141 20.4398C211.647 21.1331 211.901 22.0531 211.901 23.1998C211.901 24.4264 211.554 25.4931 210.861 26.3998C210.194 27.2798 209.207 27.9731 207.901 28.4798C206.621 28.9598 205.061 29.1998 203.221 29.1998Z" fill="black"/>
<path d="M228.832 29.1998C226.645 29.1998 224.725 28.7464 223.072 27.8398C221.419 26.9064 220.125 25.6398 219.192 24.0398C218.259 22.4131 217.792 20.5598 217.792 18.4798C217.792 16.3998 218.232 14.5598 219.112 12.9598C220.019 11.3598 221.245 10.1064 222.792 9.19977C224.365 8.26643 226.125 7.79977 228.072 7.79977C230.045 7.79977 231.792 8.2531 233.312 9.15977C234.859 10.0398 236.072 11.2931 236.952 12.9198C237.832 14.5198 238.272 16.3731 238.272 18.4798C238.272 18.6131 238.259 18.7598 238.232 18.9198C238.232 19.0531 238.232 19.1998 238.232 19.3598H219.952V17.2398H236.712L235.592 18.0798C235.592 16.5598 235.259 15.2131 234.592 14.0398C233.952 12.8398 233.072 11.9064 231.952 11.2398C230.832 10.5731 229.539 10.2398 228.072 10.2398C226.632 10.2398 225.339 10.5731 224.192 11.2398C223.045 11.9064 222.152 12.8398 221.512 14.0398C220.872 15.2398 220.552 16.6131 220.552 18.1598V18.5998C220.552 20.1998 220.899 21.6131 221.592 22.8398C222.312 24.0398 223.299 24.9864 224.552 25.6798C225.832 26.3464 227.285 26.6798 228.912 26.6798C230.192 26.6798 231.379 26.4531 232.472 25.9998C233.592 25.5464 234.552 24.8531 235.352 23.9198L236.952 25.7598C236.019 26.8798 234.845 27.7331 233.432 28.3198C232.045 28.9064 230.512 29.1998 228.832 29.1998Z" fill="black"/>
<path d="M246.853 28.9998V7.99977H249.573V13.7198L249.293 12.7198C249.879 11.1198 250.866 9.90643 252.253 9.07977C253.639 8.22643 255.359 7.79977 257.413 7.79977V10.5598C257.306 10.5598 257.199 10.5598 257.093 10.5598C256.986 10.5331 256.879 10.5198 256.773 10.5198C254.559 10.5198 252.826 11.1998 251.573 12.5598C250.319 13.8931 249.693 15.7998 249.693 18.2798V28.9998H246.853Z" fill="black"/>
<path d="M276.115 7.79977C277.822 7.79977 279.315 8.1331 280.595 8.79977C281.902 9.43977 282.915 10.4264 283.635 11.7598C284.382 13.0931 284.755 14.7731 284.755 16.7998V28.9998H281.915V17.0798C281.915 14.8664 281.355 13.1998 280.235 12.0798C279.142 10.9331 277.595 10.3598 275.595 10.3598C274.102 10.3598 272.795 10.6664 271.675 11.2798C270.582 11.8664 269.728 12.7331 269.115 13.8798C268.528 14.9998 268.235 16.3598 268.235 17.9598V28.9998H265.395V7.99977H268.115V13.7598L267.675 12.6798C268.341 11.1598 269.408 9.9731 270.875 9.11977C272.342 8.23977 274.088 7.79977 276.115 7.79977Z" fill="black"/>
<path d="M308.386 28.9998V24.3598L308.266 23.5998V15.8398C308.266 14.0531 307.759 12.6798 306.746 11.7198C305.759 10.7598 304.279 10.2798 302.306 10.2798C300.946 10.2798 299.653 10.5064 298.426 10.9598C297.199 11.4131 296.159 12.0131 295.306 12.7598L294.026 10.6398C295.093 9.7331 296.373 9.03977 297.866 8.55976C299.359 8.0531 300.933 7.79977 302.586 7.79977C305.306 7.79977 307.399 8.47977 308.866 9.83977C310.359 11.1731 311.106 13.2131 311.106 15.9598V28.9998H308.386ZM301.146 29.1998C299.573 29.1998 298.199 28.9464 297.026 28.4398C295.879 27.9064 294.999 27.1864 294.386 26.2798C293.773 25.3464 293.466 24.2798 293.466 23.0798C293.466 21.9864 293.719 20.9998 294.226 20.1198C294.759 19.2131 295.613 18.4931 296.786 17.9598C297.986 17.3998 299.586 17.1198 301.586 17.1198H308.826V19.2398H301.666C299.639 19.2398 298.226 19.5998 297.426 20.3198C296.653 21.0398 296.266 21.9331 296.266 22.9998C296.266 24.1998 296.733 25.1598 297.666 25.8798C298.599 26.5998 299.906 26.9598 301.586 26.9598C303.186 26.9598 304.559 26.5998 305.706 25.8798C306.879 25.1331 307.733 24.0664 308.266 22.6798L308.906 24.6398C308.373 26.0264 307.439 27.1331 306.106 27.9598C304.799 28.7864 303.146 29.1998 301.146 29.1998Z" fill="black"/>
<path d="M347.86 7.79977C349.567 7.79977 351.047 8.1331 352.3 8.79977C353.58 9.43977 354.567 10.4264 355.26 11.7598C355.98 13.0931 356.34 14.7731 356.34 16.7998V28.9998H353.5V17.0798C353.5 14.8664 352.966 13.1998 351.9 12.0798C350.86 10.9331 349.38 10.3598 347.46 10.3598C346.02 10.3598 344.767 10.6664 343.7 11.2798C342.66 11.8664 341.847 12.7331 341.26 13.8798C340.7 14.9998 340.42 16.3598 340.42 17.9598V28.9998H337.58V17.0798C337.58 14.8664 337.047 13.1998 335.98 12.0798C334.913 10.9331 333.42 10.3598 331.5 10.3598C330.087 10.3598 328.847 10.6664 327.78 11.2798C326.713 11.8664 325.887 12.7331 325.3 13.8798C324.74 14.9998 324.46 16.3598 324.46 17.9598V28.9998H321.62V7.99977H324.34V13.6798L323.9 12.6798C324.54 11.1598 325.567 9.9731 326.98 9.11977C328.42 8.23977 330.113 7.79977 332.06 7.79977C334.113 7.79977 335.86 8.31977 337.3 9.35977C338.74 10.3731 339.673 11.9064 340.1 13.9598L338.98 13.5198C339.593 11.8131 340.673 10.4398 342.22 9.39977C343.793 8.3331 345.673 7.79977 347.86 7.79977Z" fill="black"/>
<path d="M375.762 29.1998C373.575 29.1998 371.655 28.7464 370.002 27.8398C368.348 26.9064 367.055 25.6398 366.122 24.0398C365.188 22.4131 364.722 20.5598 364.722 18.4798C364.722 16.3998 365.162 14.5598 366.042 12.9598C366.948 11.3598 368.175 10.1064 369.722 9.19977C371.295 8.26643 373.055 7.79977 375.002 7.79977C376.975 7.79977 378.722 8.2531 380.242 9.15977C381.788 10.0398 383.002 11.2931 383.882 12.9198C384.762 14.5198 385.202 16.3731 385.202 18.4798C385.202 18.6131 385.188 18.7598 385.162 18.9198C385.162 19.0531 385.162 19.1998 385.162 19.3598H366.882V17.2398H383.642L382.522 18.0798C382.522 16.5598 382.188 15.2131 381.522 14.0398C380.882 12.8398 380.002 11.9064 378.882 11.2398C377.762 10.5731 376.468 10.2398 375.002 10.2398C373.562 10.2398 372.268 10.5731 371.122 11.2398C369.975 11.9064 369.082 12.8398 368.442 14.0398C367.802 15.2398 367.482 16.6131 367.482 18.1598V18.5998C367.482 20.1998 367.828 21.6131 368.522 22.8398C369.242 24.0398 370.228 24.9864 371.482 25.6798C372.762 26.3464 374.215 26.6798 375.842 26.6798C377.122 26.6798 378.308 26.4531 379.402 25.9998C380.522 25.5464 381.482 24.8531 382.282 23.9198L383.882 25.7598C382.948 26.8798 381.775 27.7331 380.362 28.3198C378.975 28.9064 377.442 29.1998 375.762 29.1998Z" fill="black"/>
</svg>
