<svg width="29" height="10" viewBox="0 0 29 10" fill="none" xmlns="http://www.w3.org/2000/svg">
<path d="M0.12793 9.0001V0.600098H3.79993C4.71193 0.600098 5.51193 0.776098 6.19993 1.1281C6.88793 1.4801 7.42393 1.9681 7.80793 2.5921C8.19193 3.2161 8.38393 3.9521 8.38393 4.8001C8.38393 5.6401 8.19193 6.3761 7.80793 7.0081C7.42393 7.6321 6.88793 8.1201 6.19993 8.4721C5.51193 8.8241 4.71193 9.0001 3.79993 9.0001H0.12793ZM1.68793 7.6801H3.72793C4.35993 7.6801 4.90393 7.5601 5.35993 7.3201C5.82393 7.0801 6.17993 6.7441 6.42793 6.3121C6.68393 5.8801 6.81193 5.3761 6.81193 4.8001C6.81193 4.2161 6.68393 3.7121 6.42793 3.2881C6.17993 2.8561 5.82393 2.5201 5.35993 2.2801C4.90393 2.0401 4.35993 1.9201 3.72793 1.9201H1.68793V7.6801Z" fill="#DE1D1D"/>
<path d="M13.846 9.0001V7.7041L13.762 7.4281V5.1601C13.762 4.7201 13.63 4.3801 13.366 4.1401C13.102 3.8921 12.702 3.7681 12.166 3.7681C11.806 3.7681 11.45 3.8241 11.098 3.9361C10.754 4.0481 10.462 4.2041 10.222 4.4041L9.63399 3.3121C9.97799 3.0481 10.386 2.8521 10.858 2.7241C11.338 2.5881 11.834 2.5201 12.346 2.5201C13.274 2.5201 13.99 2.7441 14.494 3.1921C15.006 3.6321 15.262 4.3161 15.262 5.2441V9.0001H13.846ZM11.83 9.0841C11.35 9.0841 10.93 9.0041 10.57 8.8441C10.21 8.6761 9.92999 8.4481 9.72999 8.1601C9.53799 7.8641 9.44199 7.5321 9.44199 7.1641C9.44199 6.8041 9.52599 6.4801 9.69399 6.1921C9.86999 5.9041 10.154 5.6761 10.546 5.5081C10.938 5.3401 11.458 5.2561 12.106 5.2561H13.966V6.2521H12.214C11.702 6.2521 11.358 6.3361 11.182 6.5041C11.006 6.6641 10.918 6.8641 10.918 7.1041C10.918 7.3761 11.026 7.5921 11.242 7.7521C11.458 7.9121 11.758 7.9921 12.142 7.9921C12.51 7.9921 12.838 7.9081 13.126 7.7401C13.422 7.5721 13.634 7.3241 13.762 6.9961L14.014 7.8961C13.87 8.2721 13.61 8.5641 13.234 8.7721C12.866 8.9801 12.398 9.0841 11.83 9.0841Z" fill="#DE1D1D"/>
<path d="M19.5991 9.0841C18.8951 9.0841 18.3511 8.9041 17.9671 8.5441C17.5831 8.1761 17.3911 7.6361 17.3911 6.9241V1.1761H18.8911V6.8881C18.8911 7.1921 18.9671 7.4281 19.1191 7.5961C19.2791 7.7641 19.4991 7.8481 19.7791 7.8481C20.1151 7.8481 20.3951 7.7601 20.6191 7.5841L21.0391 8.6521C20.8631 8.7961 20.6471 8.9041 20.3911 8.9761C20.1351 9.0481 19.8711 9.0841 19.5991 9.0841ZM16.3351 3.8401V2.6401H20.6071V3.8401H16.3351Z" fill="#DE1D1D"/>
<path d="M25.0741 9.0841C24.3621 9.0841 23.7381 8.9441 23.2021 8.6641C22.6741 8.3761 22.2621 7.9841 21.9661 7.4881C21.6781 6.9921 21.5341 6.4281 21.5341 5.7961C21.5341 5.1561 21.6741 4.5921 21.9541 4.1041C22.2421 3.6081 22.6341 3.2201 23.1301 2.9401C23.6341 2.6601 24.2061 2.5201 24.8461 2.5201C25.4701 2.5201 26.0261 2.6561 26.5141 2.9281C27.0021 3.2001 27.3861 3.5841 27.6661 4.0801C27.9461 4.5761 28.0861 5.1601 28.0861 5.8321C28.0861 5.8961 28.0821 5.9681 28.0741 6.0481C28.0741 6.1281 28.0701 6.2041 28.0621 6.2761H22.7221V5.2801H27.2701L26.6821 5.5921C26.6901 5.2241 26.6141 4.9001 26.4541 4.6201C26.2941 4.3401 26.0741 4.1201 25.7941 3.9601C25.5221 3.8001 25.2061 3.7201 24.8461 3.7201C24.4781 3.7201 24.1541 3.8001 23.8741 3.9601C23.6021 4.1201 23.3861 4.3441 23.2261 4.6321C23.0741 4.9121 22.9981 5.2441 22.9981 5.6281V5.8681C22.9981 6.2521 23.0861 6.5921 23.2621 6.8881C23.4381 7.1841 23.6861 7.4121 24.0061 7.5721C24.3261 7.7321 24.6941 7.8121 25.1101 7.8121C25.4701 7.8121 25.7941 7.7561 26.0821 7.6441C26.3701 7.5321 26.6261 7.3561 26.8501 7.1161L27.6541 8.0401C27.3661 8.3761 27.0021 8.6361 26.5621 8.8201C26.1301 8.9961 25.6341 9.0841 25.0741 9.0841Z" fill="#DE1D1D"/>
</svg>
