<svg width="107" height="13" viewBox="0 0 107 13" fill="none" xmlns="http://www.w3.org/2000/svg">
<path d="M0.222168 11.0002V1.9002H4.20017C5.18817 1.9002 6.05483 2.09087 6.80017 2.4722C7.5455 2.85353 8.12617 3.3822 8.54217 4.0582C8.95817 4.7342 9.16617 5.53153 9.16617 6.4502C9.16617 7.3602 8.95817 8.15753 8.54217 8.8422C8.12617 9.5182 7.5455 10.0469 6.80017 10.4282C6.05483 10.8095 5.18817 11.0002 4.20017 11.0002H0.222168ZM1.91217 9.5702H4.12217C4.80683 9.5702 5.39617 9.4402 5.89017 9.1802C6.39283 8.9202 6.7785 8.5562 7.04717 8.0882C7.3245 7.6202 7.46317 7.0742 7.46317 6.4502C7.46317 5.81753 7.3245 5.27153 7.04717 4.8122C6.7785 4.3442 6.39283 3.9802 5.89017 3.7202C5.39617 3.4602 4.80683 3.3302 4.12217 3.3302H1.91217V9.5702Z" fill="#483332"/>
<path d="M15.0834 11.0002V9.5962L14.9924 9.2972V6.8402C14.9924 6.36353 14.8494 5.9952 14.5634 5.7352C14.2774 5.46653 13.8441 5.3322 13.2634 5.3322C12.8734 5.3322 12.4877 5.39287 12.1064 5.5142C11.7337 5.63553 11.4174 5.80453 11.1574 6.0212L10.5204 4.8382C10.8931 4.5522 11.3351 4.33987 11.8464 4.2012C12.3664 4.05387 12.9037 3.9802 13.4584 3.9802C14.4637 3.9802 15.2394 4.22287 15.7854 4.7082C16.3401 5.18487 16.6174 5.92587 16.6174 6.9312V11.0002H15.0834ZM12.8994 11.0912C12.3794 11.0912 11.9244 11.0045 11.5344 10.8312C11.1444 10.6492 10.8411 10.4022 10.6244 10.0902C10.4164 9.76953 10.3124 9.40987 10.3124 9.0112C10.3124 8.6212 10.4034 8.2702 10.5854 7.9582C10.7761 7.6462 11.0837 7.3992 11.5084 7.2172C11.9331 7.0352 12.4964 6.9442 13.1984 6.9442H15.2134V8.0232H13.3154C12.7607 8.0232 12.3881 8.1142 12.1974 8.2962C12.0067 8.46953 11.9114 8.6862 11.9114 8.9462C11.9114 9.24087 12.0284 9.47487 12.2624 9.6482C12.4964 9.82153 12.8214 9.9082 13.2374 9.9082C13.6361 9.9082 13.9914 9.8172 14.3034 9.6352C14.6241 9.4532 14.8537 9.18453 14.9924 8.8292L15.2654 9.8042C15.1094 10.2115 14.8277 10.5279 14.4204 10.7532C14.0217 10.9785 13.5147 11.0912 12.8994 11.0912Z" fill="#483332"/>
<path d="M21.3159 11.0912C20.5532 11.0912 19.9639 10.8962 19.5479 10.5062C19.1319 10.1075 18.9239 9.52253 18.9239 8.7512V2.5242H20.5489V8.7122C20.5489 9.04153 20.6312 9.2972 20.7959 9.4792C20.9692 9.6612 21.2076 9.7522 21.5109 9.7522C21.8749 9.7522 22.1782 9.65687 22.4209 9.4662L22.8759 10.6232C22.6852 10.7792 22.4512 10.8962 22.1739 10.9742C21.8966 11.0522 21.6106 11.0912 21.3159 11.0912ZM17.7799 5.4102V4.1102H22.4079V5.4102H17.7799Z" fill="#483332"/>
<path d="M27.2471 11.0912C26.4758 11.0912 25.7998 10.9395 25.2191 10.6362C24.6471 10.3242 24.2008 9.89953 23.8801 9.3622C23.5681 8.82487 23.4121 8.21387 23.4121 7.5292C23.4121 6.83587 23.5638 6.22487 23.8671 5.6962C24.1791 5.15887 24.6038 4.73853 25.1411 4.4352C25.6871 4.13187 26.3068 3.9802 27.0001 3.9802C27.6761 3.9802 28.2785 4.12753 28.8071 4.4222C29.3358 4.71687 29.7518 5.13287 30.0551 5.6702C30.3585 6.20753 30.5101 6.8402 30.5101 7.5682C30.5101 7.63753 30.5058 7.71553 30.4971 7.8022C30.4971 7.88887 30.4928 7.9712 30.4841 8.0492H24.6991V6.9702H29.6261L28.9891 7.3082C28.9978 6.90953 28.9155 6.55853 28.7421 6.2552C28.5688 5.95187 28.3305 5.71353 28.0271 5.5402C27.7325 5.36687 27.3901 5.2802 27.0001 5.2802C26.6015 5.2802 26.2505 5.36687 25.9471 5.5402C25.6525 5.71353 25.4185 5.9562 25.2451 6.2682C25.0805 6.57153 24.9981 6.9312 24.9981 7.3472V7.6072C24.9981 8.0232 25.0935 8.39153 25.2841 8.7122C25.4748 9.03287 25.7435 9.27987 26.0901 9.4532C26.4368 9.62653 26.8355 9.7132 27.2861 9.7132C27.6761 9.7132 28.0271 9.65253 28.3391 9.5312C28.6511 9.40987 28.9285 9.2192 29.1711 8.9592L30.0421 9.9602C29.7301 10.3242 29.3358 10.6059 28.8591 10.8052C28.3911 10.9959 27.8538 11.0912 27.2471 11.0912Z" fill="#483332"/>
<path d="M32.591 6.1382C32.2964 6.1382 32.0451 6.03853 31.8371 5.8392C31.6291 5.6312 31.5251 5.3712 31.5251 5.0592C31.5251 4.72987 31.6291 4.46987 31.8371 4.2792C32.0451 4.07987 32.2964 3.9802 32.591 3.9802C32.8857 3.9802 33.1371 4.07987 33.3451 4.2792C33.5531 4.46987 33.6571 4.72987 33.6571 5.0592C33.6571 5.3712 33.5531 5.6312 33.3451 5.8392C33.1371 6.03853 32.8857 6.1382 32.591 6.1382ZM32.591 11.0912C32.2964 11.0912 32.0451 10.9915 31.8371 10.7922C31.6291 10.5842 31.5251 10.3242 31.5251 10.0122C31.5251 9.68287 31.6291 9.42287 31.8371 9.2322C32.0451 9.03287 32.2964 8.9332 32.591 8.9332C32.8857 8.9332 33.1371 9.03287 33.3451 9.2322C33.5531 9.42287 33.6571 9.68287 33.6571 10.0122C33.6571 10.3242 33.5531 10.5842 33.3451 10.7922C33.1371 10.9915 32.8857 11.0912 32.591 11.0912Z" fill="#483332"/>
<path d="M39.9297 11.0002V2.4202L40.4887 3.0312H37.8757V1.9002H41.2167V11.0002H39.9297Z" fill="#483332"/>
<path d="M46.9252 11.1042C46.2145 11.1042 45.5775 10.9222 45.0142 10.5582C44.4595 10.1942 44.0175 9.66553 43.6882 8.9722C43.3675 8.27887 43.2072 7.4382 43.2072 6.4502C43.2072 5.4622 43.3675 4.62153 43.6882 3.9282C44.0175 3.23487 44.4595 2.7062 45.0142 2.3422C45.5775 1.9782 46.2145 1.7962 46.9252 1.7962C47.6272 1.7962 48.2598 1.9782 48.8232 2.3422C49.3865 2.7062 49.8285 3.23487 50.1492 3.9282C50.4698 4.62153 50.6302 5.4622 50.6302 6.4502C50.6302 7.4382 50.4698 8.27887 50.1492 8.9722C49.8285 9.66553 49.3865 10.1942 48.8232 10.5582C48.2598 10.9222 47.6272 11.1042 46.9252 11.1042ZM46.9252 9.9472C47.4018 9.9472 47.8178 9.8172 48.1732 9.5572C48.5372 9.2972 48.8188 8.9072 49.0182 8.3872C49.2262 7.8672 49.3302 7.22153 49.3302 6.4502C49.3302 5.67887 49.2262 5.0332 49.0182 4.5132C48.8188 3.9932 48.5372 3.6032 48.1732 3.3432C47.8178 3.0832 47.4018 2.9532 46.9252 2.9532C46.4485 2.9532 46.0282 3.0832 45.6642 3.3432C45.3002 3.6032 45.0142 3.9932 44.8062 4.5132C44.6068 5.0332 44.5072 5.67887 44.5072 6.4502C44.5072 7.22153 44.6068 7.8672 44.8062 8.3872C45.0142 8.9072 45.3002 9.2972 45.6642 9.5572C46.0282 9.8172 46.4485 9.9472 46.9252 9.9472Z" fill="#483332"/>
<path d="M50.6362 12.3002L54.9262 0.0541992H56.0572L51.7672 12.3002H50.6362Z" fill="#483332"/>
<path d="M56.0515 11.0002V10.1162L59.7565 6.5412C60.0858 6.2292 60.3285 5.9562 60.4845 5.7222C60.6491 5.47953 60.7575 5.25853 60.8095 5.0592C60.8701 4.8512 60.9005 4.65187 60.9005 4.4612C60.9005 3.9932 60.7358 3.62487 60.4065 3.3562C60.0771 3.08753 59.5961 2.9532 58.9635 2.9532C58.4781 2.9532 58.0405 3.03553 57.6505 3.2002C57.2605 3.3562 56.9225 3.6032 56.6365 3.9412L55.7525 3.1742C56.0991 2.7322 56.5628 2.3942 57.1435 2.1602C57.7328 1.91753 58.3785 1.7962 59.0805 1.7962C59.7131 1.7962 60.2635 1.9002 60.7315 2.1082C61.1995 2.30753 61.5592 2.59787 61.8105 2.9792C62.0705 3.36053 62.2005 3.8112 62.2005 4.3312C62.2005 4.62587 62.1615 4.9162 62.0835 5.2022C62.0055 5.4882 61.8581 5.79153 61.6415 6.1122C61.4248 6.43287 61.1128 6.79253 60.7055 7.1912L57.4035 10.3762L57.0915 9.8692H62.5905V11.0002H56.0515Z" fill="#483332"/>
<path d="M67.3646 11.1042C66.654 11.1042 66.017 10.9222 65.4536 10.5582C64.899 10.1942 64.457 9.66553 64.1276 8.9722C63.807 8.27887 63.6466 7.4382 63.6466 6.4502C63.6466 5.4622 63.807 4.62153 64.1276 3.9282C64.457 3.23487 64.899 2.7062 65.4536 2.3422C66.017 1.9782 66.654 1.7962 67.3646 1.7962C68.0666 1.7962 68.6993 1.9782 69.2626 2.3422C69.826 2.7062 70.268 3.23487 70.5886 3.9282C70.9093 4.62153 71.0696 5.4622 71.0696 6.4502C71.0696 7.4382 70.9093 8.27887 70.5886 8.9722C70.268 9.66553 69.826 10.1942 69.2626 10.5582C68.6993 10.9222 68.0666 11.1042 67.3646 11.1042ZM67.3646 9.9472C67.8413 9.9472 68.2573 9.8172 68.6126 9.5572C68.9766 9.2972 69.2583 8.9072 69.4576 8.3872C69.6656 7.8672 69.7696 7.22153 69.7696 6.4502C69.7696 5.67887 69.6656 5.0332 69.4576 4.5132C69.2583 3.9932 68.9766 3.6032 68.6126 3.3432C68.2573 3.0832 67.8413 2.9532 67.3646 2.9532C66.888 2.9532 66.4676 3.0832 66.1036 3.3432C65.7396 3.6032 65.4536 3.9932 65.2456 4.5132C65.0463 5.0332 64.9466 5.67887 64.9466 6.4502C64.9466 7.22153 65.0463 7.8672 65.2456 8.3872C65.4536 8.9072 65.7396 9.2972 66.1036 9.5572C66.4676 9.8172 66.888 9.9472 67.3646 9.9472Z" fill="#483332"/>
<path d="M71.0756 12.3002L75.3656 0.0541992H76.4966L72.2066 12.3002H71.0756Z" fill="#483332"/>
<path d="M76.4909 11.0002V10.1162L80.1959 6.5412C80.5253 6.2292 80.7679 5.9562 80.9239 5.7222C81.0886 5.47953 81.1969 5.25853 81.2489 5.0592C81.3096 4.8512 81.3399 4.65187 81.3399 4.4612C81.3399 3.9932 81.1753 3.62487 80.8459 3.3562C80.5166 3.08753 80.0356 2.9532 79.4029 2.9532C78.9176 2.9532 78.4799 3.03553 78.0899 3.2002C77.6999 3.3562 77.3619 3.6032 77.0759 3.9412L76.1919 3.1742C76.5386 2.7322 77.0023 2.3942 77.5829 2.1602C78.1723 1.91753 78.8179 1.7962 79.5199 1.7962C80.1526 1.7962 80.7029 1.9002 81.1709 2.1082C81.6389 2.30753 81.9986 2.59787 82.2499 2.9792C82.5099 3.36053 82.6399 3.8112 82.6399 4.3312C82.6399 4.62587 82.6009 4.9162 82.5229 5.2022C82.4449 5.4882 82.2976 5.79153 82.0809 6.1122C81.8643 6.43287 81.5523 6.79253 81.1449 7.1912L77.8429 10.3762L77.5309 9.8692H83.0299V11.0002H76.4909Z" fill="#483332"/>
<path d="M87.8041 11.1042C87.0934 11.1042 86.4564 10.9222 85.8931 10.5582C85.3384 10.1942 84.8964 9.66553 84.5671 8.9722C84.2464 8.27887 84.0861 7.4382 84.0861 6.4502C84.0861 5.4622 84.2464 4.62153 84.5671 3.9282C84.8964 3.23487 85.3384 2.7062 85.8931 2.3422C86.4564 1.9782 87.0934 1.7962 87.8041 1.7962C88.5061 1.7962 89.1387 1.9782 89.7021 2.3422C90.2654 2.7062 90.7074 3.23487 91.0281 3.9282C91.3487 4.62153 91.5091 5.4622 91.5091 6.4502C91.5091 7.4382 91.3487 8.27887 91.0281 8.9722C90.7074 9.66553 90.2654 10.1942 89.7021 10.5582C89.1387 10.9222 88.5061 11.1042 87.8041 11.1042ZM87.8041 9.9472C88.2808 9.9472 88.6967 9.8172 89.0521 9.5572C89.4161 9.2972 89.6977 8.9072 89.8971 8.3872C90.1051 7.8672 90.2091 7.22153 90.2091 6.4502C90.2091 5.67887 90.1051 5.0332 89.8971 4.5132C89.6977 3.9932 89.4161 3.6032 89.0521 3.3432C88.6967 3.0832 88.2808 2.9532 87.8041 2.9532C87.3274 2.9532 86.9071 3.0832 86.5431 3.3432C86.1791 3.6032 85.8931 3.9932 85.6851 4.5132C85.4857 5.0332 85.3861 5.67887 85.3861 6.4502C85.3861 7.22153 85.4857 7.8672 85.6851 8.3872C85.8931 8.9072 86.1791 9.2972 86.5431 9.5572C86.9071 9.8172 87.3274 9.9472 87.8041 9.9472Z" fill="#483332"/>
<path d="M92.614 11.0002V10.1162L96.319 6.5412C96.6483 6.2292 96.891 5.9562 97.047 5.7222C97.2116 5.47953 97.32 5.25853 97.372 5.0592C97.4326 4.8512 97.463 4.65187 97.463 4.4612C97.463 3.9932 97.2983 3.62487 96.969 3.3562C96.6396 3.08753 96.1586 2.9532 95.526 2.9532C95.0406 2.9532 94.603 3.03553 94.213 3.2002C93.823 3.3562 93.485 3.6032 93.199 3.9412L92.315 3.1742C92.6616 2.7322 93.1253 2.3942 93.706 2.1602C94.2953 1.91753 94.941 1.7962 95.643 1.7962C96.2757 1.7962 96.826 1.9002 97.294 2.1082C97.762 2.30753 98.1216 2.59787 98.373 2.9792C98.633 3.36053 98.763 3.8112 98.763 4.3312C98.763 4.62587 98.724 4.9162 98.646 5.2022C98.568 5.4882 98.4206 5.79153 98.204 6.1122C97.9873 6.43287 97.6753 6.79253 97.268 7.1912L93.966 10.3762L93.654 9.8692H99.153V11.0002H92.614Z" fill="#483332"/>
<path d="M103.004 11.1042C102.362 11.1042 101.738 11.0045 101.132 10.8052C100.534 10.6059 100.044 10.3372 99.6628 9.9992L100.261 8.9722C100.564 9.2582 100.958 9.4922 101.444 9.6742C101.929 9.8562 102.449 9.9472 103.004 9.9472C103.68 9.9472 104.204 9.8042 104.577 9.5182C104.958 9.22353 105.149 8.8292 105.149 8.3352C105.149 7.85853 104.967 7.4772 104.603 7.1912C104.247 6.89653 103.68 6.7492 102.9 6.7492H102.172V5.8392L104.876 2.5112L105.058 3.0312H100.079V1.9002H106.085V2.7842L103.394 6.0992L102.718 5.6962H103.147C104.247 5.6962 105.071 5.9432 105.617 6.4372C106.171 6.9312 106.449 7.55953 106.449 8.3222C106.449 8.83353 106.323 9.30153 106.072 9.7262C105.82 10.1509 105.439 10.4889 104.928 10.7402C104.425 10.9829 103.784 11.1042 103.004 11.1042Z" fill="#483332"/>
</svg>
