<svg width="343" height="98" viewBox="0 0 343 98" fill="none" xmlns="http://www.w3.org/2000/svg">
<path d="M0 10C0 4.47715 4.47715 0 10 0H333C338.523 0 343 4.47715 343 10V88C343 93.5229 338.523 98 333 98H10C4.47716 98 0 93.5229 0 88V10Z" fill="white"/>
<path d="M13.6365 21C13.6365 15.4772 18.1136 11 23.6365 11H143.144C148.667 11 153.144 15.4772 153.144 21V77C153.144 82.5229 148.667 87 143.144 87H23.6365C18.1136 87 13.6365 82.5229 13.6365 77V21Z" fill="#E0E2E6"/>
<path d="M164.855 23V13.9H166.545V23H164.855Z" fill="#C92020"/>
<path d="M171.463 23.091C170.701 23.091 170.111 22.896 169.695 22.506C169.279 22.1074 169.071 21.5224 169.071 20.751V14.524H170.696V20.712C170.696 21.0414 170.779 21.297 170.943 21.479C171.117 21.661 171.355 21.752 171.658 21.752C172.022 21.752 172.326 21.6567 172.568 21.466L173.023 22.623C172.833 22.779 172.599 22.896 172.321 22.974C172.044 23.052 171.758 23.091 171.463 23.091ZM167.927 17.41V16.11H172.555V17.41H167.927Z" fill="#C92020"/>
<path d="M177.395 23.091C176.623 23.091 175.947 22.9394 175.367 22.636C174.795 22.324 174.348 21.8994 174.028 21.362C173.716 20.8247 173.56 20.2137 173.56 19.529C173.56 18.8357 173.711 18.2247 174.015 17.696C174.327 17.1587 174.751 16.7384 175.289 16.435C175.835 16.1317 176.454 15.98 177.148 15.98C177.824 15.98 178.426 16.1274 178.955 16.422C179.483 16.7167 179.899 17.1327 180.203 17.67C180.506 18.2074 180.658 18.84 180.658 19.568C180.658 19.6374 180.653 19.7154 180.645 19.802C180.645 19.8887 180.64 19.971 180.632 20.049H174.847V18.97H179.774L179.137 19.308C179.145 18.9094 179.063 18.5584 178.89 18.255C178.716 17.9517 178.478 17.7134 178.175 17.54C177.88 17.3667 177.538 17.28 177.148 17.28C176.749 17.28 176.398 17.3667 176.095 17.54C175.8 17.7134 175.566 17.956 175.393 18.268C175.228 18.5714 175.146 18.931 175.146 19.347V19.607C175.146 20.023 175.241 20.3914 175.432 20.712C175.622 21.0327 175.891 21.2797 176.238 21.453C176.584 21.6264 176.983 21.713 177.434 21.713C177.824 21.713 178.175 21.6524 178.487 21.531C178.799 21.4097 179.076 21.219 179.319 20.959L180.19 21.96C179.878 22.324 179.483 22.6057 179.007 22.805C178.539 22.9957 178.001 23.091 177.395 23.091Z" fill="#C92020"/>
<path d="M190.981 15.98C191.535 15.98 192.025 16.0884 192.45 16.305C192.883 16.5217 193.221 16.8554 193.464 17.306C193.706 17.748 193.828 18.32 193.828 19.022V23H192.203V19.23C192.203 18.6147 192.068 18.1554 191.8 17.852C191.531 17.5487 191.145 17.397 190.643 17.397C190.287 17.397 189.971 17.475 189.694 17.631C189.425 17.787 189.213 18.0167 189.057 18.32C188.909 18.6234 188.836 19.009 188.836 19.477V23H187.211V19.23C187.211 18.6147 187.076 18.1554 186.808 17.852C186.539 17.5487 186.153 17.397 185.651 17.397C185.295 17.397 184.979 17.475 184.702 17.631C184.433 17.787 184.221 18.0167 184.065 18.32C183.917 18.6234 183.844 19.009 183.844 19.477V23H182.219V16.058H183.766V17.904L183.493 17.358C183.727 16.9074 184.065 16.565 184.507 16.331C184.957 16.097 185.469 15.98 186.041 15.98C186.691 15.98 187.254 16.1404 187.731 16.461C188.216 16.7817 188.537 17.267 188.693 17.917L188.056 17.696C188.281 17.176 188.654 16.76 189.174 16.448C189.694 16.136 190.296 15.98 190.981 15.98Z" fill="#C92020"/>
<path d="M198.886 23V21.869L202.5 18.437C202.803 18.151 203.028 17.8997 203.176 17.683C203.323 17.4664 203.418 17.267 203.462 17.085C203.514 16.8944 203.54 16.7167 203.54 16.552C203.54 16.136 203.397 15.8154 203.111 15.59C202.825 15.356 202.404 15.239 201.85 15.239C201.408 15.239 201.005 15.317 200.641 15.473C200.285 15.629 199.978 15.8674 199.718 16.188L198.535 15.278C198.89 14.8014 199.367 14.433 199.965 14.173C200.571 13.9044 201.247 13.77 201.993 13.77C202.652 13.77 203.223 13.8784 203.709 14.095C204.203 14.303 204.58 14.602 204.84 14.992C205.108 15.382 205.243 15.8457 205.243 16.383C205.243 16.6777 205.204 16.9724 205.126 17.267C205.048 17.553 204.901 17.8564 204.684 18.177C204.467 18.4977 204.151 18.8574 203.735 19.256L200.628 22.207L200.277 21.57H205.594V23H198.886Z" fill="#C92020"/>
<path d="M164.075 80.933V79.763L168.56 73.9H170.367L165.947 79.763L165.102 79.503H172.317V80.933H164.075ZM169.067 83V80.933L169.119 79.503V77.67H170.705V83H169.067Z" fill="#C92020"/>
<path d="M176.044 83.13C175.403 83.13 174.775 83.039 174.159 82.857C173.553 82.6664 173.041 82.4064 172.625 82.077L173.34 80.764C173.67 81.0327 174.068 81.2494 174.536 81.414C175.013 81.5787 175.507 81.661 176.018 81.661C176.616 81.661 177.084 81.5354 177.422 81.284C177.769 81.0327 177.942 80.6947 177.942 80.27C177.942 79.984 177.869 79.7327 177.721 79.516C177.583 79.2994 177.331 79.1347 176.967 79.022C176.612 78.9094 176.122 78.853 175.498 78.853H173.301L173.769 73.9H179.112V75.317H174.393L175.277 74.511L174.926 78.216L174.042 77.423H175.875C176.777 77.423 177.5 77.5444 178.046 77.787C178.601 78.021 179.004 78.3504 179.255 78.775C179.515 79.191 179.645 79.6677 179.645 80.205C179.645 80.7337 179.515 81.219 179.255 81.661C178.995 82.103 178.597 82.4584 178.059 82.727C177.531 82.9957 176.859 83.13 176.044 83.13Z" fill="#C92020"/>
<path d="M181.634 83.091C181.339 83.091 181.088 82.9914 180.88 82.792C180.672 82.584 180.568 82.324 180.568 82.012C180.568 81.6827 180.672 81.4227 180.88 81.232C181.088 81.0327 181.339 80.933 181.634 80.933C181.929 80.933 182.18 81.0327 182.388 81.232C182.596 81.4227 182.7 81.6827 182.7 82.012C182.7 82.324 182.596 82.584 182.388 82.792C182.18 82.9914 181.929 83.091 181.634 83.091Z" fill="#C92020"/>
<path d="M186.862 73.77C187.694 73.77 188.4 73.9477 188.981 74.303C189.57 74.6497 190.021 75.1567 190.333 75.824C190.645 76.4914 190.801 77.3147 190.801 78.294C190.801 79.334 190.61 80.2137 190.229 80.933C189.856 81.6524 189.336 82.1984 188.669 82.571C188.001 82.9437 187.226 83.13 186.342 83.13C185.882 83.13 185.445 83.0824 185.029 82.987C184.613 82.8917 184.253 82.7444 183.95 82.545L184.574 81.271C184.825 81.4357 185.098 81.5527 185.393 81.622C185.687 81.6827 185.991 81.713 186.303 81.713C187.161 81.713 187.841 81.4487 188.344 80.92C188.846 80.3914 189.098 79.6114 189.098 78.58C189.098 78.4154 189.093 78.2247 189.085 78.008C189.076 77.7827 189.046 77.5574 188.994 77.332L189.514 77.904C189.366 78.2594 189.154 78.5584 188.877 78.801C188.599 79.035 188.274 79.2127 187.902 79.334C187.529 79.4554 187.117 79.516 186.667 79.516C186.077 79.516 185.544 79.4034 185.068 79.178C184.6 78.944 184.227 78.619 183.95 78.203C183.672 77.7784 183.534 77.2844 183.534 76.721C183.534 76.1144 183.681 75.5944 183.976 75.161C184.27 74.719 184.669 74.3767 185.172 74.134C185.683 73.8914 186.246 73.77 186.862 73.77ZM186.953 75.096C186.606 75.096 186.298 75.161 186.03 75.291C185.761 75.4124 185.549 75.59 185.393 75.824C185.245 76.0494 185.172 76.3224 185.172 76.643C185.172 77.1197 185.336 77.4967 185.666 77.774C185.995 78.0514 186.437 78.19 186.992 78.19C187.356 78.19 187.676 78.125 187.954 77.995C188.231 77.8564 188.448 77.67 188.604 77.436C188.76 77.1934 188.838 76.9247 188.838 76.63C188.838 76.344 188.764 76.0884 188.617 75.863C188.469 75.629 188.257 75.4427 187.98 75.304C187.702 75.1654 187.36 75.096 186.953 75.096Z" fill="#C92020"/>
<path d="M195.012 73.77C195.844 73.77 196.551 73.9477 197.131 74.303C197.721 74.6497 198.171 75.1567 198.483 75.824C198.795 76.4914 198.951 77.3147 198.951 78.294C198.951 79.334 198.761 80.2137 198.379 80.933C198.007 81.6524 197.487 82.1984 196.819 82.571C196.152 82.9437 195.376 83.13 194.492 83.13C194.033 83.13 193.595 83.0824 193.179 82.987C192.763 82.8917 192.404 82.7444 192.1 82.545L192.724 81.271C192.976 81.4357 193.249 81.5527 193.543 81.622C193.838 81.6827 194.141 81.713 194.453 81.713C195.311 81.713 195.992 81.4487 196.494 80.92C196.997 80.3914 197.248 79.6114 197.248 78.58C197.248 78.4154 197.244 78.2247 197.235 78.008C197.227 77.7827 197.196 77.5574 197.144 77.332L197.664 77.904C197.517 78.2594 197.305 78.5584 197.027 78.801C196.75 79.035 196.425 79.2127 196.052 79.334C195.68 79.4554 195.268 79.516 194.817 79.516C194.228 79.516 193.695 79.4034 193.218 79.178C192.75 78.944 192.378 78.619 192.1 78.203C191.823 77.7784 191.684 77.2844 191.684 76.721C191.684 76.1144 191.832 75.5944 192.126 75.161C192.421 74.719 192.82 74.3767 193.322 74.134C193.834 73.8914 194.397 73.77 195.012 73.77ZM195.103 75.096C194.757 75.096 194.449 75.161 194.18 75.291C193.912 75.4124 193.699 75.59 193.543 75.824C193.396 76.0494 193.322 76.3224 193.322 76.643C193.322 77.1197 193.487 77.4967 193.816 77.774C194.146 78.0514 194.588 78.19 195.142 78.19C195.506 78.19 195.827 78.125 196.104 77.995C196.382 77.8564 196.598 77.67 196.754 77.436C196.91 77.1934 196.988 76.9247 196.988 76.63C196.988 76.344 196.915 76.0884 196.767 75.863C196.62 75.629 196.408 75.4427 196.13 75.304C195.853 75.1654 195.511 75.096 195.103 75.096Z" fill="#C92020"/>
<path d="M208.549 83.13C207.856 83.13 207.21 83.0174 206.612 82.792C206.023 82.558 205.507 82.233 205.065 81.817C204.632 81.3924 204.294 80.894 204.051 80.322C203.809 79.75 203.687 79.126 203.687 78.45C203.687 77.774 203.809 77.15 204.051 76.578C204.294 76.006 204.636 75.512 205.078 75.096C205.52 74.6714 206.036 74.3464 206.625 74.121C207.215 73.887 207.86 73.77 208.562 73.77C209.308 73.77 209.988 73.9 210.603 74.16C211.219 74.4114 211.739 74.7884 212.163 75.291L211.071 76.318C210.742 75.9627 210.374 75.6984 209.966 75.525C209.559 75.343 209.117 75.252 208.64 75.252C208.164 75.252 207.726 75.33 207.327 75.486C206.937 75.642 206.595 75.863 206.3 76.149C206.014 76.435 205.789 76.773 205.624 77.163C205.468 77.553 205.39 77.982 205.39 78.45C205.39 78.918 205.468 79.347 205.624 79.737C205.789 80.127 206.014 80.465 206.3 80.751C206.595 81.037 206.937 81.258 207.327 81.414C207.726 81.57 208.164 81.648 208.64 81.648C209.117 81.648 209.559 81.5614 209.966 81.388C210.374 81.206 210.742 80.933 211.071 80.569L212.163 81.609C211.739 82.103 211.219 82.48 210.603 82.74C209.988 83 209.303 83.13 208.549 83.13Z" fill="#C92020"/>
<path d="M212.305 83L216.4 73.9H218.064L222.172 83H220.404L216.881 74.797H217.557L214.047 83H212.305ZM214.19 80.894L214.645 79.568H219.559L220.014 80.894H214.19Z" fill="#C92020"/>
<path d="M223.33 83V73.9H227.308C228.296 73.9 229.162 74.0907 229.908 74.472C230.653 74.8534 231.234 75.382 231.65 76.058C232.066 76.734 232.274 77.5314 232.274 78.45C232.274 79.36 232.066 80.1574 231.65 80.842C231.234 81.518 230.653 82.0467 229.908 82.428C229.162 82.8094 228.296 83 227.308 83H223.33ZM225.02 81.57H227.23C227.914 81.57 228.504 81.44 228.998 81.18C229.5 80.92 229.886 80.556 230.155 80.088C230.432 79.62 230.571 79.074 230.571 78.45C230.571 77.8174 230.432 77.2714 230.155 76.812C229.886 76.344 229.5 75.98 228.998 75.72C228.504 75.46 227.914 75.33 227.23 75.33H225.02V81.57Z" fill="#C92020"/>
</svg>
