<svg width="343" height="98" viewBox="0 0 343 98" fill="none" xmlns="http://www.w3.org/2000/svg">
<path d="M0 10C0 4.47715 4.47715 0 10 0H333C338.523 0 343 4.47715 343 10V88C343 93.5229 338.523 98 333 98H10C4.47716 98 0 93.5229 0 88V10Z" fill="white"/>
<path d="M13.6365 21C13.6365 15.4772 18.1136 11 23.6365 11H143.144C148.667 11 153.144 15.4772 153.144 21V77C153.144 82.5229 148.667 87 143.144 87H23.6365C18.1136 87 13.6365 82.5229 13.6365 77V21Z" fill="#E0E2E6"/>
<path d="M164.855 22.9999V13.8999H166.545V22.9999H164.855Z" fill="#C92020"/>
<path d="M171.463 23.0909C170.701 23.0909 170.111 22.8959 169.695 22.5059C169.279 22.1072 169.071 21.5222 169.071 20.7509V14.5239H170.696V20.7119C170.696 21.0412 170.779 21.2969 170.943 21.4789C171.117 21.6609 171.355 21.7519 171.658 21.7519C172.022 21.7519 172.326 21.6566 172.568 21.4659L173.023 22.6229C172.833 22.7789 172.599 22.8959 172.321 22.9739C172.044 23.0519 171.758 23.0909 171.463 23.0909ZM167.927 17.4099V16.1099H172.555V17.4099H167.927Z" fill="#C92020"/>
<path d="M177.395 23.0909C176.623 23.0909 175.947 22.9392 175.367 22.6359C174.795 22.3239 174.348 21.8992 174.028 21.3619C173.716 20.8246 173.56 20.2136 173.56 19.5289C173.56 18.8356 173.711 18.2246 174.015 17.6959C174.327 17.1586 174.751 16.7382 175.289 16.4349C175.835 16.1316 176.454 15.9799 177.148 15.9799C177.824 15.9799 178.426 16.1272 178.955 16.4219C179.483 16.7166 179.899 17.1326 180.203 17.6699C180.506 18.2072 180.658 18.8399 180.658 19.5679C180.658 19.6372 180.653 19.7152 180.645 19.8019C180.645 19.8886 180.64 19.9709 180.632 20.0489H174.847V18.9699H179.774L179.137 19.3079C179.145 18.9092 179.063 18.5582 178.89 18.2549C178.716 17.9516 178.478 17.7132 178.175 17.5399C177.88 17.3666 177.538 17.2799 177.148 17.2799C176.749 17.2799 176.398 17.3666 176.095 17.5399C175.8 17.7132 175.566 17.9559 175.393 18.2679C175.228 18.5712 175.146 18.9309 175.146 19.3469V19.6069C175.146 20.0229 175.241 20.3912 175.432 20.7119C175.622 21.0326 175.891 21.2796 176.238 21.4529C176.584 21.6262 176.983 21.7129 177.434 21.7129C177.824 21.7129 178.175 21.6522 178.487 21.5309C178.799 21.4096 179.076 21.2189 179.319 20.9589L180.19 21.9599C179.878 22.3239 179.483 22.6056 179.007 22.8049C178.539 22.9956 178.001 23.0909 177.395 23.0909Z" fill="#C92020"/>
<path d="M190.981 15.9799C191.535 15.9799 192.025 16.0882 192.45 16.3049C192.883 16.5216 193.221 16.8552 193.464 17.3059C193.706 17.7479 193.828 18.3199 193.828 19.0219V22.9999H192.203V19.2299C192.203 18.6146 192.068 18.1552 191.8 17.8519C191.531 17.5486 191.145 17.3969 190.643 17.3969C190.287 17.3969 189.971 17.4749 189.694 17.6309C189.425 17.7869 189.213 18.0166 189.057 18.3199C188.909 18.6232 188.836 19.0089 188.836 19.4769V22.9999H187.211V19.2299C187.211 18.6146 187.076 18.1552 186.808 17.8519C186.539 17.5486 186.153 17.3969 185.651 17.3969C185.295 17.3969 184.979 17.4749 184.702 17.6309C184.433 17.7869 184.221 18.0166 184.065 18.3199C183.917 18.6232 183.844 19.0089 183.844 19.4769V22.9999H182.219V16.0579H183.766V17.9039L183.493 17.3579C183.727 16.9072 184.065 16.5649 184.507 16.3309C184.957 16.0969 185.469 15.9799 186.041 15.9799C186.691 15.9799 187.254 16.1402 187.731 16.4609C188.216 16.7816 188.537 17.2669 188.693 17.9169L188.056 17.6959C188.281 17.1759 188.654 16.7599 189.174 16.4479C189.694 16.1359 190.296 15.9799 190.981 15.9799Z" fill="#C92020"/>
<path d="M200.459 22.9999V14.5499L201.2 15.3169H198.535V13.8999H202.149V22.9999H200.459Z" fill="#C92020"/>
<path d="M167.273 84.5598V72.3398H168.339V84.5598H167.273ZM167.676 83.1298C166.965 83.1298 166.285 83.0302 165.635 82.8308C164.985 82.6228 164.469 82.3585 164.088 82.0378L164.673 80.7248C165.037 81.0108 165.488 81.2492 166.025 81.4398C166.562 81.6305 167.113 81.7258 167.676 81.7258C168.153 81.7258 168.538 81.6738 168.833 81.5698C169.128 81.4658 169.344 81.3272 169.483 81.1538C169.622 80.9718 169.691 80.7682 169.691 80.5428C169.691 80.2655 169.591 80.0445 169.392 79.8798C169.193 79.7065 168.933 79.5722 168.612 79.4768C168.3 79.3728 167.949 79.2775 167.559 79.1908C167.178 79.1042 166.792 79.0045 166.402 78.8918C166.021 78.7705 165.67 78.6188 165.349 78.4368C165.037 78.2462 164.781 77.9948 164.582 77.6828C164.383 77.3708 164.283 76.9722 164.283 76.4868C164.283 75.9928 164.413 75.5422 164.673 75.1348C164.942 74.7188 165.345 74.3895 165.882 74.1468C166.428 73.8955 167.117 73.7698 167.949 73.7698C168.495 73.7698 169.037 73.8392 169.574 73.9778C170.111 74.1165 170.579 74.3158 170.978 74.5758L170.445 75.8888C170.038 75.6462 169.617 75.4685 169.184 75.3558C168.751 75.2345 168.335 75.1738 167.936 75.1738C167.468 75.1738 167.087 75.2302 166.792 75.3428C166.506 75.4555 166.294 75.6028 166.155 75.7848C166.025 75.9668 165.96 76.1748 165.96 76.4088C165.96 76.6862 166.055 76.9115 166.246 77.0848C166.445 77.2495 166.701 77.3795 167.013 77.4748C167.334 77.5702 167.689 77.6655 168.079 77.7608C168.469 77.8475 168.855 77.9472 169.236 78.0598C169.626 78.1725 169.977 78.3198 170.289 78.5018C170.61 78.6838 170.865 78.9308 171.056 79.2428C171.255 79.5548 171.355 79.9492 171.355 80.4258C171.355 80.9112 171.221 81.3618 170.952 81.7778C170.692 82.1852 170.289 82.5145 169.743 82.7658C169.197 83.0085 168.508 83.1298 167.676 83.1298Z" fill="#C92020"/>
<path d="M172.264 82.9998V81.8688L175.878 78.4368C176.181 78.1508 176.406 77.8995 176.554 77.6828C176.701 77.4662 176.796 77.2668 176.84 77.0848C176.892 76.8942 176.918 76.7165 176.918 76.5518C176.918 76.1358 176.775 75.8152 176.489 75.5898C176.203 75.3558 175.782 75.2388 175.228 75.2388C174.786 75.2388 174.383 75.3168 174.019 75.4728C173.663 75.6288 173.356 75.8672 173.096 76.1878L171.913 75.2778C172.268 74.8012 172.745 74.4328 173.343 74.1728C173.949 73.9042 174.625 73.7698 175.371 73.7698C176.029 73.7698 176.601 73.8782 177.087 74.0948C177.581 74.3028 177.958 74.6018 178.218 74.9918C178.486 75.3818 178.621 75.8455 178.621 76.3828C178.621 76.6775 178.582 76.9722 178.504 77.2668C178.426 77.5528 178.278 77.8562 178.062 78.1768C177.845 78.4975 177.529 78.8572 177.113 79.2558L174.006 82.2068L173.655 81.5698H178.972V82.9998H172.264Z" fill="#C92020"/>
<path d="M182.963 83.1298C182.322 83.1298 181.693 83.0388 181.078 82.8568C180.471 82.6662 179.96 82.4062 179.544 82.0768L180.259 80.7638C180.588 81.0325 180.987 81.2492 181.455 81.4138C181.932 81.5785 182.426 81.6608 182.937 81.6608C183.535 81.6608 184.003 81.5352 184.341 81.2838C184.688 81.0325 184.861 80.6945 184.861 80.2698C184.861 79.9838 184.787 79.7325 184.64 79.5158C184.501 79.2992 184.25 79.1345 183.886 79.0218C183.531 78.9092 183.041 78.8528 182.417 78.8528H180.22L180.688 73.8998H186.031V75.3168H181.312L182.196 74.5108L181.845 78.2158L180.961 77.4228H182.794C183.695 77.4228 184.419 77.5442 184.965 77.7868C185.52 78.0208 185.923 78.3502 186.174 78.7748C186.434 79.1908 186.564 79.6675 186.564 80.2048C186.564 80.7335 186.434 81.2188 186.174 81.6608C185.914 82.1028 185.515 82.4582 184.978 82.7268C184.449 82.9955 183.778 83.1298 182.963 83.1298Z" fill="#C92020"/>
<path d="M188.553 83.0908C188.258 83.0908 188.007 82.9912 187.799 82.7918C187.591 82.5838 187.487 82.3238 187.487 82.0118C187.487 81.6825 187.591 81.4225 187.799 81.2318C188.007 81.0325 188.258 80.9328 188.553 80.9328C188.848 80.9328 189.099 81.0325 189.307 81.2318C189.515 81.4225 189.619 81.6825 189.619 82.0118C189.619 82.3238 189.515 82.5838 189.307 82.7918C189.099 82.9912 188.848 83.0908 188.553 83.0908Z" fill="#C92020"/>
<path d="M193.781 73.7698C194.613 73.7698 195.319 73.9475 195.9 74.3028C196.489 74.6495 196.94 75.1565 197.252 75.8238C197.564 76.4912 197.72 77.3145 197.72 78.2938C197.72 79.3338 197.529 80.2135 197.148 80.9328C196.775 81.6522 196.255 82.1982 195.588 82.5708C194.92 82.9435 194.145 83.1298 193.261 83.1298C192.801 83.1298 192.364 83.0822 191.948 82.9868C191.532 82.8915 191.172 82.7442 190.869 82.5448L191.493 81.2708C191.744 81.4355 192.017 81.5525 192.312 81.6218C192.606 81.6825 192.91 81.7128 193.222 81.7128C194.08 81.7128 194.76 81.4485 195.263 80.9198C195.765 80.3912 196.017 79.6112 196.017 78.5798C196.017 78.4152 196.012 78.2245 196.004 78.0078C195.995 77.7825 195.965 77.5572 195.913 77.3318L196.433 77.9038C196.285 78.2592 196.073 78.5582 195.796 78.8008C195.518 79.0348 195.193 79.2125 194.821 79.3338C194.448 79.4552 194.036 79.5158 193.586 79.5158C192.996 79.5158 192.463 79.4032 191.987 79.1778C191.519 78.9438 191.146 78.6188 190.869 78.2028C190.591 77.7782 190.453 77.2842 190.453 76.7208C190.453 76.1142 190.6 75.5942 190.895 75.1608C191.189 74.7188 191.588 74.3765 192.091 74.1338C192.602 73.8912 193.165 73.7698 193.781 73.7698ZM193.872 75.0958C193.525 75.0958 193.217 75.1608 192.949 75.2908C192.68 75.4122 192.468 75.5898 192.312 75.8238C192.164 76.0492 192.091 76.3222 192.091 76.6428C192.091 77.1195 192.255 77.4965 192.585 77.7738C192.914 78.0512 193.356 78.1898 193.911 78.1898C194.275 78.1898 194.595 78.1248 194.873 77.9948C195.15 77.8562 195.367 77.6698 195.523 77.4358C195.679 77.1932 195.757 76.9245 195.757 76.6298C195.757 76.3438 195.683 76.0882 195.536 75.8628C195.388 75.6288 195.176 75.4425 194.899 75.3038C194.621 75.1652 194.279 75.0958 193.872 75.0958Z" fill="#C92020"/>
<path d="M201.931 73.7698C202.763 73.7698 203.469 73.9475 204.05 74.3028C204.639 74.6495 205.09 75.1565 205.402 75.8238C205.714 76.4912 205.87 77.3145 205.87 78.2938C205.87 79.3338 205.679 80.2135 205.298 80.9328C204.925 81.6522 204.405 82.1982 203.738 82.5708C203.071 82.9435 202.295 83.1298 201.411 83.1298C200.952 83.1298 200.514 83.0822 200.098 82.9868C199.682 82.8915 199.322 82.7442 199.019 82.5448L199.643 81.2708C199.894 81.4355 200.167 81.5525 200.462 81.6218C200.757 81.6825 201.06 81.7128 201.372 81.7128C202.23 81.7128 202.91 81.4485 203.413 80.9198C203.916 80.3912 204.167 79.6112 204.167 78.5798C204.167 78.4152 204.163 78.2245 204.154 78.0078C204.145 77.7825 204.115 77.5572 204.063 77.3318L204.583 77.9038C204.436 78.2592 204.223 78.5582 203.946 78.8008C203.669 79.0348 203.344 79.2125 202.971 79.3338C202.598 79.4552 202.187 79.5158 201.736 79.5158C201.147 79.5158 200.614 79.4032 200.137 79.1778C199.669 78.9438 199.296 78.6188 199.019 78.2028C198.742 77.7782 198.603 77.2842 198.603 76.7208C198.603 76.1142 198.75 75.5942 199.045 75.1608C199.34 74.7188 199.738 74.3765 200.241 74.1338C200.752 73.8912 201.316 73.7698 201.931 73.7698ZM202.022 75.0958C201.675 75.0958 201.368 75.1608 201.099 75.2908C200.83 75.4122 200.618 75.5898 200.462 75.8238C200.315 76.0492 200.241 76.3222 200.241 76.6428C200.241 77.1195 200.406 77.4965 200.735 77.7738C201.064 78.0512 201.506 78.1898 202.061 78.1898C202.425 78.1898 202.746 78.1248 203.023 77.9948C203.3 77.8562 203.517 77.6698 203.673 77.4358C203.829 77.1932 203.907 76.9245 203.907 76.6298C203.907 76.3438 203.833 76.0882 203.686 75.8628C203.539 75.6288 203.326 75.4425 203.049 75.3038C202.772 75.1652 202.429 75.0958 202.022 75.0958Z" fill="#C92020"/>
<path d="M215.468 83.1298C214.775 83.1298 214.129 83.0172 213.531 82.7918C212.942 82.5578 212.426 82.2328 211.984 81.8168C211.551 81.3922 211.213 80.8938 210.97 80.3218C210.728 79.7498 210.606 79.1258 210.606 78.4498C210.606 77.7738 210.728 77.1498 210.97 76.5778C211.213 76.0058 211.555 75.5118 211.997 75.0958C212.439 74.6712 212.955 74.3462 213.544 74.1208C214.134 73.8868 214.779 73.7698 215.481 73.7698C216.227 73.7698 216.907 73.8998 217.522 74.1598C218.138 74.4112 218.658 74.7882 219.082 75.2908L217.99 76.3178C217.661 75.9625 217.293 75.6982 216.885 75.5248C216.478 75.3428 216.036 75.2518 215.559 75.2518C215.083 75.2518 214.645 75.3298 214.246 75.4858C213.856 75.6418 213.514 75.8628 213.219 76.1488C212.933 76.4348 212.708 76.7728 212.543 77.1628C212.387 77.5528 212.309 77.9818 212.309 78.4498C212.309 78.9178 212.387 79.3468 212.543 79.7368C212.708 80.1268 212.933 80.4648 213.219 80.7508C213.514 81.0368 213.856 81.2578 214.246 81.4138C214.645 81.5698 215.083 81.6478 215.559 81.6478C216.036 81.6478 216.478 81.5612 216.885 81.3878C217.293 81.2058 217.661 80.9328 217.99 80.5688L219.082 81.6088C218.658 82.1028 218.138 82.4798 217.522 82.7398C216.907 82.9998 216.222 83.1298 215.468 83.1298Z" fill="#C92020"/>
<path d="M219.224 82.9998L223.319 73.8998H224.983L229.091 82.9998H227.323L223.8 74.7968H224.476L220.966 82.9998H219.224ZM221.109 80.8938L221.564 79.5678H226.478L226.933 80.8938H221.109Z" fill="#C92020"/>
<path d="M230.248 82.9998V73.8998H234.226C235.214 73.8998 236.081 74.0905 236.826 74.4718C237.572 74.8532 238.152 75.3818 238.568 76.0578C238.984 76.7338 239.192 77.5312 239.192 78.4498C239.192 79.3598 238.984 80.1572 238.568 80.8418C238.152 81.5178 237.572 82.0465 236.826 82.4278C236.081 82.8092 235.214 82.9998 234.226 82.9998H230.248ZM231.938 81.5698H234.148C234.833 81.5698 235.422 81.4398 235.916 81.1798C236.419 80.9198 236.805 80.5558 237.073 80.0878C237.351 79.6198 237.489 79.0738 237.489 78.4498C237.489 77.8172 237.351 77.2712 237.073 76.8118C236.805 76.3438 236.419 75.9798 235.916 75.7198C235.422 75.4598 234.833 75.3298 234.148 75.3298H231.938V81.5698Z" fill="#C92020"/>
</svg>
