<svg width="343" height="98" viewBox="0 0 343 98" fill="none" xmlns="http://www.w3.org/2000/svg">
<path d="M0 10C0 4.47715 4.47715 0 10 0H333C338.523 0 343 4.47715 343 10V88C343 93.5229 338.523 98 333 98H10C4.47716 98 0 93.5229 0 88V10Z" fill="white"/>
<path d="M13.636 21C13.636 15.4772 18.1131 11 23.636 11H143.144C148.666 11 153.144 15.4772 153.144 21V77C153.144 82.5229 148.666 87 143.144 87H23.636C18.1131 87 13.636 82.5229 13.636 77V21Z" fill="#E0E2E6"/>
<path d="M164.855 22.9999V13.8999H166.545V22.9999H164.855Z" fill="#C92020"/>
<path d="M171.463 23.0909C170.701 23.0909 170.111 22.8959 169.695 22.5059C169.279 22.1072 169.071 21.5222 169.071 20.7509V14.5239H170.696V20.7119C170.696 21.0412 170.779 21.2969 170.943 21.4789C171.117 21.6609 171.355 21.7519 171.658 21.7519C172.022 21.7519 172.326 21.6566 172.568 21.4659L173.023 22.6229C172.833 22.7789 172.599 22.8959 172.321 22.9739C172.044 23.0519 171.758 23.0909 171.463 23.0909ZM167.927 17.4099V16.1099H172.555V17.4099H167.927Z" fill="#C92020"/>
<path d="M177.395 23.0909C176.623 23.0909 175.947 22.9392 175.367 22.6359C174.795 22.3239 174.348 21.8992 174.028 21.3619C173.716 20.8246 173.56 20.2136 173.56 19.5289C173.56 18.8356 173.711 18.2246 174.015 17.6959C174.327 17.1586 174.751 16.7382 175.289 16.4349C175.835 16.1316 176.454 15.9799 177.148 15.9799C177.824 15.9799 178.426 16.1272 178.955 16.4219C179.483 16.7166 179.899 17.1326 180.203 17.6699C180.506 18.2072 180.658 18.8399 180.658 19.5679C180.658 19.6372 180.653 19.7152 180.645 19.8019C180.645 19.8886 180.64 19.9709 180.632 20.0489H174.847V18.9699H179.774L179.137 19.3079C179.145 18.9092 179.063 18.5582 178.89 18.2549C178.716 17.9516 178.478 17.7132 178.175 17.5399C177.88 17.3666 177.538 17.2799 177.148 17.2799C176.749 17.2799 176.398 17.3666 176.095 17.5399C175.8 17.7132 175.566 17.9559 175.393 18.2679C175.228 18.5712 175.146 18.9309 175.146 19.3469V19.6069C175.146 20.0229 175.241 20.3912 175.432 20.7119C175.622 21.0326 175.891 21.2796 176.238 21.4529C176.584 21.6262 176.983 21.7129 177.434 21.7129C177.824 21.7129 178.175 21.6522 178.487 21.5309C178.799 21.4096 179.076 21.2189 179.319 20.9589L180.19 21.9599C179.878 22.3239 179.483 22.6056 179.007 22.8049C178.539 22.9956 178.001 23.0909 177.395 23.0909Z" fill="#C92020"/>
<path d="M190.981 15.9799C191.535 15.9799 192.025 16.0882 192.45 16.3049C192.883 16.5216 193.221 16.8552 193.464 17.3059C193.706 17.7479 193.828 18.3199 193.828 19.0219V22.9999H192.203V19.2299C192.203 18.6146 192.068 18.1552 191.8 17.8519C191.531 17.5486 191.145 17.3969 190.643 17.3969C190.287 17.3969 189.971 17.4749 189.694 17.6309C189.425 17.7869 189.213 18.0166 189.057 18.3199C188.909 18.6232 188.836 19.0089 188.836 19.4769V22.9999H187.211V19.2299C187.211 18.6146 187.076 18.1552 186.808 17.8519C186.539 17.5486 186.153 17.3969 185.651 17.3969C185.295 17.3969 184.979 17.4749 184.702 17.6309C184.433 17.7869 184.221 18.0166 184.065 18.3199C183.917 18.6232 183.844 19.0089 183.844 19.4769V22.9999H182.219V16.0579H183.766V17.9039L183.493 17.3579C183.727 16.9072 184.065 16.5649 184.507 16.3309C184.957 16.0969 185.469 15.9799 186.041 15.9799C186.691 15.9799 187.254 16.1402 187.731 16.4609C188.216 16.7816 188.537 17.2669 188.693 17.9169L188.056 17.6959C188.281 17.1759 188.654 16.7599 189.174 16.4479C189.694 16.1359 190.296 15.9799 190.981 15.9799Z" fill="#C92020"/>
<path d="M201.863 23.1299C201.221 23.1299 200.593 23.0389 199.978 22.8569C199.371 22.6662 198.86 22.4062 198.444 22.0769L199.172 20.7639C199.501 21.0326 199.9 21.2492 200.368 21.4139C200.836 21.5786 201.326 21.6609 201.837 21.6609C202.444 21.6609 202.916 21.5396 203.254 21.2969C203.592 21.0456 203.761 20.7076 203.761 20.2829C203.761 19.8669 203.605 19.5376 203.293 19.2949C202.981 19.0522 202.478 18.9309 201.785 18.9309H200.953V17.7739L203.553 14.6799L203.774 15.3169H198.886V13.8999H205.087V15.0309L202.487 18.1249L201.603 17.6049H202.11C203.228 17.6049 204.064 17.8562 204.619 18.3589C205.182 18.8529 205.464 19.4899 205.464 20.2699C205.464 20.7812 205.334 21.2536 205.074 21.6869C204.814 22.1202 204.415 22.4712 203.878 22.7399C203.349 22.9999 202.677 23.1299 201.863 23.1299Z" fill="#C92020"/>
<path d="M167.273 84.5598V72.3398H168.339V84.5598H167.273ZM167.676 83.1298C166.965 83.1298 166.285 83.0302 165.635 82.8308C164.985 82.6228 164.469 82.3585 164.088 82.0378L164.673 80.7248C165.037 81.0108 165.488 81.2492 166.025 81.4398C166.562 81.6305 167.113 81.7258 167.676 81.7258C168.153 81.7258 168.538 81.6738 168.833 81.5698C169.128 81.4658 169.344 81.3272 169.483 81.1538C169.622 80.9718 169.691 80.7682 169.691 80.5428C169.691 80.2655 169.591 80.0445 169.392 79.8798C169.193 79.7065 168.933 79.5722 168.612 79.4768C168.3 79.3728 167.949 79.2775 167.559 79.1908C167.178 79.1042 166.792 79.0045 166.402 78.8918C166.021 78.7705 165.67 78.6188 165.349 78.4368C165.037 78.2462 164.781 77.9948 164.582 77.6828C164.383 77.3708 164.283 76.9722 164.283 76.4868C164.283 75.9928 164.413 75.5422 164.673 75.1348C164.942 74.7188 165.345 74.3895 165.882 74.1468C166.428 73.8955 167.117 73.7698 167.949 73.7698C168.495 73.7698 169.037 73.8392 169.574 73.9778C170.111 74.1165 170.579 74.3158 170.978 74.5758L170.445 75.8888C170.038 75.6462 169.617 75.4685 169.184 75.3558C168.751 75.2345 168.335 75.1738 167.936 75.1738C167.468 75.1738 167.087 75.2302 166.792 75.3428C166.506 75.4555 166.294 75.6028 166.155 75.7848C166.025 75.9668 165.96 76.1748 165.96 76.4088C165.96 76.6862 166.055 76.9115 166.246 77.0848C166.445 77.2495 166.701 77.3795 167.013 77.4748C167.334 77.5702 167.689 77.6655 168.079 77.7608C168.469 77.8475 168.855 77.9472 169.236 78.0598C169.626 78.1725 169.977 78.3198 170.289 78.5018C170.61 78.6838 170.865 78.9308 171.056 79.2428C171.255 79.5548 171.355 79.9492 171.355 80.4258C171.355 80.9112 171.221 81.3618 170.952 81.7778C170.692 82.1852 170.289 82.5145 169.743 82.7658C169.197 83.0085 168.508 83.1298 167.676 83.1298Z" fill="#C92020"/>
<path d="M173.71 82.9998V74.5498L174.451 75.3168H171.786V73.8998H175.4V82.9998H173.71Z" fill="#C92020"/>
<path d="M180.221 83.1298C179.58 83.1298 178.951 83.0388 178.336 82.8568C177.729 82.6662 177.218 82.4062 176.802 82.0768L177.517 80.7638C177.846 81.0325 178.245 81.2492 178.713 81.4138C179.19 81.5785 179.684 81.6608 180.195 81.6608C180.793 81.6608 181.261 81.5352 181.599 81.2838C181.946 81.0325 182.119 80.6945 182.119 80.2698C182.119 79.9838 182.045 79.7325 181.898 79.5158C181.759 79.2992 181.508 79.1345 181.144 79.0218C180.789 78.9092 180.299 78.8528 179.675 78.8528H177.478L177.946 73.8998H183.289V75.3168H178.57L179.454 74.5108L179.103 78.2158L178.219 77.4228H180.052C180.953 77.4228 181.677 77.5442 182.223 77.7868C182.778 78.0208 183.181 78.3502 183.432 78.7748C183.692 79.1908 183.822 79.6675 183.822 80.2048C183.822 80.7335 183.692 81.2188 183.432 81.6608C183.172 82.1028 182.773 82.4582 182.236 82.7268C181.707 82.9955 181.036 83.1298 180.221 83.1298Z" fill="#C92020"/>
<path d="M185.811 83.0908C185.516 83.0908 185.265 82.9912 185.057 82.7918C184.849 82.5838 184.745 82.3238 184.745 82.0118C184.745 81.6825 184.849 81.4225 185.057 81.2318C185.265 81.0325 185.516 80.9328 185.811 80.9328C186.105 80.9328 186.357 81.0325 186.565 81.2318C186.773 81.4225 186.877 81.6825 186.877 82.0118C186.877 82.3238 186.773 82.5838 186.565 82.7918C186.357 82.9912 186.105 83.0908 185.811 83.0908Z" fill="#C92020"/>
<path d="M191.039 73.7698C191.871 73.7698 192.577 73.9475 193.158 74.3028C193.747 74.6495 194.198 75.1565 194.51 75.8238C194.822 76.4912 194.978 77.3145 194.978 78.2938C194.978 79.3338 194.787 80.2135 194.406 80.9328C194.033 81.6522 193.513 82.1982 192.846 82.5708C192.178 82.9435 191.403 83.1298 190.519 83.1298C190.059 83.1298 189.622 83.0822 189.206 82.9868C188.79 82.8915 188.43 82.7442 188.127 82.5448L188.751 81.2708C189.002 81.4355 189.275 81.5525 189.57 81.6218C189.864 81.6825 190.168 81.7128 190.48 81.7128C191.338 81.7128 192.018 81.4485 192.521 80.9198C193.023 80.3912 193.275 79.6112 193.275 78.5798C193.275 78.4152 193.27 78.2245 193.262 78.0078C193.253 77.7825 193.223 77.5572 193.171 77.3318L193.691 77.9038C193.543 78.2592 193.331 78.5582 193.054 78.8008C192.776 79.0348 192.451 79.2125 192.079 79.3338C191.706 79.4552 191.294 79.5158 190.844 79.5158C190.254 79.5158 189.721 79.4032 189.245 79.1778C188.777 78.9438 188.404 78.6188 188.127 78.2028C187.849 77.7782 187.711 77.2842 187.711 76.7208C187.711 76.1142 187.858 75.5942 188.153 75.1608C188.447 74.7188 188.846 74.3765 189.349 74.1338C189.86 73.8912 190.423 73.7698 191.039 73.7698ZM191.13 75.0958C190.783 75.0958 190.475 75.1608 190.207 75.2908C189.938 75.4122 189.726 75.5898 189.57 75.8238C189.422 76.0492 189.349 76.3222 189.349 76.6428C189.349 77.1195 189.513 77.4965 189.843 77.7738C190.172 78.0512 190.614 78.1898 191.169 78.1898C191.533 78.1898 191.853 78.1248 192.131 77.9948C192.408 77.8562 192.625 77.6698 192.781 77.4358C192.937 77.1932 193.015 76.9245 193.015 76.6298C193.015 76.3438 192.941 76.0882 192.794 75.8628C192.646 75.6288 192.434 75.4425 192.157 75.3038C191.879 75.1652 191.537 75.0958 191.13 75.0958Z" fill="#C92020"/>
<path d="M199.189 73.7698C200.021 73.7698 200.727 73.9475 201.308 74.3028C201.897 74.6495 202.348 75.1565 202.66 75.8238C202.972 76.4912 203.128 77.3145 203.128 78.2938C203.128 79.3338 202.937 80.2135 202.556 80.9328C202.183 81.6522 201.663 82.1982 200.996 82.5708C200.329 82.9435 199.553 83.1298 198.669 83.1298C198.21 83.1298 197.772 83.0822 197.356 82.9868C196.94 82.8915 196.58 82.7442 196.277 82.5448L196.901 81.2708C197.152 81.4355 197.425 81.5525 197.72 81.6218C198.015 81.6825 198.318 81.7128 198.63 81.7128C199.488 81.7128 200.168 81.4485 200.671 80.9198C201.174 80.3912 201.425 79.6112 201.425 78.5798C201.425 78.4152 201.421 78.2245 201.412 78.0078C201.403 77.7825 201.373 77.5572 201.321 77.3318L201.841 77.9038C201.694 78.2592 201.481 78.5582 201.204 78.8008C200.927 79.0348 200.602 79.2125 200.229 79.3338C199.856 79.4552 199.445 79.5158 198.994 79.5158C198.405 79.5158 197.872 79.4032 197.395 79.1778C196.927 78.9438 196.554 78.6188 196.277 78.2028C196 77.7782 195.861 77.2842 195.861 76.7208C195.861 76.1142 196.008 75.5942 196.303 75.1608C196.598 74.7188 196.996 74.3765 197.499 74.1338C198.01 73.8912 198.574 73.7698 199.189 73.7698ZM199.28 75.0958C198.933 75.0958 198.626 75.1608 198.357 75.2908C198.088 75.4122 197.876 75.5898 197.72 75.8238C197.573 76.0492 197.499 76.3222 197.499 76.6428C197.499 77.1195 197.664 77.4965 197.993 77.7738C198.322 78.0512 198.764 78.1898 199.319 78.1898C199.683 78.1898 200.004 78.1248 200.281 77.9948C200.558 77.8562 200.775 77.6698 200.931 77.4358C201.087 77.1932 201.165 76.9245 201.165 76.6298C201.165 76.3438 201.091 76.0882 200.944 75.8628C200.797 75.6288 200.584 75.4425 200.307 75.3038C200.03 75.1652 199.687 75.0958 199.28 75.0958Z" fill="#C92020"/>
<path d="M212.726 83.1298C212.033 83.1298 211.387 83.0172 210.789 82.7918C210.2 82.5578 209.684 82.2328 209.242 81.8168C208.809 81.3922 208.471 80.8938 208.228 80.3218C207.985 79.7498 207.864 79.1258 207.864 78.4498C207.864 77.7738 207.985 77.1498 208.228 76.5778C208.471 76.0058 208.813 75.5118 209.255 75.0958C209.697 74.6712 210.213 74.3462 210.802 74.1208C211.391 73.8868 212.037 73.7698 212.739 73.7698C213.484 73.7698 214.165 73.8998 214.78 74.1598C215.395 74.4112 215.915 74.7882 216.34 75.2908L215.248 76.3178C214.919 75.9625 214.55 75.6982 214.143 75.5248C213.736 75.3428 213.294 75.2518 212.817 75.2518C212.34 75.2518 211.903 75.3298 211.504 75.4858C211.114 75.6418 210.772 75.8628 210.477 76.1488C210.191 76.4348 209.966 76.7728 209.801 77.1628C209.645 77.5528 209.567 77.9818 209.567 78.4498C209.567 78.9178 209.645 79.3468 209.801 79.7368C209.966 80.1268 210.191 80.4648 210.477 80.7508C210.772 81.0368 211.114 81.2578 211.504 81.4138C211.903 81.5698 212.34 81.6478 212.817 81.6478C213.294 81.6478 213.736 81.5612 214.143 81.3878C214.55 81.2058 214.919 80.9328 215.248 80.5688L216.34 81.6088C215.915 82.1028 215.395 82.4798 214.78 82.7398C214.165 82.9998 213.48 83.1298 212.726 83.1298Z" fill="#C92020"/>
<path d="M216.482 82.9998L220.577 73.8998H222.241L226.349 82.9998H224.581L221.058 74.7968H221.734L218.224 82.9998H216.482ZM218.367 80.8938L218.822 79.5678H223.736L224.191 80.8938H218.367Z" fill="#C92020"/>
<path d="M227.506 82.9998V73.8998H231.484C232.472 73.8998 233.339 74.0905 234.084 74.4718C234.83 74.8532 235.41 75.3818 235.826 76.0578C236.242 76.7338 236.45 77.5312 236.45 78.4498C236.45 79.3598 236.242 80.1572 235.826 80.8418C235.41 81.5178 234.83 82.0465 234.084 82.4278C233.339 82.8092 232.472 82.9998 231.484 82.9998H227.506ZM229.196 81.5698H231.406C232.091 81.5698 232.68 81.4398 233.174 81.1798C233.677 80.9198 234.063 80.5558 234.331 80.0878C234.609 79.6198 234.747 79.0738 234.747 78.4498C234.747 77.8172 234.609 77.2712 234.331 76.8118C234.063 76.3438 233.677 75.9798 233.174 75.7198C232.68 75.4598 232.091 75.3298 231.406 75.3298H229.196V81.5698Z" fill="#C92020"/>
</svg>
