<svg width="137" height="33" viewBox="0 0 137 33" fill="none" xmlns="http://www.w3.org/2000/svg">
<path fill-rule="evenodd" clip-rule="evenodd" d="M4.64458 15.5198H19.1246V18.0398H4.64458V28.4398H21.4846V30.9998H1.68457V2.99982H20.8846V5.55982H4.64458V15.5198ZM5.64458 6.55982H21.8846V1.99982H0.68457V31.9998H22.4846V27.4398H5.64458V19.0398H20.1246V14.5198H5.64458V6.55982ZM27.3011 22.3998V17.9198H39.7811V22.3998H27.3011ZM66.5307 13.2532C67.077 12.5485 67.745 11.9307 68.5346 11.3998C70.1079 10.3332 71.9879 9.79983 74.1746 9.79983C75.8812 9.79983 77.3613 10.1332 78.6146 10.7998C79.8946 11.4398 80.8812 12.4265 81.5746 13.7598C82.2946 15.0932 82.6546 16.7732 82.6546 18.7998V30.9998H79.8146V19.0798C79.8146 16.8665 79.2812 15.1998 78.2146 14.0798C77.1746 12.9332 75.6946 12.3598 73.7746 12.3598C72.3346 12.3598 71.0813 12.6665 70.0146 13.2798C68.9746 13.8665 68.1613 14.7332 67.5746 15.8798C67.5373 15.9544 67.5013 16.03 67.4665 16.1067C67.2995 16.4748 67.161 16.8673 67.0512 17.2843C66.8401 18.0857 66.7346 18.9775 66.7346 19.9598V30.9998H63.8946V19.0798C63.8946 16.8665 63.3613 15.1998 62.2946 14.0798C61.2279 12.9332 59.7346 12.3598 57.8146 12.3598C56.4012 12.3598 55.1612 12.6665 54.0946 13.2798C53.0279 13.8665 52.2012 14.7332 51.6146 15.8798C51.0546 16.9998 50.7746 18.3598 50.7746 19.9598V30.9998H47.9346V9.99982H50.6546V13.7911C50.9388 13.298 51.2722 12.8472 51.6546 12.4387C52.1265 11.9347 52.6732 11.495 53.2946 11.1198C54.7346 10.2398 56.4279 9.79983 58.3746 9.79983C60.4279 9.79983 62.1746 10.3198 63.6146 11.3598C64.3098 11.849 64.8869 12.4594 65.3459 13.191C65.548 13.5132 65.7272 13.8588 65.8835 14.2279C66.076 13.8864 66.2917 13.5615 66.5307 13.2532ZM65.9825 12.3416C66.5459 11.6758 67.2109 11.085 67.975 10.571C67.9745 10.5714 67.9739 10.5718 67.9734 10.5721M65.9825 12.3416C65.4959 11.6449 64.9014 11.0434 64.195 10.5455C62.56 9.3664 60.6019 8.79983 58.3746 8.79983C56.2738 8.79983 54.395 9.27611 52.7758 10.2649C52.375 10.507 52.0012 10.7736 51.6546 11.0644V8.99982H46.9346V31.9998H51.7746V19.9598C51.7746 18.4753 52.0343 17.2784 52.507 16.331C53.0081 15.3535 53.6966 14.64 54.5765 14.156L54.5848 14.1515L54.593 14.1467C55.4867 13.6329 56.5498 13.3598 57.8146 13.3598C59.5243 13.3598 60.7264 13.8623 61.5623 14.761L61.5704 14.7695C62.3962 15.6365 62.8946 17.0127 62.8946 19.0798V31.9998H67.7346V19.9598C67.7346 18.4753 67.9943 17.2784 68.467 16.331C68.9715 15.3468 69.6515 14.6328 70.5059 14.1508L70.513 14.1467C71.404 13.6344 72.4795 13.3598 73.7746 13.3598C75.4854 13.3598 76.6674 13.8625 77.4739 14.7516L77.482 14.7607L77.4904 14.7695C78.3162 15.6365 78.8146 17.0127 78.8146 19.0798V31.9998H83.6546V18.7998C83.6546 16.6642 83.2765 14.8104 82.4581 13.2914C81.6748 11.7883 80.5438 10.6493 79.0731 9.91106C77.6512 9.15742 76.0074 8.79983 74.1746 8.79983C71.8195 8.79983 69.7375 9.37662 67.975 10.571M105.316 31.9998V30.2872C105.08 30.4708 104.83 30.6441 104.568 30.8071C103.061 31.7592 101.209 32.1998 99.0764 32.1998C97.3974 32.1998 95.8839 31.9296 94.56 31.3579L94.5473 31.3524L94.5347 31.3465C93.2496 30.7488 92.218 29.9191 91.4882 28.8401L91.4807 28.8291C90.7522 27.7203 90.3964 26.4598 90.3964 25.0798C90.3964 23.8252 90.6891 22.6642 91.2898 21.6209L91.2945 21.6128C91.953 20.4934 92.9825 19.6504 94.2982 19.0515C95.68 18.4078 97.4404 18.1198 99.5164 18.1198H105.196V17.8398C105.196 16.2465 104.751 15.1675 103.989 14.4458L103.979 14.4366C103.247 13.7242 102.062 13.2798 100.236 13.2798C98.99 13.2798 97.8144 13.4871 96.7031 13.8978C95.5735 14.3153 94.6436 14.8573 93.8949 15.5124L92.9971 16.2981L90.6608 12.4287L91.3088 11.8779C92.4852 10.8779 93.8824 10.1256 95.4828 9.61026C97.0822 9.06854 98.762 8.79983 100.516 8.79983C103.393 8.79983 105.76 9.51936 107.469 11.0999C109.241 12.6858 110.036 15.0423 110.036 17.9598V31.9998H105.316ZM95.7964 10.5598C94.3031 11.0398 93.0231 11.7332 91.9564 12.6398L93.2364 14.7598C93.4857 14.5417 93.751 14.3361 94.0321 14.143C94.7134 13.6751 95.4881 13.2807 96.3564 12.9598C97.5831 12.5065 98.8764 12.2798 100.236 12.2798C102.21 12.2798 103.69 12.7598 104.676 13.7198C105.69 14.6798 106.196 16.0532 106.196 17.8398V19.1198H99.5164C97.5164 19.1198 95.9164 19.3998 94.7164 19.9598C93.5431 20.4932 92.6898 21.2132 92.1564 22.1198C91.6498 22.9998 91.3964 23.9865 91.3964 25.0798C91.3964 26.2798 91.7031 27.3465 92.3164 28.2798C92.9298 29.1865 93.8098 29.9065 94.9564 30.4398C96.1298 30.9465 97.5031 31.1998 99.0764 31.1998C101.076 31.1998 102.73 30.7865 104.036 29.9598C104.515 29.6634 104.941 29.331 105.316 28.9626C105.705 28.5812 106.038 28.1612 106.316 27.7027V30.9998H109.036V17.9598C109.036 15.2132 108.29 13.1732 106.796 11.8398C105.33 10.4798 103.236 9.79983 100.516 9.79983C98.8631 9.79983 97.2898 10.0532 95.7964 10.5598ZM106.196 21.2398H99.5964C97.5698 21.2398 96.1564 21.5998 95.3564 22.3198C94.5831 23.0398 94.1964 23.9332 94.1964 24.9998C94.1964 26.1998 94.6631 27.1598 95.5964 27.8798C96.5298 28.5998 97.8364 28.9598 99.5164 28.9598C101.116 28.9598 102.49 28.5998 103.636 27.8798C104.29 27.4637 104.845 26.9483 105.3 26.3334C105.391 26.2108 105.478 26.0842 105.56 25.9536C105.618 25.8622 105.674 25.7689 105.729 25.6737C105.742 25.6492 105.756 25.6246 105.77 25.5998C105.93 25.3106 106.072 25.004 106.196 24.6798V21.2398ZM105.196 22.2398H99.5964C97.6322 22.2398 96.5451 22.6001 96.0313 23.0579C95.4678 23.5854 95.1964 24.2108 95.1964 24.9998C95.1964 25.8964 95.5245 26.5613 96.2072 27.088C96.9049 27.6262 97.966 27.9598 99.5164 27.9598C100.961 27.9598 102.142 27.6366 103.102 27.0348C104.035 26.4404 104.733 25.6042 105.196 24.4877V22.2398ZM118.55 31.9998V8.99982H123.39V31.9998H118.55ZM120.99 6.35983C120.149 6.35983 119.398 6.06209 118.803 5.46693C118.218 4.88154 117.91 4.14805 117.91 3.31983C117.91 2.49566 118.216 1.76619 118.816 1.20037C119.409 0.613336 120.155 0.319824 120.99 0.319824C121.81 0.319824 122.553 0.589413 123.153 1.14877C123.76 1.7162 124.07 2.45002 124.07 3.27983C124.07 4.11496 123.777 4.86147 123.19 5.45468C122.605 6.07421 121.838 6.35983 120.99 6.35983ZM122.47 4.75983C122.87 4.35983 123.07 3.86649 123.07 3.27983C123.07 2.71982 122.87 2.25316 122.47 1.87982C122.07 1.50649 121.577 1.31982 120.99 1.31982C120.404 1.31982 119.91 1.51982 119.51 1.91982C119.11 2.29316 118.91 2.75982 118.91 3.31983C118.91 3.87983 119.11 4.35983 119.51 4.75983C119.91 5.15983 120.404 5.35983 120.99 5.35983C121.604 5.35983 122.097 5.15983 122.47 4.75983ZM132.092 31.9998V0.319824H136.932V31.9998H132.092ZM28.3011 21.3998H38.7811V18.9198H28.3011V21.3998ZM119.55 30.9998H122.39V9.99982H119.55V30.9998ZM133.092 30.9998H135.932V1.31982H133.092V30.9998Z" fill="black"/>
</svg>
