<svg width="135" height="31" viewBox="0 0 135 31" fill="none" xmlns="http://www.w3.org/2000/svg">
<path d="M3.32457 14.5198H18.1246V17.0398H3.32457V14.5198ZM3.64458 27.4398H20.4846V29.9998H0.68457V1.99982H19.8846V4.55982H3.64458V27.4398Z" fill="black"/>
<path d="M27.3011 20.3998V17.9198H37.7811V20.3998H27.3011Z" fill="black"/>
<path d="M73.1746 8.79983C74.8812 8.79983 76.3612 9.13316 77.6146 9.79983C78.8946 10.4398 79.8812 11.4265 80.5746 12.7598C81.2946 14.0932 81.6546 15.7732 81.6546 17.7998V29.9998H78.8146V18.0798C78.8146 15.8665 78.2812 14.1998 77.2146 13.0798C76.1746 11.9332 74.6946 11.3598 72.7746 11.3598C71.3346 11.3598 70.0813 11.6665 69.0146 12.2798C67.9746 12.8665 67.1613 13.7332 66.5746 14.8798C66.0146 15.9998 65.7346 17.3598 65.7346 18.9598V29.9998H62.8946V18.0798C62.8946 15.8665 62.3613 14.1998 61.2946 13.0798C60.2279 11.9332 58.7346 11.3598 56.8146 11.3598C55.4012 11.3598 54.1612 11.6665 53.0946 12.2798C52.0279 12.8665 51.2012 13.7332 50.6146 14.8798C50.0546 15.9998 49.7746 17.3598 49.7746 18.9598V29.9998H46.9346V8.99982H49.6546V14.6798L49.2146 13.6798C49.8546 12.1598 50.8813 10.9732 52.2946 10.1198C53.7346 9.23982 55.4279 8.79983 57.3746 8.79983C59.4279 8.79983 61.1746 9.31983 62.6146 10.3598C64.0546 11.3732 64.9879 12.9065 65.4146 14.9598L64.2946 14.5198C64.9079 12.8132 65.9879 11.4398 67.5346 10.3998C69.1079 9.33316 70.9879 8.79983 73.1746 8.79983Z" fill="black"/>
<path d="M105.316 29.9998V25.3598L105.196 24.5998V16.8398C105.196 15.0532 104.69 13.6798 103.676 12.7198C102.69 11.7598 101.21 11.2798 99.2365 11.2798C97.8764 11.2798 96.5831 11.5065 95.3564 11.9598C94.1298 12.4132 93.0898 13.0132 92.2364 13.7598L90.9564 11.6398C92.0231 10.7332 93.3031 10.0398 94.7964 9.55982C96.2898 9.05316 97.8631 8.79983 99.5164 8.79983C102.236 8.79983 104.33 9.47983 105.796 10.8398C107.29 12.1732 108.036 14.2132 108.036 16.9598V29.9998H105.316ZM98.0764 30.1998C96.5031 30.1998 95.1298 29.9465 93.9564 29.4398C92.8098 28.9065 91.9298 28.1865 91.3164 27.2798C90.7031 26.3465 90.3964 25.2798 90.3964 24.0798C90.3964 22.9865 90.6498 21.9998 91.1564 21.1198C91.6898 20.2132 92.5431 19.4932 93.7164 18.9598C94.9164 18.3998 96.5164 18.1198 98.5164 18.1198H105.756V20.2398H98.5964C96.5698 20.2398 95.1564 20.5998 94.3564 21.3198C93.5831 22.0398 93.1964 22.9332 93.1964 23.9998C93.1964 25.1998 93.6631 26.1598 94.5964 26.8798C95.5298 27.5998 96.8364 27.9598 98.5164 27.9598C100.116 27.9598 101.49 27.5998 102.636 26.8798C103.81 26.1332 104.663 25.0665 105.196 23.6798L105.836 25.6398C105.303 27.0265 104.37 28.1332 103.036 28.9598C101.73 29.7865 100.076 30.1998 98.0764 30.1998Z" fill="black"/>
<path d="M118.55 29.9998V8.99982H121.39V29.9998H118.55ZM119.99 4.35983C119.404 4.35983 118.91 4.15983 118.51 3.75983C118.11 3.35983 117.91 2.87983 117.91 2.31983C117.91 1.75982 118.11 1.29316 118.51 0.919825C118.91 0.519825 119.404 0.319824 119.99 0.319824C120.577 0.319824 121.07 0.506491 121.47 0.879825C121.87 1.25316 122.07 1.71982 122.07 2.27983C122.07 2.86649 121.87 3.35983 121.47 3.75983C121.097 4.15983 120.604 4.35983 119.99 4.35983Z" fill="black"/>
<path d="M132.092 29.9998V0.319824H134.932V29.9998H132.092Z" fill="black"/>
</svg>
