<svg width="305" height="31" viewBox="0 0 305 31" fill="none" xmlns="http://www.w3.org/2000/svg">
<path d="M3.37193 14.5198H18.1719V17.0398H3.37193V14.5198ZM3.69193 27.4398H20.5319V29.9998H0.731934V1.99982H19.9319V4.55982H3.69193V27.4398Z" fill="#C92020" fill-opacity="0.5"/>
<path d="M37.6097 8.79983C39.3164 8.79983 40.8097 9.13316 42.0897 9.79983C43.3964 10.4398 44.4097 11.4265 45.1297 12.7598C45.8764 14.0932 46.2497 15.7732 46.2497 17.7998V29.9998H43.4097V18.0798C43.4097 15.8665 42.8497 14.1998 41.7297 13.0798C40.6364 11.9332 39.0897 11.3598 37.0897 11.3598C35.5964 11.3598 34.2897 11.6665 33.1697 12.2798C32.0764 12.8665 31.2231 13.7332 30.6097 14.8798C30.0231 15.9998 29.7297 17.3598 29.7297 18.9598V29.9998H26.8897V8.99982H29.6097V14.7598L29.1697 13.6798C29.8364 12.1598 30.9031 10.9732 32.3697 10.1198C33.8364 9.23982 35.5831 8.79983 37.6097 8.79983Z" fill="#C92020" fill-opacity="0.5"/>
<path d="M60.561 30.1998C58.5877 30.1998 57.0677 29.6665 56.001 28.5998C54.9343 27.5332 54.401 26.0265 54.401 24.0798V4.35983H57.241V23.9198C57.241 25.1465 57.5477 26.0932 58.161 26.7598C58.801 27.4265 59.7077 27.7598 60.881 27.7598C62.1343 27.7598 63.1743 27.3998 64.001 26.6798L65.001 28.7198C64.441 29.2265 63.761 29.5998 62.961 29.8398C62.1877 30.0798 61.3877 30.1998 60.561 30.1998ZM50.641 11.3598V8.99982H63.641V11.3598H50.641Z" fill="#C92020" fill-opacity="0.5"/>
<path d="M78.3488 30.1998C76.1621 30.1998 74.2421 29.7465 72.5888 28.8398C70.9355 27.9065 69.6421 26.6398 68.7088 25.0398C67.7755 23.4132 67.3088 21.5598 67.3088 19.4798C67.3088 17.3998 67.7488 15.5598 68.6288 13.9598C69.5355 12.3598 70.7621 11.1065 72.3088 10.1998C73.8821 9.26649 75.6422 8.79983 77.5888 8.79983C79.5621 8.79983 81.3088 9.25316 82.8288 10.1598C84.3755 11.0398 85.5888 12.2932 86.4688 13.9198C87.3488 15.5198 87.7888 17.3732 87.7888 19.4798C87.7888 19.6132 87.7755 19.7598 87.7488 19.9198C87.7488 20.0532 87.7488 20.1998 87.7488 20.3598H69.4688V18.2398H86.2288L85.1088 19.0798C85.1088 17.5598 84.7755 16.2132 84.1088 15.0398C83.4688 13.8398 82.5888 12.9065 81.4688 12.2398C80.3488 11.5732 79.0555 11.2398 77.5888 11.2398C76.1488 11.2398 74.8555 11.5732 73.7088 12.2398C72.5621 12.9065 71.6688 13.8398 71.0288 15.0398C70.3888 16.2398 70.0688 17.6132 70.0688 19.1598V19.5998C70.0688 21.1998 70.4155 22.6132 71.1088 23.8398C71.8288 25.0398 72.8155 25.9865 74.0688 26.6798C75.3488 27.3465 76.8021 27.6798 78.4288 27.6798C79.7088 27.6798 80.8955 27.4532 81.9888 26.9998C83.1088 26.5465 84.0688 25.8532 84.8688 24.9198L86.4688 26.7598C85.5355 27.8798 84.3621 28.7332 82.9488 29.3198C81.5621 29.9065 80.0288 30.1998 78.3488 30.1998Z" fill="#C92020" fill-opacity="0.5"/>
<path d="M93.5694 29.9998V8.99982H96.2894V14.7198L96.0094 13.7198C96.5961 12.1198 97.5828 10.9065 98.9694 10.0798C100.356 9.22649 102.076 8.79983 104.129 8.79983V11.5598C104.023 11.5598 103.916 11.5598 103.809 11.5598C103.703 11.5332 103.596 11.5198 103.489 11.5198C101.276 11.5198 99.5428 12.1998 98.2894 13.5598C97.0361 14.8932 96.4094 16.7998 96.4094 19.2798V29.9998H93.5694Z" fill="#C92020" fill-opacity="0.5"/>
<path d="M120.693 29.9998V1.99982H131.173C133.546 1.99982 135.586 2.38649 137.293 3.15983C139 3.90649 140.306 4.99983 141.213 6.43983C142.146 7.85316 142.613 9.57316 142.613 11.5998C142.613 13.5732 142.146 15.2798 141.213 16.7198C140.306 18.1332 139 19.2265 137.293 19.9998C135.586 20.7732 133.546 21.1598 131.173 21.1598H122.333L123.653 19.7598V29.9998H120.693ZM123.653 19.9998L122.333 18.5598H131.093C133.893 18.5598 136.013 17.9598 137.453 16.7598C138.92 15.5332 139.653 13.8132 139.653 11.5998C139.653 9.35983 138.92 7.62649 137.453 6.39983C136.013 5.17316 133.893 4.55982 131.093 4.55982H122.333L123.653 3.15983V19.9998Z" fill="#C92020" fill-opacity="0.5"/>
<path d="M161.378 29.9998V25.3598L161.258 24.5998V16.8398C161.258 15.0532 160.751 13.6798 159.738 12.7198C158.751 11.7598 157.271 11.2798 155.298 11.2798C153.938 11.2798 152.645 11.5065 151.418 11.9598C150.191 12.4132 149.151 13.0132 148.298 13.7598L147.018 11.6398C148.085 10.7332 149.365 10.0398 150.858 9.55982C152.351 9.05316 153.925 8.79983 155.578 8.79983C158.298 8.79983 160.391 9.47983 161.858 10.8398C163.351 12.1732 164.098 14.2132 164.098 16.9598V29.9998H161.378ZM154.138 30.1998C152.565 30.1998 151.191 29.9465 150.018 29.4398C148.871 28.9065 147.991 28.1865 147.378 27.2798C146.765 26.3465 146.458 25.2798 146.458 24.0798C146.458 22.9865 146.711 21.9998 147.218 21.1198C147.751 20.2132 148.605 19.4932 149.778 18.9598C150.978 18.3998 152.578 18.1198 154.578 18.1198H161.818V20.2398H154.658C152.631 20.2398 151.218 20.5998 150.418 21.3198C149.645 22.0398 149.258 22.9332 149.258 23.9998C149.258 25.1998 149.725 26.1598 150.658 26.8798C151.591 27.5998 152.898 27.9598 154.578 27.9598C156.178 27.9598 157.551 27.5998 158.698 26.8798C159.871 26.1332 160.725 25.0665 161.258 23.6798L161.898 25.6398C161.365 27.0265 160.431 28.1332 159.098 28.9598C157.791 29.7865 156.138 30.1998 154.138 30.1998Z" fill="#C92020" fill-opacity="0.5"/>
<path d="M177.452 30.1998C175.718 30.1998 174.078 29.9598 172.532 29.4798C170.985 28.9732 169.772 28.3465 168.892 27.5998L170.172 25.3598C171.025 25.9998 172.118 26.5598 173.452 27.0398C174.785 27.4932 176.185 27.7198 177.652 27.7198C179.652 27.7198 181.092 27.4132 181.972 26.7998C182.852 26.1598 183.292 25.3198 183.292 24.2798C183.292 23.5065 183.038 22.9065 182.532 22.4798C182.052 22.0265 181.412 21.6932 180.612 21.4798C179.812 21.2398 178.918 21.0398 177.932 20.8798C176.945 20.7198 175.958 20.5332 174.972 20.3198C174.012 20.1065 173.132 19.7998 172.332 19.3998C171.532 18.9732 170.878 18.3998 170.372 17.6798C169.892 16.9598 169.652 15.9998 169.652 14.7998C169.652 13.6532 169.972 12.6265 170.612 11.7198C171.252 10.8132 172.185 10.1065 173.412 9.59982C174.665 9.06649 176.185 8.79983 177.972 8.79983C179.332 8.79983 180.692 8.98649 182.052 9.35983C183.412 9.70649 184.532 10.1732 185.412 10.7598L184.172 13.0398C183.238 12.3998 182.238 11.9465 181.172 11.6798C180.105 11.3865 179.038 11.2398 177.972 11.2398C176.078 11.2398 174.678 11.5732 173.772 12.2398C172.892 12.8798 172.452 13.7065 172.452 14.7198C172.452 15.5198 172.692 16.1465 173.172 16.5998C173.678 17.0532 174.332 17.4132 175.132 17.6798C175.958 17.9198 176.852 18.1198 177.812 18.2798C178.798 18.4398 179.772 18.6398 180.732 18.8798C181.718 19.0932 182.612 19.3998 183.412 19.7998C184.238 20.1732 184.892 20.7198 185.372 21.4398C185.878 22.1332 186.132 23.0532 186.132 24.1998C186.132 25.4265 185.785 26.4932 185.092 27.3998C184.425 28.2798 183.438 28.9732 182.132 29.4798C180.852 29.9598 179.292 30.1998 177.452 30.1998Z" fill="#C92020" fill-opacity="0.5"/>
<path d="M196.983 30.1998C195.25 30.1998 193.61 29.9598 192.063 29.4798C190.516 28.9732 189.303 28.3465 188.423 27.5998L189.703 25.3598C190.556 25.9998 191.65 26.5598 192.983 27.0398C194.316 27.4932 195.716 27.7198 197.183 27.7198C199.183 27.7198 200.623 27.4132 201.503 26.7998C202.383 26.1598 202.823 25.3198 202.823 24.2798C202.823 23.5065 202.57 22.9065 202.063 22.4798C201.583 22.0265 200.943 21.6932 200.143 21.4798C199.343 21.2398 198.45 21.0398 197.463 20.8798C196.476 20.7198 195.49 20.5332 194.503 20.3198C193.543 20.1065 192.663 19.7998 191.863 19.3998C191.063 18.9732 190.41 18.3998 189.903 17.6798C189.423 16.9598 189.183 15.9998 189.183 14.7998C189.183 13.6532 189.503 12.6265 190.143 11.7198C190.783 10.8132 191.716 10.1065 192.943 9.59982C194.196 9.06649 195.716 8.79983 197.503 8.79983C198.863 8.79983 200.223 8.98649 201.583 9.35983C202.943 9.70649 204.063 10.1732 204.943 10.7598L203.703 13.0398C202.77 12.3998 201.77 11.9465 200.703 11.6798C199.636 11.3865 198.57 11.2398 197.503 11.2398C195.61 11.2398 194.21 11.5732 193.303 12.2398C192.423 12.8798 191.983 13.7065 191.983 14.7198C191.983 15.5198 192.223 16.1465 192.703 16.5998C193.21 17.0532 193.863 17.4132 194.663 17.6798C195.49 17.9198 196.383 18.1198 197.343 18.2798C198.33 18.4398 199.303 18.6398 200.263 18.8798C201.25 19.0932 202.143 19.3998 202.943 19.7998C203.77 20.1732 204.423 20.7198 204.903 21.4398C205.41 22.1332 205.663 23.0532 205.663 24.1998C205.663 25.4265 205.316 26.4932 204.623 27.3998C203.956 28.2798 202.97 28.9732 201.663 29.4798C200.383 29.9598 198.823 30.1998 196.983 30.1998Z" fill="#C92020" fill-opacity="0.5"/>
<path d="M214.764 29.9998L206.844 8.99982H209.563L216.764 28.4798H215.523L222.923 8.99982H225.363L232.684 28.4798H231.443L238.764 8.99982H241.363L233.404 29.9998H230.723L223.684 11.6798H224.523L217.443 29.9998H214.764Z" fill="#C92020" fill-opacity="0.5"/>
<path d="M253.614 30.1998C251.587 30.1998 249.76 29.7465 248.134 28.8398C246.534 27.9065 245.267 26.6398 244.334 25.0398C243.4 23.4132 242.934 21.5598 242.934 19.4798C242.934 17.3732 243.4 15.5198 244.334 13.9198C245.267 12.3198 246.534 11.0665 248.134 10.1598C249.734 9.25316 251.56 8.79983 253.614 8.79983C255.694 8.79983 257.534 9.25316 259.134 10.1598C260.76 11.0665 262.027 12.3198 262.934 13.9198C263.867 15.5198 264.334 17.3732 264.334 19.4798C264.334 21.5598 263.867 23.4132 262.934 25.0398C262.027 26.6398 260.76 27.9065 259.134 28.8398C257.507 29.7465 255.667 30.1998 253.614 30.1998ZM253.614 27.6798C255.134 27.6798 256.48 27.3465 257.654 26.6798C258.827 25.9865 259.747 25.0265 260.414 23.7998C261.107 22.5465 261.454 21.1065 261.454 19.4798C261.454 17.8265 261.107 16.3865 260.414 15.1598C259.747 13.9332 258.827 12.9865 257.654 12.3198C256.48 11.6265 255.147 11.2798 253.654 11.2798C252.16 11.2798 250.827 11.6265 249.654 12.3198C248.48 12.9865 247.547 13.9332 246.854 15.1598C246.16 16.3865 245.814 17.8265 245.814 19.4798C245.814 21.1065 246.16 22.5465 246.854 23.7998C247.547 25.0265 248.48 25.9865 249.654 26.6798C250.827 27.3465 252.147 27.6798 253.614 27.6798Z" fill="#C92020" fill-opacity="0.5"/>
<path d="M270.132 29.9998V8.99982H272.852V14.7198L272.572 13.7198C273.159 12.1198 274.145 10.9065 275.532 10.0798C276.919 9.22649 278.639 8.79983 280.692 8.79983V11.5598C280.585 11.5598 280.479 11.5598 280.372 11.5598C280.265 11.5332 280.159 11.5198 280.052 11.5198C277.839 11.5198 276.105 12.1998 274.852 13.5598C273.599 14.8932 272.972 16.7998 272.972 19.2798V29.9998H270.132Z" fill="#C92020" fill-opacity="0.5"/>
<path d="M294.039 30.1998C292.039 30.1998 290.239 29.7465 288.639 28.8398C287.065 27.9332 285.826 26.6798 284.919 25.0798C284.012 23.4532 283.559 21.5865 283.559 19.4798C283.559 17.3465 284.012 15.4798 284.919 13.8798C285.826 12.2798 287.065 11.0398 288.639 10.1598C290.239 9.25316 292.039 8.79983 294.039 8.79983C295.879 8.79983 297.519 9.21316 298.959 10.0398C300.425 10.8665 301.585 12.0798 302.439 13.6798C303.319 15.2532 303.759 17.1865 303.759 19.4798C303.759 21.7465 303.332 23.6798 302.479 25.2798C301.625 26.8798 300.465 28.1065 298.999 28.9598C297.559 29.7865 295.905 30.1998 294.039 30.1998ZM294.239 27.6798C295.732 27.6798 297.065 27.3465 298.239 26.6798C299.439 25.9865 300.372 25.0265 301.039 23.7998C301.732 22.5465 302.079 21.1065 302.079 19.4798C302.079 17.8265 301.732 16.3865 301.039 15.1598C300.372 13.9332 299.439 12.9865 298.239 12.3198C297.065 11.6265 295.732 11.2798 294.239 11.2798C292.772 11.2798 291.452 11.6265 290.279 12.3198C289.105 12.9865 288.172 13.9332 287.479 15.1598C286.785 16.3865 286.439 17.8265 286.439 19.4798C286.439 21.1065 286.785 22.5465 287.479 23.7998C288.172 25.0265 289.105 25.9865 290.279 26.6798C291.452 27.3465 292.772 27.6798 294.239 27.6798ZM302.159 29.9998V23.6798L302.439 19.4398L302.039 15.1998V0.319824H304.879V29.9998H302.159Z" fill="#C92020" fill-opacity="0.5"/>
</svg>
