<svg width="323" height="29" viewBox="0 0 323 29" fill="none" xmlns="http://www.w3.org/2000/svg">
<path d="M3.57896 12.52H18.379V15.04H3.57896V12.52ZM3.89896 25.44H20.739V28H0.938965V0H20.139V2.56H3.89896V25.44Z" fill="#C92020" fill-opacity="0.5"/>
<path d="M37.8168 6.8C39.5234 6.8 41.0168 7.13333 42.2968 7.8C43.6034 8.44 44.6168 9.42667 45.3368 10.76C46.0834 12.0933 46.4568 13.7733 46.4568 15.8V28H43.6168V16.08C43.6168 13.8667 43.0568 12.2 41.9368 11.08C40.8434 9.93333 39.2968 9.36 37.2968 9.36C35.8034 9.36 34.4968 9.66667 33.3768 10.28C32.2834 10.8667 31.4301 11.7333 30.8168 12.88C30.2301 14 29.9368 15.36 29.9368 16.96V28H27.0968V7H29.8168V12.76L29.3768 11.68C30.0434 10.16 31.1101 8.97333 32.5768 8.12C34.0434 7.24 35.7901 6.8 37.8168 6.8Z" fill="#C92020" fill-opacity="0.5"/>
<path d="M60.768 28.2C58.7947 28.2 57.2747 27.6667 56.208 26.6C55.1414 25.5333 54.608 24.0267 54.608 22.08V2.36H57.448V21.92C57.448 23.1467 57.7547 24.0933 58.368 24.76C59.008 25.4267 59.9147 25.76 61.088 25.76C62.3414 25.76 63.3814 25.4 64.208 24.68L65.208 26.72C64.648 27.2267 63.968 27.6 63.168 27.84C62.3947 28.08 61.5947 28.2 60.768 28.2ZM50.848 9.36V7H63.848V9.36H50.848Z" fill="#C92020" fill-opacity="0.5"/>
<path d="M78.5558 28.2C76.3692 28.2 74.4492 27.7467 72.7958 26.84C71.1425 25.9067 69.8492 24.64 68.9158 23.04C67.9825 21.4133 67.5158 19.56 67.5158 17.48C67.5158 15.4 67.9558 13.56 68.8358 11.96C69.7425 10.36 70.9692 9.10667 72.5158 8.2C74.0892 7.26667 75.8492 6.8 77.7958 6.8C79.7692 6.8 81.5158 7.25333 83.0358 8.16C84.5825 9.04 85.7958 10.2933 86.6758 11.92C87.5558 13.52 87.9958 15.3733 87.9958 17.48C87.9958 17.6133 87.9825 17.76 87.9558 17.92C87.9558 18.0533 87.9558 18.2 87.9558 18.36H69.6758V16.24H86.4358L85.3158 17.08C85.3158 15.56 84.9825 14.2133 84.3158 13.04C83.6758 11.84 82.7958 10.9067 81.6758 10.24C80.5558 9.57333 79.2625 9.24 77.7958 9.24C76.3558 9.24 75.0625 9.57333 73.9158 10.24C72.7692 10.9067 71.8758 11.84 71.2358 13.04C70.5958 14.24 70.2758 15.6133 70.2758 17.16V17.6C70.2758 19.2 70.6225 20.6133 71.3158 21.84C72.0358 23.04 73.0225 23.9867 74.2758 24.68C75.5558 25.3467 77.0092 25.68 78.6358 25.68C79.9158 25.68 81.1025 25.4533 82.1958 25C83.3158 24.5467 84.2758 23.8533 85.0758 22.92L86.6758 24.76C85.7425 25.88 84.5692 26.7333 83.1558 27.32C81.7692 27.9067 80.2358 28.2 78.5558 28.2Z" fill="#C92020" fill-opacity="0.5"/>
<path d="M93.7765 28V7H96.4965V12.72L96.2165 11.72C96.8031 10.12 97.7898 8.90667 99.1765 8.08C100.563 7.22667 102.283 6.8 104.336 6.8V9.56C104.23 9.56 104.123 9.56 104.016 9.56C103.91 9.53333 103.803 9.52 103.696 9.52C101.483 9.52 99.7498 10.2 98.4965 11.56C97.2431 12.8933 96.6165 14.8 96.6165 17.28V28H93.7765Z" fill="#C92020" fill-opacity="0.5"/>
<path d="M132.18 28.24C128.607 28.24 125.793 27.2133 123.74 25.16C121.687 23.1067 120.66 20.0667 120.66 16.04V0H123.62V15.92C123.62 19.2267 124.367 21.6667 125.86 23.24C127.353 24.8133 129.46 25.6 132.18 25.6C134.927 25.6 137.047 24.8133 138.54 23.24C140.033 21.6667 140.78 19.2267 140.78 15.92V0H143.66V16.04C143.66 20.0667 142.633 23.1067 140.58 25.16C138.553 27.2133 135.753 28.24 132.18 28.24Z" fill="#C92020" fill-opacity="0.5"/>
<path d="M157.62 28.2C155.886 28.2 154.246 27.96 152.7 27.48C151.153 26.9733 149.94 26.3467 149.06 25.6L150.34 23.36C151.193 24 152.286 24.56 153.62 25.04C154.953 25.4933 156.353 25.72 157.82 25.72C159.82 25.72 161.26 25.4133 162.14 24.8C163.02 24.16 163.46 23.32 163.46 22.28C163.46 21.5067 163.206 20.9067 162.7 20.48C162.22 20.0267 161.58 19.6933 160.78 19.48C159.98 19.24 159.086 19.04 158.1 18.88C157.113 18.72 156.126 18.5333 155.14 18.32C154.18 18.1067 153.3 17.8 152.5 17.4C151.7 16.9733 151.046 16.4 150.54 15.68C150.06 14.96 149.82 14 149.82 12.8C149.82 11.6533 150.14 10.6267 150.78 9.72C151.42 8.81333 152.353 8.10667 153.58 7.6C154.833 7.06667 156.353 6.8 158.14 6.8C159.5 6.8 160.86 6.98667 162.22 7.36C163.58 7.70667 164.7 8.17333 165.58 8.76L164.34 11.04C163.406 10.4 162.406 9.94667 161.34 9.68C160.273 9.38667 159.206 9.24 158.14 9.24C156.246 9.24 154.846 9.57333 153.94 10.24C153.06 10.88 152.62 11.7067 152.62 12.72C152.62 13.52 152.86 14.1467 153.34 14.6C153.846 15.0533 154.5 15.4133 155.3 15.68C156.126 15.92 157.02 16.12 157.98 16.28C158.966 16.44 159.94 16.64 160.9 16.88C161.886 17.0933 162.78 17.4 163.58 17.8C164.406 18.1733 165.06 18.72 165.54 19.44C166.046 20.1333 166.3 21.0533 166.3 22.2C166.3 23.4267 165.953 24.4933 165.26 25.4C164.593 26.28 163.606 26.9733 162.3 27.48C161.02 27.96 159.46 28.2 157.62 28.2Z" fill="#C92020" fill-opacity="0.5"/>
<path d="M180.431 28.2C178.244 28.2 176.324 27.7467 174.671 26.84C173.018 25.9067 171.724 24.64 170.791 23.04C169.858 21.4133 169.391 19.56 169.391 17.48C169.391 15.4 169.831 13.56 170.711 11.96C171.618 10.36 172.844 9.10667 174.391 8.2C175.964 7.26667 177.724 6.8 179.671 6.8C181.644 6.8 183.391 7.25333 184.911 8.16C186.458 9.04 187.671 10.2933 188.551 11.92C189.431 13.52 189.871 15.3733 189.871 17.48C189.871 17.6133 189.858 17.76 189.831 17.92C189.831 18.0533 189.831 18.2 189.831 18.36H171.551V16.24H188.311L187.191 17.08C187.191 15.56 186.858 14.2133 186.191 13.04C185.551 11.84 184.671 10.9067 183.551 10.24C182.431 9.57333 181.137 9.24 179.671 9.24C178.231 9.24 176.938 9.57333 175.791 10.24C174.644 10.9067 173.751 11.84 173.111 13.04C172.471 14.24 172.151 15.6133 172.151 17.16V17.6C172.151 19.2 172.498 20.6133 173.191 21.84C173.911 23.04 174.898 23.9867 176.151 24.68C177.431 25.3467 178.884 25.68 180.511 25.68C181.791 25.68 182.978 25.4533 184.071 25C185.191 24.5467 186.151 23.8533 186.951 22.92L188.551 24.76C187.618 25.88 186.444 26.7333 185.031 27.32C183.644 27.9067 182.111 28.2 180.431 28.2Z" fill="#C92020" fill-opacity="0.5"/>
<path d="M195.651 28V7H198.371V12.72L198.091 11.72C198.678 10.12 199.665 8.90667 201.051 8.08C202.438 7.22667 204.158 6.8 206.211 6.8V9.56C206.105 9.56 205.998 9.56 205.891 9.56C205.785 9.53333 205.678 9.52 205.571 9.52C203.358 9.52 201.625 10.2 200.371 11.56C199.118 12.8933 198.491 14.8 198.491 17.28V28H195.651Z" fill="#C92020" fill-opacity="0.5"/>
<path d="M222.114 6.8C223.82 6.8 225.314 7.13333 226.594 7.8C227.9 8.44 228.914 9.42667 229.634 10.76C230.38 12.0933 230.754 13.7733 230.754 15.8V28H227.914V16.08C227.914 13.8667 227.354 12.2 226.234 11.08C225.14 9.93333 223.594 9.36 221.594 9.36C220.1 9.36 218.794 9.66667 217.674 10.28C216.58 10.8667 215.727 11.7333 215.114 12.88C214.527 14 214.234 15.36 214.234 16.96V28H211.394V7H214.114V12.76L213.674 11.68C214.34 10.16 215.407 8.97333 216.874 8.12C218.34 7.24 220.087 6.8 222.114 6.8Z" fill="#C92020" fill-opacity="0.5"/>
<path d="M251.585 28V23.36L251.465 22.6V14.84C251.465 13.0533 250.958 11.68 249.945 10.72C248.958 9.76 247.478 9.28 245.505 9.28C244.145 9.28 242.852 9.50667 241.625 9.96C240.398 10.4133 239.358 11.0133 238.505 11.76L237.225 9.64C238.292 8.73333 239.572 8.04 241.065 7.56C242.558 7.05333 244.132 6.8 245.785 6.8C248.505 6.8 250.598 7.48 252.065 8.84C253.558 10.1733 254.305 12.2133 254.305 14.96V28H251.585ZM244.345 28.2C242.772 28.2 241.398 27.9467 240.225 27.44C239.078 26.9067 238.198 26.1867 237.585 25.28C236.972 24.3467 236.665 23.28 236.665 22.08C236.665 20.9867 236.918 20 237.425 19.12C237.958 18.2133 238.812 17.4933 239.985 16.96C241.185 16.4 242.785 16.12 244.785 16.12H252.025V18.24H244.865C242.838 18.24 241.425 18.6 240.625 19.32C239.852 20.04 239.465 20.9333 239.465 22C239.465 23.2 239.932 24.16 240.865 24.88C241.798 25.6 243.105 25.96 244.785 25.96C246.385 25.96 247.758 25.6 248.905 24.88C250.078 24.1333 250.932 23.0667 251.465 21.68L252.105 23.64C251.572 25.0267 250.638 26.1333 249.305 26.96C247.998 27.7867 246.345 28.2 244.345 28.2Z" fill="#C92020" fill-opacity="0.5"/>
<path d="M288.259 6.8C289.965 6.8 291.445 7.13333 292.699 7.8C293.979 8.44 294.965 9.42667 295.659 10.76C296.379 12.0933 296.739 13.7733 296.739 15.8V28H293.899V16.08C293.899 13.8667 293.365 12.2 292.299 11.08C291.259 9.93333 289.779 9.36 287.859 9.36C286.419 9.36 285.165 9.66667 284.099 10.28C283.059 10.8667 282.245 11.7333 281.659 12.88C281.099 14 280.819 15.36 280.819 16.96V28H277.979V16.08C277.979 13.8667 277.445 12.2 276.379 11.08C275.312 9.93333 273.819 9.36 271.899 9.36C270.485 9.36 269.245 9.66667 268.179 10.28C267.112 10.8667 266.285 11.7333 265.699 12.88C265.139 14 264.859 15.36 264.859 16.96V28H262.019V7H264.739V12.68L264.299 11.68C264.939 10.16 265.965 8.97333 267.379 8.12C268.819 7.24 270.512 6.8 272.459 6.8C274.512 6.8 276.259 7.32 277.699 8.36C279.139 9.37333 280.072 10.9067 280.499 12.96L279.379 12.52C279.992 10.8133 281.072 9.44 282.619 8.4C284.192 7.33333 286.072 6.8 288.259 6.8Z" fill="#C92020" fill-opacity="0.5"/>
<path d="M313.361 28.2C311.174 28.2 309.254 27.7467 307.601 26.84C305.947 25.9067 304.654 24.64 303.721 23.04C302.787 21.4133 302.321 19.56 302.321 17.48C302.321 15.4 302.761 13.56 303.641 11.96C304.547 10.36 305.774 9.10667 307.321 8.2C308.894 7.26667 310.654 6.8 312.601 6.8C314.574 6.8 316.321 7.25333 317.841 8.16C319.387 9.04 320.601 10.2933 321.481 11.92C322.361 13.52 322.801 15.3733 322.801 17.48C322.801 17.6133 322.787 17.76 322.761 17.92C322.761 18.0533 322.761 18.2 322.761 18.36H304.481V16.24H321.241L320.121 17.08C320.121 15.56 319.787 14.2133 319.121 13.04C318.481 11.84 317.601 10.9067 316.481 10.24C315.361 9.57333 314.067 9.24 312.601 9.24C311.161 9.24 309.867 9.57333 308.721 10.24C307.574 10.9067 306.681 11.84 306.041 13.04C305.401 14.24 305.081 15.6133 305.081 17.16V17.6C305.081 19.2 305.427 20.6133 306.121 21.84C306.841 23.04 307.827 23.9867 309.081 24.68C310.361 25.3467 311.814 25.68 313.441 25.68C314.721 25.68 315.907 25.4533 317.001 25C318.121 24.5467 319.081 23.8533 319.881 22.92L321.481 24.76C320.547 25.88 319.374 26.7333 317.961 27.32C316.574 27.9067 315.041 28.2 313.361 28.2Z" fill="#C92020" fill-opacity="0.5"/>
</svg>
