<svg width="30" height="33" viewBox="0 0 30 33" fill="none" xmlns="http://www.w3.org/2000/svg">
<g clip-path="url(#clip0_100_518)">
<path d="M26.0501 6.51736C25.4116 5.84095 24.6536 5.30438 23.8193 4.9383C22.985 4.57221 22.0907 4.38379 21.1876 4.38379C20.2845 4.38379 19.3902 4.57221 18.5559 4.9383C17.7216 5.30438 16.9635 5.84095 16.3251 6.51736L15.0001 7.92047L13.6751 6.51736C12.3855 5.15171 10.6364 4.3845 8.81259 4.3845C6.9888 4.3845 5.2397 5.15171 3.95009 6.51736C2.66047 7.883 1.93597 9.73522 1.93597 11.6665C1.93597 13.5978 2.66047 15.4501 3.95009 16.8157L5.27509 18.2188L15.0001 28.5172L24.7251 18.2188L26.0501 16.8157C26.6888 16.1396 27.1955 15.3369 27.5412 14.4534C27.8869 13.5699 28.0649 12.6229 28.0649 11.6665C28.0649 10.7102 27.8869 9.7632 27.5412 8.87968C27.1955 7.99617 26.6888 7.19344 26.0501 6.51736V6.51736Z" stroke="#9A9A9A" stroke-width="2.5" stroke-linecap="round" stroke-linejoin="round"/>
</g>
<defs>
<clipPath id="clip0_100_518">
<rect width="30" height="31.7687" fill="white" transform="translate(6.10352e-05 0.415039)"/>
</clipPath>
</defs>
</svg>
