<svg width="96" height="24" viewBox="0 0 96 24" fill="none" xmlns="http://www.w3.org/2000/svg">
<path d="M24.3718 8.61602C24.295 8.39389 24.1536 8.1987 23.9652 8.05456C23.7767 7.91043 23.5494 7.82364 23.3112 7.80493L16.3456 7.2614L13.3314 0.709067C13.2354 0.49803 13.0792 0.318785 12.8818 0.192965C12.6844 0.0671445 12.4541 0.000127038 12.2187 1.8043e-07C11.9833 -0.000126677 11.7529 0.0666426 11.5554 0.19225C11.3578 0.317857 11.2014 0.496934 11.1052 0.707867L8.09096 7.2614L1.12533 7.80493C0.891299 7.82313 0.667562 7.90717 0.480888 8.04697C0.294213 8.18678 0.152507 8.37644 0.0727223 8.59326C-0.00706261 8.81008 -0.021548 9.04488 0.0309992 9.26958C0.0835464 9.49427 0.200901 9.69934 0.369023 9.86025L5.51657 14.788L3.69605 22.5294C3.64077 22.7637 3.65849 23.0089 3.74691 23.2333C3.83532 23.4576 3.99035 23.6506 4.19187 23.7873C4.3934 23.9241 4.63212 23.9981 4.87705 24C5.12198 24.0018 5.36182 23.9313 5.56545 23.7976L12.2183 19.4422L18.8711 23.7976C19.0792 23.9333 19.3247 24.0032 19.5744 23.9978C19.8242 23.9924 20.0663 23.912 20.2682 23.7675C20.47 23.623 20.622 23.4212 20.7036 23.1894C20.7852 22.9575 20.7925 22.7067 20.7246 22.4706L18.4899 14.7916L24.0321 9.89385C24.395 9.57229 24.5282 9.07076 24.3718 8.61602Z" fill="#C92020"/>
<path d="M61.0263 8.61602C60.9495 8.39389 60.8082 8.1987 60.6197 8.05456C60.4312 7.91043 60.2039 7.82364 59.9658 7.80493L53.0002 7.2614L49.9859 0.709067C49.8899 0.49803 49.7338 0.318785 49.5363 0.192965C49.3389 0.0671445 49.1086 0.000127038 48.8732 1.8043e-07C48.6379 -0.000126677 48.4075 0.0666426 48.2099 0.19225C48.0123 0.317857 47.856 0.496934 47.7597 0.707867L44.7455 7.2614L37.7799 7.80493C37.5458 7.82313 37.3221 7.90717 37.1354 8.04697C36.9488 8.18678 36.807 8.37644 36.7273 8.59326C36.6475 8.81008 36.633 9.04488 36.6855 9.26958C36.7381 9.49427 36.8554 9.69934 37.0236 9.86025L42.1711 14.788L40.3506 22.5294C40.2953 22.7637 40.313 23.0089 40.4014 23.2333C40.4899 23.4576 40.6449 23.6506 40.8464 23.7873C41.0479 23.9241 41.2867 23.9981 41.5316 24C41.7765 24.0018 42.0164 23.9313 42.22 23.7976L48.8728 19.4422L55.5257 23.7976C55.7338 23.9333 55.9792 24.0032 56.229 23.9978C56.4787 23.9924 56.7208 23.912 56.9227 23.7675C57.1246 23.623 57.2765 23.4212 57.3581 23.1894C57.4397 22.9575 57.4471 22.7067 57.3792 22.4706L55.1445 14.7916L60.6867 9.89385C61.0495 9.57229 61.1827 9.07076 61.0263 8.61602Z" fill="#C92020"/>
<path d="M95.9354 8.61602C95.8586 8.39389 95.7173 8.1987 95.5288 8.05456C95.3403 7.91043 95.113 7.82364 94.8749 7.80493L87.9093 7.2614L84.895 0.709067C84.799 0.49803 84.6429 0.318785 84.4455 0.192965C84.248 0.0671445 84.0177 0.000127038 83.7823 1.8043e-07C83.547 -0.000126677 83.3166 0.0666426 83.119 0.19225C82.9214 0.317857 82.7651 0.496934 82.6689 0.707867L79.6546 7.2614L72.689 7.80493C72.455 7.82313 72.2312 7.90717 72.0445 8.04697C71.8579 8.18678 71.7162 8.37644 71.6364 8.59326C71.5566 8.81008 71.5421 9.04488 71.5947 9.26958C71.6472 9.49427 71.7646 9.69934 71.9327 9.86025L77.0802 14.788L75.2597 22.5294C75.2044 22.7637 75.2222 23.0089 75.3106 23.2333C75.399 23.4576 75.554 23.6506 75.7555 23.7873C75.9571 23.9241 76.1958 23.9981 76.4407 24C76.6856 24.0018 76.9255 23.9313 77.1291 23.7976L83.7819 19.4422L90.4348 23.7976C90.6429 23.9333 90.8884 24.0032 91.1381 23.9978C91.3879 23.9924 91.63 23.912 91.8318 23.7675C92.0337 23.623 92.1856 23.4212 92.2672 23.1894C92.3488 22.9575 92.3562 22.7067 92.2883 22.4706L90.0536 14.7916L95.5958 9.89385C95.9587 9.57229 96.0918 9.07076 95.9354 8.61602Z" fill="#C92020"/>
</svg>
