<svg width="95" height="15" viewBox="0 0 95 15" fill="none" xmlns="http://www.w3.org/2000/svg">
<path d="M13.963 5.98207C13.919 5.85249 13.838 5.73863 13.73 5.65455C13.6221 5.57047 13.4918 5.51985 13.3554 5.50893L9.36467 5.19187L7.63776 1.36968C7.58277 1.24657 7.49331 1.14201 7.38019 1.06862C7.26708 0.995222 7.13513 0.956129 7.00029 0.956055C6.86544 0.955981 6.73345 0.99493 6.62025 1.0682C6.50706 1.14147 6.41749 1.24593 6.36236 1.36898L4.63544 5.19187L0.644722 5.50893C0.51064 5.51955 0.382457 5.56857 0.275508 5.65012C0.16856 5.73168 0.087374 5.84231 0.0416638 5.96879C-0.00404629 6.09527 -0.0123452 6.23224 0.0177599 6.36331C0.0478651 6.49438 0.1151 6.614 0.21142 6.70787L3.16054 9.58239L2.11753 14.0982C2.08586 14.2349 2.09601 14.3779 2.14666 14.5088C2.19732 14.6396 2.28614 14.7522 2.40159 14.832C2.51705 14.9118 2.65382 14.955 2.79414 14.956C2.93447 14.9571 3.07188 14.916 3.18854 14.838L7.00006 12.2973L10.8116 14.838C10.9308 14.9171 11.0714 14.9579 11.2145 14.9548C11.3576 14.9516 11.4963 14.9047 11.612 14.8204C11.7276 14.7361 11.8147 14.6184 11.8614 14.4832C11.9082 14.3479 11.9124 14.2016 11.8735 14.0639L10.5932 9.58449L13.7684 6.72747C13.9763 6.53989 14.0526 6.24733 13.963 5.98207Z" fill="#C92020"/>
<path d="M34.963 5.98207C34.919 5.85249 34.838 5.73863 34.73 5.65455C34.6221 5.57047 34.4918 5.51985 34.3554 5.50893L30.3647 5.19187L28.6378 1.36968C28.5828 1.24657 28.4933 1.14201 28.3802 1.06862C28.2671 0.995222 28.1351 0.956129 28.0003 0.956055C27.8654 0.955981 27.7335 0.99493 27.6203 1.0682C27.5071 1.14147 27.4175 1.24593 27.3624 1.36898L25.6354 5.19187L21.6447 5.50893C21.5106 5.51955 21.3825 5.56857 21.2755 5.65012C21.1686 5.73168 21.0874 5.84231 21.0417 5.96879C20.996 6.09527 20.9877 6.23224 21.0178 6.36331C21.0479 6.49438 21.1151 6.614 21.2114 6.70787L24.1605 9.58239L23.1175 14.0982C23.0859 14.2349 23.096 14.3779 23.1467 14.5088C23.1973 14.6396 23.2861 14.7522 23.4016 14.832C23.5171 14.9118 23.6538 14.955 23.7941 14.956C23.9345 14.9571 24.0719 14.916 24.1885 14.838L28.0001 12.2973L31.8116 14.838C31.9308 14.9171 32.0714 14.9579 32.2145 14.9548C32.3576 14.9516 32.4963 14.9047 32.612 14.8204C32.7276 14.7361 32.8147 14.6184 32.8614 14.4832C32.9082 14.3479 32.9124 14.2016 32.8735 14.0639L31.5932 9.58449L34.7684 6.72747C34.9763 6.53989 35.0526 6.24733 34.963 5.98207Z" fill="#C92020"/>
<path d="M54.963 5.98207C54.919 5.85249 54.838 5.73863 54.73 5.65455C54.6221 5.57047 54.4918 5.51985 54.3554 5.50893L50.3647 5.19187L48.6378 1.36968C48.5828 1.24657 48.4933 1.14201 48.3802 1.06862C48.2671 0.995222 48.1351 0.956129 48.0003 0.956055C47.8654 0.955981 47.7335 0.99493 47.6203 1.0682C47.5071 1.14147 47.4175 1.24593 47.3624 1.36898L45.6354 5.19187L41.6447 5.50893C41.5106 5.51955 41.3825 5.56857 41.2755 5.65012C41.1686 5.73168 41.0874 5.84231 41.0417 5.96879C40.996 6.09527 40.9877 6.23224 41.0178 6.36331C41.0479 6.49438 41.1151 6.614 41.2114 6.70787L44.1605 9.58239L43.1175 14.0982C43.0859 14.2349 43.096 14.3779 43.1467 14.5088C43.1973 14.6396 43.2861 14.7522 43.4016 14.832C43.5171 14.9118 43.6538 14.955 43.7941 14.956C43.9345 14.9571 44.0719 14.916 44.1885 14.838L48.0001 12.2973L51.8116 14.838C51.9308 14.9171 52.0714 14.9579 52.2145 14.9548C52.3576 14.9516 52.4963 14.9047 52.612 14.8204C52.7276 14.7361 52.8147 14.6184 52.8614 14.4832C52.9082 14.3479 52.9124 14.2016 52.8735 14.0639L51.5932 9.58449L54.7684 6.72747C54.9763 6.53989 55.0526 6.24733 54.963 5.98207Z" fill="#C92020"/>
<path d="M74.963 5.98207C74.919 5.85249 74.838 5.73863 74.73 5.65455C74.6221 5.57047 74.4918 5.51985 74.3554 5.50893L70.3647 5.19187L68.6378 1.36968C68.5828 1.24657 68.4933 1.14201 68.3802 1.06862C68.2671 0.995222 68.1351 0.956129 68.0003 0.956055C67.8654 0.955981 67.7335 0.99493 67.6203 1.0682C67.5071 1.14147 67.4175 1.24593 67.3624 1.36898L65.6354 5.19187L61.6447 5.50893C61.5106 5.51955 61.3825 5.56857 61.2755 5.65012C61.1686 5.73168 61.0874 5.84231 61.0417 5.96879C60.996 6.09527 60.9877 6.23224 61.0178 6.36331C61.0479 6.49438 61.1151 6.614 61.2114 6.70787L64.1605 9.58239L63.1175 14.0982C63.0859 14.2349 63.096 14.3779 63.1467 14.5088C63.1973 14.6396 63.2861 14.7522 63.4016 14.832C63.5171 14.9118 63.6538 14.955 63.7941 14.956C63.9345 14.9571 64.0719 14.916 64.1885 14.838L68.0001 12.2973L71.8116 14.838C71.9308 14.9171 72.0714 14.9579 72.2145 14.9548C72.3576 14.9516 72.4963 14.9047 72.612 14.8204C72.7276 14.7361 72.8147 14.6184 72.8614 14.4832C72.9082 14.3479 72.9124 14.2016 72.8735 14.0639L71.5932 9.58449L74.7684 6.72747C74.9763 6.53989 75.0526 6.24733 74.963 5.98207Z" fill="#C92020"/>
<path d="M94.963 5.98207C94.919 5.85249 94.838 5.73863 94.73 5.65455C94.6221 5.57047 94.4918 5.51985 94.3554 5.50893L90.3647 5.19187L88.6378 1.36968C88.5828 1.24657 88.4933 1.14201 88.3802 1.06862C88.2671 0.995222 88.1351 0.956129 88.0003 0.956055C87.8654 0.955981 87.7335 0.99493 87.6203 1.0682C87.5071 1.14147 87.4175 1.24593 87.3624 1.36898L85.6354 5.19187L81.6447 5.50893C81.5106 5.51955 81.3825 5.56857 81.2755 5.65012C81.1686 5.73168 81.0874 5.84231 81.0417 5.96879C80.996 6.09527 80.9877 6.23224 81.0178 6.36331C81.0479 6.49438 81.1151 6.614 81.2114 6.70787L84.1605 9.58239L83.1175 14.0982C83.0859 14.2349 83.096 14.3779 83.1467 14.5088C83.1973 14.6396 83.2861 14.7522 83.4016 14.832C83.5171 14.9118 83.6538 14.955 83.7941 14.956C83.9345 14.9571 84.0719 14.916 84.1885 14.838L88.0001 12.2973L91.8116 14.838C91.9308 14.9171 92.0714 14.9579 92.2145 14.9548C92.3576 14.9516 92.4963 14.9047 92.612 14.8204C92.7276 14.7361 92.8147 14.6184 92.8614 14.4832C92.9082 14.3479 92.9124 14.2016 92.8735 14.0639L91.5932 9.58449L94.7684 6.72747C94.9763 6.53989 95.0526 6.24733 94.963 5.98207Z" fill="#C92020"/>
</svg>
