<svg width="116" height="20" viewBox="0 0 116 20" fill="none" xmlns="http://www.w3.org/2000/svg">
<path d="M17.0496 7.18002C16.9958 6.99491 16.8969 6.83225 16.7651 6.71214C16.6332 6.59202 16.4742 6.5197 16.3076 6.50411L11.4348 6.05117L9.32611 0.590889C9.25896 0.415025 9.14973 0.265654 9.0116 0.160804C8.87348 0.0559538 8.71237 0.000105865 8.54772 1.50359e-07C8.38306 -0.000105564 8.2219 0.0555355 8.08368 0.160208C7.94546 0.264881 7.83609 0.414111 7.76877 0.589889L5.66012 6.05117L0.78724 6.50411C0.623518 6.51928 0.467 6.5893 0.33641 6.70581C0.20582 6.82231 0.106688 6.98036 0.0508737 7.16105C-0.00494073 7.34173 -0.0150742 7.5374 0.0216858 7.72465C0.0584458 7.91189 0.140543 8.08278 0.258155 8.21688L3.85918 12.3233L2.58562 18.7745C2.54695 18.9698 2.55934 19.1741 2.62119 19.361C2.68304 19.548 2.79149 19.7088 2.93247 19.8228C3.07345 19.9367 3.24045 19.9984 3.4118 20C3.58314 20.0015 3.75092 19.9427 3.89337 19.8313L8.54744 16.2018L13.2015 19.8313C13.3471 19.9444 13.5188 20.0026 13.6935 19.9981C13.8682 19.9937 14.0376 19.9267 14.1788 19.8063C14.32 19.6858 14.4263 19.5177 14.4834 19.3245C14.5405 19.1313 14.5457 18.9222 14.4982 18.7255L12.9348 12.3263L16.8119 8.24487C17.0658 7.97691 17.159 7.55897 17.0496 7.18002Z" fill="#C92020"/>
<path d="M42.6916 7.18002C42.6379 6.99491 42.539 6.83225 42.4072 6.71214C42.2753 6.59202 42.1163 6.5197 41.9497 6.50411L37.0768 6.05117L34.9682 0.590889C34.901 0.415025 34.7918 0.265654 34.6537 0.160804C34.5156 0.0559538 34.3545 0.000105865 34.1898 1.50359e-07C34.0252 -0.000105564 33.864 0.0555355 33.7258 0.160208C33.5875 0.264881 33.4782 0.414111 33.4109 0.589889L31.3022 6.05117L26.4293 6.50411C26.2656 6.51928 26.1091 6.5893 25.9785 6.70581C25.8479 6.82231 25.7488 6.98036 25.693 7.16105C25.6371 7.34173 25.627 7.5374 25.6638 7.72465C25.7005 7.91189 25.7826 8.08278 25.9002 8.21688L29.5013 12.3233L28.2277 18.7745C28.189 18.9698 28.2014 19.1741 28.2633 19.361C28.3251 19.548 28.4336 19.7088 28.5746 19.8228C28.7155 19.9367 28.8825 19.9984 29.0539 20C29.2252 20.0015 29.393 19.9427 29.5355 19.8313L34.1895 16.2018L38.8436 19.8313C38.9892 19.9444 39.1609 20.0026 39.3356 19.9981C39.5103 19.9937 39.6797 19.9267 39.8209 19.8063C39.9621 19.6858 40.0684 19.5177 40.1255 19.3245C40.1826 19.1313 40.1877 18.9222 40.1402 18.7255L38.5769 12.3263L42.454 8.24487C42.7079 7.97691 42.8011 7.55897 42.6916 7.18002Z" fill="#C92020"/>
<path d="M67.1127 7.18002C67.059 6.99491 66.9601 6.83225 66.8283 6.71214C66.6964 6.59202 66.5374 6.5197 66.3708 6.50411L61.4979 6.05117L59.3893 0.590889C59.3221 0.415025 59.2129 0.265654 59.0748 0.160804C58.9367 0.0559538 58.7755 0.000105865 58.6109 1.50359e-07C58.4462 -0.000105564 58.2851 0.0555355 58.1469 0.160208C58.0086 0.264881 57.8993 0.414111 57.8319 0.589889L55.7233 6.05117L50.8504 6.50411C50.6867 6.51928 50.5302 6.5893 50.3996 6.70581C50.269 6.82231 50.1699 6.98036 50.114 7.16105C50.0582 7.34173 50.0481 7.5374 50.0849 7.72465C50.1216 7.91189 50.2037 8.08278 50.3213 8.21688L53.9224 12.3233L52.6488 18.7745C52.6101 18.9698 52.6225 19.1741 52.6844 19.361C52.7462 19.548 52.8547 19.7088 52.9956 19.8228C53.1366 19.9367 53.3036 19.9984 53.475 20C53.6463 20.0015 53.8141 19.9427 53.9565 19.8313L58.6106 16.2018L63.2647 19.8313C63.4103 19.9444 63.582 20.0026 63.7567 19.9981C63.9314 19.9937 64.1008 19.9267 64.242 19.8063C64.3832 19.6858 64.4895 19.5177 64.5466 19.3245C64.6037 19.1313 64.6088 18.9222 64.5613 18.7255L62.998 12.3263L66.8751 8.24487C67.129 7.97691 67.2221 7.55897 67.1127 7.18002Z" fill="#C92020"/>
<path d="M91.5337 7.18002C91.48 6.99491 91.3811 6.83225 91.2493 6.71214C91.1174 6.59202 90.9584 6.5197 90.7918 6.50411L85.919 6.05117L83.8103 0.590889C83.7431 0.415025 83.6339 0.265654 83.4958 0.160804C83.3577 0.0559538 83.1966 0.000105865 83.0319 1.50359e-07C82.8673 -0.000105564 82.7061 0.0555355 82.5679 0.160208C82.4297 0.264881 82.3203 0.414111 82.253 0.589889L80.1443 6.05117L75.2714 6.50411C75.1077 6.51928 74.9512 6.5893 74.8206 6.70581C74.69 6.82231 74.5909 6.98036 74.5351 7.16105C74.4793 7.34173 74.4691 7.5374 74.5059 7.72465C74.5426 7.91189 74.6247 8.08278 74.7423 8.21688L78.3434 12.3233L77.0698 18.7745C77.0311 18.9698 77.0435 19.1741 77.1054 19.361C77.1672 19.548 77.2757 19.7088 77.4167 19.8228C77.5576 19.9367 77.7246 19.9984 77.896 20C78.0673 20.0015 78.2351 19.9427 78.3776 19.8313L83.0316 16.2018L87.6857 19.8313C87.8313 19.9444 88.003 20.0026 88.1777 19.9981C88.3524 19.9937 88.5218 19.9267 88.663 19.8063C88.8042 19.6858 88.9105 19.5177 88.9676 19.3245C89.0247 19.1313 89.0298 18.9222 88.9823 18.7255L87.419 12.3263L91.2961 8.24487C91.55 7.97691 91.6432 7.55897 91.5337 7.18002Z" fill="#C92020"/>
<path d="M115.955 7.18002C115.901 6.99491 115.802 6.83225 115.67 6.71214C115.539 6.59202 115.379 6.5197 115.213 6.50411L110.34 6.05117L108.231 0.590889C108.164 0.415025 108.055 0.265654 107.917 0.160804C107.779 0.0559538 107.618 0.000105865 107.453 1.50359e-07C107.288 -0.000105564 107.127 0.0555355 106.989 0.160208C106.851 0.264881 106.741 0.414111 106.674 0.589889L104.565 6.05117L99.6925 6.50411C99.5288 6.51928 99.3723 6.5893 99.2417 6.70581C99.1111 6.82231 99.012 6.98036 98.9561 7.16105C98.9003 7.34173 98.8902 7.5374 98.927 7.72465C98.9637 7.91189 99.0458 8.08278 99.1634 8.21688L102.764 12.3233L101.491 18.7745C101.452 18.9698 101.465 19.1741 101.526 19.361C101.588 19.548 101.697 19.7088 101.838 19.8228C101.979 19.9367 102.146 19.9984 102.317 20C102.488 20.0015 102.656 19.9427 102.799 19.8313L107.453 16.2018L112.107 19.8313C112.252 19.9444 112.424 20.0026 112.599 19.9981C112.774 19.9937 112.943 19.9267 113.084 19.8063C113.225 19.6858 113.332 19.5177 113.389 19.3245C113.446 19.1313 113.451 18.9222 113.403 18.7255L111.84 12.3263L115.717 8.24487C115.971 7.97691 116.064 7.55897 115.955 7.18002Z" fill="#C92020"/>
</svg>
