<svg width="644" height="149" viewBox="0 0 644 149" fill="none" xmlns="http://www.w3.org/2000/svg">
<path d="M73.3586 21.49H95.9686V32.2H73.3586V21.49ZM74.3386 49H60.4786V0H98.9086V10.71H74.3386V49Z" fill="black"/>
<path d="M122.98 49.63C118.827 49.63 115.14 48.79 111.92 47.11C108.7 45.43 106.157 43.12 104.29 40.18C102.47 37.1933 101.56 33.7867 101.56 29.96C101.56 26.1333 102.47 22.75 104.29 19.81C106.157 16.87 108.7 14.5833 111.92 12.95C115.14 11.27 118.827 10.43 122.98 10.43C127.134 10.43 130.82 11.27 134.04 12.95C137.307 14.5833 139.85 16.87 141.67 19.81C143.49 22.75 144.4 26.1333 144.4 29.96C144.4 33.7867 143.49 37.1933 141.67 40.18C139.85 43.12 137.307 45.43 134.04 47.11C130.82 48.79 127.134 49.63 122.98 49.63ZM122.98 39.06C124.52 39.06 125.874 38.71 127.04 38.01C128.254 37.31 129.21 36.2833 129.91 34.93C130.61 33.53 130.96 31.8733 130.96 29.96C130.96 28.0467 130.61 26.4367 129.91 25.13C129.21 23.7767 128.254 22.75 127.04 22.05C125.874 21.35 124.52 21 122.98 21C121.487 21 120.134 21.35 118.92 22.05C117.754 22.75 116.797 23.7767 116.05 25.13C115.35 26.4367 115 28.0467 115 29.96C115 31.8733 115.35 33.53 116.05 34.93C116.797 36.2833 117.754 37.31 118.92 38.01C120.134 38.71 121.487 39.06 122.98 39.06Z" fill="black"/>
<path d="M150.562 49V11.06H163.232V22.12L161.342 18.97C162.462 16.1233 164.282 14 166.802 12.6C169.322 11.1533 172.378 10.43 175.972 10.43V22.4C175.365 22.3067 174.828 22.26 174.362 22.26C173.942 22.2133 173.475 22.19 172.962 22.19C170.255 22.19 168.062 22.9367 166.382 24.43C164.702 25.8767 163.862 28.2567 163.862 31.57V49H150.562Z" fill="black"/>
<path d="M225.138 49V41.93L224.228 40.18V27.16C224.228 25.06 223.574 23.45 222.268 22.33C221.008 21.1633 218.978 20.58 216.178 20.58C214.358 20.58 212.514 20.8833 210.648 21.49C208.781 22.05 207.194 22.8433 205.888 23.87L201.408 14.84C203.554 13.44 206.121 12.3667 209.108 11.62C212.141 10.8267 215.151 10.43 218.138 10.43C224.298 10.43 229.058 11.8533 232.418 14.7C235.824 17.5 237.528 21.91 237.528 27.93V49H225.138ZM213.938 49.63C210.904 49.63 208.338 49.1167 206.238 48.09C204.138 47.0633 202.528 45.6633 201.408 43.89C200.334 42.1167 199.798 40.1333 199.798 37.94C199.798 35.6067 200.381 33.6 201.548 31.92C202.761 30.1933 204.604 28.8867 207.078 28C209.551 27.0667 212.748 26.6 216.668 26.6H225.628V33.53H218.488C216.341 33.53 214.824 33.88 213.938 34.58C213.098 35.28 212.678 36.2133 212.678 37.38C212.678 38.5467 213.121 39.48 214.008 40.18C214.894 40.88 216.108 41.23 217.648 41.23C219.094 41.23 220.401 40.88 221.568 40.18C222.781 39.4333 223.668 38.3133 224.228 36.82L226.048 41.72C225.348 44.3333 223.971 46.3167 221.918 47.67C219.911 48.9767 217.251 49.63 213.938 49.63Z" fill="black"/>
<path d="M270.633 10.43C273.573 10.43 276.233 11.0367 278.613 12.25C280.993 13.4167 282.86 15.2367 284.213 17.71C285.613 20.1833 286.313 23.38 286.313 27.3V49H273.013V29.47C273.013 26.7633 272.453 24.8033 271.333 23.59C270.26 22.33 268.743 21.7 266.783 21.7C265.383 21.7 264.1 22.0267 262.933 22.68C261.766 23.2867 260.856 24.2433 260.203 25.55C259.55 26.8567 259.223 28.56 259.223 30.66V49H245.923V11.06H258.593V21.84L256.143 18.69C257.59 15.9367 259.573 13.8833 262.093 12.53C264.613 11.13 267.46 10.43 270.633 10.43Z" fill="black"/>
<path d="M300.49 63.21C298.483 63.21 296.453 62.8833 294.4 62.23C292.393 61.6233 290.76 60.8067 289.5 59.78L294.12 50.47C294.913 51.17 295.823 51.7067 296.85 52.08C297.923 52.5 298.973 52.71 300 52.71C301.446 52.71 302.59 52.3833 303.43 51.73C304.27 51.0767 304.993 50.05 305.6 48.65L307.35 44.24L308.4 42.91L321.28 11.06H333.949L317.57 50.54C316.263 53.8067 314.746 56.35 313.02 58.17C311.34 60.0367 309.45 61.3433 307.35 62.09C305.296 62.8367 303.009 63.21 300.49 63.21ZM305.669 50.61L288.94 11.06H302.59L314.91 41.72L305.669 50.61Z" fill="black"/>
<path d="M377.639 49.63C373.159 49.63 369.239 48.79 365.879 47.11C362.565 45.3833 359.975 43.05 358.109 40.11C356.289 37.1233 355.379 33.74 355.379 29.96C355.379 26.18 356.265 22.82 358.039 19.88C359.859 16.8933 362.355 14.5833 365.529 12.95C368.702 11.27 372.272 10.43 376.239 10.43C379.972 10.43 383.379 11.2 386.459 12.74C389.539 14.2333 391.989 16.45 393.809 19.39C395.629 22.33 396.539 25.9 396.539 30.1C396.539 30.5667 396.515 31.1033 396.469 31.71C396.422 32.3167 396.375 32.8767 396.329 33.39H366.299V26.39H389.259L384.219 28.35C384.265 26.6233 383.939 25.13 383.239 23.87C382.585 22.61 381.652 21.63 380.439 20.93C379.272 20.23 377.895 19.88 376.309 19.88C374.722 19.88 373.322 20.23 372.109 20.93C370.942 21.63 370.032 22.6333 369.379 23.94C368.725 25.2 368.399 26.6933 368.399 28.42V30.45C368.399 32.3167 368.772 33.9267 369.519 35.28C370.312 36.6333 371.432 37.6833 372.879 38.43C374.325 39.13 376.052 39.48 378.059 39.48C379.925 39.48 381.512 39.2233 382.819 38.71C384.172 38.15 385.502 37.31 386.809 36.19L393.809 43.47C391.989 45.4767 389.749 47.0167 387.089 48.09C384.429 49.1167 381.279 49.63 377.639 49.63Z" fill="black"/>
<path d="M412.557 49L396.947 11.06H410.597L423.057 42.77H416.197L429.287 11.06H441.957L426.277 49H412.557Z" fill="black"/>
<path d="M464.25 49.63C459.77 49.63 455.85 48.79 452.49 47.11C449.177 45.3833 446.587 43.05 444.72 40.11C442.9 37.1233 441.99 33.74 441.99 29.96C441.99 26.18 442.877 22.82 444.65 19.88C446.47 16.8933 448.967 14.5833 452.14 12.95C455.313 11.27 458.883 10.43 462.85 10.43C466.583 10.43 469.99 11.2 473.07 12.74C476.15 14.2333 478.6 16.45 480.42 19.39C482.24 22.33 483.15 25.9 483.15 30.1C483.15 30.5667 483.127 31.1033 483.08 31.71C483.033 32.3167 482.987 32.8767 482.94 33.39H452.91V26.39H475.87L470.83 28.35C470.877 26.6233 470.55 25.13 469.85 23.87C469.197 22.61 468.263 21.63 467.05 20.93C465.883 20.23 464.507 19.88 462.92 19.88C461.333 19.88 459.933 20.23 458.72 20.93C457.553 21.63 456.643 22.6333 455.99 23.94C455.337 25.2 455.01 26.6933 455.01 28.42V30.45C455.01 32.3167 455.383 33.9267 456.13 35.28C456.923 36.6333 458.043 37.6833 459.49 38.43C460.937 39.13 462.663 39.48 464.67 39.48C466.537 39.48 468.123 39.2233 469.43 38.71C470.783 38.15 472.113 37.31 473.42 36.19L480.42 43.47C478.6 45.4767 476.36 47.0167 473.7 48.09C471.04 49.1167 467.89 49.63 464.25 49.63Z" fill="black"/>
<path d="M513.992 10.43C516.932 10.43 519.592 11.0367 521.972 12.25C524.352 13.4167 526.219 15.2367 527.572 17.71C528.972 20.1833 529.672 23.38 529.672 27.3V49H516.372V29.47C516.372 26.7633 515.812 24.8033 514.692 23.59C513.619 22.33 512.102 21.7 510.142 21.7C508.742 21.7 507.459 22.0267 506.292 22.68C505.126 23.2867 504.216 24.2433 503.562 25.55C502.909 26.8567 502.582 28.56 502.582 30.66V49H489.282V11.06H501.952V21.84L499.502 18.69C500.949 15.9367 502.932 13.8833 505.452 12.53C507.972 11.13 510.819 10.43 513.992 10.43Z" fill="black"/>
<path d="M554.962 49.63C550.109 49.63 546.329 48.44 543.622 46.06C540.916 43.6333 539.562 39.9933 539.562 35.14V2.59H552.862V35C552.862 36.3533 553.236 37.4267 553.982 38.22C554.729 38.9667 555.686 39.34 556.852 39.34C558.439 39.34 559.792 38.9433 560.912 38.15L564.202 47.46C563.082 48.2067 561.706 48.7433 560.072 49.07C558.439 49.4433 556.736 49.63 554.962 49.63ZM534.032 22.4V12.46H561.542V22.4H534.032Z" fill="black"/>
<path d="M568.545 59.99L573.795 41.79L575.685 49.35C573.351 49.35 571.438 48.6733 569.945 47.32C568.451 45.92 567.705 44.0533 567.705 41.72C567.705 39.2933 568.451 37.38 569.945 35.98C571.485 34.58 573.398 33.88 575.685 33.88C577.971 33.88 579.861 34.6033 581.355 36.05C582.848 37.45 583.595 39.34 583.595 41.72C583.595 42.3733 583.548 43.0267 583.455 43.68C583.361 44.3333 583.151 45.1267 582.825 46.06C582.498 46.9933 581.985 48.23 581.285 49.77L576.875 59.99H568.545Z" fill="black"/>
<path d="M0 134V82.06H13.3V134H0Z" fill="black"/>
<path d="M40.9834 134.63C36.83 134.63 33.1434 133.79 29.9234 132.11C26.7034 130.43 24.16 128.12 22.2934 125.18C20.4734 122.193 19.5634 118.787 19.5634 114.96C19.5634 111.133 20.4734 107.75 22.2934 104.81C24.16 101.87 26.7034 99.5833 29.9234 97.95C33.1434 96.27 36.83 95.43 40.9834 95.43C45.1367 95.43 48.8234 96.27 52.0434 97.95C55.31 99.5833 57.8534 101.87 59.6734 104.81C61.4934 107.75 62.4034 111.133 62.4034 114.96C62.4034 118.787 61.4934 122.193 59.6734 125.18C57.8534 128.12 55.31 130.43 52.0434 132.11C48.8234 133.79 45.1367 134.63 40.9834 134.63ZM40.9834 124.06C42.5234 124.06 43.8767 123.71 45.0434 123.01C46.2567 122.31 47.2134 121.283 47.9134 119.93C48.6134 118.53 48.9634 116.873 48.9634 114.96C48.9634 113.047 48.6134 111.437 47.9134 110.13C47.2134 108.777 46.2567 107.75 45.0434 107.05C43.8767 106.35 42.5234 106 40.9834 106C39.49 106 38.1367 106.35 36.9234 107.05C35.7567 107.75 34.8 108.777 34.0534 110.13C33.3534 111.437 33.0034 113.047 33.0034 114.96C33.0034 116.873 33.3534 118.53 34.0534 119.93C34.8 121.283 35.7567 122.31 36.9234 123.01C38.1367 123.71 39.49 124.06 40.9834 124.06Z" fill="black"/>
<path d="M87.9545 134.63C83.7545 134.63 79.9978 133.79 76.6844 132.11C73.4178 130.43 70.8511 128.12 68.9845 125.18C67.1178 122.193 66.1844 118.787 66.1844 114.96C66.1844 111.133 67.1178 107.75 68.9845 104.81C70.8511 101.87 73.4178 99.5833 76.6844 97.95C79.9978 96.27 83.7545 95.43 87.9545 95.43C92.2478 95.43 95.9578 96.34 99.0844 98.16C102.211 99.98 104.428 102.547 105.734 105.86L95.4445 111.11C94.5578 109.337 93.4611 108.053 92.1544 107.26C90.8478 106.42 89.4245 106 87.8845 106C86.3445 106 84.9445 106.35 83.6844 107.05C82.4244 107.75 81.4211 108.777 80.6745 110.13C79.9745 111.437 79.6245 113.047 79.6245 114.96C79.6245 116.92 79.9745 118.577 80.6745 119.93C81.4211 121.283 82.4244 122.31 83.6844 123.01C84.9445 123.71 86.3445 124.06 87.8845 124.06C89.4245 124.06 90.8478 123.663 92.1544 122.87C93.4611 122.03 94.5578 120.723 95.4445 118.95L105.734 124.2C104.428 127.513 102.211 130.08 99.0844 131.9C95.9578 133.72 92.2478 134.63 87.9545 134.63Z" fill="black"/>
<path d="M133.912 134V126.93L133.002 125.18V112.16C133.002 110.06 132.349 108.45 131.042 107.33C129.782 106.163 127.752 105.58 124.952 105.58C123.132 105.58 121.289 105.883 119.422 106.49C117.556 107.05 115.969 107.843 114.662 108.87L110.182 99.84C112.329 98.44 114.896 97.3667 117.882 96.62C120.916 95.8267 123.926 95.43 126.912 95.43C133.072 95.43 137.832 96.8533 141.192 99.7C144.599 102.5 146.302 106.91 146.302 112.93V134H133.912ZM122.712 134.63C119.679 134.63 117.112 134.117 115.012 133.09C112.912 132.063 111.302 130.663 110.182 128.89C109.109 127.117 108.572 125.133 108.572 122.94C108.572 120.607 109.156 118.6 110.322 116.92C111.536 115.193 113.379 113.887 115.852 113C118.326 112.067 121.522 111.6 125.442 111.6H134.402V118.53H127.262C125.116 118.53 123.599 118.88 122.712 119.58C121.872 120.28 121.452 121.213 121.452 122.38C121.452 123.547 121.896 124.48 122.782 125.18C123.669 125.88 124.882 126.23 126.422 126.23C127.869 126.23 129.176 125.88 130.342 125.18C131.556 124.433 132.442 123.313 133.002 121.82L134.822 126.72C134.122 129.333 132.746 131.317 130.692 132.67C128.686 133.977 126.026 134.63 122.712 134.63Z" fill="black"/>
<path d="M171.637 134.63C166.784 134.63 163.004 133.44 160.297 131.06C157.591 128.633 156.237 124.993 156.237 120.14V87.59H169.537V120C169.537 121.353 169.911 122.427 170.657 123.22C171.404 123.967 172.361 124.34 173.527 124.34C175.114 124.34 176.467 123.943 177.587 123.15L180.877 132.46C179.757 133.207 178.381 133.743 176.747 134.07C175.114 134.443 173.411 134.63 171.637 134.63ZM150.707 107.4V97.46H178.217V107.4H150.707Z" fill="black"/>
<path d="M204.792 134.63C200.312 134.63 196.392 133.79 193.032 132.11C189.719 130.383 187.129 128.05 185.262 125.11C183.442 122.123 182.532 118.74 182.532 114.96C182.532 111.18 183.419 107.82 185.192 104.88C187.012 101.893 189.509 99.5833 192.682 97.95C195.855 96.27 199.425 95.43 203.392 95.43C207.125 95.43 210.532 96.2 213.612 97.74C216.692 99.2333 219.142 101.45 220.962 104.39C222.782 107.33 223.692 110.9 223.692 115.1C223.692 115.567 223.669 116.103 223.622 116.71C223.575 117.317 223.529 117.877 223.482 118.39H193.452V111.39H216.412L211.372 113.35C211.419 111.623 211.092 110.13 210.392 108.87C209.739 107.61 208.805 106.63 207.592 105.93C206.425 105.23 205.049 104.88 203.462 104.88C201.875 104.88 200.475 105.23 199.262 105.93C198.095 106.63 197.185 107.633 196.532 108.94C195.879 110.2 195.552 111.693 195.552 113.42V115.45C195.552 117.317 195.925 118.927 196.672 120.28C197.465 121.633 198.585 122.683 200.032 123.43C201.479 124.13 203.205 124.48 205.212 124.48C207.079 124.48 208.665 124.223 209.972 123.71C211.325 123.15 212.655 122.31 213.962 121.19L220.962 128.47C219.142 130.477 216.902 132.017 214.242 133.09C211.582 134.117 208.432 134.63 204.792 134.63Z" fill="black"/>
<path d="M256.705 148.21C254.699 148.21 252.669 147.883 250.615 147.23C248.609 146.623 246.975 145.807 245.715 144.78L250.335 135.47C251.129 136.17 252.039 136.707 253.065 137.08C254.139 137.5 255.189 137.71 256.215 137.71C257.662 137.71 258.805 137.383 259.645 136.73C260.485 136.077 261.209 135.05 261.815 133.65L263.565 129.24L264.615 127.91L277.495 96.06H290.165L273.785 135.54C272.479 138.807 270.962 141.35 269.235 143.17C267.555 145.037 265.665 146.343 263.565 147.09C261.512 147.837 259.225 148.21 256.705 148.21ZM261.885 135.61L245.155 96.06H258.805L271.125 126.72L261.885 135.61Z" fill="black"/>
<path d="M311.618 134.63C307.465 134.63 303.778 133.79 300.558 132.11C297.338 130.43 294.795 128.12 292.928 125.18C291.108 122.193 290.198 118.787 290.198 114.96C290.198 111.133 291.108 107.75 292.928 104.81C294.795 101.87 297.338 99.5833 300.558 97.95C303.778 96.27 307.465 95.43 311.618 95.43C315.771 95.43 319.458 96.27 322.678 97.95C325.945 99.5833 328.488 101.87 330.308 104.81C332.128 107.75 333.038 111.133 333.038 114.96C333.038 118.787 332.128 122.193 330.308 125.18C328.488 128.12 325.945 130.43 322.678 132.11C319.458 133.79 315.771 134.63 311.618 134.63ZM311.618 124.06C313.158 124.06 314.511 123.71 315.678 123.01C316.891 122.31 317.848 121.283 318.548 119.93C319.248 118.53 319.598 116.873 319.598 114.96C319.598 113.047 319.248 111.437 318.548 110.13C317.848 108.777 316.891 107.75 315.678 107.05C314.511 106.35 313.158 106 311.618 106C310.125 106 308.771 106.35 307.558 107.05C306.391 107.75 305.435 108.777 304.688 110.13C303.988 111.437 303.638 113.047 303.638 114.96C303.638 116.873 303.988 118.53 304.688 119.93C305.435 121.283 306.391 122.31 307.558 123.01C308.771 123.71 310.125 124.06 311.618 124.06Z" fill="black"/>
<path d="M355.159 134.63C352.079 134.63 349.303 134.023 346.829 132.81C344.403 131.597 342.489 129.707 341.089 127.14C339.736 124.527 339.059 121.237 339.059 117.27V96.06H352.359V115.1C352.359 118.04 352.896 120.14 353.969 121.4C355.089 122.66 356.653 123.29 358.659 123.29C359.966 123.29 361.156 122.987 362.229 122.38C363.303 121.773 364.166 120.817 364.819 119.51C365.473 118.157 365.799 116.43 365.799 114.33V96.06H379.099V134H366.429V123.29L368.879 126.3C367.573 129.1 365.683 131.2 363.209 132.6C360.736 133.953 358.053 134.63 355.159 134.63Z" fill="black"/>
<path d="M387.666 134V96.06H400.336V107.12L398.446 103.97C399.566 101.123 401.386 99 403.906 97.6C406.426 96.1533 409.483 95.43 413.076 95.43V107.4C412.469 107.307 411.933 107.26 411.466 107.26C411.046 107.213 410.579 107.19 410.066 107.19C407.359 107.19 405.166 107.937 403.486 109.43C401.806 110.877 400.966 113.257 400.966 116.57V134H387.666Z" fill="black"/>
<path d="M456.012 134.63C451.159 134.63 447.379 133.44 444.672 131.06C441.966 128.633 440.612 124.993 440.612 120.14V87.59H453.912V120C453.912 121.353 454.286 122.427 455.032 123.22C455.779 123.967 456.736 124.34 457.902 124.34C459.489 124.34 460.842 123.943 461.962 123.15L465.252 132.46C464.132 133.207 462.756 133.743 461.122 134.07C459.489 134.443 457.786 134.63 456.012 134.63ZM435.082 107.4V97.46H462.592V107.4H435.082Z" fill="black"/>
<path d="M493.551 134V126.93L492.641 125.18V112.16C492.641 110.06 491.988 108.45 490.681 107.33C489.421 106.163 487.391 105.58 484.591 105.58C482.771 105.58 480.928 105.883 479.061 106.49C477.194 107.05 475.608 107.843 474.301 108.87L469.821 99.84C471.968 98.44 474.534 97.3667 477.521 96.62C480.554 95.8267 483.564 95.43 486.551 95.43C492.711 95.43 497.471 96.8533 500.831 99.7C504.238 102.5 505.941 106.91 505.941 112.93V134H493.551ZM482.351 134.63C479.318 134.63 476.751 134.117 474.651 133.09C472.551 132.063 470.941 130.663 469.821 128.89C468.748 127.117 468.211 125.133 468.211 122.94C468.211 120.607 468.794 118.6 469.961 116.92C471.174 115.193 473.018 113.887 475.491 113C477.964 112.067 481.161 111.6 485.081 111.6H494.041V118.53H486.901C484.754 118.53 483.238 118.88 482.351 119.58C481.511 120.28 481.091 121.213 481.091 122.38C481.091 123.547 481.534 124.48 482.421 125.18C483.308 125.88 484.521 126.23 486.061 126.23C487.508 126.23 488.814 125.88 489.981 125.18C491.194 124.433 492.081 123.313 492.641 121.82L494.461 126.72C493.761 129.333 492.384 131.317 490.331 132.67C488.324 133.977 485.664 134.63 482.351 134.63Z" fill="black"/>
<path d="M538.206 134.63C534.799 134.63 531.953 133.93 529.666 132.53C527.426 131.13 525.746 128.983 524.626 126.09C523.506 123.197 522.946 119.487 522.946 114.96C522.946 110.527 523.529 106.863 524.696 103.97C525.909 101.077 527.659 98.93 529.946 97.53C532.233 96.13 534.986 95.43 538.206 95.43C541.659 95.43 544.786 96.2233 547.586 97.81C550.433 99.3967 552.673 101.66 554.306 104.6C555.986 107.493 556.826 110.947 556.826 114.96C556.826 119.02 555.986 122.52 554.306 125.46C552.673 128.353 550.433 130.617 547.586 132.25C544.786 133.837 541.659 134.63 538.206 134.63ZM514.336 134V82.06H527.636V102.43L526.936 114.96L527.006 127.49V134H514.336ZM535.406 124.06C536.899 124.06 538.229 123.71 539.396 123.01C540.609 122.31 541.566 121.283 542.266 119.93C543.013 118.53 543.386 116.873 543.386 114.96C543.386 113.047 543.013 111.437 542.266 110.13C541.566 108.777 540.609 107.75 539.396 107.05C538.229 106.35 536.899 106 535.406 106C533.913 106 532.559 106.35 531.346 107.05C530.179 107.75 529.223 108.777 528.476 110.13C527.776 111.437 527.426 113.047 527.426 114.96C527.426 116.873 527.776 118.53 528.476 119.93C529.223 121.283 530.179 122.31 531.346 123.01C532.559 123.71 533.913 124.06 535.406 124.06Z" fill="black"/>
<path d="M563.008 134V82.06H576.308V134H563.008Z" fill="black"/>
<path d="M604.831 134.63C600.351 134.63 596.431 133.79 593.071 132.11C589.758 130.383 587.168 128.05 585.301 125.11C583.481 122.123 582.571 118.74 582.571 114.96C582.571 111.18 583.458 107.82 585.231 104.88C587.051 101.893 589.548 99.5833 592.721 97.95C595.894 96.27 599.464 95.43 603.431 95.43C607.164 95.43 610.571 96.2 613.651 97.74C616.731 99.2333 619.181 101.45 621.001 104.39C622.821 107.33 623.731 110.9 623.731 115.1C623.731 115.567 623.708 116.103 623.661 116.71C623.614 117.317 623.568 117.877 623.521 118.39H593.491V111.39H616.451L611.411 113.35C611.458 111.623 611.131 110.13 610.431 108.87C609.778 107.61 608.844 106.63 607.631 105.93C606.464 105.23 605.088 104.88 603.501 104.88C601.914 104.88 600.514 105.23 599.301 105.93C598.134 106.63 597.224 107.633 596.571 108.94C595.918 110.2 595.591 111.693 595.591 113.42V115.45C595.591 117.317 595.965 118.927 596.711 120.28C597.505 121.633 598.625 122.683 600.071 123.43C601.518 124.13 603.245 124.48 605.251 124.48C607.118 124.48 608.705 124.223 610.011 123.71C611.365 123.15 612.695 122.31 614.001 121.19L621.001 128.47C619.181 130.477 616.941 132.017 614.281 133.09C611.621 134.117 608.471 134.63 604.831 134.63Z" fill="black"/>
<path d="M635.463 134.63C633.223 134.63 631.333 133.883 629.793 132.39C628.253 130.897 627.483 129.007 627.483 126.72C627.483 124.34 628.253 122.45 629.793 121.05C631.333 119.603 633.223 118.88 635.463 118.88C637.703 118.88 639.593 119.603 641.133 121.05C642.673 122.45 643.443 124.34 643.443 126.72C643.443 129.007 642.673 130.897 641.133 132.39C639.593 133.883 637.703 134.63 635.463 134.63Z" fill="black"/>
</svg>
