<svg width="1366" height="130" viewBox="0 0 1366 130" fill="none" xmlns="http://www.w3.org/2000/svg">
<path d="M0 13H1366V130H0V13Z" fill="#F8E9DB"/>
<path d="M190.176 60.4761H196.242V62.7441H190.176V60.4761ZM190.392 65.6601H197.25V68.0001H187.494V55.4001H197.016V57.7401H190.392V65.6601Z" fill="#483332"/>
<path d="M198.007 68.0001L203.425 60.5301V62.6541L198.241 55.4001H201.553L205.135 60.4581L203.749 60.4761L207.277 55.4001H210.445L205.297 62.5281V60.4401L210.751 68.0001H207.385L203.677 62.6541H205.009L201.355 68.0001H198.007Z" fill="#483332"/>
<path d="M211.892 68.0001V55.4001H217.346C218.474 55.4001 219.446 55.5861 220.262 55.9581C221.078 56.3181 221.708 56.8401 222.152 57.5241C222.596 58.2081 222.818 59.0241 222.818 59.9721C222.818 60.9081 222.596 61.7181 222.152 62.4021C221.708 63.0861 221.078 63.6141 220.262 63.9861C219.446 64.3461 218.474 64.5261 217.346 64.5261H213.512L214.808 63.2121V68.0001H211.892ZM214.808 63.5361L213.512 62.1501H217.184C218.084 62.1501 218.756 61.9581 219.2 61.5741C219.644 61.1901 219.866 60.6561 219.866 59.9721C219.866 59.2761 219.644 58.7361 219.2 58.3521C218.756 57.9681 218.084 57.7761 217.184 57.7761H213.512L214.808 56.3901V63.5361Z" fill="#483332"/>
<path d="M224.9 68.0001V55.4001H227.816V65.6241H234.134V68.0001H224.9Z" fill="#483332"/>
<path d="M241.672 68.2161C240.676 68.2161 239.752 68.0541 238.9 67.7301C238.06 67.4061 237.328 66.9501 236.704 66.3621C236.092 65.7741 235.612 65.0841 235.264 64.2921C234.928 63.5001 234.76 62.6361 234.76 61.7001C234.76 60.7641 234.928 59.9001 235.264 59.1081C235.612 58.3161 236.098 57.6261 236.722 57.0381C237.346 56.4501 238.078 55.9941 238.918 55.6701C239.758 55.3461 240.67 55.1841 241.654 55.1841C242.65 55.1841 243.562 55.3461 244.39 55.6701C245.23 55.9941 245.956 56.4501 246.568 57.0381C247.192 57.6261 247.678 58.3161 248.026 59.1081C248.374 59.8881 248.548 60.7521 248.548 61.7001C248.548 62.6361 248.374 63.5061 248.026 64.3101C247.678 65.1021 247.192 65.7921 246.568 66.3801C245.956 66.9561 245.23 67.4061 244.39 67.7301C243.562 68.0541 242.656 68.2161 241.672 68.2161ZM241.654 65.7321C242.218 65.7321 242.734 65.6361 243.202 65.4441C243.682 65.2521 244.102 64.9761 244.462 64.6161C244.822 64.2561 245.098 63.8301 245.29 63.3381C245.494 62.8461 245.596 62.3001 245.596 61.7001C245.596 61.1001 245.494 60.5541 245.29 60.0621C245.098 59.5701 244.822 59.1441 244.462 58.7841C244.114 58.4241 243.7 58.1481 243.22 57.9561C242.74 57.7641 242.218 57.6681 241.654 57.6681C241.09 57.6681 240.568 57.7641 240.088 57.9561C239.62 58.1481 239.206 58.4241 238.846 58.7841C238.486 59.1441 238.204 59.5701 238 60.0621C237.808 60.5541 237.712 61.1001 237.712 61.7001C237.712 62.2881 237.808 62.8341 238 63.3381C238.204 63.8301 238.48 64.2561 238.828 64.6161C239.188 64.9761 239.608 65.2521 240.088 65.4441C240.568 65.6361 241.09 65.7321 241.654 65.7321Z" fill="#483332"/>
<path d="M250.74 68.0001V55.4001H256.194C257.322 55.4001 258.294 55.5861 259.11 55.9581C259.926 56.3181 260.556 56.8401 261 57.5241C261.444 58.2081 261.666 59.0241 261.666 59.9721C261.666 60.9081 261.444 61.7181 261 62.4021C260.556 63.0741 259.926 63.5901 259.11 63.9501C258.294 64.3101 257.322 64.4901 256.194 64.4901H252.36L253.656 63.2121V68.0001H250.74ZM258.75 68.0001L255.6 63.4281H258.714L261.9 68.0001H258.75ZM253.656 63.5361L252.36 62.1681H256.032C256.932 62.1681 257.604 61.9761 258.048 61.5921C258.492 61.1961 258.714 60.6561 258.714 59.9721C258.714 59.2761 258.492 58.7361 258.048 58.3521C257.604 57.9681 256.932 57.7761 256.032 57.7761H252.36L253.656 56.3901V63.5361Z" fill="#483332"/>
<path d="M266.658 60.4761H272.724V62.7441H266.658V60.4761ZM266.874 65.6601H273.732V68.0001H263.976V55.4001H273.498V57.7401H266.874V65.6601Z" fill="#483332"/>
<path d="M281.15 68.0001V55.4001H286.604C287.732 55.4001 288.704 55.5861 289.52 55.9581C290.336 56.3181 290.966 56.8401 291.41 57.5241C291.854 58.2081 292.076 59.0241 292.076 59.9721C292.076 60.9081 291.854 61.7181 291.41 62.4021C290.966 63.0741 290.336 63.5901 289.52 63.9501C288.704 64.3101 287.732 64.4901 286.604 64.4901H282.77L284.066 63.2121V68.0001H281.15ZM289.16 68.0001L286.01 63.4281H289.124L292.31 68.0001H289.16ZM284.066 63.5361L282.77 62.1681H286.442C287.342 62.1681 288.014 61.9761 288.458 61.5921C288.902 61.1961 289.124 60.6561 289.124 59.9721C289.124 59.2761 288.902 58.7361 288.458 58.3521C288.014 57.9681 287.342 57.7761 286.442 57.7761H282.77L284.066 56.3901V63.5361Z" fill="#483332"/>
<path d="M297.068 60.4761H303.134V62.7441H297.068V60.4761ZM297.284 65.6601H304.142V68.0001H294.386V55.4001H303.908V57.7401H297.284V65.6601Z" fill="#483332"/>
<path d="M310.603 68.2161C309.595 68.2161 308.629 68.0841 307.705 67.8201C306.781 67.5441 306.037 67.1901 305.473 66.7581L306.463 64.5621C307.003 64.9461 307.639 65.2641 308.371 65.5161C309.115 65.7561 309.865 65.8761 310.621 65.8761C311.197 65.8761 311.659 65.8221 312.007 65.7141C312.367 65.5941 312.631 65.4321 312.799 65.2281C312.967 65.0241 313.051 64.7901 313.051 64.5261C313.051 64.1901 312.919 63.9261 312.655 63.7341C312.391 63.5301 312.043 63.3681 311.611 63.2481C311.179 63.1161 310.699 62.9961 310.171 62.8881C309.655 62.7681 309.133 62.6241 308.605 62.4561C308.089 62.2881 307.615 62.0721 307.183 61.8081C306.751 61.5441 306.397 61.1961 306.121 60.7641C305.857 60.3321 305.725 59.7801 305.725 59.1081C305.725 58.3881 305.917 57.7341 306.301 57.1461C306.697 56.5461 307.285 56.0721 308.065 55.7241C308.857 55.3641 309.847 55.1841 311.035 55.1841C311.827 55.1841 312.607 55.2801 313.375 55.4721C314.143 55.6521 314.821 55.9281 315.409 56.3001L314.509 58.5141C313.921 58.1781 313.333 57.9321 312.745 57.7761C312.157 57.6081 311.581 57.5241 311.017 57.5241C310.453 57.5241 309.991 57.5901 309.631 57.7221C309.271 57.8541 309.013 58.0281 308.857 58.2441C308.701 58.4481 308.623 58.6881 308.623 58.9641C308.623 59.2881 308.755 59.5521 309.019 59.7561C309.283 59.9481 309.631 60.1041 310.063 60.2241C310.495 60.3441 310.969 60.4641 311.485 60.5841C312.013 60.7041 312.535 60.8421 313.051 60.9981C313.579 61.1541 314.059 61.3641 314.491 61.6281C314.923 61.8921 315.271 62.2401 315.535 62.6721C315.811 63.1041 315.949 63.6501 315.949 64.3101C315.949 65.0181 315.751 65.6661 315.355 66.2541C314.959 66.8421 314.365 67.3161 313.573 67.6761C312.793 68.0361 311.803 68.2161 310.603 68.2161Z" fill="#483332"/>
<path d="M320.623 60.4761H326.689V62.7441H320.623V60.4761ZM320.839 65.6601H327.697V68.0001H317.941V55.4001H327.463V57.7401H320.839V65.6601Z" fill="#483332"/>
<path d="M330.017 68.0001V55.4001H335.471C336.599 55.4001 337.571 55.5861 338.387 55.9581C339.203 56.3181 339.833 56.8401 340.277 57.5241C340.721 58.2081 340.943 59.0241 340.943 59.9721C340.943 60.9081 340.721 61.7181 340.277 62.4021C339.833 63.0741 339.203 63.5901 338.387 63.9501C337.571 64.3101 336.599 64.4901 335.471 64.4901H331.637L332.933 63.2121V68.0001H330.017ZM338.027 68.0001L334.877 63.4281H337.991L341.177 68.0001H338.027ZM332.933 63.5361L331.637 62.1681H335.309C336.209 62.1681 336.881 61.9761 337.325 61.5921C337.769 61.1961 337.991 60.6561 337.991 59.9721C337.991 59.2761 337.769 58.7361 337.325 58.3521C336.881 57.9681 336.209 57.7761 335.309 57.7761H331.637L332.933 56.3901V63.5361Z" fill="#483332"/>
<path d="M347.034 68.0001L341.598 55.4001H344.748L349.5 66.5601H347.646L352.47 55.4001H355.368L349.914 68.0001H347.034Z" fill="#483332"/>
<path d="M356.42 68.0001V55.4001H359.336V68.0001H356.42Z" fill="#483332"/>
<path d="M365.026 61.0701H371.074V63.4101H365.026V61.0701ZM365.242 68.0001H362.326V55.4001H371.848V57.7401H365.242V68.0001Z" fill="#483332"/>
<path d="M376.954 68.0001V62.8521L377.62 64.6161L372.076 55.4001H375.172L379.42 62.4741H377.638L381.904 55.4001H384.766L379.222 64.6161L379.87 62.8521V68.0001H376.954Z" fill="#483332"/>
<path d="M190.326 92.1121C189.579 92.1121 188.865 92.0001 188.184 91.7761C187.503 91.5428 186.966 91.2441 186.574 90.8801L187.092 89.7881C187.465 90.1148 187.941 90.3855 188.52 90.6001C189.099 90.8148 189.701 90.9221 190.326 90.9221C190.895 90.9221 191.357 90.8568 191.712 90.7261C192.067 90.5955 192.328 90.4181 192.496 90.1941C192.664 89.9608 192.748 89.6995 192.748 89.4101C192.748 89.0741 192.636 88.8035 192.412 88.5981C192.197 88.3928 191.913 88.2295 191.558 88.1081C191.213 87.9775 190.83 87.8655 190.41 87.7721C189.99 87.6788 189.565 87.5715 189.136 87.4501C188.716 87.3195 188.329 87.1561 187.974 86.9601C187.629 86.7641 187.349 86.5028 187.134 86.1761C186.919 85.8401 186.812 85.4108 186.812 84.8881C186.812 84.3841 186.943 83.9221 187.204 83.5021C187.475 83.0728 187.885 82.7321 188.436 82.4801C188.996 82.2188 189.705 82.0881 190.564 82.0881C191.133 82.0881 191.698 82.1628 192.258 82.3121C192.818 82.4615 193.303 82.6761 193.714 82.9561L193.252 84.0761C192.832 83.7961 192.389 83.5955 191.922 83.4741C191.455 83.3435 191.003 83.2781 190.564 83.2781C190.013 83.2781 189.561 83.3481 189.206 83.4881C188.851 83.6281 188.59 83.8148 188.422 84.0481C188.263 84.2815 188.184 84.5428 188.184 84.8321C188.184 85.1775 188.291 85.4528 188.506 85.6581C188.73 85.8635 189.015 86.0268 189.36 86.1481C189.715 86.2695 190.102 86.3815 190.522 86.4841C190.942 86.5775 191.362 86.6848 191.782 86.8061C192.211 86.9275 192.599 87.0861 192.944 87.2821C193.299 87.4781 193.583 87.7395 193.798 88.0661C194.013 88.3928 194.12 88.8128 194.12 89.3261C194.12 89.8208 193.985 90.2828 193.714 90.7121C193.443 91.1321 193.023 91.4728 192.454 91.7341C191.894 91.9861 191.185 92.1121 190.326 92.1121Z" fill="#483332"/>
<path d="M198.517 92.0841C197.771 92.0841 197.192 91.8835 196.781 91.4821C196.371 91.0808 196.165 90.5068 196.165 89.7601V82.9561H197.509V89.7041C197.509 90.1055 197.607 90.4135 197.803 90.6281C198.009 90.8428 198.298 90.9501 198.671 90.9501C199.091 90.9501 199.441 90.8335 199.721 90.6001L200.141 91.5661C199.936 91.7435 199.689 91.8741 199.399 91.9581C199.119 92.0421 198.825 92.0841 198.517 92.0841ZM194.905 85.6861V84.5801H199.637V85.6861H194.905Z" fill="#483332"/>
<path d="M206.372 92.0001V90.4321L206.302 90.1381V87.4641C206.302 86.8948 206.134 86.4561 205.798 86.1481C205.471 85.8308 204.977 85.6721 204.314 85.6721C203.875 85.6721 203.446 85.7468 203.026 85.8961C202.606 86.0361 202.251 86.2275 201.962 86.4701L201.402 85.4621C201.785 85.1541 202.242 84.9208 202.774 84.7621C203.315 84.5941 203.88 84.5101 204.468 84.5101C205.485 84.5101 206.269 84.7575 206.82 85.2521C207.371 85.7468 207.646 86.5028 207.646 87.5201V92.0001H206.372ZM203.936 92.0841C203.385 92.0841 202.9 91.9908 202.48 91.8041C202.069 91.6175 201.752 91.3608 201.528 91.0341C201.304 90.6981 201.192 90.3201 201.192 89.9001C201.192 89.4988 201.285 89.1348 201.472 88.8081C201.668 88.4815 201.981 88.2201 202.41 88.0241C202.849 87.8281 203.437 87.7301 204.174 87.7301H206.526V88.6961H204.23C203.558 88.6961 203.105 88.8081 202.872 89.0321C202.639 89.2561 202.522 89.5268 202.522 89.8441C202.522 90.2081 202.667 90.5021 202.956 90.7261C203.245 90.9408 203.647 91.0481 204.16 91.0481C204.664 91.0481 205.103 90.9361 205.476 90.7121C205.859 90.4881 206.134 90.1615 206.302 89.7321L206.568 90.6561C206.391 91.0948 206.078 91.4448 205.63 91.7061C205.182 91.9581 204.617 92.0841 203.936 92.0841Z" fill="#483332"/>
<path d="M210.319 94.8001C209.964 94.8001 209.619 94.7395 209.283 94.6181C208.947 94.5061 208.657 94.3381 208.415 94.1141L208.989 93.1061C209.175 93.2835 209.381 93.4188 209.605 93.5121C209.829 93.6055 210.067 93.6521 210.319 93.6521C210.645 93.6521 210.916 93.5681 211.131 93.4001C211.345 93.2321 211.546 92.9335 211.733 92.5041L212.195 91.4821L212.335 91.3141L215.247 84.5801H216.563L212.965 92.7421C212.75 93.2648 212.507 93.6755 212.237 93.9741C211.975 94.2728 211.686 94.4828 211.369 94.6041C211.051 94.7348 210.701 94.8001 210.319 94.8001ZM212.083 92.2381L208.695 84.5801H210.095L212.979 91.1881L212.083 92.2381Z" fill="#483332"/>
<path d="M225.833 92.1121C224.545 92.1121 223.532 91.7435 222.795 91.0061C222.057 90.2688 221.689 89.1908 221.689 87.7721V82.2001H223.089V87.7161C223.089 88.8081 223.327 89.6061 223.803 90.1101C224.288 90.6141 224.969 90.8661 225.847 90.8661C226.733 90.8661 227.415 90.6141 227.891 90.1101C228.376 89.6061 228.619 88.8081 228.619 87.7161V82.2001H229.977V87.7721C229.977 89.1908 229.608 90.2688 228.871 91.0061C228.143 91.7435 227.13 92.1121 225.833 92.1121Z" fill="#483332"/>
<path d="M236.585 92.0841C235.969 92.0841 235.404 91.9441 234.891 91.6641C234.387 91.3748 233.981 90.9501 233.673 90.3901C233.374 89.8301 233.225 89.1301 233.225 88.2901C233.225 87.4501 233.37 86.7501 233.659 86.1901C233.958 85.6301 234.359 85.2101 234.863 84.9301C235.376 84.6501 235.95 84.5101 236.585 84.5101C237.313 84.5101 237.957 84.6688 238.517 84.9861C239.077 85.3035 239.52 85.7468 239.847 86.3161C240.174 86.8761 240.337 87.5341 240.337 88.2901C240.337 89.0461 240.174 89.7088 239.847 90.2781C239.52 90.8475 239.077 91.2908 238.517 91.6081C237.957 91.9255 237.313 92.0841 236.585 92.0841ZM232.651 94.7161V84.5801H233.939V86.5821L233.855 88.3041L233.995 90.0261V94.7161H232.651ZM236.473 90.9081C236.949 90.9081 237.374 90.8008 237.747 90.5861C238.13 90.3715 238.428 90.0681 238.643 89.6761C238.867 89.2748 238.979 88.8128 238.979 88.2901C238.979 87.7581 238.867 87.3008 238.643 86.9181C238.428 86.5261 238.13 86.2228 237.747 86.0081C237.374 85.7935 236.949 85.6861 236.473 85.6861C236.006 85.6861 235.582 85.7935 235.199 86.0081C234.826 86.2228 234.527 86.5261 234.303 86.9181C234.088 87.3008 233.981 87.7581 233.981 88.2901C233.981 88.8128 234.088 89.2748 234.303 89.6761C234.527 90.0681 234.826 90.3715 235.199 90.5861C235.582 90.8008 236.006 90.9081 236.473 90.9081Z" fill="#483332"/>
<path d="M244.742 92.0841C243.995 92.0841 243.417 91.8835 243.006 91.4821C242.595 91.0808 242.39 90.5068 242.39 89.7601V82.9561H243.734V89.7041C243.734 90.1055 243.832 90.4135 244.028 90.6281C244.233 90.8428 244.523 90.9501 244.896 90.9501C245.316 90.9501 245.666 90.8335 245.946 90.6001L246.366 91.5661C246.161 91.7435 245.913 91.8741 245.624 91.9581C245.344 92.0421 245.05 92.0841 244.742 92.0841ZM241.13 85.6861V84.5801H245.862V85.6861H241.13Z" fill="#483332"/>
<path d="M250.923 92.0841C250.176 92.0841 249.513 91.9208 248.935 91.5941C248.356 91.2675 247.899 90.8195 247.563 90.2501C247.227 89.6715 247.059 89.0181 247.059 88.2901C247.059 87.5528 247.227 86.8995 247.563 86.3301C247.899 85.7608 248.356 85.3175 248.935 85.0001C249.513 84.6735 250.176 84.5101 250.923 84.5101C251.66 84.5101 252.318 84.6735 252.897 85.0001C253.485 85.3175 253.942 85.7608 254.269 86.3301C254.605 86.8901 254.773 87.5435 254.773 88.2901C254.773 89.0275 254.605 89.6808 254.269 90.2501C253.942 90.8195 253.485 91.2675 252.897 91.5941C252.318 91.9208 251.66 92.0841 250.923 92.0841ZM250.923 90.9081C251.399 90.9081 251.823 90.8008 252.197 90.5861C252.579 90.3715 252.878 90.0681 253.093 89.6761C253.307 89.2748 253.415 88.8128 253.415 88.2901C253.415 87.7581 253.307 87.3008 253.093 86.9181C252.878 86.5261 252.579 86.2228 252.197 86.0081C251.823 85.7935 251.399 85.6861 250.923 85.6861C250.447 85.6861 250.022 85.7935 249.649 86.0081C249.275 86.2228 248.977 86.5261 248.753 86.9181C248.529 87.3008 248.417 87.7581 248.417 88.2901C248.417 88.8128 248.529 89.2748 248.753 89.6761C248.977 90.0681 249.275 90.3715 249.649 90.5861C250.022 90.8008 250.447 90.9081 250.923 90.9081Z" fill="#483332"/>
<path d="M260.587 92.0001V82.2001H264.717C265.762 82.2001 266.682 82.4055 267.475 82.8161C268.278 83.2268 268.898 83.8008 269.337 84.5381C269.785 85.2755 270.009 86.1295 270.009 87.1001C270.009 88.0708 269.785 88.9248 269.337 89.6621C268.898 90.3995 268.278 90.9735 267.475 91.3841C266.682 91.7948 265.762 92.0001 264.717 92.0001H260.587ZM261.987 90.7821H264.633C265.445 90.7821 266.145 90.6281 266.733 90.3201C267.33 90.0121 267.792 89.5828 268.119 89.0321C268.446 88.4721 268.609 87.8281 268.609 87.1001C268.609 86.3628 268.446 85.7188 268.119 85.1681C267.792 84.6175 267.33 84.1881 266.733 83.8801C266.145 83.5721 265.445 83.4181 264.633 83.4181H261.987V90.7821Z" fill="#483332"/>
<path d="M276.564 92.0001V90.4321L276.494 90.1381V87.4641C276.494 86.8948 276.326 86.4561 275.99 86.1481C275.663 85.8308 275.168 85.6721 274.506 85.6721C274.067 85.6721 273.638 85.7468 273.218 85.8961C272.798 86.0361 272.443 86.2275 272.154 86.4701L271.594 85.4621C271.976 85.1541 272.434 84.9208 272.966 84.7621C273.507 84.5941 274.072 84.5101 274.66 84.5101C275.677 84.5101 276.461 84.7575 277.012 85.2521C277.562 85.7468 277.838 86.5028 277.838 87.5201V92.0001H276.564ZM274.128 92.0841C273.577 92.0841 273.092 91.9908 272.672 91.8041C272.261 91.6175 271.944 91.3608 271.72 91.0341C271.496 90.6981 271.384 90.3201 271.384 89.9001C271.384 89.4988 271.477 89.1348 271.664 88.8081C271.86 88.4815 272.172 88.2201 272.602 88.0241C273.04 87.8281 273.628 87.7301 274.366 87.7301H276.718V88.6961H274.422C273.75 88.6961 273.297 88.8081 273.064 89.0321C272.83 89.2561 272.714 89.5268 272.714 89.8441C272.714 90.2081 272.858 90.5021 273.148 90.7261C273.437 90.9408 273.838 91.0481 274.352 91.0481C274.856 91.0481 275.294 90.9361 275.668 90.7121C276.05 90.4881 276.326 90.1615 276.494 89.7321L276.76 90.6561C276.582 91.0948 276.27 91.4448 275.822 91.7061C275.374 91.9581 274.809 92.0841 274.128 92.0841Z" fill="#483332"/>
<path d="M282.873 92.0841C282.126 92.0841 281.547 91.8835 281.137 91.4821C280.726 91.0808 280.521 90.5068 280.521 89.7601V82.9561H281.865V89.7041C281.865 90.1055 281.963 90.4135 282.159 90.6281C282.364 90.8428 282.653 90.9501 283.027 90.9501C283.447 90.9501 283.797 90.8335 284.077 90.6001L284.497 91.5661C284.291 91.7435 284.044 91.8741 283.755 91.9581C283.475 92.0421 283.181 92.0841 282.873 92.0841ZM279.261 85.6861V84.5801H283.993V85.6861H279.261Z" fill="#483332"/>
<path d="M289.18 92.0841C288.386 92.0841 287.686 91.9208 287.08 91.5941C286.482 91.2675 286.016 90.8195 285.68 90.2501C285.353 89.6808 285.19 89.0275 285.19 88.2901C285.19 87.5528 285.348 86.8995 285.666 86.3301C285.992 85.7608 286.436 85.3175 286.996 85.0001C287.565 84.6735 288.204 84.5101 288.914 84.5101C289.632 84.5101 290.267 84.6688 290.818 84.9861C291.368 85.3035 291.798 85.7515 292.106 86.3301C292.423 86.8995 292.582 87.5668 292.582 88.3321C292.582 88.3881 292.577 88.4535 292.568 88.5281C292.568 88.6028 292.563 88.6728 292.554 88.7381H286.24V87.7721H291.854L291.308 88.1081C291.317 87.6321 291.219 87.2075 291.014 86.8341C290.808 86.4608 290.524 86.1715 290.16 85.9661C289.805 85.7515 289.39 85.6441 288.914 85.6441C288.447 85.6441 288.032 85.7515 287.668 85.9661C287.304 86.1715 287.019 86.4655 286.814 86.8481C286.608 87.2215 286.506 87.6508 286.506 88.1361V88.3601C286.506 88.8548 286.618 89.2981 286.842 89.6901C287.075 90.0728 287.397 90.3715 287.808 90.5861C288.218 90.8008 288.69 90.9081 289.222 90.9081C289.66 90.9081 290.057 90.8335 290.412 90.6841C290.776 90.5348 291.093 90.3108 291.364 90.0121L292.106 90.8801C291.77 91.2721 291.35 91.5708 290.846 91.7761C290.351 91.9815 289.796 92.0841 289.18 92.0841Z" fill="#483332"/>
<path d="M392 72C392 57.6406 403.641 46 418 46H1160C1174.36 46 1186 57.6406 1186 72C1186 86.3594 1174.36 98 1160 98H418C403.641 98 392 86.3594 392 72Z" fill="white"/>
<path fill-rule="evenodd" clip-rule="evenodd" d="M1160 47H418C404.193 47 393 58.1929 393 72C393 85.8071 404.193 97 418 97H1160C1173.81 97 1185 85.8071 1185 72C1185 58.1929 1173.81 47 1160 47ZM418 46C403.641 46 392 57.6406 392 72C392 86.3594 403.641 98 418 98H1160C1174.36 98 1186 86.3594 1186 72C1186 57.6406 1174.36 46 1160 46H418Z" fill="#E8EAEC"/>
<path d="M420.222 73.6121V77.0001H418.836V73.5841L414.944 67.2001H416.442L419.578 72.3661L422.728 67.2001H424.114L420.222 73.6121Z" fill="#9A9A9A"/>
<path d="M427.683 77.0841C426.945 77.0841 426.283 76.9208 425.695 76.5941C425.107 76.2674 424.645 75.8194 424.309 75.2501C423.982 74.6714 423.819 74.0181 423.819 73.2901C423.819 72.5621 423.982 71.9134 424.309 71.3441C424.645 70.7654 425.107 70.3174 425.695 70.0001C426.283 69.6734 426.945 69.5101 427.683 69.5101C428.42 69.5101 429.078 69.6734 429.657 70.0001C430.245 70.3174 430.702 70.7654 431.029 71.3441C431.365 71.9134 431.533 72.5621 431.533 73.2901C431.533 74.0181 431.365 74.6714 431.029 75.2501C430.702 75.8194 430.245 76.2674 429.657 76.5941C429.078 76.9208 428.42 77.0841 427.683 77.0841ZM427.683 75.9081C428.159 75.9081 428.583 75.8008 428.957 75.5861C429.339 75.3621 429.638 75.0541 429.853 74.6621C430.067 74.2608 430.175 73.8034 430.175 73.2901C430.175 72.7768 430.067 72.3241 429.853 71.9321C429.638 71.5308 429.339 71.2228 428.957 71.0081C428.583 70.7934 428.159 70.6861 427.683 70.6861C427.207 70.6861 426.777 70.7934 426.395 71.0081C426.021 71.2228 425.723 71.5308 425.499 71.9321C425.284 72.3241 425.177 72.7768 425.177 73.2901C425.177 73.8034 425.284 74.2608 425.499 74.6621C425.723 75.0541 426.021 75.3621 426.395 75.5861C426.777 75.8008 427.207 75.9081 427.683 75.9081Z" fill="#9A9A9A"/>
<path d="M440.307 69.5801V77.0001H439.033V75.8801C438.763 76.2628 438.403 76.5614 437.955 76.7761C437.517 76.9814 437.036 77.0841 436.513 77.0841C435.524 77.0841 434.745 76.8134 434.175 76.2721C433.606 75.7214 433.321 74.9141 433.321 73.8501V69.5801H434.665V73.6961C434.665 74.4148 434.838 74.9608 435.183 75.3341C435.529 75.6981 436.023 75.8801 436.667 75.8801C437.377 75.8801 437.937 75.6654 438.347 75.2361C438.758 74.8068 438.963 74.2001 438.963 73.4161V69.5801H440.307Z" fill="#9A9A9A"/>
<path d="M444.154 70.8261C444.387 70.3968 444.733 70.0701 445.19 69.8461C445.647 69.6221 446.203 69.5101 446.856 69.5101V70.8121C446.781 70.8028 446.679 70.7981 446.548 70.7981C445.82 70.7981 445.246 71.0174 444.826 71.4561C444.415 71.8854 444.21 72.5014 444.21 73.3041V77.0001H442.866V69.5801H444.154V70.8261Z" fill="#9A9A9A"/>
<path d="M459.676 75.7821V77.0001H452.564V67.2001H459.48V68.4181H453.964V71.4281H458.878V72.6181H453.964V75.7821H459.676Z" fill="#9A9A9A"/>
<path d="M471.029 69.5101C471.962 69.5101 472.699 69.7808 473.241 70.3221C473.791 70.8634 474.067 71.6661 474.067 72.7301V77.0001H472.723V72.8841C472.723 72.1654 472.555 71.6241 472.219 71.2601C471.892 70.8961 471.421 70.7141 470.805 70.7141C470.123 70.7141 469.582 70.9288 469.181 71.3581C468.779 71.7781 468.579 72.3848 468.579 73.1781V77.0001H467.235V72.8841C467.235 72.1654 467.067 71.6241 466.731 71.2601C466.404 70.8961 465.933 70.7141 465.317 70.7141C464.635 70.7141 464.094 70.9288 463.693 71.3581C463.291 71.7781 463.091 72.3848 463.091 73.1781V77.0001H461.747V69.5801H463.035V70.6861C463.305 70.3034 463.66 70.0141 464.099 69.8181C464.537 69.6128 465.037 69.5101 465.597 69.5101C466.175 69.5101 466.689 69.6268 467.137 69.8601C467.585 70.0934 467.93 70.4341 468.173 70.8821C468.453 70.4528 468.84 70.1168 469.335 69.8741C469.839 69.6314 470.403 69.5101 471.029 69.5101Z" fill="#9A9A9A"/>
<path d="M479.242 69.5101C480.268 69.5101 481.052 69.7621 481.594 70.2661C482.144 70.7701 482.42 71.5214 482.42 72.5201V77.0001H481.146V76.0201C480.922 76.3654 480.6 76.6314 480.18 76.8181C479.769 76.9954 479.279 77.0841 478.71 77.0841C477.879 77.0841 477.212 76.8834 476.708 76.4821C476.213 76.0808 475.966 75.5534 475.966 74.9001C475.966 74.2468 476.204 73.7241 476.68 73.3321C477.156 72.9308 477.912 72.7301 478.948 72.7301H481.076V72.4641C481.076 71.8854 480.908 71.4421 480.572 71.1341C480.236 70.8261 479.741 70.6721 479.088 70.6721C478.649 70.6721 478.22 70.7468 477.8 70.8961C477.38 71.0361 477.025 71.2274 476.736 71.4701L476.176 70.4621C476.558 70.1541 477.016 69.9208 477.548 69.7621C478.08 69.5941 478.644 69.5101 479.242 69.5101ZM478.934 76.0481C479.447 76.0481 479.89 75.9361 480.264 75.7121C480.637 75.4788 480.908 75.1521 481.076 74.7321V73.6961H479.004C477.865 73.6961 477.296 74.0788 477.296 74.8441C477.296 75.2174 477.44 75.5114 477.73 75.7261C478.019 75.9408 478.42 76.0481 478.934 76.0481Z" fill="#9A9A9A"/>
<path d="M484.907 69.5801H486.251V77.0001H484.907V69.5801ZM485.579 68.1521C485.318 68.1521 485.098 68.0681 484.921 67.9001C484.753 67.7321 484.669 67.5268 484.669 67.2841C484.669 67.0414 484.753 66.8361 484.921 66.6681C485.098 66.4908 485.318 66.4021 485.579 66.4021C485.84 66.4021 486.055 66.4861 486.223 66.6541C486.4 66.8128 486.489 67.0134 486.489 67.2561C486.489 67.5081 486.4 67.7228 486.223 67.9001C486.055 68.0681 485.84 68.1521 485.579 68.1521Z" fill="#9A9A9A"/>
<path d="M488.817 66.6121H490.161V77.0001H488.817V66.6121Z" fill="#9A9A9A"/>
<path d="M493.049 77.0841C492.788 77.0841 492.564 76.9954 492.377 76.8181C492.191 76.6314 492.097 76.3981 492.097 76.1181C492.097 75.8474 492.191 75.6234 492.377 75.4461C492.564 75.2594 492.788 75.1661 493.049 75.1661C493.311 75.1661 493.53 75.2548 493.707 75.4321C493.885 75.6094 493.973 75.8381 493.973 76.1181C493.973 76.3981 493.88 76.6314 493.693 76.8181C493.516 76.9954 493.301 77.0841 493.049 77.0841Z" fill="#9A9A9A"/>
<path d="M496.221 77.0841C495.96 77.0841 495.736 76.9954 495.549 76.8181C495.362 76.6314 495.269 76.3981 495.269 76.1181C495.269 75.8474 495.362 75.6234 495.549 75.4461C495.736 75.2594 495.96 75.1661 496.221 75.1661C496.482 75.1661 496.702 75.2548 496.879 75.4321C497.056 75.6094 497.145 75.8381 497.145 76.1181C497.145 76.3981 497.052 76.6314 496.865 76.8181C496.688 76.9954 496.473 77.0841 496.221 77.0841Z" fill="#9A9A9A"/>
<path d="M499.393 77.0841C499.132 77.0841 498.908 76.9954 498.721 76.8181C498.534 76.6314 498.441 76.3981 498.441 76.1181C498.441 75.8474 498.534 75.6234 498.721 75.4461C498.908 75.2594 499.132 75.1661 499.393 75.1661C499.654 75.1661 499.874 75.2548 500.051 75.4321C500.228 75.6094 500.317 75.8381 500.317 76.1181C500.317 76.3981 500.224 76.6314 500.037 76.8181C499.86 76.9954 499.645 77.0841 499.393 77.0841Z" fill="#9A9A9A"/>
<path d="M1185 72C1185 86.3594 1173.36 98 1159 98C1144.64 98 1133 86.3594 1133 72C1133 57.6406 1144.64 46 1159 46C1173.36 46 1185 57.6406 1185 72Z" fill="#9A9A9A"/>
<path d="M1152.96 83.8599L1171.44 73.514C1171.71 73.362 1171.94 73.1404 1172.09 72.872C1172.25 72.6036 1172.33 72.2981 1172.33 71.987C1172.33 71.6759 1172.25 71.3704 1172.09 71.102C1171.94 70.8336 1171.71 70.612 1171.44 70.46L1152.96 60.114C1152.65 59.9399 1152.3 59.8649 1151.94 59.8989C1151.59 59.9328 1151.25 60.0743 1150.98 60.3043C1150.71 60.5343 1150.51 60.8418 1150.42 61.1859C1150.33 61.5299 1150.34 61.894 1150.46 62.2296L1153.95 71.9869L1150.46 81.7445C1150.39 81.9355 1150.36 82.137 1150.36 82.34C1150.36 82.6447 1150.44 82.9436 1150.59 83.2074C1150.74 83.4711 1150.96 83.6905 1151.23 83.844C1151.49 83.9974 1151.79 84.0796 1152.09 84.0824C1152.4 84.0852 1152.7 84.0085 1152.96 83.8599L1152.96 83.8599ZM1155.49 72.862L1161.87 72.862C1162.11 72.862 1162.33 72.7698 1162.49 72.6057C1162.66 72.4416 1162.75 72.2191 1162.75 71.987C1162.75 71.755 1162.66 71.5324 1162.49 71.3683C1162.33 71.2042 1162.11 71.112 1161.87 71.112L1155.49 71.112L1152.11 61.6415L1170.58 71.987L1152.11 82.3321L1155.49 72.862Z" fill="white"/>
</svg>
