<svg width="1366" height="130" viewBox="0 0 1366 130" fill="none" xmlns="http://www.w3.org/2000/svg">
<path d="M0 13H1366V130H0V13Z" fill="#F8E9DB"/>
<path d="M190.176 60.4761H196.242V62.7441H190.176V60.4761ZM190.392 65.6601H197.25V68.0001H187.494V55.4001H197.016V57.7401H190.392V65.6601Z" fill="#483332"/>
<path d="M198.007 68.0001L203.425 60.5301V62.6541L198.241 55.4001H201.553L205.135 60.4581L203.749 60.4761L207.277 55.4001H210.445L205.297 62.5281V60.4401L210.751 68.0001H207.385L203.677 62.6541H205.009L201.355 68.0001H198.007Z" fill="#483332"/>
<path d="M211.893 68.0001V55.4001H217.347C218.475 55.4001 219.447 55.5861 220.263 55.9581C221.079 56.3181 221.709 56.8401 222.153 57.5241C222.597 58.2081 222.819 59.0241 222.819 59.9721C222.819 60.9081 222.597 61.7181 222.153 62.4021C221.709 63.0861 221.079 63.6141 220.263 63.9861C219.447 64.3461 218.475 64.5261 217.347 64.5261H213.513L214.809 63.2121V68.0001H211.893ZM214.809 63.5361L213.513 62.1501H217.185C218.085 62.1501 218.757 61.9581 219.201 61.5741C219.645 61.1901 219.867 60.6561 219.867 59.9721C219.867 59.2761 219.645 58.7361 219.201 58.3521C218.757 57.9681 218.085 57.7761 217.185 57.7761H213.513L214.809 56.3901V63.5361Z" fill="#483332"/>
<path d="M224.9 68.0001V55.4001H227.816V65.6241H234.134V68.0001H224.9Z" fill="#483332"/>
<path d="M241.673 68.2161C240.677 68.2161 239.753 68.0541 238.901 67.7301C238.061 67.4061 237.329 66.9501 236.705 66.3621C236.093 65.7741 235.613 65.0841 235.265 64.2921C234.929 63.5001 234.761 62.6361 234.761 61.7001C234.761 60.7641 234.929 59.9001 235.265 59.1081C235.613 58.3161 236.099 57.6261 236.723 57.0381C237.347 56.4501 238.079 55.9941 238.919 55.6701C239.759 55.3461 240.671 55.1841 241.655 55.1841C242.651 55.1841 243.563 55.3461 244.391 55.6701C245.231 55.9941 245.957 56.4501 246.569 57.0381C247.193 57.6261 247.679 58.3161 248.027 59.1081C248.375 59.8881 248.549 60.7521 248.549 61.7001C248.549 62.6361 248.375 63.5061 248.027 64.3101C247.679 65.1021 247.193 65.7921 246.569 66.3801C245.957 66.9561 245.231 67.4061 244.391 67.7301C243.563 68.0541 242.657 68.2161 241.673 68.2161ZM241.655 65.7321C242.219 65.7321 242.735 65.6361 243.203 65.4441C243.683 65.2521 244.103 64.9761 244.463 64.6161C244.823 64.2561 245.099 63.8301 245.291 63.3381C245.495 62.8461 245.597 62.3001 245.597 61.7001C245.597 61.1001 245.495 60.5541 245.291 60.0621C245.099 59.5701 244.823 59.1441 244.463 58.7841C244.115 58.4241 243.701 58.1481 243.221 57.9561C242.741 57.7641 242.219 57.6681 241.655 57.6681C241.091 57.6681 240.569 57.7641 240.089 57.9561C239.621 58.1481 239.207 58.4241 238.847 58.7841C238.487 59.1441 238.205 59.5701 238.001 60.0621C237.809 60.5541 237.713 61.1001 237.713 61.7001C237.713 62.2881 237.809 62.8341 238.001 63.3381C238.205 63.8301 238.481 64.2561 238.829 64.6161C239.189 64.9761 239.609 65.2521 240.089 65.4441C240.569 65.6361 241.091 65.7321 241.655 65.7321Z" fill="#483332"/>
<path d="M250.74 68.0001V55.4001H256.194C257.322 55.4001 258.294 55.5861 259.11 55.9581C259.926 56.3181 260.556 56.8401 261 57.5241C261.444 58.2081 261.666 59.0241 261.666 59.9721C261.666 60.9081 261.444 61.7181 261 62.4021C260.556 63.0741 259.926 63.5901 259.11 63.9501C258.294 64.3101 257.322 64.4901 256.194 64.4901H252.36L253.656 63.2121V68.0001H250.74ZM258.75 68.0001L255.6 63.4281H258.714L261.9 68.0001H258.75ZM253.656 63.5361L252.36 62.1681H256.032C256.932 62.1681 257.604 61.9761 258.048 61.5921C258.492 61.1961 258.714 60.6561 258.714 59.9721C258.714 59.2761 258.492 58.7361 258.048 58.3521C257.604 57.9681 256.932 57.7761 256.032 57.7761H252.36L253.656 56.3901V63.5361Z" fill="#483332"/>
<path d="M266.659 60.4761H272.725V62.7441H266.659V60.4761ZM266.875 65.6601H273.733V68.0001H263.977V55.4001H273.499V57.7401H266.875V65.6601Z" fill="#483332"/>
<path d="M281.15 68.0001V55.4001H286.604C287.732 55.4001 288.704 55.5861 289.52 55.9581C290.336 56.3181 290.966 56.8401 291.41 57.5241C291.854 58.2081 292.076 59.0241 292.076 59.9721C292.076 60.9081 291.854 61.7181 291.41 62.4021C290.966 63.0741 290.336 63.5901 289.52 63.9501C288.704 64.3101 287.732 64.4901 286.604 64.4901H282.77L284.066 63.2121V68.0001H281.15ZM289.16 68.0001L286.01 63.4281H289.124L292.31 68.0001H289.16ZM284.066 63.5361L282.77 62.1681H286.442C287.342 62.1681 288.014 61.9761 288.458 61.5921C288.902 61.1961 289.124 60.6561 289.124 59.9721C289.124 59.2761 288.902 58.7361 288.458 58.3521C288.014 57.9681 287.342 57.7761 286.442 57.7761H282.77L284.066 56.3901V63.5361Z" fill="#483332"/>
<path d="M297.069 60.4761H303.135V62.7441H297.069V60.4761ZM297.285 65.6601H304.143V68.0001H294.387V55.4001H303.909V57.7401H297.285V65.6601Z" fill="#483332"/>
<path d="M310.603 68.2161C309.595 68.2161 308.629 68.0841 307.705 67.8201C306.781 67.5441 306.037 67.1901 305.473 66.7581L306.463 64.5621C307.003 64.9461 307.639 65.2641 308.371 65.5161C309.115 65.7561 309.865 65.8761 310.621 65.8761C311.197 65.8761 311.659 65.8221 312.007 65.7141C312.367 65.5941 312.631 65.4321 312.799 65.2281C312.967 65.0241 313.051 64.7901 313.051 64.5261C313.051 64.1901 312.919 63.9261 312.655 63.7341C312.391 63.5301 312.043 63.3681 311.611 63.2481C311.179 63.1161 310.699 62.9961 310.171 62.8881C309.655 62.7681 309.133 62.6241 308.605 62.4561C308.089 62.2881 307.615 62.0721 307.183 61.8081C306.751 61.5441 306.397 61.1961 306.121 60.7641C305.857 60.3321 305.725 59.7801 305.725 59.1081C305.725 58.3881 305.917 57.7341 306.301 57.1461C306.697 56.5461 307.285 56.0721 308.065 55.7241C308.857 55.3641 309.847 55.1841 311.035 55.1841C311.827 55.1841 312.607 55.2801 313.375 55.4721C314.143 55.6521 314.821 55.9281 315.409 56.3001L314.509 58.5141C313.921 58.1781 313.333 57.9321 312.745 57.7761C312.157 57.6081 311.581 57.5241 311.017 57.5241C310.453 57.5241 309.991 57.5901 309.631 57.7221C309.271 57.8541 309.013 58.0281 308.857 58.2441C308.701 58.4481 308.623 58.6881 308.623 58.9641C308.623 59.2881 308.755 59.5521 309.019 59.7561C309.283 59.9481 309.631 60.1041 310.063 60.2241C310.495 60.3441 310.969 60.4641 311.485 60.5841C312.013 60.7041 312.535 60.8421 313.051 60.9981C313.579 61.1541 314.059 61.3641 314.491 61.6281C314.923 61.8921 315.271 62.2401 315.535 62.6721C315.811 63.1041 315.949 63.6501 315.949 64.3101C315.949 65.0181 315.751 65.6661 315.355 66.2541C314.959 66.8421 314.365 67.3161 313.573 67.6761C312.793 68.0361 311.803 68.2161 310.603 68.2161Z" fill="#483332"/>
<path d="M320.623 60.4761H326.689V62.7441H320.623V60.4761ZM320.839 65.6601H327.697V68.0001H317.941V55.4001H327.463V57.7401H320.839V65.6601Z" fill="#483332"/>
<path d="M330.018 68.0001V55.4001H335.472C336.6 55.4001 337.572 55.5861 338.388 55.9581C339.204 56.3181 339.834 56.8401 340.278 57.5241C340.722 58.2081 340.944 59.0241 340.944 59.9721C340.944 60.9081 340.722 61.7181 340.278 62.4021C339.834 63.0741 339.204 63.5901 338.388 63.9501C337.572 64.3101 336.6 64.4901 335.472 64.4901H331.638L332.934 63.2121V68.0001H330.018ZM338.028 68.0001L334.878 63.4281H337.992L341.178 68.0001H338.028ZM332.934 63.5361L331.638 62.1681H335.31C336.21 62.1681 336.882 61.9761 337.326 61.5921C337.77 61.1961 337.992 60.6561 337.992 59.9721C337.992 59.2761 337.77 58.7361 337.326 58.3521C336.882 57.9681 336.21 57.7761 335.31 57.7761H331.638L332.934 56.3901V63.5361Z" fill="#483332"/>
<path d="M347.034 68.0001L341.598 55.4001H344.748L349.5 66.5601H347.646L352.47 55.4001H355.368L349.914 68.0001H347.034Z" fill="#483332"/>
<path d="M356.42 68.0001V55.4001H359.336V68.0001H356.42Z" fill="#483332"/>
<path d="M365.026 61.0701H371.074V63.4101H365.026V61.0701ZM365.242 68.0001H362.326V55.4001H371.848V57.7401H365.242V68.0001Z" fill="#483332"/>
<path d="M376.954 68.0001V62.8521L377.62 64.6161L372.076 55.4001H375.172L379.42 62.4741H377.638L381.904 55.4001H384.766L379.222 64.6161L379.87 62.8521V68.0001H376.954Z" fill="#483332"/>
<path d="M190.326 92.1119C189.58 92.1119 188.866 91.9999 188.184 91.7759C187.503 91.5426 186.966 91.2439 186.574 90.8799L187.092 89.7879C187.466 90.1146 187.942 90.3852 188.52 90.5999C189.099 90.8146 189.701 90.9219 190.326 90.9219C190.896 90.9219 191.358 90.8566 191.712 90.7259C192.067 90.5952 192.328 90.4179 192.496 90.1939C192.664 89.9606 192.748 89.6992 192.748 89.4099C192.748 89.0739 192.636 88.8032 192.412 88.5979C192.198 88.3926 191.913 88.2292 191.558 88.1079C191.213 87.9772 190.83 87.8652 190.41 87.7719C189.99 87.6786 189.566 87.5712 189.136 87.4499C188.716 87.3192 188.329 87.1559 187.974 86.9599C187.629 86.7639 187.349 86.5026 187.134 86.1759C186.92 85.8399 186.812 85.4106 186.812 84.8879C186.812 84.3839 186.943 83.9219 187.204 83.5019C187.475 83.0726 187.886 82.7319 188.436 82.4799C188.996 82.2186 189.706 82.0879 190.564 82.0879C191.134 82.0879 191.698 82.1626 192.258 82.3119C192.818 82.4612 193.304 82.6759 193.714 82.9559L193.252 84.0759C192.832 83.7959 192.389 83.5952 191.922 83.4739C191.456 83.3432 191.003 83.2779 190.564 83.2779C190.014 83.2779 189.561 83.3479 189.206 83.4879C188.852 83.6279 188.59 83.8146 188.422 84.0479C188.264 84.2812 188.184 84.5426 188.184 84.8319C188.184 85.1772 188.292 85.4526 188.506 85.6579C188.73 85.8632 189.015 86.0266 189.36 86.1479C189.715 86.2692 190.102 86.3812 190.522 86.4839C190.942 86.5772 191.362 86.6846 191.782 86.8059C192.212 86.9272 192.599 87.0859 192.944 87.2819C193.299 87.4779 193.584 87.7392 193.798 88.0659C194.013 88.3926 194.12 88.8126 194.12 89.3259C194.12 89.8206 193.985 90.2826 193.714 90.7119C193.444 91.1319 193.024 91.4726 192.454 91.7339C191.894 91.9859 191.185 92.1119 190.326 92.1119Z" fill="#483332"/>
<path d="M198.518 92.0839C197.771 92.0839 197.192 91.8832 196.782 91.4819C196.371 91.0806 196.166 90.5066 196.166 89.7599V82.9559H197.51V89.7039C197.51 90.1052 197.608 90.4132 197.804 90.6279C198.009 90.8426 198.298 90.9499 198.672 90.9499C199.092 90.9499 199.442 90.8332 199.722 90.5999L200.142 91.5659C199.936 91.7432 199.689 91.8739 199.4 91.9579C199.12 92.0419 198.826 92.0839 198.518 92.0839ZM194.906 85.6859V84.5799H199.638V85.6859H194.906Z" fill="#483332"/>
<path d="M206.372 91.9999V90.4319L206.302 90.1379V87.4639C206.302 86.8946 206.134 86.4559 205.798 86.1479C205.472 85.8306 204.977 85.6719 204.314 85.6719C203.876 85.6719 203.446 85.7466 203.026 85.8959C202.606 86.0359 202.252 86.2272 201.962 86.4699L201.402 85.4619C201.785 85.1539 202.242 84.9206 202.774 84.7619C203.316 84.5939 203.88 84.5099 204.468 84.5099C205.486 84.5099 206.27 84.7572 206.82 85.2519C207.371 85.7466 207.646 86.5026 207.646 87.5199V91.9999H206.372ZM203.936 92.0839C203.386 92.0839 202.9 91.9906 202.48 91.8039C202.07 91.6172 201.752 91.3606 201.528 91.0339C201.304 90.6979 201.192 90.3199 201.192 89.8999C201.192 89.4986 201.286 89.1346 201.472 88.8079C201.668 88.4812 201.981 88.2199 202.41 88.0239C202.849 87.8279 203.437 87.7299 204.174 87.7299H206.526V88.6959H204.23C203.558 88.6959 203.106 88.8079 202.872 89.0319C202.639 89.2559 202.522 89.5266 202.522 89.8439C202.522 90.2079 202.667 90.5019 202.956 90.7259C203.246 90.9406 203.647 91.0479 204.16 91.0479C204.664 91.0479 205.103 90.9359 205.476 90.7119C205.859 90.4879 206.134 90.1612 206.302 89.7319L206.568 90.6559C206.391 91.0946 206.078 91.4446 205.63 91.7059C205.182 91.9579 204.618 92.0839 203.936 92.0839Z" fill="#483332"/>
<path d="M210.319 94.7999C209.964 94.7999 209.619 94.7392 209.283 94.6179C208.947 94.5059 208.658 94.3379 208.415 94.1139L208.989 93.1059C209.176 93.2832 209.381 93.4186 209.605 93.5119C209.829 93.6052 210.067 93.6519 210.319 93.6519C210.646 93.6519 210.916 93.5679 211.131 93.3999C211.346 93.2319 211.546 92.9332 211.733 92.5039L212.195 91.4819L212.335 91.3139L215.247 84.5799H216.563L212.965 92.7419C212.75 93.2646 212.508 93.6752 212.237 93.9739C211.976 94.2726 211.686 94.4826 211.369 94.6039C211.052 94.7346 210.702 94.7999 210.319 94.7999ZM212.083 92.2379L208.695 84.5799H210.095L212.979 91.1879L212.083 92.2379Z" fill="#483332"/>
<path d="M225.833 92.1119C224.545 92.1119 223.532 91.7432 222.795 91.0059C222.058 90.2686 221.689 89.1906 221.689 87.7719V82.1999H223.089V87.7159C223.089 88.8079 223.327 89.6059 223.803 90.1099C224.288 90.6139 224.97 90.8659 225.847 90.8659C226.734 90.8659 227.415 90.6139 227.891 90.1099C228.376 89.6059 228.619 88.8079 228.619 87.7159V82.1999H229.977V87.7719C229.977 89.1906 229.608 90.2686 228.871 91.0059C228.143 91.7432 227.13 92.1119 225.833 92.1119Z" fill="#483332"/>
<path d="M236.585 92.0839C235.969 92.0839 235.405 91.9439 234.891 91.6639C234.387 91.3746 233.981 90.9499 233.673 90.3899C233.375 89.8299 233.225 89.1299 233.225 88.2899C233.225 87.4499 233.37 86.7499 233.659 86.1899C233.958 85.6299 234.359 85.2099 234.863 84.9299C235.377 84.6499 235.951 84.5099 236.585 84.5099C237.313 84.5099 237.957 84.6686 238.517 84.9859C239.077 85.3032 239.521 85.7466 239.847 86.3159C240.174 86.8759 240.337 87.5339 240.337 88.2899C240.337 89.0459 240.174 89.7086 239.847 90.2779C239.521 90.8472 239.077 91.2906 238.517 91.6079C237.957 91.9252 237.313 92.0839 236.585 92.0839ZM232.651 94.7159V84.5799H233.939V86.5819L233.855 88.3039L233.995 90.0259V94.7159H232.651ZM236.473 90.9079C236.949 90.9079 237.374 90.8006 237.747 90.5859C238.13 90.3712 238.429 90.0679 238.643 89.6759C238.867 89.2746 238.979 88.8126 238.979 88.2899C238.979 87.7579 238.867 87.3006 238.643 86.9179C238.429 86.5259 238.13 86.2226 237.747 86.0079C237.374 85.7932 236.949 85.6859 236.473 85.6859C236.007 85.6859 235.582 85.7932 235.199 86.0079C234.826 86.2226 234.527 86.5259 234.303 86.9179C234.089 87.3006 233.981 87.7579 233.981 88.2899C233.981 88.8126 234.089 89.2746 234.303 89.6759C234.527 90.0679 234.826 90.3712 235.199 90.5859C235.582 90.8006 236.007 90.9079 236.473 90.9079Z" fill="#483332"/>
<path d="M244.742 92.0839C243.995 92.0839 243.417 91.8832 243.006 91.4819C242.595 91.0806 242.39 90.5066 242.39 89.7599V82.9559H243.734V89.7039C243.734 90.1052 243.832 90.4132 244.028 90.6279C244.233 90.8426 244.523 90.9499 244.896 90.9499C245.316 90.9499 245.666 90.8332 245.946 90.5999L246.366 91.5659C246.161 91.7432 245.913 91.8739 245.624 91.9579C245.344 92.0419 245.05 92.0839 244.742 92.0839ZM241.13 85.6859V84.5799H245.862V85.6859H241.13Z" fill="#483332"/>
<path d="M250.923 92.0839C250.176 92.0839 249.514 91.9206 248.935 91.5939C248.356 91.2672 247.899 90.8192 247.563 90.2499C247.227 89.6712 247.059 89.0179 247.059 88.2899C247.059 87.5526 247.227 86.8992 247.563 86.3299C247.899 85.7606 248.356 85.3172 248.935 84.9999C249.514 84.6732 250.176 84.5099 250.923 84.5099C251.66 84.5099 252.318 84.6732 252.897 84.9999C253.485 85.3172 253.942 85.7606 254.269 86.3299C254.605 86.8899 254.773 87.5432 254.773 88.2899C254.773 89.0272 254.605 89.6806 254.269 90.2499C253.942 90.8192 253.485 91.2672 252.897 91.5939C252.318 91.9206 251.66 92.0839 250.923 92.0839ZM250.923 90.9079C251.399 90.9079 251.824 90.8006 252.197 90.5859C252.58 90.3712 252.878 90.0679 253.093 89.6759C253.308 89.2746 253.415 88.8126 253.415 88.2899C253.415 87.7579 253.308 87.3006 253.093 86.9179C252.878 86.5259 252.58 86.2226 252.197 86.0079C251.824 85.7932 251.399 85.6859 250.923 85.6859C250.447 85.6859 250.022 85.7932 249.649 86.0079C249.276 86.2226 248.977 86.5259 248.753 86.9179C248.529 87.3006 248.417 87.7579 248.417 88.2899C248.417 88.8126 248.529 89.2746 248.753 89.6759C248.977 90.0679 249.276 90.3712 249.649 90.5859C250.022 90.8006 250.447 90.9079 250.923 90.9079Z" fill="#483332"/>
<path d="M260.587 91.9999V82.1999H264.717C265.763 82.1999 266.682 82.4052 267.475 82.8159C268.278 83.2266 268.899 83.8006 269.337 84.5379C269.785 85.2752 270.009 86.1292 270.009 87.0999C270.009 88.0706 269.785 88.9246 269.337 89.6619C268.899 90.3992 268.278 90.9732 267.475 91.3839C266.682 91.7946 265.763 91.9999 264.717 91.9999H260.587ZM261.987 90.7819H264.633C265.445 90.7819 266.145 90.6279 266.733 90.3199C267.331 90.0119 267.793 89.5826 268.119 89.0319C268.446 88.4719 268.609 87.8279 268.609 87.0999C268.609 86.3626 268.446 85.7186 268.119 85.1679C267.793 84.6172 267.331 84.1879 266.733 83.8799C266.145 83.5719 265.445 83.4179 264.633 83.4179H261.987V90.7819Z" fill="#483332"/>
<path d="M276.564 91.9999V90.4319L276.494 90.1379V87.4639C276.494 86.8946 276.326 86.4559 275.99 86.1479C275.663 85.8306 275.168 85.6719 274.506 85.6719C274.067 85.6719 273.638 85.7466 273.218 85.8959C272.798 86.0359 272.443 86.2272 272.154 86.4699L271.594 85.4619C271.976 85.1539 272.434 84.9206 272.966 84.7619C273.507 84.5939 274.072 84.5099 274.66 84.5099C275.677 84.5099 276.461 84.7572 277.012 85.2519C277.562 85.7466 277.838 86.5026 277.838 87.5199V91.9999H276.564ZM274.128 92.0839C273.577 92.0839 273.092 91.9906 272.672 91.8039C272.261 91.6172 271.944 91.3606 271.72 91.0339C271.496 90.6979 271.384 90.3199 271.384 89.8999C271.384 89.4986 271.477 89.1346 271.664 88.8079C271.86 88.4812 272.172 88.2199 272.602 88.0239C273.04 87.8279 273.628 87.7299 274.366 87.7299H276.718V88.6959H274.422C273.75 88.6959 273.297 88.8079 273.064 89.0319C272.83 89.2559 272.714 89.5266 272.714 89.8439C272.714 90.2079 272.858 90.5019 273.148 90.7259C273.437 90.9406 273.838 91.0479 274.352 91.0479C274.856 91.0479 275.294 90.9359 275.668 90.7119C276.05 90.4879 276.326 90.1612 276.494 89.7319L276.76 90.6559C276.582 91.0946 276.27 91.4446 275.822 91.7059C275.374 91.9579 274.809 92.0839 274.128 92.0839Z" fill="#483332"/>
<path d="M282.873 92.0839C282.126 92.0839 281.548 91.8832 281.137 91.4819C280.726 91.0806 280.521 90.5066 280.521 89.7599V82.9559H281.865V89.7039C281.865 90.1052 281.963 90.4132 282.159 90.6279C282.364 90.8426 282.654 90.9499 283.027 90.9499C283.447 90.9499 283.797 90.8332 284.077 90.5999L284.497 91.5659C284.292 91.7432 284.044 91.8739 283.755 91.9579C283.475 92.0419 283.181 92.0839 282.873 92.0839ZM279.261 85.6859V84.5799H283.993V85.6859H279.261Z" fill="#483332"/>
<path d="M289.18 92.0839C288.386 92.0839 287.686 91.9206 287.08 91.5939C286.482 91.2672 286.016 90.8192 285.68 90.2499C285.353 89.6806 285.19 89.0272 285.19 88.2899C285.19 87.5526 285.348 86.8992 285.666 86.3299C285.992 85.7606 286.436 85.3172 286.996 84.9999C287.565 84.6732 288.204 84.5099 288.914 84.5099C289.632 84.5099 290.267 84.6686 290.818 84.9859C291.368 85.3032 291.798 85.7512 292.106 86.3299C292.423 86.8992 292.582 87.5666 292.582 88.3319C292.582 88.3879 292.577 88.4532 292.568 88.5279C292.568 88.6026 292.563 88.6726 292.554 88.7379H286.24V87.7719H291.854L291.308 88.1079C291.317 87.6319 291.219 87.2072 291.014 86.8339C290.808 86.4606 290.524 86.1712 290.16 85.9659C289.805 85.7512 289.39 85.6439 288.914 85.6439C288.447 85.6439 288.032 85.7512 287.668 85.9659C287.304 86.1712 287.019 86.4652 286.814 86.8479C286.608 87.2212 286.506 87.6506 286.506 88.1359V88.3599C286.506 88.8546 286.618 89.2979 286.842 89.6899C287.075 90.0726 287.397 90.3712 287.808 90.5859C288.218 90.8006 288.69 90.9079 289.222 90.9079C289.66 90.9079 290.057 90.8332 290.412 90.6839C290.776 90.5346 291.093 90.3106 291.364 90.0119L292.106 90.8799C291.77 91.2719 291.35 91.5706 290.846 91.7759C290.351 91.9812 289.796 92.0839 289.18 92.0839Z" fill="#483332"/>
<path d="M392 72C392 57.6406 403.641 46 418 46H1160C1174.36 46 1186 57.6406 1186 72C1186 86.3594 1174.36 98 1160 98H418C403.641 98 392 86.3594 392 72Z" fill="white"/>
<path fill-rule="evenodd" clip-rule="evenodd" d="M1160 47H418C404.193 47 393 58.1929 393 72C393 85.8071 404.193 97 418 97H1160C1173.81 97 1185 85.8071 1185 72C1185 58.1929 1173.81 47 1160 47ZM418 46C403.641 46 392 57.6406 392 72C392 86.3594 403.641 98 418 98H1160C1174.36 98 1186 86.3594 1186 72C1186 57.6406 1174.36 46 1160 46H418Z" fill="#E8EAEC"/>
<path d="M420.222 73.6119V76.9999H418.836V73.5839L414.944 67.1999H416.442L419.578 72.3659L422.728 67.1999H424.114L420.222 73.6119Z" fill="#9A9A9A"/>
<path d="M427.682 77.0839C426.945 77.0839 426.282 76.9205 425.694 76.5939C425.106 76.2672 424.644 75.8192 424.308 75.2499C423.982 74.6712 423.818 74.0179 423.818 73.2899C423.818 72.5619 423.982 71.9132 424.308 71.3439C424.644 70.7652 425.106 70.3172 425.694 69.9999C426.282 69.6732 426.945 69.5099 427.682 69.5099C428.42 69.5099 429.078 69.6732 429.656 69.9999C430.244 70.3172 430.702 70.7652 431.028 71.3439C431.364 71.9132 431.532 72.5619 431.532 73.2899C431.532 74.0179 431.364 74.6712 431.028 75.2499C430.702 75.8192 430.244 76.2672 429.656 76.5939C429.078 76.9205 428.42 77.0839 427.682 77.0839ZM427.682 75.9079C428.158 75.9079 428.583 75.8005 428.956 75.5859C429.339 75.3619 429.638 75.0539 429.852 74.6619C430.067 74.2605 430.174 73.8032 430.174 73.2899C430.174 72.7765 430.067 72.3239 429.852 71.9319C429.638 71.5305 429.339 71.2225 428.956 71.0079C428.583 70.7932 428.158 70.6859 427.682 70.6859C427.206 70.6859 426.777 70.7932 426.394 71.0079C426.021 71.2225 425.722 71.5305 425.498 71.9319C425.284 72.3239 425.176 72.7765 425.176 73.2899C425.176 73.8032 425.284 74.2605 425.498 74.6619C425.722 75.0539 426.021 75.3619 426.394 75.5859C426.777 75.8005 427.206 75.9079 427.682 75.9079Z" fill="#9A9A9A"/>
<path d="M440.307 69.5799V76.9999H439.033V75.8799C438.762 76.2625 438.403 76.5612 437.955 76.7759C437.516 76.9812 437.036 77.0839 436.513 77.0839C435.524 77.0839 434.744 76.8132 434.175 76.2719C433.606 75.7212 433.321 74.9139 433.321 73.8499V69.5799H434.665V73.6959C434.665 74.4145 434.838 74.9605 435.183 75.3339C435.528 75.6979 436.023 75.8799 436.667 75.8799C437.376 75.8799 437.936 75.6652 438.347 75.2359C438.758 74.8065 438.963 74.1999 438.963 73.4159V69.5799H440.307Z" fill="#9A9A9A"/>
<path d="M444.154 70.8259C444.387 70.3965 444.732 70.0699 445.19 69.8459C445.647 69.6219 446.202 69.5099 446.856 69.5099V70.8119C446.781 70.8025 446.678 70.7979 446.548 70.7979C445.82 70.7979 445.246 71.0172 444.826 71.4559C444.415 71.8852 444.21 72.5012 444.21 73.3039V76.9999H442.866V69.5799H444.154V70.8259Z" fill="#9A9A9A"/>
<path d="M459.676 75.7819V76.9999H452.564V67.1999H459.48V68.4179H453.964V71.4279H458.878V72.6179H453.964V75.7819H459.676Z" fill="#9A9A9A"/>
<path d="M471.029 69.5099C471.962 69.5099 472.699 69.7805 473.241 70.3219C473.791 70.8632 474.067 71.6659 474.067 72.7299V76.9999H472.723V72.8839C472.723 72.1652 472.555 71.6239 472.219 71.2599C471.892 70.8959 471.421 70.7139 470.805 70.7139C470.123 70.7139 469.582 70.9285 469.181 71.3579C468.779 71.7779 468.579 72.3845 468.579 73.1779V76.9999H467.235V72.8839C467.235 72.1652 467.067 71.6239 466.731 71.2599C466.404 70.8959 465.933 70.7139 465.317 70.7139C464.635 70.7139 464.094 70.9285 463.693 71.3579C463.291 71.7779 463.091 72.3845 463.091 73.1779V76.9999H461.747V69.5799H463.035V70.6859C463.305 70.3032 463.66 70.0139 464.099 69.8179C464.537 69.6125 465.037 69.5099 465.597 69.5099C466.175 69.5099 466.689 69.6265 467.137 69.8599C467.585 70.0932 467.93 70.4339 468.173 70.8819C468.453 70.4525 468.84 70.1165 469.335 69.8739C469.839 69.6312 470.403 69.5099 471.029 69.5099Z" fill="#9A9A9A"/>
<path d="M479.241 69.5099C480.268 69.5099 481.052 69.7619 481.593 70.2659C482.144 70.7699 482.419 71.5212 482.419 72.5199V76.9999H481.145V76.0199C480.921 76.3652 480.599 76.6312 480.179 76.8179C479.769 76.9952 479.279 77.0839 478.709 77.0839C477.879 77.0839 477.211 76.8832 476.707 76.4819C476.213 76.0805 475.965 75.5532 475.965 74.8999C475.965 74.2465 476.203 73.7239 476.679 73.3319C477.155 72.9305 477.911 72.7299 478.947 72.7299H481.075V72.4639C481.075 71.8852 480.907 71.4419 480.571 71.1339C480.235 70.8259 479.741 70.6719 479.087 70.6719C478.649 70.6719 478.219 70.7465 477.799 70.8959C477.379 71.0359 477.025 71.2272 476.735 71.4699L476.175 70.4619C476.558 70.1539 477.015 69.9205 477.547 69.7619C478.079 69.5939 478.644 69.5099 479.241 69.5099ZM478.933 76.0479C479.447 76.0479 479.89 75.9359 480.263 75.7119C480.637 75.4785 480.907 75.1519 481.075 74.7319V73.6959H479.003C477.865 73.6959 477.295 74.0785 477.295 74.8439C477.295 75.2172 477.44 75.5112 477.729 75.7259C478.019 75.9405 478.42 76.0479 478.933 76.0479Z" fill="#9A9A9A"/>
<path d="M484.907 69.5799H486.251V76.9999H484.907V69.5799ZM485.579 68.1519C485.317 68.1519 485.098 68.0679 484.921 67.8999C484.753 67.7319 484.669 67.5265 484.669 67.2839C484.669 67.0412 484.753 66.8359 484.921 66.6679C485.098 66.4905 485.317 66.4019 485.579 66.4019C485.84 66.4019 486.055 66.4859 486.223 66.6539C486.4 66.8125 486.489 67.0132 486.489 67.2559C486.489 67.5079 486.4 67.7225 486.223 67.8999C486.055 68.0679 485.84 68.1519 485.579 68.1519Z" fill="#9A9A9A"/>
<path d="M488.817 66.6119H490.161V76.9999H488.817V66.6119Z" fill="#9A9A9A"/>
<path d="M493.049 77.0839C492.788 77.0839 492.564 76.9952 492.377 76.8179C492.19 76.6312 492.097 76.3979 492.097 76.1179C492.097 75.8472 492.19 75.6232 492.377 75.4459C492.564 75.2592 492.788 75.1659 493.049 75.1659C493.31 75.1659 493.53 75.2545 493.707 75.4319C493.884 75.6092 493.973 75.8379 493.973 76.1179C493.973 76.3979 493.88 76.6312 493.693 76.8179C493.516 76.9952 493.301 77.0839 493.049 77.0839Z" fill="#9A9A9A"/>
<path d="M496.221 77.0839C495.96 77.0839 495.736 76.9952 495.549 76.8179C495.362 76.6312 495.269 76.3979 495.269 76.1179C495.269 75.8472 495.362 75.6232 495.549 75.4459C495.736 75.2592 495.96 75.1659 496.221 75.1659C496.482 75.1659 496.702 75.2545 496.879 75.4319C497.056 75.6092 497.145 75.8379 497.145 76.1179C497.145 76.3979 497.052 76.6312 496.865 76.8179C496.688 76.9952 496.473 77.0839 496.221 77.0839Z" fill="#9A9A9A"/>
<path d="M499.393 77.0839C499.131 77.0839 498.907 76.9952 498.721 76.8179C498.534 76.6312 498.441 76.3979 498.441 76.1179C498.441 75.8472 498.534 75.6232 498.721 75.4459C498.907 75.2592 499.131 75.1659 499.393 75.1659C499.654 75.1659 499.873 75.2545 500.051 75.4319C500.228 75.6092 500.317 75.8379 500.317 76.1179C500.317 76.3979 500.223 76.6312 500.037 76.8179C499.859 76.9952 499.645 77.0839 499.393 77.0839Z" fill="#9A9A9A"/>
<path d="M1185 72C1185 86.3594 1173.36 98 1159 98C1144.64 98 1133 86.3594 1133 72C1133 57.6406 1144.64 46 1159 46C1173.36 46 1185 57.6406 1185 72Z" fill="#9A9A9A"/>
<path d="M1152.96 83.8601L1171.44 73.5142C1171.71 73.3622 1171.94 73.1406 1172.09 72.8722C1172.25 72.6038 1172.33 72.2984 1172.33 71.9873C1172.33 71.6762 1172.25 71.3707 1172.09 71.1023C1171.94 70.8339 1171.71 70.6123 1171.44 70.4603L1152.96 60.1143C1152.65 59.9402 1152.3 59.8651 1151.94 59.8991C1151.59 59.9331 1151.25 60.0745 1150.98 60.3045C1150.71 60.5345 1150.51 60.8421 1150.42 61.1861C1150.33 61.5302 1150.34 61.8943 1150.46 62.2298L1153.95 71.9872L1150.46 81.7447C1150.39 81.9358 1150.36 82.1372 1150.36 82.3403C1150.36 82.6449 1150.44 82.9439 1150.59 83.2076C1150.74 83.4713 1150.96 83.6908 1151.23 83.8442C1151.49 83.9977 1151.79 84.0798 1152.09 84.0826C1152.4 84.0854 1152.7 84.0087 1152.96 83.8601L1152.96 83.8601ZM1155.49 72.8623L1161.87 72.8623C1162.11 72.8623 1162.33 72.7701 1162.49 72.606C1162.66 72.4419 1162.75 72.2193 1162.75 71.9873C1162.75 71.7552 1162.66 71.5326 1162.49 71.3685C1162.33 71.2045 1162.11 71.1123 1161.87 71.1123L1155.49 71.1123L1152.11 61.6417L1170.58 71.9873L1152.11 82.3324L1155.49 72.8623Z" fill="white"/>
</svg>
