<svg width="311" height="15" viewBox="0 0 311 15" fill="none" xmlns="http://www.w3.org/2000/svg">
<path d="M6.31503 12.0901C5.51503 12.0901 4.77503 11.9601 4.09503 11.7001C3.42503 11.4301 2.84003 11.0551 2.34003 10.5751C1.85003 10.0951 1.46503 9.53012 1.18503 8.88012C0.915029 8.23012 0.780029 7.52012 0.780029 6.75012C0.780029 5.98012 0.915029 5.27012 1.18503 4.62012C1.46503 3.97012 1.85503 3.40512 2.35503 2.92512C2.85503 2.44512 3.44003 2.07512 4.11003 1.81512C4.79003 1.54512 5.53003 1.41012 6.33003 1.41012C7.13003 1.41012 7.86003 1.53512 8.52003 1.78512C9.19003 2.03512 9.76003 2.41512 10.23 2.92512L9.54003 3.63012C9.10003 3.19012 8.61503 2.87512 8.08503 2.68512C7.55503 2.49512 6.98503 2.40012 6.37503 2.40012C5.72503 2.40012 5.12503 2.51012 4.57503 2.73012C4.03503 2.94012 3.56003 3.24512 3.15003 3.64512C2.75003 4.03512 2.43503 4.49512 2.20503 5.02512C1.98503 5.54512 1.87503 6.12012 1.87503 6.75012C1.87503 7.37012 1.98503 7.94512 2.20503 8.47512C2.43503 9.00512 2.75003 9.47012 3.15003 9.87012C3.56003 10.2601 4.03503 10.5651 4.57503 10.7851C5.12503 10.9951 5.72003 11.1001 6.36003 11.1001C6.96003 11.1001 7.52503 11.0101 8.05503 10.8301C8.59503 10.6501 9.09003 10.3451 9.54003 9.91512L10.17 10.7551C9.67003 11.1951 9.08503 11.5301 8.41503 11.7601C7.74503 11.9801 7.04503 12.0901 6.31503 12.0901ZM9.10503 10.6201V6.75012H10.17V10.7551L9.10503 10.6201Z" fill="#483332"/>
<path d="M16.4316 12.0751C15.6116 12.0751 14.8916 11.9051 14.2716 11.5651C13.6516 11.2151 13.1666 10.7401 12.8166 10.1401C12.4666 9.53012 12.2916 8.83512 12.2916 8.05512C12.2916 7.27512 12.4566 6.58512 12.7866 5.98512C13.1266 5.38512 13.5866 4.91512 14.1666 4.57512C14.7566 4.22512 15.4166 4.05012 16.1466 4.05012C16.8866 4.05012 17.5416 4.22012 18.1116 4.56012C18.6916 4.89012 19.1466 5.36012 19.4766 5.97012C19.8066 6.57012 19.9716 7.26512 19.9716 8.05512C19.9716 8.10512 19.9666 8.16012 19.9566 8.22012C19.9566 8.27012 19.9566 8.32512 19.9566 8.38512H13.1016V7.59012H19.3866L18.9666 7.90512C18.9666 7.33512 18.8416 6.83012 18.5916 6.39012C18.3516 5.94012 18.0216 5.59012 17.6016 5.34012C17.1816 5.09012 16.6966 4.96512 16.1466 4.96512C15.6066 4.96512 15.1216 5.09012 14.6916 5.34012C14.2616 5.59012 13.9266 5.94012 13.6866 6.39012C13.4466 6.84012 13.3266 7.35512 13.3266 7.93512V8.10012C13.3266 8.70012 13.4566 9.23012 13.7166 9.69012C13.9866 10.1401 14.3566 10.4951 14.8266 10.7551C15.3066 11.0051 15.8516 11.1301 16.4616 11.1301C16.9416 11.1301 17.3866 11.0451 17.7966 10.8751C18.2166 10.7051 18.5766 10.4451 18.8766 10.0951L19.4766 10.7851C19.1266 11.2051 18.6866 11.5251 18.1566 11.7451C17.6366 11.9651 17.0616 12.0751 16.4316 12.0751Z" fill="#483332"/>
<path d="M26.1593 4.05012C26.7993 4.05012 27.3593 4.17512 27.8393 4.42512C28.3293 4.66512 28.7093 5.03512 28.9793 5.53512C29.2593 6.03512 29.3993 6.66512 29.3993 7.42512V12.0001H28.3343V7.53012C28.3343 6.70012 28.1243 6.07512 27.7043 5.65512C27.2943 5.22512 26.7143 5.01012 25.9643 5.01012C25.4043 5.01012 24.9143 5.12512 24.4943 5.35512C24.0843 5.57512 23.7643 5.90012 23.5343 6.33012C23.3143 6.75012 23.2043 7.26012 23.2043 7.86012V12.0001H22.1393V4.12512H23.1593V6.28512L22.9943 5.88012C23.2443 5.31012 23.6443 4.86512 24.1943 4.54512C24.7443 4.21512 25.3993 4.05012 26.1593 4.05012Z" fill="#483332"/>
<path d="M35.621 12.0751C34.801 12.0751 34.081 11.9051 33.461 11.5651C32.841 11.2151 32.356 10.7401 32.006 10.1401C31.656 9.53012 31.481 8.83512 31.481 8.05512C31.481 7.27512 31.646 6.58512 31.976 5.98512C32.316 5.38512 32.776 4.91512 33.356 4.57512C33.946 4.22512 34.606 4.05012 35.336 4.05012C36.076 4.05012 36.731 4.22012 37.301 4.56012C37.8811 4.89012 38.336 5.36012 38.666 5.97012C38.996 6.57012 39.161 7.26512 39.161 8.05512C39.161 8.10512 39.156 8.16012 39.146 8.22012C39.146 8.27012 39.146 8.32512 39.146 8.38512H32.291V7.59012H38.576L38.156 7.90512C38.156 7.33512 38.031 6.83012 37.781 6.39012C37.541 5.94012 37.211 5.59012 36.791 5.34012C36.371 5.09012 35.886 4.96512 35.336 4.96512C34.796 4.96512 34.311 5.09012 33.881 5.34012C33.451 5.59012 33.116 5.94012 32.876 6.39012C32.636 6.84012 32.516 7.35512 32.516 7.93512V8.10012C32.516 8.70012 32.646 9.23012 32.906 9.69012C33.176 10.1401 33.546 10.4951 34.016 10.7551C34.496 11.0051 35.041 11.1301 35.651 11.1301C36.131 11.1301 36.576 11.0451 36.986 10.8751C37.406 10.7051 37.766 10.4451 38.066 10.0951L38.666 10.7851C38.316 11.2051 37.876 11.5251 37.346 11.7451C36.826 11.9651 36.251 12.0751 35.621 12.0751Z" fill="#483332"/>
<path d="M41.3288 12.0001V4.12512H42.3488V6.27012L42.2438 5.89512C42.4638 5.29512 42.8338 4.84012 43.3538 4.53012C43.8738 4.21012 44.5188 4.05012 45.2888 4.05012V5.08512C45.2488 5.08512 45.2088 5.08512 45.1688 5.08512C45.1288 5.07512 45.0888 5.07012 45.0488 5.07012C44.2188 5.07012 43.5688 5.32512 43.0988 5.83512C42.6288 6.33512 42.3938 7.05012 42.3938 7.98012V12.0001H41.3288Z" fill="#483332"/>
<path d="M51.5812 12.0001V10.2601L51.5362 9.97512V7.06512C51.5362 6.39512 51.3462 5.88012 50.9662 5.52012C50.5962 5.16012 50.0412 4.98012 49.3012 4.98012C48.7912 4.98012 48.3062 5.06512 47.8462 5.23512C47.3862 5.40512 46.9962 5.63012 46.6762 5.91012L46.1962 5.11512C46.5962 4.77512 47.0762 4.51512 47.6362 4.33512C48.1962 4.14512 48.7862 4.05012 49.4062 4.05012C50.4262 4.05012 51.2112 4.30512 51.7612 4.81512C52.3212 5.31512 52.6012 6.08012 52.6012 7.11012V12.0001H51.5812ZM48.8662 12.0751C48.2762 12.0751 47.7612 11.9801 47.3212 11.7901C46.8912 11.5901 46.5612 11.3201 46.3312 10.9801C46.1012 10.6301 45.9862 10.2301 45.9862 9.78012C45.9862 9.37012 46.0812 9.00012 46.2712 8.67012C46.4712 8.33012 46.7912 8.06012 47.2312 7.86012C47.6812 7.65012 48.2812 7.54512 49.0312 7.54512H51.7462V8.34012H49.0612C48.3012 8.34012 47.7712 8.47512 47.4712 8.74512C47.1812 9.01512 47.0362 9.35012 47.0362 9.75012C47.0362 10.2001 47.2112 10.5601 47.5612 10.8301C47.9112 11.1001 48.4012 11.2351 49.0312 11.2351C49.6312 11.2351 50.1462 11.1001 50.5762 10.8301C51.0162 10.5501 51.3362 10.1501 51.5362 9.63012L51.7762 10.3651C51.5762 10.8851 51.2262 11.3001 50.7262 11.6101C50.2362 11.9201 49.6162 12.0751 48.8662 12.0751Z" fill="#483332"/>
<path d="M55.4938 12.0001V0.870117H56.5588V12.0001H55.4938Z" fill="#483332"/>
<path d="M63.6729 12.0001V1.50012H67.9479C69.0679 1.50012 70.0479 1.72512 70.8879 2.17512C71.7379 2.61512 72.3979 3.23012 72.8679 4.02012C73.3379 4.81012 73.5729 5.72012 73.5729 6.75012C73.5729 7.78012 73.3379 8.69012 72.8679 9.48012C72.3979 10.2701 71.7379 10.8901 70.8879 11.3401C70.0479 11.7801 69.0679 12.0001 67.9479 12.0001H63.6729ZM64.7829 11.0401H67.8879C68.8179 11.0401 69.6229 10.8601 70.3029 10.5001C70.9929 10.1301 71.5279 9.62512 71.9079 8.98512C72.2879 8.33512 72.4779 7.59012 72.4779 6.75012C72.4779 5.90012 72.2879 5.15512 71.9079 4.51512C71.5279 3.87512 70.9929 3.37512 70.3029 3.01512C69.6229 2.64512 68.8179 2.46012 67.8879 2.46012H64.7829V11.0401Z" fill="#483332"/>
<path d="M79.1855 12.0751C78.3655 12.0751 77.6455 11.9051 77.0255 11.5651C76.4055 11.2151 75.9205 10.7401 75.5705 10.1401C75.2205 9.53012 75.0455 8.83512 75.0455 8.05512C75.0455 7.27512 75.2105 6.58512 75.5405 5.98512C75.8805 5.38512 76.3405 4.91512 76.9205 4.57512C77.5105 4.22512 78.1705 4.05012 78.9005 4.05012C79.6405 4.05012 80.2955 4.22012 80.8655 4.56012C81.4455 4.89012 81.9005 5.36012 82.2305 5.97012C82.5605 6.57012 82.7255 7.26512 82.7255 8.05512C82.7255 8.10512 82.7205 8.16012 82.7105 8.22012C82.7105 8.27012 82.7105 8.32512 82.7105 8.38512H75.8555V7.59012H82.1405L81.7205 7.90512C81.7205 7.33512 81.5955 6.83012 81.3455 6.39012C81.1055 5.94012 80.7755 5.59012 80.3555 5.34012C79.9355 5.09012 79.4505 4.96512 78.9005 4.96512C78.3605 4.96512 77.8755 5.09012 77.4455 5.34012C77.0155 5.59012 76.6805 5.94012 76.4405 6.39012C76.2005 6.84012 76.0805 7.35512 76.0805 7.93512V8.10012C76.0805 8.70012 76.2105 9.23012 76.4705 9.69012C76.7405 10.1401 77.1105 10.4951 77.5805 10.7551C78.0605 11.0051 78.6055 11.1301 79.2155 11.1301C79.6955 11.1301 80.1405 11.0451 80.5505 10.8751C80.9705 10.7051 81.3305 10.4451 81.6305 10.0951L82.2305 10.7851C81.8805 11.2051 81.4405 11.5251 80.9105 11.7451C80.3905 11.9651 79.8155 12.0751 79.1855 12.0751Z" fill="#483332"/>
<path d="M87.0082 12.0751C86.3582 12.0751 85.7432 11.9851 85.1632 11.8051C84.5832 11.6151 84.1282 11.3801 83.7982 11.1001L84.2782 10.2601C84.5982 10.5001 85.0082 10.7101 85.5082 10.8901C86.0082 11.0601 86.5332 11.1451 87.0832 11.1451C87.8332 11.1451 88.3732 11.0301 88.7032 10.8001C89.0332 10.5601 89.1982 10.2451 89.1982 9.85512C89.1982 9.56512 89.1032 9.34012 88.9132 9.18012C88.7332 9.01012 88.4932 8.88512 88.1932 8.80512C87.8932 8.71512 87.5582 8.64012 87.1882 8.58012C86.8182 8.52012 86.4482 8.45012 86.0782 8.37012C85.7182 8.29012 85.3882 8.17512 85.0882 8.02512C84.7882 7.86512 84.5432 7.65012 84.3532 7.38012C84.1732 7.11012 84.0832 6.75012 84.0832 6.30012C84.0832 5.87012 84.2032 5.48512 84.4432 5.14512C84.6832 4.80512 85.0332 4.54012 85.4932 4.35012C85.9632 4.15012 86.5332 4.05012 87.2032 4.05012C87.7132 4.05012 88.2232 4.12012 88.7332 4.26012C89.2432 4.39012 89.6632 4.56512 89.9932 4.78512L89.5282 5.64012C89.1782 5.40012 88.8032 5.23012 88.4032 5.13012C88.0032 5.02012 87.6032 4.96512 87.2032 4.96512C86.4932 4.96512 85.9682 5.09012 85.6282 5.34012C85.2982 5.58012 85.1332 5.89012 85.1332 6.27012C85.1332 6.57012 85.2232 6.80512 85.4032 6.97512C85.5932 7.14512 85.8382 7.28012 86.1382 7.38012C86.4482 7.47012 86.7832 7.54512 87.1432 7.60512C87.5132 7.66512 87.8782 7.74012 88.2382 7.83012C88.6082 7.91012 88.9432 8.02512 89.2432 8.17512C89.5532 8.31512 89.7982 8.52012 89.9782 8.79012C90.1682 9.05012 90.2632 9.39512 90.2632 9.82512C90.2632 10.2851 90.1332 10.6851 89.8732 11.0251C89.6232 11.3551 89.2532 11.6151 88.7632 11.8051C88.2832 11.9851 87.6982 12.0751 87.0082 12.0751Z" fill="#483332"/>
<path d="M95.4874 12.0751C94.7075 12.0751 94.0075 11.9051 93.3875 11.5651C92.7775 11.2151 92.2974 10.7401 91.9474 10.1401C91.5975 9.53012 91.4225 8.83512 91.4225 8.05512C91.4225 7.26512 91.5975 6.57012 91.9474 5.97012C92.2974 5.37012 92.7775 4.90012 93.3875 4.56012C94.0075 4.22012 94.7075 4.05012 95.4874 4.05012C96.1574 4.05012 96.7625 4.18012 97.3025 4.44012C97.8425 4.70012 98.2675 5.09012 98.5775 5.61012L97.7825 6.15012C97.5125 5.75012 97.1775 5.45512 96.7775 5.26512C96.3774 5.07512 95.9425 4.98012 95.4725 4.98012C94.9125 4.98012 94.4074 5.11012 93.9575 5.37012C93.5075 5.62012 93.1525 5.97512 92.8925 6.43512C92.6325 6.89512 92.5024 7.43512 92.5024 8.05512C92.5024 8.67512 92.6325 9.21512 92.8925 9.67512C93.1525 10.1351 93.5075 10.4951 93.9575 10.7551C94.4074 11.0051 94.9125 11.1301 95.4725 11.1301C95.9425 11.1301 96.3774 11.0351 96.7775 10.8451C97.1775 10.6551 97.5125 10.3651 97.7825 9.97512L98.5775 10.5151C98.2675 11.0251 97.8425 11.4151 97.3025 11.6851C96.7625 11.9451 96.1574 12.0751 95.4874 12.0751Z" fill="#483332"/>
<path d="M100.67 12.0001V4.12512H101.69V6.27012L101.585 5.89512C101.805 5.29512 102.175 4.84012 102.695 4.53012C103.215 4.21012 103.86 4.05012 104.63 4.05012V5.08512C104.59 5.08512 104.55 5.08512 104.51 5.08512C104.47 5.07512 104.43 5.07012 104.39 5.07012C103.56 5.07012 102.91 5.32512 102.44 5.83512C101.97 6.33512 101.735 7.05012 101.735 7.98012V12.0001H100.67Z" fill="#483332"/>
<path d="M106.573 12.0001V4.12512H107.638V12.0001H106.573ZM107.113 2.38512C106.893 2.38512 106.708 2.31012 106.558 2.16012C106.408 2.01012 106.333 1.83012 106.333 1.62012C106.333 1.41012 106.408 1.23512 106.558 1.09512C106.708 0.945117 106.893 0.870117 107.113 0.870117C107.333 0.870117 107.518 0.940117 107.668 1.08012C107.818 1.22012 107.893 1.39512 107.893 1.60512C107.893 1.82512 107.818 2.01012 107.668 2.16012C107.528 2.31012 107.343 2.38512 107.113 2.38512Z" fill="#483332"/>
<path d="M114.666 12.0751C113.986 12.0751 113.371 11.9201 112.821 11.6101C112.271 11.2901 111.831 10.8351 111.501 10.2451C111.181 9.64512 111.021 8.91512 111.021 8.05512C111.021 7.19512 111.181 6.47012 111.501 5.88012C111.821 5.28012 112.256 4.82512 112.806 4.51512C113.356 4.20512 113.976 4.05012 114.666 4.05012C115.416 4.05012 116.086 4.22012 116.676 4.56012C117.276 4.89012 117.746 5.36012 118.086 5.97012C118.426 6.57012 118.596 7.26512 118.596 8.05512C118.596 8.85512 118.426 9.55512 118.086 10.1551C117.746 10.7551 117.276 11.2251 116.676 11.5651C116.086 11.9051 115.416 12.0751 114.666 12.0751ZM110.601 14.9101V4.12512H111.621V6.49512L111.516 8.07012L111.666 9.66012V14.9101H110.601ZM114.591 11.1301C115.151 11.1301 115.651 11.0051 116.091 10.7551C116.531 10.4951 116.881 10.1351 117.141 9.67512C117.401 9.20512 117.531 8.66512 117.531 8.05512C117.531 7.44512 117.401 6.91012 117.141 6.45012C116.881 5.99012 116.531 5.63012 116.091 5.37012C115.651 5.11012 115.151 4.98012 114.591 4.98012C114.031 4.98012 113.526 5.11012 113.076 5.37012C112.636 5.63012 112.286 5.99012 112.026 6.45012C111.776 6.91012 111.651 7.44512 111.651 8.05512C111.651 8.66512 111.776 9.20512 112.026 9.67512C112.286 10.1351 112.636 10.4951 113.076 10.7551C113.526 11.0051 114.031 11.1301 114.591 11.1301Z" fill="#483332"/>
<path d="M123.257 12.0751C122.517 12.0751 121.947 11.8751 121.547 11.4751C121.147 11.0751 120.947 10.5101 120.947 9.78012V2.38512H122.012V9.72012C122.012 10.1801 122.127 10.5351 122.357 10.7851C122.597 11.0351 122.937 11.1601 123.377 11.1601C123.847 11.1601 124.237 11.0251 124.547 10.7551L124.922 11.5201C124.712 11.7101 124.457 11.8501 124.157 11.9401C123.867 12.0301 123.567 12.0751 123.257 12.0751ZM119.537 5.01012V4.12512H124.412V5.01012H119.537Z" fill="#483332"/>
<path d="M126.861 12.0001V4.12512H127.926V12.0001H126.861ZM127.401 2.38512C127.181 2.38512 126.996 2.31012 126.846 2.16012C126.696 2.01012 126.621 1.83012 126.621 1.62012C126.621 1.41012 126.696 1.23512 126.846 1.09512C126.996 0.945117 127.181 0.870117 127.401 0.870117C127.621 0.870117 127.806 0.940117 127.956 1.08012C128.106 1.22012 128.181 1.39512 128.181 1.60512C128.181 1.82512 128.106 2.01012 127.956 2.16012C127.816 2.31012 127.631 2.38512 127.401 2.38512Z" fill="#483332"/>
<path d="M134.099 12.0751C133.339 12.0751 132.654 11.9051 132.044 11.5651C131.444 11.2151 130.969 10.7401 130.619 10.1401C130.269 9.53012 130.094 8.83512 130.094 8.05512C130.094 7.26512 130.269 6.57012 130.619 5.97012C130.969 5.37012 131.444 4.90012 132.044 4.56012C132.644 4.22012 133.329 4.05012 134.099 4.05012C134.879 4.05012 135.569 4.22012 136.169 4.56012C136.779 4.90012 137.254 5.37012 137.594 5.97012C137.944 6.57012 138.119 7.26512 138.119 8.05512C138.119 8.83512 137.944 9.53012 137.594 10.1401C137.254 10.7401 136.779 11.2151 136.169 11.5651C135.559 11.9051 134.869 12.0751 134.099 12.0751ZM134.099 11.1301C134.669 11.1301 135.174 11.0051 135.614 10.7551C136.054 10.4951 136.399 10.1351 136.649 9.67512C136.909 9.20512 137.039 8.66512 137.039 8.05512C137.039 7.43512 136.909 6.89512 136.649 6.43512C136.399 5.97512 136.054 5.62012 135.614 5.37012C135.174 5.11012 134.674 4.98012 134.114 4.98012C133.554 4.98012 133.054 5.11012 132.614 5.37012C132.174 5.62012 131.824 5.97512 131.564 6.43512C131.304 6.89512 131.174 7.43512 131.174 8.05512C131.174 8.66512 131.304 9.20512 131.564 9.67512C131.824 10.1351 132.174 10.4951 132.614 10.7551C133.054 11.0051 133.549 11.1301 134.099 11.1301Z" fill="#483332"/>
<path d="M144.314 4.05012C144.954 4.05012 145.514 4.17512 145.994 4.42512C146.484 4.66512 146.864 5.03512 147.134 5.53512C147.414 6.03512 147.554 6.66512 147.554 7.42512V12.0001H146.489V7.53012C146.489 6.70012 146.279 6.07512 145.859 5.65512C145.449 5.22512 144.869 5.01012 144.119 5.01012C143.559 5.01012 143.069 5.12512 142.649 5.35512C142.239 5.57512 141.919 5.90012 141.689 6.33012C141.469 6.75012 141.359 7.26012 141.359 7.86012V12.0001H140.294V4.12512H141.314V6.28512L141.149 5.88012C141.399 5.31012 141.799 4.86512 142.349 4.54512C142.899 4.21512 143.554 4.05012 144.314 4.05012Z" fill="#483332"/>
<path d="M159.291 12.0001V10.2601L159.246 9.97512V7.06512C159.246 6.39512 159.056 5.88012 158.676 5.52012C158.306 5.16012 157.751 4.98012 157.011 4.98012C156.501 4.98012 156.016 5.06512 155.556 5.23512C155.096 5.40512 154.706 5.63012 154.386 5.91012L153.906 5.11512C154.306 4.77512 154.786 4.51512 155.346 4.33512C155.906 4.14512 156.496 4.05012 157.116 4.05012C158.136 4.05012 158.921 4.30512 159.471 4.81512C160.031 5.31512 160.311 6.08012 160.311 7.11012V12.0001H159.291ZM156.576 12.0751C155.986 12.0751 155.471 11.9801 155.031 11.7901C154.601 11.5901 154.271 11.3201 154.041 10.9801C153.811 10.6301 153.696 10.2301 153.696 9.78012C153.696 9.37012 153.791 9.00012 153.981 8.67012C154.181 8.33012 154.501 8.06012 154.941 7.86012C155.391 7.65012 155.991 7.54512 156.741 7.54512H159.456V8.34012H156.771C156.011 8.34012 155.481 8.47512 155.181 8.74512C154.891 9.01512 154.746 9.35012 154.746 9.75012C154.746 10.2001 154.921 10.5601 155.271 10.8301C155.621 11.1001 156.111 11.2351 156.741 11.2351C157.341 11.2351 157.856 11.1001 158.286 10.8301C158.726 10.5501 159.046 10.1501 159.246 9.63012L159.486 10.3651C159.286 10.8851 158.936 11.3001 158.436 11.6101C157.946 11.9201 157.326 12.0751 156.576 12.0751Z" fill="#483332"/>
<path d="M167.269 12.0751C166.579 12.0751 165.959 11.9201 165.409 11.6101C164.859 11.2901 164.424 10.8301 164.104 10.2301C163.784 9.63012 163.624 8.90512 163.624 8.05512C163.624 7.19512 163.784 6.47012 164.104 5.88012C164.434 5.28012 164.874 4.82512 165.424 4.51512C165.974 4.20512 166.589 4.05012 167.269 4.05012C168.019 4.05012 168.689 4.22012 169.279 4.56012C169.879 4.89012 170.349 5.35512 170.689 5.95512C171.029 6.55512 171.199 7.25512 171.199 8.05512C171.199 8.84512 171.029 9.54512 170.689 10.1551C170.349 10.7551 169.879 11.2251 169.279 11.5651C168.689 11.9051 168.019 12.0751 167.269 12.0751ZM163.204 12.0001V0.870117H164.269V6.45012L164.119 8.04012L164.224 9.63012V12.0001H163.204ZM167.194 11.1301C167.754 11.1301 168.254 11.0051 168.694 10.7551C169.134 10.4951 169.484 10.1351 169.744 9.67512C170.004 9.20512 170.134 8.66512 170.134 8.05512C170.134 7.43512 170.004 6.89512 169.744 6.43512C169.484 5.97512 169.134 5.62012 168.694 5.37012C168.254 5.11012 167.754 4.98012 167.194 4.98012C166.634 4.98012 166.129 5.11012 165.679 5.37012C165.239 5.62012 164.889 5.97512 164.629 6.43512C164.379 6.89512 164.254 7.43512 164.254 8.05512C164.254 8.66512 164.379 9.20512 164.629 9.67512C164.889 10.1351 165.239 10.4951 165.679 10.7551C166.129 11.0051 166.634 11.1301 167.194 11.1301Z" fill="#483332"/>
<path d="M176.58 12.0751C175.82 12.0751 175.135 11.9051 174.525 11.5651C173.925 11.2151 173.45 10.7401 173.1 10.1401C172.75 9.53012 172.575 8.83512 172.575 8.05512C172.575 7.26512 172.75 6.57012 173.1 5.97012C173.45 5.37012 173.925 4.90012 174.525 4.56012C175.125 4.22012 175.81 4.05012 176.58 4.05012C177.36 4.05012 178.05 4.22012 178.65 4.56012C179.26 4.90012 179.735 5.37012 180.075 5.97012C180.425 6.57012 180.6 7.26512 180.6 8.05512C180.6 8.83512 180.425 9.53012 180.075 10.1401C179.735 10.7401 179.26 11.2151 178.65 11.5651C178.04 11.9051 177.35 12.0751 176.58 12.0751ZM176.58 11.1301C177.15 11.1301 177.655 11.0051 178.095 10.7551C178.535 10.4951 178.88 10.1351 179.13 9.67512C179.39 9.20512 179.52 8.66512 179.52 8.05512C179.52 7.43512 179.39 6.89512 179.13 6.43512C178.88 5.97512 178.535 5.62012 178.095 5.37012C177.655 5.11012 177.155 4.98012 176.595 4.98012C176.035 4.98012 175.535 5.11012 175.095 5.37012C174.655 5.62012 174.305 5.97512 174.045 6.43512C173.785 6.89512 173.655 7.43512 173.655 8.05512C173.655 8.66512 173.785 9.20512 174.045 9.67512C174.305 10.1351 174.655 10.4951 175.095 10.7551C175.535 11.0051 176.03 11.1301 176.58 11.1301Z" fill="#483332"/>
<path d="M186.029 12.0751C185.359 12.0751 184.774 11.9501 184.274 11.7001C183.774 11.4501 183.384 11.0751 183.104 10.5751C182.834 10.0751 182.699 9.45012 182.699 8.70012V4.12512H183.764V8.58012C183.764 9.42012 183.969 10.0551 184.379 10.4851C184.799 10.9051 185.384 11.1151 186.134 11.1151C186.684 11.1151 187.159 11.0051 187.559 10.7851C187.969 10.5551 188.279 10.2251 188.489 9.79512C188.709 9.36512 188.819 8.85012 188.819 8.25012V4.12512H189.884V12.0001H188.864V9.84012L189.029 10.2301C188.779 10.8101 188.389 11.2651 187.859 11.5951C187.339 11.9151 186.729 12.0751 186.029 12.0751Z" fill="#483332"/>
<path d="M195.342 12.0751C194.602 12.0751 194.032 11.8751 193.632 11.4751C193.232 11.0751 193.032 10.5101 193.032 9.78012V2.38512H194.097V9.72012C194.097 10.1801 194.212 10.5351 194.442 10.7851C194.682 11.0351 195.022 11.1601 195.462 11.1601C195.932 11.1601 196.322 11.0251 196.632 10.7551L197.007 11.5201C196.797 11.7101 196.542 11.8501 196.242 11.9401C195.952 12.0301 195.652 12.0751 195.342 12.0751ZM191.622 5.01012V4.12512H196.497V5.01012H191.622Z" fill="#483332"/>
<path d="M205.362 12.0751C204.622 12.0751 204.052 11.8751 203.652 11.4751C203.252 11.0751 203.052 10.5101 203.052 9.78012V2.38512H204.117V9.72012C204.117 10.1801 204.232 10.5351 204.462 10.7851C204.702 11.0351 205.042 11.1601 205.482 11.1601C205.952 11.1601 206.342 11.0251 206.652 10.7551L207.027 11.5201C206.817 11.7101 206.562 11.8501 206.262 11.9401C205.972 12.0301 205.672 12.0751 205.362 12.0751ZM201.642 5.01012V4.12512H206.517V5.01012H201.642Z" fill="#483332"/>
<path d="M212.986 4.05012C213.626 4.05012 214.186 4.17512 214.665 4.42512C215.156 4.66512 215.535 5.03512 215.805 5.53512C216.085 6.03512 216.225 6.66512 216.225 7.42512V12.0001H215.161V7.53012C215.161 6.70012 214.951 6.07512 214.531 5.65512C214.12 5.22512 213.54 5.01012 212.79 5.01012C212.23 5.01012 211.74 5.12512 211.32 5.35512C210.91 5.57512 210.59 5.90012 210.361 6.33012C210.141 6.75012 210.031 7.26012 210.031 7.86012V12.0001H208.965V0.870117H210.031V6.28512L209.82 5.88012C210.07 5.31012 210.47 4.86512 211.02 4.54512C211.57 4.21512 212.226 4.05012 212.986 4.05012Z" fill="#483332"/>
<path d="M222.447 12.0751C221.627 12.0751 220.907 11.9051 220.287 11.5651C219.667 11.2151 219.182 10.7401 218.832 10.1401C218.482 9.53012 218.307 8.83512 218.307 8.05512C218.307 7.27512 218.472 6.58512 218.802 5.98512C219.142 5.38512 219.602 4.91512 220.182 4.57512C220.772 4.22512 221.432 4.05012 222.162 4.05012C222.902 4.05012 223.557 4.22012 224.127 4.56012C224.707 4.89012 225.162 5.36012 225.492 5.97012C225.822 6.57012 225.987 7.26512 225.987 8.05512C225.987 8.10512 225.982 8.16012 225.972 8.22012C225.972 8.27012 225.972 8.32512 225.972 8.38512H219.117V7.59012H225.402L224.982 7.90512C224.982 7.33512 224.857 6.83012 224.607 6.39012C224.367 5.94012 224.037 5.59012 223.617 5.34012C223.197 5.09012 222.712 4.96512 222.162 4.96512C221.622 4.96512 221.137 5.09012 220.707 5.34012C220.277 5.59012 219.942 5.94012 219.702 6.39012C219.462 6.84012 219.342 7.35512 219.342 7.93512V8.10012C219.342 8.70012 219.472 9.23012 219.732 9.69012C220.002 10.1401 220.372 10.4951 220.842 10.7551C221.322 11.0051 221.867 11.1301 222.477 11.1301C222.957 11.1301 223.402 11.0451 223.812 10.8751C224.232 10.7051 224.592 10.4451 224.892 10.0951L225.492 10.7851C225.142 11.2051 224.702 11.5251 224.172 11.7451C223.652 11.9651 223.077 12.0751 222.447 12.0751Z" fill="#483332"/>
<path d="M232.081 12.0001V4.12512H233.101V6.27012L232.996 5.89512C233.216 5.29512 233.586 4.84012 234.106 4.53012C234.626 4.21012 235.271 4.05012 236.041 4.05012V5.08512C236.001 5.08512 235.961 5.08512 235.921 5.08512C235.881 5.07512 235.841 5.07012 235.801 5.07012C234.971 5.07012 234.321 5.32512 233.851 5.83512C233.381 6.33512 233.146 7.05012 233.146 7.98012V12.0001H232.081Z" fill="#483332"/>
<path d="M241.256 12.0751C240.436 12.0751 239.716 11.9051 239.096 11.5651C238.476 11.2151 237.991 10.7401 237.641 10.1401C237.291 9.53012 237.116 8.83512 237.116 8.05512C237.116 7.27512 237.281 6.58512 237.611 5.98512C237.951 5.38512 238.411 4.91512 238.991 4.57512C239.581 4.22512 240.241 4.05012 240.971 4.05012C241.711 4.05012 242.366 4.22012 242.936 4.56012C243.516 4.89012 243.971 5.36012 244.301 5.97012C244.631 6.57012 244.796 7.26512 244.796 8.05512C244.796 8.10512 244.791 8.16012 244.781 8.22012C244.781 8.27012 244.781 8.32512 244.781 8.38512H237.926V7.59012H244.211L243.791 7.90512C243.791 7.33512 243.666 6.83012 243.416 6.39012C243.176 5.94012 242.846 5.59012 242.426 5.34012C242.006 5.09012 241.521 4.96512 240.971 4.96512C240.431 4.96512 239.946 5.09012 239.516 5.34012C239.086 5.59012 238.751 5.94012 238.511 6.39012C238.271 6.84012 238.151 7.35512 238.151 7.93512V8.10012C238.151 8.70012 238.281 9.23012 238.541 9.69012C238.811 10.1401 239.181 10.4951 239.651 10.7551C240.131 11.0051 240.676 11.1301 241.286 11.1301C241.766 11.1301 242.211 11.0451 242.621 10.8751C243.041 10.7051 243.401 10.4451 243.701 10.0951L244.301 10.7851C243.951 11.2051 243.511 11.5251 242.981 11.7451C242.461 11.9651 241.886 12.0751 241.256 12.0751Z" fill="#483332"/>
<path d="M249.079 12.0751C248.429 12.0751 247.814 11.9851 247.234 11.8051C246.654 11.6151 246.199 11.3801 245.869 11.1001L246.349 10.2601C246.669 10.5001 247.079 10.7101 247.579 10.8901C248.079 11.0601 248.604 11.1451 249.154 11.1451C249.904 11.1451 250.444 11.0301 250.774 10.8001C251.104 10.5601 251.269 10.2451 251.269 9.85512C251.269 9.56512 251.174 9.34012 250.984 9.18012C250.804 9.01012 250.564 8.88512 250.264 8.80512C249.964 8.71512 249.629 8.64012 249.259 8.58012C248.889 8.52012 248.519 8.45012 248.149 8.37012C247.789 8.29012 247.459 8.17512 247.159 8.02512C246.859 7.86512 246.614 7.65012 246.424 7.38012C246.244 7.11012 246.154 6.75012 246.154 6.30012C246.154 5.87012 246.274 5.48512 246.514 5.14512C246.754 4.80512 247.104 4.54012 247.564 4.35012C248.034 4.15012 248.604 4.05012 249.274 4.05012C249.784 4.05012 250.294 4.12012 250.804 4.26012C251.314 4.39012 251.734 4.56512 252.064 4.78512L251.599 5.64012C251.249 5.40012 250.874 5.23012 250.474 5.13012C250.074 5.02012 249.674 4.96512 249.274 4.96512C248.564 4.96512 248.039 5.09012 247.699 5.34012C247.369 5.58012 247.204 5.89012 247.204 6.27012C247.204 6.57012 247.294 6.80512 247.474 6.97512C247.664 7.14512 247.909 7.28012 248.209 7.38012C248.519 7.47012 248.854 7.54512 249.214 7.60512C249.584 7.66512 249.949 7.74012 250.309 7.83012C250.679 7.91012 251.014 8.02512 251.314 8.17512C251.624 8.31512 251.869 8.52012 252.049 8.79012C252.239 9.05012 252.334 9.39512 252.334 9.82512C252.334 10.2851 252.204 10.6851 251.944 11.0251C251.694 11.3551 251.324 11.6151 250.834 11.8051C250.354 11.9851 249.769 12.0751 249.079 12.0751Z" fill="#483332"/>
<path d="M256.778 12.0751C256.038 12.0751 255.468 11.8751 255.068 11.4751C254.668 11.0751 254.468 10.5101 254.468 9.78012V2.38512H255.533V9.72012C255.533 10.1801 255.648 10.5351 255.878 10.7851C256.118 11.0351 256.458 11.1601 256.898 11.1601C257.368 11.1601 257.758 11.0251 258.068 10.7551L258.443 11.5201C258.233 11.7101 257.978 11.8501 257.678 11.9401C257.388 12.0301 257.088 12.0751 256.778 12.0751ZM253.058 5.01012V4.12512H257.933V5.01012H253.058Z" fill="#483332"/>
<path d="M265.317 12.0001V10.2601L265.272 9.97512V7.06512C265.272 6.39512 265.082 5.88012 264.702 5.52012C264.332 5.16012 263.777 4.98012 263.037 4.98012C262.527 4.98012 262.042 5.06512 261.582 5.23512C261.122 5.40512 260.732 5.63012 260.412 5.91012L259.932 5.11512C260.332 4.77512 260.812 4.51512 261.372 4.33512C261.932 4.14512 262.522 4.05012 263.142 4.05012C264.161 4.05012 264.947 4.30512 265.497 4.81512C266.057 5.31512 266.337 6.08012 266.337 7.11012V12.0001H265.317ZM262.602 12.0751C262.012 12.0751 261.497 11.9801 261.057 11.7901C260.627 11.5901 260.297 11.3201 260.067 10.9801C259.837 10.6301 259.722 10.2301 259.722 9.78012C259.722 9.37012 259.816 9.00012 260.007 8.67012C260.207 8.33012 260.527 8.06012 260.967 7.86012C261.417 7.65012 262.017 7.54512 262.767 7.54512H265.482V8.34012H262.797C262.036 8.34012 261.507 8.47512 261.207 8.74512C260.917 9.01512 260.772 9.35012 260.772 9.75012C260.772 10.2001 260.947 10.5601 261.297 10.8301C261.647 11.1001 262.137 11.2351 262.767 11.2351C263.367 11.2351 263.882 11.1001 264.312 10.8301C264.752 10.5501 265.072 10.1501 265.272 9.63012L265.512 10.3651C265.311 10.8851 264.962 11.3001 264.462 11.6101C263.972 11.9201 263.352 12.0751 262.602 12.0751Z" fill="#483332"/>
<path d="M272.484 12.0751C271.814 12.0751 271.229 11.9501 270.729 11.7001C270.229 11.4501 269.839 11.0751 269.559 10.5751C269.289 10.0751 269.154 9.45012 269.154 8.70012V4.12512H270.219V8.58012C270.219 9.42012 270.424 10.0551 270.834 10.4851C271.254 10.9051 271.839 11.1151 272.589 11.1151C273.139 11.1151 273.614 11.0051 274.014 10.7851C274.424 10.5551 274.734 10.2251 274.944 9.79512C275.164 9.36512 275.274 8.85012 275.274 8.25012V4.12512H276.339V12.0001H275.319V9.84012L275.484 10.2301C275.234 10.8101 274.844 11.2651 274.314 11.5951C273.794 11.9151 273.184 12.0751 272.484 12.0751Z" fill="#483332"/>
<path d="M279.307 12.0001V4.12512H280.327V6.27012L280.222 5.89512C280.442 5.29512 280.812 4.84012 281.332 4.53012C281.852 4.21012 282.497 4.05012 283.267 4.05012V5.08512C283.227 5.08512 283.187 5.08512 283.147 5.08512C283.107 5.07512 283.067 5.07012 283.027 5.07012C282.197 5.07012 281.547 5.32512 281.077 5.83512C280.607 6.33512 280.372 7.05012 280.372 7.98012V12.0001H279.307Z" fill="#483332"/>
<path d="M289.56 12.0001V10.2601L289.515 9.97512V7.06512C289.515 6.39512 289.325 5.88012 288.945 5.52012C288.575 5.16012 288.02 4.98012 287.28 4.98012C286.77 4.98012 286.285 5.06512 285.825 5.23512C285.365 5.40512 284.975 5.63012 284.655 5.91012L284.175 5.11512C284.575 4.77512 285.055 4.51512 285.615 4.33512C286.175 4.14512 286.765 4.05012 287.385 4.05012C288.405 4.05012 289.19 4.30512 289.74 4.81512C290.3 5.31512 290.58 6.08012 290.58 7.11012V12.0001H289.56ZM286.845 12.0751C286.255 12.0751 285.74 11.9801 285.3 11.7901C284.87 11.5901 284.54 11.3201 284.31 10.9801C284.08 10.6301 283.965 10.2301 283.965 9.78012C283.965 9.37012 284.06 9.00012 284.25 8.67012C284.45 8.33012 284.77 8.06012 285.21 7.86012C285.66 7.65012 286.26 7.54512 287.01 7.54512H289.725V8.34012H287.04C286.28 8.34012 285.75 8.47512 285.45 8.74512C285.16 9.01512 285.015 9.35012 285.015 9.75012C285.015 10.2001 285.19 10.5601 285.54 10.8301C285.89 11.1001 286.38 11.2351 287.01 11.2351C287.61 11.2351 288.125 11.1001 288.555 10.8301C288.995 10.5501 289.315 10.1501 289.515 9.63012L289.755 10.3651C289.555 10.8851 289.205 11.3001 288.705 11.6101C288.215 11.9201 287.595 12.0751 286.845 12.0751Z" fill="#483332"/>
<path d="M297.492 4.05012C298.132 4.05012 298.692 4.17512 299.172 4.42512C299.662 4.66512 300.042 5.03512 300.312 5.53512C300.592 6.03512 300.732 6.66512 300.732 7.42512V12.0001H299.667V7.53012C299.667 6.70012 299.457 6.07512 299.037 5.65512C298.627 5.22512 298.047 5.01012 297.297 5.01012C296.737 5.01012 296.247 5.12512 295.827 5.35512C295.417 5.57512 295.097 5.90012 294.867 6.33012C294.647 6.75012 294.537 7.26012 294.537 7.86012V12.0001H293.472V4.12512H294.492V6.28512L294.327 5.88012C294.577 5.31012 294.977 4.86512 295.527 4.54512C296.077 4.21512 296.732 4.05012 297.492 4.05012Z" fill="#483332"/>
<path d="M306.099 12.0751C305.359 12.0751 304.789 11.8751 304.389 11.4751C303.989 11.0751 303.789 10.5101 303.789 9.78012V2.38512H304.854V9.72012C304.854 10.1801 304.969 10.5351 305.199 10.7851C305.439 11.0351 305.779 11.1601 306.219 11.1601C306.689 11.1601 307.079 11.0251 307.389 10.7551L307.764 11.5201C307.554 11.7101 307.299 11.8501 306.999 11.9401C306.709 12.0301 306.409 12.0751 306.099 12.0751ZM302.379 5.01012V4.12512H307.254V5.01012H302.379Z" fill="#483332"/>
<path d="M309.954 12.0751C309.734 12.0751 309.544 11.9951 309.384 11.8351C309.234 11.6751 309.159 11.4801 309.159 11.2501C309.159 11.0101 309.234 10.8151 309.384 10.6651C309.544 10.5151 309.734 10.4401 309.954 10.4401C310.174 10.4401 310.359 10.5151 310.509 10.6651C310.669 10.8151 310.749 11.0101 310.749 11.2501C310.749 11.4801 310.669 11.6751 310.509 11.8351C310.359 11.9951 310.174 12.0751 309.954 12.0751Z" fill="#483332"/>
</svg>
