<svg width="83" height="11" viewBox="0 0 83 11" fill="none" xmlns="http://www.w3.org/2000/svg">
<path d="M5.10901 10.0782C4.41568 10.0782 3.77435 9.96558 3.18501 9.74025C2.60435 9.50625 2.09735 9.18125 1.66401 8.76525C1.23935 8.34925 0.905679 7.85958 0.663012 7.29625C0.429012 6.73291 0.312012 6.11758 0.312012 5.45025C0.312012 4.78292 0.429012 4.16758 0.663012 3.60425C0.905679 3.04091 1.24368 2.55125 1.67701 2.13525C2.11035 1.71925 2.61735 1.39858 3.19801 1.17325C3.78735 0.939248 4.42868 0.822248 5.12201 0.822248C5.81535 0.822248 6.44801 0.930582 7.02001 1.14725C7.60068 1.36391 8.09468 1.69325 8.50201 2.13525L7.90401 2.74625C7.52268 2.36491 7.10234 2.09191 6.64301 1.92725C6.18368 1.76258 5.68968 1.68025 5.16101 1.68025C4.59768 1.68025 4.07768 1.77558 3.60101 1.96625C3.13301 2.14825 2.72134 2.41258 2.36601 2.75925C2.01934 3.09725 1.74635 3.49591 1.54701 3.95525C1.35635 4.40591 1.26101 4.90425 1.26101 5.45025C1.26101 5.98758 1.35635 6.48592 1.54701 6.94525C1.74635 7.40458 2.01934 7.80758 2.36601 8.15425C2.72134 8.49225 3.13301 8.75658 3.60101 8.94725C4.07768 9.12925 4.59334 9.22025 5.14801 9.22025C5.66801 9.22025 6.15768 9.14225 6.61701 8.98625C7.08501 8.83025 7.51401 8.56592 7.90401 8.19325L8.45001 8.92125C8.01668 9.30258 7.50968 9.59292 6.92901 9.79225C6.34835 9.98292 5.74168 10.0782 5.10901 10.0782ZM7.52701 8.80425V5.45025H8.45001V8.92125L7.52701 8.80425Z" fill="#483232"/>
<path d="M10.9777 10.0002V3.17525H11.8617V5.03425L11.7707 4.70925C11.9614 4.18925 12.282 3.79491 12.7327 3.52625C13.1834 3.24891 13.7424 3.11025 14.4097 3.11025V4.00725C14.375 4.00725 14.3404 4.00725 14.3057 4.00725C14.271 3.99858 14.2364 3.99425 14.2017 3.99425C13.4824 3.99425 12.919 4.21525 12.5117 4.65725C12.1044 5.09058 11.9007 5.71025 11.9007 6.51625V10.0002H10.9777Z" fill="#483232"/>
<path d="M18.9294 10.0652C18.2188 10.0652 17.5948 9.91792 17.0574 9.62325C16.5201 9.31992 16.0998 8.90825 15.7964 8.38825C15.4931 7.85958 15.3414 7.25725 15.3414 6.58125C15.3414 5.90525 15.4844 5.30725 15.7704 4.78725C16.0651 4.26725 16.4638 3.85992 16.9664 3.56525C17.4778 3.26191 18.0498 3.11025 18.6824 3.11025C19.3238 3.11025 19.8914 3.25758 20.3854 3.55225C20.8881 3.83825 21.2824 4.24558 21.5684 4.77425C21.8544 5.29425 21.9974 5.89658 21.9974 6.58125C21.9974 6.62458 21.9931 6.67225 21.9844 6.72425C21.9844 6.76758 21.9844 6.81525 21.9844 6.86725H16.0434V6.17825H21.4904L21.1264 6.45125C21.1264 5.95725 21.0181 5.51958 20.8014 5.13825C20.5934 4.74825 20.3074 4.44492 19.9434 4.22825C19.5794 4.01158 19.1591 3.90325 18.6824 3.90325C18.2144 3.90325 17.7941 4.01158 17.4214 4.22825C17.0488 4.44492 16.7584 4.74825 16.5504 5.13825C16.3424 5.52825 16.2384 5.97458 16.2384 6.47725V6.62025C16.2384 7.14025 16.3511 7.59958 16.5764 7.99825C16.8104 8.38825 17.1311 8.69592 17.5384 8.92125C17.9544 9.13791 18.4268 9.24625 18.9554 9.24625C19.3714 9.24625 19.7571 9.17258 20.1124 9.02525C20.4764 8.87792 20.7884 8.65258 21.0484 8.34925L21.5684 8.94725C21.2651 9.31125 20.8838 9.58858 20.4244 9.77925C19.9738 9.96992 19.4754 10.0652 18.9294 10.0652Z" fill="#483232"/>
<path d="M27.9627 10.0002V8.49225L27.9237 8.24525V5.72325C27.9237 5.14258 27.759 4.69625 27.4297 4.38425C27.109 4.07225 26.628 3.91625 25.9867 3.91625C25.5447 3.91625 25.1244 3.98992 24.7257 4.13725C24.327 4.28458 23.989 4.47958 23.7117 4.72225L23.2957 4.03325C23.6424 3.73858 24.0584 3.51325 24.5437 3.35725C25.029 3.19258 25.5404 3.11025 26.0777 3.11025C26.9617 3.11025 27.642 3.33125 28.1187 3.77325C28.604 4.20658 28.8467 4.86958 28.8467 5.76225V10.0002H27.9627ZM25.6097 10.0652C25.0984 10.0652 24.652 9.98292 24.2707 9.81825C23.898 9.64492 23.612 9.41092 23.4127 9.11625C23.2134 8.81292 23.1137 8.46625 23.1137 8.07625C23.1137 7.72092 23.196 7.40025 23.3607 7.11425C23.534 6.81958 23.8114 6.58558 24.1927 6.41225C24.5827 6.23025 25.1027 6.13925 25.7527 6.13925H28.1057V6.82825H25.7787C25.12 6.82825 24.6607 6.94525 24.4007 7.17925C24.1494 7.41325 24.0237 7.70358 24.0237 8.05025C24.0237 8.44025 24.1754 8.75225 24.4787 8.98625C24.782 9.22025 25.2067 9.33725 25.7527 9.33725C26.2727 9.33725 26.719 9.22025 27.0917 8.98625C27.473 8.74358 27.7504 8.39692 27.9237 7.94625L28.1317 8.58325C27.9584 9.03392 27.655 9.39358 27.2217 9.66225C26.797 9.93091 26.2597 10.0652 25.6097 10.0652Z" fill="#483232"/>
<path d="M33.5117 10.0652C32.8703 10.0652 32.3763 9.89192 32.0297 9.54525C31.683 9.19858 31.5097 8.70892 31.5097 8.07625V1.66725H32.4327V8.02425C32.4327 8.42292 32.5323 8.73058 32.7317 8.94725C32.9397 9.16391 33.2343 9.27225 33.6157 9.27225C34.023 9.27225 34.361 9.15525 34.6297 8.92125L34.9547 9.58425C34.7727 9.74892 34.5517 9.87025 34.2917 9.94825C34.0403 10.0262 33.7803 10.0652 33.5117 10.0652ZM30.2877 3.94225V3.17525H34.5127V3.94225H30.2877Z" fill="#483232"/>
<path d="M42.7543 10.0652C42.1043 10.0652 41.5193 9.91792 40.9993 9.62325C40.4879 9.32858 40.0849 8.92125 39.7903 8.40125C39.4956 7.87258 39.3483 7.26591 39.3483 6.58125C39.3483 5.88791 39.4956 5.28125 39.7903 4.76125C40.0849 4.24125 40.4879 3.83825 40.9993 3.55225C41.5193 3.25758 42.1043 3.11025 42.7543 3.11025C43.3523 3.11025 43.8853 3.24458 44.3533 3.51325C44.8299 3.78192 45.2069 4.17625 45.4843 4.69625C45.7703 5.20758 45.9133 5.83592 45.9133 6.58125C45.9133 7.31791 45.7746 7.94625 45.4973 8.46625C45.2199 8.98625 44.8429 9.38492 44.3663 9.66225C43.8983 9.93091 43.3609 10.0652 42.7543 10.0652ZM42.8193 9.24625C43.3046 9.24625 43.7379 9.13791 44.1193 8.92125C44.5093 8.69592 44.8126 8.38391 45.0293 7.98525C45.2546 7.57792 45.3673 7.10991 45.3673 6.58125C45.3673 6.04391 45.2546 5.57591 45.0293 5.17725C44.8126 4.77858 44.5093 4.47092 44.1193 4.25425C43.7379 4.02892 43.3046 3.91625 42.8193 3.91625C42.3426 3.91625 41.9136 4.02892 41.5323 4.25425C41.1509 4.47092 40.8476 4.77858 40.6223 5.17725C40.3969 5.57591 40.2843 6.04391 40.2843 6.58125C40.2843 7.10991 40.3969 7.57792 40.6223 7.98525C40.8476 8.38391 41.1509 8.69592 41.5323 8.92125C41.9136 9.13791 42.3426 9.24625 42.8193 9.24625ZM45.3933 10.0002V7.94625L45.4843 6.56825L45.3543 5.19025V0.354248H46.2773V10.0002H45.3933Z" fill="#483232"/>
<path d="M48.8478 10.0002V3.17525H49.7708V10.0002H48.8478ZM49.3158 1.66725C49.1252 1.66725 48.9648 1.60225 48.8348 1.47225C48.7048 1.34225 48.6398 1.18625 48.6398 1.00425C48.6398 0.822248 48.7048 0.670581 48.8348 0.549248C48.9648 0.419248 49.1252 0.354248 49.3158 0.354248C49.5065 0.354248 49.6668 0.414915 49.7968 0.536248C49.9268 0.657581 49.9918 0.809248 49.9918 0.991248C49.9918 1.18192 49.9268 1.34225 49.7968 1.47225C49.6755 1.60225 49.5152 1.66725 49.3158 1.66725Z" fill="#483232"/>
<path d="M54.172 10.0652C53.6087 10.0652 53.0757 9.98725 52.573 9.83125C52.0704 9.66658 51.676 9.46292 51.39 9.22025L51.806 8.49225C52.0834 8.70025 52.4387 8.88225 52.872 9.03825C53.3054 9.18558 53.7604 9.25925 54.237 9.25925C54.887 9.25925 55.355 9.15958 55.641 8.96025C55.927 8.75225 56.07 8.47925 56.07 8.14125C56.07 7.88992 55.9877 7.69492 55.823 7.55625C55.667 7.40892 55.459 7.30058 55.199 7.23125C54.939 7.15325 54.6487 7.08825 54.328 7.03625C54.0074 6.98425 53.6867 6.92358 53.366 6.85425C53.054 6.78492 52.768 6.68525 52.508 6.55525C52.248 6.41658 52.0357 6.23025 51.871 5.99625C51.715 5.76225 51.637 5.45025 51.637 5.06025C51.637 4.68758 51.741 4.35392 51.949 4.05925C52.157 3.76458 52.4604 3.53491 52.859 3.37025C53.2664 3.19691 53.7604 3.11025 54.341 3.11025C54.783 3.11025 55.225 3.17092 55.667 3.29225C56.109 3.40492 56.473 3.55658 56.759 3.74725L56.356 4.48825C56.0527 4.28025 55.7277 4.13292 55.381 4.04625C55.0344 3.95092 54.6877 3.90325 54.341 3.90325C53.7257 3.90325 53.2707 4.01158 52.976 4.22825C52.69 4.43625 52.547 4.70492 52.547 5.03425C52.547 5.29425 52.625 5.49791 52.781 5.64525C52.9457 5.79258 53.158 5.90958 53.418 5.99625C53.6867 6.07425 53.977 6.13925 54.289 6.19125C54.6097 6.24325 54.926 6.30825 55.238 6.38625C55.5587 6.45558 55.849 6.55525 56.109 6.68525C56.3777 6.80658 56.59 6.98425 56.746 7.21825C56.9107 7.44358 56.993 7.74258 56.993 8.11525C56.993 8.51392 56.8804 8.86058 56.655 9.15525C56.4384 9.44125 56.1177 9.66658 55.693 9.83125C55.277 9.98725 54.77 10.0652 54.172 10.0652Z" fill="#483232"/>
<path d="M62.1707 3.11025C62.7254 3.11025 63.2107 3.21858 63.6267 3.43525C64.0514 3.64325 64.3807 3.96391 64.6147 4.39725C64.8573 4.83058 64.9787 5.37658 64.9787 6.03525V10.0002H64.0557V6.12625C64.0557 5.40692 63.8737 4.86525 63.5097 4.50125C63.1544 4.12858 62.6517 3.94225 62.0017 3.94225C61.5164 3.94225 61.0917 4.04191 60.7277 4.24125C60.3723 4.43191 60.095 4.71358 59.8957 5.08625C59.705 5.45025 59.6097 5.89225 59.6097 6.41225V10.0002H58.6867V0.354248H59.6097V5.04725L59.4277 4.69625C59.6444 4.20225 59.991 3.81658 60.4677 3.53925C60.9444 3.25325 61.512 3.11025 62.1707 3.11025Z" fill="#483232"/>
<path d="M70.3708 10.0652C69.6602 10.0652 69.0362 9.91792 68.4988 9.62325C67.9615 9.31992 67.5412 8.90825 67.2378 8.38825C66.9345 7.85958 66.7828 7.25725 66.7828 6.58125C66.7828 5.90525 66.9258 5.30725 67.2118 4.78725C67.5065 4.26725 67.9052 3.85992 68.4078 3.56525C68.9192 3.26191 69.4912 3.11025 70.1238 3.11025C70.7652 3.11025 71.3328 3.25758 71.8268 3.55225C72.3295 3.83825 72.7238 4.24558 73.0098 4.77425C73.2958 5.29425 73.4388 5.89658 73.4388 6.58125C73.4388 6.62458 73.4345 6.67225 73.4258 6.72425C73.4258 6.76758 73.4258 6.81525 73.4258 6.86725H67.4848V6.17825H72.9318L72.5678 6.45125C72.5678 5.95725 72.4595 5.51958 72.2428 5.13825C72.0348 4.74825 71.7488 4.44492 71.3848 4.22825C71.0208 4.01158 70.6005 3.90325 70.1238 3.90325C69.6558 3.90325 69.2355 4.01158 68.8628 4.22825C68.4902 4.44492 68.1998 4.74825 67.9918 5.13825C67.7838 5.52825 67.6798 5.97458 67.6798 6.47725V6.62025C67.6798 7.14025 67.7925 7.59958 68.0178 7.99825C68.2518 8.38825 68.5725 8.69592 68.9798 8.92125C69.3958 9.13791 69.8682 9.24625 70.3968 9.24625C70.8128 9.24625 71.1985 9.17258 71.5538 9.02525C71.9178 8.87792 72.2298 8.65258 72.4898 8.34925L73.0098 8.94725C72.7065 9.31125 72.3252 9.58858 71.8658 9.77925C71.4152 9.96992 70.9168 10.0652 70.3708 10.0652Z" fill="#483232"/>
<path d="M77.1505 10.0652C76.5872 10.0652 76.0542 9.98725 75.5515 9.83125C75.0489 9.66658 74.6545 9.46292 74.3685 9.22025L74.7845 8.49225C75.0619 8.70025 75.4172 8.88225 75.8505 9.03825C76.2839 9.18558 76.7389 9.25925 77.2155 9.25925C77.8655 9.25925 78.3335 9.15958 78.6195 8.96025C78.9055 8.75225 79.0485 8.47925 79.0485 8.14125C79.0485 7.88992 78.9662 7.69492 78.8015 7.55625C78.6455 7.40892 78.4375 7.30058 78.1775 7.23125C77.9175 7.15325 77.6272 7.08825 77.3065 7.03625C76.9859 6.98425 76.6652 6.92358 76.3445 6.85425C76.0325 6.78492 75.7465 6.68525 75.4865 6.55525C75.2265 6.41658 75.0142 6.23025 74.8495 5.99625C74.6935 5.76225 74.6155 5.45025 74.6155 5.06025C74.6155 4.68758 74.7195 4.35392 74.9275 4.05925C75.1355 3.76458 75.4389 3.53491 75.8375 3.37025C76.2449 3.19691 76.7389 3.11025 77.3195 3.11025C77.7615 3.11025 78.2035 3.17092 78.6455 3.29225C79.0875 3.40492 79.4515 3.55658 79.7375 3.74725L79.3345 4.48825C79.0312 4.28025 78.7062 4.13292 78.3595 4.04625C78.0129 3.95092 77.6662 3.90325 77.3195 3.90325C76.7042 3.90325 76.2492 4.01158 75.9545 4.22825C75.6685 4.43625 75.5255 4.70492 75.5255 5.03425C75.5255 5.29425 75.6035 5.49791 75.7595 5.64525C75.9242 5.79258 76.1365 5.90958 76.3965 5.99625C76.6652 6.07425 76.9555 6.13925 77.2675 6.19125C77.5882 6.24325 77.9045 6.30825 78.2165 6.38625C78.5372 6.45558 78.8275 6.55525 79.0875 6.68525C79.3562 6.80658 79.5685 6.98425 79.7245 7.21825C79.8892 7.44358 79.9715 7.74258 79.9715 8.11525C79.9715 8.51392 79.8589 8.86058 79.6335 9.15525C79.4169 9.44125 79.0962 9.66658 78.6715 9.83125C78.2555 9.98725 77.7485 10.0652 77.1505 10.0652Z" fill="#483232"/>
<path d="M81.7562 10.0652C81.5655 10.0652 81.4009 9.99592 81.2622 9.85725C81.1322 9.71858 81.0672 9.54958 81.0672 9.35025C81.0672 9.14225 81.1322 8.97325 81.2622 8.84325C81.4009 8.71325 81.5655 8.64825 81.7562 8.64825C81.9469 8.64825 82.1072 8.71325 82.2372 8.84325C82.3759 8.97325 82.4452 9.14225 82.4452 9.35025C82.4452 9.54958 82.3759 9.71858 82.2372 9.85725C82.1072 9.99592 81.9469 10.0652 81.7562 10.0652Z" fill="#483232"/>
</svg>
