<svg width="83" height="11" viewBox="0 0 83 11" fill="none" xmlns="http://www.w3.org/2000/svg">
<path d="M5.10901 10.0778C4.41568 10.0778 3.77435 9.96509 3.18501 9.73976C2.60435 9.50576 2.09735 9.18076 1.66401 8.76476C1.23935 8.34876 0.905679 7.85909 0.663012 7.29576C0.429012 6.73243 0.312012 6.11709 0.312012 5.44976C0.312012 4.78243 0.429012 4.16709 0.663012 3.60376C0.905679 3.04043 1.24368 2.55076 1.67701 2.13476C2.11035 1.71876 2.61735 1.39809 3.19801 1.17276C3.78735 0.93876 4.42868 0.82176 5.12201 0.82176C5.81535 0.82176 6.44801 0.930093 7.02001 1.14676C7.60068 1.36343 8.09468 1.69276 8.50201 2.13476L7.90401 2.74576C7.52268 2.36443 7.10234 2.09143 6.64301 1.92676C6.18368 1.76209 5.68968 1.67976 5.16101 1.67976C4.59768 1.67976 4.07768 1.77509 3.60101 1.96576C3.13301 2.14776 2.72134 2.41209 2.36601 2.75876C2.01934 3.09676 1.74635 3.49543 1.54701 3.95476C1.35635 4.40543 1.26101 4.90376 1.26101 5.44976C1.26101 5.98709 1.35635 6.48543 1.54701 6.94476C1.74635 7.40409 2.01934 7.80709 2.36601 8.15376C2.72134 8.49176 3.13301 8.75609 3.60101 8.94676C4.07768 9.12876 4.59334 9.21976 5.14801 9.21976C5.66801 9.21976 6.15768 9.14176 6.61701 8.98576C7.08501 8.82976 7.51401 8.56543 7.90401 8.19276L8.45001 8.92076C8.01668 9.30209 7.50968 9.59243 6.92901 9.79176C6.34835 9.98243 5.74168 10.0778 5.10901 10.0778ZM7.52701 8.80376V5.44976H8.45001V8.92076L7.52701 8.80376Z" fill="#483232"/>
<path d="M10.9777 9.99976V3.17476H11.8617V5.03376L11.7707 4.70876C11.9614 4.18876 12.282 3.79443 12.7327 3.52576C13.1834 3.24843 13.7424 3.10976 14.4097 3.10976V4.00676C14.375 4.00676 14.3404 4.00676 14.3057 4.00676C14.271 3.99809 14.2364 3.99376 14.2017 3.99376C13.4824 3.99376 12.919 4.21476 12.5117 4.65676C12.1044 5.09009 11.9007 5.70976 11.9007 6.51576V9.99976H10.9777Z" fill="#483232"/>
<path d="M18.9294 10.0648C18.2188 10.0648 17.5948 9.91743 17.0574 9.62276C16.5201 9.31943 16.0998 8.90776 15.7964 8.38776C15.4931 7.85909 15.3414 7.25676 15.3414 6.58076C15.3414 5.90476 15.4844 5.30676 15.7704 4.78676C16.0651 4.26676 16.4638 3.85943 16.9664 3.56476C17.4778 3.26143 18.0498 3.10976 18.6824 3.10976C19.3238 3.10976 19.8914 3.25709 20.3854 3.55176C20.8881 3.83776 21.2824 4.24509 21.5684 4.77376C21.8544 5.29376 21.9974 5.89609 21.9974 6.58076C21.9974 6.62409 21.9931 6.67176 21.9844 6.72376C21.9844 6.76709 21.9844 6.81476 21.9844 6.86676H16.0434V6.17776H21.4904L21.1264 6.45076C21.1264 5.95676 21.0181 5.51909 20.8014 5.13776C20.5934 4.74776 20.3074 4.44443 19.9434 4.22776C19.5794 4.01109 19.1591 3.90276 18.6824 3.90276C18.2144 3.90276 17.7941 4.01109 17.4214 4.22776C17.0488 4.44443 16.7584 4.74776 16.5504 5.13776C16.3424 5.52776 16.2384 5.97409 16.2384 6.47676V6.61976C16.2384 7.13976 16.3511 7.59909 16.5764 7.99776C16.8104 8.38776 17.1311 8.69543 17.5384 8.92076C17.9544 9.13743 18.4268 9.24576 18.9554 9.24576C19.3714 9.24576 19.7571 9.17209 20.1124 9.02476C20.4764 8.87743 20.7884 8.65209 21.0484 8.34876L21.5684 8.94676C21.2651 9.31076 20.8838 9.58809 20.4244 9.77876C19.9738 9.96943 19.4754 10.0648 18.9294 10.0648Z" fill="#483232"/>
<path d="M27.9627 9.99976V8.49176L27.9237 8.24476V5.72276C27.9237 5.14209 27.759 4.69576 27.4297 4.38376C27.109 4.07176 26.628 3.91576 25.9867 3.91576C25.5447 3.91576 25.1244 3.98943 24.7257 4.13676C24.327 4.28409 23.989 4.47909 23.7117 4.72176L23.2957 4.03276C23.6424 3.73809 24.0584 3.51276 24.5437 3.35676C25.029 3.19209 25.5404 3.10976 26.0777 3.10976C26.9617 3.10976 27.642 3.33076 28.1187 3.77276C28.604 4.20609 28.8467 4.86909 28.8467 5.76176V9.99976H27.9627ZM25.6097 10.0648C25.0984 10.0648 24.652 9.98243 24.2707 9.81776C23.898 9.64443 23.612 9.41043 23.4127 9.11576C23.2134 8.81243 23.1137 8.46576 23.1137 8.07576C23.1137 7.72043 23.196 7.39976 23.3607 7.11376C23.534 6.81909 23.8114 6.58509 24.1927 6.41176C24.5827 6.22976 25.1027 6.13876 25.7527 6.13876H28.1057V6.82776H25.7787C25.12 6.82776 24.6607 6.94476 24.4007 7.17876C24.1494 7.41276 24.0237 7.70309 24.0237 8.04976C24.0237 8.43976 24.1754 8.75176 24.4787 8.98576C24.782 9.21976 25.2067 9.33676 25.7527 9.33676C26.2727 9.33676 26.719 9.21976 27.0917 8.98576C27.473 8.74309 27.7504 8.39643 27.9237 7.94576L28.1317 8.58276C27.9584 9.03343 27.655 9.39309 27.2217 9.66176C26.797 9.93043 26.2597 10.0648 25.6097 10.0648Z" fill="#483232"/>
<path d="M33.5117 10.0648C32.8703 10.0648 32.3763 9.89143 32.0297 9.54476C31.683 9.19809 31.5097 8.70843 31.5097 8.07576V1.66676H32.4327V8.02376C32.4327 8.42243 32.5323 8.73009 32.7317 8.94676C32.9397 9.16343 33.2343 9.27176 33.6157 9.27176C34.023 9.27176 34.361 9.15476 34.6297 8.92076L34.9547 9.58376C34.7727 9.74843 34.5517 9.86976 34.2917 9.94776C34.0403 10.0258 33.7803 10.0648 33.5117 10.0648ZM30.2877 3.94176V3.17476H34.5127V3.94176H30.2877Z" fill="#483232"/>
<path d="M42.7543 10.0648C42.1043 10.0648 41.5193 9.91743 40.9993 9.62276C40.4879 9.32809 40.0849 8.92076 39.7903 8.40076C39.4956 7.87209 39.3483 7.26543 39.3483 6.58076C39.3483 5.88743 39.4956 5.28076 39.7903 4.76076C40.0849 4.24076 40.4879 3.83776 40.9993 3.55176C41.5193 3.25709 42.1043 3.10976 42.7543 3.10976C43.3523 3.10976 43.8853 3.24409 44.3533 3.51276C44.8299 3.78143 45.2069 4.17576 45.4843 4.69576C45.7703 5.20709 45.9133 5.83543 45.9133 6.58076C45.9133 7.31743 45.7746 7.94576 45.4973 8.46576C45.2199 8.98576 44.8429 9.38443 44.3663 9.66176C43.8983 9.93043 43.3609 10.0648 42.7543 10.0648ZM42.8193 9.24576C43.3046 9.24576 43.7379 9.13743 44.1193 8.92076C44.5093 8.69543 44.8126 8.38343 45.0293 7.98476C45.2546 7.57743 45.3673 7.10943 45.3673 6.58076C45.3673 6.04343 45.2546 5.57543 45.0293 5.17676C44.8126 4.77809 44.5093 4.47043 44.1193 4.25376C43.7379 4.02843 43.3046 3.91576 42.8193 3.91576C42.3426 3.91576 41.9136 4.02843 41.5323 4.25376C41.1509 4.47043 40.8476 4.77809 40.6223 5.17676C40.3969 5.57543 40.2843 6.04343 40.2843 6.58076C40.2843 7.10943 40.3969 7.57743 40.6223 7.98476C40.8476 8.38343 41.1509 8.69543 41.5323 8.92076C41.9136 9.13743 42.3426 9.24576 42.8193 9.24576ZM45.3933 9.99976V7.94576L45.4843 6.56776L45.3543 5.18976V0.35376H46.2773V9.99976H45.3933Z" fill="#483232"/>
<path d="M48.8478 9.99976V3.17476H49.7708V9.99976H48.8478ZM49.3158 1.66676C49.1252 1.66676 48.9648 1.60176 48.8348 1.47176C48.7048 1.34176 48.6398 1.18576 48.6398 1.00376C48.6398 0.82176 48.7048 0.670093 48.8348 0.54876C48.9648 0.41876 49.1252 0.35376 49.3158 0.35376C49.5065 0.35376 49.6668 0.414426 49.7968 0.53576C49.9268 0.657093 49.9918 0.80876 49.9918 0.99076C49.9918 1.18143 49.9268 1.34176 49.7968 1.47176C49.6755 1.60176 49.5152 1.66676 49.3158 1.66676Z" fill="#483232"/>
<path d="M54.172 10.0648C53.6087 10.0648 53.0757 9.98676 52.573 9.83076C52.0704 9.66609 51.676 9.46243 51.39 9.21976L51.806 8.49176C52.0834 8.69976 52.4387 8.88176 52.872 9.03776C53.3054 9.18509 53.7604 9.25876 54.237 9.25876C54.887 9.25876 55.355 9.15909 55.641 8.95976C55.927 8.75176 56.07 8.47876 56.07 8.14076C56.07 7.88943 55.9877 7.69443 55.823 7.55576C55.667 7.40843 55.459 7.30009 55.199 7.23076C54.939 7.15276 54.6487 7.08776 54.328 7.03576C54.0074 6.98376 53.6867 6.92309 53.366 6.85376C53.054 6.78443 52.768 6.68476 52.508 6.55476C52.248 6.41609 52.0357 6.22976 51.871 5.99576C51.715 5.76176 51.637 5.44976 51.637 5.05976C51.637 4.68709 51.741 4.35343 51.949 4.05876C52.157 3.76409 52.4604 3.53443 52.859 3.36976C53.2664 3.19643 53.7604 3.10976 54.341 3.10976C54.783 3.10976 55.225 3.17043 55.667 3.29176C56.109 3.40443 56.473 3.55609 56.759 3.74676L56.356 4.48776C56.0527 4.27976 55.7277 4.13243 55.381 4.04576C55.0344 3.95043 54.6877 3.90276 54.341 3.90276C53.7257 3.90276 53.2707 4.01109 52.976 4.22776C52.69 4.43576 52.547 4.70443 52.547 5.03376C52.547 5.29376 52.625 5.49743 52.781 5.64476C52.9457 5.79209 53.158 5.90909 53.418 5.99576C53.6867 6.07376 53.977 6.13876 54.289 6.19076C54.6097 6.24276 54.926 6.30776 55.238 6.38576C55.5587 6.45509 55.849 6.55476 56.109 6.68476C56.3777 6.80609 56.59 6.98376 56.746 7.21776C56.9107 7.44309 56.993 7.74209 56.993 8.11476C56.993 8.51343 56.8804 8.86009 56.655 9.15476C56.4384 9.44076 56.1177 9.66609 55.693 9.83076C55.277 9.98676 54.77 10.0648 54.172 10.0648Z" fill="#483232"/>
<path d="M62.1707 3.10976C62.7254 3.10976 63.2107 3.21809 63.6267 3.43476C64.0514 3.64276 64.3807 3.96343 64.6147 4.39676C64.8573 4.83009 64.9787 5.37609 64.9787 6.03476V9.99976H64.0557V6.12576C64.0557 5.40643 63.8737 4.86476 63.5097 4.50076C63.1544 4.12809 62.6517 3.94176 62.0017 3.94176C61.5164 3.94176 61.0917 4.04143 60.7277 4.24076C60.3723 4.43143 60.095 4.71309 59.8957 5.08576C59.705 5.44976 59.6097 5.89176 59.6097 6.41176V9.99976H58.6867V0.35376H59.6097V5.04676L59.4277 4.69576C59.6444 4.20176 59.991 3.81609 60.4677 3.53876C60.9444 3.25276 61.512 3.10976 62.1707 3.10976Z" fill="#483232"/>
<path d="M70.3708 10.0648C69.6602 10.0648 69.0362 9.91743 68.4988 9.62276C67.9615 9.31943 67.5412 8.90776 67.2378 8.38776C66.9345 7.85909 66.7828 7.25676 66.7828 6.58076C66.7828 5.90476 66.9258 5.30676 67.2118 4.78676C67.5065 4.26676 67.9052 3.85943 68.4078 3.56476C68.9192 3.26143 69.4912 3.10976 70.1238 3.10976C70.7652 3.10976 71.3328 3.25709 71.8268 3.55176C72.3295 3.83776 72.7238 4.24509 73.0098 4.77376C73.2958 5.29376 73.4388 5.89609 73.4388 6.58076C73.4388 6.62409 73.4345 6.67176 73.4258 6.72376C73.4258 6.76709 73.4258 6.81476 73.4258 6.86676H67.4848V6.17776H72.9318L72.5678 6.45076C72.5678 5.95676 72.4595 5.51909 72.2428 5.13776C72.0348 4.74776 71.7488 4.44443 71.3848 4.22776C71.0208 4.01109 70.6005 3.90276 70.1238 3.90276C69.6558 3.90276 69.2355 4.01109 68.8628 4.22776C68.4902 4.44443 68.1998 4.74776 67.9918 5.13776C67.7838 5.52776 67.6798 5.97409 67.6798 6.47676V6.61976C67.6798 7.13976 67.7925 7.59909 68.0178 7.99776C68.2518 8.38776 68.5725 8.69543 68.9798 8.92076C69.3958 9.13743 69.8682 9.24576 70.3968 9.24576C70.8128 9.24576 71.1985 9.17209 71.5538 9.02476C71.9178 8.87743 72.2298 8.65209 72.4898 8.34876L73.0098 8.94676C72.7065 9.31076 72.3252 9.58809 71.8658 9.77876C71.4152 9.96943 70.9168 10.0648 70.3708 10.0648Z" fill="#483232"/>
<path d="M77.1505 10.0648C76.5872 10.0648 76.0542 9.98676 75.5515 9.83076C75.0489 9.66609 74.6545 9.46243 74.3685 9.21976L74.7845 8.49176C75.0619 8.69976 75.4172 8.88176 75.8505 9.03776C76.2839 9.18509 76.7389 9.25876 77.2155 9.25876C77.8655 9.25876 78.3335 9.15909 78.6195 8.95976C78.9055 8.75176 79.0485 8.47876 79.0485 8.14076C79.0485 7.88943 78.9662 7.69443 78.8015 7.55576C78.6455 7.40843 78.4375 7.30009 78.1775 7.23076C77.9175 7.15276 77.6272 7.08776 77.3065 7.03576C76.9859 6.98376 76.6652 6.92309 76.3445 6.85376C76.0325 6.78443 75.7465 6.68476 75.4865 6.55476C75.2265 6.41609 75.0142 6.22976 74.8495 5.99576C74.6935 5.76176 74.6155 5.44976 74.6155 5.05976C74.6155 4.68709 74.7195 4.35343 74.9275 4.05876C75.1355 3.76409 75.4389 3.53443 75.8375 3.36976C76.2449 3.19643 76.7389 3.10976 77.3195 3.10976C77.7615 3.10976 78.2035 3.17043 78.6455 3.29176C79.0875 3.40443 79.4515 3.55609 79.7375 3.74676L79.3345 4.48776C79.0312 4.27976 78.7062 4.13243 78.3595 4.04576C78.0129 3.95043 77.6662 3.90276 77.3195 3.90276C76.7042 3.90276 76.2492 4.01109 75.9545 4.22776C75.6685 4.43576 75.5255 4.70443 75.5255 5.03376C75.5255 5.29376 75.6035 5.49743 75.7595 5.64476C75.9242 5.79209 76.1365 5.90909 76.3965 5.99576C76.6652 6.07376 76.9555 6.13876 77.2675 6.19076C77.5882 6.24276 77.9045 6.30776 78.2165 6.38576C78.5372 6.45509 78.8275 6.55476 79.0875 6.68476C79.3562 6.80609 79.5685 6.98376 79.7245 7.21776C79.8892 7.44309 79.9715 7.74209 79.9715 8.11476C79.9715 8.51343 79.8589 8.86009 79.6335 9.15476C79.4169 9.44076 79.0962 9.66609 78.6715 9.83076C78.2555 9.98676 77.7485 10.0648 77.1505 10.0648Z" fill="#483232"/>
<path d="M81.7562 10.0648C81.5655 10.0648 81.4009 9.99543 81.2622 9.85676C81.1322 9.71809 81.0672 9.54909 81.0672 9.34976C81.0672 9.14176 81.1322 8.97276 81.2622 8.84276C81.4009 8.71276 81.5655 8.64776 81.7562 8.64776C81.9469 8.64776 82.1072 8.71276 82.2372 8.84276C82.3759 8.97276 82.4452 9.14176 82.4452 9.34976C82.4452 9.54909 82.3759 9.71809 82.2372 9.85676C82.1072 9.99543 81.9469 10.0648 81.7562 10.0648Z" fill="#483232"/>
</svg>
