<svg width="30" height="28" viewBox="0 0 30 28" fill="none" xmlns="http://www.w3.org/2000/svg">
<path d="M26.05 4.14626C25.4116 3.46986 24.6535 2.93329 23.8192 2.5672C22.9849 2.20112 22.0906 2.0127 21.1875 2.0127C20.2844 2.0127 19.3902 2.20112 18.5558 2.5672C17.7215 2.93329 16.9635 3.46986 16.325 4.14626L15 5.54938L13.675 4.14626C12.3854 2.78062 10.6363 2.0134 8.81253 2.0134C6.98874 2.0134 5.23964 2.78062 3.95003 4.14626C2.66041 5.51191 1.93591 7.36412 1.93591 9.29544C1.93591 11.2268 2.66041 13.079 3.95003 14.4446L5.27503 15.8477L15 26.1461L24.725 15.8477L26.05 14.4446C26.6888 13.7685 27.1955 12.9658 27.5412 12.0823C27.8869 11.1988 28.0648 10.2518 28.0648 9.29544C28.0648 8.33909 27.8869 7.3921 27.5412 6.50859C27.1955 5.62508 26.6888 4.82235 26.05 4.14626V4.14626Z" stroke="#9A9A9A" stroke-width="2.5" stroke-linecap="round" stroke-linejoin="round"/>
</svg>
