<svg width="30" height="27" viewBox="0 0 30 27" fill="none" xmlns="http://www.w3.org/2000/svg">
<path d="M26.05 3.67361C25.4116 2.9972 24.6535 2.46063 23.8192 2.09455C22.9849 1.72846 22.0906 1.54004 21.1875 1.54004C20.2844 1.54004 19.3902 1.72846 18.5558 2.09455C17.7215 2.46063 16.9635 2.9972 16.325 3.67361L15 5.07672L13.675 3.67361C12.3854 2.30796 10.6363 1.54075 8.81253 1.54075C6.98874 1.54075 5.23964 2.30796 3.95003 3.67361C2.66041 5.03925 1.93591 6.89147 1.93591 8.82278C1.93591 10.7541 2.66041 12.6063 3.95003 13.972L5.27503 15.3751L15 25.6734L24.725 15.3751L26.05 13.972C26.6888 13.2959 27.1955 12.4931 27.5412 11.6096C27.8869 10.7261 28.0648 9.77914 28.0648 8.82278C28.0648 7.86643 27.8869 6.91945 27.5412 6.03593C27.1955 5.15242 26.6888 4.34969 26.05 3.67361V3.67361Z" stroke="#9A9A9A" stroke-width="2.5" stroke-linecap="round" stroke-linejoin="round"/>
</svg>
