<svg width="503" height="48" viewBox="0 0 503 48" fill="none" xmlns="http://www.w3.org/2000/svg">
<rect width="503" height="48" rx="20" fill="white"/>
<path d="M21 39H61V42H21V39Z" fill="#C92020"/>
<path d="M20.9199 29.9999L25.9599 18.7999H28.0079L33.0639 29.9999H30.8879L26.5519 19.9039H27.3839L23.0639 29.9999H20.9199ZM23.2399 27.4079L23.7999 25.7759H29.8479L30.4079 27.4079H23.2399Z" fill="#C92020"/>
<path d="M39.0323 30.1119C38.307 30.1119 37.6616 29.9519 37.0963 29.6319C36.531 29.3119 36.083 28.8319 35.7523 28.1919C35.4323 27.5413 35.2723 26.7199 35.2723 25.7279C35.2723 24.7253 35.4376 23.9039 35.7683 23.2639C36.1096 22.6239 36.563 22.1493 37.1283 21.8399C37.7043 21.5199 38.339 21.3599 39.0323 21.3599C39.875 21.3599 40.6163 21.5413 41.2563 21.9039C41.907 22.2666 42.419 22.7733 42.7923 23.4239C43.1763 24.0746 43.3683 24.8426 43.3683 25.7279C43.3683 26.6133 43.1763 27.3813 42.7923 28.0319C42.419 28.6826 41.907 29.1946 41.2563 29.5679C40.6163 29.9306 39.875 30.1119 39.0323 30.1119ZM34.2963 29.9999V18.1279H36.2963V23.4399L36.1363 25.7119L36.2003 27.9839V29.9999H34.2963ZM38.8083 28.3999C39.2883 28.3999 39.715 28.2933 40.0883 28.0799C40.4723 27.8666 40.7763 27.5573 41.0003 27.1519C41.2243 26.7466 41.3363 26.2719 41.3363 25.7279C41.3363 25.1733 41.2243 24.6986 41.0003 24.3039C40.7763 23.8986 40.4723 23.5893 40.0883 23.3759C39.715 23.1626 39.2883 23.0559 38.8083 23.0559C38.3283 23.0559 37.8963 23.1626 37.5123 23.3759C37.1283 23.5893 36.8243 23.8986 36.6003 24.3039C36.3763 24.6986 36.2643 25.1733 36.2643 25.7279C36.2643 26.2719 36.3763 26.7466 36.6003 27.1519C36.8243 27.5573 37.1283 27.8666 37.5123 28.0799C37.8963 28.2933 38.3283 28.3999 38.8083 28.3999Z" fill="#C92020"/>
<path d="M49.105 30.1119C48.2304 30.1119 47.4517 29.9253 46.769 29.5519C46.0864 29.1679 45.5477 28.6453 45.153 27.9839C44.7584 27.3226 44.561 26.5706 44.561 25.7279C44.561 24.8746 44.7584 24.1226 45.153 23.4719C45.5477 22.8106 46.0864 22.2933 46.769 21.9199C47.4517 21.5466 48.2304 21.3599 49.105 21.3599C49.9904 21.3599 50.7744 21.5466 51.457 21.9199C52.1504 22.2933 52.6891 22.8053 53.0731 23.4559C53.4677 24.1066 53.6651 24.8639 53.6651 25.7279C53.6651 26.5706 53.4677 27.3226 53.0731 27.9839C52.6891 28.6453 52.1504 29.1679 51.457 29.5519C50.7744 29.9253 49.9904 30.1119 49.105 30.1119ZM49.105 28.3999C49.5957 28.3999 50.033 28.2933 50.417 28.0799C50.801 27.8666 51.0997 27.5573 51.313 27.1519C51.537 26.7466 51.649 26.2719 51.649 25.7279C51.649 25.1733 51.537 24.6986 51.313 24.3039C51.0997 23.8986 50.801 23.5893 50.417 23.3759C50.033 23.1626 49.601 23.0559 49.121 23.0559C48.6304 23.0559 48.193 23.1626 47.809 23.3759C47.4357 23.5893 47.137 23.8986 46.913 24.3039C46.689 24.6986 46.577 25.1733 46.577 25.7279C46.577 26.2719 46.689 26.7466 46.913 27.1519C47.137 27.5573 47.4357 27.8666 47.809 28.0799C48.193 28.2933 48.625 28.3999 49.105 28.3999Z" fill="#C92020"/>
<path d="M59.1936 30.1119C58.4682 30.1119 57.8282 29.9786 57.2735 29.7119C56.7189 29.4346 56.2869 29.0186 55.9776 28.4639C55.6682 27.8986 55.5135 27.1893 55.5135 26.3359V21.4559H57.5135V26.0639C57.5135 26.8319 57.6842 27.4079 58.0256 27.7919C58.3776 28.1653 58.8736 28.3519 59.5135 28.3519C59.9829 28.3519 60.3882 28.2559 60.7295 28.0639C61.0816 27.8719 61.3535 27.5839 61.5455 27.1999C61.7482 26.8159 61.8495 26.3413 61.8495 25.7759V21.4559H63.8495V29.9999H61.9455V27.6959L62.2815 28.3999C61.9935 28.9546 61.5722 29.3813 61.0175 29.6799C60.4629 29.9679 59.8549 30.1119 59.1936 30.1119Z" fill="#C92020"/>
<path d="M69.6842 30.1119C68.7455 30.1119 68.0202 29.8719 67.5082 29.3919C66.9962 28.9013 66.7402 28.1813 66.7402 27.2319V19.5679H68.7402V27.1839C68.7402 27.5893 68.8415 27.9039 69.0442 28.1279C69.2575 28.3519 69.5508 28.4639 69.9242 28.4639C70.3722 28.4639 70.7455 28.3466 71.0442 28.1119L71.6042 29.5359C71.3695 29.7279 71.0815 29.8719 70.7402 29.9679C70.3988 30.0639 70.0468 30.1119 69.6842 30.1119ZM65.3322 23.1199V21.5199H71.0282V23.1199H65.3322Z" fill="#C92020"/>
<path d="M155.504 31.9998V20.7998H157.216L162.112 28.9758H161.216L166.032 20.7998H167.744L167.76 31.9998H165.792L165.776 23.8878H166.192L162.096 30.7198H161.168L157.008 23.8878H157.488V31.9998H155.504Z" fill="#C92020"/>
<path d="M174.609 32.1118C173.66 32.1118 172.828 31.9251 172.113 31.5518C171.409 31.1678 170.86 30.6451 170.465 29.9838C170.081 29.3225 169.889 28.5705 169.889 27.7278C169.889 26.8745 170.076 26.1225 170.449 25.4718C170.833 24.8105 171.356 24.2931 172.017 23.9198C172.689 23.5465 173.452 23.3598 174.305 23.3598C175.137 23.3598 175.878 23.5411 176.529 23.9038C177.18 24.2665 177.692 24.7785 178.065 25.4398C178.438 26.1011 178.625 26.8798 178.625 27.7758C178.625 27.8611 178.62 27.9571 178.609 28.0638C178.609 28.1705 178.604 28.2718 178.593 28.3678H171.473V27.0398H177.537L176.753 27.4558C176.764 26.9651 176.662 26.5331 176.449 26.1598C176.236 25.7865 175.942 25.4931 175.569 25.2798C175.206 25.0665 174.785 24.9598 174.305 24.9598C173.814 24.9598 173.382 25.0665 173.009 25.2798C172.646 25.4931 172.358 25.7918 172.145 26.1758C171.942 26.5491 171.841 26.9918 171.841 27.5038V27.8238C171.841 28.3358 171.958 28.7891 172.193 29.1838C172.428 29.5785 172.758 29.8825 173.185 30.0958C173.612 30.3091 174.102 30.4158 174.657 30.4158C175.137 30.4158 175.569 30.3411 175.953 30.1918C176.337 30.0425 176.678 29.8078 176.977 29.4878L178.049 30.7198C177.665 31.1678 177.18 31.5145 176.593 31.7598C176.017 31.9945 175.356 32.1118 174.609 32.1118Z" fill="#C92020"/>
<path d="M185.394 23.3598C186.077 23.3598 186.685 23.4931 187.218 23.7598C187.762 24.0265 188.189 24.4371 188.498 24.9918C188.808 25.5358 188.962 26.2398 188.962 27.1038V31.9998H186.962V27.3598C186.962 26.6025 186.781 26.0371 186.418 25.6638C186.066 25.2905 185.57 25.1038 184.93 25.1038C184.461 25.1038 184.045 25.1998 183.682 25.3918C183.32 25.5838 183.037 25.8718 182.834 26.2558C182.642 26.6291 182.546 27.1038 182.546 27.6798V31.9998H180.546V23.4558H182.45V25.7598L182.114 25.0558C182.413 24.5118 182.845 24.0958 183.41 23.8078C183.986 23.5091 184.648 23.3598 185.394 23.3598Z" fill="#C92020"/>
<path d="M195.115 32.1118C194.39 32.1118 193.75 31.9785 193.195 31.7118C192.641 31.4345 192.209 31.0185 191.899 30.4638C191.59 29.8985 191.435 29.1891 191.435 28.3358V23.4558H193.435V28.0638C193.435 28.8318 193.606 29.4078 193.947 29.7918C194.299 30.1651 194.795 30.3518 195.435 30.3518C195.905 30.3518 196.31 30.2558 196.651 30.0638C197.003 29.8718 197.275 29.5838 197.467 29.1998C197.67 28.8158 197.771 28.3411 197.771 27.7758V23.4558H199.771V31.9998H197.867V29.6958L198.203 30.3998C197.915 30.9545 197.494 31.3811 196.939 31.6798C196.385 31.9678 195.777 32.1118 195.115 32.1118Z" fill="#C92020"/>
<path d="M106 26C106 27.6569 104.657 29 103 29C101.343 29 100 27.6569 100 26C100 24.3431 101.343 23 103 23C104.657 23 106 24.3431 106 26Z" fill="#483332"/>
<path d="M268.504 29.9998V18.7998H270.216L275.112 26.9758H274.216L279.032 18.7998H280.744L280.76 29.9998H278.792L278.776 21.8878H279.192L275.096 28.7198H274.168L270.008 21.8878H270.488V29.9998H268.504Z" fill="#C92020"/>
<path d="M288.857 29.9998V28.2718L288.745 27.9038V24.8798C288.745 24.2931 288.569 23.8398 288.217 23.5198C287.865 23.1891 287.332 23.0238 286.617 23.0238C286.137 23.0238 285.662 23.0985 285.193 23.2478C284.734 23.3971 284.345 23.6051 284.025 23.8718L283.241 22.4158C283.7 22.0638 284.244 21.8025 284.873 21.6318C285.513 21.4505 286.174 21.3598 286.857 21.3598C288.094 21.3598 289.049 21.6585 289.721 22.2558C290.404 22.8425 290.745 23.7545 290.745 24.9918V29.9998H288.857ZM286.169 30.1118C285.529 30.1118 284.969 30.0051 284.489 29.7918C284.009 29.5678 283.636 29.2638 283.369 28.8798C283.113 28.4851 282.985 28.0425 282.985 27.5518C282.985 27.0718 283.097 26.6398 283.321 26.2558C283.556 25.8718 283.934 25.5678 284.457 25.3438C284.98 25.1198 285.673 25.0078 286.537 25.0078H289.017V26.3358H286.681C285.998 26.3358 285.54 26.4478 285.305 26.6718C285.07 26.8851 284.953 27.1518 284.953 27.4718C284.953 27.8345 285.097 28.1225 285.385 28.3358C285.673 28.5491 286.073 28.6558 286.585 28.6558C287.076 28.6558 287.513 28.5438 287.897 28.3198C288.292 28.0958 288.574 27.7651 288.745 27.3278L289.081 28.5278C288.889 29.0291 288.542 29.4185 288.041 29.6958C287.55 29.9731 286.926 30.1118 286.169 30.1118Z" fill="#C92020"/>
<path d="M298.048 30.1118C297.355 30.1118 296.72 29.9518 296.144 29.6318C295.579 29.3118 295.125 28.8318 294.784 28.1918C294.453 27.5411 294.288 26.7198 294.288 25.7278C294.288 24.7251 294.448 23.9038 294.768 23.2638C295.099 22.6238 295.547 22.1491 296.112 21.8398C296.677 21.5198 297.323 21.3598 298.048 21.3598C298.891 21.3598 299.632 21.5411 300.272 21.9038C300.923 22.2665 301.435 22.7731 301.808 23.4238C302.192 24.0745 302.384 24.8425 302.384 25.7278C302.384 26.6131 302.192 27.3865 301.808 28.0478C301.435 28.6985 300.923 29.2051 300.272 29.5678C299.632 29.9305 298.891 30.1118 298.048 30.1118ZM293.312 33.1038V21.4558H295.216V23.4718L295.152 25.7438L295.312 28.0158V33.1038H293.312ZM297.824 28.3998C298.304 28.3998 298.731 28.2931 299.104 28.0798C299.488 27.8665 299.792 27.5571 300.016 27.1518C300.24 26.7465 300.352 26.2718 300.352 25.7278C300.352 25.1731 300.24 24.6985 300.016 24.3038C299.792 23.8985 299.488 23.5891 299.104 23.3758C298.731 23.1625 298.304 23.0558 297.824 23.0558C297.344 23.0558 296.912 23.1625 296.528 23.3758C296.144 23.5891 295.84 23.8985 295.616 24.3038C295.392 24.6985 295.28 25.1731 295.28 25.7278C295.28 26.2718 295.392 26.7465 295.616 27.1518C295.84 27.5571 296.144 27.8665 296.528 28.0798C296.912 28.2931 297.344 28.3998 297.824 28.3998Z" fill="#C92020"/>
<path d="M244 26C244 27.6569 242.657 29 241 29C239.343 29 238 27.6569 238 26C238 24.3431 239.343 23 241 23C242.657 23 244 24.3431 244 26Z" fill="#483332"/>
<path d="M379.504 29.9999V18.7999H384.112C385.104 18.7999 385.952 18.9599 386.656 19.2799C387.371 19.5999 387.92 20.0586 388.304 20.6559C388.688 21.2533 388.88 21.9626 388.88 22.7839C388.88 23.6053 388.688 24.3146 388.304 24.9119C387.92 25.4986 387.371 25.9519 386.656 26.2719C385.952 26.5813 385.104 26.7359 384.112 26.7359H380.656L381.584 25.7919V29.9999H379.504ZM386.832 29.9999L384 25.9359H386.224L389.072 29.9999H386.832ZM381.584 26.0159L380.656 25.0239H384.016C384.933 25.0239 385.621 24.8266 386.08 24.4319C386.549 24.0373 386.784 23.4879 386.784 22.7839C386.784 22.0693 386.549 21.5199 386.08 21.1359C385.621 20.7519 384.933 20.5599 384.016 20.5599H380.656L381.584 19.5359V26.0159Z" fill="#C92020"/>
<path d="M395.031 30.1119C394.082 30.1119 393.25 29.9253 392.535 29.5519C391.831 29.1679 391.282 28.6453 390.887 27.9839C390.503 27.3226 390.311 26.5706 390.311 25.7279C390.311 24.8746 390.498 24.1226 390.871 23.4719C391.255 22.8106 391.778 22.2933 392.439 21.9199C393.111 21.5466 393.874 21.3599 394.727 21.3599C395.559 21.3599 396.3 21.5413 396.951 21.9039C397.602 22.2666 398.114 22.7786 398.487 23.4399C398.86 24.1013 399.047 24.8799 399.047 25.7759C399.047 25.8613 399.042 25.9573 399.031 26.0639C399.031 26.1706 399.026 26.2719 399.015 26.3679H391.895V25.0399H397.959L397.175 25.4559C397.186 24.9653 397.084 24.5333 396.871 24.1599C396.658 23.7866 396.364 23.4933 395.991 23.2799C395.628 23.0666 395.207 22.9599 394.727 22.9599C394.236 22.9599 393.804 23.0666 393.431 23.2799C393.068 23.4933 392.78 23.7919 392.567 24.1759C392.364 24.5493 392.263 24.9919 392.263 25.5039V25.8239C392.263 26.3359 392.38 26.7893 392.615 27.1839C392.85 27.5786 393.18 27.8826 393.607 28.0959C394.034 28.3093 394.524 28.4159 395.079 28.4159C395.559 28.4159 395.991 28.3413 396.375 28.1919C396.759 28.0426 397.1 27.8079 397.399 27.4879L398.471 28.7199C398.087 29.1679 397.602 29.5146 397.015 29.7599C396.439 29.9946 395.778 30.1119 395.031 30.1119Z" fill="#C92020"/>
<path d="M403.084 29.9999L399.42 21.4559H401.5L404.652 28.9919H403.628L406.892 21.4559H408.812L405.148 29.9999H403.084Z" fill="#C92020"/>
<path d="M410.062 29.9999V21.4559H412.062V29.9999H410.062ZM411.07 20.0479C410.697 20.0479 410.387 19.9306 410.142 19.6959C409.907 19.4613 409.79 19.1786 409.79 18.8479C409.79 18.5066 409.907 18.2239 410.142 17.9999C410.387 17.7653 410.697 17.6479 411.07 17.6479C411.443 17.6479 411.747 17.7599 411.982 17.9839C412.227 18.1973 412.35 18.4693 412.35 18.7999C412.35 19.1519 412.233 19.4506 411.998 19.6959C411.763 19.9306 411.454 20.0479 411.07 20.0479Z" fill="#C92020"/>
<path d="M418.703 30.1119C417.754 30.1119 416.922 29.9253 416.207 29.5519C415.503 29.1679 414.954 28.6453 414.559 27.9839C414.175 27.3226 413.983 26.5706 413.983 25.7279C413.983 24.8746 414.17 24.1226 414.543 23.4719C414.927 22.8106 415.45 22.2933 416.111 21.9199C416.783 21.5466 417.546 21.3599 418.399 21.3599C419.231 21.3599 419.972 21.5413 420.623 21.9039C421.274 22.2666 421.786 22.7786 422.159 23.4399C422.532 24.1013 422.719 24.8799 422.719 25.7759C422.719 25.8613 422.714 25.9573 422.703 26.0639C422.703 26.1706 422.698 26.2719 422.687 26.3679H415.567V25.0399H421.631L420.847 25.4559C420.858 24.9653 420.756 24.5333 420.543 24.1599C420.33 23.7866 420.036 23.4933 419.663 23.2799C419.3 23.0666 418.879 22.9599 418.399 22.9599C417.908 22.9599 417.476 23.0666 417.103 23.2799C416.74 23.4933 416.452 23.7919 416.239 24.1759C416.036 24.5493 415.935 24.9919 415.935 25.5039V25.8239C415.935 26.3359 416.052 26.7893 416.287 27.1839C416.522 27.5786 416.852 27.8826 417.279 28.0959C417.706 28.3093 418.196 28.4159 418.751 28.4159C419.231 28.4159 419.663 28.3413 420.047 28.1919C420.431 28.0426 420.772 27.8079 421.071 27.4879L422.143 28.7199C421.759 29.1679 421.274 29.5146 420.687 29.7599C420.111 29.9946 419.45 30.1119 418.703 30.1119Z" fill="#C92020"/>
<path d="M426.372 29.9999L423.236 21.4559H425.124L427.812 28.9919H426.916L429.732 21.4559H431.412L434.148 28.9919H433.268L436.036 21.4559H437.812L434.66 29.9999H432.74L430.244 23.3279H430.836L428.292 29.9999H426.372Z" fill="#C92020"/>
<path d="M441.718 30.1119C441.003 30.1119 440.315 30.0213 439.654 29.8399C439.003 29.6479 438.486 29.4186 438.102 29.1519L438.87 27.6319C439.254 27.8773 439.712 28.0799 440.246 28.2399C440.779 28.3999 441.312 28.4799 441.846 28.4799C442.475 28.4799 442.928 28.3946 443.206 28.2239C443.494 28.0533 443.638 27.8239 443.638 27.5359C443.638 27.3013 443.542 27.1253 443.35 27.0079C443.158 26.8799 442.907 26.7839 442.598 26.7199C442.288 26.6559 441.942 26.5973 441.558 26.5439C441.184 26.4906 440.806 26.4213 440.422 26.3359C440.048 26.2399 439.707 26.1066 439.398 25.9359C439.088 25.7546 438.838 25.5146 438.646 25.2159C438.454 24.9173 438.358 24.5226 438.358 24.0319C438.358 23.4879 438.512 23.0186 438.822 22.6239C439.131 22.2186 439.563 21.9093 440.118 21.6959C440.683 21.4719 441.35 21.3599 442.118 21.3599C442.694 21.3599 443.275 21.4239 443.862 21.5519C444.448 21.6799 444.934 21.8613 445.318 22.0959L444.55 23.6159C444.144 23.3706 443.734 23.2053 443.318 23.1199C442.912 23.0239 442.507 22.9759 442.102 22.9759C441.494 22.9759 441.04 23.0666 440.742 23.2479C440.454 23.4293 440.31 23.6586 440.31 23.9359C440.31 24.1919 440.406 24.3839 440.598 24.5119C440.79 24.6399 441.04 24.7413 441.35 24.8159C441.659 24.8906 442 24.9546 442.374 25.0079C442.758 25.0506 443.136 25.1199 443.51 25.2159C443.883 25.3119 444.224 25.4453 444.534 25.6159C444.854 25.7759 445.11 26.0053 445.302 26.3039C445.494 26.6026 445.59 26.9919 445.59 27.4719C445.59 28.0053 445.43 28.4693 445.11 28.8639C444.8 29.2586 444.358 29.5679 443.782 29.7919C443.206 30.0053 442.518 30.1119 441.718 30.1119Z" fill="#C92020"/>
<path d="M486 26C486 27.6569 484.657 29 483 29C481.343 29 480 27.6569 480 26C480 24.3431 481.343 23 483 23C484.657 23 486 24.3431 486 26Z" fill="#483332"/>
<path d="M341 26C341 27.6569 339.657 29 338 29C336.343 29 335 27.6569 335 26C335 24.3431 336.343 23 338 23C339.657 23 341 24.3431 341 26Z" fill="#483332"/>
</svg>
