<svg width="30" height="27" viewBox="0 0 30 27" fill="none" xmlns="http://www.w3.org/2000/svg">
<path d="M26.05 3.70014C25.4116 3.02322 24.6535 2.48624 23.8192 2.11987C22.9849 1.75351 22.0906 1.56494 21.1875 1.56494C20.2844 1.56494 19.3902 1.75351 18.5558 2.11987C17.7215 2.48624 16.9635 3.02322 16.325 3.70014L15 5.10433L13.675 3.70014C12.3854 2.33345 10.6363 1.56565 8.81253 1.56565C6.98874 1.56565 5.23964 2.33345 3.95003 3.70014C2.66041 5.06683 1.93591 6.92046 1.93591 8.85326C1.93591 10.7861 2.66041 12.6397 3.95003 14.0064L5.27503 15.4106L15 25.7168L24.725 15.4106L26.05 14.0064C26.6888 13.3298 27.1955 12.5264 27.5412 11.6422C27.8869 10.7581 28.0648 9.81034 28.0648 8.85326C28.0648 7.89617 27.8869 6.94846 27.5412 6.06428C27.1955 5.18009 26.6888 4.37674 26.05 3.70014V3.70014Z" stroke="#9A9A9A" stroke-width="2.5" stroke-linecap="round" stroke-linejoin="round"/>
</svg>
