<svg width="30" height="28" viewBox="0 0 30 28" fill="none" xmlns="http://www.w3.org/2000/svg">
<path d="M26.05 4.2781C25.4116 3.6017 24.6535 3.06512 23.8192 2.69904C22.9849 2.33296 22.0906 2.14453 21.1875 2.14453C20.2844 2.14453 19.3902 2.33296 18.5558 2.69904C17.7215 3.06512 16.9635 3.6017 16.325 4.2781L15 5.68122L13.675 4.2781C12.3854 2.91245 10.6363 2.14524 8.81253 2.14524C6.98874 2.14524 5.23964 2.91245 3.95003 4.2781C2.66041 5.64375 1.93591 7.49596 1.93591 9.42728C1.93591 11.3586 2.66041 13.2108 3.95003 14.5765L5.27503 15.9796L15 26.2779L24.725 15.9796L26.05 14.5765C26.6888 13.9004 27.1955 13.0976 27.5412 12.2141C27.8869 11.3306 28.0648 10.3836 28.0648 9.42728C28.0648 8.47092 27.8869 7.52394 27.5412 6.64043C27.1955 5.75691 26.6888 4.95418 26.05 4.2781V4.2781Z" stroke="#9A9A9A" stroke-width="2.5" stroke-linecap="round" stroke-linejoin="round"/>
</svg>
