<svg width="30" height="28" viewBox="0 0 30 28" fill="none" xmlns="http://www.w3.org/2000/svg">
<path d="M26.05 4.10232C25.4116 3.42591 24.6535 2.88934 23.8192 2.52326C22.9849 2.15717 22.0906 1.96875 21.1875 1.96875C20.2844 1.96875 19.3902 2.15717 18.5558 2.52326C17.7215 2.88934 16.9635 3.42591 16.325 4.10232L15 5.50543L13.675 4.10232C12.3854 2.73667 10.6363 1.96946 8.81253 1.96946C6.98874 1.96946 5.23964 2.73667 3.95003 4.10232C2.66041 5.46796 1.93591 7.32018 1.93591 9.25149C1.93591 11.1828 2.66041 13.035 3.95003 14.4007L5.27503 15.8038L15 26.1021L24.725 15.8038L26.05 14.4007C26.6888 13.7246 27.1955 12.9219 27.5412 12.0383C27.8869 11.1548 28.0648 10.2078 28.0648 9.25149C28.0648 8.29514 27.8869 7.34816 27.5412 6.46464C27.1955 5.58113 26.6888 4.7784 26.05 4.10232V4.10232Z" stroke="#9A9A9A" stroke-width="2.5" stroke-linecap="round" stroke-linejoin="round"/>
</svg>
