<svg width="30" height="27" viewBox="0 0 30 27" fill="none" xmlns="http://www.w3.org/2000/svg">
<path fill-rule="evenodd" clip-rule="evenodd" d="M17.8914 1.5749C18.8774 1.16634 19.9343 0.956055 21.0016 0.956055C22.0689 0.956055 23.1258 1.16634 24.1118 1.5749C25.0976 1.98338 25.9933 2.58206 26.7478 3.33675C27.5027 4.09127 28.1015 4.98713 28.51 5.97315C28.9186 6.95917 29.1289 8.01602 29.1289 9.08334C29.1289 10.1506 28.9186 11.2075 28.51 12.1935C28.1015 13.1794 27.5028 14.0752 26.748 14.8297C26.7479 14.8298 26.7481 14.8297 26.748 14.8297L15.698 25.8797C15.2098 26.3679 14.4184 26.3679 13.9302 25.8797L2.88023 14.8297C1.35619 13.3057 0.5 11.2386 0.5 9.08334C0.5 6.92802 1.35619 4.86099 2.88023 3.33695C4.40427 1.81292 6.4713 0.956723 8.62661 0.956723C10.7819 0.956723 12.849 1.81292 14.373 3.33695L14.8141 3.77807L15.255 3.33716C15.255 3.33723 15.2551 3.33709 15.255 3.33716C16.0095 2.58238 16.9055 1.98342 17.8914 1.5749ZM21.0016 3.45605C20.2627 3.45605 19.531 3.60164 18.8484 3.88448C18.1658 4.16733 17.5456 4.5819 17.0232 5.10451L15.698 6.42972C15.2098 6.91788 14.4184 6.91788 13.9302 6.42972L12.6052 5.10472C11.55 4.04953 10.1189 3.45672 8.62661 3.45672C7.13434 3.45672 5.70319 4.04953 4.648 5.10472C3.5928 6.15991 3 7.59107 3 9.08334C3 10.5756 3.5928 12.0068 4.648 13.062L14.8141 23.2281L24.9802 13.062C25.5028 12.5396 25.9176 11.9192 26.2005 11.2365C26.4833 10.5539 26.6289 9.82224 26.6289 9.08334C26.6289 8.34443 26.4833 7.61276 26.2005 6.93013C25.9176 6.2475 25.503 5.62729 24.9804 5.10493C24.4581 4.58232 23.8374 4.16733 23.1548 3.88448C22.4722 3.60164 21.7405 3.45605 21.0016 3.45605Z" fill="#9A9A9A"/>
</svg>
