<svg width="162" height="15" viewBox="0 0 162 15" fill="none" xmlns="http://www.w3.org/2000/svg">
<path d="M0.493896 14V1.4H6.2179C7.5859 1.4 8.7919 1.664 9.8359 2.192C10.8799 2.708 11.6959 3.434 12.2839 4.37C12.8719 5.306 13.1659 6.416 13.1659 7.7C13.1659 8.972 12.8719 10.082 12.2839 11.03C11.6959 11.966 10.8799 12.698 9.8359 13.226C8.7919 13.742 7.5859 14 6.2179 14H0.493896ZM3.4099 11.606H6.0739C6.9139 11.606 7.6399 11.45 8.2519 11.138C8.8759 10.814 9.3559 10.358 9.6919 9.77C10.0399 9.182 10.2139 8.492 10.2139 7.7C10.2139 6.896 10.0399 6.206 9.6919 5.63C9.3559 5.042 8.8759 4.592 8.2519 4.28C7.6399 3.956 6.9139 3.794 6.0739 3.794H3.4099V11.606Z" fill="white"/>
<path d="M19.775 14.144C18.743 14.144 17.825 13.928 17.021 13.496C16.229 13.064 15.599 12.476 15.131 11.732C14.675 10.976 14.447 10.118 14.447 9.158C14.447 8.186 14.675 7.328 15.131 6.584C15.599 5.828 16.229 5.24 17.021 4.82C17.825 4.388 18.743 4.172 19.775 4.172C20.795 4.172 21.707 4.388 22.511 4.82C23.315 5.24 23.945 5.822 24.401 6.566C24.857 7.31 25.085 8.174 25.085 9.158C25.085 10.118 24.857 10.976 24.401 11.732C23.945 12.476 23.315 13.064 22.511 13.496C21.707 13.928 20.795 14.144 19.775 14.144ZM19.775 11.84C20.243 11.84 20.663 11.732 21.035 11.516C21.407 11.3 21.701 10.994 21.917 10.598C22.133 10.19 22.241 9.71 22.241 9.158C22.241 8.594 22.133 8.114 21.917 7.718C21.701 7.322 21.407 7.016 21.035 6.8C20.663 6.584 20.243 6.476 19.775 6.476C19.307 6.476 18.887 6.584 18.515 6.8C18.143 7.016 17.843 7.322 17.615 7.718C17.399 8.114 17.291 8.594 17.291 9.158C17.291 9.71 17.399 10.19 17.615 10.598C17.843 10.994 18.143 11.3 18.515 11.516C18.887 11.732 19.307 11.84 19.775 11.84Z" fill="white"/>
<path d="M32.8479 4.172C33.6159 4.172 34.2999 4.328 34.8999 4.64C35.5119 4.94 35.9919 5.408 36.3399 6.044C36.6879 6.668 36.8619 7.472 36.8619 8.456V14H34.0539V8.888C34.0539 8.108 33.8799 7.532 33.5319 7.16C33.1959 6.788 32.7159 6.602 32.0919 6.602C31.6479 6.602 31.2459 6.698 30.8859 6.89C30.5379 7.07 30.2619 7.352 30.0579 7.736C29.8659 8.12 29.7699 8.612 29.7699 9.212V14H26.9619V4.316H29.6439V6.998L29.1399 6.188C29.4879 5.54 29.9859 5.042 30.6339 4.694C31.2819 4.346 32.0199 4.172 32.8479 4.172Z" fill="white"/>
<path d="M43.0469 14L48.6629 1.4H51.5429L57.1769 14H54.1169L49.5089 2.876H50.6609L46.0349 14H43.0469ZM45.8549 11.3L46.6289 9.086H53.1089L53.9009 11.3H45.8549Z" fill="white"/>
<path d="M58.2861 14V0.644H61.0941V14H58.2861Z" fill="white"/>
<path d="M64.0422 14V4.1C64.0422 3.008 64.3662 2.138 65.0142 1.49C65.6622 0.83 66.5862 0.5 67.7862 0.5C68.1942 0.5 68.5842 0.542 68.9562 0.626C69.3402 0.71 69.6642 0.842 69.9282 1.022L69.1902 3.056C69.0342 2.948 68.8602 2.864 68.6682 2.804C68.4762 2.744 68.2722 2.714 68.0562 2.714C67.6482 2.714 67.3302 2.834 67.1022 3.074C66.8862 3.302 66.7782 3.65 66.7782 4.118V5.018L66.8502 6.224V14H64.0422ZM62.5482 6.692V4.532H69.2622V6.692H62.5482Z" fill="white"/>
<path d="M75.1461 14.144C74.1141 14.144 73.1961 13.928 72.3921 13.496C71.6001 13.064 70.9701 12.476 70.5021 11.732C70.0461 10.976 69.8181 10.118 69.8181 9.158C69.8181 8.186 70.0461 7.328 70.5021 6.584C70.9701 5.828 71.6001 5.24 72.3921 4.82C73.1961 4.388 74.1141 4.172 75.1461 4.172C76.1661 4.172 77.0781 4.388 77.8821 4.82C78.6861 5.24 79.3161 5.822 79.7721 6.566C80.2281 7.31 80.4561 8.174 80.4561 9.158C80.4561 10.118 80.2281 10.976 79.7721 11.732C79.3161 12.476 78.6861 13.064 77.8821 13.496C77.0781 13.928 76.1661 14.144 75.1461 14.144ZM75.1461 11.84C75.6141 11.84 76.0341 11.732 76.4061 11.516C76.7781 11.3 77.0721 10.994 77.2881 10.598C77.5041 10.19 77.6121 9.71 77.6121 9.158C77.6121 8.594 77.5041 8.114 77.2881 7.718C77.0721 7.322 76.7781 7.016 76.4061 6.8C76.0341 6.584 75.6141 6.476 75.1461 6.476C74.6781 6.476 74.2581 6.584 73.8861 6.8C73.5141 7.016 73.2141 7.322 72.9861 7.718C72.7701 8.114 72.6621 8.594 72.6621 9.158C72.6621 9.71 72.7701 10.19 72.9861 10.598C73.2141 10.994 73.5141 11.3 73.8861 11.516C74.2581 11.732 74.6781 11.84 75.1461 11.84Z" fill="white"/>
<path d="M88.219 4.172C88.987 4.172 89.671 4.328 90.271 4.64C90.883 4.94 91.363 5.408 91.711 6.044C92.059 6.668 92.233 7.472 92.233 8.456V14H89.425V8.888C89.425 8.108 89.251 7.532 88.903 7.16C88.567 6.788 88.087 6.602 87.463 6.602C87.019 6.602 86.617 6.698 86.257 6.89C85.909 7.07 85.633 7.352 85.429 7.736C85.237 8.12 85.141 8.612 85.141 9.212V14H82.333V4.316H85.015V6.998L84.511 6.188C84.859 5.54 85.357 5.042 86.005 4.694C86.653 4.346 87.391 4.172 88.219 4.172Z" fill="white"/>
<path d="M98.0363 14.144C97.2083 14.144 96.4103 14.048 95.6423 13.856C94.8863 13.652 94.2863 13.4 93.8423 13.1L94.7783 11.084C95.2223 11.36 95.7443 11.588 96.3443 11.768C96.9563 11.936 97.5563 12.02 98.1443 12.02C98.7923 12.02 99.2483 11.942 99.5123 11.786C99.7883 11.63 99.9263 11.414 99.9263 11.138C99.9263 10.91 99.8183 10.742 99.6023 10.634C99.3983 10.514 99.1223 10.424 98.7743 10.364C98.4263 10.304 98.0423 10.244 97.6223 10.184C97.2143 10.124 96.8003 10.046 96.3803 9.95C95.9603 9.842 95.5763 9.686 95.2283 9.482C94.8803 9.278 94.5983 9.002 94.3823 8.654C94.1783 8.306 94.0763 7.856 94.0763 7.304C94.0763 6.692 94.2503 6.152 94.5983 5.684C94.9583 5.216 95.4743 4.85 96.1463 4.586C96.8183 4.31 97.6223 4.172 98.5583 4.172C99.2183 4.172 99.8903 4.244 100.574 4.388C101.258 4.532 101.828 4.742 102.284 5.018L101.348 7.016C100.88 6.74 100.406 6.554 99.9263 6.458C99.4583 6.35 99.0023 6.296 98.5583 6.296C97.9343 6.296 97.4783 6.38 97.1903 6.548C96.9023 6.716 96.7583 6.932 96.7583 7.196C96.7583 7.436 96.8603 7.616 97.0643 7.736C97.2803 7.856 97.5623 7.952 97.9103 8.024C98.2583 8.096 98.6363 8.162 99.0443 8.222C99.4643 8.27 99.8843 8.348 100.304 8.456C100.724 8.564 101.102 8.72 101.438 8.924C101.786 9.116 102.068 9.386 102.284 9.734C102.5 10.07 102.608 10.514 102.608 11.066C102.608 11.666 102.428 12.2 102.068 12.668C101.708 13.124 101.186 13.484 100.502 13.748C99.8303 14.012 99.0083 14.144 98.0363 14.144Z" fill="white"/>
<path d="M108.949 14.144C107.917 14.144 106.999 13.928 106.195 13.496C105.403 13.064 104.773 12.476 104.305 11.732C103.849 10.976 103.621 10.118 103.621 9.158C103.621 8.186 103.849 7.328 104.305 6.584C104.773 5.828 105.403 5.24 106.195 4.82C106.999 4.388 107.917 4.172 108.949 4.172C109.969 4.172 110.881 4.388 111.685 4.82C112.489 5.24 113.119 5.822 113.575 6.566C114.031 7.31 114.259 8.174 114.259 9.158C114.259 10.118 114.031 10.976 113.575 11.732C113.119 12.476 112.489 13.064 111.685 13.496C110.881 13.928 109.969 14.144 108.949 14.144ZM108.949 11.84C109.417 11.84 109.837 11.732 110.209 11.516C110.581 11.3 110.875 10.994 111.091 10.598C111.307 10.19 111.415 9.71 111.415 9.158C111.415 8.594 111.307 8.114 111.091 7.718C110.875 7.322 110.581 7.016 110.209 6.8C109.837 6.584 109.417 6.476 108.949 6.476C108.481 6.476 108.061 6.584 107.689 6.8C107.317 7.016 107.017 7.322 106.789 7.718C106.573 8.114 106.465 8.594 106.465 9.158C106.465 9.71 106.573 10.19 106.789 10.598C107.017 10.994 107.317 11.3 107.689 11.516C108.061 11.732 108.481 11.84 108.949 11.84Z" fill="white"/>
<path d="M122.583 14V2.48L123.843 3.74H120.063V1.4H125.499V14H122.583Z" fill="white"/>
<path d="M132.116 1.184C133.28 1.184 134.282 1.424 135.122 1.904C135.962 2.384 136.61 3.086 137.066 4.01C137.522 4.922 137.75 6.062 137.75 7.43C137.75 8.882 137.474 10.112 136.922 11.12C136.382 12.128 135.632 12.896 134.672 13.424C133.712 13.952 132.596 14.216 131.324 14.216C130.664 14.216 130.028 14.144 129.416 14C128.804 13.856 128.276 13.64 127.832 13.352L128.912 11.21C129.26 11.45 129.632 11.618 130.028 11.714C130.424 11.798 130.838 11.84 131.27 11.84C132.35 11.84 133.208 11.51 133.844 10.85C134.492 10.19 134.816 9.212 134.816 7.916C134.816 7.7 134.81 7.46 134.798 7.196C134.786 6.932 134.756 6.668 134.708 6.404L135.5 7.16C135.296 7.628 135.008 8.024 134.636 8.348C134.264 8.66 133.832 8.9 133.34 9.068C132.848 9.224 132.296 9.302 131.684 9.302C130.88 9.302 130.148 9.14 129.488 8.816C128.84 8.492 128.318 8.036 127.922 7.448C127.538 6.86 127.346 6.17 127.346 5.378C127.346 4.514 127.556 3.77 127.976 3.146C128.408 2.522 128.984 2.042 129.704 1.706C130.436 1.358 131.24 1.184 132.116 1.184ZM132.296 3.362C131.876 3.362 131.51 3.44 131.198 3.596C130.886 3.74 130.64 3.956 130.46 4.244C130.28 4.52 130.19 4.85 130.19 5.234C130.19 5.81 130.382 6.272 130.766 6.62C131.162 6.956 131.684 7.124 132.332 7.124C132.752 7.124 133.124 7.046 133.448 6.89C133.784 6.722 134.042 6.494 134.222 6.206C134.402 5.918 134.492 5.594 134.492 5.234C134.492 4.874 134.402 4.556 134.222 4.28C134.054 3.992 133.808 3.77 133.484 3.614C133.16 3.446 132.764 3.362 132.296 3.362Z" fill="white"/>
<path d="M144.369 14.216C143.313 14.216 142.389 14.06 141.597 13.748C140.805 13.424 140.187 12.974 139.743 12.398C139.299 11.81 139.077 11.126 139.077 10.346C139.077 9.566 139.293 8.906 139.725 8.366C140.169 7.814 140.787 7.4 141.579 7.124C142.371 6.836 143.301 6.692 144.369 6.692C145.449 6.692 146.385 6.836 147.177 7.124C147.981 7.4 148.599 7.814 149.031 8.366C149.475 8.906 149.697 9.566 149.697 10.346C149.697 11.126 149.475 11.81 149.031 12.398C148.587 12.974 147.963 13.424 147.159 13.748C146.367 14.06 145.437 14.216 144.369 14.216ZM144.369 12.074C145.101 12.074 145.677 11.912 146.097 11.588C146.529 11.264 146.745 10.82 146.745 10.256C146.745 9.692 146.529 9.254 146.097 8.942C145.677 8.618 145.101 8.456 144.369 8.456C143.649 8.456 143.079 8.618 142.659 8.942C142.239 9.254 142.029 9.692 142.029 10.256C142.029 10.82 142.239 11.264 142.659 11.588C143.079 11.912 143.649 12.074 144.369 12.074ZM144.369 8.168C143.397 8.168 142.545 8.036 141.813 7.772C141.093 7.508 140.529 7.124 140.121 6.62C139.725 6.104 139.527 5.492 139.527 4.784C139.527 4.04 139.731 3.404 140.139 2.876C140.547 2.336 141.117 1.922 141.849 1.634C142.581 1.334 143.421 1.184 144.369 1.184C145.341 1.184 146.187 1.334 146.907 1.634C147.639 1.922 148.209 2.336 148.617 2.876C149.037 3.404 149.247 4.04 149.247 4.784C149.247 5.492 149.043 6.104 148.635 6.62C148.239 7.124 147.675 7.508 146.943 7.772C146.211 8.036 145.353 8.168 144.369 8.168ZM144.369 6.458C144.981 6.458 145.461 6.32 145.809 6.044C146.169 5.768 146.349 5.39 146.349 4.91C146.349 4.406 146.163 4.016 145.791 3.74C145.431 3.464 144.957 3.326 144.369 3.326C143.793 3.326 143.325 3.464 142.965 3.74C142.605 4.016 142.425 4.406 142.425 4.91C142.425 5.39 142.599 5.768 142.947 6.044C143.295 6.32 143.769 6.458 144.369 6.458Z" fill="white"/>
<path d="M156.432 14.216C155.4 14.216 154.476 13.964 153.66 13.46C152.844 12.944 152.202 12.2 151.734 11.228C151.266 10.256 151.032 9.08 151.032 7.7C151.032 6.32 151.266 5.144 151.734 4.172C152.202 3.2 152.844 2.462 153.66 1.958C154.476 1.442 155.4 1.184 156.432 1.184C157.476 1.184 158.4 1.442 159.204 1.958C160.02 2.462 160.662 3.2 161.13 4.172C161.598 5.144 161.832 6.32 161.832 7.7C161.832 9.08 161.598 10.256 161.13 11.228C160.662 12.2 160.02 12.944 159.204 13.46C158.4 13.964 157.476 14.216 156.432 14.216ZM156.432 11.75C156.924 11.75 157.35 11.612 157.71 11.336C158.082 11.06 158.37 10.622 158.574 10.022C158.79 9.422 158.898 8.648 158.898 7.7C158.898 6.752 158.79 5.978 158.574 5.378C158.37 4.778 158.082 4.34 157.71 4.064C157.35 3.788 156.924 3.65 156.432 3.65C155.952 3.65 155.526 3.788 155.154 4.064C154.794 4.34 154.506 4.778 154.29 5.378C154.086 5.978 153.984 6.752 153.984 7.7C153.984 8.648 154.086 9.422 154.29 10.022C154.506 10.622 154.794 11.06 155.154 11.336C155.526 11.612 155.952 11.75 156.432 11.75Z" fill="white"/>
</svg>
