<svg width="456" height="31" viewBox="0 0 456 31" fill="none" xmlns="http://www.w3.org/2000/svg">
<path d="M2.72998 0.611894L1.91798 3.71989L1.69398 2.66989C2.02065 2.66989 2.29132 2.77256 2.50598 2.97789C2.72065 3.18323 2.82798 3.45856 2.82798 3.80389C2.82798 4.14923 2.72065 4.42923 2.50598 4.64389C2.29132 4.84923 2.02532 4.95189 1.70798 4.95189C1.37198 4.95189 1.09665 4.84456 0.881982 4.62989C0.667316 4.41523 0.559982 4.13989 0.559982 3.80389C0.559982 3.69189 0.564649 3.58923 0.573982 3.49589C0.592649 3.39323 0.625316 3.27189 0.671982 3.13189C0.718649 2.99189 0.783982 2.81456 0.867982 2.59989L1.60998 0.611894H2.72998ZM5.69798 0.611894L4.88598 3.71989L4.66198 2.66989C4.98865 2.66989 5.25932 2.77256 5.47398 2.97789C5.68865 3.18323 5.79598 3.45856 5.79598 3.80389C5.79598 4.14923 5.68865 4.42923 5.47398 4.64389C5.25932 4.84923 4.99332 4.95189 4.67598 4.95189C4.33998 4.95189 4.06465 4.84456 3.84998 4.62989C3.63532 4.41523 3.52798 4.13989 3.52798 3.80389C3.52798 3.69189 3.53265 3.58923 3.54198 3.49589C3.56065 3.39323 3.59332 3.27189 3.63998 3.13189C3.68665 2.99189 3.75198 2.81456 3.83598 2.59989L4.57798 0.611894H5.69798Z" fill="black"/>
<path d="M7.70075 10.9999V1.19989H9.52075V10.9999H7.70075Z" fill="black"/>
<path d="M20.1146 3.43989C20.7119 3.43989 21.2439 3.55656 21.7106 3.78989C22.1866 4.02323 22.5599 4.38256 22.8306 4.86789C23.1013 5.34389 23.2366 5.95989 23.2366 6.71589V10.9999H21.4866V6.93989C21.4866 6.27723 21.3279 5.78256 21.0106 5.45589C20.7026 5.12923 20.2686 4.96589 19.7086 4.96589C19.2979 4.96589 18.9339 5.04989 18.6166 5.21789C18.2993 5.38589 18.0519 5.63789 17.8746 5.97389C17.7066 6.30056 17.6226 6.7159 17.6226 7.21989V10.9999H15.8726V0.611894H17.6226V5.53989L17.2446 4.92389C17.5059 4.44789 17.8839 4.08389 18.3786 3.83189C18.8826 3.57056 19.4613 3.43989 20.1146 3.43989Z" fill="black"/>
<path d="M30.0626 10.9999V9.48789L29.9646 9.16589V6.51989C29.9646 6.00656 29.8106 5.60989 29.5026 5.32989C29.1946 5.04056 28.7279 4.89589 28.1026 4.89589C27.6826 4.89589 27.2672 4.96123 26.8566 5.09189C26.4552 5.22256 26.1146 5.40456 25.8346 5.63789L25.1486 4.36389C25.5499 4.05589 26.0259 3.82723 26.5766 3.67789C27.1366 3.51923 27.7152 3.43989 28.3126 3.43989C29.3952 3.43989 30.2306 3.70123 30.8186 4.22389C31.4159 4.73723 31.7146 5.53523 31.7146 6.61789V10.9999H30.0626ZM27.7106 11.0979C27.1506 11.0979 26.6606 11.0046 26.2406 10.8179C25.8206 10.6219 25.4939 10.3559 25.2606 10.0199C25.0366 9.67456 24.9246 9.28723 24.9246 8.85789C24.9246 8.43789 25.0226 8.05989 25.2186 7.72389C25.4239 7.38789 25.7552 7.12189 26.2126 6.92589C26.6699 6.72989 27.2766 6.63189 28.0326 6.63189H30.2026V7.79389H28.1586C27.5612 7.79389 27.1599 7.89189 26.9546 8.08789C26.7492 8.27456 26.6466 8.5079 26.6466 8.7879C26.6466 9.10523 26.7726 9.35723 27.0246 9.54389C27.2766 9.73056 27.6266 9.82389 28.0746 9.82389C28.5039 9.82389 28.8866 9.72589 29.2226 9.52989C29.5679 9.33389 29.8152 9.04456 29.9646 8.66189L30.2586 9.71189C30.0906 10.1506 29.7872 10.4912 29.3486 10.7339C28.9192 10.9766 28.3732 11.0979 27.7106 11.0979Z" fill="black"/>
<path d="M35.8118 10.9999L32.6058 3.52389H34.4258L37.1838 10.1179H36.2878L39.1438 3.52389H40.8238L37.6178 10.9999H35.8118Z" fill="black"/>
<path d="M45.2264 11.0979C44.3958 11.0979 43.6678 10.9346 43.0424 10.6079C42.4264 10.2719 41.9458 9.81456 41.6004 9.2359C41.2644 8.65723 41.0964 7.99923 41.0964 7.26189C41.0964 6.51523 41.2598 5.85723 41.5864 5.28789C41.9224 4.70923 42.3798 4.25656 42.9584 3.92989C43.5464 3.60323 44.2138 3.43989 44.9604 3.43989C45.6884 3.43989 46.3371 3.59856 46.9064 3.91589C47.4758 4.23323 47.9238 4.68123 48.2504 5.25989C48.5771 5.83856 48.7404 6.51989 48.7404 7.30389C48.7404 7.37856 48.7358 7.46256 48.7264 7.55589C48.7264 7.64923 48.7218 7.73789 48.7124 7.82189H42.4824V6.65989H47.7884L47.1024 7.02389C47.1118 6.59456 47.0231 6.21656 46.8364 5.88989C46.6498 5.56323 46.3931 5.30656 46.0664 5.11989C45.7491 4.93323 45.3804 4.83989 44.9604 4.83989C44.5311 4.83989 44.1531 4.93323 43.8264 5.11989C43.5091 5.30656 43.2571 5.56789 43.0704 5.90389C42.8931 6.23056 42.8044 6.61789 42.8044 7.06589V7.34589C42.8044 7.79389 42.9071 8.19056 43.1124 8.53589C43.3178 8.88123 43.6071 9.14723 43.9804 9.33389C44.3538 9.52056 44.7831 9.6139 45.2684 9.6139C45.6884 9.6139 46.0664 9.54856 46.4024 9.41789C46.7384 9.28723 47.0371 9.08189 47.2984 8.8019L48.2364 9.87989C47.9004 10.2719 47.4758 10.5752 46.9624 10.7899C46.4584 10.9952 45.8798 11.0979 45.2264 11.0979Z" fill="black"/>
<path d="M58.4346 11.0979C57.7999 11.0979 57.2352 10.9579 56.7406 10.6779C56.2459 10.3979 55.8539 9.97789 55.5646 9.41789C55.2846 8.84856 55.1446 8.12989 55.1446 7.26189C55.1446 6.38456 55.2892 5.66589 55.5786 5.10589C55.8772 4.54589 56.2739 4.13056 56.7686 3.85989C57.2726 3.57989 57.8279 3.43989 58.4346 3.43989C59.1719 3.43989 59.8206 3.59856 60.3806 3.91589C60.9499 4.23323 61.3979 4.67656 61.7246 5.24589C62.0606 5.81523 62.2286 6.48723 62.2286 7.26189C62.2286 8.03656 62.0606 8.70856 61.7246 9.27789C61.3979 9.84723 60.9499 10.2952 60.3806 10.6219C59.8206 10.9392 59.1719 11.0979 58.4346 11.0979ZM54.2906 10.9999V0.611894H56.0406V5.25989L55.9006 7.24789L55.9566 9.2359V10.9999H54.2906ZM58.2386 9.5999C58.6586 9.5999 59.0319 9.50656 59.3586 9.31989C59.6946 9.13323 59.9606 8.86256 60.1566 8.50789C60.3526 8.15323 60.4506 7.7379 60.4506 7.26189C60.4506 6.77656 60.3526 6.36123 60.1566 6.01589C59.9606 5.66123 59.6946 5.39056 59.3586 5.20389C59.0319 5.01723 58.6586 4.92389 58.2386 4.92389C57.8186 4.92389 57.4406 5.01723 57.1046 5.20389C56.7686 5.39056 56.5026 5.66123 56.3066 6.01589C56.1106 6.36123 56.0126 6.77656 56.0126 7.26189C56.0126 7.7379 56.1106 8.15323 56.3066 8.50789C56.5026 8.86256 56.7686 9.13323 57.1046 9.31989C57.4406 9.50656 57.8186 9.5999 58.2386 9.5999Z" fill="black"/>
<path d="M67.4022 11.0979C66.5716 11.0979 65.8436 10.9346 65.2182 10.6079C64.6022 10.2719 64.1215 9.81456 63.7762 9.2359C63.4402 8.65723 63.2722 7.99923 63.2722 7.26189C63.2722 6.51523 63.4355 5.85723 63.7622 5.28789C64.0982 4.70923 64.5555 4.25656 65.1342 3.92989C65.7222 3.60323 66.3896 3.43989 67.1362 3.43989C67.8642 3.43989 68.5129 3.59856 69.0822 3.91589C69.6516 4.23323 70.0995 4.68123 70.4262 5.25989C70.7529 5.83856 70.9162 6.51989 70.9162 7.30389C70.9162 7.37856 70.9116 7.46256 70.9022 7.55589C70.9022 7.64923 70.8976 7.73789 70.8882 7.82189H64.6582V6.65989H69.9642L69.2782 7.02389C69.2876 6.59456 69.1989 6.21656 69.0122 5.88989C68.8256 5.56323 68.5689 5.30656 68.2422 5.11989C67.9249 4.93323 67.5562 4.83989 67.1362 4.83989C66.7069 4.83989 66.3289 4.93323 66.0022 5.11989C65.6849 5.30656 65.4329 5.56789 65.2462 5.90389C65.0689 6.23056 64.9802 6.61789 64.9802 7.06589V7.34589C64.9802 7.79389 65.0829 8.19056 65.2882 8.53589C65.4935 8.88123 65.7829 9.14723 66.1562 9.33389C66.5296 9.52056 66.9589 9.6139 67.4442 9.6139C67.8642 9.6139 68.2422 9.54856 68.5782 9.41789C68.9142 9.28723 69.2129 9.08189 69.4742 8.8019L70.4122 9.87989C70.0762 10.2719 69.6516 10.5752 69.1382 10.7899C68.6342 10.9952 68.0556 11.0979 67.4022 11.0979Z" fill="black"/>
<path d="M76.1112 11.0979C75.2805 11.0979 74.5525 10.9346 73.9272 10.6079C73.3112 10.2719 72.8305 9.81456 72.4852 9.2359C72.1492 8.65723 71.9812 7.99923 71.9812 7.26189C71.9812 6.51523 72.1445 5.85723 72.4712 5.28789C72.8072 4.70923 73.2645 4.25656 73.8432 3.92989C74.4312 3.60323 75.0985 3.43989 75.8452 3.43989C76.5732 3.43989 77.2219 3.59856 77.7912 3.91589C78.3605 4.23323 78.8085 4.68123 79.1352 5.25989C79.4619 5.83856 79.6252 6.51989 79.6252 7.30389C79.6252 7.37856 79.6205 7.46256 79.6112 7.55589C79.6112 7.64923 79.6065 7.73789 79.5972 7.82189H73.3672V6.65989H78.6732L77.9872 7.02389C77.9965 6.59456 77.9079 6.21656 77.7212 5.88989C77.5345 5.56323 77.2779 5.30656 76.9512 5.11989C76.6339 4.93323 76.2652 4.83989 75.8452 4.83989C75.4159 4.83989 75.0379 4.93323 74.7112 5.11989C74.3939 5.30656 74.1419 5.56789 73.9552 5.90389C73.7779 6.23056 73.6892 6.61789 73.6892 7.06589V7.34589C73.6892 7.79389 73.7919 8.19056 73.9972 8.53589C74.2025 8.88123 74.4919 9.14723 74.8652 9.33389C75.2385 9.52056 75.6679 9.6139 76.1532 9.6139C76.5732 9.6139 76.9512 9.54856 77.2872 9.41789C77.6232 9.28723 77.9219 9.08189 78.1832 8.8019L79.1212 9.87989C78.7852 10.2719 78.3605 10.5752 77.8472 10.7899C77.3432 10.9952 76.7645 11.0979 76.1112 11.0979Z" fill="black"/>
<path d="M85.5482 3.43989C86.1455 3.43989 86.6775 3.55656 87.1442 3.78989C87.6202 4.02323 87.9935 4.38256 88.2642 4.86789C88.5349 5.34389 88.6702 5.95989 88.6702 6.71589V10.9999H86.9202V6.93989C86.9202 6.27723 86.7615 5.78256 86.4442 5.45589C86.1362 5.12923 85.7022 4.96589 85.1422 4.96589C84.7315 4.96589 84.3675 5.04989 84.0502 5.21789C83.7328 5.38589 83.4855 5.63789 83.3082 5.97389C83.1402 6.30056 83.0562 6.7159 83.0562 7.21989V10.9999H81.3062V3.52389H82.9722V5.53989L82.6782 4.92389C82.9395 4.44789 83.3175 4.08389 83.8122 3.83189C84.3162 3.57056 84.8949 3.43989 85.5482 3.43989Z" fill="black"/>
<path d="M97.5733 11.0979C96.752 11.0979 96.1173 10.8879 95.6693 10.4679C95.2213 10.0386 94.9973 9.40856 94.9973 8.57789V1.87189H96.7473V8.53589C96.7473 8.89056 96.836 9.16589 97.0133 9.36189C97.2 9.55789 97.4566 9.6559 97.7833 9.6559C98.1753 9.6559 98.502 9.55323 98.7633 9.34789L99.2533 10.5939C99.048 10.7619 98.796 10.8879 98.4973 10.9719C98.1986 11.0559 97.8906 11.0979 97.5733 11.0979ZM93.7653 4.97989V3.57989H98.7493V4.97989H93.7653Z" fill="black"/>
<path d="M103.807 11.0979C103.041 11.0979 102.36 10.9346 101.763 10.6079C101.165 10.2719 100.694 9.81456 100.349 9.2359C100.003 8.65723 99.8308 7.99923 99.8308 7.26189C99.8308 6.51523 100.003 5.85723 100.349 5.28789C100.694 4.70923 101.165 4.25656 101.763 3.92989C102.36 3.60323 103.041 3.43989 103.807 3.43989C104.581 3.43989 105.267 3.60323 105.865 3.92989C106.471 4.25656 106.943 4.70456 107.279 5.27389C107.624 5.84323 107.797 6.50589 107.797 7.26189C107.797 7.99923 107.624 8.65723 107.279 9.2359C106.943 9.81456 106.471 10.2719 105.865 10.6079C105.267 10.9346 104.581 11.0979 103.807 11.0979ZM103.807 9.5999C104.236 9.5999 104.619 9.50656 104.955 9.31989C105.291 9.13323 105.552 8.86256 105.739 8.50789C105.935 8.15323 106.033 7.7379 106.033 7.26189C106.033 6.77656 105.935 6.36123 105.739 6.01589C105.552 5.66123 105.291 5.39056 104.955 5.20389C104.619 5.01723 104.241 4.92389 103.821 4.92389C103.391 4.92389 103.009 5.01723 102.673 5.20389C102.346 5.39056 102.085 5.66123 101.889 6.01589C101.693 6.36123 101.595 6.77656 101.595 7.26189C101.595 7.7379 101.693 8.15323 101.889 8.50789C102.085 8.86256 102.346 9.13323 102.673 9.31989C103.009 9.50656 103.387 9.5999 103.807 9.5999Z" fill="black"/>
<path d="M113.507 10.9999V1.19989H117.539C118.407 1.19989 119.149 1.33989 119.765 1.61989C120.391 1.89989 120.871 2.30123 121.207 2.82389C121.543 3.34656 121.711 3.96723 121.711 4.68589C121.711 5.40456 121.543 6.02523 121.207 6.54789C120.871 7.06123 120.391 7.45789 119.765 7.73789C119.149 8.00856 118.407 8.14389 117.539 8.14389H114.515L115.327 7.31789V10.9999H113.507ZM119.919 10.9999L117.441 7.44389H119.387L121.879 10.9999H119.919ZM115.327 7.51389L114.515 6.64589H117.455C118.258 6.64589 118.86 6.47323 119.261 6.12789C119.672 5.78256 119.877 5.30189 119.877 4.68589C119.877 4.06056 119.672 3.57989 119.261 3.24389C118.86 2.90789 118.258 2.73989 117.455 2.73989H114.515L115.327 1.84389V7.51389Z" fill="black"/>
<path d="M127.094 11.0979C126.263 11.0979 125.535 10.9346 124.91 10.6079C124.294 10.2719 123.813 9.81456 123.468 9.2359C123.132 8.65723 122.964 7.99923 122.964 7.26189C122.964 6.51523 123.127 5.85723 123.454 5.28789C123.79 4.70923 124.247 4.25656 124.826 3.92989C125.414 3.60323 126.081 3.43989 126.828 3.43989C127.556 3.43989 128.204 3.59856 128.774 3.91589C129.343 4.23323 129.791 4.68123 130.118 5.25989C130.444 5.83856 130.608 6.51989 130.608 7.30389C130.608 7.37856 130.603 7.46256 130.594 7.55589C130.594 7.64923 130.589 7.73789 130.58 7.82189H124.35V6.65989H129.656L128.97 7.02389C128.979 6.59456 128.89 6.21656 128.704 5.88989C128.517 5.56323 128.26 5.30656 127.934 5.11989C127.616 4.93323 127.248 4.83989 126.828 4.83989C126.398 4.83989 126.02 4.93323 125.694 5.11989C125.376 5.30656 125.124 5.56789 124.938 5.90389C124.76 6.23056 124.672 6.61789 124.672 7.06589V7.34589C124.672 7.79389 124.774 8.19056 124.98 8.53589C125.185 8.88123 125.474 9.14723 125.848 9.33389C126.221 9.52056 126.65 9.6139 127.136 9.6139C127.556 9.6139 127.934 9.54856 128.27 9.41789C128.606 9.28723 128.904 9.08189 129.166 8.8019L130.104 9.87989C129.768 10.2719 129.343 10.5752 128.83 10.7899C128.326 10.9952 127.747 11.0979 127.094 11.0979Z" fill="black"/>
<path d="M134.599 11.0979C133.973 11.0979 133.371 11.0186 132.793 10.8599C132.223 10.6919 131.771 10.4912 131.435 10.2579L132.107 8.92789C132.443 9.14256 132.844 9.31989 133.311 9.45989C133.777 9.59989 134.244 9.6699 134.711 9.6699C135.261 9.6699 135.658 9.59523 135.901 9.44589C136.153 9.29656 136.279 9.09589 136.279 8.84389C136.279 8.63856 136.195 8.48456 136.027 8.3819C135.859 8.26989 135.639 8.18589 135.369 8.12989C135.098 8.07389 134.795 8.02256 134.459 7.97589C134.132 7.92923 133.801 7.86856 133.465 7.79389C133.138 7.70989 132.839 7.59323 132.569 7.44389C132.298 7.28523 132.079 7.07523 131.911 6.81389C131.743 6.55256 131.659 6.20723 131.659 5.77789C131.659 5.30189 131.794 4.89123 132.065 4.54589C132.335 4.19123 132.713 3.92056 133.199 3.73389C133.693 3.53789 134.277 3.43989 134.949 3.43989C135.453 3.43989 135.961 3.49589 136.475 3.60789C136.988 3.71989 137.413 3.87856 137.749 4.08389L137.077 5.41389C136.722 5.19923 136.363 5.05456 135.999 4.97989C135.644 4.89589 135.289 4.85389 134.935 4.85389C134.403 4.85389 134.006 4.93323 133.745 5.09189C133.493 5.25056 133.367 5.45123 133.367 5.69389C133.367 5.91789 133.451 6.08589 133.619 6.19789C133.787 6.30989 134.006 6.39856 134.277 6.46389C134.547 6.52923 134.846 6.58523 135.173 6.63189C135.509 6.66923 135.84 6.72989 136.167 6.81389C136.493 6.89789 136.792 7.01456 137.063 7.16389C137.343 7.30389 137.567 7.50456 137.735 7.76589C137.903 8.02723 137.987 8.3679 137.987 8.7879C137.987 9.25456 137.847 9.66056 137.567 10.0059C137.296 10.3512 136.909 10.6219 136.405 10.8179C135.901 11.0046 135.299 11.0979 134.599 11.0979Z" fill="black"/>
<path d="M142.308 11.0979C141.486 11.0979 140.852 10.8879 140.404 10.4679C139.956 10.0386 139.732 9.40856 139.732 8.57789V1.87189H141.482V8.53589C141.482 8.89056 141.57 9.16589 141.748 9.36189C141.934 9.55789 142.191 9.6559 142.518 9.6559C142.91 9.6559 143.236 9.55323 143.498 9.34789L143.988 10.5939C143.782 10.7619 143.53 10.8879 143.232 10.9719C142.933 11.0559 142.625 11.0979 142.308 11.0979ZM138.5 4.97989V3.57989H143.484V4.97989H138.5Z" fill="black"/>
<path d="M150.033 10.9999V9.48789L149.935 9.16589V6.51989C149.935 6.00656 149.781 5.60989 149.473 5.32989C149.165 5.04056 148.699 4.89589 148.073 4.89589C147.653 4.89589 147.238 4.96123 146.827 5.09189C146.426 5.22256 146.085 5.40456 145.805 5.63789L145.119 4.36389C145.521 4.05589 145.997 3.82723 146.547 3.67789C147.107 3.51923 147.686 3.43989 148.283 3.43989C149.366 3.43989 150.201 3.70123 150.789 4.22389C151.387 4.73723 151.685 5.53523 151.685 6.61789V10.9999H150.033ZM147.681 11.0979C147.121 11.0979 146.631 11.0046 146.211 10.8179C145.791 10.6219 145.465 10.3559 145.231 10.0199C145.007 9.67456 144.895 9.28723 144.895 8.85789C144.895 8.43789 144.993 8.05989 145.189 7.72389C145.395 7.38789 145.726 7.12189 146.183 6.92589C146.641 6.72989 147.247 6.63189 148.003 6.63189H150.173V7.79389H148.129C147.532 7.79389 147.131 7.89189 146.925 8.08789C146.72 8.27456 146.617 8.5079 146.617 8.7879C146.617 9.10523 146.743 9.35723 146.995 9.54389C147.247 9.73056 147.597 9.82389 148.045 9.82389C148.475 9.82389 148.857 9.72589 149.193 9.52989C149.539 9.33389 149.786 9.04456 149.935 8.66189L150.229 9.71189C150.061 10.1506 149.758 10.4912 149.319 10.7339C148.89 10.9766 148.344 11.0979 147.681 11.0979Z" fill="black"/>
<path d="M157.095 11.0979C156.461 11.0979 155.901 10.9812 155.415 10.7479C154.93 10.5052 154.552 10.1412 154.281 9.6559C154.011 9.16123 153.875 8.54056 153.875 7.79389V3.52389H155.625V7.55589C155.625 8.22789 155.775 8.73189 156.073 9.06789C156.381 9.39456 156.815 9.55789 157.375 9.55789C157.786 9.55789 158.141 9.4739 158.439 9.30589C158.747 9.13789 158.985 8.88589 159.153 8.54989C159.331 8.21389 159.419 7.79856 159.419 7.30389V3.52389H161.169V10.9999H159.503V8.98389L159.797 9.5999C159.545 10.0852 159.177 10.4586 158.691 10.7199C158.206 10.9719 157.674 11.0979 157.095 11.0979Z" fill="black"/>
<path d="M163.46 10.9999V3.52389H165.126V5.58189L164.93 4.97989C165.154 4.47589 165.504 4.09323 165.98 3.83189C166.466 3.57056 167.068 3.43989 167.786 3.43989V5.10589C167.712 5.08723 167.642 5.07789 167.576 5.07789C167.511 5.06856 167.446 5.06389 167.38 5.06389C166.718 5.06389 166.19 5.25989 165.798 5.65189C165.406 6.03456 165.21 6.60856 165.21 7.37389V10.9999H163.46Z" fill="black"/>
<path d="M173.344 10.9999V9.48789L173.246 9.16589V6.51989C173.246 6.00656 173.092 5.60989 172.784 5.32989C172.476 5.04056 172.009 4.89589 171.384 4.89589C170.964 4.89589 170.548 4.96123 170.138 5.09189C169.736 5.22256 169.396 5.40456 169.116 5.63789L168.43 4.36389C168.831 4.05589 169.307 3.82723 169.858 3.67789C170.418 3.51923 170.996 3.43989 171.594 3.43989C172.676 3.43989 173.512 3.70123 174.1 4.22389C174.697 4.73723 174.996 5.53523 174.996 6.61789V10.9999H173.344ZM170.992 11.0979C170.432 11.0979 169.942 11.0046 169.522 10.8179C169.102 10.6219 168.775 10.3559 168.542 10.0199C168.318 9.67456 168.206 9.28723 168.206 8.85789C168.206 8.43789 168.304 8.05989 168.5 7.72389C168.705 7.38789 169.036 7.12189 169.494 6.92589C169.951 6.72989 170.558 6.63189 171.314 6.63189H173.484V7.79389H171.44C170.842 7.79389 170.441 7.89189 170.236 8.08789C170.03 8.27456 169.928 8.5079 169.928 8.7879C169.928 9.10523 170.054 9.35723 170.306 9.54389C170.558 9.73056 170.908 9.82389 171.356 9.82389C171.785 9.82389 172.168 9.72589 172.504 9.52989C172.849 9.33389 173.096 9.04456 173.246 8.66189L173.54 9.71189C173.372 10.1506 173.068 10.4912 172.63 10.7339C172.2 10.9766 171.654 11.0979 170.992 11.0979Z" fill="black"/>
<path d="M181.484 3.43989C182.081 3.43989 182.613 3.55656 183.08 3.78989C183.556 4.02323 183.929 4.38256 184.2 4.86789C184.47 5.34389 184.606 5.95989 184.606 6.71589V10.9999H182.856V6.93989C182.856 6.27723 182.697 5.78256 182.38 5.45589C182.072 5.12923 181.638 4.96589 181.078 4.96589C180.667 4.96589 180.303 5.04989 179.986 5.21789C179.668 5.38589 179.421 5.63789 179.244 5.97389C179.076 6.30056 178.992 6.7159 178.992 7.21989V10.9999H177.242V3.52389H178.908V5.53989L178.614 4.92389C178.875 4.44789 179.253 4.08389 179.748 3.83189C180.252 3.57056 180.83 3.43989 181.484 3.43989Z" fill="black"/>
<path d="M189.64 11.0979C188.818 11.0979 188.184 10.8879 187.736 10.4679C187.288 10.0386 187.064 9.40856 187.064 8.57789V1.87189H188.814V8.53589C188.814 8.89056 188.902 9.16589 189.08 9.36189C189.266 9.55789 189.523 9.6559 189.85 9.6559C190.242 9.6559 190.568 9.55323 190.83 9.34789L191.32 10.5939C191.114 10.7619 190.862 10.8879 190.564 10.9719C190.265 11.0559 189.957 11.0979 189.64 11.0979ZM185.832 4.97989V3.57989H190.816V4.97989H185.832Z" fill="black"/>
<path d="M195.97 10.9999V9.78189L199.862 6.08589C200.189 5.77789 200.432 5.50723 200.59 5.27389C200.749 5.04056 200.852 4.82589 200.898 4.62989C200.954 4.42456 200.982 4.23323 200.982 4.05589C200.982 3.60789 200.828 3.26256 200.52 3.01989C200.212 2.76789 199.76 2.64189 199.162 2.64189C198.686 2.64189 198.252 2.72589 197.86 2.89389C197.478 3.06189 197.146 3.31856 196.866 3.66389L195.592 2.68389C195.975 2.17056 196.488 1.77389 197.132 1.49389C197.786 1.20456 198.514 1.05989 199.316 1.05989C200.026 1.05989 200.642 1.17656 201.164 1.40989C201.696 1.63389 202.102 1.95589 202.382 2.37589C202.672 2.79589 202.816 3.29523 202.816 3.87389C202.816 4.19123 202.774 4.50856 202.69 4.82589C202.606 5.13389 202.448 5.46056 202.214 5.80589C201.981 6.15123 201.64 6.53856 201.192 6.96789L197.846 10.1459L197.468 9.45989H203.194V10.9999H195.97Z" fill="black"/>
<path d="M218.082 3.43989C218.679 3.43989 219.207 3.55656 219.664 3.78989C220.131 4.02323 220.495 4.38256 220.756 4.86789C221.017 5.34389 221.148 5.95989 221.148 6.71589V10.9999H219.398V6.93989C219.398 6.27723 219.253 5.78256 218.964 5.45589C218.675 5.12923 218.259 4.96589 217.718 4.96589C217.335 4.96589 216.995 5.04989 216.696 5.21789C216.407 5.38589 216.178 5.63323 216.01 5.95989C215.851 6.28656 215.772 6.70189 215.772 7.20589V10.9999H214.022V6.93989C214.022 6.27723 213.877 5.78256 213.588 5.45589C213.299 5.12923 212.883 4.96589 212.342 4.96589C211.959 4.96589 211.619 5.04989 211.32 5.21789C211.031 5.38589 210.802 5.63323 210.634 5.95989C210.475 6.28656 210.396 6.70189 210.396 7.20589V10.9999H208.646V3.52389H210.312V5.51189L210.018 4.92389C210.27 4.43856 210.634 4.06989 211.11 3.81789C211.595 3.56589 212.146 3.43989 212.762 3.43989C213.462 3.43989 214.069 3.61256 214.582 3.95789C215.105 4.30323 215.45 4.82589 215.618 5.52589L214.932 5.28789C215.175 4.72789 215.576 4.27989 216.136 3.94389C216.696 3.60789 217.345 3.43989 218.082 3.43989Z" fill="black"/>
<path d="M227.99 10.9999V9.48789L227.892 9.16589V6.51989C227.892 6.00656 227.738 5.60989 227.43 5.32989C227.122 5.04056 226.656 4.89589 226.03 4.89589C225.61 4.89589 225.195 4.96123 224.784 5.09189C224.383 5.22256 224.042 5.40456 223.762 5.63789L223.076 4.36389C223.478 4.05589 223.954 3.82723 224.504 3.67789C225.064 3.51923 225.643 3.43989 226.24 3.43989C227.323 3.43989 228.158 3.70123 228.746 4.22389C229.344 4.73723 229.642 5.53523 229.642 6.61789V10.9999H227.99ZM225.638 11.0979C225.078 11.0979 224.588 11.0046 224.168 10.8179C223.748 10.6219 223.422 10.3559 223.188 10.0199C222.964 9.67456 222.852 9.28723 222.852 8.85789C222.852 8.43789 222.95 8.05989 223.146 7.72389C223.352 7.38789 223.683 7.12189 224.14 6.92589C224.598 6.72989 225.204 6.63189 225.96 6.63189H228.13V7.79389H226.086C225.489 7.79389 225.088 7.89189 224.882 8.08789C224.677 8.27456 224.574 8.5079 224.574 8.7879C224.574 9.10523 224.7 9.35723 224.952 9.54389C225.204 9.73056 225.554 9.82389 226.002 9.82389C226.432 9.82389 226.814 9.72589 227.15 9.52989C227.496 9.33389 227.743 9.04456 227.892 8.66189L228.186 9.71189C228.018 10.1506 227.715 10.4912 227.276 10.7339C226.847 10.9766 226.301 11.0979 225.638 11.0979Z" fill="black"/>
<path d="M236.13 3.43989C236.728 3.43989 237.26 3.55656 237.726 3.78989C238.202 4.02323 238.576 4.38256 238.846 4.86789C239.117 5.34389 239.252 5.95989 239.252 6.71589V10.9999H237.502V6.93989C237.502 6.27723 237.344 5.78256 237.026 5.45589C236.718 5.12923 236.284 4.96589 235.724 4.96589C235.314 4.96589 234.95 5.04989 234.632 5.21789C234.315 5.38589 234.068 5.63789 233.89 5.97389C233.722 6.30056 233.638 6.7159 233.638 7.21989V10.9999H231.888V3.52389H233.554V5.53989L233.26 4.92389C233.522 4.44789 233.9 4.08389 234.394 3.83189C234.898 3.57056 235.477 3.43989 236.13 3.43989Z" fill="black"/>
<path d="M241.951 13.8139C241.587 13.8139 241.223 13.7532 240.859 13.6319C240.495 13.5106 240.192 13.3426 239.949 13.1279L240.649 11.8399C240.827 11.9986 241.027 12.1246 241.251 12.2179C241.475 12.3112 241.704 12.3579 241.937 12.3579C242.255 12.3579 242.511 12.2786 242.707 12.1199C242.903 11.9612 243.085 11.6952 243.253 11.3219L243.687 10.3419L243.827 10.1319L246.655 3.52389H248.335L244.835 11.6019C244.602 12.1619 244.341 12.6052 244.051 12.9319C243.771 13.2586 243.454 13.4872 243.099 13.6179C242.754 13.7486 242.371 13.8139 241.951 13.8139ZM243.491 11.2659L240.117 3.52389H241.937L244.681 9.97789L243.491 11.2659Z" fill="black"/>
<path d="M256.112 11.0979C255.291 11.0979 254.656 10.8879 254.208 10.4679C253.76 10.0386 253.536 9.40856 253.536 8.57789V1.87189H255.286V8.53589C255.286 8.89056 255.375 9.16589 255.552 9.36189C255.739 9.55789 255.996 9.6559 256.322 9.6559C256.714 9.6559 257.041 9.55323 257.302 9.34789L257.792 10.5939C257.587 10.7619 257.335 10.8879 257.036 10.9719C256.738 11.0559 256.43 11.0979 256.112 11.0979ZM252.304 4.97989V3.57989H257.288V4.97989H252.304Z" fill="black"/>
<path d="M259.232 10.9999V3.52389H260.982V10.9999H259.232ZM260.114 2.29189C259.787 2.29189 259.517 2.18923 259.302 1.98389C259.097 1.77856 258.994 1.53123 258.994 1.24189C258.994 0.943228 259.097 0.695894 259.302 0.499894C259.517 0.294561 259.787 0.191895 260.114 0.191895C260.441 0.191895 260.707 0.289894 260.912 0.485894C261.127 0.672561 261.234 0.910561 261.234 1.19989C261.234 1.50789 261.131 1.76923 260.926 1.98389C260.721 2.18923 260.45 2.29189 260.114 2.29189Z" fill="black"/>
<path d="M272.715 3.43989C273.312 3.43989 273.839 3.55656 274.297 3.78989C274.763 4.02323 275.128 4.38256 275.389 4.86789C275.65 5.34389 275.781 5.95989 275.781 6.71589V10.9999H274.031V6.93989C274.031 6.27723 273.886 5.78256 273.597 5.45589C273.307 5.12923 272.892 4.96589 272.351 4.96589C271.968 4.96589 271.628 5.04989 271.329 5.21789C271.039 5.38589 270.811 5.63323 270.643 5.95989C270.484 6.28656 270.405 6.70189 270.405 7.20589V10.9999H268.655V6.93989C268.655 6.27723 268.51 5.78256 268.221 5.45589C267.931 5.12923 267.516 4.96589 266.975 4.96589C266.592 4.96589 266.251 5.04989 265.953 5.21789C265.663 5.38589 265.435 5.63323 265.267 5.95989C265.108 6.28656 265.029 6.70189 265.029 7.20589V10.9999H263.279V3.52389H264.945V5.51189L264.651 4.92389C264.903 4.43856 265.267 4.06989 265.743 3.81789C266.228 3.56589 266.779 3.43989 267.395 3.43989C268.095 3.43989 268.702 3.61256 269.215 3.95789C269.738 4.30323 270.083 4.82589 270.251 5.52589L269.565 5.28789C269.807 4.72789 270.209 4.27989 270.769 3.94389C271.329 3.60789 271.978 3.43989 272.715 3.43989Z" fill="black"/>
<path d="M281.545 11.0979C280.714 11.0979 279.986 10.9346 279.361 10.6079C278.745 10.2719 278.264 9.81456 277.919 9.2359C277.583 8.65723 277.415 7.99923 277.415 7.26189C277.415 6.51523 277.578 5.85723 277.905 5.28789C278.241 4.70923 278.698 4.25656 279.277 3.92989C279.865 3.60323 280.532 3.43989 281.279 3.43989C282.007 3.43989 282.655 3.59856 283.225 3.91589C283.794 4.23323 284.242 4.68123 284.569 5.25989C284.895 5.83856 285.059 6.51989 285.059 7.30389C285.059 7.37856 285.054 7.46256 285.045 7.55589C285.045 7.64923 285.04 7.73789 285.031 7.82189H278.801V6.65989H284.107L283.421 7.02389C283.43 6.59456 283.341 6.21656 283.155 5.88989C282.968 5.56323 282.711 5.30656 282.385 5.11989C282.067 4.93323 281.699 4.83989 281.279 4.83989C280.849 4.83989 280.471 4.93323 280.145 5.11989C279.827 5.30656 279.575 5.56789 279.389 5.90389C279.211 6.23056 279.123 6.61789 279.123 7.06589V7.34589C279.123 7.79389 279.225 8.19056 279.431 8.53589C279.636 8.88123 279.925 9.14723 280.299 9.33389C280.672 9.52056 281.101 9.6139 281.587 9.6139C282.007 9.6139 282.385 9.54856 282.721 9.41789C283.057 9.28723 283.355 9.08189 283.617 8.8019L284.555 9.87989C284.219 10.2719 283.794 10.5752 283.281 10.7899C282.777 10.9952 282.198 11.0979 281.545 11.0979Z" fill="black"/>
<path d="M289.05 11.0979C288.424 11.0979 287.822 11.0186 287.244 10.8599C286.674 10.6919 286.222 10.4912 285.886 10.2579L286.558 8.92789C286.894 9.14256 287.295 9.31989 287.762 9.45989C288.228 9.59989 288.695 9.6699 289.162 9.6699C289.712 9.6699 290.109 9.59523 290.352 9.44589C290.604 9.29656 290.73 9.09589 290.73 8.84389C290.73 8.63856 290.646 8.48456 290.478 8.3819C290.31 8.26989 290.09 8.18589 289.82 8.12989C289.549 8.07389 289.246 8.02256 288.91 7.97589C288.583 7.92923 288.252 7.86856 287.916 7.79389C287.589 7.70989 287.29 7.59323 287.02 7.44389C286.749 7.28523 286.53 7.07523 286.362 6.81389C286.194 6.55256 286.11 6.20723 286.11 5.77789C286.11 5.30189 286.245 4.89123 286.516 4.54589C286.786 4.19123 287.164 3.92056 287.65 3.73389C288.144 3.53789 288.728 3.43989 289.4 3.43989C289.904 3.43989 290.412 3.49589 290.926 3.60789C291.439 3.71989 291.864 3.87856 292.2 4.08389L291.528 5.41389C291.173 5.19923 290.814 5.05456 290.45 4.97989C290.095 4.89589 289.74 4.85389 289.386 4.85389C288.854 4.85389 288.457 4.93323 288.196 5.09189C287.944 5.25056 287.818 5.45123 287.818 5.69389C287.818 5.91789 287.902 6.08589 288.07 6.19789C288.238 6.30989 288.457 6.39856 288.728 6.46389C288.998 6.52923 289.297 6.58523 289.624 6.63189C289.96 6.66923 290.291 6.72989 290.618 6.81389C290.944 6.89789 291.243 7.01456 291.514 7.16389C291.794 7.30389 292.018 7.50456 292.186 7.76589C292.354 8.02723 292.438 8.3679 292.438 8.7879C292.438 9.25456 292.298 9.66056 292.018 10.0059C291.747 10.3512 291.36 10.6219 290.856 10.8179C290.352 11.0046 289.75 11.0979 289.05 11.0979Z" fill="black"/>
<path d="M302.42 10.9999V9.48789L302.322 9.16589V6.51989C302.322 6.00656 302.168 5.60989 301.86 5.32989C301.552 5.04056 301.085 4.89589 300.46 4.89589C300.04 4.89589 299.625 4.96123 299.214 5.09189C298.813 5.22256 298.472 5.40456 298.192 5.63789L297.506 4.36389C297.907 4.05589 298.383 3.82723 298.934 3.67789C299.494 3.51923 300.073 3.43989 300.67 3.43989C301.753 3.43989 302.588 3.70123 303.176 4.22389C303.773 4.73723 304.072 5.53523 304.072 6.61789V10.9999H302.42ZM300.068 11.0979C299.508 11.0979 299.018 11.0046 298.598 10.8179C298.178 10.6219 297.851 10.3559 297.618 10.0199C297.394 9.67456 297.282 9.28723 297.282 8.85789C297.282 8.43789 297.38 8.05989 297.576 7.72389C297.781 7.38789 298.113 7.12189 298.57 6.92589C299.027 6.72989 299.634 6.63189 300.39 6.63189H302.56V7.79389H300.516C299.919 7.79389 299.517 7.89189 299.312 8.08789C299.107 8.27456 299.004 8.5079 299.004 8.7879C299.004 9.10523 299.13 9.35723 299.382 9.54389C299.634 9.73056 299.984 9.82389 300.432 9.82389C300.861 9.82389 301.244 9.72589 301.58 9.52989C301.925 9.33389 302.173 9.04456 302.322 8.66189L302.616 9.71189C302.448 10.1506 302.145 10.4912 301.706 10.7339C301.277 10.9766 300.731 11.0979 300.068 11.0979Z" fill="black"/>
<path d="M310.56 3.43989C311.157 3.43989 311.689 3.55656 312.156 3.78989C312.632 4.02323 313.005 4.38256 313.276 4.86789C313.547 5.34389 313.682 5.95989 313.682 6.71589V10.9999H311.932V6.93989C311.932 6.27723 311.773 5.78256 311.456 5.45589C311.148 5.12923 310.714 4.96589 310.154 4.96589C309.743 4.96589 309.379 5.04989 309.062 5.21789C308.745 5.38589 308.497 5.63789 308.32 5.97389C308.152 6.30056 308.068 6.7159 308.068 7.21989V10.9999H306.318V3.52389H307.984V5.53989L307.69 4.92389C307.951 4.44789 308.329 4.08389 308.824 3.83189C309.328 3.57056 309.907 3.43989 310.56 3.43989Z" fill="black"/>
<path d="M319.08 11.0979C318.361 11.0979 317.712 10.9392 317.134 10.6219C316.564 10.2952 316.116 9.84723 315.79 9.27789C315.463 8.70856 315.3 8.03656 315.3 7.26189C315.3 6.48723 315.463 5.81523 315.79 5.24589C316.116 4.67656 316.564 4.23323 317.134 3.91589C317.712 3.59856 318.361 3.43989 319.08 3.43989C319.705 3.43989 320.265 3.57989 320.76 3.85989C321.254 4.13056 321.646 4.54589 321.936 5.10589C322.225 5.66589 322.37 6.38456 322.37 7.26189C322.37 8.12989 322.23 8.84856 321.95 9.41789C321.67 9.97789 321.282 10.3979 320.788 10.6779C320.293 10.9579 319.724 11.0979 319.08 11.0979ZM319.29 9.5999C319.71 9.5999 320.083 9.50656 320.41 9.31989C320.746 9.13323 321.012 8.86256 321.208 8.50789C321.413 8.15323 321.516 7.7379 321.516 7.26189C321.516 6.77656 321.413 6.36123 321.208 6.01589C321.012 5.66123 320.746 5.39056 320.41 5.20389C320.083 5.01723 319.71 4.92389 319.29 4.92389C318.87 4.92389 318.492 5.01723 318.156 5.20389C317.829 5.39056 317.563 5.66123 317.358 6.01589C317.162 6.36123 317.064 6.77656 317.064 7.26189C317.064 7.7379 317.162 8.15323 317.358 8.50789C317.563 8.86256 317.829 9.13323 318.156 9.31989C318.492 9.50656 318.87 9.5999 319.29 9.5999ZM321.558 10.9999V9.2359L321.628 7.24789L321.488 5.25989V0.611894H323.224V10.9999H321.558Z" fill="black"/>
<path d="M329.564 10.9999V1.19989H331.384V10.9999H329.564Z" fill="black"/>
<path d="M341.978 3.43989C342.575 3.43989 343.107 3.55656 343.574 3.78989C344.05 4.02323 344.423 4.38256 344.694 4.86789C344.965 5.34389 345.1 5.95989 345.1 6.71589V10.9999H343.35V6.93989C343.35 6.27723 343.191 5.78256 342.874 5.45589C342.566 5.12923 342.132 4.96589 341.572 4.96589C341.161 4.96589 340.797 5.04989 340.48 5.21789C340.163 5.38589 339.915 5.63789 339.738 5.97389C339.57 6.30056 339.486 6.7159 339.486 7.21989V10.9999H337.736V0.611894H339.486V5.53989L339.108 4.92389C339.369 4.44789 339.747 4.08389 340.242 3.83189C340.746 3.57056 341.325 3.43989 341.978 3.43989Z" fill="black"/>
<path d="M351.926 10.9999V9.48789L351.828 9.16589V6.51989C351.828 6.00656 351.674 5.60989 351.366 5.32989C351.058 5.04056 350.591 4.89589 349.966 4.89589C349.546 4.89589 349.131 4.96123 348.72 5.09189C348.319 5.22256 347.978 5.40456 347.698 5.63789L347.012 4.36389C347.413 4.05589 347.889 3.82723 348.44 3.67789C349 3.51923 349.579 3.43989 350.176 3.43989C351.259 3.43989 352.094 3.70123 352.682 4.22389C353.279 4.73723 353.578 5.53523 353.578 6.61789V10.9999H351.926ZM349.574 11.0979C349.014 11.0979 348.524 11.0046 348.104 10.8179C347.684 10.6219 347.357 10.3559 347.124 10.0199C346.9 9.67456 346.788 9.28723 346.788 8.85789C346.788 8.43789 346.886 8.05989 347.082 7.72389C347.287 7.38789 347.618 7.12189 348.076 6.92589C348.533 6.72989 349.14 6.63189 349.896 6.63189H352.066V7.79389H350.022C349.425 7.79389 349.023 7.89189 348.818 8.08789C348.613 8.27456 348.51 8.5079 348.51 8.7879C348.51 9.10523 348.636 9.35723 348.888 9.54389C349.14 9.73056 349.49 9.82389 349.938 9.82389C350.367 9.82389 350.75 9.72589 351.086 9.52989C351.431 9.33389 351.679 9.04456 351.828 8.66189L352.122 9.71189C351.954 10.1506 351.651 10.4912 351.212 10.7339C350.783 10.9766 350.237 11.0979 349.574 11.0979Z" fill="black"/>
<path d="M357.675 10.9999L354.469 3.52389H356.289L359.047 10.1179H358.151L361.007 3.52389H362.687L359.481 10.9999H357.675Z" fill="black"/>
<path d="M367.09 11.0979C366.259 11.0979 365.531 10.9346 364.906 10.6079C364.29 10.2719 363.809 9.81456 363.464 9.2359C363.128 8.65723 362.96 7.99923 362.96 7.26189C362.96 6.51523 363.123 5.85723 363.45 5.28789C363.786 4.70923 364.243 4.25656 364.822 3.92989C365.41 3.60323 366.077 3.43989 366.824 3.43989C367.552 3.43989 368.2 3.59856 368.77 3.91589C369.339 4.23323 369.787 4.68123 370.114 5.25989C370.44 5.83856 370.604 6.51989 370.604 7.30389C370.604 7.37856 370.599 7.46256 370.59 7.55589C370.59 7.64923 370.585 7.73789 370.576 7.82189H364.346V6.65989H369.652L368.966 7.02389C368.975 6.59456 368.886 6.21656 368.7 5.88989C368.513 5.56323 368.256 5.30656 367.93 5.11989C367.612 4.93323 367.244 4.83989 366.824 4.83989C366.394 4.83989 366.016 4.93323 365.69 5.11989C365.372 5.30656 365.12 5.56789 364.934 5.90389C364.756 6.23056 364.668 6.61789 364.668 7.06589V7.34589C364.668 7.79389 364.77 8.19056 364.976 8.53589C365.181 8.88123 365.47 9.14723 365.844 9.33389C366.217 9.52056 366.646 9.6139 367.132 9.6139C367.552 9.6139 367.93 9.54856 368.266 9.41789C368.602 9.28723 368.9 9.08189 369.162 8.8019L370.1 9.87989C369.764 10.2719 369.339 10.5752 368.826 10.7899C368.322 10.9952 367.743 11.0979 367.09 11.0979Z" fill="black"/>
<path d="M380.396 3.43989C380.993 3.43989 381.525 3.55656 381.992 3.78989C382.468 4.02323 382.841 4.38256 383.112 4.86789C383.382 5.34389 383.518 5.95989 383.518 6.71589V10.9999H381.768V6.93989C381.768 6.27723 381.609 5.78256 381.292 5.45589C380.984 5.12923 380.55 4.96589 379.99 4.96589C379.579 4.96589 379.215 5.04989 378.898 5.21789C378.581 5.38589 378.333 5.63789 378.156 5.97389C377.988 6.30056 377.904 6.7159 377.904 7.21989V10.9999H376.154V3.52389H377.82V5.53989L377.526 4.92389C377.787 4.44789 378.165 4.08389 378.66 3.83189C379.164 3.57056 379.743 3.43989 380.396 3.43989Z" fill="black"/>
<path d="M389.265 11.0979C388.435 11.0979 387.707 10.9346 387.081 10.6079C386.465 10.2719 385.985 9.81456 385.639 9.2359C385.303 8.65723 385.135 7.99923 385.135 7.26189C385.135 6.51523 385.299 5.85723 385.625 5.28789C385.961 4.70923 386.419 4.25656 386.997 3.92989C387.586 3.60323 388.253 3.43989 388.999 3.43989C389.727 3.43989 390.376 3.59856 390.945 3.91589C391.515 4.23323 391.963 4.68123 392.289 5.25989C392.616 5.83856 392.779 6.51989 392.779 7.30389C392.779 7.37856 392.775 7.46256 392.765 7.55589C392.765 7.64923 392.761 7.73789 392.751 7.82189H386.521V6.65989H391.827L391.141 7.02389C391.151 6.59456 391.062 6.21656 390.875 5.88989C390.689 5.56323 390.432 5.30656 390.105 5.11989C389.788 4.93323 389.419 4.83989 388.999 4.83989C388.57 4.83989 388.192 4.93323 387.865 5.11989C387.548 5.30656 387.296 5.56789 387.109 5.90389C386.932 6.23056 386.843 6.61789 386.843 7.06589V7.34589C386.843 7.79389 386.946 8.19056 387.151 8.53589C387.357 8.88123 387.646 9.14723 388.019 9.33389C388.393 9.52056 388.822 9.6139 389.307 9.6139C389.728 9.6139 390.105 9.54856 390.441 9.41789C390.777 9.28723 391.076 9.08189 391.337 8.8019L392.275 9.87989C391.939 10.2719 391.515 10.5752 391.001 10.7899C390.497 10.9952 389.919 11.0979 389.265 11.0979Z" fill="black"/>
<path d="M396.312 10.9999L393.106 3.52389H394.926L397.684 10.1179H396.788L399.644 3.52389H401.324L398.118 10.9999H396.312Z" fill="black"/>
<path d="M405.726 11.0979C404.896 11.0979 404.168 10.9346 403.542 10.6079C402.926 10.2719 402.446 9.81456 402.1 9.2359C401.764 8.65723 401.596 7.99923 401.596 7.26189C401.596 6.51523 401.76 5.85723 402.086 5.28789C402.422 4.70923 402.88 4.25656 403.458 3.92989C404.046 3.60323 404.714 3.43989 405.46 3.43989C406.188 3.43989 406.837 3.59856 407.406 3.91589C407.976 4.23323 408.424 4.68123 408.75 5.25989C409.077 5.83856 409.24 6.51989 409.24 7.30389C409.24 7.37856 409.236 7.46256 409.226 7.55589C409.226 7.64923 409.222 7.73789 409.212 7.82189H402.982V6.65989H408.288L407.602 7.02389C407.612 6.59456 407.523 6.21656 407.336 5.88989C407.15 5.56323 406.893 5.30656 406.566 5.11989C406.249 4.93323 405.88 4.83989 405.46 4.83989C405.031 4.83989 404.653 4.93323 404.326 5.11989C404.009 5.30656 403.757 5.56789 403.57 5.90389C403.393 6.23056 403.304 6.61789 403.304 7.06589V7.34589C403.304 7.79389 403.407 8.19056 403.612 8.53589C403.818 8.88123 404.107 9.14723 404.48 9.33389C404.854 9.52056 405.283 9.6139 405.768 9.6139C406.188 9.6139 406.566 9.54856 406.902 9.41789C407.238 9.28723 407.537 9.08189 407.798 8.8019L408.736 9.87989C408.4 10.2719 407.976 10.5752 407.462 10.7899C406.958 10.9952 406.38 11.0979 405.726 11.0979Z" fill="black"/>
<path d="M410.921 10.9999V3.52389H412.587V5.58189L412.391 4.97989C412.615 4.47589 412.965 4.09323 413.441 3.83189C413.927 3.57056 414.529 3.43989 415.247 3.43989V5.10589C415.173 5.08723 415.103 5.07789 415.037 5.07789C414.972 5.06856 414.907 5.06389 414.841 5.06389C414.179 5.06389 413.651 5.25989 413.259 5.65189C412.867 6.03456 412.671 6.60856 412.671 7.37389V10.9999H410.921Z" fill="black"/>
<path d="M424.813 11.0979C424.179 11.0979 423.614 10.9579 423.119 10.6779C422.625 10.3979 422.233 9.97789 421.943 9.41789C421.663 8.84856 421.523 8.12989 421.523 7.26189C421.523 6.38456 421.668 5.66589 421.957 5.10589C422.256 4.54589 422.653 4.13056 423.147 3.85989C423.651 3.57989 424.207 3.43989 424.813 3.43989C425.551 3.43989 426.199 3.59856 426.759 3.91589C427.329 4.23323 427.777 4.67656 428.103 5.24589C428.439 5.81523 428.607 6.48723 428.607 7.26189C428.607 8.03656 428.439 8.70856 428.103 9.27789C427.777 9.84723 427.329 10.2952 426.759 10.6219C426.199 10.9392 425.551 11.0979 424.813 11.0979ZM420.669 10.9999V0.611894H422.419V5.25989L422.279 7.24789L422.335 9.2359V10.9999H420.669ZM424.617 9.5999C425.037 9.5999 425.411 9.50656 425.737 9.31989C426.073 9.13323 426.339 8.86256 426.535 8.50789C426.731 8.15323 426.829 7.7379 426.829 7.26189C426.829 6.77656 426.731 6.36123 426.535 6.01589C426.339 5.66123 426.073 5.39056 425.737 5.20389C425.411 5.01723 425.037 4.92389 424.617 4.92389C424.197 4.92389 423.819 5.01723 423.483 5.20389C423.147 5.39056 422.881 5.66123 422.685 6.01589C422.489 6.36123 422.391 6.77656 422.391 7.26189C422.391 7.7379 422.489 8.15323 422.685 8.50789C422.881 8.86256 423.147 9.13323 423.483 9.31989C423.819 9.50656 424.197 9.5999 424.617 9.5999Z" fill="black"/>
<path d="M433.781 11.0979C432.95 11.0979 432.222 10.9346 431.597 10.6079C430.981 10.2719 430.5 9.81456 430.155 9.2359C429.819 8.65723 429.651 7.99923 429.651 7.26189C429.651 6.51523 429.814 5.85723 430.141 5.28789C430.477 4.70923 430.934 4.25656 431.513 3.92989C432.101 3.60323 432.768 3.43989 433.515 3.43989C434.243 3.43989 434.892 3.59856 435.461 3.91589C436.03 4.23323 436.478 4.68123 436.805 5.25989C437.132 5.83856 437.295 6.51989 437.295 7.30389C437.295 7.37856 437.29 7.46256 437.281 7.55589C437.281 7.64923 437.276 7.73789 437.267 7.82189H431.037V6.65989H436.343L435.657 7.02389C435.666 6.59456 435.578 6.21656 435.391 5.88989C435.204 5.56323 434.948 5.30656 434.621 5.11989C434.304 4.93323 433.935 4.83989 433.515 4.83989C433.086 4.83989 432.708 4.93323 432.381 5.11989C432.064 5.30656 431.812 5.56789 431.625 5.90389C431.448 6.23056 431.359 6.61789 431.359 7.06589V7.34589C431.359 7.79389 431.462 8.19056 431.667 8.53589C431.872 8.88123 432.162 9.14723 432.535 9.33389C432.908 9.52056 433.338 9.6139 433.823 9.6139C434.243 9.6139 434.621 9.54856 434.957 9.41789C435.293 9.28723 435.592 9.08189 435.853 8.8019L436.791 9.87989C436.455 10.2719 436.03 10.5752 435.517 10.7899C435.013 10.9952 434.434 11.0979 433.781 11.0979Z" fill="black"/>
<path d="M442.49 11.0979C441.659 11.0979 440.931 10.9346 440.306 10.6079C439.69 10.2719 439.209 9.81456 438.864 9.2359C438.528 8.65723 438.36 7.99923 438.36 7.26189C438.36 6.51523 438.523 5.85723 438.85 5.28789C439.186 4.70923 439.643 4.25656 440.222 3.92989C440.81 3.60323 441.477 3.43989 442.224 3.43989C442.952 3.43989 443.601 3.59856 444.17 3.91589C444.739 4.23323 445.187 4.68123 445.514 5.25989C445.841 5.83856 446.004 6.51989 446.004 7.30389C446.004 7.37856 445.999 7.46256 445.99 7.55589C445.99 7.64923 445.985 7.73789 445.976 7.82189H439.746V6.65989H445.052L444.366 7.02389C444.375 6.59456 444.287 6.21656 444.1 5.88989C443.913 5.56323 443.657 5.30656 443.33 5.11989C443.013 4.93323 442.644 4.83989 442.224 4.83989C441.795 4.83989 441.417 4.93323 441.09 5.11989C440.773 5.30656 440.521 5.56789 440.334 5.90389C440.157 6.23056 440.068 6.61789 440.068 7.06589V7.34589C440.068 7.79389 440.171 8.19056 440.376 8.53589C440.581 8.88123 440.871 9.14723 441.244 9.33389C441.617 9.52056 442.047 9.6139 442.532 9.6139C442.952 9.6139 443.33 9.54856 443.666 9.41789C444.002 9.28723 444.301 9.08189 444.562 8.8019L445.5 9.87989C445.164 10.2719 444.739 10.5752 444.226 10.7899C443.722 10.9952 443.143 11.0979 442.49 11.0979Z" fill="black"/>
<path d="M451.927 3.43989C452.524 3.43989 453.056 3.55656 453.523 3.78989C453.999 4.02323 454.372 4.38256 454.643 4.86789C454.914 5.34389 455.049 5.95989 455.049 6.71589V10.9999H453.299V6.93989C453.299 6.27723 453.14 5.78256 452.823 5.45589C452.515 5.12923 452.081 4.96589 451.521 4.96589C451.11 4.96589 450.746 5.04989 450.429 5.21789C450.112 5.38589 449.864 5.63789 449.687 5.97389C449.519 6.30056 449.435 6.7159 449.435 7.21989V10.9999H447.685V3.52389H449.351V5.53989L449.057 4.92389C449.318 4.44789 449.696 4.08389 450.191 3.83189C450.695 3.57056 451.274 3.43989 451.927 3.43989Z" fill="black"/>
<path d="M4.31198 28.0979C3.59332 28.0979 2.94465 27.9392 2.36598 27.6219C1.79665 27.2952 1.34865 26.8472 1.02198 26.2779C0.695316 25.7086 0.531982 25.0366 0.531982 24.2619C0.531982 23.4872 0.695316 22.8152 1.02198 22.2459C1.34865 21.6766 1.79665 21.2332 2.36598 20.9159C2.94465 20.5986 3.59332 20.4399 4.31198 20.4399C4.93732 20.4399 5.49732 20.5799 5.99198 20.8599C6.48665 21.1306 6.87865 21.5459 7.16798 22.1059C7.45732 22.6659 7.60198 23.3846 7.60198 24.2619C7.60198 25.1299 7.46198 25.8486 7.18198 26.4179C6.90198 26.9779 6.51465 27.3979 6.01998 27.6779C5.52532 27.9579 4.95598 28.0979 4.31198 28.0979ZM4.52198 26.5999C4.94198 26.5999 5.31532 26.5066 5.64198 26.3199C5.97798 26.1332 6.24398 25.8626 6.43998 25.5079C6.64532 25.1532 6.74798 24.7379 6.74798 24.2619C6.74798 23.7766 6.64532 23.3612 6.43998 23.0159C6.24398 22.6612 5.97798 22.3906 5.64198 22.2039C5.31532 22.0172 4.94198 21.9239 4.52198 21.9239C4.10198 21.9239 3.72398 22.0172 3.38798 22.2039C3.06132 22.3906 2.79532 22.6612 2.58998 23.0159C2.39398 23.3612 2.29598 23.7766 2.29598 24.2619C2.29598 24.7379 2.39398 25.1532 2.58998 25.5079C2.79532 25.8626 3.06132 26.1332 3.38798 26.3199C3.72398 26.5066 4.10198 26.5999 4.52198 26.5999ZM6.78998 27.9999V26.2359L6.85998 24.2479L6.71998 22.2599V17.6119H8.45598V27.9999H6.78998Z" fill="black"/>
<path d="M10.7593 27.9999V20.5239H12.5093V27.9999H10.7593ZM11.6413 19.2919C11.3146 19.2919 11.044 19.1892 10.8293 18.9839C10.624 18.7786 10.5213 18.5312 10.5213 18.2419C10.5213 17.9432 10.624 17.6959 10.8293 17.4999C11.044 17.2946 11.3146 17.1919 11.6413 17.1919C11.968 17.1919 12.234 17.2899 12.4393 17.4859C12.654 17.6726 12.7613 17.9106 12.7613 18.1999C12.7613 18.5079 12.6586 18.7692 12.4533 18.9839C12.248 19.1892 11.9773 19.2919 11.6413 19.2919Z" fill="black"/>
<path d="M17.1162 28.0979C16.4909 28.0979 15.8889 28.0186 15.3102 27.8599C14.7409 27.6919 14.2882 27.4912 13.9522 27.2579L14.6242 25.9279C14.9602 26.1426 15.3615 26.3199 15.8282 26.4599C16.2949 26.5999 16.7615 26.6699 17.2282 26.6699C17.7789 26.6699 18.1755 26.5952 18.4182 26.4459C18.6702 26.2966 18.7962 26.0959 18.7962 25.8439C18.7962 25.6386 18.7122 25.4846 18.5442 25.3819C18.3762 25.2699 18.1569 25.1859 17.8862 25.1299C17.6155 25.0739 17.3122 25.0226 16.9762 24.9759C16.6495 24.9292 16.3182 24.8686 15.9822 24.7939C15.6555 24.7099 15.3569 24.5932 15.0862 24.4439C14.8155 24.2852 14.5962 24.0752 14.4282 23.8139C14.2602 23.5526 14.1762 23.2072 14.1762 22.7779C14.1762 22.3019 14.3115 21.8912 14.5822 21.5459C14.8529 21.1912 15.2309 20.9206 15.7162 20.7339C16.2109 20.5379 16.7942 20.4399 17.4662 20.4399C17.9702 20.4399 18.4789 20.4959 18.9922 20.6079C19.5055 20.7199 19.9302 20.8786 20.2662 21.0839L19.5942 22.4139C19.2395 22.1992 18.8802 22.0546 18.5162 21.9799C18.1615 21.8959 17.8069 21.8539 17.4522 21.8539C16.9202 21.8539 16.5235 21.9332 16.2622 22.0919C16.0102 22.2506 15.8842 22.4512 15.8842 22.6939C15.8842 22.9179 15.9682 23.0859 16.1362 23.1979C16.3042 23.3099 16.5235 23.3986 16.7942 23.4639C17.0649 23.5292 17.3635 23.5852 17.6902 23.6319C18.0262 23.6692 18.3575 23.7299 18.6842 23.8139C19.0109 23.8979 19.3095 24.0146 19.5802 24.1639C19.8602 24.3039 20.0842 24.5046 20.2522 24.7659C20.4202 25.0272 20.5042 25.3679 20.5042 25.7879C20.5042 26.2546 20.3642 26.6606 20.0842 27.0059C19.8135 27.3512 19.4262 27.6219 18.9222 27.8179C18.4182 28.0046 17.8162 28.0979 17.1162 28.0979Z" fill="black"/>
<path d="M26.6173 27.9999V26.4879L26.5193 26.1659V23.5199C26.5193 23.0066 26.3653 22.6099 26.0573 22.3299C25.7493 22.0406 25.2826 21.8959 24.6573 21.8959C24.2373 21.8959 23.8219 21.9612 23.4113 22.0919C23.0099 22.2226 22.6693 22.4046 22.3893 22.6379L21.7033 21.3639C22.1046 21.0559 22.5806 20.8272 23.1313 20.6779C23.6913 20.5192 24.2699 20.4399 24.8673 20.4399C25.9499 20.4399 26.7853 20.7012 27.3733 21.2239C27.9706 21.7372 28.2693 22.5352 28.2693 23.6179V27.9999H26.6173ZM24.2653 28.0979C23.7053 28.0979 23.2153 28.0046 22.7953 27.8179C22.3753 27.6219 22.0486 27.3559 21.8153 27.0199C21.5913 26.6746 21.4793 26.2872 21.4793 25.8579C21.4793 25.4379 21.5773 25.0599 21.7733 24.7239C21.9786 24.3879 22.3099 24.1219 22.7673 23.9259C23.2246 23.7299 23.8313 23.6319 24.5873 23.6319H26.7573V24.7939H24.7133C24.1159 24.7939 23.7146 24.8919 23.5093 25.0879C23.3039 25.2746 23.2013 25.5079 23.2013 25.7879C23.2013 26.1052 23.3273 26.3572 23.5793 26.5439C23.8313 26.7306 24.1813 26.8239 24.6293 26.8239C25.0586 26.8239 25.4413 26.7259 25.7773 26.5299C26.1226 26.3339 26.3699 26.0446 26.5193 25.6619L26.8133 26.7119C26.6453 27.1506 26.3419 27.4912 25.9033 27.7339C25.4739 27.9766 24.9279 28.0979 24.2653 28.0979Z" fill="black"/>
<path d="M34.6592 28.0979C34.0525 28.0979 33.4972 27.9579 32.9932 27.6779C32.4985 27.3979 32.1018 26.9779 31.8032 26.4179C31.5138 25.8486 31.3692 25.1299 31.3692 24.2619C31.3692 23.3846 31.5092 22.6659 31.7892 22.1059C32.0785 21.5459 32.4705 21.1306 32.9652 20.8599C33.4598 20.5799 34.0245 20.4399 34.6592 20.4399C35.3965 20.4399 36.0452 20.5986 36.6052 20.9159C37.1745 21.2332 37.6225 21.6766 37.9492 22.2459C38.2852 22.8152 38.4532 23.4872 38.4532 24.2619C38.4532 25.0366 38.2852 25.7132 37.9492 26.2919C37.6225 26.8612 37.1745 27.3046 36.6052 27.6219C36.0452 27.9392 35.3965 28.0979 34.6592 28.0979ZM30.5152 30.7159V20.5239H32.1812V22.2879L32.1252 24.2759L32.2652 26.2639V30.7159H30.5152ZM34.4632 26.5999C34.8832 26.5999 35.2565 26.5066 35.5832 26.3199C35.9192 26.1332 36.1852 25.8626 36.3812 25.5079C36.5772 25.1532 36.6752 24.7379 36.6752 24.2619C36.6752 23.7766 36.5772 23.3612 36.3812 23.0159C36.1852 22.6612 35.9192 22.3906 35.5832 22.2039C35.2565 22.0172 34.8832 21.9239 34.4632 21.9239C34.0432 21.9239 33.6652 22.0172 33.3292 22.2039C32.9932 22.3906 32.7272 22.6612 32.5312 23.0159C32.3352 23.3612 32.2372 23.7766 32.2372 24.2619C32.2372 24.7379 32.3352 25.1532 32.5312 25.5079C32.7272 25.8626 32.9932 26.1332 33.3292 26.3199C33.6652 26.5066 34.0432 26.5999 34.4632 26.5999Z" fill="black"/>
<path d="M44.2568 28.0979C43.6502 28.0979 43.0948 27.9579 42.5908 27.6779C42.0962 27.3979 41.6995 26.9779 41.4008 26.4179C41.1115 25.8486 40.9668 25.1299 40.9668 24.2619C40.9668 23.3846 41.1068 22.6659 41.3868 22.1059C41.6762 21.5459 42.0682 21.1306 42.5628 20.8599C43.0575 20.5799 43.6222 20.4399 44.2568 20.4399C44.9942 20.4399 45.6428 20.5986 46.2028 20.9159C46.7722 21.2332 47.2202 21.6766 47.5468 22.2459C47.8828 22.8152 48.0508 23.4872 48.0508 24.2619C48.0508 25.0366 47.8828 25.7132 47.5468 26.2919C47.2202 26.8612 46.7722 27.3046 46.2028 27.6219C45.6428 27.9392 44.9942 28.0979 44.2568 28.0979ZM40.1128 30.7159V20.5239H41.7788V22.2879L41.7228 24.2759L41.8628 26.2639V30.7159H40.1128ZM44.0608 26.5999C44.4808 26.5999 44.8542 26.5066 45.1808 26.3199C45.5168 26.1332 45.7828 25.8626 45.9788 25.5079C46.1748 25.1532 46.2728 24.7379 46.2728 24.2619C46.2728 23.7766 46.1748 23.3612 45.9788 23.0159C45.7828 22.6612 45.5168 22.3906 45.1808 22.2039C44.8542 22.0172 44.4808 21.9239 44.0608 21.9239C43.6408 21.9239 43.2628 22.0172 42.9268 22.2039C42.5908 22.3906 42.3248 22.6612 42.1288 23.0159C41.9328 23.3612 41.8348 23.7766 41.8348 24.2619C41.8348 24.7379 41.9328 25.1532 42.1288 25.5079C42.3248 25.8626 42.5908 26.1332 42.9268 26.3199C43.2628 26.5066 43.6408 26.5999 44.0608 26.5999Z" fill="black"/>
<path d="M53.0705 28.0979C52.3051 28.0979 51.6238 27.9346 51.0265 27.6079C50.4291 27.2719 49.9578 26.8146 49.6125 26.2359C49.2671 25.6572 49.0945 24.9992 49.0945 24.2619C49.0945 23.5152 49.2671 22.8572 49.6125 22.2879C49.9578 21.7092 50.4291 21.2566 51.0265 20.9299C51.6238 20.6032 52.3051 20.4399 53.0705 20.4399C53.8451 20.4399 54.5312 20.6032 55.1285 20.9299C55.7351 21.2566 56.2065 21.7046 56.5425 22.2739C56.8878 22.8432 57.0605 23.5059 57.0605 24.2619C57.0605 24.9992 56.8878 25.6572 56.5425 26.2359C56.2065 26.8146 55.7351 27.2719 55.1285 27.6079C54.5312 27.9346 53.8451 28.0979 53.0705 28.0979ZM53.0705 26.5999C53.4998 26.5999 53.8825 26.5066 54.2185 26.3199C54.5545 26.1332 54.8158 25.8626 55.0025 25.5079C55.1985 25.1532 55.2965 24.7379 55.2965 24.2619C55.2965 23.7766 55.1985 23.3612 55.0025 23.0159C54.8158 22.6612 54.5545 22.3906 54.2185 22.2039C53.8825 22.0172 53.5045 21.9239 53.0845 21.9239C52.6551 21.9239 52.2725 22.0172 51.9365 22.2039C51.6098 22.3906 51.3485 22.6612 51.1525 23.0159C50.9565 23.3612 50.8585 23.7766 50.8585 24.2619C50.8585 24.7379 50.9565 25.1532 51.1525 25.5079C51.3485 25.8626 51.6098 26.1332 51.9365 26.3199C52.2725 26.5066 52.6505 26.5999 53.0705 26.5999Z" fill="black"/>
<path d="M58.7339 27.9999V20.5239H60.4839V27.9999H58.7339ZM59.6159 19.2919C59.2892 19.2919 59.0186 19.1892 58.8039 18.9839C58.5986 18.7786 58.4959 18.5312 58.4959 18.2419C58.4959 17.9432 58.5986 17.6959 58.8039 17.4999C59.0186 17.2946 59.2892 17.1919 59.6159 17.1919C59.9426 17.1919 60.2086 17.2899 60.4139 17.4859C60.6286 17.6726 60.7359 17.9106 60.7359 18.1999C60.7359 18.5079 60.6333 18.7692 60.4279 18.9839C60.2226 19.1892 59.9519 19.2919 59.6159 19.2919Z" fill="black"/>
<path d="M67.0228 20.4399C67.6201 20.4399 68.1521 20.5566 68.6188 20.7899C69.0948 21.0232 69.4681 21.3826 69.7388 21.8679C70.0095 22.3439 70.1448 22.9599 70.1448 23.7159V27.9999H68.3948V23.9399C68.3948 23.2772 68.2361 22.7826 67.9188 22.4559C67.6108 22.1292 67.1768 21.9659 66.6168 21.9659C66.2061 21.9659 65.8421 22.0499 65.5248 22.2179C65.2075 22.3859 64.9601 22.6379 64.7828 22.9739C64.6148 23.3006 64.5308 23.7159 64.5308 24.2199V27.9999H62.7808V20.5239H64.4468V22.5399L64.1528 21.9239C64.4141 21.4479 64.7921 21.0839 65.2868 20.8319C65.7908 20.5706 66.3695 20.4399 67.0228 20.4399Z" fill="black"/>
<path d="M75.1788 28.0979C74.3574 28.0979 73.7228 27.8879 73.2748 27.4679C72.8268 27.0386 72.6028 26.4086 72.6028 25.5779V18.8719H74.3528V25.5359C74.3528 25.8906 74.4415 26.1659 74.6188 26.3619C74.8055 26.5579 75.0621 26.6559 75.3888 26.6559C75.7808 26.6559 76.1074 26.5532 76.3688 26.3479L76.8588 27.5939C76.6535 27.7619 76.4015 27.8879 76.1028 27.9719C75.8041 28.0559 75.4961 28.0979 75.1788 28.0979ZM71.3708 21.9799V20.5799H76.3548V21.9799H71.3708Z" fill="black"/>
<path d="M81.5663 28.0979C80.7356 28.0979 80.0076 27.9346 79.3823 27.6079C78.7663 27.2719 78.2856 26.8146 77.9403 26.2359C77.6043 25.6572 77.4363 24.9992 77.4363 24.2619C77.4363 23.5152 77.5996 22.8572 77.9263 22.2879C78.2623 21.7092 78.7196 21.2566 79.2983 20.9299C79.8863 20.6032 80.5536 20.4399 81.3003 20.4399C82.0283 20.4399 82.6769 20.5986 83.2463 20.9159C83.8156 21.2332 84.2636 21.6812 84.5903 22.2599C84.9169 22.8386 85.0803 23.5199 85.0803 24.3039C85.0803 24.3786 85.0756 24.4626 85.0663 24.5559C85.0663 24.6492 85.0616 24.7379 85.0523 24.8219H78.8223V23.6599H84.1283L83.4423 24.0239C83.4516 23.5946 83.363 23.2166 83.1763 22.8899C82.9896 22.5632 82.7329 22.3066 82.4063 22.1199C82.089 21.9332 81.7203 21.8399 81.3003 21.8399C80.8709 21.8399 80.493 21.9332 80.1663 22.1199C79.8489 22.3066 79.5969 22.5679 79.4103 22.9039C79.2329 23.2306 79.1443 23.6179 79.1443 24.0659V24.3459C79.1443 24.7939 79.2469 25.1906 79.4523 25.5359C79.6576 25.8812 79.9469 26.1472 80.3203 26.3339C80.6936 26.5206 81.1229 26.6139 81.6083 26.6139C82.0283 26.6139 82.4063 26.5486 82.7423 26.4179C83.0783 26.2872 83.3769 26.0819 83.6383 25.8019L84.5763 26.8799C84.2403 27.2719 83.8156 27.5752 83.3023 27.7899C82.7983 27.9952 82.2196 28.0979 81.5663 28.0979Z" fill="black"/>
<path d="M89.9253 28.0979C89.2066 28.0979 88.5579 27.9392 87.9793 27.6219C87.4099 27.2952 86.9619 26.8472 86.6353 26.2779C86.3086 25.7086 86.1453 25.0366 86.1453 24.2619C86.1453 23.4872 86.3086 22.8152 86.6353 22.2459C86.9619 21.6766 87.4099 21.2332 87.9793 20.9159C88.5579 20.5986 89.2066 20.4399 89.9253 20.4399C90.5506 20.4399 91.1106 20.5799 91.6053 20.8599C92.0999 21.1306 92.4919 21.5459 92.7813 22.1059C93.0706 22.6659 93.2153 23.3846 93.2153 24.2619C93.2153 25.1299 93.0753 25.8486 92.7953 26.4179C92.5153 26.9779 92.1279 27.3979 91.6333 27.6779C91.1386 27.9579 90.5693 28.0979 89.9253 28.0979ZM90.1353 26.5999C90.5553 26.5999 90.9286 26.5066 91.2553 26.3199C91.5913 26.1332 91.8573 25.8626 92.0533 25.5079C92.2586 25.1532 92.3613 24.7379 92.3613 24.2619C92.3613 23.7766 92.2586 23.3612 92.0533 23.0159C91.8573 22.6612 91.5913 22.3906 91.2553 22.2039C90.9286 22.0172 90.5553 21.9239 90.1353 21.9239C89.7153 21.9239 89.3373 22.0172 89.0013 22.2039C88.6746 22.3906 88.4086 22.6612 88.2033 23.0159C88.0073 23.3612 87.9093 23.7766 87.9093 24.2619C87.9093 24.7379 88.0073 25.1532 88.2033 25.5079C88.4086 25.8626 88.6746 26.1332 89.0013 26.3199C89.3373 26.5066 89.7153 26.5999 90.1353 26.5999ZM92.4033 27.9999V26.2359L92.4733 24.2479L92.3333 22.2599V17.6119H94.0693V27.9999H92.4033Z" fill="black"/>
<path d="M100.242 27.9999V20.5239H101.992V27.9999H100.242ZM101.124 19.2919C100.797 19.2919 100.526 19.1892 100.312 18.9839C100.106 18.7786 100.004 18.5312 100.004 18.2419C100.004 17.9432 100.106 17.6959 100.312 17.4999C100.526 17.2946 100.797 17.1919 101.124 17.1919C101.45 17.1919 101.716 17.2899 101.922 17.4859C102.136 17.6726 102.244 17.9106 102.244 18.1999C102.244 18.5079 102.141 18.7692 101.936 18.9839C101.73 19.1892 101.46 19.2919 101.124 19.2919Z" fill="black"/>
<path d="M108.531 20.4399C109.128 20.4399 109.66 20.5566 110.127 20.7899C110.603 21.0232 110.976 21.3826 111.247 21.8679C111.517 22.3439 111.653 22.9599 111.653 23.7159V27.9999H109.903V23.9399C109.903 23.2772 109.744 22.7826 109.427 22.4559C109.119 22.1292 108.685 21.9659 108.125 21.9659C107.714 21.9659 107.35 22.0499 107.033 22.2179C106.715 22.3859 106.468 22.6379 106.291 22.9739C106.123 23.3006 106.039 23.7159 106.039 24.2199V27.9999H104.289V20.5239H105.955V22.5399L105.661 21.9239C105.922 21.4479 106.3 21.0839 106.795 20.8319C107.299 20.5706 107.877 20.4399 108.531 20.4399Z" fill="black"/>
<path d="M127.178 20.4399C127.775 20.4399 128.302 20.5566 128.76 20.7899C129.226 21.0232 129.59 21.3826 129.852 21.8679C130.113 22.3439 130.244 22.9599 130.244 23.7159V27.9999H128.494V23.9399C128.494 23.2772 128.349 22.7826 128.06 22.4559C127.77 22.1292 127.355 21.9659 126.814 21.9659C126.431 21.9659 126.09 22.0499 125.792 22.2179C125.502 22.3859 125.274 22.6332 125.106 22.9599C124.947 23.2866 124.868 23.7019 124.868 24.2059V27.9999H123.118V23.9399C123.118 23.2772 122.973 22.7826 122.684 22.4559C122.394 22.1292 121.979 21.9659 121.438 21.9659C121.055 21.9659 120.714 22.0499 120.416 22.2179C120.126 22.3859 119.898 22.6332 119.73 22.9599C119.571 23.2866 119.492 23.7019 119.492 24.2059V27.9999H117.742V20.5239H119.408V22.5119L119.114 21.9239C119.366 21.4386 119.73 21.0699 120.206 20.8179C120.691 20.5659 121.242 20.4399 121.858 20.4399C122.558 20.4399 123.164 20.6126 123.678 20.9579C124.2 21.3032 124.546 21.8259 124.714 22.5259L124.028 22.2879C124.27 21.7279 124.672 21.2799 125.232 20.9439C125.792 20.6079 126.44 20.4399 127.178 20.4399Z" fill="black"/>
<path d="M132.959 30.8139C132.595 30.8139 132.231 30.7532 131.867 30.6319C131.503 30.5106 131.2 30.3426 130.957 30.1279L131.657 28.8399C131.835 28.9986 132.035 29.1246 132.259 29.2179C132.483 29.3112 132.712 29.3579 132.945 29.3579C133.263 29.3579 133.519 29.2786 133.715 29.1199C133.911 28.9612 134.093 28.6952 134.261 28.3219L134.695 27.3419L134.835 27.1319L137.663 20.5239H139.343L135.843 28.6019C135.61 29.1619 135.349 29.6052 135.059 29.9319C134.779 30.2586 134.462 30.4872 134.107 30.6179C133.762 30.7486 133.379 30.8139 132.959 30.8139ZM134.499 28.2659L131.125 20.5239H132.945L135.689 26.9779L134.499 28.2659Z" fill="black"/>
<path d="M147.82 28.0979C146.99 28.0979 146.262 27.9346 145.636 27.6079C145.02 27.2719 144.54 26.8146 144.194 26.2359C143.858 25.6572 143.69 24.9992 143.69 24.2619C143.69 23.5152 143.854 22.8572 144.18 22.2879C144.516 21.7092 144.974 21.2566 145.552 20.9299C146.14 20.6032 146.808 20.4399 147.554 20.4399C148.282 20.4399 148.931 20.5986 149.5 20.9159C150.07 21.2332 150.518 21.6812 150.844 22.2599C151.171 22.8386 151.334 23.5199 151.334 24.3039C151.334 24.3786 151.33 24.4626 151.32 24.5559C151.32 24.6492 151.316 24.7379 151.306 24.8219H145.076V23.6599H150.382L149.696 24.0239C149.706 23.5946 149.617 23.2166 149.43 22.8899C149.244 22.5632 148.987 22.3066 148.66 22.1199C148.343 21.9332 147.974 21.8399 147.554 21.8399C147.125 21.8399 146.747 21.9332 146.42 22.1199C146.103 22.3066 145.851 22.5679 145.664 22.9039C145.487 23.2306 145.398 23.6179 145.398 24.0659V24.3459C145.398 24.7939 145.501 25.1906 145.706 25.5359C145.912 25.8812 146.201 26.1472 146.574 26.3339C146.948 26.5206 147.377 26.6139 147.862 26.6139C148.282 26.6139 148.66 26.5486 148.996 26.4179C149.332 26.2872 149.631 26.0819 149.892 25.8019L150.83 26.8799C150.494 27.2719 150.07 27.5752 149.556 27.7899C149.052 27.9952 148.474 28.0979 147.82 28.0979Z" fill="black"/>
<path d="M151.788 27.9999L155.078 23.7159L155.05 24.6539L151.914 20.5239H153.86L156.058 23.4639H155.316L157.528 20.5239H159.418L156.254 24.6539L156.268 23.7159L159.544 27.9999H157.57L155.26 24.8779L155.988 24.9759L153.72 27.9999H151.788Z" fill="black"/>
<path d="M164.979 28.0979C164.373 28.0979 163.817 27.9579 163.313 27.6779C162.819 27.3979 162.422 26.9779 162.123 26.4179C161.834 25.8486 161.689 25.1299 161.689 24.2619C161.689 23.3846 161.829 22.6659 162.109 22.1059C162.399 21.5459 162.791 21.1306 163.285 20.8599C163.78 20.5799 164.345 20.4399 164.979 20.4399C165.717 20.4399 166.365 20.5986 166.925 20.9159C167.495 21.2332 167.943 21.6766 168.269 22.2459C168.605 22.8152 168.773 23.4872 168.773 24.2619C168.773 25.0366 168.605 25.7132 168.269 26.2919C167.943 26.8612 167.495 27.3046 166.925 27.6219C166.365 27.9392 165.717 28.0979 164.979 28.0979ZM160.835 30.7159V20.5239H162.501V22.2879L162.445 24.2759L162.585 26.2639V30.7159H160.835ZM164.783 26.5999C165.203 26.5999 165.577 26.5066 165.903 26.3199C166.239 26.1332 166.505 25.8626 166.701 25.5079C166.897 25.1532 166.995 24.7379 166.995 24.2619C166.995 23.7766 166.897 23.3612 166.701 23.0159C166.505 22.6612 166.239 22.3906 165.903 22.2039C165.577 22.0172 165.203 21.9239 164.783 21.9239C164.363 21.9239 163.985 22.0172 163.649 22.2039C163.313 22.3906 163.047 22.6612 162.851 23.0159C162.655 23.3612 162.557 23.7766 162.557 24.2619C162.557 24.7379 162.655 25.1532 162.851 25.5079C163.047 25.8626 163.313 26.1332 163.649 26.3199C163.985 26.5066 164.363 26.5999 164.783 26.5999Z" fill="black"/>
<path d="M173.947 28.0979C173.116 28.0979 172.388 27.9346 171.763 27.6079C171.147 27.2719 170.666 26.8146 170.321 26.2359C169.985 25.6572 169.817 24.9992 169.817 24.2619C169.817 23.5152 169.98 22.8572 170.307 22.2879C170.643 21.7092 171.1 21.2566 171.679 20.9299C172.267 20.6032 172.934 20.4399 173.681 20.4399C174.409 20.4399 175.058 20.5986 175.627 20.9159C176.196 21.2332 176.644 21.6812 176.971 22.2599C177.298 22.8386 177.461 23.5199 177.461 24.3039C177.461 24.3786 177.456 24.4626 177.447 24.5559C177.447 24.6492 177.442 24.7379 177.433 24.8219H171.203V23.6599H176.509L175.823 24.0239C175.832 23.5946 175.744 23.2166 175.557 22.8899C175.37 22.5632 175.114 22.3066 174.787 22.1199C174.47 21.9332 174.101 21.8399 173.681 21.8399C173.252 21.8399 172.874 21.9332 172.547 22.1199C172.23 22.3066 171.978 22.5679 171.791 22.9039C171.614 23.2306 171.525 23.6179 171.525 24.0659V24.3459C171.525 24.7939 171.628 25.1906 171.833 25.5359C172.038 25.8812 172.328 26.1472 172.701 26.3339C173.074 26.5206 173.504 26.6139 173.989 26.6139C174.409 26.6139 174.787 26.5486 175.123 26.4179C175.459 26.2872 175.758 26.0819 176.019 25.8019L176.957 26.8799C176.621 27.2719 176.196 27.5752 175.683 27.7899C175.179 27.9952 174.6 28.0979 173.947 28.0979Z" fill="black"/>
<path d="M179.142 27.9999V20.5239H180.808V22.5819L180.612 21.9799C180.836 21.4759 181.186 21.0932 181.662 20.8319C182.147 20.5706 182.749 20.4399 183.468 20.4399V22.1059C183.393 22.0872 183.323 22.0779 183.258 22.0779C183.193 22.0686 183.127 22.0639 183.062 22.0639C182.399 22.0639 181.872 22.2599 181.48 22.6519C181.088 23.0346 180.892 23.6086 180.892 24.3739V27.9999H179.142Z" fill="black"/>
<path d="M184.953 27.9999V20.5239H186.703V27.9999H184.953ZM185.835 19.2919C185.508 19.2919 185.237 19.1892 185.023 18.9839C184.817 18.7786 184.715 18.5312 184.715 18.2419C184.715 17.9432 184.817 17.6959 185.023 17.4999C185.237 17.2946 185.508 17.1919 185.835 17.1919C186.161 17.1919 186.427 17.2899 186.633 17.4859C186.847 17.6726 186.955 17.9106 186.955 18.1999C186.955 18.5079 186.852 18.7692 186.647 18.9839C186.441 19.1892 186.171 19.2919 185.835 19.2919Z" fill="black"/>
<path d="M192.514 28.0979C191.683 28.0979 190.955 27.9346 190.33 27.6079C189.714 27.2719 189.233 26.8146 188.888 26.2359C188.552 25.6572 188.384 24.9992 188.384 24.2619C188.384 23.5152 188.547 22.8572 188.874 22.2879C189.21 21.7092 189.667 21.2566 190.246 20.9299C190.834 20.6032 191.501 20.4399 192.248 20.4399C192.976 20.4399 193.624 20.5986 194.194 20.9159C194.763 21.2332 195.211 21.6812 195.538 22.2599C195.864 22.8386 196.028 23.5199 196.028 24.3039C196.028 24.3786 196.023 24.4626 196.014 24.5559C196.014 24.6492 196.009 24.7379 196 24.8219H189.77V23.6599H195.076L194.39 24.0239C194.399 23.5946 194.31 23.2166 194.124 22.8899C193.937 22.5632 193.68 22.3066 193.354 22.1199C193.036 21.9332 192.668 21.8399 192.248 21.8399C191.818 21.8399 191.44 21.9332 191.114 22.1199C190.796 22.3066 190.544 22.5679 190.358 22.9039C190.18 23.2306 190.092 23.6179 190.092 24.0659V24.3459C190.092 24.7939 190.194 25.1906 190.4 25.5359C190.605 25.8812 190.894 26.1472 191.268 26.3339C191.641 26.5206 192.07 26.6139 192.556 26.6139C192.976 26.6139 193.354 26.5486 193.69 26.4179C194.026 26.2872 194.324 26.0819 194.586 25.8019L195.524 26.8799C195.188 27.2719 194.763 27.5752 194.25 27.7899C193.746 27.9952 193.167 28.0979 192.514 28.0979Z" fill="black"/>
<path d="M201.951 20.4399C202.548 20.4399 203.08 20.5566 203.547 20.7899C204.023 21.0232 204.396 21.3826 204.667 21.8679C204.937 22.3439 205.073 22.9599 205.073 23.7159V27.9999H203.323V23.9399C203.323 23.2772 203.164 22.7826 202.847 22.4559C202.539 22.1292 202.105 21.9659 201.545 21.9659C201.134 21.9659 200.77 22.0499 200.453 22.2179C200.135 22.3859 199.888 22.6379 199.711 22.9739C199.543 23.3006 199.459 23.7159 199.459 24.2199V27.9999H197.709V20.5239H199.375V22.5399L199.081 21.9239C199.342 21.4479 199.72 21.0839 200.215 20.8319C200.719 20.5706 201.297 20.4399 201.951 20.4399Z" fill="black"/>
<path d="M210.736 28.0979C209.952 28.0979 209.252 27.9346 208.636 27.6079C208.03 27.2719 207.554 26.8146 207.208 26.2359C206.863 25.6572 206.69 24.9992 206.69 24.2619C206.69 23.5152 206.863 22.8572 207.208 22.2879C207.554 21.7092 208.03 21.2566 208.636 20.9299C209.252 20.6032 209.952 20.4399 210.736 20.4399C211.464 20.4399 212.104 20.5892 212.654 20.8879C213.214 21.1772 213.639 21.6066 213.928 22.1759L212.584 22.9599C212.36 22.6052 212.085 22.3439 211.758 22.1759C211.441 22.0079 211.096 21.9239 210.722 21.9239C210.293 21.9239 209.906 22.0172 209.56 22.2039C209.215 22.3906 208.944 22.6612 208.748 23.0159C208.552 23.3612 208.454 23.7766 208.454 24.2619C208.454 24.7472 208.552 25.1672 208.748 25.5219C208.944 25.8672 209.215 26.1332 209.56 26.3199C209.906 26.5066 210.293 26.5999 210.722 26.5999C211.096 26.5999 211.441 26.5159 211.758 26.3479C212.085 26.1799 212.36 25.9186 212.584 25.5639L213.928 26.3479C213.639 26.9079 213.214 27.3419 212.654 27.6499C212.104 27.9486 211.464 28.0979 210.736 28.0979Z" fill="black"/>
<path d="M218.846 28.0979C218.015 28.0979 217.287 27.9346 216.662 27.6079C216.046 27.2719 215.565 26.8146 215.22 26.2359C214.884 25.6572 214.716 24.9992 214.716 24.2619C214.716 23.5152 214.879 22.8572 215.206 22.2879C215.542 21.7092 215.999 21.2566 216.578 20.9299C217.166 20.6032 217.833 20.4399 218.58 20.4399C219.308 20.4399 219.956 20.5986 220.526 20.9159C221.095 21.2332 221.543 21.6812 221.87 22.2599C222.196 22.8386 222.36 23.5199 222.36 24.3039C222.36 24.3786 222.355 24.4626 222.346 24.5559C222.346 24.6492 222.341 24.7379 222.332 24.8219H216.102V23.6599H221.408L220.722 24.0239C220.731 23.5946 220.642 23.2166 220.456 22.8899C220.269 22.5632 220.012 22.3066 219.686 22.1199C219.368 21.9332 219 21.8399 218.58 21.8399C218.15 21.8399 217.772 21.9332 217.446 22.1199C217.128 22.3066 216.876 22.5679 216.69 22.9039C216.512 23.2306 216.424 23.6179 216.424 24.0659V24.3459C216.424 24.7939 216.526 25.1906 216.732 25.5359C216.937 25.8812 217.226 26.1472 217.6 26.3339C217.973 26.5206 218.402 26.6139 218.888 26.6139C219.308 26.6139 219.686 26.5486 220.022 26.4179C220.358 26.2872 220.656 26.0819 220.918 25.8019L221.856 26.8799C221.52 27.2719 221.095 27.5752 220.582 27.7899C220.078 27.9952 219.499 28.0979 218.846 28.0979Z" fill="black"/>
<path d="M224.601 28.0979C224.283 28.0979 224.013 27.9906 223.789 27.7759C223.565 27.5519 223.453 27.2719 223.453 26.9359C223.453 26.5812 223.565 26.3012 223.789 26.0959C224.013 25.8812 224.283 25.7739 224.601 25.7739C224.918 25.7739 225.189 25.8812 225.413 26.0959C225.637 26.3012 225.749 26.5812 225.749 26.9359C225.749 27.2719 225.637 27.5519 225.413 27.7759C225.189 27.9906 224.918 28.0979 224.601 28.0979Z" fill="black"/>
<path d="M226.723 21.8539L227.535 18.7459L227.773 19.7959C227.446 19.7959 227.171 19.6932 226.947 19.4879C226.732 19.2826 226.625 19.0072 226.625 18.6619C226.625 18.3166 226.732 18.0412 226.947 17.8359C227.171 17.6212 227.442 17.5139 227.759 17.5139C228.086 17.5139 228.356 17.6212 228.571 17.8359C228.786 18.0506 228.893 18.3259 228.893 18.6619C228.893 18.7646 228.884 18.8719 228.865 18.9839C228.856 19.0866 228.828 19.2079 228.781 19.3479C228.744 19.4786 228.678 19.6512 228.585 19.8659L227.857 21.8539H226.723ZM229.691 21.8539L230.503 18.7459L230.741 19.7959C230.414 19.7959 230.139 19.6932 229.915 19.4879C229.7 19.2826 229.593 19.0072 229.593 18.6619C229.593 18.3166 229.7 18.0412 229.915 17.8359C230.139 17.6212 230.41 17.5139 230.727 17.5139C231.054 17.5139 231.324 17.6212 231.539 17.8359C231.754 18.0506 231.861 18.3259 231.861 18.6619C231.861 18.7646 231.852 18.8719 231.833 18.9839C231.824 19.0866 231.796 19.2079 231.749 19.3479C231.712 19.4786 231.646 19.6512 231.553 19.8659L230.825 21.8539H229.691Z" fill="black"/>
</svg>
