<svg width="266" height="13" viewBox="0 0 266 13" fill="none" xmlns="http://www.w3.org/2000/svg">
<path d="M0.11792 9.99982V0.899818H1.07992V9.99982H0.11792Z" fill="#483232"/>
<path d="M8.63912 9.99982L6.06511 3.17482H6.94911L9.28911 9.50582H8.88612L11.2911 3.17482H12.0841L14.4631 9.50582H14.0601L16.4391 3.17482H17.2841L14.6971 9.99982H13.8261L11.5381 4.04582H11.8111L9.51011 9.99982H8.63912Z" fill="#483232"/>
<path d="M21.2655 10.0648C20.6068 10.0648 20.0131 9.91749 19.4845 9.62282C18.9645 9.31949 18.5528 8.90782 18.2495 8.38782C17.9461 7.85915 17.7945 7.25682 17.7945 6.58082C17.7945 5.89615 17.9461 5.29382 18.2495 4.77382C18.5528 4.25382 18.9645 3.84649 19.4845 3.55182C20.0045 3.25715 20.5981 3.10982 21.2655 3.10982C21.9415 3.10982 22.5395 3.25715 23.0595 3.55182C23.5881 3.84649 23.9998 4.25382 24.2945 4.77382C24.5978 5.29382 24.7495 5.89615 24.7495 6.58082C24.7495 7.25682 24.5978 7.85915 24.2945 8.38782C23.9998 8.90782 23.5881 9.31949 23.0595 9.62282C22.5308 9.91749 21.9328 10.0648 21.2655 10.0648ZM21.2655 9.24582C21.7595 9.24582 22.1971 9.13748 22.5785 8.92082C22.9598 8.69549 23.2588 8.38348 23.4755 7.98482C23.7008 7.57749 23.8135 7.10948 23.8135 6.58082C23.8135 6.04348 23.7008 5.57549 23.4755 5.17682C23.2588 4.77815 22.9598 4.47049 22.5785 4.25382C22.1971 4.02849 21.7638 3.91582 21.2785 3.91582C20.7931 3.91582 20.3598 4.02849 19.9785 4.25382C19.5971 4.47049 19.2938 4.77815 19.0685 5.17682C18.8431 5.57549 18.7305 6.04348 18.7305 6.58082C18.7305 7.10948 18.8431 7.57749 19.0685 7.98482C19.2938 8.38348 19.5971 8.69549 19.9785 8.92082C20.3598 9.13748 20.7888 9.24582 21.2655 9.24582Z" fill="#483232"/>
<path d="M29.4549 10.0648C28.8742 10.0648 28.3672 9.95648 27.9339 9.73982C27.5005 9.52315 27.1625 9.19815 26.9199 8.76482C26.6859 8.33149 26.5689 7.78982 26.5689 7.13982V3.17482H27.4919V7.03582C27.4919 7.76382 27.6695 8.31415 28.0249 8.68682C28.3889 9.05082 28.8959 9.23282 29.5459 9.23282C30.0225 9.23282 30.4342 9.13748 30.7809 8.94682C31.1362 8.74749 31.4049 8.46148 31.5869 8.08882C31.7775 7.71615 31.8729 7.26982 31.8729 6.74982V3.17482H32.7959V9.99982H31.9119V8.12782L32.0549 8.46582C31.8382 8.96848 31.5002 9.36282 31.0409 9.64882C30.5902 9.92615 30.0615 10.0648 29.4549 10.0648Z" fill="#483232"/>
<path d="M35.3682 9.99982V0.353818H36.2912V9.99982H35.3682Z" fill="#483232"/>
<path d="M41.5764 10.0648C40.9264 10.0648 40.3414 9.91749 39.8214 9.62282C39.3101 9.32815 38.9071 8.92082 38.6124 8.40082C38.3178 7.87215 38.1704 7.26548 38.1704 6.58082C38.1704 5.88748 38.3178 5.28082 38.6124 4.76082C38.9071 4.24082 39.3101 3.83782 39.8214 3.55182C40.3414 3.25715 40.9264 3.10982 41.5764 3.10982C42.1744 3.10982 42.7074 3.24415 43.1754 3.51282C43.6521 3.78149 44.0291 4.17582 44.3064 4.69582C44.5924 5.20715 44.7354 5.83548 44.7354 6.58082C44.7354 7.31748 44.5968 7.94582 44.3194 8.46582C44.0421 8.98582 43.6651 9.38449 43.1884 9.66182C42.7204 9.93048 42.1831 10.0648 41.5764 10.0648ZM41.6414 9.24582C42.1268 9.24582 42.5601 9.13748 42.9414 8.92082C43.3314 8.69549 43.6348 8.38348 43.8514 7.98482C44.0768 7.57749 44.1894 7.10948 44.1894 6.58082C44.1894 6.04348 44.0768 5.57549 43.8514 5.17682C43.6348 4.77815 43.3314 4.47049 42.9414 4.25382C42.5601 4.02849 42.1268 3.91582 41.6414 3.91582C41.1648 3.91582 40.7358 4.02849 40.3544 4.25382C39.9731 4.47049 39.6698 4.77815 39.4444 5.17682C39.2191 5.57549 39.1064 6.04348 39.1064 6.58082C39.1064 7.10948 39.2191 7.57749 39.4444 7.98482C39.6698 8.38348 39.9731 8.69549 40.3544 8.92082C40.7358 9.13748 41.1648 9.24582 41.6414 9.24582ZM44.2154 9.99982V7.94582L44.3064 6.56782L44.1764 5.18982V0.353818H45.0994V9.99982H44.2154Z" fill="#483232"/>
<path d="M51.0723 9.99982V3.17482H51.9563V5.03382L51.8653 4.70882C52.056 4.18882 52.3767 3.79449 52.8273 3.52582C53.278 3.24849 53.837 3.10982 54.5043 3.10982V4.00682C54.4697 4.00682 54.435 4.00682 54.4003 4.00682C54.3657 3.99815 54.331 3.99382 54.2963 3.99382C53.577 3.99382 53.0137 4.21482 52.6063 4.65682C52.199 5.09015 51.9953 5.70982 51.9953 6.51582V9.99982H51.0723Z" fill="#483232"/>
<path d="M59.0241 10.0648C58.3134 10.0648 57.6894 9.91749 57.1521 9.62282C56.6147 9.31949 56.1944 8.90782 55.8911 8.38782C55.5877 7.85915 55.4361 7.25682 55.4361 6.58082C55.4361 5.90482 55.5791 5.30682 55.8651 4.78682C56.1597 4.26682 56.5584 3.85949 57.0611 3.56482C57.5724 3.26149 58.1444 3.10982 58.7771 3.10982C59.4184 3.10982 59.9861 3.25715 60.4801 3.55182C60.9827 3.83782 61.3771 4.24515 61.6631 4.77382C61.9491 5.29382 62.0921 5.89615 62.0921 6.58082C62.0921 6.62415 62.0877 6.67182 62.0791 6.72382C62.0791 6.76715 62.0791 6.81482 62.0791 6.86682H56.1381V6.17782H61.5851L61.2211 6.45082C61.2211 5.95682 61.1127 5.51915 60.8961 5.13782C60.6881 4.74782 60.4021 4.44449 60.0381 4.22782C59.6741 4.01115 59.2537 3.90282 58.7771 3.90282C58.3091 3.90282 57.8887 4.01115 57.5161 4.22782C57.1434 4.44449 56.8531 4.74782 56.6451 5.13782C56.4371 5.52782 56.3331 5.97415 56.3331 6.47682V6.61982C56.3331 7.13982 56.4457 7.59915 56.6711 7.99782C56.9051 8.38782 57.2257 8.69549 57.6331 8.92082C58.0491 9.13748 58.5214 9.24582 59.0501 9.24582C59.4661 9.24582 59.8517 9.17215 60.2071 9.02482C60.5711 8.87749 60.8831 8.65215 61.1431 8.34882L61.6631 8.94682C61.3597 9.31082 60.9784 9.58815 60.5191 9.77882C60.0684 9.96949 59.5701 10.0648 59.0241 10.0648Z" fill="#483232"/>
<path d="M66.8048 10.0648C66.1288 10.0648 65.5221 9.91749 64.9848 9.62282C64.4561 9.31949 64.0401 8.90782 63.7368 8.38782C63.4334 7.85915 63.2818 7.25682 63.2818 6.58082C63.2818 5.89615 63.4334 5.29382 63.7368 4.77382C64.0401 4.25382 64.4561 3.84649 64.9848 3.55182C65.5221 3.25715 66.1288 3.10982 66.8048 3.10982C67.3854 3.10982 67.9098 3.22249 68.3778 3.44782C68.8458 3.67315 69.2141 4.01115 69.4828 4.46182L68.7938 4.92982C68.5598 4.58315 68.2694 4.32749 67.9228 4.16282C67.5761 3.99815 67.1991 3.91582 66.7918 3.91582C66.3064 3.91582 65.8688 4.02849 65.4788 4.25382C65.0888 4.47049 64.7811 4.77815 64.5558 5.17682C64.3304 5.57549 64.2178 6.04348 64.2178 6.58082C64.2178 7.11815 64.3304 7.58615 64.5558 7.98482C64.7811 8.38348 65.0888 8.69549 65.4788 8.92082C65.8688 9.13748 66.3064 9.24582 66.7918 9.24582C67.1991 9.24582 67.5761 9.16349 67.9228 8.99882C68.2694 8.83415 68.5598 8.58282 68.7938 8.24482L69.4828 8.71282C69.2141 9.15482 68.8458 9.49282 68.3778 9.72682C67.9098 9.95215 67.3854 10.0648 66.8048 10.0648Z" fill="#483232"/>
<path d="M73.9637 10.0648C73.305 10.0648 72.7114 9.91749 72.1827 9.62282C71.6627 9.31949 71.251 8.90782 70.9477 8.38782C70.6444 7.85915 70.4927 7.25682 70.4927 6.58082C70.4927 5.89615 70.6444 5.29382 70.9477 4.77382C71.251 4.25382 71.6627 3.84649 72.1827 3.55182C72.7027 3.25715 73.2964 3.10982 73.9637 3.10982C74.6397 3.10982 75.2377 3.25715 75.7577 3.55182C76.2864 3.84649 76.698 4.25382 76.9927 4.77382C77.296 5.29382 77.4477 5.89615 77.4477 6.58082C77.4477 7.25682 77.296 7.85915 76.9927 8.38782C76.698 8.90782 76.2864 9.31949 75.7577 9.62282C75.229 9.91749 74.631 10.0648 73.9637 10.0648ZM73.9637 9.24582C74.4577 9.24582 74.8954 9.13748 75.2767 8.92082C75.658 8.69549 75.957 8.38348 76.1737 7.98482C76.399 7.57749 76.5117 7.10948 76.5117 6.58082C76.5117 6.04348 76.399 5.57549 76.1737 5.17682C75.957 4.77815 75.658 4.47049 75.2767 4.25382C74.8954 4.02849 74.462 3.91582 73.9767 3.91582C73.4914 3.91582 73.058 4.02849 72.6767 4.25382C72.2954 4.47049 71.992 4.77815 71.7667 5.17682C71.5414 5.57549 71.4287 6.04348 71.4287 6.58082C71.4287 7.10948 71.5414 7.57749 71.7667 7.98482C71.992 8.38348 72.2954 8.69549 72.6767 8.92082C73.058 9.13748 73.487 9.24582 73.9637 9.24582Z" fill="#483232"/>
<path d="M87.8601 3.10982C88.4148 3.10982 88.8958 3.21815 89.3031 3.43482C89.7191 3.64282 90.0398 3.96349 90.2651 4.39682C90.4991 4.83015 90.6161 5.37615 90.6161 6.03482V9.99982H89.6931V6.12582C89.6931 5.40649 89.5198 4.86482 89.1731 4.50082C88.8351 4.12815 88.3541 3.94182 87.7301 3.94182C87.2621 3.94182 86.8548 4.04149 86.5081 4.24082C86.1701 4.43149 85.9058 4.71315 85.7151 5.08582C85.5331 5.44982 85.4421 5.89182 85.4421 6.41182V9.99982H84.5191V6.12582C84.5191 5.40649 84.3458 4.86482 83.9991 4.50082C83.6524 4.12815 83.1671 3.94182 82.5431 3.94182C82.0838 3.94182 81.6808 4.04149 81.3341 4.24082C80.9874 4.43149 80.7188 4.71315 80.5281 5.08582C80.3461 5.44982 80.2551 5.89182 80.2551 6.41182V9.99982H79.3321V3.17482H80.2161V5.02082L80.0731 4.69582C80.2811 4.20182 80.6148 3.81615 81.0741 3.53882C81.5421 3.25282 82.0924 3.10982 82.7251 3.10982C83.3924 3.10982 83.9601 3.27882 84.4281 3.61682C84.8961 3.94615 85.1994 4.44449 85.3381 5.11182L84.9741 4.96882C85.1734 4.41415 85.5244 3.96782 86.0271 3.62982C86.5384 3.28315 87.1494 3.10982 87.8601 3.10982Z" fill="#483232"/>
<path d="M101.647 3.10982C102.202 3.10982 102.683 3.21815 103.09 3.43482C103.506 3.64282 103.827 3.96349 104.052 4.39682C104.286 4.83015 104.403 5.37615 104.403 6.03482V9.99982H103.48V6.12582C103.48 5.40649 103.307 4.86482 102.96 4.50082C102.622 4.12815 102.141 3.94182 101.517 3.94182C101.049 3.94182 100.642 4.04149 100.295 4.24082C99.9572 4.43149 99.6929 4.71315 99.5022 5.08582C99.3202 5.44982 99.2292 5.89182 99.2292 6.41182V9.99982H98.3062V6.12582C98.3062 5.40649 98.1329 4.86482 97.7862 4.50082C97.4395 4.12815 96.9542 3.94182 96.3302 3.94182C95.8709 3.94182 95.4679 4.04149 95.1212 4.24082C94.7745 4.43149 94.5059 4.71315 94.3152 5.08582C94.1332 5.44982 94.0422 5.89182 94.0422 6.41182V9.99982H93.1192V3.17482H94.0032V5.02082L93.8602 4.69582C94.0682 4.20182 94.4019 3.81615 94.8612 3.53882C95.3292 3.25282 95.8795 3.10982 96.5122 3.10982C97.1795 3.10982 97.7472 3.27882 98.2152 3.61682C98.6832 3.94615 98.9865 4.44449 99.1252 5.11182L98.7612 4.96882C98.9605 4.41415 99.3115 3.96782 99.8142 3.62982C100.326 3.28315 100.937 3.10982 101.647 3.10982Z" fill="#483232"/>
<path d="M109.805 10.0648C109.095 10.0648 108.471 9.91749 107.933 9.62282C107.396 9.31949 106.976 8.90782 106.672 8.38782C106.369 7.85915 106.217 7.25682 106.217 6.58082C106.217 5.90482 106.36 5.30682 106.646 4.78682C106.941 4.26682 107.34 3.85949 107.842 3.56482C108.354 3.26149 108.926 3.10982 109.558 3.10982C110.2 3.10982 110.767 3.25715 111.261 3.55182C111.764 3.83782 112.158 4.24515 112.444 4.77382C112.73 5.29382 112.873 5.89615 112.873 6.58082C112.873 6.62415 112.869 6.67182 112.86 6.72382C112.86 6.76715 112.86 6.81482 112.86 6.86682H106.919V6.17782H112.366L112.002 6.45082C112.002 5.95682 111.894 5.51915 111.677 5.13782C111.469 4.74782 111.183 4.44449 110.819 4.22782C110.455 4.01115 110.035 3.90282 109.558 3.90282C109.09 3.90282 108.67 4.01115 108.297 4.22782C107.925 4.44449 107.634 4.74782 107.426 5.13782C107.218 5.52782 107.114 5.97415 107.114 6.47682V6.61982C107.114 7.13982 107.227 7.59915 107.452 7.99782C107.686 8.38782 108.007 8.69549 108.414 8.92082C108.83 9.13748 109.303 9.24582 109.831 9.24582C110.247 9.24582 110.633 9.17215 110.988 9.02482C111.352 8.87749 111.664 8.65215 111.924 8.34882L112.444 8.94682C112.141 9.31082 111.76 9.58815 111.3 9.77882C110.85 9.96949 110.351 10.0648 109.805 10.0648Z" fill="#483232"/>
<path d="M118.236 3.10982C118.791 3.10982 119.276 3.21815 119.692 3.43482C120.117 3.64282 120.446 3.96349 120.68 4.39682C120.923 4.83015 121.044 5.37615 121.044 6.03482V9.99982H120.121V6.12582C120.121 5.40649 119.939 4.86482 119.575 4.50082C119.22 4.12815 118.717 3.94182 118.067 3.94182C117.582 3.94182 117.157 4.04149 116.793 4.24082C116.438 4.43149 116.16 4.71315 115.961 5.08582C115.77 5.44982 115.675 5.89182 115.675 6.41182V9.99982H114.752V3.17482H115.636V5.04682L115.493 4.69582C115.71 4.20182 116.056 3.81615 116.533 3.53882C117.01 3.25282 117.577 3.10982 118.236 3.10982Z" fill="#483232"/>
<path d="M126.254 10.0648C125.604 10.0648 125.019 9.91749 124.499 9.62282C123.988 9.32815 123.585 8.92082 123.29 8.40082C122.996 7.87215 122.848 7.26548 122.848 6.58082C122.848 5.88748 122.996 5.28082 123.29 4.76082C123.585 4.24082 123.988 3.83782 124.499 3.55182C125.019 3.25715 125.604 3.10982 126.254 3.10982C126.852 3.10982 127.385 3.24415 127.853 3.51282C128.33 3.78149 128.707 4.17582 128.984 4.69582C129.27 5.20715 129.413 5.83548 129.413 6.58082C129.413 7.31748 129.275 7.94582 128.997 8.46582C128.72 8.98582 128.343 9.38449 127.866 9.66182C127.398 9.93048 126.861 10.0648 126.254 10.0648ZM126.319 9.24582C126.805 9.24582 127.238 9.13748 127.619 8.92082C128.009 8.69549 128.313 8.38348 128.529 7.98482C128.755 7.57749 128.867 7.10948 128.867 6.58082C128.867 6.04348 128.755 5.57549 128.529 5.17682C128.313 4.77815 128.009 4.47049 127.619 4.25382C127.238 4.02849 126.805 3.91582 126.319 3.91582C125.843 3.91582 125.414 4.02849 125.032 4.25382C124.651 4.47049 124.348 4.77815 124.122 5.17682C123.897 5.57549 123.784 6.04348 123.784 6.58082C123.784 7.10948 123.897 7.57749 124.122 7.98482C124.348 8.38348 124.651 8.69549 125.032 8.92082C125.414 9.13748 125.843 9.24582 126.319 9.24582ZM128.893 9.99982V7.94582L128.984 6.56782L128.854 5.18982V0.353818H129.777V9.99982H128.893Z" fill="#483232"/>
<path d="M137.908 10.0648C137.267 10.0648 136.773 9.89149 136.426 9.54482C136.079 9.19815 135.906 8.70849 135.906 8.07582V1.66682H136.829V8.02382C136.829 8.42249 136.929 8.73015 137.128 8.94682C137.336 9.16348 137.631 9.27182 138.012 9.27182C138.419 9.27182 138.757 9.15482 139.026 8.92082L139.351 9.58382C139.169 9.74849 138.948 9.86982 138.688 9.94782C138.437 10.0258 138.177 10.0648 137.908 10.0648ZM134.684 3.94182V3.17482H138.909V3.94182H134.684Z" fill="#483232"/>
<path d="M144.515 3.10982C145.07 3.10982 145.555 3.21815 145.971 3.43482C146.396 3.64282 146.725 3.96349 146.959 4.39682C147.202 4.83015 147.323 5.37615 147.323 6.03482V9.99982H146.4V6.12582C146.4 5.40649 146.218 4.86482 145.854 4.50082C145.499 4.12815 144.996 3.94182 144.346 3.94182C143.861 3.94182 143.436 4.04149 143.072 4.24082C142.717 4.43149 142.44 4.71315 142.24 5.08582C142.05 5.44982 141.954 5.89182 141.954 6.41182V9.99982H141.031V0.353818H141.954V5.04682L141.772 4.69582C141.989 4.20182 142.336 3.81615 142.812 3.53882C143.289 3.25282 143.857 3.10982 144.515 3.10982Z" fill="#483232"/>
<path d="M149.816 9.99982V3.17482H150.739V9.99982H149.816ZM150.284 1.66682C150.094 1.66682 149.933 1.60182 149.803 1.47182C149.673 1.34182 149.608 1.18582 149.608 1.00382C149.608 0.821818 149.673 0.670151 149.803 0.548818C149.933 0.418818 150.094 0.353818 150.284 0.353818C150.475 0.353818 150.635 0.414485 150.765 0.535818C150.895 0.657151 150.96 0.808818 150.96 0.990819C150.96 1.18149 150.895 1.34182 150.765 1.47182C150.644 1.60182 150.484 1.66682 150.284 1.66682Z" fill="#483232"/>
<path d="M155.141 10.0648C154.577 10.0648 154.044 9.98682 153.542 9.83082C153.039 9.66615 152.645 9.46249 152.359 9.21982L152.775 8.49182C153.052 8.69982 153.407 8.88182 153.841 9.03782C154.274 9.18515 154.729 9.25882 155.206 9.25882C155.856 9.25882 156.324 9.15915 156.61 8.95982C156.896 8.75182 157.039 8.47882 157.039 8.14082C157.039 7.88949 156.956 7.69449 156.792 7.55582C156.636 7.40849 156.428 7.30015 156.168 7.23082C155.908 7.15282 155.617 7.08782 155.297 7.03582C154.976 6.98382 154.655 6.92315 154.335 6.85382C154.023 6.78449 153.737 6.68482 153.477 6.55482C153.217 6.41615 153.004 6.22982 152.84 5.99582C152.684 5.76182 152.606 5.44982 152.606 5.05982C152.606 4.68715 152.71 4.35349 152.918 4.05882C153.126 3.76415 153.429 3.53449 153.828 3.36982C154.235 3.19649 154.729 3.10982 155.31 3.10982C155.752 3.10982 156.194 3.17049 156.636 3.29182C157.078 3.40449 157.442 3.55615 157.728 3.74682L157.325 4.48782C157.021 4.27982 156.696 4.13249 156.35 4.04582C156.003 3.95049 155.656 3.90282 155.31 3.90282C154.694 3.90282 154.239 4.01115 153.945 4.22782C153.659 4.43582 153.516 4.70448 153.516 5.03382C153.516 5.29382 153.594 5.49749 153.75 5.64482C153.914 5.79215 154.127 5.90915 154.387 5.99582C154.655 6.07382 154.946 6.13882 155.258 6.19082C155.578 6.24282 155.895 6.30782 156.207 6.38582C156.527 6.45515 156.818 6.55482 157.078 6.68482C157.346 6.80615 157.559 6.98382 157.715 7.21782C157.879 7.44315 157.962 7.74215 157.962 8.11482C157.962 8.51348 157.849 8.86015 157.624 9.15482C157.407 9.44082 157.086 9.66615 156.662 9.83082C156.246 9.98682 155.739 10.0648 155.141 10.0648Z" fill="#483232"/>
<path d="M163.214 9.99982V2.31682C163.214 1.71015 163.391 1.22049 163.747 0.847818C164.102 0.475152 164.613 0.288818 165.281 0.288818C165.541 0.288818 165.792 0.323485 166.035 0.392818C166.277 0.462152 166.481 0.570485 166.646 0.717818L166.334 1.40682C166.204 1.29415 166.052 1.21182 165.879 1.15982C165.705 1.09915 165.519 1.06882 165.32 1.06882C164.93 1.06882 164.631 1.17715 164.423 1.39382C164.215 1.61048 164.111 1.93115 164.111 2.35582V3.39582L164.137 3.82482V9.99982H163.214ZM161.992 3.94182V3.17482H166.217V3.94182H161.992Z" fill="#483232"/>
<path d="M170.131 10.0648C169.472 10.0648 168.878 9.91749 168.35 9.62282C167.83 9.31949 167.418 8.90782 167.115 8.38782C166.811 7.85915 166.66 7.25682 166.66 6.58082C166.66 5.89615 166.811 5.29382 167.115 4.77382C167.418 4.25382 167.83 3.84649 168.35 3.55182C168.87 3.25715 169.463 3.10982 170.131 3.10982C170.807 3.10982 171.405 3.25715 171.925 3.55182C172.453 3.84649 172.865 4.25382 173.16 4.77382C173.463 5.29382 173.615 5.89615 173.615 6.58082C173.615 7.25682 173.463 7.85915 173.16 8.38782C172.865 8.90782 172.453 9.31949 171.925 9.62282C171.396 9.91749 170.798 10.0648 170.131 10.0648ZM170.131 9.24582C170.625 9.24582 171.062 9.13748 171.444 8.92082C171.825 8.69549 172.124 8.38348 172.341 7.98482C172.566 7.57749 172.679 7.10948 172.679 6.58082C172.679 6.04348 172.566 5.57549 172.341 5.17682C172.124 4.77815 171.825 4.47049 171.444 4.25382C171.062 4.02849 170.629 3.91582 170.144 3.91582C169.658 3.91582 169.225 4.02849 168.844 4.25382C168.462 4.47049 168.159 4.77815 167.934 5.17682C167.708 5.57549 167.596 6.04348 167.596 6.58082C167.596 7.10948 167.708 7.57749 167.934 7.98482C168.159 8.38348 168.462 8.69549 168.844 8.92082C169.225 9.13748 169.654 9.24582 170.131 9.24582Z" fill="#483232"/>
<path d="M175.499 9.99982V3.17482H176.383V5.03382L176.292 4.70882C176.483 4.18882 176.803 3.79449 177.254 3.52582C177.705 3.24849 178.264 3.10982 178.931 3.10982V4.00682C178.896 4.00682 178.862 4.00682 178.827 4.00682C178.792 3.99815 178.758 3.99382 178.723 3.99382C178.004 3.99382 177.44 4.21482 177.033 4.65682C176.626 5.09015 176.422 5.70982 176.422 6.51582V9.99982H175.499Z" fill="#483232"/>
<path d="M188.396 9.99982V8.49182L188.357 8.24482V5.72282C188.357 5.14215 188.193 4.69582 187.863 4.38382C187.543 4.07182 187.062 3.91582 186.42 3.91582C185.978 3.91582 185.558 3.98949 185.159 4.13682C184.761 4.28415 184.423 4.47915 184.145 4.72182L183.729 4.03282C184.076 3.73815 184.492 3.51282 184.977 3.35682C185.463 3.19215 185.974 3.10982 186.511 3.10982C187.395 3.10982 188.076 3.33082 188.552 3.77282C189.038 4.20615 189.28 4.86915 189.28 5.76182V9.99982H188.396ZM186.043 10.0648C185.532 10.0648 185.086 9.98249 184.704 9.81782C184.332 9.64449 184.046 9.41049 183.846 9.11582C183.647 8.81249 183.547 8.46582 183.547 8.07582C183.547 7.72049 183.63 7.39982 183.794 7.11382C183.968 6.81915 184.245 6.58515 184.626 6.41182C185.016 6.22982 185.536 6.13882 186.186 6.13882H188.539V6.82782H186.212C185.554 6.82782 185.094 6.94482 184.834 7.17882C184.583 7.41282 184.457 7.70315 184.457 8.04982C184.457 8.43982 184.609 8.75182 184.912 8.98582C185.216 9.21982 185.64 9.33682 186.186 9.33682C186.706 9.33682 187.153 9.21982 187.525 8.98582C187.907 8.74315 188.184 8.39649 188.357 7.94582L188.565 8.58282C188.392 9.03349 188.089 9.39315 187.655 9.66182C187.231 9.93048 186.693 10.0648 186.043 10.0648Z" fill="#483232"/>
<path d="M191.787 9.99982V0.353818H192.71V9.99982H191.787Z" fill="#483232"/>
<path d="M195.278 9.99982V0.353818H196.201V9.99982H195.278Z" fill="#483232"/>
<path d="M210.7 3.10982C211.255 3.10982 211.736 3.21815 212.143 3.43482C212.559 3.64282 212.88 3.96349 213.105 4.39682C213.339 4.83015 213.456 5.37615 213.456 6.03482V9.99982H212.533V6.12582C212.533 5.40649 212.36 4.86482 212.013 4.50082C211.675 4.12815 211.194 3.94182 210.57 3.94182C210.102 3.94182 209.695 4.04149 209.348 4.24082C209.01 4.43149 208.746 4.71315 208.555 5.08582C208.373 5.44982 208.282 5.89182 208.282 6.41182V9.99982H207.359V6.12582C207.359 5.40649 207.186 4.86482 206.839 4.50082C206.492 4.12815 206.007 3.94182 205.383 3.94182C204.924 3.94182 204.521 4.04149 204.174 4.24082C203.827 4.43149 203.559 4.71315 203.368 5.08582C203.186 5.44982 203.095 5.89182 203.095 6.41182V9.99982H202.172V3.17482H203.056V5.02082L202.913 4.69582C203.121 4.20182 203.455 3.81615 203.914 3.53882C204.382 3.25282 204.932 3.10982 205.565 3.10982C206.232 3.10982 206.8 3.27882 207.268 3.61682C207.736 3.94615 208.039 4.44449 208.178 5.11182L207.814 4.96882C208.013 4.41415 208.364 3.96782 208.867 3.62982C209.378 3.28315 209.989 3.10982 210.7 3.10982Z" fill="#483232"/>
<path d="M215.884 12.5868C215.563 12.5868 215.256 12.5348 214.961 12.4308C214.675 12.3268 214.428 12.1708 214.22 11.9628L214.649 11.2738C214.822 11.4385 215.009 11.5642 215.208 11.6508C215.416 11.7462 215.646 11.7938 215.897 11.7938C216.2 11.7938 216.46 11.7072 216.677 11.5338C216.902 11.3692 217.115 11.0745 217.314 10.6498L217.756 9.64882L217.86 9.50582L220.668 3.17482H221.578L218.159 10.8188C217.968 11.2608 217.756 11.6118 217.522 11.8718C217.297 12.1318 217.05 12.3138 216.781 12.4178C216.512 12.5305 216.213 12.5868 215.884 12.5868ZM217.704 10.1948L214.558 3.17482H215.52L218.302 9.44082L217.704 10.1948Z" fill="#483232"/>
<path d="M226.436 9.99982V2.31682C226.436 1.71015 226.614 1.22049 226.969 0.847818C227.325 0.475152 227.836 0.288818 228.503 0.288818C228.763 0.288818 229.015 0.323485 229.257 0.392818C229.5 0.462152 229.704 0.570485 229.868 0.717818L229.556 1.40682C229.426 1.29415 229.275 1.21182 229.101 1.15982C228.928 1.09915 228.742 1.06882 228.542 1.06882C228.152 1.06882 227.853 1.17715 227.645 1.39382C227.437 1.61048 227.333 1.93115 227.333 2.35582V3.39582L227.359 3.82482V9.99982H226.436ZM225.214 3.94182V3.17482H229.439V3.94182H225.214Z" fill="#483232"/>
<path d="M230.686 9.99982V3.17482H231.57V5.03382L231.479 4.70882C231.669 4.18882 231.99 3.79449 232.441 3.52582C232.891 3.24849 233.45 3.10982 234.118 3.10982V4.00682C234.083 4.00682 234.048 4.00682 234.014 4.00682C233.979 3.99815 233.944 3.99382 233.91 3.99382C233.19 3.99382 232.627 4.21482 232.22 4.65682C231.812 5.09015 231.609 5.70982 231.609 6.51582V9.99982H230.686Z" fill="#483232"/>
<path d="M235.802 9.99982V3.17482H236.725V9.99982H235.802ZM236.27 1.66682C236.079 1.66682 235.919 1.60182 235.789 1.47182C235.659 1.34182 235.594 1.18582 235.594 1.00382C235.594 0.821818 235.659 0.670151 235.789 0.548818C235.919 0.418818 236.079 0.353818 236.27 0.353818C236.461 0.353818 236.621 0.414485 236.751 0.535818C236.881 0.657151 236.946 0.808818 236.946 0.990819C236.946 1.18149 236.881 1.34182 236.751 1.47182C236.63 1.60182 236.469 1.66682 236.27 1.66682Z" fill="#483232"/>
<path d="M242.192 10.0648C241.481 10.0648 240.857 9.91749 240.32 9.62282C239.783 9.31949 239.362 8.90782 239.059 8.38782C238.756 7.85915 238.604 7.25682 238.604 6.58082C238.604 5.90482 238.747 5.30682 239.033 4.78682C239.328 4.26682 239.726 3.85949 240.229 3.56482C240.74 3.26149 241.312 3.10982 241.945 3.10982C242.586 3.10982 243.154 3.25715 243.648 3.55182C244.151 3.83782 244.545 4.24515 244.831 4.77382C245.117 5.29382 245.26 5.89615 245.26 6.58082C245.26 6.62415 245.256 6.67182 245.247 6.72382C245.247 6.76715 245.247 6.81482 245.247 6.86682H239.306V6.17782H244.753L244.389 6.45082C244.389 5.95682 244.281 5.51915 244.064 5.13782C243.856 4.74782 243.57 4.44449 243.206 4.22782C242.842 4.01115 242.422 3.90282 241.945 3.90282C241.477 3.90282 241.057 4.01115 240.684 4.22782C240.311 4.44449 240.021 4.74782 239.813 5.13782C239.605 5.52782 239.501 5.97415 239.501 6.47682V6.61982C239.501 7.13982 239.614 7.59915 239.839 7.99782C240.073 8.38782 240.394 8.69549 240.801 8.92082C241.217 9.13748 241.689 9.24582 242.218 9.24582C242.634 9.24582 243.02 9.17215 243.375 9.02482C243.739 8.87749 244.051 8.65215 244.311 8.34882L244.831 8.94682C244.528 9.31082 244.146 9.58815 243.687 9.77882C243.236 9.96949 242.738 10.0648 242.192 10.0648Z" fill="#483232"/>
<path d="M250.623 3.10982C251.177 3.10982 251.663 3.21815 252.079 3.43482C252.503 3.64282 252.833 3.96349 253.067 4.39682C253.309 4.83015 253.431 5.37615 253.431 6.03482V9.99982H252.508V6.12582C252.508 5.40649 252.326 4.86482 251.962 4.50082C251.606 4.12815 251.104 3.94182 250.454 3.94182C249.968 3.94182 249.544 4.04149 249.18 4.24082C248.824 4.43149 248.547 4.71315 248.348 5.08582C248.157 5.44982 248.062 5.89182 248.062 6.41182V9.99982H247.139V3.17482H248.023V5.04682L247.88 4.69582C248.096 4.20182 248.443 3.81615 248.92 3.53882C249.396 3.25282 249.964 3.10982 250.623 3.10982Z" fill="#483232"/>
<path d="M258.641 10.0648C257.991 10.0648 257.406 9.91749 256.886 9.62282C256.375 9.32815 255.972 8.92082 255.677 8.40082C255.382 7.87215 255.235 7.26548 255.235 6.58082C255.235 5.88748 255.382 5.28082 255.677 4.76082C255.972 4.24082 256.375 3.83782 256.886 3.55182C257.406 3.25715 257.991 3.10982 258.641 3.10982C259.239 3.10982 259.772 3.24415 260.24 3.51282C260.717 3.78149 261.094 4.17582 261.371 4.69582C261.657 5.20715 261.8 5.83548 261.8 6.58082C261.8 7.31748 261.661 7.94582 261.384 8.46582C261.107 8.98582 260.73 9.38449 260.253 9.66182C259.785 9.93048 259.248 10.0648 258.641 10.0648ZM258.706 9.24582C259.191 9.24582 259.625 9.13748 260.006 8.92082C260.396 8.69549 260.699 8.38348 260.916 7.98482C261.141 7.57749 261.254 7.10948 261.254 6.58082C261.254 6.04348 261.141 5.57549 260.916 5.17682C260.699 4.77815 260.396 4.47049 260.006 4.25382C259.625 4.02849 259.191 3.91582 258.706 3.91582C258.229 3.91582 257.8 4.02849 257.419 4.25382C257.038 4.47049 256.734 4.77815 256.509 5.17682C256.284 5.57549 256.171 6.04348 256.171 6.58082C256.171 7.10948 256.284 7.57749 256.509 7.98482C256.734 8.38348 257.038 8.69549 257.419 8.92082C257.8 9.13748 258.229 9.24582 258.706 9.24582ZM261.28 9.99982V7.94582L261.371 6.56782L261.241 5.18982V0.353818H262.164V9.99982H261.28Z" fill="#483232"/>
<path d="M264.773 7.26982L264.591 0.899818H265.683L265.488 7.26982H264.773ZM265.137 10.0648C264.947 10.0648 264.782 9.99982 264.643 9.86982C264.513 9.73115 264.448 9.57082 264.448 9.38882C264.448 9.19815 264.513 9.04215 264.643 8.92082C264.782 8.79082 264.947 8.72582 265.137 8.72582C265.337 8.72582 265.497 8.79082 265.618 8.92082C265.748 9.04215 265.813 9.19815 265.813 9.38882C265.813 9.57082 265.748 9.73115 265.618 9.86982C265.497 9.99982 265.337 10.0648 265.137 10.0648Z" fill="#483232"/>
</svg>
