<svg width="109" height="59" viewBox="0 0 109 59" fill="none" xmlns="http://www.w3.org/2000/svg">
<rect x="5" y="6" width="98" height="46" rx="23" fill="white"/>
<path d="M80 10.6665C70.0615 10.6665 61.6666 19.0613 61.6666 28.9998C61.6666 38.9383 70.0615 47.3332 80 47.3332C89.9385 47.3332 98.3333 38.9383 98.3333 28.9998C98.3333 19.0613 89.9385 10.6665 80 10.6665ZM80 19.8332C83.1661 19.8332 85.5 22.1652 85.5 25.3332C85.5 28.5012 83.1661 30.8332 80 30.8332C76.8356 30.8332 74.5 28.5012 74.5 25.3332C74.5 22.1652 76.8356 19.8332 80 19.8332ZM70.639 37.7485C72.2835 35.3285 75.0261 33.7152 78.1666 33.7152H81.8333C84.9756 33.7152 87.7165 35.3285 89.361 37.7485C87.018 40.2565 83.6941 41.8332 80 41.8332C76.3058 41.8332 72.982 40.2565 70.639 37.7485Z" fill="#C2C6CC"/>
<path d="M27 23C27 22.7348 27.1054 22.4804 27.2929 22.2929C27.4804 22.1054 27.7348 22 28 22H46C46.2652 22 46.5196 22.1054 46.7071 22.2929C46.8946 22.4804 47 22.7348 47 23C47 23.2652 46.8946 23.5196 46.7071 23.7071C46.5196 23.8946 46.2652 24 46 24H28C27.7348 24 27.4804 23.8946 27.2929 23.7071C27.1054 23.5196 27 23.2652 27 23Z" fill="#484848"/>
<path d="M27 29.0322C27 28.767 27.1054 28.5127 27.2929 28.3251C27.4804 28.1376 27.7348 28.0322 28 28.0322H46C46.2652 28.0322 46.5196 28.1376 46.7071 28.3251C46.8946 28.5127 47 28.767 47 29.0322C47 29.2974 46.8946 29.5518 46.7071 29.7393C46.5196 29.9269 46.2652 30.0322 46 30.0322H28C27.7348 30.0322 27.4804 29.9269 27.2929 29.7393C27.1054 29.5518 27 29.2974 27 29.0322Z" fill="#484848"/>
<path d="M28 34.064C27.7348 34.064 27.4804 34.1693 27.2929 34.3569C27.1054 34.5444 27 34.7987 27 35.064C27 35.3292 27.1054 35.5835 27.2929 35.7711C27.4804 35.9586 27.7348 36.064 28 36.064H46C46.2652 36.064 46.5196 35.9586 46.7071 35.7711C46.8946 35.5835 47 35.3292 47 35.064C47 34.7987 46.8946 34.5444 46.7071 34.3569C46.5196 34.1693 46.2652 34.064 46 34.064H28Z" fill="#484848"/>
</svg>
