<svg width="78" height="12" viewBox="0 0 78 12" fill="none" xmlns="http://www.w3.org/2000/svg">
<path d="M6.11557 11.3997C5.29157 11.3997 4.53957 11.2637 3.85957 10.9917C3.17957 10.7277 2.59157 10.3517 2.09557 9.8637C1.60757 9.3837 1.22757 8.8117 0.95557 8.1477C0.69157 7.4757 0.55957 6.7437 0.55957 5.9517C0.55957 5.1517 0.69157 4.4237 0.95557 3.7677C1.22757 3.1037 1.61157 2.5317 2.10757 2.0517C2.61157 1.5637 3.20757 1.1877 3.89557 0.923703C4.58357 0.659703 5.33957 0.527703 6.16357 0.527703C6.97957 0.527703 7.72357 0.655703 8.39557 0.911703C9.07557 1.1677 9.66357 1.5317 10.1596 2.0037C10.6556 2.4677 11.0356 3.0237 11.2996 3.6717C11.5716 4.3197 11.7076 5.0357 11.7076 5.8197C11.7076 6.4917 11.6276 7.0717 11.4676 7.5597C11.3156 8.0397 11.0916 8.4117 10.7956 8.6757C10.4996 8.9317 10.1436 9.0597 9.72757 9.0597C9.31957 9.0597 8.99157 8.9357 8.74357 8.6877C8.49557 8.4397 8.37157 8.0917 8.37157 7.6437V6.6957L8.46757 5.9277L8.34757 4.7277V2.9157H9.12757V7.4637C9.12757 7.7997 9.19957 8.0357 9.34357 8.1717C9.48757 8.3077 9.66357 8.3757 9.87157 8.3757C10.1196 8.3757 10.3356 8.2757 10.5196 8.0757C10.7036 7.8757 10.8436 7.5877 10.9396 7.2117C11.0436 6.8277 11.0956 6.3677 11.0956 5.8317C11.0956 5.1277 10.9756 4.4877 10.7356 3.9117C10.4956 3.3357 10.1556 2.8397 9.71557 2.4237C9.27557 2.0077 8.75557 1.6917 8.15557 1.4757C7.55557 1.2517 6.89157 1.1397 6.16357 1.1397C5.43557 1.1397 4.76757 1.2557 4.15957 1.4877C3.55157 1.7197 3.02757 2.0517 2.58757 2.4837C2.15557 2.9077 1.81957 3.4157 1.57957 4.0077C1.33957 4.5917 1.21957 5.2397 1.21957 5.9517C1.21957 6.6637 1.33557 7.3157 1.56757 7.9077C1.80757 8.4997 2.14357 9.0077 2.57557 9.4317C3.00757 9.8637 3.52357 10.1957 4.12357 10.4277C4.72357 10.6677 5.38757 10.7877 6.11557 10.7877C6.47557 10.7877 6.85957 10.7437 7.26757 10.6557C7.68357 10.5677 8.06757 10.4357 8.41957 10.2597L8.62357 10.8477C8.26357 11.0317 7.85557 11.1677 7.39957 11.2557C6.94357 11.3517 6.51557 11.3997 6.11557 11.3997ZM5.97157 9.0597C5.40357 9.0597 4.89557 8.9277 4.44757 8.6637C3.99957 8.3917 3.64357 8.0237 3.37957 7.5597C3.12357 7.0877 2.99557 6.5517 2.99557 5.9517C2.99557 5.3517 3.12357 4.8197 3.37957 4.3557C3.64357 3.8917 3.99957 3.5277 4.44757 3.2637C4.89557 2.9997 5.40357 2.8677 5.97157 2.8677C6.52357 2.8677 7.01157 2.9917 7.43557 3.2397C7.86757 3.4877 8.20357 3.8437 8.44357 4.3077C8.69157 4.7637 8.81557 5.3117 8.81557 5.9517C8.81557 6.5917 8.69157 7.1437 8.44357 7.6077C8.20357 8.0717 7.87157 8.4317 7.44757 8.6877C7.02357 8.9357 6.53157 9.0597 5.97157 9.0597ZM6.07957 8.3637C6.51157 8.3637 6.89957 8.2637 7.24357 8.0637C7.59557 7.8637 7.86757 7.5837 8.05957 7.2237C8.25957 6.8557 8.35957 6.4317 8.35957 5.9517C8.35957 5.4637 8.25957 5.0437 8.05957 4.6917C7.86757 4.3317 7.59557 4.0557 7.24357 3.8637C6.89957 3.6637 6.51157 3.5637 6.07957 3.5637C5.63157 3.5637 5.23557 3.6637 4.89157 3.8637C4.54757 4.0557 4.27557 4.3317 4.07557 4.6917C3.88357 5.0517 3.78757 5.4717 3.78757 5.9517C3.78757 6.4317 3.88357 6.8517 4.07557 7.2117C4.27557 7.5717 4.54757 7.8557 4.89157 8.0637C5.23557 8.2637 5.63157 8.3637 6.07957 8.3637Z" fill="#483232"/>
<path d="M13.5469 11.3877C13.2909 11.3877 13.0469 11.3517 12.8149 11.2797C12.5749 11.2157 12.3749 11.1157 12.2149 10.9797L12.5149 10.3317C12.7709 10.5477 13.0989 10.6557 13.4989 10.6557C13.8349 10.6557 14.0909 10.5557 14.2669 10.3557C14.4509 10.1557 14.5429 9.8597 14.5429 9.4677V2.6997H15.3949V9.4677C15.3949 10.0517 15.2349 10.5157 14.9149 10.8597C14.6029 11.2117 14.1469 11.3877 13.5469 11.3877ZM14.9749 1.3077C14.7989 1.3077 14.6509 1.2477 14.5309 1.1277C14.4109 1.0077 14.3509 0.863703 14.3509 0.695703C14.3509 0.527703 14.4109 0.387703 14.5309 0.275703C14.6509 0.155703 14.7989 0.0957031 14.9749 0.0957031C15.1509 0.0957031 15.2989 0.151703 15.4189 0.263703C15.5389 0.375703 15.5989 0.515703 15.5989 0.683703C15.5989 0.859704 15.5389 1.0077 15.4189 1.1277C15.3069 1.2477 15.1589 1.3077 14.9749 1.3077Z" fill="#483232"/>
<path d="M21.7239 8.9997V7.6077L21.6879 7.3797V5.0517C21.6879 4.5157 21.5359 4.1037 21.2319 3.8157C20.9359 3.5277 20.4919 3.3837 19.8999 3.3837C19.4919 3.3837 19.1039 3.4517 18.7359 3.5877C18.3679 3.7237 18.0559 3.9037 17.7999 4.1277L17.4159 3.4917C17.7359 3.2197 18.1199 3.0117 18.5679 2.8677C19.0159 2.7157 19.4879 2.6397 19.9839 2.6397C20.7999 2.6397 21.4279 2.8437 21.8679 3.2517C22.3159 3.6517 22.5399 4.2637 22.5399 5.0877V8.9997H21.7239ZM19.5519 9.0597C19.0799 9.0597 18.6679 8.9837 18.3159 8.8317C17.9719 8.6717 17.7079 8.4557 17.5239 8.1837C17.3399 7.9037 17.2479 7.5837 17.2479 7.2237C17.2479 6.8957 17.3239 6.5997 17.4759 6.3357C17.6359 6.0637 17.8919 5.8477 18.2439 5.6877C18.6039 5.5197 19.0839 5.4357 19.6839 5.4357H21.8559V6.0717H19.7079C19.0999 6.0717 18.6759 6.1797 18.4359 6.3957C18.2039 6.6117 18.0879 6.8797 18.0879 7.1997C18.0879 7.5597 18.2279 7.8477 18.5079 8.0637C18.7879 8.2797 19.1799 8.3877 19.6839 8.3877C20.1639 8.3877 20.5759 8.2797 20.9199 8.0637C21.2719 7.8397 21.5279 7.5197 21.6879 7.1037L21.8799 7.6917C21.7199 8.1077 21.4399 8.4397 21.0399 8.6877C20.6479 8.9357 20.1519 9.0597 19.5519 9.0597Z" fill="#483232"/>
<path d="M27.47 9.0597C26.846 9.0597 26.286 8.9237 25.79 8.6517C25.302 8.3717 24.918 7.9917 24.638 7.5117C24.358 7.0237 24.218 6.4677 24.218 5.8437C24.218 5.2117 24.358 4.6557 24.638 4.1757C24.918 3.6957 25.302 3.3197 25.79 3.0477C26.286 2.7757 26.846 2.6397 27.47 2.6397C28.006 2.6397 28.49 2.7437 28.922 2.9517C29.354 3.1597 29.694 3.4717 29.942 3.8877L29.306 4.3197C29.09 3.9997 28.822 3.7637 28.502 3.6117C28.182 3.4597 27.834 3.3837 27.458 3.3837C27.01 3.3837 26.606 3.4877 26.246 3.6957C25.886 3.8957 25.602 4.1797 25.394 4.5477C25.186 4.9157 25.082 5.3477 25.082 5.8437C25.082 6.3397 25.186 6.7717 25.394 7.1397C25.602 7.5077 25.886 7.7957 26.246 8.0037C26.606 8.2037 27.01 8.3037 27.458 8.3037C27.834 8.3037 28.182 8.2277 28.502 8.0757C28.822 7.9237 29.09 7.6917 29.306 7.3797L29.942 7.8117C29.694 8.2197 29.354 8.5317 28.922 8.7477C28.49 8.9557 28.006 9.0597 27.47 9.0597Z" fill="#483232"/>
<path d="M34.0783 9.0597C33.4703 9.0597 32.9223 8.9237 32.4343 8.6517C31.9543 8.3717 31.5743 7.9917 31.2943 7.5117C31.0143 7.0237 30.8743 6.4677 30.8743 5.8437C30.8743 5.2117 31.0143 4.6557 31.2943 4.1757C31.5743 3.6957 31.9543 3.3197 32.4343 3.0477C32.9143 2.7757 33.4623 2.6397 34.0783 2.6397C34.7023 2.6397 35.2543 2.7757 35.7343 3.0477C36.2223 3.3197 36.6023 3.6957 36.8743 4.1757C37.1543 4.6557 37.2943 5.2117 37.2943 5.8437C37.2943 6.4677 37.1543 7.0237 36.8743 7.5117C36.6023 7.9917 36.2223 8.3717 35.7343 8.6517C35.2463 8.9237 34.6943 9.0597 34.0783 9.0597ZM34.0783 8.3037C34.5343 8.3037 34.9383 8.2037 35.2903 8.0037C35.6423 7.7957 35.9183 7.5077 36.1183 7.1397C36.3263 6.7637 36.4303 6.3317 36.4303 5.8437C36.4303 5.3477 36.3263 4.9157 36.1183 4.5477C35.9183 4.1797 35.6423 3.8957 35.2903 3.6957C34.9383 3.4877 34.5383 3.3837 34.0903 3.3837C33.6423 3.3837 33.2423 3.4877 32.8903 3.6957C32.5383 3.8957 32.2583 4.1797 32.0503 4.5477C31.8423 4.9157 31.7383 5.3477 31.7383 5.8437C31.7383 6.3317 31.8423 6.7637 32.0503 7.1397C32.2583 7.5077 32.5383 7.7957 32.8903 8.0037C33.2423 8.2037 33.6383 8.3037 34.0783 8.3037Z" fill="#483232"/>
<path d="M42.2857 9.0597C41.7337 9.0597 41.2377 8.9357 40.7977 8.6877C40.3577 8.4317 40.0097 8.0637 39.7537 7.5837C39.4977 7.1037 39.3697 6.5237 39.3697 5.8437C39.3697 5.1557 39.4977 4.5757 39.7537 4.1037C40.0177 3.6237 40.3697 3.2597 40.8097 3.0117C41.2497 2.7637 41.7417 2.6397 42.2857 2.6397C42.8857 2.6397 43.4217 2.7757 43.8937 3.0477C44.3737 3.3117 44.7497 3.6837 45.0217 4.1637C45.2937 4.6437 45.4297 5.2037 45.4297 5.8437C45.4297 6.4757 45.2937 7.0357 45.0217 7.5237C44.7497 8.0037 44.3737 8.3797 43.8937 8.6517C43.4217 8.9237 42.8857 9.0597 42.2857 9.0597ZM39.0337 8.9997V0.0957031H39.8857V4.5597L39.7657 5.8317L39.8497 7.1037V8.9997H39.0337ZM42.2257 8.3037C42.6737 8.3037 43.0737 8.2037 43.4257 8.0037C43.7777 7.7957 44.0577 7.5077 44.2657 7.1397C44.4737 6.7637 44.5777 6.3317 44.5777 5.8437C44.5777 5.3477 44.4737 4.9157 44.2657 4.5477C44.0577 4.1797 43.7777 3.8957 43.4257 3.6957C43.0737 3.4877 42.6737 3.3837 42.2257 3.3837C41.7777 3.3837 41.3737 3.4877 41.0137 3.6957C40.6617 3.8957 40.3817 4.1797 40.1737 4.5477C39.9737 4.9157 39.8737 5.3477 39.8737 5.8437C39.8737 6.3317 39.9737 6.7637 40.1737 7.1397C40.3817 7.5077 40.6617 7.7957 41.0137 8.0037C41.3737 8.2037 41.7777 8.3037 42.2257 8.3037Z" fill="#483232"/>
<path d="M46.2305 11.3877C45.9745 11.3877 45.7305 11.3517 45.4985 11.2797C45.2585 11.2157 45.0585 11.1157 44.8985 10.9797L45.1985 10.3317C45.4545 10.5477 45.7825 10.6557 46.1825 10.6557C46.5185 10.6557 46.7745 10.5557 46.9505 10.3557C47.1345 10.1557 47.2265 9.8597 47.2265 9.4677V2.6997H48.0785V9.4677C48.0785 10.0517 47.9185 10.5157 47.5985 10.8597C47.2865 11.2117 46.8305 11.3877 46.2305 11.3877ZM47.6585 1.3077C47.4825 1.3077 47.3345 1.2477 47.2145 1.1277C47.0945 1.0077 47.0345 0.863703 47.0345 0.695703C47.0345 0.527703 47.0945 0.387703 47.2145 0.275703C47.3345 0.155703 47.4825 0.0957031 47.6585 0.0957031C47.8345 0.0957031 47.9825 0.151703 48.1025 0.263703C48.2225 0.375703 48.2825 0.515703 48.2825 0.683703C48.2825 0.859704 48.2225 1.0077 48.1025 1.1277C47.9905 1.2477 47.8425 1.3077 47.6585 1.3077Z" fill="#483232"/>
<path d="M53.0275 9.0597C52.4195 9.0597 51.8715 8.9237 51.3835 8.6517C50.9035 8.3717 50.5235 7.9917 50.2435 7.5117C49.9635 7.0237 49.8235 6.4677 49.8235 5.8437C49.8235 5.2117 49.9635 4.6557 50.2435 4.1757C50.5235 3.6957 50.9035 3.3197 51.3835 3.0477C51.8635 2.7757 52.4115 2.6397 53.0275 2.6397C53.6515 2.6397 54.2035 2.7757 54.6835 3.0477C55.1715 3.3197 55.5515 3.6957 55.8235 4.1757C56.1035 4.6557 56.2435 5.2117 56.2435 5.8437C56.2435 6.4677 56.1035 7.0237 55.8235 7.5117C55.5515 7.9917 55.1715 8.3717 54.6835 8.6517C54.1955 8.9237 53.6435 9.0597 53.0275 9.0597ZM53.0275 8.3037C53.4835 8.3037 53.8875 8.2037 54.2395 8.0037C54.5915 7.7957 54.8675 7.5077 55.0675 7.1397C55.2755 6.7637 55.3795 6.3317 55.3795 5.8437C55.3795 5.3477 55.2755 4.9157 55.0675 4.5477C54.8675 4.1797 54.5915 3.8957 54.2395 3.6957C53.8875 3.4877 53.4875 3.3837 53.0395 3.3837C52.5915 3.3837 52.1915 3.4877 51.8395 3.6957C51.4875 3.8957 51.2075 4.1797 50.9995 4.5477C50.7915 4.9157 50.6875 5.3477 50.6875 5.8437C50.6875 6.3317 50.7915 6.7637 50.9995 7.1397C51.2075 7.5077 51.4875 7.7957 51.8395 8.0037C52.1915 8.2037 52.5875 8.3037 53.0275 8.3037Z" fill="#483232"/>
<path d="M61.1989 2.6397C61.7109 2.6397 62.1589 2.7397 62.5429 2.9397C62.9349 3.1317 63.2389 3.4277 63.4549 3.8277C63.6789 4.2277 63.7909 4.7317 63.7909 5.3397V8.9997H62.9389V5.4237C62.9389 4.7597 62.7709 4.2597 62.4349 3.9237C62.1069 3.5797 61.6429 3.4077 61.0429 3.4077C60.5949 3.4077 60.2029 3.4997 59.8669 3.6837C59.5389 3.8597 59.2829 4.1197 59.0989 4.4637C58.9229 4.7997 58.8349 5.2077 58.8349 5.6877V8.9997H57.9829V2.6997H58.7989V4.4277L58.6669 4.1037C58.8669 3.6477 59.1869 3.2917 59.6269 3.0357C60.0669 2.7717 60.5909 2.6397 61.1989 2.6397Z" fill="#483232"/>
<path d="M68.7683 9.0597C68.1123 9.0597 67.5363 8.9237 67.0403 8.6517C66.5443 8.3717 66.1563 7.9917 65.8763 7.5117C65.5963 7.0237 65.4563 6.4677 65.4563 5.8437C65.4563 5.2197 65.5883 4.6677 65.8523 4.1877C66.1243 3.7077 66.4923 3.3317 66.9563 3.0597C67.4283 2.7797 67.9563 2.6397 68.5403 2.6397C69.1323 2.6397 69.6563 2.7757 70.1123 3.0477C70.5763 3.3117 70.9403 3.6877 71.2043 4.1757C71.4683 4.6557 71.6003 5.2117 71.6003 5.8437C71.6003 5.8837 71.5963 5.9277 71.5883 5.9757C71.5883 6.0157 71.5883 6.0597 71.5883 6.1077H66.1043V5.4717H71.1323L70.7963 5.7237C70.7963 5.2677 70.6963 4.8637 70.4963 4.5117C70.3043 4.1517 70.0403 3.8717 69.7043 3.6717C69.3683 3.4717 68.9803 3.3717 68.5403 3.3717C68.1083 3.3717 67.7203 3.4717 67.3763 3.6717C67.0323 3.8717 66.7643 4.1517 66.5723 4.5117C66.3803 4.8717 66.2843 5.2837 66.2843 5.7477V5.8797C66.2843 6.3597 66.3883 6.7837 66.5963 7.1517C66.8123 7.5117 67.1083 7.7957 67.4843 8.0037C67.8683 8.2037 68.3043 8.3037 68.7923 8.3037C69.1763 8.3037 69.5323 8.2357 69.8603 8.0997C70.1963 7.9637 70.4843 7.7557 70.7243 7.4757L71.2043 8.0277C70.9243 8.3637 70.5723 8.6197 70.1483 8.7957C69.7323 8.9717 69.2723 9.0597 68.7683 9.0597Z" fill="#483232"/>
<path d="M75.0265 9.0597C74.5065 9.0597 74.0145 8.9877 73.5505 8.8437C73.0865 8.6917 72.7225 8.5037 72.4585 8.2797L72.8425 7.6077C73.0985 7.7997 73.4265 7.9677 73.8265 8.1117C74.2265 8.2477 74.6465 8.3157 75.0865 8.3157C75.6865 8.3157 76.1185 8.2237 76.3825 8.0397C76.6465 7.8477 76.7785 7.5957 76.7785 7.2837C76.7785 7.0517 76.7025 6.8717 76.5505 6.7437C76.4065 6.6077 76.2145 6.5077 75.9745 6.4437C75.7345 6.3717 75.4665 6.3117 75.1705 6.2637C74.8745 6.2157 74.5785 6.1597 74.2825 6.0957C73.9945 6.0317 73.7305 5.9397 73.4905 5.8197C73.2505 5.6917 73.0545 5.5197 72.9025 5.3037C72.7585 5.0877 72.6865 4.7997 72.6865 4.4397C72.6865 4.0957 72.7825 3.7877 72.9745 3.5157C73.1665 3.2437 73.4465 3.0317 73.8145 2.8797C74.1905 2.7197 74.6465 2.6397 75.1825 2.6397C75.5905 2.6397 75.9985 2.6957 76.4065 2.8077C76.8145 2.9117 77.1505 3.0517 77.4145 3.2277L77.0425 3.9117C76.7625 3.7197 76.4625 3.5837 76.1425 3.5037C75.8225 3.4157 75.5025 3.3717 75.1825 3.3717C74.6145 3.3717 74.1945 3.4717 73.9225 3.6717C73.6585 3.8637 73.5265 4.1117 73.5265 4.4157C73.5265 4.6557 73.5985 4.8437 73.7425 4.9797C73.8945 5.1157 74.0905 5.2237 74.3305 5.3037C74.5785 5.3757 74.8465 5.4357 75.1345 5.4837C75.4305 5.5317 75.7225 5.5917 76.0105 5.6637C76.3065 5.7277 76.5745 5.8197 76.8145 5.9397C77.0625 6.0517 77.2585 6.2157 77.4025 6.4317C77.5545 6.6397 77.6305 6.9157 77.6305 7.2597C77.6305 7.6277 77.5265 7.9477 77.3185 8.2197C77.1185 8.4837 76.8225 8.6917 76.4305 8.8437C76.0465 8.9877 75.5785 9.0597 75.0265 9.0597Z" fill="#483232"/>
</svg>
