<svg width="78" height="12" viewBox="0 0 78 12" fill="none" xmlns="http://www.w3.org/2000/svg">
<path d="M6.11557 11.4002C5.29157 11.4002 4.53957 11.2642 3.85957 10.9922C3.17957 10.7282 2.59157 10.3522 2.09557 9.86419C1.60757 9.38419 1.22757 8.81219 0.95557 8.14819C0.69157 7.47619 0.55957 6.74419 0.55957 5.95219C0.55957 5.15219 0.69157 4.42419 0.95557 3.76819C1.22757 3.10419 1.61157 2.53219 2.10757 2.05219C2.61157 1.56419 3.20757 1.18819 3.89557 0.924191C4.58357 0.660192 5.33957 0.528192 6.16357 0.528192C6.97957 0.528192 7.72357 0.656192 8.39557 0.912192C9.07557 1.16819 9.66357 1.53219 10.1596 2.00419C10.6556 2.46819 11.0356 3.02419 11.2996 3.67219C11.5716 4.32019 11.7076 5.03619 11.7076 5.82019C11.7076 6.49219 11.6276 7.07219 11.4676 7.56019C11.3156 8.04019 11.0916 8.41219 10.7956 8.67619C10.4996 8.93219 10.1436 9.06019 9.72757 9.06019C9.31957 9.06019 8.99157 8.93619 8.74357 8.68819C8.49557 8.44019 8.37157 8.09219 8.37157 7.64419V6.69619L8.46757 5.92819L8.34757 4.72819V2.91619H9.12757V7.46419C9.12757 7.80019 9.19957 8.03619 9.34357 8.17219C9.48757 8.30819 9.66357 8.37619 9.87157 8.37619C10.1196 8.37619 10.3356 8.27619 10.5196 8.07619C10.7036 7.87619 10.8436 7.58819 10.9396 7.21219C11.0436 6.82819 11.0956 6.36819 11.0956 5.83219C11.0956 5.12819 10.9756 4.48819 10.7356 3.91219C10.4956 3.33619 10.1556 2.84019 9.71557 2.42419C9.27557 2.00819 8.75557 1.69219 8.15557 1.47619C7.55557 1.25219 6.89157 1.14019 6.16357 1.14019C5.43557 1.14019 4.76757 1.25619 4.15957 1.48819C3.55157 1.72019 3.02757 2.05219 2.58757 2.48419C2.15557 2.90819 1.81957 3.41619 1.57957 4.00819C1.33957 4.59219 1.21957 5.24019 1.21957 5.95219C1.21957 6.66419 1.33557 7.31619 1.56757 7.90819C1.80757 8.50019 2.14357 9.00819 2.57557 9.43219C3.00757 9.86419 3.52357 10.1962 4.12357 10.4282C4.72357 10.6682 5.38757 10.7882 6.11557 10.7882C6.47557 10.7882 6.85957 10.7442 7.26757 10.6562C7.68357 10.5682 8.06757 10.4362 8.41957 10.2602L8.62357 10.8482C8.26357 11.0322 7.85557 11.1682 7.39957 11.2562C6.94357 11.3522 6.51557 11.4002 6.11557 11.4002ZM5.97157 9.06019C5.40357 9.06019 4.89557 8.92819 4.44757 8.66419C3.99957 8.39219 3.64357 8.02419 3.37957 7.56019C3.12357 7.08819 2.99557 6.55219 2.99557 5.95219C2.99557 5.35219 3.12357 4.82019 3.37957 4.35619C3.64357 3.89219 3.99957 3.52819 4.44757 3.26419C4.89557 3.00019 5.40357 2.86819 5.97157 2.86819C6.52357 2.86819 7.01157 2.99219 7.43557 3.24019C7.86757 3.48819 8.20357 3.84419 8.44357 4.30819C8.69157 4.76419 8.81557 5.31219 8.81557 5.95219C8.81557 6.59219 8.69157 7.14419 8.44357 7.60819C8.20357 8.07219 7.87157 8.43219 7.44757 8.68819C7.02357 8.93619 6.53157 9.06019 5.97157 9.06019ZM6.07957 8.36419C6.51157 8.36419 6.89957 8.26419 7.24357 8.06419C7.59557 7.86419 7.86757 7.58419 8.05957 7.22419C8.25957 6.85619 8.35957 6.43219 8.35957 5.95219C8.35957 5.46419 8.25957 5.04419 8.05957 4.69219C7.86757 4.33219 7.59557 4.05619 7.24357 3.86419C6.89957 3.66419 6.51157 3.56419 6.07957 3.56419C5.63157 3.56419 5.23557 3.66419 4.89157 3.86419C4.54757 4.05619 4.27557 4.33219 4.07557 4.69219C3.88357 5.05219 3.78757 5.47219 3.78757 5.95219C3.78757 6.43219 3.88357 6.85219 4.07557 7.21219C4.27557 7.57219 4.54757 7.85619 4.89157 8.06419C5.23557 8.26419 5.63157 8.36419 6.07957 8.36419Z" fill="#483232"/>
<path d="M13.5469 11.3882C13.2909 11.3882 13.0469 11.3522 12.8149 11.2802C12.5749 11.2162 12.3749 11.1162 12.2149 10.9802L12.5149 10.3322C12.7709 10.5482 13.0989 10.6562 13.4989 10.6562C13.8349 10.6562 14.0909 10.5562 14.2669 10.3562C14.4509 10.1562 14.5429 9.86019 14.5429 9.46819V2.70019H15.3949V9.46819C15.3949 10.0522 15.2349 10.5162 14.9149 10.8602C14.6029 11.2122 14.1469 11.3882 13.5469 11.3882ZM14.9749 1.30819C14.7989 1.30819 14.6509 1.24819 14.5309 1.12819C14.4109 1.00819 14.3509 0.864192 14.3509 0.696192C14.3509 0.528191 14.4109 0.388191 14.5309 0.276191C14.6509 0.156191 14.7989 0.0961914 14.9749 0.0961914C15.1509 0.0961914 15.2989 0.152191 15.4189 0.264191C15.5389 0.376191 15.5989 0.516191 15.5989 0.684192C15.5989 0.860192 15.5389 1.00819 15.4189 1.12819C15.3069 1.24819 15.1589 1.30819 14.9749 1.30819Z" fill="#483232"/>
<path d="M21.7239 9.00019V7.60819L21.6879 7.38019V5.05219C21.6879 4.51619 21.5359 4.10419 21.2319 3.81619C20.9359 3.52819 20.4919 3.38419 19.8999 3.38419C19.4919 3.38419 19.1039 3.45219 18.7359 3.58819C18.3679 3.72419 18.0559 3.90419 17.7999 4.12819L17.4159 3.49219C17.7359 3.22019 18.1199 3.01219 18.5679 2.86819C19.0159 2.71619 19.4879 2.64019 19.9839 2.64019C20.7999 2.64019 21.4279 2.84419 21.8679 3.25219C22.3159 3.65219 22.5399 4.26419 22.5399 5.08819V9.00019H21.7239ZM19.5519 9.06019C19.0799 9.06019 18.6679 8.98419 18.3159 8.83219C17.9719 8.67219 17.7079 8.45619 17.5239 8.18419C17.3399 7.90419 17.2479 7.58419 17.2479 7.22419C17.2479 6.89619 17.3239 6.60019 17.4759 6.33619C17.6359 6.06419 17.8919 5.84819 18.2439 5.68819C18.6039 5.52019 19.0839 5.43619 19.6839 5.43619H21.8559V6.07219H19.7079C19.0999 6.07219 18.6759 6.18019 18.4359 6.39619C18.2039 6.61219 18.0879 6.88019 18.0879 7.20019C18.0879 7.56019 18.2279 7.84819 18.5079 8.06419C18.7879 8.28019 19.1799 8.38819 19.6839 8.38819C20.1639 8.38819 20.5759 8.28019 20.9199 8.06419C21.2719 7.84019 21.5279 7.52019 21.6879 7.10419L21.8799 7.69219C21.7199 8.10819 21.4399 8.44019 21.0399 8.68819C20.6479 8.93619 20.1519 9.06019 19.5519 9.06019Z" fill="#483232"/>
<path d="M27.47 9.06019C26.846 9.06019 26.286 8.92419 25.79 8.65219C25.302 8.37219 24.918 7.99219 24.638 7.51219C24.358 7.02419 24.218 6.46819 24.218 5.84419C24.218 5.21219 24.358 4.65619 24.638 4.17619C24.918 3.69619 25.302 3.32019 25.79 3.04819C26.286 2.77619 26.846 2.64019 27.47 2.64019C28.006 2.64019 28.49 2.74419 28.922 2.95219C29.354 3.16019 29.694 3.47219 29.942 3.88819L29.306 4.32019C29.09 4.00019 28.822 3.76419 28.502 3.61219C28.182 3.46019 27.834 3.38419 27.458 3.38419C27.01 3.38419 26.606 3.48819 26.246 3.69619C25.886 3.89619 25.602 4.18019 25.394 4.54819C25.186 4.91619 25.082 5.34819 25.082 5.84419C25.082 6.34019 25.186 6.77219 25.394 7.14019C25.602 7.50819 25.886 7.79619 26.246 8.00419C26.606 8.20419 27.01 8.30419 27.458 8.30419C27.834 8.30419 28.182 8.22819 28.502 8.07619C28.822 7.92419 29.09 7.69219 29.306 7.38019L29.942 7.81219C29.694 8.22019 29.354 8.53219 28.922 8.74819C28.49 8.95619 28.006 9.06019 27.47 9.06019Z" fill="#483232"/>
<path d="M34.0783 9.06019C33.4703 9.06019 32.9223 8.92419 32.4343 8.65219C31.9543 8.37219 31.5743 7.99219 31.2943 7.51219C31.0143 7.02419 30.8743 6.46819 30.8743 5.84419C30.8743 5.21219 31.0143 4.65619 31.2943 4.17619C31.5743 3.69619 31.9543 3.32019 32.4343 3.04819C32.9143 2.77619 33.4623 2.64019 34.0783 2.64019C34.7023 2.64019 35.2543 2.77619 35.7343 3.04819C36.2223 3.32019 36.6023 3.69619 36.8743 4.17619C37.1543 4.65619 37.2943 5.21219 37.2943 5.84419C37.2943 6.46819 37.1543 7.02419 36.8743 7.51219C36.6023 7.99219 36.2223 8.37219 35.7343 8.65219C35.2463 8.92419 34.6943 9.06019 34.0783 9.06019ZM34.0783 8.30419C34.5343 8.30419 34.9383 8.20419 35.2903 8.00419C35.6423 7.79619 35.9183 7.50819 36.1183 7.14019C36.3263 6.76419 36.4303 6.33219 36.4303 5.84419C36.4303 5.34819 36.3263 4.91619 36.1183 4.54819C35.9183 4.18019 35.6423 3.89619 35.2903 3.69619C34.9383 3.48819 34.5383 3.38419 34.0903 3.38419C33.6423 3.38419 33.2423 3.48819 32.8903 3.69619C32.5383 3.89619 32.2583 4.18019 32.0503 4.54819C31.8423 4.91619 31.7383 5.34819 31.7383 5.84419C31.7383 6.33219 31.8423 6.76419 32.0503 7.14019C32.2583 7.50819 32.5383 7.79619 32.8903 8.00419C33.2423 8.20419 33.6383 8.30419 34.0783 8.30419Z" fill="#483232"/>
<path d="M42.2857 9.06019C41.7337 9.06019 41.2377 8.93619 40.7977 8.68819C40.3577 8.43219 40.0097 8.06419 39.7537 7.58419C39.4977 7.10419 39.3697 6.52419 39.3697 5.84419C39.3697 5.15619 39.4977 4.57619 39.7537 4.10419C40.0177 3.62419 40.3697 3.26019 40.8097 3.01219C41.2497 2.76419 41.7417 2.64019 42.2857 2.64019C42.8857 2.64019 43.4217 2.77619 43.8937 3.04819C44.3737 3.31219 44.7497 3.68419 45.0217 4.16419C45.2937 4.64419 45.4297 5.20419 45.4297 5.84419C45.4297 6.47619 45.2937 7.03619 45.0217 7.52419C44.7497 8.00419 44.3737 8.38019 43.8937 8.65219C43.4217 8.92419 42.8857 9.06019 42.2857 9.06019ZM39.0337 9.00019V0.0961914H39.8857V4.56019L39.7657 5.83219L39.8497 7.10419V9.00019H39.0337ZM42.2257 8.30419C42.6737 8.30419 43.0737 8.20419 43.4257 8.00419C43.7777 7.79619 44.0577 7.50819 44.2657 7.14019C44.4737 6.76419 44.5777 6.33219 44.5777 5.84419C44.5777 5.34819 44.4737 4.91619 44.2657 4.54819C44.0577 4.18019 43.7777 3.89619 43.4257 3.69619C43.0737 3.48819 42.6737 3.38419 42.2257 3.38419C41.7777 3.38419 41.3737 3.48819 41.0137 3.69619C40.6617 3.89619 40.3817 4.18019 40.1737 4.54819C39.9737 4.91619 39.8737 5.34819 39.8737 5.84419C39.8737 6.33219 39.9737 6.76419 40.1737 7.14019C40.3817 7.50819 40.6617 7.79619 41.0137 8.00419C41.3737 8.20419 41.7777 8.30419 42.2257 8.30419Z" fill="#483232"/>
<path d="M46.2305 11.3882C45.9745 11.3882 45.7305 11.3522 45.4985 11.2802C45.2585 11.2162 45.0585 11.1162 44.8985 10.9802L45.1985 10.3322C45.4545 10.5482 45.7825 10.6562 46.1825 10.6562C46.5185 10.6562 46.7745 10.5562 46.9505 10.3562C47.1345 10.1562 47.2265 9.86019 47.2265 9.46819V2.70019H48.0785V9.46819C48.0785 10.0522 47.9185 10.5162 47.5985 10.8602C47.2865 11.2122 46.8305 11.3882 46.2305 11.3882ZM47.6585 1.30819C47.4825 1.30819 47.3345 1.24819 47.2145 1.12819C47.0945 1.00819 47.0345 0.864192 47.0345 0.696192C47.0345 0.528191 47.0945 0.388191 47.2145 0.276191C47.3345 0.156191 47.4825 0.0961914 47.6585 0.0961914C47.8345 0.0961914 47.9825 0.152191 48.1025 0.264191C48.2225 0.376191 48.2825 0.516191 48.2825 0.684192C48.2825 0.860192 48.2225 1.00819 48.1025 1.12819C47.9905 1.24819 47.8425 1.30819 47.6585 1.30819Z" fill="#483232"/>
<path d="M53.0275 9.06019C52.4195 9.06019 51.8715 8.92419 51.3835 8.65219C50.9035 8.37219 50.5235 7.99219 50.2435 7.51219C49.9635 7.02419 49.8235 6.46819 49.8235 5.84419C49.8235 5.21219 49.9635 4.65619 50.2435 4.17619C50.5235 3.69619 50.9035 3.32019 51.3835 3.04819C51.8635 2.77619 52.4115 2.64019 53.0275 2.64019C53.6515 2.64019 54.2035 2.77619 54.6835 3.04819C55.1715 3.32019 55.5515 3.69619 55.8235 4.17619C56.1035 4.65619 56.2435 5.21219 56.2435 5.84419C56.2435 6.46819 56.1035 7.02419 55.8235 7.51219C55.5515 7.99219 55.1715 8.37219 54.6835 8.65219C54.1955 8.92419 53.6435 9.06019 53.0275 9.06019ZM53.0275 8.30419C53.4835 8.30419 53.8875 8.20419 54.2395 8.00419C54.5915 7.79619 54.8675 7.50819 55.0675 7.14019C55.2755 6.76419 55.3795 6.33219 55.3795 5.84419C55.3795 5.34819 55.2755 4.91619 55.0675 4.54819C54.8675 4.18019 54.5915 3.89619 54.2395 3.69619C53.8875 3.48819 53.4875 3.38419 53.0395 3.38419C52.5915 3.38419 52.1915 3.48819 51.8395 3.69619C51.4875 3.89619 51.2075 4.18019 50.9995 4.54819C50.7915 4.91619 50.6875 5.34819 50.6875 5.84419C50.6875 6.33219 50.7915 6.76419 50.9995 7.14019C51.2075 7.50819 51.4875 7.79619 51.8395 8.00419C52.1915 8.20419 52.5875 8.30419 53.0275 8.30419Z" fill="#483232"/>
<path d="M61.1989 2.64019C61.7109 2.64019 62.1589 2.74019 62.5429 2.94019C62.9349 3.13219 63.2389 3.42819 63.4549 3.82819C63.6789 4.22819 63.7909 4.73219 63.7909 5.34019V9.00019H62.9389V5.42419C62.9389 4.76019 62.7709 4.26019 62.4349 3.92419C62.1069 3.58019 61.6429 3.40819 61.0429 3.40819C60.5949 3.40819 60.2029 3.50019 59.8669 3.68419C59.5389 3.86019 59.2829 4.12019 59.0989 4.46419C58.9229 4.80019 58.8349 5.20819 58.8349 5.68819V9.00019H57.9829V2.70019H58.7989V4.42819L58.6669 4.10419C58.8669 3.64819 59.1869 3.29219 59.6269 3.03619C60.0669 2.77219 60.5909 2.64019 61.1989 2.64019Z" fill="#483232"/>
<path d="M68.7683 9.06019C68.1123 9.06019 67.5363 8.92419 67.0403 8.65219C66.5443 8.37219 66.1563 7.99219 65.8763 7.51219C65.5963 7.02419 65.4563 6.46819 65.4563 5.84419C65.4563 5.22019 65.5883 4.66819 65.8523 4.18819C66.1243 3.70819 66.4923 3.33219 66.9563 3.06019C67.4283 2.78019 67.9563 2.64019 68.5403 2.64019C69.1323 2.64019 69.6563 2.77619 70.1123 3.04819C70.5763 3.31219 70.9403 3.68819 71.2043 4.17619C71.4683 4.65619 71.6003 5.21219 71.6003 5.84419C71.6003 5.88419 71.5963 5.92819 71.5883 5.97619C71.5883 6.01619 71.5883 6.06019 71.5883 6.10819H66.1043V5.47219H71.1323L70.7963 5.72419C70.7963 5.26819 70.6963 4.86419 70.4963 4.51219C70.3043 4.15219 70.0403 3.87219 69.7043 3.67219C69.3683 3.47219 68.9803 3.37219 68.5403 3.37219C68.1083 3.37219 67.7203 3.47219 67.3763 3.67219C67.0323 3.87219 66.7643 4.15219 66.5723 4.51219C66.3803 4.87219 66.2843 5.28419 66.2843 5.74819V5.88019C66.2843 6.36019 66.3883 6.78419 66.5963 7.15219C66.8123 7.51219 67.1083 7.79619 67.4843 8.00419C67.8683 8.20419 68.3043 8.30419 68.7923 8.30419C69.1763 8.30419 69.5323 8.23619 69.8603 8.10019C70.1963 7.96419 70.4843 7.75619 70.7243 7.47619L71.2043 8.02819C70.9243 8.36419 70.5723 8.62019 70.1483 8.79619C69.7323 8.97219 69.2723 9.06019 68.7683 9.06019Z" fill="#483232"/>
<path d="M75.0265 9.06019C74.5065 9.06019 74.0145 8.98819 73.5505 8.84419C73.0865 8.69219 72.7225 8.50419 72.4585 8.28019L72.8425 7.60819C73.0985 7.80019 73.4265 7.96819 73.8265 8.11219C74.2265 8.24819 74.6465 8.31619 75.0865 8.31619C75.6865 8.31619 76.1185 8.22419 76.3825 8.04019C76.6465 7.84819 76.7785 7.59619 76.7785 7.28419C76.7785 7.05219 76.7025 6.87219 76.5505 6.74419C76.4065 6.60819 76.2145 6.50819 75.9745 6.44419C75.7345 6.37219 75.4665 6.31219 75.1705 6.26419C74.8745 6.21619 74.5785 6.16019 74.2825 6.09619C73.9945 6.03219 73.7305 5.94019 73.4905 5.82019C73.2505 5.69219 73.0545 5.52019 72.9025 5.30419C72.7585 5.08819 72.6865 4.80019 72.6865 4.44019C72.6865 4.09619 72.7825 3.78819 72.9745 3.51619C73.1665 3.24419 73.4465 3.03219 73.8145 2.88019C74.1905 2.72019 74.6465 2.64019 75.1825 2.64019C75.5905 2.64019 75.9985 2.69619 76.4065 2.80819C76.8145 2.91219 77.1505 3.05219 77.4145 3.22819L77.0425 3.91219C76.7625 3.72019 76.4625 3.58419 76.1425 3.50419C75.8225 3.41619 75.5025 3.37219 75.1825 3.37219C74.6145 3.37219 74.1945 3.47219 73.9225 3.67219C73.6585 3.86419 73.5265 4.11219 73.5265 4.41619C73.5265 4.65619 73.5985 4.84419 73.7425 4.98019C73.8945 5.11619 74.0905 5.22419 74.3305 5.30419C74.5785 5.37619 74.8465 5.43619 75.1345 5.48419C75.4305 5.53219 75.7225 5.59219 76.0105 5.66419C76.3065 5.72819 76.5745 5.82019 76.8145 5.94019C77.0625 6.05219 77.2585 6.21619 77.4025 6.43219C77.5545 6.64019 77.6305 6.91619 77.6305 7.26019C77.6305 7.62819 77.5265 7.94819 77.3185 8.22019C77.1185 8.48419 76.8225 8.69219 76.4305 8.84419C76.0465 8.98819 75.5785 9.06019 75.0265 9.06019Z" fill="#483232"/>
</svg>
