<svg width="82" height="12" viewBox="0 0 82 12" fill="none" xmlns="http://www.w3.org/2000/svg">
<path d="M6.11557 11.3997C5.29157 11.3997 4.53957 11.2637 3.85957 10.9917C3.17957 10.7277 2.59157 10.3517 2.09557 9.8637C1.60757 9.3837 1.22757 8.8117 0.95557 8.1477C0.69157 7.4757 0.55957 6.7437 0.55957 5.9517C0.55957 5.1517 0.69157 4.4237 0.95557 3.7677C1.22757 3.1037 1.61157 2.5317 2.10757 2.0517C2.61157 1.5637 3.20757 1.1877 3.89557 0.923703C4.58357 0.659703 5.33957 0.527703 6.16357 0.527703C6.97957 0.527703 7.72357 0.655703 8.39557 0.911703C9.07557 1.1677 9.66357 1.5317 10.1596 2.0037C10.6556 2.4677 11.0356 3.0237 11.2996 3.6717C11.5716 4.3197 11.7076 5.0357 11.7076 5.8197C11.7076 6.4917 11.6276 7.0717 11.4676 7.5597C11.3156 8.0397 11.0916 8.4117 10.7956 8.6757C10.4996 8.9317 10.1436 9.0597 9.72757 9.0597C9.31957 9.0597 8.99157 8.9357 8.74357 8.6877C8.49557 8.4397 8.37157 8.0917 8.37157 7.6437V6.6957L8.46757 5.9277L8.34757 4.7277V2.9157H9.12757V7.4637C9.12757 7.7997 9.19957 8.0357 9.34357 8.1717C9.48757 8.3077 9.66357 8.3757 9.87157 8.3757C10.1196 8.3757 10.3356 8.2757 10.5196 8.0757C10.7036 7.8757 10.8436 7.5877 10.9396 7.2117C11.0436 6.8277 11.0956 6.3677 11.0956 5.8317C11.0956 5.1277 10.9756 4.4877 10.7356 3.9117C10.4956 3.3357 10.1556 2.8397 9.71557 2.4237C9.27557 2.0077 8.75557 1.6917 8.15557 1.4757C7.55557 1.2517 6.89157 1.1397 6.16357 1.1397C5.43557 1.1397 4.76757 1.2557 4.15957 1.4877C3.55157 1.7197 3.02757 2.0517 2.58757 2.4837C2.15557 2.9077 1.81957 3.4157 1.57957 4.0077C1.33957 4.5917 1.21957 5.2397 1.21957 5.9517C1.21957 6.6637 1.33557 7.3157 1.56757 7.9077C1.80757 8.4997 2.14357 9.0077 2.57557 9.4317C3.00757 9.8637 3.52357 10.1957 4.12357 10.4277C4.72357 10.6677 5.38757 10.7877 6.11557 10.7877C6.47557 10.7877 6.85957 10.7437 7.26757 10.6557C7.68357 10.5677 8.06757 10.4357 8.41957 10.2597L8.62357 10.8477C8.26357 11.0317 7.85557 11.1677 7.39957 11.2557C6.94357 11.3517 6.51557 11.3997 6.11557 11.3997ZM5.97157 9.0597C5.40357 9.0597 4.89557 8.9277 4.44757 8.6637C3.99957 8.3917 3.64357 8.0237 3.37957 7.5597C3.12357 7.0877 2.99557 6.5517 2.99557 5.9517C2.99557 5.3517 3.12357 4.8197 3.37957 4.3557C3.64357 3.8917 3.99957 3.5277 4.44757 3.2637C4.89557 2.9997 5.40357 2.8677 5.97157 2.8677C6.52357 2.8677 7.01157 2.9917 7.43557 3.2397C7.86757 3.4877 8.20357 3.8437 8.44357 4.3077C8.69157 4.7637 8.81557 5.3117 8.81557 5.9517C8.81557 6.5917 8.69157 7.1437 8.44357 7.6077C8.20357 8.0717 7.87157 8.4317 7.44757 8.6877C7.02357 8.9357 6.53157 9.0597 5.97157 9.0597ZM6.07957 8.3637C6.51157 8.3637 6.89957 8.2637 7.24357 8.0637C7.59557 7.8637 7.86757 7.5837 8.05957 7.2237C8.25957 6.8557 8.35957 6.4317 8.35957 5.9517C8.35957 5.4637 8.25957 5.0437 8.05957 4.6917C7.86757 4.3317 7.59557 4.0557 7.24357 3.8637C6.89957 3.6637 6.51157 3.5637 6.07957 3.5637C5.63157 3.5637 5.23557 3.6637 4.89157 3.8637C4.54757 4.0557 4.27557 4.3317 4.07557 4.6917C3.88357 5.0517 3.78757 5.4717 3.78757 5.9517C3.78757 6.4317 3.88357 6.8517 4.07557 7.2117C4.27557 7.5717 4.54757 7.8557 4.89157 8.0637C5.23557 8.2637 5.63157 8.3637 6.07957 8.3637Z" fill="#483232"/>
<path d="M14.194 7.3677L14.218 6.2757L18.142 2.6997H19.186L16.414 5.3517L15.934 5.7597L14.194 7.3677ZM13.522 8.9997V0.0957031H14.374V8.9997H13.522ZM18.406 8.9997L15.778 5.7237L16.33 5.0637L19.45 8.9997H18.406Z" fill="#483232"/>
<path d="M20.6353 8.9997V2.6997H21.4513V4.4157L21.3673 4.1157C21.5433 3.6357 21.8393 3.2717 22.2553 3.0237C22.6713 2.7677 23.1873 2.6397 23.8033 2.6397V3.4677C23.7713 3.4677 23.7393 3.4677 23.7073 3.4677C23.6753 3.4597 23.6433 3.4557 23.6113 3.4557C22.9473 3.4557 22.4273 3.6597 22.0513 4.0677C21.6753 4.4677 21.4873 5.0397 21.4873 5.7837V8.9997H20.6353Z" fill="#483232"/>
<path d="M25.3579 8.9997V2.6997H26.2099V8.9997H25.3579ZM25.7899 1.3077C25.6139 1.3077 25.4659 1.2477 25.3459 1.1277C25.2259 1.0077 25.1659 0.863703 25.1659 0.695703C25.1659 0.527703 25.2259 0.387703 25.3459 0.275703C25.4659 0.155703 25.6139 0.0957031 25.7899 0.0957031C25.9659 0.0957031 26.1139 0.151703 26.2339 0.263703C26.3539 0.375703 26.4139 0.515703 26.4139 0.683703C26.4139 0.859704 26.3539 1.0077 26.2339 1.1277C26.1219 1.2477 25.9739 1.3077 25.7899 1.3077Z" fill="#483232"/>
<path d="M30.2726 9.0597C29.7526 9.0597 29.2606 8.9877 28.7966 8.8437C28.3326 8.6917 27.9686 8.5037 27.7046 8.2797L28.0886 7.6077C28.3446 7.7997 28.6726 7.9677 29.0726 8.1117C29.4726 8.2477 29.8926 8.3157 30.3326 8.3157C30.9326 8.3157 31.3646 8.2237 31.6286 8.0397C31.8926 7.8477 32.0246 7.5957 32.0246 7.2837C32.0246 7.0517 31.9486 6.8717 31.7966 6.7437C31.6526 6.6077 31.4606 6.5077 31.2206 6.4437C30.9806 6.3717 30.7126 6.3117 30.4166 6.2637C30.1206 6.2157 29.8246 6.1597 29.5286 6.0957C29.2406 6.0317 28.9766 5.9397 28.7366 5.8197C28.4966 5.6917 28.3006 5.5197 28.1486 5.3037C28.0046 5.0877 27.9326 4.7997 27.9326 4.4397C27.9326 4.0957 28.0286 3.7877 28.2206 3.5157C28.4126 3.2437 28.6926 3.0317 29.0606 2.8797C29.4366 2.7197 29.8926 2.6397 30.4286 2.6397C30.8366 2.6397 31.2446 2.6957 31.6526 2.8077C32.0606 2.9117 32.3966 3.0517 32.6606 3.2277L32.2886 3.9117C32.0086 3.7197 31.7086 3.5837 31.3886 3.5037C31.0686 3.4157 30.7486 3.3717 30.4286 3.3717C29.8606 3.3717 29.4406 3.4717 29.1686 3.6717C28.9046 3.8637 28.7726 4.1117 28.7726 4.4157C28.7726 4.6557 28.8446 4.8437 28.9886 4.9797C29.1406 5.1157 29.3366 5.2237 29.5766 5.3037C29.8246 5.3757 30.0926 5.4357 30.3806 5.4837C30.6766 5.5317 30.9686 5.5917 31.2566 5.6637C31.5526 5.7277 31.8206 5.8197 32.0606 5.9397C32.3086 6.0517 32.5046 6.2157 32.6486 6.4317C32.8006 6.6397 32.8766 6.9157 32.8766 7.2597C32.8766 7.6277 32.7726 7.9477 32.5646 8.2197C32.3646 8.4837 32.0686 8.6917 31.6766 8.8437C31.2926 8.9877 30.8246 9.0597 30.2726 9.0597Z" fill="#483232"/>
<path d="M36.432 9.0597C35.84 9.0597 35.384 8.8997 35.064 8.5797C34.744 8.2597 34.584 7.8077 34.584 7.2237V1.3077H35.436V7.1757C35.436 7.5437 35.528 7.8277 35.712 8.0277C35.904 8.2277 36.176 8.3277 36.528 8.3277C36.904 8.3277 37.216 8.2197 37.464 8.0037L37.764 8.6157C37.596 8.7677 37.392 8.8797 37.152 8.9517C36.92 9.0237 36.68 9.0597 36.432 9.0597ZM33.456 3.4077V2.6997H37.356V3.4077H33.456Z" fill="#483232"/>
<path d="M39.315 8.9997V2.6997H40.167V8.9997H39.315ZM39.747 1.3077C39.571 1.3077 39.423 1.2477 39.303 1.1277C39.183 1.0077 39.123 0.863703 39.123 0.695703C39.123 0.527703 39.183 0.387703 39.303 0.275703C39.423 0.155703 39.571 0.0957031 39.747 0.0957031C39.923 0.0957031 40.071 0.151703 40.191 0.263703C40.311 0.375703 40.371 0.515703 40.371 0.683703C40.371 0.859704 40.311 1.0077 40.191 1.1277C40.079 1.2477 39.931 1.3077 39.747 1.3077Z" fill="#483232"/>
<path d="M45.7536 2.6397C46.2656 2.6397 46.7136 2.7397 47.0976 2.9397C47.4896 3.1317 47.7936 3.4277 48.0096 3.8277C48.2336 4.2277 48.3456 4.7317 48.3456 5.3397V8.9997H47.4936V5.4237C47.4936 4.7597 47.3256 4.2597 46.9896 3.9237C46.6616 3.5797 46.1976 3.4077 45.5976 3.4077C45.1496 3.4077 44.7576 3.4997 44.4216 3.6837C44.0936 3.8597 43.8376 4.1197 43.6536 4.4637C43.4776 4.7997 43.3896 5.2077 43.3896 5.6877V8.9997H42.5376V2.6997H43.3536V4.4277L43.2216 4.1037C43.4216 3.6477 43.7416 3.2917 44.1816 3.0357C44.6216 2.7717 45.1456 2.6397 45.7536 2.6397Z" fill="#483232"/>
<path d="M49.711 11.3877C49.455 11.3877 49.211 11.3517 48.979 11.2797C48.739 11.2157 48.539 11.1157 48.379 10.9797L48.679 10.3317C48.935 10.5477 49.263 10.6557 49.663 10.6557C49.999 10.6557 50.255 10.5557 50.431 10.3557C50.615 10.1557 50.707 9.8597 50.707 9.4677V2.6997H51.559V9.4677C51.559 10.0517 51.399 10.5157 51.079 10.8597C50.767 11.2117 50.311 11.3877 49.711 11.3877ZM51.139 1.3077C50.963 1.3077 50.815 1.2477 50.695 1.1277C50.575 1.0077 50.515 0.863703 50.515 0.695703C50.515 0.527703 50.575 0.387703 50.695 0.275703C50.815 0.155703 50.963 0.0957031 51.139 0.0957031C51.315 0.0957031 51.463 0.151703 51.583 0.263703C51.703 0.375703 51.763 0.515703 51.763 0.683703C51.763 0.859704 51.703 1.0077 51.583 1.1277C51.471 1.2477 51.323 1.3077 51.139 1.3077Z" fill="#483232"/>
<path d="M56.508 9.0597C55.9 9.0597 55.352 8.9237 54.864 8.6517C54.384 8.3717 54.004 7.9917 53.724 7.5117C53.444 7.0237 53.304 6.4677 53.304 5.8437C53.304 5.2117 53.444 4.6557 53.724 4.1757C54.004 3.6957 54.384 3.3197 54.864 3.0477C55.344 2.7757 55.892 2.6397 56.508 2.6397C57.132 2.6397 57.684 2.7757 58.164 3.0477C58.652 3.3197 59.032 3.6957 59.304 4.1757C59.584 4.6557 59.724 5.2117 59.724 5.8437C59.724 6.4677 59.584 7.0237 59.304 7.5117C59.032 7.9917 58.652 8.3717 58.164 8.6517C57.676 8.9237 57.124 9.0597 56.508 9.0597ZM56.508 8.3037C56.964 8.3037 57.368 8.2037 57.72 8.0037C58.072 7.7957 58.348 7.5077 58.548 7.1397C58.756 6.7637 58.86 6.3317 58.86 5.8437C58.86 5.3477 58.756 4.9157 58.548 4.5477C58.348 4.1797 58.072 3.8957 57.72 3.6957C57.368 3.4877 56.968 3.3837 56.52 3.3837C56.072 3.3837 55.672 3.4877 55.32 3.6957C54.968 3.8957 54.688 4.1797 54.48 4.5477C54.272 4.9157 54.168 5.3477 54.168 5.8437C54.168 6.3317 54.272 6.7637 54.48 7.1397C54.688 7.5077 54.968 7.7957 55.32 8.0037C55.672 8.2037 56.068 8.3037 56.508 8.3037Z" fill="#483232"/>
<path d="M64.6794 2.6397C65.1914 2.6397 65.6394 2.7397 66.0234 2.9397C66.4154 3.1317 66.7194 3.4277 66.9354 3.8277C67.1594 4.2277 67.2714 4.7317 67.2714 5.3397V8.9997H66.4194V5.4237C66.4194 4.7597 66.2514 4.2597 65.9154 3.9237C65.5874 3.5797 65.1234 3.4077 64.5234 3.4077C64.0754 3.4077 63.6834 3.4997 63.3474 3.6837C63.0194 3.8597 62.7634 4.1197 62.5794 4.4637C62.4034 4.7997 62.3154 5.2077 62.3154 5.6877V8.9997H61.4634V2.6997H62.2794V4.4277L62.1474 4.1037C62.3474 3.6477 62.6674 3.2917 63.1074 3.0357C63.5474 2.7717 64.0714 2.6397 64.6794 2.6397Z" fill="#483232"/>
<path d="M72.2488 9.0597C71.5928 9.0597 71.0168 8.9237 70.5208 8.6517C70.0248 8.3717 69.6368 7.9917 69.3568 7.5117C69.0768 7.0237 68.9368 6.4677 68.9368 5.8437C68.9368 5.2197 69.0688 4.6677 69.3328 4.1877C69.6048 3.7077 69.9728 3.3317 70.4368 3.0597C70.9088 2.7797 71.4368 2.6397 72.0208 2.6397C72.6128 2.6397 73.1368 2.7757 73.5928 3.0477C74.0568 3.3117 74.4208 3.6877 74.6848 4.1757C74.9488 4.6557 75.0808 5.2117 75.0808 5.8437C75.0808 5.8837 75.0768 5.9277 75.0688 5.9757C75.0688 6.0157 75.0688 6.0597 75.0688 6.1077H69.5848V5.4717H74.6128L74.2768 5.7237C74.2768 5.2677 74.1768 4.8637 73.9768 4.5117C73.7848 4.1517 73.5208 3.8717 73.1848 3.6717C72.8488 3.4717 72.4608 3.3717 72.0208 3.3717C71.5888 3.3717 71.2008 3.4717 70.8568 3.6717C70.5128 3.8717 70.2448 4.1517 70.0528 4.5117C69.8608 4.8717 69.7648 5.2837 69.7648 5.7477V5.8797C69.7648 6.3597 69.8688 6.7837 70.0768 7.1517C70.2928 7.5117 70.5888 7.7957 70.9648 8.0037C71.3488 8.2037 71.7848 8.3037 72.2728 8.3037C72.6568 8.3037 73.0128 8.2357 73.3408 8.0997C73.6768 7.9637 73.9648 7.7557 74.2048 7.4757L74.6848 8.0277C74.4048 8.3637 74.0528 8.6197 73.6288 8.7957C73.2128 8.9717 72.7528 9.0597 72.2488 9.0597Z" fill="#483232"/>
<path d="M78.507 9.0597C77.987 9.0597 77.495 8.9877 77.031 8.8437C76.567 8.6917 76.203 8.5037 75.939 8.2797L76.323 7.6077C76.579 7.7997 76.907 7.9677 77.307 8.1117C77.707 8.2477 78.127 8.3157 78.567 8.3157C79.167 8.3157 79.599 8.2237 79.863 8.0397C80.127 7.8477 80.259 7.5957 80.259 7.2837C80.259 7.0517 80.183 6.8717 80.031 6.7437C79.887 6.6077 79.695 6.5077 79.455 6.4437C79.215 6.3717 78.947 6.3117 78.651 6.2637C78.355 6.2157 78.059 6.1597 77.763 6.0957C77.475 6.0317 77.211 5.9397 76.971 5.8197C76.731 5.6917 76.535 5.5197 76.383 5.3037C76.239 5.0877 76.167 4.7997 76.167 4.4397C76.167 4.0957 76.263 3.7877 76.455 3.5157C76.647 3.2437 76.927 3.0317 77.295 2.8797C77.671 2.7197 78.127 2.6397 78.663 2.6397C79.071 2.6397 79.479 2.6957 79.887 2.8077C80.295 2.9117 80.631 3.0517 80.895 3.2277L80.523 3.9117C80.243 3.7197 79.943 3.5837 79.623 3.5037C79.303 3.4157 78.983 3.3717 78.663 3.3717C78.095 3.3717 77.675 3.4717 77.403 3.6717C77.139 3.8637 77.007 4.1117 77.007 4.4157C77.007 4.6557 77.079 4.8437 77.223 4.9797C77.375 5.1157 77.571 5.2237 77.811 5.3037C78.059 5.3757 78.327 5.4357 78.615 5.4837C78.911 5.5317 79.203 5.5917 79.491 5.6637C79.787 5.7277 80.055 5.8197 80.295 5.9397C80.543 6.0517 80.739 6.2157 80.883 6.4317C81.035 6.6397 81.111 6.9157 81.111 7.2597C81.111 7.6277 81.007 7.9477 80.799 8.2197C80.599 8.4837 80.303 8.6917 79.911 8.8437C79.527 8.9877 79.059 9.0597 78.507 9.0597Z" fill="#483232"/>
</svg>
