<svg width="280" height="341" viewBox="0 0 280 341" fill="none" xmlns="http://www.w3.org/2000/svg">
<path d="M0.5 8.95605C0.5 4.53778 4.08172 0.956055 8.5 0.956055H271.5C275.918 0.956055 279.5 4.53778 279.5 8.95605V332.956C279.5 337.374 275.918 340.956 271.5 340.956H8.5C4.08172 340.956 0.5 337.374 0.5 332.956V8.95605Z" fill="#E0E2E6"/>
<path fill-rule="evenodd" clip-rule="evenodd" d="M250.641 22.3249C251.627 21.9163 252.684 21.7061 253.752 21.7061C254.819 21.7061 255.876 21.9163 256.862 22.3249C257.848 22.7334 258.743 23.3321 259.498 24.0867C260.253 24.8413 260.851 25.7371 261.26 26.7232C261.669 27.7092 261.879 28.766 261.879 29.8333C261.879 30.9006 261.669 31.9575 261.26 32.9435C260.852 33.9294 260.253 34.8252 259.498 35.5797C259.498 35.5798 259.498 35.5797 259.498 35.5797L248.448 46.6297C247.96 47.1179 247.168 47.1179 246.68 46.6297L235.63 35.5797C234.106 34.0557 233.25 31.9886 233.25 29.8333C233.25 27.678 234.106 25.611 235.63 24.087C237.154 22.5629 239.221 21.7067 241.377 21.7067C243.532 21.7067 245.599 22.5629 247.123 24.087L247.564 24.5281L248.005 24.0872C248.005 24.0872 248.005 24.0871 248.005 24.0872C248.76 23.3324 249.656 22.7334 250.641 22.3249ZM253.752 24.2061C253.013 24.2061 252.281 24.3516 251.598 24.6345C250.916 24.9173 250.296 25.3319 249.773 25.8545L248.448 27.1797C247.96 27.6679 247.168 27.6679 246.68 27.1797L245.355 25.8547C244.3 24.7995 242.869 24.2067 241.377 24.2067C239.884 24.2067 238.453 24.7995 237.398 25.8547C236.343 26.9099 235.75 28.3411 235.75 29.8333C235.75 31.3256 236.343 32.7568 237.398 33.812L247.564 43.9781L257.73 33.812C258.253 33.2896 258.668 32.6692 258.95 31.9865C259.233 31.3039 259.379 30.5722 259.379 29.8333C259.379 29.0944 259.233 28.3628 258.95 27.6801C258.668 26.9975 258.253 26.3773 257.73 25.8549C257.208 25.3323 256.587 24.9173 255.905 24.6345C255.222 24.3516 254.491 24.2061 253.752 24.2061Z" fill="#9A9A9A"/>
<path d="M91.5 192.956C91.5 212.286 75.83 227.956 56.5 227.956C37.17 227.956 21.5 212.286 21.5 192.956C21.5 173.626 37.17 157.956 56.5 157.956C75.83 157.956 91.5 173.626 91.5 192.956Z" fill="#C2C6CC"/>
<path d="M22.911 257.956V246.056H28.062C29.1273 246.056 30.0453 246.232 30.816 246.583C31.5867 246.923 32.1817 247.416 32.601 248.062C33.0203 248.708 33.23 249.479 33.23 250.374C33.23 251.258 33.0203 252.023 32.601 252.669C32.1817 253.304 31.5867 253.791 30.816 254.131C30.0453 254.471 29.1273 254.641 28.062 254.641H24.441L25.665 253.434V257.956H22.911ZM30.476 257.956L27.501 253.638H30.442L33.451 257.956H30.476ZM25.665 253.74L24.441 252.448H27.909C28.759 252.448 29.3937 252.267 29.813 251.904C30.2323 251.53 30.442 251.02 30.442 250.374C30.442 249.717 30.2323 249.207 29.813 248.844C29.3937 248.481 28.759 248.3 27.909 248.3H24.441L25.665 246.991V253.74Z" fill="#484848"/>
<path d="M39.764 258.092C38.7213 258.092 37.8033 257.888 37.01 257.48C36.228 257.072 35.6217 256.517 35.191 255.814C34.7603 255.1 34.545 254.29 34.545 253.383C34.545 252.465 34.7547 251.655 35.174 250.952C35.6047 250.238 36.1883 249.683 36.925 249.286C37.6617 248.878 38.4947 248.674 39.424 248.674C40.3193 248.674 41.124 248.867 41.838 249.252C42.5633 249.626 43.1357 250.17 43.555 250.884C43.9743 251.587 44.184 252.431 44.184 253.417C44.184 253.519 44.1783 253.638 44.167 253.774C44.1557 253.899 44.1443 254.018 44.133 254.131H36.704V252.584H42.739L41.719 253.043C41.719 252.567 41.6227 252.153 41.43 251.802C41.2373 251.451 40.971 251.179 40.631 250.986C40.291 250.782 39.8943 250.68 39.441 250.68C38.9877 250.68 38.5853 250.782 38.234 250.986C37.894 251.179 37.6277 251.456 37.435 251.819C37.2423 252.17 37.146 252.59 37.146 253.077V253.485C37.146 253.984 37.2537 254.426 37.469 254.811C37.6957 255.185 38.0073 255.474 38.404 255.678C38.812 255.871 39.288 255.967 39.832 255.967C40.3193 255.967 40.7443 255.893 41.107 255.746C41.481 255.599 41.821 255.378 42.127 255.083L43.538 256.613C43.1187 257.089 42.5917 257.457 41.957 257.718C41.3223 257.967 40.5913 258.092 39.764 258.092Z" fill="#484848"/>
<path d="M49.0266 258.092C48.2446 258.092 47.4909 258.001 46.7656 257.82C46.0516 257.627 45.4849 257.389 45.0656 257.106L45.9496 255.202C46.3689 255.463 46.8619 255.678 47.4286 255.848C48.0066 256.007 48.5733 256.086 49.1286 256.086C49.7406 256.086 50.1713 256.012 50.4206 255.865C50.6813 255.718 50.8116 255.514 50.8116 255.253C50.8116 255.038 50.7096 254.879 50.5056 254.777C50.3129 254.664 50.0523 254.579 49.7236 254.522C49.3949 254.465 49.0323 254.409 48.6356 254.352C48.2503 254.295 47.8593 254.222 47.4626 254.131C47.0659 254.029 46.7033 253.882 46.3746 253.689C46.0459 253.496 45.7796 253.236 45.5756 252.907C45.3829 252.578 45.2866 252.153 45.2866 251.632C45.2866 251.054 45.4509 250.544 45.7796 250.102C46.1196 249.66 46.6069 249.314 47.2416 249.065C47.8763 248.804 48.6356 248.674 49.5196 248.674C50.1429 248.674 50.7776 248.742 51.4236 248.878C52.0696 249.014 52.6079 249.212 53.0386 249.473L52.1546 251.36C51.7126 251.099 51.2649 250.924 50.8116 250.833C50.3696 250.731 49.9389 250.68 49.5196 250.68C48.9303 250.68 48.4996 250.759 48.2276 250.918C47.9556 251.077 47.8196 251.281 47.8196 251.53C47.8196 251.757 47.9159 251.927 48.1086 252.04C48.3126 252.153 48.5789 252.244 48.9076 252.312C49.2363 252.38 49.5933 252.442 49.9786 252.499C50.3753 252.544 50.7719 252.618 51.1686 252.72C51.5653 252.822 51.9223 252.969 52.2396 253.162C52.5683 253.343 52.8346 253.598 53.0386 253.927C53.2426 254.244 53.3446 254.664 53.3446 255.185C53.3446 255.752 53.1746 256.256 52.8346 256.698C52.4946 257.129 52.0016 257.469 51.3556 257.718C50.7209 257.967 49.9446 258.092 49.0266 258.092Z" fill="#484848"/>
<path d="M58.7208 258.092C57.6442 258.092 56.8055 257.82 56.2048 257.276C55.6042 256.721 55.3038 255.899 55.3038 254.811V246.787H57.9558V254.777C57.9558 255.162 58.0578 255.463 58.2618 255.678C58.4658 255.882 58.7435 255.984 59.0948 255.984C59.5142 255.984 59.8712 255.871 60.1658 255.644L60.8798 257.514C60.6078 257.707 60.2792 257.854 59.8938 257.956C59.5198 258.047 59.1288 258.092 58.7208 258.092ZM53.8928 251.054V249.014H60.2338V251.054H53.8928Z" fill="#484848"/>
<path d="M67.9785 257.956V256.171L67.8085 255.78V252.584C67.8085 252.017 67.6329 251.575 67.2815 251.258C66.9415 250.941 66.4145 250.782 65.7005 250.782C65.2132 250.782 64.7315 250.861 64.2555 251.02C63.7909 251.167 63.3942 251.371 63.0655 251.632L62.1135 249.779C62.6122 249.428 63.2129 249.156 63.9155 248.963C64.6182 248.77 65.3322 248.674 66.0575 248.674C67.4515 248.674 68.5339 249.003 69.3045 249.66C70.0752 250.317 70.4605 251.343 70.4605 252.737V257.956H67.9785ZM65.1905 258.092C64.4765 258.092 63.8645 257.973 63.3545 257.735C62.8445 257.486 62.4535 257.151 62.1815 256.732C61.9095 256.313 61.7735 255.842 61.7735 255.321C61.7735 254.777 61.9039 254.301 62.1645 253.893C62.4365 253.485 62.8615 253.168 63.4395 252.941C64.0175 252.703 64.7712 252.584 65.7005 252.584H68.1315V254.131H65.9895C65.3662 254.131 64.9355 254.233 64.6975 254.437C64.4709 254.641 64.3575 254.896 64.3575 255.202C64.3575 255.542 64.4879 255.814 64.7485 256.018C65.0205 256.211 65.3889 256.307 65.8535 256.307C66.2955 256.307 66.6922 256.205 67.0435 256.001C67.3949 255.786 67.6499 255.474 67.8085 255.066L68.2165 256.29C68.0239 256.879 67.6725 257.327 67.1625 257.633C66.6525 257.939 65.9952 258.092 65.1905 258.092Z" fill="#484848"/>
<path d="M76.7197 258.092C75.9604 258.092 75.2804 257.945 74.6797 257.65C74.0904 257.355 73.6314 256.908 73.3027 256.307C72.9741 255.695 72.8097 254.919 72.8097 253.978V248.81H75.4617V253.587C75.4617 254.346 75.6204 254.907 75.9377 255.27C76.2664 255.621 76.7254 255.797 77.3147 255.797C77.7227 255.797 78.0854 255.712 78.4027 255.542C78.7201 255.361 78.9694 255.089 79.1507 254.726C79.3321 254.352 79.4227 253.887 79.4227 253.332V248.81H82.0747V257.956H79.5587V255.44L80.0177 256.171C79.7117 256.806 79.2584 257.287 78.6577 257.616C78.0684 257.933 77.4224 258.092 76.7197 258.092Z" fill="#484848"/>
<path d="M84.5316 257.956V248.81H87.0646V251.394L86.7076 250.646C86.9796 250 87.416 249.513 88.0166 249.184C88.6173 248.844 89.3483 248.674 90.2096 248.674V251.122C90.0963 251.111 89.9943 251.105 89.9036 251.105C89.813 251.094 89.7166 251.088 89.6146 251.088C88.8893 251.088 88.3 251.298 87.8466 251.717C87.4046 252.125 87.1836 252.765 87.1836 253.638V257.956H84.5316Z" fill="#484848"/>
<path d="M96.7989 257.956V256.171L96.6289 255.78V252.584C96.6289 252.017 96.4532 251.575 96.1019 251.258C95.7619 250.941 95.2348 250.782 94.5209 250.782C94.0335 250.782 93.5518 250.861 93.0759 251.02C92.6112 251.167 92.2145 251.371 91.8858 251.632L90.9339 249.779C91.4325 249.428 92.0332 249.156 92.7359 248.963C93.4385 248.77 94.1525 248.674 94.8779 248.674C96.2719 248.674 97.3542 249.003 98.1249 249.66C98.8955 250.317 99.2809 251.343 99.2809 252.737V257.956H96.7989ZM94.0108 258.092C93.2969 258.092 92.6849 257.973 92.1749 257.735C91.6648 257.486 91.2739 257.151 91.0019 256.732C90.7299 256.313 90.5938 255.842 90.5938 255.321C90.5938 254.777 90.7242 254.301 90.9848 253.893C91.2569 253.485 91.6818 253.168 92.2598 252.941C92.8379 252.703 93.5915 252.584 94.5209 252.584H96.9519V254.131H94.8099C94.1865 254.131 93.7559 254.233 93.5179 254.437C93.2912 254.641 93.1778 254.896 93.1778 255.202C93.1778 255.542 93.3082 255.814 93.5689 256.018C93.8409 256.211 94.2092 256.307 94.6739 256.307C95.1159 256.307 95.5125 256.205 95.8639 256.001C96.2152 255.786 96.4702 255.474 96.6289 255.066L97.0368 256.29C96.8442 256.879 96.4929 257.327 95.9828 257.633C95.4728 257.939 94.8155 258.092 94.0108 258.092Z" fill="#484848"/>
<path d="M107.24 248.674C107.965 248.674 108.611 248.821 109.178 249.116C109.756 249.399 110.209 249.841 110.538 250.442C110.867 251.031 111.031 251.791 111.031 252.72V257.956H108.379V253.128C108.379 252.391 108.215 251.847 107.886 251.496C107.569 251.145 107.115 250.969 106.526 250.969C106.107 250.969 105.727 251.06 105.387 251.241C105.058 251.411 104.798 251.677 104.605 252.04C104.424 252.403 104.333 252.867 104.333 253.434V257.956H101.681V248.81H104.214V251.343L103.738 250.578C104.067 249.966 104.537 249.496 105.149 249.167C105.761 248.838 106.458 248.674 107.24 248.674Z" fill="#484848"/>
<path d="M117.175 258.092C116.098 258.092 115.26 257.82 114.659 257.276C114.058 256.721 113.758 255.899 113.758 254.811V246.787H116.41V254.777C116.41 255.162 116.512 255.463 116.716 255.678C116.92 255.882 117.198 255.984 117.549 255.984C117.968 255.984 118.325 255.871 118.62 255.644L119.334 257.514C119.062 257.707 118.733 257.854 118.348 257.956C117.974 258.047 117.583 258.092 117.175 258.092ZM112.347 251.054V249.014H118.688V251.054H112.347Z" fill="#484848"/>
<path d="M124.974 257.956V256.171L129.564 251.836C129.927 251.507 130.193 251.213 130.363 250.952C130.533 250.691 130.646 250.453 130.703 250.238C130.771 250.023 130.805 249.824 130.805 249.643C130.805 249.167 130.641 248.804 130.312 248.555C129.995 248.294 129.524 248.164 128.901 248.164C128.402 248.164 127.938 248.26 127.507 248.453C127.088 248.646 126.731 248.946 126.436 249.354L124.43 248.062C124.883 247.382 125.518 246.844 126.334 246.447C127.15 246.05 128.091 245.852 129.156 245.852C130.04 245.852 130.811 245.999 131.468 246.294C132.137 246.577 132.652 246.98 133.015 247.501C133.389 248.022 133.576 248.646 133.576 249.371C133.576 249.756 133.525 250.142 133.423 250.527C133.332 250.901 133.14 251.298 132.845 251.717C132.562 252.136 132.142 252.607 131.587 253.128L127.779 256.715L127.252 255.712H133.967V257.956H124.974Z" fill="#484848"/>
<path d="M23.658 279.956V271.376L24.217 271.987H21.604V270.856H24.945V279.956H23.658Z" fill="#9A9A9A"/>
<path d="M30.6535 280.06C29.9429 280.06 29.3059 279.878 28.7425 279.514C28.1879 279.15 27.7459 278.621 27.4165 277.928C27.0959 277.235 26.9355 276.394 26.9355 275.406C26.9355 274.418 27.0959 273.577 27.4165 272.884C27.7459 272.191 28.1879 271.662 28.7425 271.298C29.3059 270.934 29.9429 270.752 30.6535 270.752C31.3555 270.752 31.9882 270.934 32.5515 271.298C33.1149 271.662 33.5569 272.191 33.8775 272.884C34.1982 273.577 34.3585 274.418 34.3585 275.406C34.3585 276.394 34.1982 277.235 33.8775 277.928C33.5569 278.621 33.1149 279.15 32.5515 279.514C31.9882 279.878 31.3555 280.06 30.6535 280.06ZM30.6535 278.903C31.1302 278.903 31.5462 278.773 31.9015 278.513C32.2655 278.253 32.5472 277.863 32.7465 277.343C32.9545 276.823 33.0585 276.177 33.0585 275.406C33.0585 274.635 32.9545 273.989 32.7465 273.469C32.5472 272.949 32.2655 272.559 31.9015 272.299C31.5462 272.039 31.1302 271.909 30.6535 271.909C30.1769 271.909 29.7565 272.039 29.3925 272.299C29.0285 272.559 28.7425 272.949 28.5345 273.469C28.3352 273.989 28.2355 274.635 28.2355 275.406C28.2355 276.177 28.3352 276.823 28.5345 277.343C28.7425 277.863 29.0285 278.253 29.3925 278.513C29.7565 278.773 30.1769 278.903 30.6535 278.903Z" fill="#9A9A9A"/>
<path d="M39.3244 280.06C38.6138 280.06 37.9768 279.878 37.4134 279.514C36.8588 279.15 36.4168 278.621 36.0874 277.928C35.7668 277.235 35.6064 276.394 35.6064 275.406C35.6064 274.418 35.7668 273.577 36.0874 272.884C36.4168 272.191 36.8588 271.662 37.4134 271.298C37.9768 270.934 38.6138 270.752 39.3244 270.752C40.0264 270.752 40.6591 270.934 41.2224 271.298C41.7858 271.662 42.2278 272.191 42.5484 272.884C42.8691 273.577 43.0294 274.418 43.0294 275.406C43.0294 276.394 42.8691 277.235 42.5484 277.928C42.2278 278.621 41.7858 279.15 41.2224 279.514C40.6591 279.878 40.0264 280.06 39.3244 280.06ZM39.3244 278.903C39.8011 278.903 40.2171 278.773 40.5724 278.513C40.9364 278.253 41.2181 277.863 41.4174 277.343C41.6254 276.823 41.7294 276.177 41.7294 275.406C41.7294 274.635 41.6254 273.989 41.4174 273.469C41.2181 272.949 40.9364 272.559 40.5724 272.299C40.2171 272.039 39.8011 271.909 39.3244 271.909C38.8478 271.909 38.4274 272.039 38.0634 272.299C37.6994 272.559 37.4134 272.949 37.2054 273.469C37.0061 273.989 36.9064 274.635 36.9064 275.406C36.9064 276.177 37.0061 276.823 37.2054 277.343C37.4134 277.863 37.6994 278.253 38.0634 278.513C38.4274 278.773 38.8478 278.903 39.3244 278.903Z" fill="#9A9A9A"/>
<path d="M49.6795 275.159H54.3725V276.277H49.6795V275.159ZM49.8095 279.956H48.5095V270.856H54.9315V271.987H49.8095V279.956Z" fill="#9A9A9A"/>
<path d="M59.3147 280.034C58.6213 280.034 58.006 279.882 57.4687 279.579C56.9313 279.276 56.5067 278.86 56.1947 278.331C55.8827 277.794 55.7267 277.187 55.7267 276.511C55.7267 275.826 55.8827 275.22 56.1947 274.691C56.5067 274.162 56.9313 273.751 57.4687 273.456C58.006 273.153 58.6213 273.001 59.3147 273.001C59.9993 273.001 60.6103 273.153 61.1477 273.456C61.6937 273.751 62.1183 274.162 62.4217 274.691C62.7337 275.211 62.8897 275.818 62.8897 276.511C62.8897 277.196 62.7337 277.802 62.4217 278.331C62.1183 278.86 61.6937 279.276 61.1477 279.579C60.6103 279.882 59.9993 280.034 59.3147 280.034ZM59.3147 278.942C59.7567 278.942 60.151 278.842 60.4977 278.643C60.853 278.444 61.1303 278.162 61.3297 277.798C61.529 277.425 61.6287 276.996 61.6287 276.511C61.6287 276.017 61.529 275.592 61.3297 275.237C61.1303 274.873 60.853 274.591 60.4977 274.392C60.151 274.193 59.7567 274.093 59.3147 274.093C58.8727 274.093 58.4783 274.193 58.1317 274.392C57.785 274.591 57.5077 274.873 57.2997 275.237C57.0917 275.592 56.9877 276.017 56.9877 276.511C56.9877 276.996 57.0917 277.425 57.2997 277.798C57.5077 278.162 57.785 278.444 58.1317 278.643C58.4783 278.842 58.8727 278.942 59.3147 278.942Z" fill="#9A9A9A"/>
<path d="M67.5666 280.034C66.8733 280.034 66.258 279.882 65.7206 279.579C65.1833 279.276 64.7586 278.86 64.4466 278.331C64.1346 277.794 63.9786 277.187 63.9786 276.511C63.9786 275.826 64.1346 275.22 64.4466 274.691C64.7586 274.162 65.1833 273.751 65.7206 273.456C66.258 273.153 66.8733 273.001 67.5666 273.001C68.2513 273.001 68.8623 273.153 69.3996 273.456C69.9456 273.751 70.3703 274.162 70.6736 274.691C70.9856 275.211 71.1416 275.818 71.1416 276.511C71.1416 277.196 70.9856 277.802 70.6736 278.331C70.3703 278.86 69.9456 279.276 69.3996 279.579C68.8623 279.882 68.2513 280.034 67.5666 280.034ZM67.5666 278.942C68.0086 278.942 68.403 278.842 68.7496 278.643C69.105 278.444 69.3823 278.162 69.5816 277.798C69.781 277.425 69.8806 276.996 69.8806 276.511C69.8806 276.017 69.781 275.592 69.5816 275.237C69.3823 274.873 69.105 274.591 68.7496 274.392C68.403 274.193 68.0086 274.093 67.5666 274.093C67.1246 274.093 66.7303 274.193 66.3836 274.392C66.037 274.591 65.7596 274.873 65.5516 275.237C65.3436 275.592 65.2396 276.017 65.2396 276.511C65.2396 276.996 65.3436 277.425 65.5516 277.798C65.7596 278.162 66.037 278.444 66.3836 278.643C66.7303 278.842 67.1246 278.942 67.5666 278.942Z" fill="#9A9A9A"/>
<path d="M75.7146 280.034C75.0472 280.034 74.4492 279.887 73.9206 279.592C73.4006 279.297 72.9889 278.886 72.6856 278.357C72.3822 277.828 72.2306 277.213 72.2306 276.511C72.2306 275.809 72.3822 275.198 72.6856 274.678C72.9889 274.149 73.4006 273.738 73.9206 273.443C74.4492 273.148 75.0472 273.001 75.7146 273.001C76.2952 273.001 76.8196 273.131 77.2876 273.391C77.7556 273.651 78.1282 274.041 78.4056 274.561C78.6916 275.081 78.8346 275.731 78.8346 276.511C78.8346 277.291 78.6959 277.941 78.4186 278.461C78.1499 278.981 77.7816 279.375 77.3136 279.644C76.8456 279.904 76.3126 280.034 75.7146 280.034ZM75.8186 278.942C76.2519 278.942 76.6419 278.842 76.9886 278.643C77.3439 278.444 77.6212 278.162 77.8206 277.798C78.0286 277.425 78.1326 276.996 78.1326 276.511C78.1326 276.017 78.0286 275.592 77.8206 275.237C77.6212 274.873 77.3439 274.591 76.9886 274.392C76.6419 274.193 76.2519 274.093 75.8186 274.093C75.3766 274.093 74.9822 274.193 74.6356 274.392C74.2889 274.591 74.0116 274.873 73.8036 275.237C73.5956 275.592 73.4916 276.017 73.4916 276.511C73.4916 276.996 73.5956 277.425 73.8036 277.798C74.0116 278.162 74.2889 278.444 74.6356 278.643C74.9822 278.842 75.3766 278.942 75.8186 278.942ZM78.1716 279.956V278.097L78.2496 276.498L78.1196 274.899V270.31H79.3676V279.956H78.1716Z" fill="#9A9A9A"/>
<path d="M88.0541 280.06C87.3608 280.06 86.6978 279.956 86.0651 279.748C85.4324 279.531 84.9341 279.254 84.5701 278.916L85.0511 277.902C85.3978 278.205 85.8398 278.457 86.3771 278.656C86.9144 278.855 87.4734 278.955 88.0541 278.955C88.5828 278.955 89.0118 278.894 89.3411 278.773C89.6704 278.652 89.9131 278.487 90.0691 278.279C90.2251 278.062 90.3031 277.82 90.3031 277.551C90.3031 277.239 90.1991 276.988 89.9911 276.797C89.7918 276.606 89.5275 276.455 89.1981 276.342C88.8775 276.221 88.5221 276.117 88.1321 276.03C87.7421 275.943 87.3478 275.844 86.9491 275.731C86.5591 275.61 86.1994 275.458 85.8701 275.276C85.5494 275.094 85.2894 274.851 85.0901 274.548C84.8908 274.236 84.7911 273.837 84.7911 273.352C84.7911 272.884 84.9124 272.455 85.1551 272.065C85.4064 271.666 85.7878 271.35 86.2991 271.116C86.8191 270.873 87.4778 270.752 88.2751 270.752C88.8038 270.752 89.3281 270.821 89.8481 270.96C90.3681 271.099 90.8188 271.298 91.2001 271.558L90.7711 272.598C90.3811 272.338 89.9695 272.152 89.5361 272.039C89.1028 271.918 88.6824 271.857 88.2751 271.857C87.7638 271.857 87.3434 271.922 87.0141 272.052C86.6848 272.182 86.4421 272.355 86.2861 272.572C86.1388 272.789 86.0651 273.031 86.0651 273.3C86.0651 273.621 86.1648 273.876 86.3641 274.067C86.5721 274.258 86.8365 274.409 87.1571 274.522C87.4865 274.635 87.8461 274.739 88.2361 274.834C88.6261 274.921 89.0161 275.02 89.4061 275.133C89.8048 275.246 90.1645 275.393 90.4851 275.575C90.8144 275.757 91.0788 276 91.2781 276.303C91.4774 276.606 91.5771 276.996 91.5771 277.473C91.5771 277.932 91.4515 278.361 91.2001 278.76C90.9488 279.15 90.5588 279.466 90.0301 279.709C89.5101 279.943 88.8514 280.06 88.0541 280.06Z" fill="#9A9A9A"/>
<path d="M95.6603 280.034C94.967 280.034 94.4297 279.848 94.0483 279.475C93.667 279.102 93.4763 278.569 93.4763 277.876V271.558H94.7243V277.824C94.7243 278.197 94.8153 278.483 94.9973 278.682C95.188 278.881 95.4567 278.981 95.8033 278.981C96.1933 278.981 96.5183 278.873 96.7783 278.656L97.1683 279.553C96.9777 279.718 96.748 279.839 96.4793 279.917C96.2193 279.995 95.9463 280.034 95.6603 280.034ZM92.3063 274.093V273.066H96.7003V274.093H92.3063Z" fill="#9A9A9A"/>
<path d="M98.6771 279.956V273.066H99.8731V274.938L99.7561 274.47C99.9468 273.993 100.267 273.629 100.718 273.378C101.169 273.127 101.723 273.001 102.382 273.001V274.21C102.33 274.201 102.278 274.197 102.226 274.197C102.183 274.197 102.139 274.197 102.096 274.197C101.429 274.197 100.9 274.396 100.51 274.795C100.12 275.194 99.9251 275.77 99.9251 276.524V279.956H98.6771Z" fill="#9A9A9A"/>
<path d="M106.925 280.034C106.188 280.034 105.538 279.882 104.975 279.579C104.42 279.276 103.987 278.86 103.675 278.331C103.371 277.802 103.22 277.196 103.22 276.511C103.22 275.826 103.367 275.22 103.662 274.691C103.965 274.162 104.377 273.751 104.897 273.456C105.425 273.153 106.019 273.001 106.678 273.001C107.345 273.001 107.935 273.148 108.446 273.443C108.957 273.738 109.356 274.154 109.642 274.691C109.937 275.22 110.084 275.839 110.084 276.55C110.084 276.602 110.08 276.663 110.071 276.732C110.071 276.801 110.067 276.866 110.058 276.927H104.195V276.03H109.408L108.901 276.342C108.91 275.9 108.819 275.506 108.628 275.159C108.437 274.812 108.173 274.544 107.835 274.353C107.506 274.154 107.12 274.054 106.678 274.054C106.244 274.054 105.859 274.154 105.521 274.353C105.183 274.544 104.919 274.817 104.728 275.172C104.537 275.519 104.442 275.917 104.442 276.368V276.576C104.442 277.035 104.546 277.447 104.754 277.811C104.971 278.166 105.27 278.444 105.651 278.643C106.032 278.842 106.47 278.942 106.964 278.942C107.371 278.942 107.74 278.873 108.069 278.734C108.407 278.595 108.701 278.387 108.953 278.11L109.642 278.916C109.33 279.28 108.94 279.557 108.472 279.748C108.012 279.939 107.497 280.034 106.925 280.034Z" fill="#9A9A9A"/>
<path d="M114.885 280.034C114.148 280.034 113.498 279.882 112.935 279.579C112.38 279.276 111.947 278.86 111.635 278.331C111.331 277.802 111.18 277.196 111.18 276.511C111.18 275.826 111.327 275.22 111.622 274.691C111.925 274.162 112.337 273.751 112.857 273.456C113.385 273.153 113.979 273.001 114.638 273.001C115.305 273.001 115.894 273.148 116.406 273.443C116.917 273.738 117.316 274.154 117.602 274.691C117.896 275.22 118.044 275.839 118.044 276.55C118.044 276.602 118.039 276.663 118.031 276.732C118.031 276.801 118.026 276.866 118.018 276.927H112.155V276.03H117.368L116.861 276.342C116.869 275.9 116.778 275.506 116.588 275.159C116.397 274.812 116.133 274.544 115.795 274.353C115.465 274.154 115.08 274.054 114.638 274.054C114.204 274.054 113.819 274.154 113.481 274.353C113.143 274.544 112.878 274.817 112.688 275.172C112.497 275.519 112.402 275.917 112.402 276.368V276.576C112.402 277.035 112.506 277.447 112.714 277.811C112.93 278.166 113.229 278.444 113.611 278.643C113.992 278.842 114.43 278.942 114.924 278.942C115.331 278.942 115.699 278.873 116.029 278.734C116.367 278.595 116.661 278.387 116.913 278.11L117.602 278.916C117.29 279.28 116.9 279.557 116.432 279.748C115.972 279.939 115.457 280.034 114.885 280.034Z" fill="#9A9A9A"/>
<path d="M122.143 280.034C121.449 280.034 120.912 279.848 120.531 279.475C120.149 279.102 119.959 278.569 119.959 277.876V271.558H121.207V277.824C121.207 278.197 121.298 278.483 121.48 278.682C121.67 278.881 121.939 278.981 122.286 278.981C122.676 278.981 123.001 278.873 123.261 278.656L123.651 279.553C123.46 279.718 123.23 279.839 122.962 279.917C122.702 279.995 122.429 280.034 122.143 280.034ZM118.789 274.093V273.066H123.183V274.093H118.789Z" fill="#9A9A9A"/>
<path d="M124.793 281.88L125.443 279.254L125.612 280.008C125.36 280.008 125.148 279.93 124.975 279.774C124.81 279.618 124.728 279.406 124.728 279.137C124.728 278.877 124.81 278.665 124.975 278.5C125.148 278.335 125.356 278.253 125.599 278.253C125.85 278.253 126.054 278.34 126.21 278.513C126.366 278.678 126.444 278.886 126.444 279.137C126.444 279.224 126.435 279.31 126.418 279.397C126.409 279.475 126.387 279.57 126.353 279.683C126.327 279.787 126.283 279.917 126.223 280.073L125.612 281.88H124.793Z" fill="#9A9A9A"/>
<path d="M133.712 279.956V271.987H130.592V270.856H138.119V271.987H134.999V279.956H133.712Z" fill="#9A9A9A"/>
<path d="M141.593 280.034C140.9 280.034 140.284 279.882 139.747 279.579C139.21 279.276 138.785 278.86 138.473 278.331C138.161 277.794 138.005 277.187 138.005 276.511C138.005 275.826 138.161 275.22 138.473 274.691C138.785 274.162 139.21 273.751 139.747 273.456C140.284 273.153 140.9 273.001 141.593 273.001C142.278 273.001 142.889 273.153 143.426 273.456C143.972 273.751 144.397 274.162 144.7 274.691C145.012 275.211 145.168 275.818 145.168 276.511C145.168 277.196 145.012 277.802 144.7 278.331C144.397 278.86 143.972 279.276 143.426 279.579C142.889 279.882 142.278 280.034 141.593 280.034ZM141.593 278.942C142.035 278.942 142.429 278.842 142.776 278.643C143.131 278.444 143.409 278.162 143.608 277.798C143.807 277.425 143.907 276.996 143.907 276.511C143.907 276.017 143.807 275.592 143.608 275.237C143.409 274.873 143.131 274.591 142.776 274.392C142.429 274.193 142.035 274.093 141.593 274.093C141.151 274.093 140.757 274.193 140.41 274.392C140.063 274.591 139.786 274.873 139.578 275.237C139.37 275.592 139.266 276.017 139.266 276.511C139.266 276.996 139.37 277.425 139.578 277.798C139.786 278.162 140.063 278.444 140.41 278.643C140.757 278.842 141.151 278.942 141.593 278.942Z" fill="#9A9A9A"/>
<path d="M146.894 279.956V273.066H148.09V274.938L147.973 274.47C148.164 273.993 148.484 273.629 148.935 273.378C149.386 273.127 149.94 273.001 150.599 273.001V274.21C150.547 274.201 150.495 274.197 150.443 274.197C150.4 274.197 150.356 274.197 150.313 274.197C149.646 274.197 149.117 274.396 148.727 274.795C148.337 275.194 148.142 275.77 148.142 276.524V279.956H146.894Z" fill="#9A9A9A"/>
<path d="M155.025 280.034C154.331 280.034 153.716 279.882 153.179 279.579C152.641 279.276 152.217 278.86 151.905 278.331C151.593 277.794 151.437 277.187 151.437 276.511C151.437 275.826 151.593 275.22 151.905 274.691C152.217 274.162 152.641 273.751 153.179 273.456C153.716 273.153 154.331 273.001 155.025 273.001C155.709 273.001 156.32 273.153 156.858 273.456C157.404 273.751 157.828 274.162 158.132 274.691C158.444 275.211 158.6 275.818 158.6 276.511C158.6 277.196 158.444 277.802 158.132 278.331C157.828 278.86 157.404 279.276 156.858 279.579C156.32 279.882 155.709 280.034 155.025 280.034ZM155.025 278.942C155.467 278.942 155.861 278.842 156.208 278.643C156.563 278.444 156.84 278.162 157.04 277.798C157.239 277.425 157.339 276.996 157.339 276.511C157.339 276.017 157.239 275.592 157.04 275.237C156.84 274.873 156.563 274.591 156.208 274.392C155.861 274.193 155.467 274.093 155.025 274.093C154.583 274.093 154.188 274.193 153.842 274.392C153.495 274.591 153.218 274.873 153.01 275.237C152.802 275.592 152.698 276.017 152.698 276.511C152.698 276.996 152.802 277.425 153.01 277.798C153.218 278.162 153.495 278.444 153.842 278.643C154.188 278.842 154.583 278.942 155.025 278.942Z" fill="#9A9A9A"/>
<path d="M164.005 273.001C164.568 273.001 165.062 273.109 165.487 273.326C165.92 273.543 166.258 273.872 166.501 274.314C166.743 274.756 166.865 275.315 166.865 275.991V279.956H165.617V276.134C165.617 275.467 165.452 274.964 165.123 274.626C164.802 274.288 164.347 274.119 163.758 274.119C163.316 274.119 162.93 274.206 162.601 274.379C162.271 274.552 162.016 274.808 161.834 275.146C161.66 275.484 161.574 275.904 161.574 276.407V279.956H160.326V273.066H161.522V274.925L161.327 274.431C161.552 273.98 161.899 273.629 162.367 273.378C162.835 273.127 163.381 273.001 164.005 273.001Z" fill="#9A9A9A"/>
<path d="M171.54 280.034C170.847 280.034 170.31 279.848 169.928 279.475C169.547 279.102 169.356 278.569 169.356 277.876V271.558H170.604V277.824C170.604 278.197 170.695 278.483 170.877 278.682C171.068 278.881 171.337 278.981 171.683 278.981C172.073 278.981 172.398 278.873 172.658 278.656L173.048 279.553C172.858 279.718 172.628 279.839 172.359 279.917C172.099 279.995 171.826 280.034 171.54 280.034ZM168.186 274.093V273.066H172.58V274.093H168.186Z" fill="#9A9A9A"/>
<path d="M177.28 280.034C176.586 280.034 175.971 279.882 175.434 279.579C174.896 279.276 174.472 278.86 174.16 278.331C173.848 277.794 173.692 277.187 173.692 276.511C173.692 275.826 173.848 275.22 174.16 274.691C174.472 274.162 174.896 273.751 175.434 273.456C175.971 273.153 176.586 273.001 177.28 273.001C177.964 273.001 178.575 273.153 179.113 273.456C179.659 273.751 180.083 274.162 180.387 274.691C180.699 275.211 180.855 275.818 180.855 276.511C180.855 277.196 180.699 277.802 180.387 278.331C180.083 278.86 179.659 279.276 179.113 279.579C178.575 279.882 177.964 280.034 177.28 280.034ZM177.28 278.942C177.722 278.942 178.116 278.842 178.463 278.643C178.818 278.444 179.095 278.162 179.295 277.798C179.494 277.425 179.594 276.996 179.594 276.511C179.594 276.017 179.494 275.592 179.295 275.237C179.095 274.873 178.818 274.591 178.463 274.392C178.116 274.193 177.722 274.093 177.28 274.093C176.838 274.093 176.443 274.193 176.097 274.392C175.75 274.591 175.473 274.873 175.265 275.237C175.057 275.592 174.953 276.017 174.953 276.511C174.953 276.996 175.057 277.425 175.265 277.798C175.473 278.162 175.75 278.444 176.097 278.643C176.443 278.842 176.838 278.942 177.28 278.942Z" fill="#9A9A9A"/>
<path d="M181.934 281.88L182.584 279.254L182.753 280.008C182.502 280.008 182.289 279.93 182.116 279.774C181.951 279.618 181.869 279.406 181.869 279.137C181.869 278.877 181.951 278.665 182.116 278.5C182.289 278.335 182.497 278.253 182.74 278.253C182.991 278.253 183.195 278.34 183.351 278.513C183.507 278.678 183.585 278.886 183.585 279.137C183.585 279.224 183.576 279.31 183.559 279.397C183.55 279.475 183.529 279.57 183.494 279.683C183.468 279.787 183.425 279.917 183.364 280.073L182.753 281.88H181.934Z" fill="#9A9A9A"/>
<path d="M193.116 280.06C192.422 280.06 191.781 279.947 191.192 279.722C190.611 279.488 190.104 279.163 189.671 278.747C189.246 278.322 188.912 277.828 188.67 277.265C188.427 276.702 188.306 276.082 188.306 275.406C188.306 274.73 188.427 274.11 188.67 273.547C188.912 272.984 189.25 272.494 189.684 272.078C190.117 271.653 190.624 271.328 191.205 271.103C191.794 270.869 192.435 270.752 193.129 270.752C193.831 270.752 194.476 270.873 195.066 271.116C195.664 271.35 196.171 271.701 196.587 272.169L195.742 272.988C195.395 272.624 195.005 272.355 194.572 272.182C194.138 272 193.675 271.909 193.181 271.909C192.669 271.909 192.193 271.996 191.751 272.169C191.317 272.342 190.94 272.585 190.62 272.897C190.299 273.209 190.048 273.582 189.866 274.015C189.692 274.44 189.606 274.903 189.606 275.406C189.606 275.909 189.692 276.377 189.866 276.81C190.048 277.235 190.299 277.603 190.62 277.915C190.94 278.227 191.317 278.47 191.751 278.643C192.193 278.816 192.669 278.903 193.181 278.903C193.675 278.903 194.138 278.816 194.572 278.643C195.005 278.461 195.395 278.184 195.742 277.811L196.587 278.63C196.171 279.098 195.664 279.453 195.066 279.696C194.476 279.939 193.826 280.06 193.116 280.06Z" fill="#9A9A9A"/>
<path d="M196.847 279.956L200.968 270.856H202.255L206.389 279.956H205.024L201.345 271.584H201.865L198.186 279.956H196.847ZM198.602 277.681L198.953 276.641H204.075L204.452 277.681H198.602Z" fill="#9A9A9A"/>
<path d="M21.5 310.456C21.5 300.791 29.335 292.956 39 292.956H111C120.665 292.956 128.5 300.791 128.5 310.456C128.5 320.121 120.665 327.956 111 327.956H39C29.335 327.956 21.5 320.121 21.5 310.456Z" fill="#C92020" fill-opacity="0.5"/>
<path fill-rule="evenodd" clip-rule="evenodd" d="M111 293.956H39C29.8873 293.956 22.5 301.343 22.5 310.456C22.5 319.569 29.8873 326.956 39 326.956H111C120.113 326.956 127.5 319.569 127.5 310.456C127.5 301.343 120.113 293.956 111 293.956ZM39 292.956C29.335 292.956 21.5 300.791 21.5 310.456C21.5 320.121 29.335 327.956 39 327.956H111C120.665 327.956 128.5 320.121 128.5 310.456C128.5 300.791 120.665 292.956 111 292.956H39Z" fill="#C92020" fill-opacity="0.8"/>
<path d="M41.1826 314.956V303.32H45.7735C46.6523 303.32 47.4023 303.477 48.0235 303.791C48.6485 304.102 49.1239 304.543 49.4497 305.115C49.7792 305.683 49.944 306.352 49.944 307.121C49.944 307.894 49.7773 308.558 49.444 309.115C49.1106 309.668 48.6277 310.093 47.9951 310.388C47.3663 310.683 46.605 310.831 45.711 310.831H42.6372V308.854H45.3133C45.783 308.854 46.1731 308.79 46.4838 308.661C46.7944 308.532 47.0254 308.339 47.1769 308.081C47.3322 307.824 47.4099 307.504 47.4099 307.121C47.4099 306.735 47.3322 306.409 47.1769 306.144C47.0254 305.879 46.7925 305.678 46.4781 305.541C46.1675 305.401 45.7754 305.331 45.3019 305.331H43.6428V314.956H41.1826ZM47.4667 309.661L50.3588 314.956H47.6428L44.8133 309.661H47.4667Z" fill="black"/>
<path d="M56.5938 315.127C55.6961 315.127 54.9234 314.945 54.2756 314.581C53.6317 314.214 53.1355 313.695 52.787 313.024C52.4385 312.35 52.2643 311.553 52.2643 310.632C52.2643 309.735 52.4385 308.947 52.787 308.269C53.1355 307.591 53.626 307.062 54.2586 306.683C54.8949 306.305 55.6412 306.115 56.4972 306.115C57.073 306.115 57.609 306.208 58.1052 306.394C58.6052 306.576 59.0408 306.85 59.412 307.218C59.787 307.585 60.0787 308.047 60.287 308.604C60.4953 309.157 60.5995 309.805 60.5995 310.547V311.212H53.2302V309.712H58.3211C58.3211 309.363 58.2453 309.055 58.0938 308.786C57.9423 308.517 57.7321 308.307 57.4631 308.155C57.198 308 56.8893 307.922 56.537 307.922C56.1696 307.922 55.8438 308.007 55.5597 308.178C55.2794 308.344 55.0597 308.57 54.9006 308.854C54.7415 309.134 54.6601 309.447 54.6563 309.791V311.218C54.6563 311.649 54.7359 312.022 54.8949 312.337C55.0578 312.651 55.287 312.894 55.5824 313.064C55.8779 313.235 56.2283 313.32 56.6336 313.32C56.9025 313.32 57.1487 313.282 57.3722 313.206C57.5957 313.13 57.787 313.017 57.9461 312.865C58.1052 312.714 58.2264 312.528 58.3097 312.308L60.5484 312.456C60.4347 312.994 60.2018 313.464 59.8495 313.865C59.501 314.263 59.0502 314.574 58.4972 314.797C57.948 315.017 57.3135 315.127 56.5938 315.127Z" fill="black"/>
<path d="M70.5604 308.718L68.3445 308.854C68.3066 308.665 68.2252 308.494 68.1002 308.343C67.9752 308.187 67.8104 308.064 67.6059 307.973C67.4051 307.879 67.1646 307.831 66.8843 307.831C66.5093 307.831 66.193 307.911 65.9354 308.07C65.6778 308.225 65.549 308.433 65.549 308.695C65.549 308.903 65.6324 309.079 65.799 309.223C65.9657 309.367 66.2517 309.483 66.657 309.57L68.2365 309.888C69.085 310.062 69.7176 310.343 70.1343 310.729C70.5509 311.115 70.7593 311.623 70.7593 312.252C70.7593 312.824 70.5907 313.326 70.2536 313.757C69.9202 314.189 69.4619 314.526 68.8786 314.769C68.299 315.007 67.6305 315.127 66.8729 315.127C65.7176 315.127 64.7971 314.886 64.1115 314.405C63.4297 313.92 63.0301 313.261 62.9127 312.428L65.2934 312.303C65.3653 312.655 65.5396 312.924 65.8161 313.11C66.0926 313.291 66.4468 313.382 66.8786 313.382C67.3028 313.382 67.6437 313.301 67.9013 313.138C68.1627 312.971 68.2952 312.757 68.299 312.496C68.2952 312.276 68.2024 312.096 68.0206 311.956C67.8388 311.812 67.5585 311.702 67.1797 311.627L65.6684 311.326C64.8161 311.155 64.1816 310.86 63.7649 310.439C63.3521 310.019 63.1456 309.483 63.1456 308.831C63.1456 308.271 63.2971 307.788 63.6002 307.382C63.907 306.977 64.3369 306.665 64.8899 306.445C65.4468 306.225 66.0983 306.115 66.8445 306.115C67.9468 306.115 68.8142 306.348 69.4468 306.814C70.0831 307.28 70.4543 307.915 70.5604 308.718Z" fill="black"/>
<path d="M77.3807 315.127C76.483 315.127 75.7102 314.945 75.0625 314.581C74.4186 314.214 73.9224 313.695 73.5739 313.024C73.2254 312.35 73.0511 311.553 73.0511 310.632C73.0511 309.735 73.2254 308.947 73.5739 308.269C73.9224 307.591 74.4129 307.062 75.0455 306.683C75.6818 306.305 76.428 306.115 77.2841 306.115C77.8599 306.115 78.3958 306.208 78.892 306.394C79.392 306.576 79.8277 306.85 80.1989 307.218C80.5739 307.585 80.8655 308.047 81.0739 308.604C81.2822 309.157 81.3864 309.805 81.3864 310.547V311.212H74.017V309.712H79.108C79.108 309.363 79.0322 309.055 78.8807 308.786C78.7292 308.517 78.5189 308.307 78.25 308.155C77.9849 308 77.6761 307.922 77.3239 307.922C76.9564 307.922 76.6307 308.007 76.3466 308.178C76.0663 308.344 75.8466 308.57 75.6875 308.854C75.5284 309.134 75.447 309.447 75.4432 309.791V311.218C75.4432 311.649 75.5227 312.022 75.6818 312.337C75.8447 312.651 76.0739 312.894 76.3693 313.064C76.6648 313.235 77.0152 313.32 77.4205 313.32C77.6894 313.32 77.9356 313.282 78.1591 313.206C78.3826 313.13 78.5739 313.017 78.733 312.865C78.8921 312.714 79.0133 312.528 79.0966 312.308L81.3352 312.456C81.2216 312.994 80.9886 313.464 80.6364 313.865C80.2879 314.263 79.8371 314.574 79.2841 314.797C78.7349 315.017 78.1004 315.127 77.3807 315.127Z" fill="black"/>
<path d="M84.0859 314.956V306.229H86.4325V307.752H86.5234C86.6825 307.21 86.9495 306.801 87.3245 306.524C87.6995 306.244 88.1314 306.104 88.62 306.104C88.7412 306.104 88.8719 306.111 89.012 306.127C89.1522 306.142 89.2753 306.163 89.3814 306.189V308.337C89.2677 308.303 89.1105 308.272 88.9098 308.246C88.709 308.219 88.5253 308.206 88.3586 308.206C88.0026 308.206 87.6844 308.284 87.4041 308.439C87.1276 308.591 86.9079 308.803 86.745 309.076C86.5859 309.348 86.5064 309.663 86.5064 310.019V314.956H84.0859Z" fill="black"/>
<path d="M100.155 306.229L97.1036 314.956H94.3764L91.3252 306.229H93.882L95.6945 312.473H95.7855L97.5923 306.229H100.155Z" fill="black"/>
<path d="M106.209 315.127C105.312 315.127 104.539 314.945 103.891 314.581C103.247 314.214 102.751 313.695 102.403 313.024C102.054 312.35 101.88 311.553 101.88 310.632C101.88 309.735 102.054 308.947 102.403 308.269C102.751 307.591 103.242 307.062 103.874 306.683C104.511 306.305 105.257 306.115 106.113 306.115C106.689 306.115 107.225 306.208 107.721 306.394C108.221 306.576 108.656 306.85 109.028 307.218C109.403 307.585 109.694 308.047 109.903 308.604C110.111 309.157 110.215 309.805 110.215 310.547V311.212H102.846V309.712H107.937C107.937 309.363 107.861 309.055 107.709 308.786C107.558 308.517 107.348 308.307 107.079 308.155C106.814 308 106.505 307.922 106.153 307.922C105.785 307.922 105.459 308.007 105.175 308.178C104.895 308.344 104.675 308.57 104.516 308.854C104.357 309.134 104.276 309.447 104.272 309.791V311.218C104.272 311.649 104.351 312.022 104.511 312.337C104.673 312.651 104.903 312.894 105.198 313.064C105.494 313.235 105.844 313.32 106.249 313.32C106.518 313.32 106.764 313.282 106.988 313.206C107.211 313.13 107.403 313.017 107.562 312.865C107.721 312.714 107.842 312.528 107.925 312.308L110.164 312.456C110.05 312.994 109.817 313.464 109.465 313.865C109.117 314.263 108.666 314.574 108.113 314.797C107.564 315.017 106.929 315.127 106.209 315.127Z" fill="black"/>
</svg>
