<svg width="199" height="40" viewBox="0 0 199 40" fill="none" xmlns="http://www.w3.org/2000/svg">
<path d="M4.17602 5.47608H10.242V7.74408H4.17602V5.47608ZM4.39202 10.6601H11.25V13.0001H1.49402V0.400081H11.016V2.74008H4.39202V10.6601Z" fill="#483332"/>
<path d="M12.0071 13.0001L17.4251 5.53008V7.65408L12.2411 0.400081H15.5531L19.1351 5.45808L17.7491 5.47608L21.2771 0.400081H24.4451L19.2971 7.52808V5.44008L24.7511 13.0001H21.3851L17.6771 7.65408H19.0091L15.3551 13.0001H12.0071Z" fill="#483332"/>
<path d="M25.8925 13.0001V0.400081H31.3465C32.4745 0.400081 33.4465 0.586082 34.2625 0.958082C35.0785 1.31808 35.7085 1.84008 36.1525 2.52408C36.5965 3.20808 36.8185 4.02408 36.8185 4.97208C36.8185 5.90808 36.5965 6.71808 36.1525 7.40208C35.7085 8.08608 35.0785 8.61408 34.2625 8.98608C33.4465 9.34608 32.4745 9.52608 31.3465 9.52608H27.5125L28.8085 8.21208V13.0001H25.8925ZM28.8085 8.53608L27.5125 7.15008H31.1845C32.0845 7.15008 32.7565 6.95808 33.2005 6.57408C33.6445 6.19008 33.8665 5.65608 33.8665 4.97208C33.8665 4.27608 33.6445 3.73608 33.2005 3.35208C32.7565 2.96808 32.0845 2.77608 31.1845 2.77608H27.5125L28.8085 1.39008V8.53608Z" fill="#483332"/>
<path d="M38.9003 13.0001V0.400081H41.8163V10.6241H48.1343V13.0001H38.9003Z" fill="#483332"/>
<path d="M55.6726 13.2161C54.6766 13.2161 53.7526 13.0541 52.9006 12.7301C52.0606 12.4061 51.3286 11.9501 50.7046 11.3621C50.0926 10.7741 49.6126 10.0841 49.2646 9.29208C48.9286 8.50008 48.7606 7.63608 48.7606 6.70008C48.7606 5.76408 48.9286 4.90008 49.2646 4.10808C49.6126 3.31608 50.0986 2.62608 50.7226 2.03808C51.3466 1.45008 52.0786 0.994081 52.9186 0.670081C53.7586 0.346082 54.6706 0.184082 55.6546 0.184082C56.6506 0.184082 57.5626 0.346082 58.3906 0.670081C59.2306 0.994081 59.9566 1.45008 60.5686 2.03808C61.1926 2.62608 61.6786 3.31608 62.0266 4.10808C62.3746 4.88808 62.5486 5.75208 62.5486 6.70008C62.5486 7.63608 62.3746 8.50608 62.0266 9.31008C61.6786 10.1021 61.1926 10.7921 60.5686 11.3801C59.9566 11.9561 59.2306 12.4061 58.3906 12.7301C57.5626 13.0541 56.6566 13.2161 55.6726 13.2161ZM55.6546 10.7321C56.2186 10.7321 56.7346 10.6361 57.2026 10.4441C57.6826 10.2521 58.1026 9.97608 58.4626 9.61608C58.8226 9.25608 59.0986 8.83008 59.2906 8.33808C59.4946 7.84608 59.5966 7.30008 59.5966 6.70008C59.5966 6.10008 59.4946 5.55408 59.2906 5.06208C59.0986 4.57008 58.8226 4.14408 58.4626 3.78408C58.1146 3.42408 57.7006 3.14808 57.2206 2.95608C56.7406 2.76408 56.2186 2.66808 55.6546 2.66808C55.0906 2.66808 54.5686 2.76408 54.0886 2.95608C53.6206 3.14808 53.2066 3.42408 52.8466 3.78408C52.4866 4.14408 52.2046 4.57008 52.0006 5.06208C51.8086 5.55408 51.7126 6.10008 51.7126 6.70008C51.7126 7.28808 51.8086 7.83408 52.0006 8.33808C52.2046 8.83008 52.4806 9.25608 52.8286 9.61608C53.1886 9.97608 53.6086 10.2521 54.0886 10.4441C54.5686 10.6361 55.0906 10.7321 55.6546 10.7321Z" fill="#483332"/>
<path d="M64.7401 13.0001V0.400081H70.1941C71.3221 0.400081 72.2941 0.586082 73.1101 0.958082C73.9261 1.31808 74.5561 1.84008 75.0001 2.52408C75.4441 3.20808 75.6661 4.02408 75.6661 4.97208C75.6661 5.90808 75.4441 6.71808 75.0001 7.40208C74.5561 8.07408 73.9261 8.59008 73.1101 8.95008C72.2941 9.31008 71.3221 9.49008 70.1941 9.49008H66.3601L67.6561 8.21208V13.0001H64.7401ZM72.7501 13.0001L69.6001 8.42808H72.7141L75.9001 13.0001H72.7501ZM67.6561 8.53608L66.3601 7.16808H70.0321C70.9321 7.16808 71.6041 6.97608 72.0481 6.59208C72.4921 6.19608 72.7141 5.65608 72.7141 4.97208C72.7141 4.27608 72.4921 3.73608 72.0481 3.35208C71.6041 2.96808 70.9321 2.77608 70.0321 2.77608H66.3601L67.6561 1.39008V8.53608Z" fill="#483332"/>
<path d="M80.6584 5.47608H86.7244V7.74408H80.6584V5.47608ZM80.8744 10.6601H87.7324V13.0001H77.9764V0.400081H87.4984V2.74008H80.8744V10.6601Z" fill="#483332"/>
<path d="M95.1503 13.0001V0.400081H100.604C101.732 0.400081 102.704 0.586082 103.52 0.958082C104.336 1.31808 104.966 1.84008 105.41 2.52408C105.854 3.20808 106.076 4.02408 106.076 4.97208C106.076 5.90808 105.854 6.71808 105.41 7.40208C104.966 8.07408 104.336 8.59008 103.52 8.95008C102.704 9.31008 101.732 9.49008 100.604 9.49008H96.7703L98.0663 8.21208V13.0001H95.1503ZM103.16 13.0001L100.01 8.42808H103.124L106.31 13.0001H103.16ZM98.0663 8.53608L96.7703 7.16808H100.442C101.342 7.16808 102.014 6.97608 102.458 6.59208C102.902 6.19608 103.124 5.65608 103.124 4.97208C103.124 4.27608 102.902 3.73608 102.458 3.35208C102.014 2.96808 101.342 2.77608 100.442 2.77608H96.7703L98.0663 1.39008V8.53608Z" fill="#483332"/>
<path d="M111.069 5.47608H117.135V7.74408H111.069V5.47608ZM111.285 10.6601H118.143V13.0001H108.387V0.400081H117.909V2.74008H111.285V10.6601Z" fill="#483332"/>
<path d="M124.603 13.2161C123.595 13.2161 122.629 13.0841 121.705 12.8201C120.781 12.5441 120.037 12.1901 119.473 11.7581L120.463 9.56208C121.003 9.94608 121.639 10.2641 122.371 10.5161C123.115 10.7561 123.865 10.8761 124.621 10.8761C125.197 10.8761 125.659 10.8221 126.007 10.7141C126.367 10.5941 126.631 10.4321 126.799 10.2281C126.967 10.0241 127.051 9.79008 127.051 9.52608C127.051 9.19008 126.919 8.92608 126.655 8.73408C126.391 8.53008 126.043 8.36808 125.611 8.24808C125.179 8.11608 124.699 7.99608 124.171 7.88808C123.655 7.76808 123.133 7.62408 122.605 7.45608C122.089 7.28808 121.615 7.07208 121.183 6.80808C120.751 6.54408 120.397 6.19608 120.121 5.76408C119.857 5.33208 119.725 4.78008 119.725 4.10808C119.725 3.38808 119.917 2.73408 120.301 2.14608C120.697 1.54608 121.285 1.07208 122.065 0.724082C122.857 0.364082 123.847 0.184082 125.035 0.184082C125.827 0.184082 126.607 0.280082 127.375 0.472081C128.143 0.652081 128.821 0.928081 129.409 1.30008L128.509 3.51408C127.921 3.17808 127.333 2.93208 126.745 2.77608C126.157 2.60808 125.581 2.52408 125.017 2.52408C124.453 2.52408 123.991 2.59008 123.631 2.72208C123.271 2.85408 123.013 3.02808 122.857 3.24408C122.701 3.44808 122.623 3.68808 122.623 3.96408C122.623 4.28808 122.755 4.55208 123.019 4.75608C123.283 4.94808 123.631 5.10408 124.063 5.22408C124.495 5.34408 124.969 5.46408 125.485 5.58408C126.013 5.70408 126.535 5.84208 127.051 5.99808C127.579 6.15408 128.059 6.36408 128.491 6.62808C128.923 6.89208 129.271 7.24008 129.535 7.67208C129.811 8.10408 129.949 8.65008 129.949 9.31008C129.949 10.0181 129.751 10.6661 129.355 11.2541C128.959 11.8421 128.365 12.3161 127.573 12.6761C126.793 13.0361 125.803 13.2161 124.603 13.2161Z" fill="#483332"/>
<path d="M134.623 5.47608H140.689V7.74408H134.623V5.47608ZM134.839 10.6601H141.697V13.0001H131.941V0.400081H141.463V2.74008H134.839V10.6601Z" fill="#483332"/>
<path d="M144.017 13.0001V0.400081H149.471C150.599 0.400081 151.571 0.586082 152.387 0.958082C153.203 1.31808 153.833 1.84008 154.277 2.52408C154.721 3.20808 154.943 4.02408 154.943 4.97208C154.943 5.90808 154.721 6.71808 154.277 7.40208C153.833 8.07408 153.203 8.59008 152.387 8.95008C151.571 9.31008 150.599 9.49008 149.471 9.49008H145.637L146.933 8.21208V13.0001H144.017ZM152.027 13.0001L148.877 8.42808H151.991L155.177 13.0001H152.027ZM146.933 8.53608L145.637 7.16808H149.309C150.209 7.16808 150.881 6.97608 151.325 6.59208C151.769 6.19608 151.991 5.65608 151.991 4.97208C151.991 4.27608 151.769 3.73608 151.325 3.35208C150.881 2.96808 150.209 2.77608 149.309 2.77608H145.637L146.933 1.39008V8.53608Z" fill="#483332"/>
<path d="M161.034 13.0001L155.598 0.400081H158.748L163.5 11.5601H161.646L166.47 0.400081H169.368L163.914 13.0001H161.034Z" fill="#483332"/>
<path d="M170.42 13.0001V0.400081H173.336V13.0001H170.42Z" fill="#483332"/>
<path d="M179.026 6.07008H185.074V8.41008H179.026V6.07008ZM179.242 13.0001H176.326V0.400081H185.848V2.74008H179.242V13.0001Z" fill="#483332"/>
<path d="M190.954 13.0001V7.85208L191.62 9.61608L186.076 0.400081H189.172L193.42 7.47408H191.638L195.904 0.400081H198.766L193.222 9.61608L193.87 7.85208V13.0001H190.954Z" fill="#483332"/>
<path d="M4.32597 37.1121C3.57931 37.1121 2.86531 37.0001 2.18397 36.7761C1.50264 36.5428 0.965975 36.2441 0.573975 35.8801L1.09197 34.7881C1.46531 35.1148 1.94131 35.3855 2.51997 35.6001C3.09864 35.8148 3.70064 35.9221 4.32597 35.9221C4.89531 35.9221 5.35731 35.8568 5.71198 35.7261C6.06664 35.5955 6.32797 35.4181 6.49598 35.1941C6.66398 34.9608 6.74797 34.6995 6.74797 34.4101C6.74797 34.0741 6.63598 33.8035 6.41198 33.5981C6.19731 33.3928 5.91264 33.2295 5.55797 33.1081C5.21264 32.9775 4.82998 32.8655 4.40998 32.7721C3.98997 32.6788 3.56531 32.5715 3.13597 32.4501C2.71597 32.3195 2.32864 32.1561 1.97397 31.9601C1.62864 31.7641 1.34864 31.5028 1.13397 31.1761C0.919308 30.8401 0.811975 30.4108 0.811975 29.8881C0.811975 29.3841 0.942641 28.9221 1.20397 28.5021C1.47464 28.0728 1.88531 27.7321 2.43597 27.4801C2.99597 27.2188 3.70531 27.0881 4.56397 27.0881C5.13331 27.0881 5.69798 27.1628 6.25798 27.3121C6.81798 27.4615 7.30331 27.6761 7.71397 27.9561L7.25197 29.0761C6.83197 28.7961 6.38864 28.5955 5.92197 28.4741C5.45531 28.3435 5.00264 28.2781 4.56397 28.2781C4.01331 28.2781 3.56064 28.3481 3.20598 28.4881C2.85131 28.6281 2.58997 28.8148 2.42197 29.0481C2.26331 29.2815 2.18397 29.5428 2.18397 29.8321C2.18397 30.1775 2.29131 30.4528 2.50597 30.6581C2.72997 30.8635 3.01464 31.0268 3.35997 31.1481C3.71464 31.2695 4.10198 31.3815 4.52198 31.4841C4.94198 31.5775 5.36197 31.6848 5.78197 31.8061C6.21131 31.9275 6.59864 32.0861 6.94397 32.2821C7.29864 32.4781 7.58331 32.7395 7.79798 33.0661C8.01264 33.3928 8.11998 33.8128 8.11998 34.3261C8.11998 34.8208 7.98464 35.2828 7.71397 35.7121C7.44331 36.1321 7.02331 36.4728 6.45398 36.7341C5.89398 36.9861 5.18464 37.1121 4.32597 37.1121Z" fill="#483332"/>
<path d="M12.5173 37.0841C11.7706 37.0841 11.192 36.8835 10.7813 36.4821C10.3706 36.0808 10.1653 35.5068 10.1653 34.7601V27.9561H11.5093V34.7041C11.5093 35.1055 11.6073 35.4135 11.8033 35.6281C12.0086 35.8428 12.298 35.9501 12.6713 35.9501C13.0913 35.9501 13.4413 35.8335 13.7213 35.6001L14.1413 36.5661C13.936 36.7435 13.6886 36.8741 13.3993 36.9581C13.1193 37.0421 12.8253 37.0841 12.5173 37.0841ZM8.90529 30.6861V29.5801H13.6373V30.6861H8.90529Z" fill="#483332"/>
<path d="M20.3722 37.0001V35.4321L20.3022 35.1381V32.4641C20.3022 31.8948 20.1342 31.4561 19.7982 31.1481C19.4715 30.8308 18.9768 30.6721 18.3142 30.6721C17.8755 30.6721 17.4462 30.7468 17.0262 30.8961C16.6062 31.0361 16.2515 31.2275 15.9622 31.4701L15.4022 30.4621C15.7848 30.1541 16.2422 29.9208 16.7742 29.7621C17.3155 29.5941 17.8802 29.5101 18.4682 29.5101C19.4855 29.5101 20.2695 29.7575 20.8202 30.2521C21.3708 30.7468 21.6462 31.5028 21.6462 32.5201V37.0001H20.3722ZM17.9362 37.0841C17.3855 37.0841 16.9002 36.9908 16.4802 36.8041C16.0695 36.6175 15.7522 36.3608 15.5282 36.0341C15.3042 35.6981 15.1922 35.3201 15.1922 34.9001C15.1922 34.4988 15.2855 34.1348 15.4722 33.8081C15.6682 33.4815 15.9808 33.2201 16.4102 33.0241C16.8488 32.8281 17.4368 32.7301 18.1742 32.7301H20.5262V33.6961H18.2302C17.5582 33.6961 17.1055 33.8081 16.8722 34.0321C16.6388 34.2561 16.5222 34.5268 16.5222 34.8441C16.5222 35.2081 16.6668 35.5021 16.9562 35.7261C17.2455 35.9408 17.6468 36.0481 18.1602 36.0481C18.6642 36.0481 19.1028 35.9361 19.4762 35.7121C19.8588 35.4881 20.1342 35.1615 20.3022 34.7321L20.5682 35.6561C20.3908 36.0948 20.0782 36.4448 19.6302 36.7061C19.1822 36.9581 18.6175 37.0841 17.9362 37.0841Z" fill="#483332"/>
<path d="M24.3186 39.8001C23.964 39.8001 23.6186 39.7395 23.2826 39.6181C22.9466 39.5061 22.6573 39.3381 22.4146 39.1141L22.9886 38.1061C23.1753 38.2835 23.3806 38.4188 23.6046 38.5121C23.8286 38.6055 24.0666 38.6521 24.3186 38.6521C24.6453 38.6521 24.916 38.5681 25.1306 38.4001C25.3453 38.2321 25.546 37.9335 25.7326 37.5041L26.1946 36.4821L26.3346 36.3141L29.2466 29.5801H30.5626L26.9646 37.7421C26.75 38.2648 26.5073 38.6755 26.2366 38.9741C25.9753 39.2728 25.686 39.4828 25.3686 39.6041C25.0513 39.7348 24.7013 39.8001 24.3186 39.8001ZM26.0826 37.2381L22.6946 29.5801H24.0946L26.9786 36.1881L26.0826 37.2381Z" fill="#483332"/>
<path d="M39.8327 37.1121C38.5447 37.1121 37.532 36.7435 36.7947 36.0061C36.0574 35.2688 35.6887 34.1908 35.6887 32.7721V27.2001H37.0887V32.7161C37.0887 33.8081 37.3267 34.6061 37.8027 35.1101C38.288 35.6141 38.9694 35.8661 39.8467 35.8661C40.7334 35.8661 41.4147 35.6141 41.8907 35.1101C42.376 34.6061 42.6187 33.8081 42.6187 32.7161V27.2001H43.9767V32.7721C43.9767 34.1908 43.608 35.2688 42.8707 36.0061C42.1427 36.7435 41.13 37.1121 39.8327 37.1121Z" fill="#483332"/>
<path d="M50.5849 37.0841C49.9689 37.0841 49.4043 36.9441 48.8909 36.6641C48.3869 36.3748 47.9809 35.9501 47.6729 35.3901C47.3743 34.8301 47.2249 34.1301 47.2249 33.2901C47.2249 32.4501 47.3696 31.7501 47.6589 31.1901C47.9576 30.6301 48.3589 30.2101 48.8629 29.9301C49.3763 29.6501 49.9503 29.5101 50.5849 29.5101C51.3129 29.5101 51.9569 29.6688 52.5169 29.9861C53.0769 30.3035 53.5203 30.7468 53.8469 31.3161C54.1736 31.8761 54.3369 32.5341 54.3369 33.2901C54.3369 34.0461 54.1736 34.7088 53.8469 35.2781C53.5203 35.8475 53.0769 36.2908 52.5169 36.6081C51.9569 36.9255 51.3129 37.0841 50.5849 37.0841ZM46.6509 39.7161V29.5801H47.9389V31.5821L47.8549 33.3041L47.9949 35.0261V39.7161H46.6509ZM50.4729 35.9081C50.9489 35.9081 51.3736 35.8008 51.7469 35.5861C52.1296 35.3715 52.4283 35.0681 52.6429 34.6761C52.8669 34.2748 52.9789 33.8128 52.9789 33.2901C52.9789 32.7581 52.8669 32.3008 52.6429 31.9181C52.4283 31.5261 52.1296 31.2228 51.7469 31.0081C51.3736 30.7935 50.9489 30.6861 50.4729 30.6861C50.0063 30.6861 49.5816 30.7935 49.1989 31.0081C48.8256 31.2228 48.5269 31.5261 48.3029 31.9181C48.0883 32.3008 47.9809 32.7581 47.9809 33.2901C47.9809 33.8128 48.0883 34.2748 48.3029 34.6761C48.5269 35.0681 48.8256 35.3715 49.1989 35.5861C49.5816 35.8008 50.0063 35.9081 50.4729 35.9081Z" fill="#483332"/>
<path d="M58.7419 37.0841C57.9952 37.0841 57.4166 36.8835 57.0059 36.4821C56.5952 36.0808 56.3899 35.5068 56.3899 34.7601V27.9561H57.7339V34.7041C57.7339 35.1055 57.8319 35.4135 58.0279 35.6281C58.2332 35.8428 58.5226 35.9501 58.8959 35.9501C59.3159 35.9501 59.6659 35.8335 59.9459 35.6001L60.3659 36.5661C60.1606 36.7435 59.9132 36.8741 59.6239 36.9581C59.3439 37.0421 59.0499 37.0841 58.7419 37.0841ZM55.1299 30.6861V29.5801H59.8619V30.6861H55.1299Z" fill="#483332"/>
<path d="M64.9227 37.0841C64.176 37.0841 63.5133 36.9208 62.9347 36.5941C62.356 36.2675 61.8987 35.8195 61.5627 35.2501C61.2267 34.6715 61.0587 34.0181 61.0587 33.2901C61.0587 32.5528 61.2267 31.8995 61.5627 31.3301C61.8987 30.7608 62.356 30.3175 62.9347 30.0001C63.5133 29.6735 64.176 29.5101 64.9227 29.5101C65.66 29.5101 66.318 29.6735 66.8967 30.0001C67.4847 30.3175 67.942 30.7608 68.2687 31.3301C68.6047 31.8901 68.7727 32.5435 68.7727 33.2901C68.7727 34.0275 68.6047 34.6808 68.2687 35.2501C67.942 35.8195 67.4847 36.2675 66.8967 36.5941C66.318 36.9208 65.66 37.0841 64.9227 37.0841ZM64.9227 35.9081C65.3987 35.9081 65.8233 35.8008 66.1967 35.5861C66.5793 35.3715 66.878 35.0681 67.0927 34.6761C67.3074 34.2748 67.4147 33.8128 67.4147 33.2901C67.4147 32.7581 67.3074 32.3008 67.0927 31.9181C66.878 31.5261 66.5793 31.2228 66.1967 31.0081C65.8233 30.7935 65.3987 30.6861 64.9227 30.6861C64.4467 30.6861 64.022 30.7935 63.6487 31.0081C63.2753 31.2228 62.9767 31.5261 62.7527 31.9181C62.5287 32.3008 62.4167 32.7581 62.4167 33.2901C62.4167 33.8128 62.5287 34.2748 62.7527 34.6761C62.9767 35.0681 63.2753 35.3715 63.6487 35.5861C64.022 35.8008 64.4467 35.9081 64.9227 35.9081Z" fill="#483332"/>
<path d="M74.5872 37.0001V27.2001H78.7172C79.7625 27.2001 80.6818 27.4055 81.4752 27.8161C82.2778 28.2268 82.8985 28.8008 83.3372 29.5381C83.7852 30.2755 84.0092 31.1295 84.0092 32.1001C84.0092 33.0708 83.7852 33.9248 83.3372 34.6621C82.8985 35.3995 82.2778 35.9735 81.4752 36.3841C80.6818 36.7948 79.7625 37.0001 78.7172 37.0001H74.5872ZM75.9872 35.7821H78.6332C79.4452 35.7821 80.1452 35.6281 80.7332 35.3201C81.3305 35.0121 81.7925 34.5828 82.1192 34.0321C82.4458 33.4721 82.6092 32.8281 82.6092 32.1001C82.6092 31.3628 82.4458 30.7188 82.1192 30.1681C81.7925 29.6175 81.3305 29.1881 80.7332 28.8801C80.1452 28.5721 79.4452 28.4181 78.6332 28.4181H75.9872V35.7821Z" fill="#483332"/>
<path d="M90.5636 37.0001V35.4321L90.4936 35.1381V32.4641C90.4936 31.8948 90.3256 31.4561 89.9896 31.1481C89.6629 30.8308 89.1682 30.6721 88.5056 30.6721C88.0669 30.6721 87.6376 30.7468 87.2176 30.8961C86.7976 31.0361 86.4429 31.2275 86.1536 31.4701L85.5936 30.4621C85.9762 30.1541 86.4336 29.9208 86.9656 29.7621C87.5069 29.5941 88.0716 29.5101 88.6596 29.5101C89.6769 29.5101 90.4609 29.7575 91.0116 30.2521C91.5622 30.7468 91.8376 31.5028 91.8376 32.5201V37.0001H90.5636ZM88.1276 37.0841C87.5769 37.0841 87.0916 36.9908 86.6716 36.8041C86.2609 36.6175 85.9436 36.3608 85.7196 36.0341C85.4956 35.6981 85.3836 35.3201 85.3836 34.9001C85.3836 34.4988 85.4769 34.1348 85.6636 33.8081C85.8596 33.4815 86.1722 33.2201 86.6016 33.0241C87.0402 32.8281 87.6282 32.7301 88.3656 32.7301H90.7176V33.6961H88.4216C87.7496 33.6961 87.2969 33.8081 87.0636 34.0321C86.8302 34.2561 86.7136 34.5268 86.7136 34.8441C86.7136 35.2081 86.8582 35.5021 87.1476 35.7261C87.4369 35.9408 87.8382 36.0481 88.3516 36.0481C88.8556 36.0481 89.2942 35.9361 89.6676 35.7121C90.0502 35.4881 90.3256 35.1615 90.4936 34.7321L90.7596 35.6561C90.5822 36.0948 90.2696 36.4448 89.8216 36.7061C89.3736 36.9581 88.8089 37.0841 88.1276 37.0841Z" fill="#483332"/>
<path d="M96.8728 37.0841C96.1261 37.0841 95.5474 36.8835 95.1368 36.4821C94.7261 36.0808 94.5208 35.5068 94.5208 34.7601V27.9561H95.8648V34.7041C95.8648 35.1055 95.9628 35.4135 96.1588 35.6281C96.3641 35.8428 96.6534 35.9501 97.0268 35.9501C97.4468 35.9501 97.7968 35.8335 98.0768 35.6001L98.4968 36.5661C98.2914 36.7435 98.0441 36.8741 97.7548 36.9581C97.4748 37.0421 97.1808 37.0841 96.8728 37.0841ZM93.2608 30.6861V29.5801H97.9928V30.6861H93.2608Z" fill="#483332"/>
<path d="M103.18 37.0841C102.386 37.0841 101.686 36.9208 101.08 36.5941C100.482 36.2675 100.016 35.8195 99.6795 35.2501C99.3529 34.6808 99.1895 34.0275 99.1895 33.2901C99.1895 32.5528 99.3482 31.8995 99.6655 31.3301C99.9922 30.7608 100.436 30.3175 100.996 30.0001C101.565 29.6735 102.204 29.5101 102.914 29.5101C103.632 29.5101 104.267 29.6688 104.818 29.9861C105.368 30.3035 105.798 30.7515 106.106 31.3301C106.423 31.8995 106.582 32.5668 106.582 33.3321C106.582 33.3881 106.577 33.4535 106.568 33.5281C106.568 33.6028 106.563 33.6728 106.554 33.7381H100.24V32.7721H105.854L105.308 33.1081C105.317 32.6321 105.219 32.2075 105.014 31.8341C104.808 31.4608 104.524 31.1715 104.16 30.9661C103.805 30.7515 103.39 30.6441 102.914 30.6441C102.447 30.6441 102.032 30.7515 101.668 30.9661C101.304 31.1715 101.019 31.4655 100.814 31.8481C100.608 32.2215 100.506 32.6508 100.506 33.1361V33.3601C100.506 33.8548 100.618 34.2981 100.842 34.6901C101.075 35.0728 101.397 35.3715 101.808 35.5861C102.218 35.8008 102.69 35.9081 103.222 35.9081C103.66 35.9081 104.057 35.8335 104.412 35.6841C104.776 35.5348 105.093 35.3108 105.364 35.0121L106.106 35.8801C105.77 36.2721 105.35 36.5708 104.846 36.7761C104.351 36.9815 103.796 37.0841 103.18 37.0841Z" fill="#483332"/>
</svg>
