<svg width="199" height="40" viewBox="0 0 199 40" fill="none" xmlns="http://www.w3.org/2000/svg">
<path d="M4.17602 5.43214H10.242V7.70014H4.17602V5.43214ZM4.39202 10.6161H11.25V12.9561H1.49402V0.356136H11.016V2.69614H4.39202V10.6161Z" fill="#483332"/>
<path d="M12.0071 12.9561L17.4251 5.48614V7.61014L12.2411 0.356136H15.5531L19.1351 5.41414L17.7491 5.43214L21.2771 0.356136H24.4451L19.2971 7.48414V5.39614L24.7511 12.9561H21.3851L17.6771 7.61014H19.0091L15.3551 12.9561H12.0071Z" fill="#483332"/>
<path d="M25.8925 12.9561V0.356136H31.3465C32.4745 0.356136 33.4465 0.542136 34.2625 0.914136C35.0785 1.27414 35.7085 1.79614 36.1525 2.48014C36.5965 3.16414 36.8185 3.98014 36.8185 4.92814C36.8185 5.86414 36.5965 6.67414 36.1525 7.35814C35.7085 8.04214 35.0785 8.57014 34.2625 8.94214C33.4465 9.30214 32.4745 9.48214 31.3465 9.48214H27.5125L28.8085 8.16814V12.9561H25.8925ZM28.8085 8.49214L27.5125 7.10614H31.1845C32.0845 7.10614 32.7565 6.91414 33.2005 6.53014C33.6445 6.14614 33.8665 5.61214 33.8665 4.92814C33.8665 4.23214 33.6445 3.69214 33.2005 3.30814C32.7565 2.92414 32.0845 2.73214 31.1845 2.73214H27.5125L28.8085 1.34614V8.49214Z" fill="#483332"/>
<path d="M38.9003 12.9561V0.356136H41.8163V10.5801H48.1343V12.9561H38.9003Z" fill="#483332"/>
<path d="M55.6726 13.1721C54.6766 13.1721 53.7526 13.0101 52.9006 12.6861C52.0606 12.3621 51.3286 11.9061 50.7046 11.3181C50.0926 10.7301 49.6126 10.0401 49.2646 9.24814C48.9286 8.45614 48.7606 7.59214 48.7606 6.65614C48.7606 5.72014 48.9286 4.85614 49.2646 4.06414C49.6126 3.27214 50.0986 2.58214 50.7226 1.99414C51.3466 1.40614 52.0786 0.950136 52.9186 0.626136C53.7586 0.302136 54.6706 0.140137 55.6546 0.140137C56.6506 0.140137 57.5626 0.302136 58.3906 0.626136C59.2306 0.950136 59.9566 1.40614 60.5686 1.99414C61.1926 2.58214 61.6786 3.27214 62.0266 4.06414C62.3746 4.84414 62.5486 5.70814 62.5486 6.65614C62.5486 7.59214 62.3746 8.46214 62.0266 9.26614C61.6786 10.0581 61.1926 10.7481 60.5686 11.3361C59.9566 11.9121 59.2306 12.3621 58.3906 12.6861C57.5626 13.0101 56.6566 13.1721 55.6726 13.1721ZM55.6546 10.6881C56.2186 10.6881 56.7346 10.5921 57.2026 10.4001C57.6826 10.2081 58.1026 9.93214 58.4626 9.57214C58.8226 9.21214 59.0986 8.78614 59.2906 8.29414C59.4946 7.80214 59.5966 7.25614 59.5966 6.65614C59.5966 6.05614 59.4946 5.51014 59.2906 5.01814C59.0986 4.52614 58.8226 4.10014 58.4626 3.74014C58.1146 3.38014 57.7006 3.10414 57.2206 2.91214C56.7406 2.72014 56.2186 2.62414 55.6546 2.62414C55.0906 2.62414 54.5686 2.72014 54.0886 2.91214C53.6206 3.10414 53.2066 3.38014 52.8466 3.74014C52.4866 4.10014 52.2046 4.52614 52.0006 5.01814C51.8086 5.51014 51.7126 6.05614 51.7126 6.65614C51.7126 7.24414 51.8086 7.79014 52.0006 8.29414C52.2046 8.78614 52.4806 9.21214 52.8286 9.57214C53.1886 9.93214 53.6086 10.2081 54.0886 10.4001C54.5686 10.5921 55.0906 10.6881 55.6546 10.6881Z" fill="#483332"/>
<path d="M64.7401 12.9561V0.356136H70.1941C71.3221 0.356136 72.2941 0.542136 73.1101 0.914136C73.9261 1.27414 74.5561 1.79614 75.0001 2.48014C75.4441 3.16414 75.6661 3.98014 75.6661 4.92814C75.6661 5.86414 75.4441 6.67414 75.0001 7.35814C74.5561 8.03014 73.9261 8.54614 73.1101 8.90614C72.2941 9.26614 71.3221 9.44614 70.1941 9.44614H66.3601L67.6561 8.16814V12.9561H64.7401ZM72.7501 12.9561L69.6001 8.38414H72.7141L75.9001 12.9561H72.7501ZM67.6561 8.49214L66.3601 7.12414H70.0321C70.9321 7.12414 71.6041 6.93214 72.0481 6.54814C72.4921 6.15214 72.7141 5.61214 72.7141 4.92814C72.7141 4.23214 72.4921 3.69214 72.0481 3.30814C71.6041 2.92414 70.9321 2.73214 70.0321 2.73214H66.3601L67.6561 1.34614V8.49214Z" fill="#483332"/>
<path d="M80.6584 5.43214H86.7244V7.70014H80.6584V5.43214ZM80.8744 10.6161H87.7324V12.9561H77.9764V0.356136H87.4984V2.69614H80.8744V10.6161Z" fill="#483332"/>
<path d="M95.1503 12.9561V0.356136H100.604C101.732 0.356136 102.704 0.542136 103.52 0.914136C104.336 1.27414 104.966 1.79614 105.41 2.48014C105.854 3.16414 106.076 3.98014 106.076 4.92814C106.076 5.86414 105.854 6.67414 105.41 7.35814C104.966 8.03014 104.336 8.54614 103.52 8.90614C102.704 9.26614 101.732 9.44614 100.604 9.44614H96.7703L98.0663 8.16814V12.9561H95.1503ZM103.16 12.9561L100.01 8.38414H103.124L106.31 12.9561H103.16ZM98.0663 8.49214L96.7703 7.12414H100.442C101.342 7.12414 102.014 6.93214 102.458 6.54814C102.902 6.15214 103.124 5.61214 103.124 4.92814C103.124 4.23214 102.902 3.69214 102.458 3.30814C102.014 2.92414 101.342 2.73214 100.442 2.73214H96.7703L98.0663 1.34614V8.49214Z" fill="#483332"/>
<path d="M111.069 5.43214H117.135V7.70014H111.069V5.43214ZM111.285 10.6161H118.143V12.9561H108.387V0.356136H117.909V2.69614H111.285V10.6161Z" fill="#483332"/>
<path d="M124.603 13.1721C123.595 13.1721 122.629 13.0401 121.705 12.7761C120.781 12.5001 120.037 12.1461 119.473 11.7141L120.463 9.51814C121.003 9.90214 121.639 10.2201 122.371 10.4721C123.115 10.7121 123.865 10.8321 124.621 10.8321C125.197 10.8321 125.659 10.7781 126.007 10.6701C126.367 10.5501 126.631 10.3881 126.799 10.1841C126.967 9.98014 127.051 9.74614 127.051 9.48214C127.051 9.14614 126.919 8.88214 126.655 8.69014C126.391 8.48614 126.043 8.32414 125.611 8.20414C125.179 8.07214 124.699 7.95214 124.171 7.84414C123.655 7.72414 123.133 7.58014 122.605 7.41214C122.089 7.24414 121.615 7.02814 121.183 6.76414C120.751 6.50014 120.397 6.15214 120.121 5.72014C119.857 5.28814 119.725 4.73614 119.725 4.06414C119.725 3.34414 119.917 2.69014 120.301 2.10214C120.697 1.50214 121.285 1.02814 122.065 0.680136C122.857 0.320137 123.847 0.140137 125.035 0.140137C125.827 0.140137 126.607 0.236136 127.375 0.428136C128.143 0.608136 128.821 0.884136 129.409 1.25614L128.509 3.47014C127.921 3.13414 127.333 2.88814 126.745 2.73214C126.157 2.56414 125.581 2.48014 125.017 2.48014C124.453 2.48014 123.991 2.54614 123.631 2.67814C123.271 2.81014 123.013 2.98414 122.857 3.20014C122.701 3.40414 122.623 3.64414 122.623 3.92014C122.623 4.24414 122.755 4.50814 123.019 4.71214C123.283 4.90414 123.631 5.06014 124.063 5.18014C124.495 5.30014 124.969 5.42014 125.485 5.54014C126.013 5.66014 126.535 5.79814 127.051 5.95414C127.579 6.11014 128.059 6.32014 128.491 6.58414C128.923 6.84814 129.271 7.19614 129.535 7.62814C129.811 8.06014 129.949 8.60614 129.949 9.26614C129.949 9.97414 129.751 10.6221 129.355 11.2101C128.959 11.7981 128.365 12.2721 127.573 12.6321C126.793 12.9921 125.803 13.1721 124.603 13.1721Z" fill="#483332"/>
<path d="M134.623 5.43214H140.689V7.70014H134.623V5.43214ZM134.839 10.6161H141.697V12.9561H131.941V0.356136H141.463V2.69614H134.839V10.6161Z" fill="#483332"/>
<path d="M144.017 12.9561V0.356136H149.471C150.599 0.356136 151.571 0.542136 152.387 0.914136C153.203 1.27414 153.833 1.79614 154.277 2.48014C154.721 3.16414 154.943 3.98014 154.943 4.92814C154.943 5.86414 154.721 6.67414 154.277 7.35814C153.833 8.03014 153.203 8.54614 152.387 8.90614C151.571 9.26614 150.599 9.44614 149.471 9.44614H145.637L146.933 8.16814V12.9561H144.017ZM152.027 12.9561L148.877 8.38414H151.991L155.177 12.9561H152.027ZM146.933 8.49214L145.637 7.12414H149.309C150.209 7.12414 150.881 6.93214 151.325 6.54814C151.769 6.15214 151.991 5.61214 151.991 4.92814C151.991 4.23214 151.769 3.69214 151.325 3.30814C150.881 2.92414 150.209 2.73214 149.309 2.73214H145.637L146.933 1.34614V8.49214Z" fill="#483332"/>
<path d="M161.034 12.9561L155.598 0.356136H158.748L163.5 11.5161H161.646L166.47 0.356136H169.368L163.914 12.9561H161.034Z" fill="#483332"/>
<path d="M170.42 12.9561V0.356136H173.336V12.9561H170.42Z" fill="#483332"/>
<path d="M179.026 6.02614H185.074V8.36614H179.026V6.02614ZM179.242 12.9561H176.326V0.356136H185.848V2.69614H179.242V12.9561Z" fill="#483332"/>
<path d="M190.954 12.9561V7.80814L191.62 9.57214L186.076 0.356136H189.172L193.42 7.43014H191.638L195.904 0.356136H198.766L193.222 9.57214L193.87 7.80814V12.9561H190.954Z" fill="#483332"/>
<path d="M4.32597 37.0682C3.57931 37.0682 2.86531 36.9562 2.18397 36.7322C1.50264 36.4989 0.965975 36.2002 0.573975 35.8362L1.09197 34.7442C1.46531 35.0709 1.94131 35.3415 2.51997 35.5562C3.09864 35.7709 3.70064 35.8782 4.32597 35.8782C4.89531 35.8782 5.35731 35.8129 5.71198 35.6822C6.06664 35.5515 6.32797 35.3742 6.49598 35.1502C6.66398 34.9169 6.74797 34.6555 6.74797 34.3662C6.74797 34.0302 6.63598 33.7595 6.41198 33.5542C6.19731 33.3489 5.91264 33.1855 5.55797 33.0642C5.21264 32.9335 4.82998 32.8215 4.40998 32.7282C3.98997 32.6349 3.56531 32.5275 3.13597 32.4062C2.71597 32.2755 2.32864 32.1122 1.97397 31.9162C1.62864 31.7202 1.34864 31.4589 1.13397 31.1322C0.919308 30.7962 0.811975 30.3669 0.811975 29.8442C0.811975 29.3402 0.942641 28.8782 1.20397 28.4582C1.47464 28.0289 1.88531 27.6882 2.43597 27.4362C2.99597 27.1749 3.70531 27.0442 4.56397 27.0442C5.13331 27.0442 5.69798 27.1189 6.25798 27.2682C6.81798 27.4175 7.30331 27.6322 7.71397 27.9122L7.25197 29.0322C6.83197 28.7522 6.38864 28.5515 5.92197 28.4302C5.45531 28.2995 5.00264 28.2342 4.56397 28.2342C4.01331 28.2342 3.56064 28.3042 3.20598 28.4442C2.85131 28.5842 2.58997 28.7709 2.42197 29.0042C2.26331 29.2375 2.18397 29.4989 2.18397 29.7882C2.18397 30.1335 2.29131 30.4089 2.50597 30.6142C2.72997 30.8195 3.01464 30.9829 3.35997 31.1042C3.71464 31.2255 4.10198 31.3375 4.52198 31.4402C4.94198 31.5335 5.36197 31.6409 5.78197 31.7622C6.21131 31.8835 6.59864 32.0422 6.94397 32.2382C7.29864 32.4342 7.58331 32.6955 7.79798 33.0222C8.01264 33.3489 8.11998 33.7689 8.11998 34.2822C8.11998 34.7769 7.98464 35.2389 7.71397 35.6682C7.44331 36.0882 7.02331 36.4289 6.45398 36.6902C5.89398 36.9422 5.18464 37.0682 4.32597 37.0682Z" fill="#483332"/>
<path d="M12.5173 37.0402C11.7706 37.0402 11.192 36.8395 10.7813 36.4382C10.3706 36.0369 10.1653 35.4629 10.1653 34.7162V27.9122H11.5093V34.6602C11.5093 35.0615 11.6073 35.3695 11.8033 35.5842C12.0086 35.7989 12.298 35.9062 12.6713 35.9062C13.0913 35.9062 13.4413 35.7895 13.7213 35.5562L14.1413 36.5222C13.936 36.6995 13.6886 36.8302 13.3993 36.9142C13.1193 36.9982 12.8253 37.0402 12.5173 37.0402ZM8.90529 30.6422V29.5362H13.6373V30.6422H8.90529Z" fill="#483332"/>
<path d="M20.3722 36.9562V35.3882L20.3022 35.0942V32.4202C20.3022 31.8509 20.1342 31.4122 19.7982 31.1042C19.4715 30.7869 18.9768 30.6282 18.3142 30.6282C17.8755 30.6282 17.4462 30.7029 17.0262 30.8522C16.6062 30.9922 16.2515 31.1835 15.9622 31.4262L15.4022 30.4182C15.7848 30.1102 16.2422 29.8769 16.7742 29.7182C17.3155 29.5502 17.8802 29.4662 18.4682 29.4662C19.4855 29.4662 20.2695 29.7135 20.8202 30.2082C21.3708 30.7029 21.6462 31.4589 21.6462 32.4762V36.9562H20.3722ZM17.9362 37.0402C17.3855 37.0402 16.9002 36.9469 16.4802 36.7602C16.0695 36.5735 15.7522 36.3169 15.5282 35.9902C15.3042 35.6542 15.1922 35.2762 15.1922 34.8562C15.1922 34.4549 15.2855 34.0909 15.4722 33.7642C15.6682 33.4375 15.9808 33.1762 16.4102 32.9802C16.8488 32.7842 17.4368 32.6862 18.1742 32.6862H20.5262V33.6522H18.2302C17.5582 33.6522 17.1055 33.7642 16.8722 33.9882C16.6388 34.2122 16.5222 34.4829 16.5222 34.8002C16.5222 35.1642 16.6668 35.4582 16.9562 35.6822C17.2455 35.8969 17.6468 36.0042 18.1602 36.0042C18.6642 36.0042 19.1028 35.8922 19.4762 35.6682C19.8588 35.4442 20.1342 35.1175 20.3022 34.6882L20.5682 35.6122C20.3908 36.0509 20.0782 36.4009 19.6302 36.6622C19.1822 36.9142 18.6175 37.0402 17.9362 37.0402Z" fill="#483332"/>
<path d="M24.3186 39.7562C23.964 39.7562 23.6186 39.6955 23.2826 39.5742C22.9466 39.4622 22.6573 39.2942 22.4146 39.0702L22.9886 38.0622C23.1753 38.2395 23.3806 38.3749 23.6046 38.4682C23.8286 38.5615 24.0666 38.6082 24.3186 38.6082C24.6453 38.6082 24.916 38.5242 25.1306 38.3562C25.3453 38.1882 25.546 37.8895 25.7326 37.4602L26.1946 36.4382L26.3346 36.2702L29.2466 29.5362H30.5626L26.9646 37.6982C26.75 38.2209 26.5073 38.6315 26.2366 38.9302C25.9753 39.2289 25.686 39.4389 25.3686 39.5602C25.0513 39.6909 24.7013 39.7562 24.3186 39.7562ZM26.0826 37.1942L22.6946 29.5362H24.0946L26.9786 36.1442L26.0826 37.1942Z" fill="#483332"/>
<path d="M39.8327 37.0682C38.5447 37.0682 37.532 36.6995 36.7947 35.9622C36.0574 35.2249 35.6887 34.1469 35.6887 32.7282V27.1562H37.0887V32.6722C37.0887 33.7642 37.3267 34.5622 37.8027 35.0662C38.288 35.5702 38.9694 35.8222 39.8467 35.8222C40.7334 35.8222 41.4147 35.5702 41.8907 35.0662C42.376 34.5622 42.6187 33.7642 42.6187 32.6722V27.1562H43.9767V32.7282C43.9767 34.1469 43.608 35.2249 42.8707 35.9622C42.1427 36.6995 41.13 37.0682 39.8327 37.0682Z" fill="#483332"/>
<path d="M50.5849 37.0402C49.9689 37.0402 49.4043 36.9002 48.8909 36.6202C48.3869 36.3309 47.9809 35.9062 47.6729 35.3462C47.3743 34.7862 47.2249 34.0862 47.2249 33.2462C47.2249 32.4062 47.3696 31.7062 47.6589 31.1462C47.9576 30.5862 48.3589 30.1662 48.8629 29.8862C49.3763 29.6062 49.9503 29.4662 50.5849 29.4662C51.3129 29.4662 51.9569 29.6249 52.5169 29.9422C53.0769 30.2595 53.5203 30.7029 53.8469 31.2722C54.1736 31.8322 54.3369 32.4902 54.3369 33.2462C54.3369 34.0022 54.1736 34.6649 53.8469 35.2342C53.5203 35.8035 53.0769 36.2469 52.5169 36.5642C51.9569 36.8815 51.3129 37.0402 50.5849 37.0402ZM46.6509 39.6722V29.5362H47.9389V31.5382L47.8549 33.2602L47.9949 34.9822V39.6722H46.6509ZM50.4729 35.8642C50.9489 35.8642 51.3736 35.7569 51.7469 35.5422C52.1296 35.3275 52.4283 35.0242 52.6429 34.6322C52.8669 34.2309 52.9789 33.7689 52.9789 33.2462C52.9789 32.7142 52.8669 32.2569 52.6429 31.8742C52.4283 31.4822 52.1296 31.1789 51.7469 30.9642C51.3736 30.7495 50.9489 30.6422 50.4729 30.6422C50.0063 30.6422 49.5816 30.7495 49.1989 30.9642C48.8256 31.1789 48.5269 31.4822 48.3029 31.8742C48.0883 32.2569 47.9809 32.7142 47.9809 33.2462C47.9809 33.7689 48.0883 34.2309 48.3029 34.6322C48.5269 35.0242 48.8256 35.3275 49.1989 35.5422C49.5816 35.7569 50.0063 35.8642 50.4729 35.8642Z" fill="#483332"/>
<path d="M58.7419 37.0402C57.9952 37.0402 57.4166 36.8395 57.0059 36.4382C56.5952 36.0369 56.3899 35.4629 56.3899 34.7162V27.9122H57.7339V34.6602C57.7339 35.0615 57.8319 35.3695 58.0279 35.5842C58.2332 35.7989 58.5226 35.9062 58.8959 35.9062C59.3159 35.9062 59.6659 35.7895 59.9459 35.5562L60.3659 36.5222C60.1606 36.6995 59.9132 36.8302 59.6239 36.9142C59.3439 36.9982 59.0499 37.0402 58.7419 37.0402ZM55.1299 30.6422V29.5362H59.8619V30.6422H55.1299Z" fill="#483332"/>
<path d="M64.9227 37.0402C64.176 37.0402 63.5133 36.8769 62.9347 36.5502C62.356 36.2235 61.8987 35.7755 61.5627 35.2062C61.2267 34.6275 61.0587 33.9742 61.0587 33.2462C61.0587 32.5089 61.2267 31.8555 61.5627 31.2862C61.8987 30.7169 62.356 30.2735 62.9347 29.9562C63.5133 29.6295 64.176 29.4662 64.9227 29.4662C65.66 29.4662 66.318 29.6295 66.8967 29.9562C67.4847 30.2735 67.942 30.7169 68.2687 31.2862C68.6047 31.8462 68.7727 32.4995 68.7727 33.2462C68.7727 33.9835 68.6047 34.6369 68.2687 35.2062C67.942 35.7755 67.4847 36.2235 66.8967 36.5502C66.318 36.8769 65.66 37.0402 64.9227 37.0402ZM64.9227 35.8642C65.3987 35.8642 65.8233 35.7569 66.1967 35.5422C66.5793 35.3275 66.878 35.0242 67.0927 34.6322C67.3074 34.2309 67.4147 33.7689 67.4147 33.2462C67.4147 32.7142 67.3074 32.2569 67.0927 31.8742C66.878 31.4822 66.5793 31.1789 66.1967 30.9642C65.8233 30.7495 65.3987 30.6422 64.9227 30.6422C64.4467 30.6422 64.022 30.7495 63.6487 30.9642C63.2753 31.1789 62.9767 31.4822 62.7527 31.8742C62.5287 32.2569 62.4167 32.7142 62.4167 33.2462C62.4167 33.7689 62.5287 34.2309 62.7527 34.6322C62.9767 35.0242 63.2753 35.3275 63.6487 35.5422C64.022 35.7569 64.4467 35.8642 64.9227 35.8642Z" fill="#483332"/>
<path d="M74.5872 36.9562V27.1562H78.7172C79.7625 27.1562 80.6818 27.3615 81.4752 27.7722C82.2778 28.1829 82.8985 28.7569 83.3372 29.4942C83.7852 30.2315 84.0092 31.0855 84.0092 32.0562C84.0092 33.0269 83.7852 33.8809 83.3372 34.6182C82.8985 35.3555 82.2778 35.9295 81.4752 36.3402C80.6818 36.7509 79.7625 36.9562 78.7172 36.9562H74.5872ZM75.9872 35.7382H78.6332C79.4452 35.7382 80.1452 35.5842 80.7332 35.2762C81.3305 34.9682 81.7925 34.5389 82.1192 33.9882C82.4458 33.4282 82.6092 32.7842 82.6092 32.0562C82.6092 31.3189 82.4458 30.6749 82.1192 30.1242C81.7925 29.5735 81.3305 29.1442 80.7332 28.8362C80.1452 28.5282 79.4452 28.3742 78.6332 28.3742H75.9872V35.7382Z" fill="#483332"/>
<path d="M90.5636 36.9562V35.3882L90.4936 35.0942V32.4202C90.4936 31.8509 90.3256 31.4122 89.9896 31.1042C89.6629 30.7869 89.1682 30.6282 88.5056 30.6282C88.0669 30.6282 87.6376 30.7029 87.2176 30.8522C86.7976 30.9922 86.4429 31.1835 86.1536 31.4262L85.5936 30.4182C85.9762 30.1102 86.4336 29.8769 86.9656 29.7182C87.5069 29.5502 88.0716 29.4662 88.6596 29.4662C89.6769 29.4662 90.4609 29.7135 91.0116 30.2082C91.5622 30.7029 91.8376 31.4589 91.8376 32.4762V36.9562H90.5636ZM88.1276 37.0402C87.5769 37.0402 87.0916 36.9469 86.6716 36.7602C86.2609 36.5735 85.9436 36.3169 85.7196 35.9902C85.4956 35.6542 85.3836 35.2762 85.3836 34.8562C85.3836 34.4549 85.4769 34.0909 85.6636 33.7642C85.8596 33.4375 86.1722 33.1762 86.6016 32.9802C87.0402 32.7842 87.6282 32.6862 88.3656 32.6862H90.7176V33.6522H88.4216C87.7496 33.6522 87.2969 33.7642 87.0636 33.9882C86.8302 34.2122 86.7136 34.4829 86.7136 34.8002C86.7136 35.1642 86.8582 35.4582 87.1476 35.6822C87.4369 35.8969 87.8382 36.0042 88.3516 36.0042C88.8556 36.0042 89.2942 35.8922 89.6676 35.6682C90.0502 35.4442 90.3256 35.1175 90.4936 34.6882L90.7596 35.6122C90.5822 36.0509 90.2696 36.4009 89.8216 36.6622C89.3736 36.9142 88.8089 37.0402 88.1276 37.0402Z" fill="#483332"/>
<path d="M96.8728 37.0402C96.1261 37.0402 95.5474 36.8395 95.1368 36.4382C94.7261 36.0369 94.5208 35.4629 94.5208 34.7162V27.9122H95.8648V34.6602C95.8648 35.0615 95.9628 35.3695 96.1588 35.5842C96.3641 35.7989 96.6534 35.9062 97.0268 35.9062C97.4468 35.9062 97.7968 35.7895 98.0768 35.5562L98.4968 36.5222C98.2914 36.6995 98.0441 36.8302 97.7548 36.9142C97.4748 36.9982 97.1808 37.0402 96.8728 37.0402ZM93.2608 30.6422V29.5362H97.9928V30.6422H93.2608Z" fill="#483332"/>
<path d="M103.18 37.0402C102.386 37.0402 101.686 36.8769 101.08 36.5502C100.482 36.2235 100.016 35.7755 99.6795 35.2062C99.3529 34.6369 99.1895 33.9835 99.1895 33.2462C99.1895 32.5089 99.3482 31.8555 99.6655 31.2862C99.9922 30.7169 100.436 30.2735 100.996 29.9562C101.565 29.6295 102.204 29.4662 102.914 29.4662C103.632 29.4662 104.267 29.6249 104.818 29.9422C105.368 30.2595 105.798 30.7075 106.106 31.2862C106.423 31.8555 106.582 32.5229 106.582 33.2882C106.582 33.3442 106.577 33.4095 106.568 33.4842C106.568 33.5589 106.563 33.6289 106.554 33.6942H100.24V32.7282H105.854L105.308 33.0642C105.317 32.5882 105.219 32.1635 105.014 31.7902C104.808 31.4169 104.524 31.1275 104.16 30.9222C103.805 30.7075 103.39 30.6002 102.914 30.6002C102.447 30.6002 102.032 30.7075 101.668 30.9222C101.304 31.1275 101.019 31.4215 100.814 31.8042C100.608 32.1775 100.506 32.6069 100.506 33.0922V33.3162C100.506 33.8109 100.618 34.2542 100.842 34.6462C101.075 35.0289 101.397 35.3275 101.808 35.5422C102.218 35.7569 102.69 35.8642 103.222 35.8642C103.66 35.8642 104.057 35.7895 104.412 35.6402C104.776 35.4909 105.093 35.2669 105.364 34.9682L106.106 35.8362C105.77 36.2282 105.35 36.5269 104.846 36.7322C104.351 36.9375 103.796 37.0402 103.18 37.0402Z" fill="#483332"/>
</svg>
