<svg width="33" height="39" viewBox="0 0 33 39" fill="none" xmlns="http://www.w3.org/2000/svg">
<path d="M16.5 0C12.1255 0.00479208 7.93168 1.62055 4.83845 4.49284C1.74522 7.36512 0.00517826 11.2594 1.75543e-05 15.3214C-0.00522178 18.6409 1.16249 21.8703 3.32401 24.5143C3.32401 24.5143 3.77401 25.0645 3.84751 25.1439L16.5 39L29.1585 25.1369C29.2245 25.0631 29.676 24.5143 29.676 24.5143L29.6775 24.5101C31.8379 21.8673 33.0051 18.6394 33 15.3214C32.9948 11.2594 31.2548 7.36512 28.1615 4.49284C25.0683 1.62055 20.8745 0.00479208 16.5 0ZM16.5 20.8929C15.3133 20.8929 14.1533 20.5661 13.1666 19.9539C12.1799 19.3417 11.4109 18.4716 10.9567 17.4535C10.5026 16.4355 10.3838 15.3152 10.6153 14.2345C10.8468 13.1537 11.4182 12.161 12.2574 11.3818C13.0965 10.6027 14.1656 10.072 15.3295 9.85705C16.4933 9.64208 17.6997 9.75241 18.7961 10.1741C19.8925 10.5958 20.8295 11.3099 21.4888 12.2261C22.1481 13.1423 22.5 14.2195 22.5 15.3214C22.498 16.7985 21.8652 18.2145 20.7404 19.259C19.6157 20.3034 18.0907 20.891 16.5 20.8929Z" fill="#C92020"/>
<path d="M28.5578 15.3635C28.5578 21.5642 23.1594 26.5908 16.5001 26.5908C9.8408 26.5908 4.44238 21.5642 4.44238 15.3635C4.44238 9.16285 9.8408 4.13623 16.5001 4.13623C23.1594 4.13623 28.5578 9.16285 28.5578 15.3635Z" fill="white"/>
</svg>
