<svg width="103" height="46" viewBox="0 0 103 46" fill="none" xmlns="http://www.w3.org/2000/svg">
<path d="M0 23C0 10.2975 10.2975 0 23 0H80C92.7025 0 103 10.2975 103 23C103 35.7025 92.7025 46 80 46H23C10.2975 46 0 35.7025 0 23Z" fill="#9A9A9A"/>
<path d="M28.316 28.0001V18.2001H30.136V26.4601H35.26V28.0001H28.316Z" fill="white"/>
<path d="M41.1111 28.1401C40.3458 28.1401 39.6411 28.0141 38.9971 27.7621C38.3531 27.5101 37.7931 27.1601 37.3171 26.7121C36.8411 26.2547 36.4725 25.7227 36.2111 25.1161C35.9498 24.5001 35.8191 23.8281 35.8191 23.1001C35.8191 22.3721 35.9498 21.7047 36.2111 21.0981C36.4725 20.4821 36.8411 19.9501 37.3171 19.5021C37.7931 19.0447 38.3531 18.6901 38.9971 18.4381C39.6411 18.1861 40.3411 18.0601 41.0971 18.0601C41.8625 18.0601 42.5625 18.1861 43.1971 18.4381C43.8411 18.6901 44.4011 19.0447 44.8771 19.5021C45.3531 19.9501 45.7218 20.4821 45.9831 21.0981C46.2445 21.7047 46.3751 22.3721 46.3751 23.1001C46.3751 23.8281 46.2445 24.5001 45.9831 25.1161C45.7218 25.7321 45.3531 26.2641 44.8771 26.7121C44.4011 27.1601 43.8411 27.5101 43.1971 27.7621C42.5625 28.0141 41.8671 28.1401 41.1111 28.1401ZM41.0971 26.5441C41.5918 26.5441 42.0491 26.4601 42.4691 26.2921C42.8891 26.1241 43.2531 25.8861 43.5611 25.5781C43.8691 25.2607 44.1071 24.8967 44.2751 24.4861C44.4525 24.0661 44.5411 23.6041 44.5411 23.1001C44.5411 22.5961 44.4525 22.1387 44.2751 21.7281C44.1071 21.3081 43.8691 20.9441 43.5611 20.6361C43.2531 20.3187 42.8891 20.0761 42.4691 19.9081C42.0491 19.7401 41.5918 19.6561 41.0971 19.6561C40.6025 19.6561 40.1451 19.7401 39.7251 19.9081C39.3145 20.0761 38.9505 20.3187 38.6331 20.6361C38.3251 20.9441 38.0825 21.3081 37.9051 21.7281C37.7371 22.1387 37.6531 22.5961 37.6531 23.1001C37.6531 23.5947 37.7371 24.0521 37.9051 24.4721C38.0825 24.8921 38.3251 25.2607 38.6331 25.5781C38.9411 25.8861 39.3051 26.1241 39.7251 26.2921C40.1451 26.4601 40.6025 26.5441 41.0971 26.5441Z" fill="white"/>
<path d="M52.8823 28.1401C52.117 28.1401 51.4123 28.0187 50.7683 27.7761C50.1336 27.5241 49.5783 27.1741 49.1023 26.7261C48.6263 26.2687 48.2576 25.7321 47.9963 25.1161C47.7349 24.5001 47.6043 23.8281 47.6043 23.1001C47.6043 22.3721 47.7349 21.7001 47.9963 21.0841C48.2576 20.4681 48.6263 19.9361 49.1023 19.4881C49.5876 19.0307 50.1523 18.6807 50.7963 18.4381C51.4403 18.1861 52.145 18.0601 52.9103 18.0601C53.741 18.0601 54.4876 18.1954 55.1503 18.4661C55.8223 18.7367 56.387 19.1334 56.8443 19.6561L55.6963 20.7761C55.3136 20.3934 54.8983 20.1134 54.4503 19.9361C54.0116 19.7494 53.5263 19.6561 52.9943 19.6561C52.4809 19.6561 52.005 19.7401 51.5663 19.9081C51.1276 20.0761 50.7496 20.3141 50.4323 20.6221C50.115 20.9301 49.8676 21.2941 49.6903 21.7141C49.5223 22.1341 49.4383 22.5961 49.4383 23.1001C49.4383 23.5947 49.5223 24.0521 49.6903 24.4721C49.8676 24.8921 50.115 25.2607 50.4323 25.5781C50.7496 25.8861 51.1229 26.1241 51.5523 26.2921C51.9816 26.4601 52.4576 26.5441 52.9803 26.5441C53.4656 26.5441 53.9323 26.4694 54.3803 26.3201C54.8376 26.1614 55.2716 25.9001 55.6823 25.5361L56.7183 26.8941C56.205 27.3047 55.6076 27.6174 54.9263 27.8321C54.2543 28.0374 53.573 28.1401 52.8823 28.1401ZM54.9963 26.6561V22.9881H56.7183V26.8941L54.9963 26.6561Z" fill="white"/>
<path d="M59.1187 28.0001V18.2001H60.9387V28.0001H59.1187Z" fill="white"/>
<path d="M63.5894 28.0001V18.2001H65.0874L71.2334 25.7461H70.4914V18.2001H72.2974V28.0001H70.7994L64.6534 20.4541H65.3954V28.0001H63.5894Z" fill="white"/>
</svg>
