<svg width="118" height="38" viewBox="0 0 118 38" fill="none" xmlns="http://www.w3.org/2000/svg">
<path d="M0.72168 29.9998V1.99982H3.68168V27.4398H19.3617V29.9998H0.72168Z" fill="black"/>
<path d="M34.7239 30.1998C32.6972 30.1998 30.8705 29.7465 29.2439 28.8398C27.6439 27.9065 26.3772 26.6398 25.4439 25.0398C24.5105 23.4132 24.0439 21.5598 24.0439 19.4798C24.0439 17.3732 24.5105 15.5198 25.4439 13.9198C26.3772 12.3198 27.6439 11.0665 29.2439 10.1598C30.8439 9.25316 32.6705 8.79983 34.7239 8.79983C36.8039 8.79983 38.6439 9.25316 40.2439 10.1598C41.8705 11.0665 43.1372 12.3198 44.0439 13.9198C44.9772 15.5198 45.4439 17.3732 45.4439 19.4798C45.4439 21.5598 44.9772 23.4132 44.0439 25.0398C43.1372 26.6398 41.8705 27.9065 40.2439 28.8398C38.6172 29.7465 36.7772 30.1998 34.7239 30.1998ZM34.7239 27.6798C36.2439 27.6798 37.5905 27.3465 38.7639 26.6798C39.9372 25.9865 40.8572 25.0265 41.5239 23.7998C42.2172 22.5465 42.5639 21.1065 42.5639 19.4798C42.5639 17.8265 42.2172 16.3865 41.5239 15.1598C40.8572 13.9332 39.9372 12.9865 38.7639 12.3198C37.5905 11.6265 36.2572 11.2798 34.7639 11.2798C33.2705 11.2798 31.9372 11.6265 30.7639 12.3198C29.5905 12.9865 28.6572 13.9332 27.9639 15.1598C27.2705 16.3865 26.9239 17.8265 26.9239 19.4798C26.9239 21.1065 27.2705 22.5465 27.9639 23.7998C28.6572 25.0265 29.5905 25.9865 30.7639 26.6798C31.9372 27.3465 33.2572 27.6798 34.7239 27.6798Z" fill="black"/>
<path d="M63.002 37.9598C61.082 37.9598 59.242 37.6798 57.482 37.1198C55.722 36.5598 54.2953 35.7598 53.202 34.7198L54.642 32.5598C55.6287 33.4398 56.842 34.1332 58.282 34.6398C59.7487 35.1732 61.2953 35.4398 62.922 35.4398C65.5887 35.4398 67.5487 34.8132 68.802 33.5598C70.0553 32.3332 70.682 30.4132 70.682 27.7998V22.5598L71.082 18.9598L70.802 15.3598V8.99982H73.522V27.4398C73.522 31.0665 72.6287 33.7198 70.842 35.3998C69.082 37.1065 66.4687 37.9598 63.002 37.9598ZM62.482 29.1998C60.482 29.1998 58.682 28.7732 57.082 27.9198C55.482 27.0398 54.2153 25.8265 53.282 24.2798C52.3753 22.7332 51.922 20.9598 51.922 18.9598C51.922 16.9598 52.3753 15.1998 53.282 13.6798C54.2153 12.1332 55.482 10.9332 57.082 10.0798C58.682 9.22649 60.482 8.79983 62.482 8.79983C64.3487 8.79983 66.0287 9.18649 67.522 9.95983C69.0153 10.7332 70.202 11.8798 71.082 13.3998C71.962 14.9198 72.402 16.7732 72.402 18.9598C72.402 21.1465 71.962 22.9998 71.082 24.5198C70.202 26.0398 69.0153 27.1998 67.522 27.9998C66.0287 28.7998 64.3487 29.1998 62.482 29.1998ZM62.762 26.6798C64.3087 26.6798 65.682 26.3598 66.882 25.7198C68.082 25.0532 69.0287 24.1465 69.722 22.9998C70.4153 21.8265 70.762 20.4798 70.762 18.9598C70.762 17.4398 70.4153 16.1065 69.722 14.9598C69.0287 13.8132 68.082 12.9198 66.882 12.2798C65.682 11.6132 64.3087 11.2798 62.762 11.2798C61.242 11.2798 59.8687 11.6132 58.642 12.2798C57.442 12.9198 56.4953 13.8132 55.802 14.9598C55.1353 16.1065 54.802 17.4398 54.802 18.9598C54.802 20.4798 55.1353 21.8265 55.802 22.9998C56.4953 24.1465 57.442 25.0532 58.642 25.7198C59.8687 26.3598 61.242 26.6798 62.762 26.6798Z" fill="black"/>
<path d="M84.2248 29.9998V8.99982H87.0648V29.9998H84.2248ZM85.6648 4.35983C85.0781 4.35983 84.5848 4.15983 84.1848 3.75983C83.7848 3.35983 83.5848 2.87983 83.5848 2.31983C83.5848 1.75982 83.7848 1.29316 84.1848 0.919825C84.5848 0.519825 85.0781 0.319824 85.6648 0.319824C86.2515 0.319824 86.7448 0.506491 87.1448 0.879825C87.5448 1.25316 87.7448 1.71982 87.7448 2.27983C87.7448 2.86649 87.5448 3.35983 87.1448 3.75983C86.7715 4.15983 86.2781 4.35983 85.6648 4.35983Z" fill="black"/>
<path d="M108.487 8.79983C110.194 8.79983 111.687 9.13316 112.967 9.79983C114.274 10.4398 115.287 11.4265 116.007 12.7598C116.754 14.0932 117.127 15.7732 117.127 17.7998V29.9998H114.287V18.0798C114.287 15.8665 113.727 14.1998 112.607 13.0798C111.514 11.9332 109.967 11.3598 107.967 11.3598C106.474 11.3598 105.167 11.6665 104.047 12.2798C102.954 12.8665 102.1 13.7332 101.487 14.8798C100.9 15.9998 100.607 17.3598 100.607 18.9598V29.9998H97.767V8.99982H100.487V14.7598L100.047 13.6798C100.714 12.1598 101.78 10.9732 103.247 10.1198C104.714 9.23982 106.46 8.79983 108.487 8.79983Z" fill="black"/>
</svg>
