<svg width="210" height="48" viewBox="0 0 210 48" fill="none" xmlns="http://www.w3.org/2000/svg">
<path d="M0.370117 46.9998V1.49984H13.2401V36.7948H34.9501V46.9998H0.370117Z" fill="#484848"/>
<path d="M62.2897 47.9098C58.6497 47.9098 55.2914 47.3248 52.2147 46.1548C49.1381 44.9848 46.4514 43.3382 44.1547 41.2148C41.9014 39.0482 40.1464 36.5348 38.8897 33.6748C37.6331 30.8148 37.0047 27.6732 37.0047 24.2498C37.0047 20.8265 37.6331 17.6848 38.8897 14.8248C40.1464 11.9648 41.9014 9.47318 44.1547 7.34985C46.4514 5.18318 49.1381 3.51485 52.2147 2.34484C55.2914 1.17484 58.6497 0.589844 62.2897 0.589844C65.9731 0.589844 69.3314 1.17484 72.3647 2.34484C75.4414 3.51485 78.1064 5.18318 80.3597 7.34985C82.6131 9.47318 84.3681 11.9648 85.6247 14.8248C86.9247 17.6848 87.5747 20.8265 87.5747 24.2498C87.5747 27.6732 86.9247 30.8365 85.6247 33.7398C84.3681 36.5998 82.6131 39.0915 80.3597 41.2148C78.1064 43.3382 75.4414 44.9848 72.3647 46.1548C69.3314 47.3248 65.9731 47.9098 62.2897 47.9098ZM62.2897 37.2498C64.0231 37.2498 65.6264 36.9465 67.0997 36.3398C68.6164 35.7332 69.9164 34.8665 70.9997 33.7398C72.1264 32.5698 72.993 31.1832 73.5997 29.5798C74.2497 27.9765 74.5747 26.1998 74.5747 24.2498C74.5747 22.2565 74.2497 20.4798 73.5997 18.9198C72.993 17.3165 72.1264 15.9515 70.9997 14.8248C69.9164 13.6548 68.6164 12.7665 67.0997 12.1598C65.6264 11.5532 64.0231 11.2498 62.2897 11.2498C60.5564 11.2498 58.9314 11.5532 57.4147 12.1598C55.9414 12.7665 54.6414 13.6548 53.5147 14.8248C52.4314 15.9515 51.5647 17.3165 50.9147 18.9198C50.3081 20.4798 50.0047 22.2565 50.0047 24.2498C50.0047 26.1998 50.3081 27.9765 50.9147 29.5798C51.5647 31.1832 52.4314 32.5698 53.5147 33.7398C54.6414 34.8665 55.9414 35.7332 57.4147 36.3398C58.9314 36.9465 60.5564 37.2498 62.2897 37.2498Z" fill="#484848"/>
<path d="M117.065 47.9098C113.469 47.9098 110.132 47.3465 107.055 46.2198C103.979 45.0499 101.314 43.4032 99.0604 41.2798C96.8504 39.1565 95.1171 36.6648 93.8604 33.8048C92.6038 30.9015 91.9754 27.7165 91.9754 24.2498C91.9754 20.7832 92.6038 17.6198 93.8604 14.7598C95.1171 11.8565 96.8721 9.34318 99.1254 7.21984C101.379 5.09651 104.044 3.47151 107.12 2.34484C110.24 1.17484 113.642 0.589844 117.325 0.589844C121.615 0.589844 125.45 1.30484 128.83 2.73484C132.21 4.16485 135.005 6.22318 137.215 8.90985L129.025 16.3198C127.465 14.6298 125.775 13.3732 123.955 12.5498C122.179 11.6832 120.185 11.2498 117.975 11.2498C116.025 11.2498 114.249 11.5532 112.645 12.1598C111.042 12.7665 109.677 13.6548 108.55 14.8248C107.424 15.9515 106.535 17.3165 105.885 18.9198C105.279 20.4798 104.975 22.2565 104.975 24.2498C104.975 26.1565 105.279 27.9115 105.885 29.5148C106.535 31.1182 107.424 32.5048 108.55 33.6748C109.677 34.8015 111.02 35.6898 112.58 36.3398C114.184 36.9465 115.939 37.2498 117.845 37.2498C119.752 37.2498 121.615 36.9465 123.435 36.3398C125.255 35.6898 127.097 34.6065 128.96 33.0898L136.175 42.1248C133.575 43.9882 130.564 45.4182 127.14 46.4148C123.717 47.4115 120.359 47.9098 117.065 47.9098ZM124.8 40.4348V23.2748H136.175V42.1248L124.8 40.4348Z" fill="#484848"/>
<path d="M144.335 46.9998V1.49984H157.205V46.9998H144.335Z" fill="#484848"/>
<path d="M166.361 46.9998V1.49984H176.956L202.046 31.7898H197.041V1.49984H209.651V46.9998H199.056L173.966 16.7098H178.971V46.9998H166.361Z" fill="#484848"/>
</svg>
