<svg width="144" height="27" viewBox="0 0 144 27" fill="none" xmlns="http://www.w3.org/2000/svg">
<path d="M39.195 19.1362C38.355 19.1362 37.55 19.0262 36.78 18.8062C36.01 18.5762 35.39 18.2812 34.92 17.9212L35.745 16.0912C36.195 16.4112 36.725 16.6762 37.335 16.8862C37.955 17.0862 38.58 17.1862 39.21 17.1862C39.69 17.1862 40.075 17.1412 40.365 17.0512C40.665 16.9512 40.885 16.8162 41.025 16.6462C41.165 16.4762 41.235 16.2812 41.235 16.0612C41.235 15.7812 41.125 15.5612 40.905 15.4012C40.685 15.2312 40.395 15.0962 40.035 14.9962C39.675 14.8862 39.275 14.7862 38.835 14.6962C38.405 14.5962 37.97 14.4762 37.53 14.3362C37.1 14.1962 36.705 14.0162 36.345 13.7962C35.985 13.5762 35.69 13.2862 35.46 12.9262C35.24 12.5662 35.13 12.1062 35.13 11.5462C35.13 10.9462 35.29 10.4012 35.61 9.91117C35.94 9.41117 36.43 9.01617 37.08 8.72617C37.74 8.42617 38.565 8.27617 39.555 8.27617C40.215 8.27617 40.865 8.35617 41.505 8.51617C42.145 8.66617 42.71 8.89617 43.2 9.20617L42.45 11.0512C41.96 10.7712 41.47 10.5662 40.98 10.4362C40.49 10.2962 40.01 10.2262 39.54 10.2262C39.07 10.2262 38.685 10.2812 38.385 10.3912C38.085 10.5012 37.87 10.6462 37.74 10.8262C37.61 10.9962 37.545 11.1962 37.545 11.4262C37.545 11.6962 37.655 11.9162 37.875 12.0862C38.095 12.2462 38.385 12.3762 38.745 12.4762C39.105 12.5762 39.5 12.6762 39.93 12.7762C40.37 12.8762 40.805 12.9912 41.235 13.1212C41.675 13.2512 42.075 13.4262 42.435 13.6462C42.795 13.8662 43.085 14.1562 43.305 14.5162C43.535 14.8762 43.65 15.3312 43.65 15.8812C43.65 16.4712 43.485 17.0112 43.155 17.5012C42.825 17.9912 42.33 18.3862 41.67 18.6862C41.02 18.9862 40.195 19.1362 39.195 19.1362Z" fill="#483332"/>
<path d="M50.0504 10.7662C50.6904 10.7662 51.2604 10.8962 51.7604 11.1562C52.2704 11.4062 52.6704 11.7962 52.9604 12.3262C53.2504 12.8462 53.3954 13.5162 53.3954 14.3362V18.9562H51.0554V14.6962C51.0554 14.0462 50.9104 13.5662 50.6204 13.2562C50.3404 12.9462 49.9404 12.7912 49.4204 12.7912C49.0504 12.7912 48.7154 12.8712 48.4154 13.0312C48.1254 13.1812 47.8954 13.4162 47.7254 13.7362C47.5654 14.0562 47.4854 14.4662 47.4854 14.9662V18.9562H45.1454V7.82617H47.4854V13.1212L46.9604 12.4462C47.2504 11.9062 47.6654 11.4912 48.2054 11.2012C48.7454 10.9112 49.3604 10.7662 50.0504 10.7662Z" fill="#483332"/>
<path d="M59.4151 19.0762C58.5551 19.0762 57.7901 18.8962 57.1201 18.5362C56.4601 18.1762 55.9351 17.6862 55.5451 17.0662C55.1651 16.4362 54.9751 15.7212 54.9751 14.9212C54.9751 14.1112 55.1651 13.3962 55.5451 12.7762C55.9351 12.1462 56.4601 11.6562 57.1201 11.3062C57.7901 10.9462 58.5551 10.7662 59.4151 10.7662C60.2651 10.7662 61.0251 10.9462 61.6951 11.3062C62.3651 11.6562 62.8901 12.1412 63.2701 12.7612C63.6501 13.3812 63.8401 14.1012 63.8401 14.9212C63.8401 15.7212 63.6501 16.4362 63.2701 17.0662C62.8901 17.6862 62.3651 18.1762 61.6951 18.5362C61.0251 18.8962 60.2651 19.0762 59.4151 19.0762ZM59.4151 17.1562C59.8051 17.1562 60.1551 17.0662 60.4651 16.8862C60.7751 16.7062 61.0201 16.4512 61.2001 16.1212C61.3801 15.7812 61.4701 15.3812 61.4701 14.9212C61.4701 14.4512 61.3801 14.0512 61.2001 13.7212C61.0201 13.3912 60.7751 13.1362 60.4651 12.9562C60.1551 12.7762 59.8051 12.6862 59.4151 12.6862C59.0251 12.6862 58.6751 12.7762 58.3651 12.9562C58.0551 13.1362 57.8051 13.3912 57.6151 13.7212C57.4351 14.0512 57.3451 14.4512 57.3451 14.9212C57.3451 15.3812 57.4351 15.7812 57.6151 16.1212C57.8051 16.4512 58.0551 16.7062 58.3651 16.8862C58.6751 17.0662 59.0251 17.1562 59.4151 17.1562Z" fill="#483332"/>
<path d="M67.0295 18.9562L64.1195 10.8862H66.3245L68.7395 17.8312H67.6895L70.2095 10.8862H72.1895L74.6345 17.8312H73.5845L76.0745 10.8862H78.1445L75.2195 18.9562H72.9545L70.8095 13.0012H71.4995L69.2795 18.9562H67.0295Z" fill="#483332"/>
<path d="M88.7454 19.1362C87.9154 19.1362 87.1454 19.0012 86.4354 18.7312C85.7354 18.4612 85.1254 18.0812 84.6054 17.5912C84.0954 17.1012 83.6954 16.5262 83.4054 15.8662C83.1254 15.2062 82.9854 14.4862 82.9854 13.7062C82.9854 12.9262 83.1254 12.2062 83.4054 11.5462C83.6954 10.8862 84.1004 10.3112 84.6204 9.82117C85.1404 9.33117 85.7504 8.95117 86.4504 8.68117C87.1504 8.41117 87.9104 8.27617 88.7304 8.27617C89.5604 8.27617 90.3204 8.41117 91.0104 8.68117C91.7104 8.95117 92.3154 9.33117 92.8254 9.82117C93.3454 10.3112 93.7504 10.8862 94.0404 11.5462C94.3304 12.1962 94.4754 12.9162 94.4754 13.7062C94.4754 14.4862 94.3304 15.2112 94.0404 15.8812C93.7504 16.5412 93.3454 17.1162 92.8254 17.6062C92.3154 18.0862 91.7104 18.4612 91.0104 18.7312C90.3204 19.0012 89.5654 19.1362 88.7454 19.1362ZM88.7304 17.0662C89.2004 17.0662 89.6304 16.9862 90.0204 16.8262C90.4204 16.6662 90.7704 16.4362 91.0704 16.1362C91.3704 15.8362 91.6004 15.4812 91.7604 15.0712C91.9304 14.6612 92.0154 14.2062 92.0154 13.7062C92.0154 13.2062 91.9304 12.7512 91.7604 12.3412C91.6004 11.9312 91.3704 11.5762 91.0704 11.2762C90.7804 10.9762 90.4354 10.7462 90.0354 10.5862C89.6354 10.4262 89.2004 10.3462 88.7304 10.3462C88.2604 10.3462 87.8254 10.4262 87.4254 10.5862C87.0354 10.7462 86.6904 10.9762 86.3904 11.2762C86.0904 11.5762 85.8554 11.9312 85.6854 12.3412C85.5254 12.7512 85.4454 13.2062 85.4454 13.7062C85.4454 14.1962 85.5254 14.6512 85.6854 15.0712C85.8554 15.4812 86.0854 15.8362 86.3754 16.1362C86.6754 16.4362 87.0254 16.6662 87.4254 16.8262C87.8254 16.9862 88.2604 17.0662 88.7304 17.0662Z" fill="#483332"/>
<path d="M101.042 10.7662C101.682 10.7662 102.252 10.8962 102.752 11.1562C103.262 11.4062 103.662 11.7962 103.952 12.3262C104.242 12.8462 104.387 13.5162 104.387 14.3362V18.9562H102.047V14.6962C102.047 14.0462 101.902 13.5662 101.612 13.2562C101.332 12.9462 100.932 12.7912 100.412 12.7912C100.042 12.7912 99.7066 12.8712 99.4066 13.0312C99.1166 13.1812 98.8866 13.4162 98.7166 13.7362C98.5566 14.0562 98.4766 14.4662 98.4766 14.9662V18.9562H96.1366V10.8862H98.3716V13.1212L97.9516 12.4462C98.2416 11.9062 98.6566 11.4912 99.1966 11.2012C99.7366 10.9112 100.352 10.7662 101.042 10.7662Z" fill="#483332"/>
<path d="M110.921 18.9562V8.45617H112.931L117.401 15.8662H116.336L120.731 8.45617H122.726L122.756 18.9562H120.476L120.461 11.9512H120.881L117.371 17.8462H116.276L112.691 11.9512H113.201V18.9562H110.921Z" fill="#483332"/>
<path d="M130.032 18.9562V17.3812L129.882 17.0362V14.2162C129.882 13.7162 129.727 13.3262 129.417 13.0462C129.117 12.7662 128.652 12.6262 128.022 12.6262C127.592 12.6262 127.167 12.6962 126.747 12.8362C126.337 12.9662 125.987 13.1462 125.697 13.3762L124.857 11.7412C125.297 11.4312 125.827 11.1912 126.447 11.0212C127.067 10.8512 127.697 10.7662 128.337 10.7662C129.567 10.7662 130.522 11.0562 131.202 11.6362C131.882 12.2162 132.222 13.1212 132.222 14.3512V18.9562H130.032ZM127.572 19.0762C126.942 19.0762 126.402 18.9712 125.952 18.7612C125.502 18.5412 125.157 18.2462 124.917 17.8762C124.677 17.5062 124.557 17.0912 124.557 16.6312C124.557 16.1512 124.672 15.7312 124.902 15.3712C125.142 15.0112 125.517 14.7312 126.027 14.5312C126.537 14.3212 127.202 14.2162 128.022 14.2162H130.167V15.5812H128.277C127.727 15.5812 127.347 15.6712 127.137 15.8512C126.937 16.0312 126.837 16.2562 126.837 16.5262C126.837 16.8262 126.952 17.0662 127.182 17.2462C127.422 17.4162 127.747 17.5012 128.157 17.5012C128.547 17.5012 128.897 17.4112 129.207 17.2312C129.517 17.0412 129.742 16.7662 129.882 16.4062L130.242 17.4862C130.072 18.0062 129.762 18.4012 129.312 18.6712C128.862 18.9412 128.282 19.0762 127.572 19.0762Z" fill="#483332"/>
<path d="M139.11 19.0762C138.43 19.0762 137.835 18.9262 137.325 18.6262C136.815 18.3262 136.415 17.8712 136.125 17.2612C135.845 16.6412 135.705 15.8612 135.705 14.9212C135.705 13.9712 135.84 13.1912 136.11 12.5812C136.38 11.9712 136.77 11.5162 137.28 11.2162C137.79 10.9162 138.4 10.7662 139.11 10.7662C139.87 10.7662 140.55 10.9412 141.15 11.2912C141.76 11.6312 142.24 12.1112 142.59 12.7312C142.95 13.3512 143.13 14.0812 143.13 14.9212C143.13 15.7712 142.95 16.5062 142.59 17.1262C142.24 17.7462 141.76 18.2262 141.15 18.5662C140.55 18.9062 139.87 19.0762 139.11 19.0762ZM134.34 21.8662V10.8862H136.575V12.5362L136.53 14.9362L136.68 17.3212V21.8662H134.34ZM138.705 17.1562C139.095 17.1562 139.44 17.0662 139.74 16.8862C140.05 16.7062 140.295 16.4512 140.475 16.1212C140.665 15.7812 140.76 15.3812 140.76 14.9212C140.76 14.4512 140.665 14.0512 140.475 13.7212C140.295 13.3912 140.05 13.1362 139.74 12.9562C139.44 12.7762 139.095 12.6862 138.705 12.6862C138.315 12.6862 137.965 12.7762 137.655 12.9562C137.345 13.1362 137.1 13.3912 136.92 13.7212C136.74 14.0512 136.65 14.4512 136.65 14.9212C136.65 15.3812 136.74 15.7812 136.92 16.1212C137.1 16.4512 137.345 16.7062 137.655 16.8862C137.965 17.0662 138.315 17.1562 138.705 17.1562Z" fill="#483332"/>
<path d="M13.5001 19.3728L14.5834 17.2061V11.6356C16.4479 11.1514 17.8334 9.46897 17.8334 7.45614C17.8334 5.0663 15.8899 3.1228 13.5001 3.1228C11.1103 3.1228 9.16678 5.0663 9.16678 7.45614C9.16678 9.46897 10.5524 11.1514 12.4168 11.6356V17.2061L13.5001 19.3728Z" fill="#484848"/>
<path d="M18.1227 12.3993L17.5453 14.4879C20.3522 15.2636 22.1668 16.7554 22.1668 18.2894C22.1668 20.339 18.608 22.6227 13.5001 22.6227C8.3922 22.6227 4.83345 20.339 4.83345 18.2894C4.83345 16.7554 6.64803 15.2636 9.45603 14.4869L8.87861 12.3982C5.04686 13.4577 2.66678 15.7143 2.66678 18.2894C2.66678 21.9337 7.42586 24.7894 13.5001 24.7894C19.5744 24.7894 24.3334 21.9337 24.3334 18.2894C24.3334 15.7143 21.9534 13.4577 18.1227 12.3993Z" fill="#483332"/>
</svg>
