<svg width="144" height="27" viewBox="0 0 144 27" fill="none" xmlns="http://www.w3.org/2000/svg">
<path d="M39.195 19.1362C38.365 19.1362 37.56 19.0262 36.78 18.8062C36.01 18.5762 35.39 18.2812 34.92 17.9212L35.745 16.0912C36.195 16.4212 36.73 16.6862 37.35 16.8862C37.97 17.0862 38.59 17.1862 39.21 17.1862C39.9 17.1862 40.41 17.0862 40.74 16.8862C41.07 16.6762 41.235 16.4012 41.235 16.0612C41.235 15.8112 41.135 15.6062 40.935 15.4462C40.745 15.2762 40.495 15.1412 40.185 15.0412C39.885 14.9412 39.475 14.8312 38.955 14.7112C38.155 14.5212 37.5 14.3312 36.99 14.1412C36.48 13.9512 36.04 13.6462 35.67 13.2262C35.31 12.8062 35.13 12.2462 35.13 11.5462C35.13 10.9362 35.295 10.3862 35.625 9.89617C35.955 9.39617 36.45 9.00117 37.11 8.71117C37.78 8.42117 38.595 8.27617 39.555 8.27617C40.225 8.27617 40.88 8.35617 41.52 8.51617C42.16 8.67617 42.72 8.90617 43.2 9.20617L42.45 11.0512C41.48 10.5012 40.51 10.2262 39.54 10.2262C38.86 10.2262 38.355 10.3362 38.025 10.5562C37.705 10.7762 37.545 11.0662 37.545 11.4262C37.545 11.7862 37.73 12.0562 38.1 12.2362C38.48 12.4062 39.055 12.5762 39.825 12.7462C40.625 12.9362 41.28 13.1262 41.79 13.3162C42.3 13.5062 42.735 13.8062 43.095 14.2162C43.465 14.6262 43.65 15.1812 43.65 15.8812C43.65 16.4812 43.48 17.0312 43.14 17.5312C42.81 18.0212 42.31 18.4112 41.64 18.7012C40.97 18.9912 40.155 19.1362 39.195 19.1362Z" fill="#483332"/>
<path d="M50.0504 10.7662C51.0504 10.7662 51.8554 11.0662 52.4654 11.6662C53.0854 12.2662 53.3954 13.1562 53.3954 14.3362V18.9562H51.0554V14.6962C51.0554 14.0562 50.9154 13.5812 50.6354 13.2712C50.3554 12.9512 49.9504 12.7912 49.4204 12.7912C48.8304 12.7912 48.3604 12.9762 48.0104 13.3462C47.6604 13.7062 47.4854 14.2462 47.4854 14.9662V18.9562H45.1454V7.82617H47.4854V11.7262C47.7954 11.4162 48.1704 11.1812 48.6104 11.0212C49.0504 10.8512 49.5304 10.7662 50.0504 10.7662Z" fill="#483332"/>
<path d="M59.4444 19.0762C58.5944 19.0762 57.8294 18.9012 57.1494 18.5512C56.4794 18.1912 55.9544 17.6962 55.5744 17.0662C55.1944 16.4362 55.0044 15.7212 55.0044 14.9212C55.0044 14.1212 55.1944 13.4062 55.5744 12.7762C55.9544 12.1462 56.4794 11.6562 57.1494 11.3062C57.8294 10.9462 58.5944 10.7662 59.4444 10.7662C60.2944 10.7662 61.0544 10.9462 61.7244 11.3062C62.3944 11.6562 62.9194 12.1462 63.2994 12.7762C63.6794 13.4062 63.8694 14.1212 63.8694 14.9212C63.8694 15.7212 63.6794 16.4362 63.2994 17.0662C62.9194 17.6962 62.3944 18.1912 61.7244 18.5512C61.0544 18.9012 60.2944 19.0762 59.4444 19.0762ZM59.4444 17.1562C60.0444 17.1562 60.5344 16.9562 60.9144 16.5562C61.3044 16.1462 61.4994 15.6012 61.4994 14.9212C61.4994 14.2412 61.3044 13.7012 60.9144 13.3012C60.5344 12.8912 60.0444 12.6862 59.4444 12.6862C58.8444 12.6862 58.3494 12.8912 57.9594 13.3012C57.5694 13.7012 57.3744 14.2412 57.3744 14.9212C57.3744 15.6012 57.5694 16.1462 57.9594 16.5562C58.3494 16.9562 58.8444 17.1562 59.4444 17.1562Z" fill="#483332"/>
<path d="M78.1738 10.8862L75.2488 18.9562H72.9988L71.1838 13.9462L69.3088 18.9562H67.0588L64.1488 10.8862H66.3538L68.2588 16.3462L70.2388 10.8862H72.2188L74.1388 16.3462L76.1038 10.8862H78.1738Z" fill="#483332"/>
<path d="M88.7597 19.1362C87.6697 19.1362 86.6847 18.9012 85.8047 18.4312C84.9347 17.9612 84.2497 17.3162 83.7497 16.4962C83.2597 15.6662 83.0147 14.7362 83.0147 13.7062C83.0147 12.6762 83.2597 11.7512 83.7497 10.9312C84.2497 10.1012 84.9347 9.45117 85.8047 8.98117C86.6847 8.51117 87.6697 8.27617 88.7597 8.27617C89.8497 8.27617 90.8297 8.51117 91.6997 8.98117C92.5697 9.45117 93.2547 10.1012 93.7547 10.9312C94.2547 11.7512 94.5047 12.6762 94.5047 13.7062C94.5047 14.7362 94.2547 15.6662 93.7547 16.4962C93.2547 17.3162 92.5697 17.9612 91.6997 18.4312C90.8297 18.9012 89.8497 19.1362 88.7597 19.1362ZM88.7597 17.0662C89.3797 17.0662 89.9397 16.9262 90.4397 16.6462C90.9397 16.3562 91.3297 15.9562 91.6097 15.4462C91.8997 14.9362 92.0447 14.3562 92.0447 13.7062C92.0447 13.0562 91.8997 12.4762 91.6097 11.9662C91.3297 11.4562 90.9397 11.0612 90.4397 10.7812C89.9397 10.4912 89.3797 10.3462 88.7597 10.3462C88.1397 10.3462 87.5797 10.4912 87.0797 10.7812C86.5797 11.0612 86.1847 11.4562 85.8947 11.9662C85.6147 12.4762 85.4747 13.0562 85.4747 13.7062C85.4747 14.3562 85.6147 14.9362 85.8947 15.4462C86.1847 15.9562 86.5797 16.3562 87.0797 16.6462C87.5797 16.9262 88.1397 17.0662 88.7597 17.0662Z" fill="#483332"/>
<path d="M101.071 10.7662C102.071 10.7662 102.876 11.0662 103.486 11.6662C104.106 12.2662 104.416 13.1562 104.416 14.3362V18.9562H102.076V14.6962C102.076 14.0562 101.936 13.5812 101.656 13.2712C101.376 12.9512 100.971 12.7912 100.441 12.7912C99.8509 12.7912 99.3809 12.9762 99.0309 13.3462C98.6809 13.7062 98.5059 14.2462 98.5059 14.9662V18.9562H96.1659V10.8862H98.4009V11.8312C98.7109 11.4912 99.0959 11.2312 99.5559 11.0512C100.016 10.8612 100.521 10.7662 101.071 10.7662Z" fill="#483332"/>
<path d="M120.505 18.9562L120.49 12.6562L117.4 17.8462H116.305L113.23 12.7912V18.9562H110.95V8.45617H112.96L116.89 14.9812L120.76 8.45617H122.755L122.785 18.9562H120.505Z" fill="#483332"/>
<path d="M128.366 10.7662C129.616 10.7662 130.576 11.0662 131.246 11.6662C131.916 12.2562 132.251 13.1512 132.251 14.3512V18.9562H130.061V17.9512C129.621 18.7012 128.801 19.0762 127.601 19.0762C126.981 19.0762 126.441 18.9712 125.981 18.7612C125.531 18.5512 125.186 18.2612 124.946 17.8912C124.706 17.5212 124.586 17.1012 124.586 16.6312C124.586 15.8812 124.866 15.2912 125.426 14.8612C125.996 14.4312 126.871 14.2162 128.051 14.2162H129.911C129.911 13.7062 129.756 13.3162 129.446 13.0462C129.136 12.7662 128.671 12.6262 128.051 12.6262C127.621 12.6262 127.196 12.6962 126.776 12.8362C126.366 12.9662 126.016 13.1462 125.726 13.3762L124.886 11.7412C125.326 11.4312 125.851 11.1912 126.461 11.0212C127.081 10.8512 127.716 10.7662 128.366 10.7662ZM128.186 17.5012C128.586 17.5012 128.941 17.4112 129.251 17.2312C129.561 17.0412 129.781 16.7662 129.911 16.4062V15.5812H128.306C127.346 15.5812 126.866 15.8962 126.866 16.5262C126.866 16.8262 126.981 17.0662 127.211 17.2462C127.451 17.4162 127.776 17.5012 128.186 17.5012Z" fill="#483332"/>
<path d="M139.139 10.7662C139.889 10.7662 140.569 10.9412 141.179 11.2912C141.799 11.6312 142.284 12.1162 142.634 12.7462C142.984 13.3662 143.159 14.0912 143.159 14.9212C143.159 15.7512 142.984 16.4812 142.634 17.1112C142.284 17.7312 141.799 18.2162 141.179 18.5662C140.569 18.9062 139.889 19.0762 139.139 19.0762C138.109 19.0762 137.299 18.7512 136.709 18.1012V21.8662H134.369V10.8862H136.604V11.8162C137.184 11.1162 138.029 10.7662 139.139 10.7662ZM138.734 17.1562C139.334 17.1562 139.824 16.9562 140.204 16.5562C140.594 16.1462 140.789 15.6012 140.789 14.9212C140.789 14.2412 140.594 13.7012 140.204 13.3012C139.824 12.8912 139.334 12.6862 138.734 12.6862C138.134 12.6862 137.639 12.8912 137.249 13.3012C136.869 13.7012 136.679 14.2412 136.679 14.9212C136.679 15.6012 136.869 16.1462 137.249 16.5562C137.639 16.9562 138.134 17.1562 138.734 17.1562Z" fill="#483332"/>
<path d="M13.5001 19.3726L14.5834 17.2059V11.6354C16.4479 11.1511 17.8334 9.46873 17.8334 7.45589C17.8334 5.06606 15.8899 3.12256 13.5001 3.12256C11.1103 3.12256 9.16678 5.06606 9.16678 7.45589C9.16678 9.46873 10.5524 11.1511 12.4168 11.6354V17.2059L13.5001 19.3726Z" fill="#483332"/>
<path d="M18.1227 12.3995L17.5453 14.4882C20.3522 15.2639 22.1668 16.7556 22.1668 18.2896C22.1668 20.3393 18.608 22.6229 13.5001 22.6229C8.3922 22.6229 4.83345 20.3393 4.83345 18.2896C4.83345 16.7556 6.64803 15.2639 9.45603 14.4871L8.87861 12.3984C5.04686 13.4579 2.66678 15.7145 2.66678 18.2896C2.66678 21.9339 7.42586 24.7896 13.5001 24.7896C19.5744 24.7896 24.3334 21.9339 24.3334 18.2896C24.3334 15.7145 21.9534 13.4579 18.1227 12.3995Z" fill="#483332"/>
</svg>
