<svg width="53" height="16" viewBox="0 0 53 16" fill="none" xmlns="http://www.w3.org/2000/svg">
<path d="M0.825928 16.0001V0.600098H3.77393L10.3299 11.4681H8.76793L15.2139 0.600098H18.1399L18.1839 16.0001H14.8399L14.8179 5.7261H15.4339L10.2859 14.3721H8.67993L3.42193 5.7261H4.16993V16.0001H0.825928Z" fill="#C92020"/>
<path d="M19.8136 16.0001L26.6776 0.600098H30.1976L37.0836 16.0001H33.3436L27.7116 2.4041H29.1196L23.4656 16.0001H19.8136ZM23.2456 12.7001L24.1916 9.9941H32.1116L33.0796 12.7001H23.2456Z" fill="#C92020"/>
<path d="M38.6814 16.0001V0.600098H45.3474C46.7261 0.600098 47.9141 0.827431 48.9114 1.2821C49.9087 1.7221 50.6787 2.3601 51.2214 3.1961C51.7641 4.0321 52.0354 5.02943 52.0354 6.1881C52.0354 7.3321 51.7641 8.3221 51.2214 9.1581C50.6787 9.9941 49.9087 10.6394 48.9114 11.0941C47.9141 11.5341 46.7261 11.7541 45.3474 11.7541H40.6614L42.2454 10.1481V16.0001H38.6814ZM42.2454 10.5441L40.6614 8.8501H45.1494C46.2494 8.8501 47.0707 8.61543 47.6134 8.1461C48.1561 7.67677 48.4274 7.0241 48.4274 6.1881C48.4274 5.33743 48.1561 4.67743 47.6134 4.2081C47.0707 3.73877 46.2494 3.5041 45.1494 3.5041H40.6614L42.2454 1.8101V10.5441Z" fill="#C92020"/>
</svg>
