<svg width="69" height="17" viewBox="0 0 69 17" fill="none" xmlns="http://www.w3.org/2000/svg">
<path d="M0.825928 16.0001V0.600098H3.77393L10.3299 11.4681H8.76793L15.2139 0.600098H18.1399L18.1839 16.0001H14.8399L14.8179 5.7261H15.4339L10.2859 14.3721H8.67993L3.42193 5.7261H4.16993V16.0001H0.825928Z" fill="#C92020"/>
<path d="M25.1156 6.8041H32.5296V9.5761H25.1156V6.8041ZM25.3796 13.1401H33.7616V16.0001H21.8376V0.600098H33.4756V3.4601H25.3796V13.1401Z" fill="#C92020"/>
<path d="M36.5974 16.0001V0.600098H39.5454L48.6314 11.6881H47.2014V0.600098H50.7214V16.0001H47.7954L38.6874 4.9121H40.1174V16.0001H36.5974Z" fill="#C92020"/>
<path d="M61.207 16.2641C59.0217 16.2641 57.313 15.6554 56.081 14.4381C54.849 13.2208 54.233 11.4828 54.233 9.2241V0.600098H57.797V9.0921C57.797 10.5588 58.0977 11.6148 58.699 12.2601C59.3003 12.9054 60.1437 13.2281 61.229 13.2281C62.3143 13.2281 63.1577 12.9054 63.759 12.2601C64.3603 11.6148 64.661 10.5588 64.661 9.0921V0.600098H68.181V9.2241C68.181 11.4828 67.565 13.2208 66.333 14.4381C65.101 15.6554 63.3923 16.2641 61.207 16.2641Z" fill="#C92020"/>
</svg>
