<svg width="135" height="13" viewBox="0 0 135 13" fill="none" xmlns="http://www.w3.org/2000/svg">
<path d="M0.222168 10.0002V0.900183H1.61317L7.32017 7.90718H6.63117V0.900183H8.30817V10.0002H6.91717L1.21017 2.99318H1.89917V10.0002H0.222168Z" fill="#C92020"/>
<path d="M13.5286 10.0912C12.9392 10.0912 12.4192 9.98285 11.9686 9.76618C11.5179 9.54085 11.1669 9.20285 10.9156 8.75218C10.6642 8.29285 10.5386 7.71652 10.5386 7.02318V3.05818H12.1636V6.80218C12.1636 7.42618 12.3022 7.89418 12.5796 8.20618C12.8656 8.50952 13.2686 8.66118 13.7886 8.66118C14.1699 8.66118 14.4992 8.58318 14.7766 8.42718C15.0626 8.27118 15.2836 8.03718 15.4396 7.72518C15.6042 7.41318 15.6866 7.02752 15.6866 6.56818V3.05818H17.3116V10.0002H15.7646V8.12818L16.0376 8.70018C15.8036 9.15085 15.4612 9.49752 15.0106 9.74018C14.5599 9.97418 14.0659 10.0912 13.5286 10.0912Z" fill="#C92020"/>
<path d="M28.2012 2.98018C28.7559 2.98018 29.2456 3.08852 29.6702 3.30518C30.1035 3.52185 30.4415 3.85552 30.6842 4.30618C30.9269 4.74818 31.0482 5.32018 31.0482 6.02218V10.0002H29.4232V6.23018C29.4232 5.61485 29.2889 5.15552 29.0202 4.85218C28.7515 4.54885 28.3659 4.39718 27.8632 4.39718C27.5079 4.39718 27.1915 4.47518 26.9142 4.63118C26.6455 4.78718 26.4332 5.01685 26.2772 5.32018C26.1299 5.62352 26.0562 6.00918 26.0562 6.47718V10.0002H24.4312V6.23018C24.4312 5.61485 24.2969 5.15552 24.0282 4.85218C23.7595 4.54885 23.3739 4.39718 22.8712 4.39718C22.5159 4.39718 22.1995 4.47518 21.9222 4.63118C21.6535 4.78718 21.4412 5.01685 21.2852 5.32018C21.1379 5.62352 21.0642 6.00918 21.0642 6.47718V10.0002H19.4392V3.05818H20.9862V4.90418L20.7132 4.35818C20.9472 3.90752 21.2852 3.56518 21.7272 3.33118C22.1779 3.09718 22.6892 2.98018 23.2612 2.98018C23.9112 2.98018 24.4745 3.14052 24.9512 3.46118C25.4365 3.78185 25.7572 4.26718 25.9132 4.91718L25.2762 4.69618C25.5015 4.17618 25.8742 3.76018 26.3942 3.44818C26.9142 3.13618 27.5165 2.98018 28.2012 2.98018Z" fill="#C92020"/>
<path d="M36.9728 10.0912C36.3834 10.0912 35.8591 9.96118 35.3998 9.70118C34.9404 9.44118 34.5764 9.05118 34.3078 8.53118C34.0478 8.00252 33.9178 7.33518 33.9178 6.52918C33.9178 5.71452 34.0521 5.04718 34.3208 4.52718C34.5981 4.00718 34.9664 3.62152 35.4258 3.37018C35.8938 3.11018 36.4094 2.98018 36.9728 2.98018C37.6574 2.98018 38.2598 3.12752 38.7798 3.42218C39.3084 3.71685 39.7244 4.12852 40.0278 4.65718C40.3398 5.18585 40.4958 5.80985 40.4958 6.52918C40.4958 7.24852 40.3398 7.87252 40.0278 8.40118C39.7244 8.92985 39.3084 9.34585 38.7798 9.64918C38.2598 9.94385 37.6574 10.0912 36.9728 10.0912ZM33.1248 10.0002V0.354183H34.7498V4.67018L34.6198 6.51618L34.6718 8.36218V10.0002H33.1248ZM36.7908 8.70018C37.1808 8.70018 37.5274 8.61352 37.8308 8.44018C38.1428 8.26685 38.3898 8.01552 38.5718 7.68618C38.7538 7.35685 38.8448 6.97118 38.8448 6.52918C38.8448 6.07852 38.7538 5.69285 38.5718 5.37218C38.3898 5.04285 38.1428 4.79152 37.8308 4.61818C37.5274 4.44485 37.1808 4.35818 36.7908 4.35818C36.4008 4.35818 36.0498 4.44485 35.7378 4.61818C35.4258 4.79152 35.1788 5.04285 34.9968 5.37218C34.8148 5.69285 34.7238 6.07852 34.7238 6.52918C34.7238 6.97118 34.8148 7.35685 34.9968 7.68618C35.1788 8.01552 35.4258 8.26685 35.7378 8.44018C36.0498 8.61352 36.4008 8.70018 36.7908 8.70018Z" fill="#C92020"/>
<path d="M45.2999 10.0912C44.5285 10.0912 43.8525 9.93952 43.2719 9.63618C42.6999 9.32418 42.2535 8.89952 41.9329 8.36218C41.6209 7.82485 41.4649 7.21385 41.4649 6.52918C41.4649 5.83585 41.6165 5.22485 41.9199 4.69618C42.2319 4.15885 42.6565 3.73852 43.1939 3.43518C43.7399 3.13185 44.3595 2.98018 45.0529 2.98018C45.7289 2.98018 46.3312 3.12752 46.8599 3.42218C47.3885 3.71685 47.8045 4.13285 48.1079 4.67018C48.4112 5.20752 48.5629 5.84018 48.5629 6.56818C48.5629 6.63752 48.5585 6.71552 48.5499 6.80218C48.5499 6.88885 48.5455 6.97118 48.5369 7.04918H42.7519V5.97018H47.6789L47.0419 6.30818C47.0505 5.90952 46.9682 5.55852 46.7949 5.25518C46.6215 4.95185 46.3832 4.71352 46.0799 4.54018C45.7852 4.36685 45.4429 4.28018 45.0529 4.28018C44.6542 4.28018 44.3032 4.36685 43.9999 4.54018C43.7052 4.71352 43.4712 4.95618 43.2979 5.26818C43.1332 5.57152 43.0509 5.93118 43.0509 6.34718V6.60718C43.0509 7.02318 43.1462 7.39152 43.3369 7.71218C43.5275 8.03285 43.7962 8.27985 44.1429 8.45318C44.4895 8.62652 44.8882 8.71318 45.3389 8.71318C45.7289 8.71318 46.0799 8.65252 46.3919 8.53118C46.7039 8.40985 46.9812 8.21918 47.2239 7.95918L48.0949 8.96018C47.7829 9.32418 47.3885 9.60585 46.9119 9.80518C46.4439 9.99585 45.9065 10.0912 45.2999 10.0912Z" fill="#C92020"/>
<path d="M50.1238 10.0002V3.05818H51.6708V4.96918L51.4888 4.41018C51.6968 3.94218 52.0218 3.58685 52.4638 3.34418C52.9145 3.10152 53.4735 2.98018 54.1408 2.98018V4.52718C54.0715 4.50985 54.0065 4.50118 53.9458 4.50118C53.8851 4.49252 53.8245 4.48818 53.7638 4.48818C53.1485 4.48818 52.6588 4.67018 52.2948 5.03418C51.9308 5.38952 51.7488 5.92252 51.7488 6.63318V10.0002H50.1238Z" fill="#C92020"/>
<path d="M62.2955 10.0912C61.5849 10.0912 60.9522 9.93952 60.3975 9.63618C59.8429 9.32418 59.4052 8.89952 59.0845 8.36218C58.7639 7.82485 58.6035 7.21385 58.6035 6.52918C58.6035 5.83585 58.7639 5.22485 59.0845 4.69618C59.4052 4.15885 59.8429 3.73852 60.3975 3.43518C60.9522 3.13185 61.5849 2.98018 62.2955 2.98018C63.0149 2.98018 63.6519 3.13185 64.2065 3.43518C64.7699 3.73852 65.2076 4.15452 65.5195 4.68318C65.8402 5.21185 66.0005 5.82718 66.0005 6.52918C66.0005 7.21385 65.8402 7.82485 65.5195 8.36218C65.2076 8.89952 64.7699 9.32418 64.2065 9.63618C63.6519 9.93952 63.0149 10.0912 62.2955 10.0912ZM62.2955 8.70018C62.6942 8.70018 63.0495 8.61352 63.3615 8.44018C63.6735 8.26685 63.9162 8.01552 64.0895 7.68618C64.2715 7.35685 64.3625 6.97118 64.3625 6.52918C64.3625 6.07852 64.2715 5.69285 64.0895 5.37218C63.9162 5.04285 63.6735 4.79152 63.3615 4.61818C63.0495 4.44485 62.6985 4.35818 62.3085 4.35818C61.9099 4.35818 61.5545 4.44485 61.2425 4.61818C60.9392 4.79152 60.6965 5.04285 60.5145 5.37218C60.3325 5.69285 60.2415 6.07852 60.2415 6.52918C60.2415 6.97118 60.3325 7.35685 60.5145 7.68618C60.6965 8.01552 60.9392 8.26685 61.2425 8.44018C61.5545 8.61352 61.9055 8.70018 62.2955 8.70018Z" fill="#C92020"/>
<path d="M67.7755 10.0002V2.66818C67.7755 1.94018 67.9878 1.35952 68.4125 0.926184C68.8458 0.484184 69.4611 0.263184 70.2584 0.263184C70.5444 0.263184 70.8131 0.293517 71.0645 0.354183C71.3245 0.41485 71.5411 0.510184 71.7144 0.640183L71.2724 1.86218C71.1511 1.76685 71.0125 1.69752 70.8565 1.65418C70.7005 1.60218 70.5401 1.57618 70.3755 1.57618C70.0375 1.57618 69.7818 1.67152 69.6085 1.86218C69.4351 2.04418 69.3484 2.32152 69.3484 2.69418V3.47418L69.4005 4.20218V10.0002H67.7755ZM66.6314 4.41018V3.11018H71.2595V4.41018H66.6314Z" fill="#C92020"/>
<path d="M76.1021 10.0002V0.900183H79.8461C80.6521 0.900183 81.341 1.03018 81.913 1.29018C82.4937 1.55018 82.9401 1.92285 83.2521 2.40818C83.564 2.89352 83.72 3.46985 83.72 4.13718C83.72 4.80452 83.564 5.38085 83.2521 5.86618C82.9401 6.35152 82.4937 6.72418 81.913 6.98418C81.341 7.24418 80.6521 7.37418 79.8461 7.37418H77.038L77.7921 6.58118V10.0002H76.1021ZM77.7921 6.76318L77.038 5.94418H79.7681C80.5134 5.94418 81.0724 5.78818 81.4451 5.47618C81.8264 5.15552 82.0171 4.70918 82.0171 4.13718C82.0171 3.55652 81.8264 3.11018 81.4451 2.79818C81.0724 2.48618 80.5134 2.33018 79.7681 2.33018H77.038L77.7921 1.49818V6.76318Z" fill="#C92020"/>
<path d="M88.4893 10.0912C87.718 10.0912 87.042 9.93952 86.4613 9.63618C85.8893 9.32418 85.443 8.89952 85.1223 8.36218C84.8103 7.82485 84.6543 7.21385 84.6543 6.52918C84.6543 5.83585 84.806 5.22485 85.1093 4.69618C85.4213 4.15885 85.846 3.73852 86.3833 3.43518C86.9293 3.13185 87.549 2.98018 88.2423 2.98018C88.9183 2.98018 89.5207 3.12752 90.0493 3.42218C90.578 3.71685 90.994 4.13285 91.2973 4.67018C91.6007 5.20752 91.7523 5.84018 91.7523 6.56818C91.7523 6.63752 91.748 6.71552 91.7393 6.80218C91.7393 6.88885 91.735 6.97118 91.7263 7.04918H85.9413V5.97018H90.8683L90.2313 6.30818C90.24 5.90952 90.1577 5.55852 89.9843 5.25518C89.811 4.95185 89.5727 4.71352 89.2693 4.54018C88.9747 4.36685 88.6323 4.28018 88.2423 4.28018C87.8437 4.28018 87.4927 4.36685 87.1893 4.54018C86.8947 4.71352 86.6607 4.95618 86.4873 5.26818C86.3227 5.57152 86.2403 5.93118 86.2403 6.34718V6.60718C86.2403 7.02318 86.3357 7.39152 86.5263 7.71218C86.717 8.03285 86.9857 8.27985 87.3323 8.45318C87.679 8.62652 88.0777 8.71318 88.5283 8.71318C88.9183 8.71318 89.2693 8.65252 89.5813 8.53118C89.8933 8.40985 90.1707 8.21918 90.4133 7.95918L91.2843 8.96018C90.9723 9.32418 90.578 9.60585 90.1013 9.80518C89.6333 9.99585 89.096 10.0912 88.4893 10.0912Z" fill="#C92020"/>
<path d="M96.4332 10.0912C95.7226 10.0912 95.0899 9.93952 94.5352 9.63618C93.9806 9.32418 93.5429 8.89952 93.2222 8.36218C92.9016 7.82485 92.7412 7.21385 92.7412 6.52918C92.7412 5.83585 92.9016 5.22485 93.2222 4.69618C93.5429 4.15885 93.9806 3.73852 94.5352 3.43518C95.0899 3.13185 95.7226 2.98018 96.4332 2.98018C97.1526 2.98018 97.7896 3.13185 98.3442 3.43518C98.9076 3.73852 99.3452 4.15452 99.6572 4.68318C99.9779 5.21185 100.138 5.82718 100.138 6.52918C100.138 7.21385 99.9779 7.82485 99.6572 8.36218C99.3452 8.89952 98.9076 9.32418 98.3442 9.63618C97.7896 9.93952 97.1526 10.0912 96.4332 10.0912ZM96.4332 8.70018C96.8319 8.70018 97.1872 8.61352 97.4992 8.44018C97.8112 8.26685 98.0539 8.01552 98.2272 7.68618C98.4092 7.35685 98.5002 6.97118 98.5002 6.52918C98.5002 6.07852 98.4092 5.69285 98.2272 5.37218C98.0539 5.04285 97.8112 4.79152 97.4992 4.61818C97.1872 4.44485 96.8362 4.35818 96.4462 4.35818C96.0476 4.35818 95.6922 4.44485 95.3802 4.61818C95.0769 4.79152 94.8342 5.04285 94.6522 5.37218C94.4702 5.69285 94.3792 6.07852 94.3792 6.52918C94.3792 6.97118 94.4702 7.35685 94.6522 7.68618C94.8342 8.01552 95.0769 8.26685 95.3802 8.44018C95.6922 8.61352 96.0432 8.70018 96.4332 8.70018Z" fill="#C92020"/>
<path d="M105.54 10.0912C104.977 10.0912 104.461 9.96118 103.993 9.70118C103.534 9.44118 103.165 9.05118 102.888 8.53118C102.619 8.00252 102.485 7.33518 102.485 6.52918C102.485 5.71452 102.615 5.04718 102.875 4.52718C103.144 4.00718 103.508 3.62152 103.967 3.37018C104.426 3.11018 104.951 2.98018 105.54 2.98018C106.225 2.98018 106.827 3.12752 107.347 3.42218C107.876 3.71685 108.292 4.12852 108.595 4.65718C108.907 5.18585 109.063 5.80985 109.063 6.52918C109.063 7.24852 108.907 7.87685 108.595 8.41418C108.292 8.94285 107.876 9.35452 107.347 9.64918C106.827 9.94385 106.225 10.0912 105.54 10.0912ZM101.692 12.5222V3.05818H103.239V4.69618L103.187 6.54218L103.317 8.38818V12.5222H101.692ZM105.358 8.70018C105.748 8.70018 106.095 8.61352 106.398 8.44018C106.71 8.26685 106.957 8.01552 107.139 7.68618C107.321 7.35685 107.412 6.97118 107.412 6.52918C107.412 6.07852 107.321 5.69285 107.139 5.37218C106.957 5.04285 106.71 4.79152 106.398 4.61818C106.095 4.44485 105.748 4.35818 105.358 4.35818C104.968 4.35818 104.617 4.44485 104.305 4.61818C103.993 4.79152 103.746 5.04285 103.564 5.37218C103.382 5.69285 103.291 6.07852 103.291 6.52918C103.291 6.97118 103.382 7.35685 103.564 7.68618C103.746 8.01552 103.993 8.26685 104.305 8.44018C104.617 8.61352 104.968 8.70018 105.358 8.70018Z" fill="#C92020"/>
<path d="M110.604 10.0002V0.354183H112.229V10.0002H110.604Z" fill="#C92020"/>
<path d="M117.625 10.0912C116.854 10.0912 116.178 9.93952 115.597 9.63618C115.025 9.32418 114.579 8.89952 114.258 8.36218C113.946 7.82485 113.79 7.21385 113.79 6.52918C113.79 5.83585 113.942 5.22485 114.245 4.69618C114.557 4.15885 114.982 3.73852 115.519 3.43518C116.065 3.13185 116.685 2.98018 117.378 2.98018C118.054 2.98018 118.656 3.12752 119.185 3.42218C119.714 3.71685 120.13 4.13285 120.433 4.67018C120.736 5.20752 120.888 5.84018 120.888 6.56818C120.888 6.63752 120.884 6.71552 120.875 6.80218C120.875 6.88885 120.871 6.97118 120.862 7.04918H115.077V5.97018H120.004L119.367 6.30818C119.376 5.90952 119.293 5.55852 119.12 5.25518C118.947 4.95185 118.708 4.71352 118.405 4.54018C118.11 4.36685 117.768 4.28018 117.378 4.28018C116.979 4.28018 116.628 4.36685 116.325 4.54018C116.03 4.71352 115.796 4.95618 115.623 5.26818C115.458 5.57152 115.376 5.93118 115.376 6.34718V6.60718C115.376 7.02318 115.471 7.39152 115.662 7.71218C115.853 8.03285 116.121 8.27985 116.468 8.45318C116.815 8.62652 117.213 8.71318 117.664 8.71318C118.054 8.71318 118.405 8.65252 118.717 8.53118C119.029 8.40985 119.306 8.21918 119.549 7.95918L120.42 8.96018C120.108 9.32418 119.714 9.60585 119.237 9.80518C118.769 9.99585 118.232 10.0912 117.625 10.0912Z" fill="#C92020"/>
<path d="M122.865 4.82618C122.622 4.82618 122.414 4.74385 122.241 4.57918C122.068 4.40585 121.981 4.18918 121.981 3.92918C121.981 3.66918 122.068 3.45685 122.241 3.29218C122.414 3.12752 122.622 3.04518 122.865 3.04518C123.099 3.04518 123.298 3.12752 123.463 3.29218C123.636 3.45685 123.723 3.66918 123.723 3.92918C123.723 4.18918 123.636 4.40585 123.463 4.57918C123.298 4.74385 123.099 4.82618 122.865 4.82618ZM122.865 10.0782C122.622 10.0782 122.414 9.99585 122.241 9.83118C122.068 9.65785 121.981 9.44118 121.981 9.18118C121.981 8.92118 122.068 8.70885 122.241 8.54418C122.414 8.37952 122.622 8.29718 122.865 8.29718C123.099 8.29718 123.298 8.37952 123.463 8.54418C123.636 8.70885 123.723 8.92118 123.723 9.18118C123.723 9.44118 123.636 9.65785 123.463 9.83118C123.298 9.99585 123.099 10.0782 122.865 10.0782Z" fill="#C92020"/>
<path d="M128.301 10.0002V9.11618L132.006 5.54118C132.335 5.22918 132.577 4.95618 132.734 4.72218C132.898 4.47952 133.007 4.25852 133.059 4.05918C133.119 3.85118 133.15 3.65185 133.15 3.46118C133.15 2.99318 132.985 2.62485 132.656 2.35618C132.326 2.08752 131.845 1.95318 131.213 1.95318C130.727 1.95318 130.29 2.03552 129.9 2.20018C129.51 2.35618 129.171 2.60318 128.885 2.94118L128.002 2.17418C128.348 1.73218 128.812 1.39418 129.393 1.16018C129.982 0.917517 130.628 0.796184 131.329 0.796184C131.962 0.796184 132.512 0.900184 132.98 1.10818C133.449 1.30752 133.808 1.59785 134.06 1.97918C134.32 2.36052 134.45 2.81118 134.45 3.33118C134.45 3.62585 134.411 3.91618 134.333 4.20218C134.255 4.48818 134.107 4.79152 133.891 5.11218C133.674 5.43285 133.362 5.79252 132.954 6.19118L129.652 9.37618L129.34 8.86918H134.84V10.0002H128.301Z" fill="#C92020"/>
</svg>
