<svg width="112" height="12" viewBox="0 0 112 12" fill="none" xmlns="http://www.w3.org/2000/svg">
<path d="M0.12793 8.99972V0.599718H1.41193L6.67993 7.06772H6.04393V0.599718H7.59193V8.99972H6.30793L1.03993 2.53172H1.67593V8.99972H0.12793Z" fill="#DE1D1D"/>
<path d="M12.4108 9.08372C11.8668 9.08372 11.3868 8.98372 10.9708 8.78372C10.5548 8.57572 10.2308 8.26372 9.99877 7.84772C9.76677 7.42372 9.65077 6.89172 9.65077 6.25172V2.59172H11.1508V6.04772C11.1508 6.62372 11.2788 7.05572 11.5348 7.34372C11.7988 7.62372 12.1708 7.76372 12.6508 7.76372C13.0028 7.76372 13.3068 7.69172 13.5628 7.54772C13.8268 7.40372 14.0308 7.18772 14.1748 6.89972C14.3268 6.61172 14.4028 6.25572 14.4028 5.83172V2.59172H15.9028V8.99972H14.4748V7.27172L14.7268 7.79972C14.5108 8.21572 14.1948 8.53572 13.7788 8.75972C13.3628 8.97572 12.9068 9.08372 12.4108 9.08372Z" fill="#DE1D1D"/>
<path d="M25.9547 2.51972C26.4667 2.51972 26.9187 2.61972 27.3107 2.81972C27.7107 3.01972 28.0227 3.32772 28.2467 3.74372C28.4707 4.15172 28.5827 4.67972 28.5827 5.32772V8.99972H27.0827V5.51972C27.0827 4.95172 26.9587 4.52772 26.7107 4.24772C26.4627 3.96772 26.1067 3.82772 25.6427 3.82772C25.3147 3.82772 25.0227 3.89972 24.7667 4.04372C24.5187 4.18772 24.3227 4.39972 24.1787 4.67972C24.0427 4.95972 23.9747 5.31572 23.9747 5.74772V8.99972H22.4747V5.51972C22.4747 4.95172 22.3507 4.52772 22.1027 4.24772C21.8547 3.96772 21.4987 3.82772 21.0347 3.82772C20.7067 3.82772 20.4147 3.89972 20.1587 4.04372C19.9107 4.18772 19.7147 4.39972 19.5707 4.67972C19.4347 4.95972 19.3667 5.31572 19.3667 5.74772V8.99972H17.8667V2.59172H19.2947V4.29572L19.0427 3.79172C19.2587 3.37572 19.5707 3.05972 19.9787 2.84372C20.3947 2.62772 20.8667 2.51972 21.3947 2.51972C21.9947 2.51972 22.5147 2.66772 22.9547 2.96372C23.4027 3.25972 23.6987 3.70772 23.8427 4.30772L23.2547 4.10372C23.4627 3.62372 23.8067 3.23972 24.2867 2.95172C24.7667 2.66372 25.3227 2.51972 25.9547 2.51972Z" fill="#DE1D1D"/>
<path d="M34.0516 9.08372C33.5076 9.08372 33.0236 8.96372 32.5996 8.72372C32.1756 8.48372 31.8396 8.12372 31.5916 7.64372C31.3516 7.15572 31.2316 6.53972 31.2316 5.79572C31.2316 5.04372 31.3556 4.42772 31.6036 3.94772C31.8596 3.46772 32.1996 3.11172 32.6236 2.87972C33.0556 2.63972 33.5316 2.51972 34.0516 2.51972C34.6836 2.51972 35.2396 2.65572 35.7196 2.92772C36.2076 3.19972 36.5916 3.57972 36.8716 4.06772C37.1596 4.55572 37.3036 5.13172 37.3036 5.79572C37.3036 6.45972 37.1596 7.03572 36.8716 7.52372C36.5916 8.01172 36.2076 8.39572 35.7196 8.67572C35.2396 8.94772 34.6836 9.08372 34.0516 9.08372ZM30.4996 8.99972V0.0957184H31.9996V4.07972L31.8796 5.78372L31.9276 7.48772V8.99972H30.4996ZM33.8836 7.79972C34.2436 7.79972 34.5636 7.71972 34.8436 7.55972C35.1316 7.39972 35.3596 7.16772 35.5276 6.86372C35.6956 6.55972 35.7796 6.20372 35.7796 5.79572C35.7796 5.37972 35.6956 5.02372 35.5276 4.72772C35.3596 4.42372 35.1316 4.19172 34.8436 4.03172C34.5636 3.87172 34.2436 3.79172 33.8836 3.79172C33.5236 3.79172 33.1996 3.87172 32.9116 4.03172C32.6236 4.19172 32.3956 4.42372 32.2276 4.72772C32.0596 5.02372 31.9756 5.37972 31.9756 5.79572C31.9756 6.20372 32.0596 6.55972 32.2276 6.86372C32.3956 7.16772 32.6236 7.39972 32.9116 7.55972C33.1996 7.71972 33.5236 7.79972 33.8836 7.79972Z" fill="#DE1D1D"/>
<path d="M41.7381 9.08372C41.0261 9.08372 40.4021 8.94372 39.8661 8.66372C39.3381 8.37572 38.9261 7.98372 38.6301 7.48772C38.3421 6.99172 38.1981 6.42772 38.1981 5.79572C38.1981 5.15572 38.3381 4.59172 38.6181 4.10372C38.9061 3.60772 39.2981 3.21972 39.7941 2.93972C40.2981 2.65972 40.8701 2.51972 41.5101 2.51972C42.1341 2.51972 42.6901 2.65572 43.1781 2.92772C43.6661 3.19972 44.0501 3.58372 44.3301 4.07972C44.6101 4.57572 44.7501 5.15972 44.7501 5.83172C44.7501 5.89572 44.7461 5.96772 44.7381 6.04772C44.7381 6.12772 44.7341 6.20372 44.7261 6.27572H39.3861V5.27972H43.9341L43.3461 5.59172C43.3541 5.22372 43.2781 4.89972 43.1181 4.61972C42.9581 4.33972 42.7381 4.11972 42.4581 3.95972C42.1861 3.79972 41.8701 3.71972 41.5101 3.71972C41.1421 3.71972 40.8181 3.79972 40.5381 3.95972C40.2661 4.11972 40.0501 4.34372 39.8901 4.63172C39.7381 4.91172 39.6621 5.24372 39.6621 5.62772V5.86772C39.6621 6.25172 39.7501 6.59172 39.9261 6.88772C40.1021 7.18372 40.3501 7.41172 40.6701 7.57172C40.9901 7.73172 41.3581 7.81172 41.7741 7.81172C42.1341 7.81172 42.4581 7.75572 42.7461 7.64372C43.0341 7.53172 43.2901 7.35572 43.5141 7.11572L44.3181 8.03972C44.0301 8.37572 43.6661 8.63572 43.2261 8.81972C42.7941 8.99572 42.2981 9.08372 41.7381 9.08372Z" fill="#DE1D1D"/>
<path d="M46.191 8.99972V2.59172H47.619V4.35572L47.451 3.83972C47.643 3.40772 47.943 3.07972 48.351 2.85572C48.767 2.63172 49.283 2.51972 49.899 2.51972V3.94772C49.835 3.93172 49.775 3.92372 49.719 3.92372C49.663 3.91572 49.607 3.91172 49.551 3.91172C48.983 3.91172 48.531 4.07972 48.195 4.41572C47.859 4.74372 47.691 5.23572 47.691 5.89172V8.99972H46.191Z" fill="#DE1D1D"/>
<path d="M57.4264 9.08372C56.7704 9.08372 56.1864 8.94372 55.6744 8.66372C55.1624 8.37572 54.7584 7.98372 54.4624 7.48772C54.1664 6.99172 54.0184 6.42772 54.0184 5.79572C54.0184 5.15572 54.1664 4.59172 54.4624 4.10372C54.7584 3.60772 55.1624 3.21972 55.6744 2.93972C56.1864 2.65972 56.7704 2.51972 57.4264 2.51972C58.0904 2.51972 58.6784 2.65972 59.1904 2.93972C59.7104 3.21972 60.1144 3.60372 60.4024 4.09172C60.6984 4.57972 60.8464 5.14772 60.8464 5.79572C60.8464 6.42772 60.6984 6.99172 60.4024 7.48772C60.1144 7.98372 59.7104 8.37572 59.1904 8.66372C58.6784 8.94372 58.0904 9.08372 57.4264 9.08372ZM57.4264 7.79972C57.7944 7.79972 58.1224 7.71972 58.4104 7.55972C58.6984 7.39972 58.9224 7.16772 59.0824 6.86372C59.2504 6.55972 59.3344 6.20372 59.3344 5.79572C59.3344 5.37972 59.2504 5.02372 59.0824 4.72772C58.9224 4.42372 58.6984 4.19172 58.4104 4.03172C58.1224 3.87172 57.7984 3.79172 57.4384 3.79172C57.0704 3.79172 56.7424 3.87172 56.4544 4.03172C56.1744 4.19172 55.9504 4.42372 55.7824 4.72772C55.6144 5.02372 55.5304 5.37972 55.5304 5.79572C55.5304 6.20372 55.6144 6.55972 55.7824 6.86372C55.9504 7.16772 56.1744 7.39972 56.4544 7.55972C56.7424 7.71972 57.0664 7.79972 57.4264 7.79972Z" fill="#DE1D1D"/>
<path d="M62.4848 8.99972V2.23172C62.4848 1.55972 62.6808 1.02372 63.0728 0.623719C63.4728 0.215719 64.0408 0.0117188 64.7768 0.0117188C65.0408 0.0117188 65.2888 0.0397186 65.5208 0.0957184C65.7608 0.151719 65.9608 0.239719 66.1208 0.359719L65.7128 1.48772C65.6008 1.39972 65.4728 1.33572 65.3288 1.29572C65.1848 1.24772 65.0368 1.22372 64.8848 1.22372C64.5728 1.22372 64.3368 1.31172 64.1768 1.48772C64.0168 1.65572 63.9368 1.91172 63.9368 2.25572V2.97572L63.9848 3.64772V8.99972H62.4848ZM61.4288 3.83972V2.63972H65.7008V3.83972H61.4288Z" fill="#DE1D1D"/>
<path d="M70.1709 8.99972V0.599718H73.6269C74.3709 0.599718 75.0069 0.719718 75.5349 0.959719C76.0709 1.19972 76.4829 1.54372 76.7709 1.99172C77.0589 2.43972 77.2029 2.97172 77.2029 3.58772C77.2029 4.20372 77.0589 4.73572 76.7709 5.18372C76.4829 5.63172 76.0709 5.97572 75.5349 6.21572C75.0069 6.45572 74.3709 6.57572 73.6269 6.57572H71.0349L71.7309 5.84372V8.99972H70.1709ZM71.7309 6.01172L71.0349 5.25572H73.5549C74.2429 5.25572 74.7589 5.11172 75.1029 4.82372C75.4549 4.52772 75.6309 4.11572 75.6309 3.58772C75.6309 3.05172 75.4549 2.63972 75.1029 2.35172C74.7589 2.06372 74.2429 1.91972 73.5549 1.91972H71.0349L71.7309 1.15172V6.01172Z" fill="#DE1D1D"/>
<path d="M81.6053 9.08372C80.8933 9.08372 80.2693 8.94372 79.7333 8.66372C79.2053 8.37572 78.7933 7.98372 78.4973 7.48772C78.2093 6.99172 78.0653 6.42772 78.0653 5.79572C78.0653 5.15572 78.2053 4.59172 78.4853 4.10372C78.7733 3.60772 79.1653 3.21972 79.6613 2.93972C80.1653 2.65972 80.7373 2.51972 81.3773 2.51972C82.0013 2.51972 82.5573 2.65572 83.0453 2.92772C83.5333 3.19972 83.9173 3.58372 84.1973 4.07972C84.4773 4.57572 84.6173 5.15972 84.6173 5.83172C84.6173 5.89572 84.6133 5.96772 84.6053 6.04772C84.6053 6.12772 84.6013 6.20372 84.5933 6.27572H79.2533V5.27972H83.8013L83.2133 5.59172C83.2213 5.22372 83.1453 4.89972 82.9853 4.61972C82.8253 4.33972 82.6053 4.11972 82.3253 3.95972C82.0533 3.79972 81.7373 3.71972 81.3773 3.71972C81.0093 3.71972 80.6853 3.79972 80.4053 3.95972C80.1333 4.11972 79.9173 4.34372 79.7573 4.63172C79.6053 4.91172 79.5293 5.24372 79.5293 5.62772V5.86772C79.5293 6.25172 79.6173 6.59172 79.7933 6.88772C79.9693 7.18372 80.2173 7.41172 80.5373 7.57172C80.8573 7.73172 81.2253 7.81172 81.6413 7.81172C82.0013 7.81172 82.3253 7.75572 82.6133 7.64372C82.9013 7.53172 83.1573 7.35572 83.3813 7.11572L84.1853 8.03972C83.8973 8.37572 83.5333 8.63572 83.0933 8.81972C82.6613 8.99572 82.1653 9.08372 81.6053 9.08372Z" fill="#DE1D1D"/>
<path d="M88.9381 9.08372C88.2822 9.08372 87.6982 8.94372 87.1861 8.66372C86.6741 8.37572 86.2701 7.98372 85.9742 7.48772C85.6782 6.99172 85.5302 6.42772 85.5302 5.79572C85.5302 5.15572 85.6782 4.59172 85.9742 4.10372C86.2701 3.60772 86.6741 3.21972 87.1861 2.93972C87.6982 2.65972 88.2822 2.51972 88.9381 2.51972C89.6021 2.51972 90.1901 2.65972 90.7021 2.93972C91.2221 3.21972 91.6262 3.60372 91.9142 4.09172C92.2102 4.57972 92.3582 5.14772 92.3582 5.79572C92.3582 6.42772 92.2102 6.99172 91.9142 7.48772C91.6262 7.98372 91.2221 8.37572 90.7021 8.66372C90.1901 8.94372 89.6021 9.08372 88.9381 9.08372ZM88.9381 7.79972C89.3062 7.79972 89.6341 7.71972 89.9221 7.55972C90.2102 7.39972 90.4341 7.16772 90.5941 6.86372C90.7621 6.55972 90.8462 6.20372 90.8462 5.79572C90.8462 5.37972 90.7621 5.02372 90.5941 4.72772C90.4341 4.42372 90.2102 4.19172 89.9221 4.03172C89.6341 3.87172 89.3102 3.79172 88.9501 3.79172C88.5822 3.79172 88.2542 3.87172 87.9661 4.03172C87.6861 4.19172 87.4622 4.42372 87.2942 4.72772C87.1262 5.02372 87.0422 5.37972 87.0422 5.79572C87.0422 6.20372 87.1262 6.55972 87.2942 6.86372C87.4622 7.16772 87.6861 7.39972 87.9661 7.55972C88.2542 7.71972 88.5781 7.79972 88.9381 7.79972Z" fill="#DE1D1D"/>
<path d="M97.3445 9.08372C96.8245 9.08372 96.3485 8.96372 95.9165 8.72372C95.4925 8.48372 95.1525 8.12372 94.8965 7.64372C94.6485 7.15572 94.5245 6.53972 94.5245 5.79572C94.5245 5.04372 94.6445 4.42772 94.8845 3.94772C95.1325 3.46772 95.4685 3.11172 95.8925 2.87972C96.3165 2.63972 96.8005 2.51972 97.3445 2.51972C97.9765 2.51972 98.5325 2.65572 99.0125 2.92772C99.5005 3.19972 99.8845 3.57972 100.165 4.06772C100.453 4.55572 100.597 5.13172 100.597 5.79572C100.597 6.45972 100.453 7.03972 100.165 7.53572C99.8845 8.02372 99.5005 8.40372 99.0125 8.67572C98.5325 8.94772 97.9765 9.08372 97.3445 9.08372ZM93.7925 11.3277V2.59172H95.2205V4.10372L95.1725 5.80772L95.2925 7.51172V11.3277H93.7925ZM97.1765 7.79972C97.5365 7.79972 97.8565 7.71972 98.1365 7.55972C98.4245 7.39972 98.6525 7.16772 98.8205 6.86372C98.9885 6.55972 99.0725 6.20372 99.0725 5.79572C99.0725 5.37972 98.9885 5.02372 98.8205 4.72772C98.6525 4.42372 98.4245 4.19172 98.1365 4.03172C97.8565 3.87172 97.5365 3.79172 97.1765 3.79172C96.8165 3.79172 96.4925 3.87172 96.2045 4.03172C95.9165 4.19172 95.6885 4.42372 95.5205 4.72772C95.3525 5.02372 95.2685 5.37972 95.2685 5.79572C95.2685 6.20372 95.3525 6.55972 95.5205 6.86372C95.6885 7.16772 95.9165 7.39972 96.2045 7.55972C96.4925 7.71972 96.8165 7.79972 97.1765 7.79972Z" fill="#DE1D1D"/>
<path d="M102.019 8.99972V0.0957184H103.519V8.99972H102.019Z" fill="#DE1D1D"/>
<path d="M108.5 9.08372C107.788 9.08372 107.164 8.94372 106.628 8.66372C106.1 8.37572 105.688 7.98372 105.392 7.48772C105.104 6.99172 104.96 6.42772 104.96 5.79572C104.96 5.15572 105.1 4.59172 105.38 4.10372C105.668 3.60772 106.06 3.21972 106.556 2.93972C107.06 2.65972 107.632 2.51972 108.272 2.51972C108.896 2.51972 109.452 2.65572 109.94 2.92772C110.428 3.19972 110.812 3.58372 111.092 4.07972C111.372 4.57572 111.512 5.15972 111.512 5.83172C111.512 5.89572 111.508 5.96772 111.5 6.04772C111.5 6.12772 111.496 6.20372 111.488 6.27572H106.148V5.27972H110.696L110.108 5.59172C110.116 5.22372 110.04 4.89972 109.88 4.61972C109.72 4.33972 109.5 4.11972 109.22 3.95972C108.948 3.79972 108.632 3.71972 108.272 3.71972C107.904 3.71972 107.58 3.79972 107.3 3.95972C107.028 4.11972 106.812 4.34372 106.652 4.63172C106.5 4.91172 106.424 5.24372 106.424 5.62772V5.86772C106.424 6.25172 106.512 6.59172 106.688 6.88772C106.864 7.18372 107.112 7.41172 107.432 7.57172C107.752 7.73172 108.12 7.81172 108.536 7.81172C108.896 7.81172 109.22 7.75572 109.508 7.64372C109.796 7.53172 110.052 7.35572 110.276 7.11572L111.08 8.03972C110.792 8.37572 110.428 8.63572 109.988 8.81972C109.556 8.99572 109.06 9.08372 108.5 9.08372Z" fill="#DE1D1D"/>
</svg>
