<svg width="207" height="33" viewBox="0 0 207 33" fill="none" xmlns="http://www.w3.org/2000/svg">
<path fill-rule="evenodd" clip-rule="evenodd" d="M0.912109 31.9998V1.99982H5.53428L5.87211 1.64152V1.99982H12.3921C14.8684 1.99982 17.0541 2.40256 18.9188 3.24625C20.7845 4.06367 22.2503 5.27854 23.2725 6.89774C24.3295 8.50258 24.8321 10.4204 24.8321 12.5998C24.8321 14.7357 24.325 16.637 23.2725 18.2618C22.2499 19.855 20.7854 21.0676 18.9248 21.9107C17.0588 22.7562 14.8711 23.1598 12.3921 23.1598H5.87211V31.9998H0.912109ZM4.87211 22.1598H12.3921C14.7654 22.1598 16.8054 21.7732 18.5121 20.9998C20.2188 20.2265 21.5254 19.1332 22.4321 17.7198C23.3654 16.2798 23.8321 14.5732 23.8321 12.5998C23.8321 10.5732 23.3654 8.85316 22.4321 7.43983C21.5254 5.99983 20.2188 4.90649 18.5121 4.15983C16.8054 3.38649 14.7654 2.99982 12.3921 2.99982H1.91211V30.9998H4.87211V22.1598ZM4.87211 19.5598H12.3121C15.1121 19.5598 17.2321 18.9598 18.6721 17.7598C20.1388 16.5332 20.8721 14.8132 20.8721 12.5998C20.8721 10.3598 20.1388 8.62649 18.6721 7.39983C17.2321 6.17316 15.1121 5.55982 12.3121 5.55982H4.87211V19.5598ZM5.87211 6.55982V18.5598H12.3121C14.9893 18.5598 16.8414 17.9835 18.0315 16.9919C19.2333 15.9863 19.8721 14.5685 19.8721 12.5998C19.8721 10.5995 19.23 9.17011 18.0306 8.1669L18.0236 8.1611C16.834 7.14773 14.9852 6.55982 12.3121 6.55982H5.87211ZM44.3971 31.9998V30.2872C44.1604 30.4709 43.9106 30.6443 43.6479 30.8074C42.1412 31.7593 40.2898 32.1998 38.1571 32.1998C36.4781 32.1998 34.9646 31.9296 33.6407 31.3579L33.6279 31.3524L33.6154 31.3465C32.3302 30.7488 31.2987 29.9191 30.5688 28.8401L30.5613 28.8291C29.8328 27.7204 29.4771 26.4598 29.4771 25.0798C29.4771 23.8252 29.7698 22.6642 30.3705 21.6209L30.3751 21.6128C31.0336 20.4935 32.063 19.6505 33.3786 19.0516C34.7604 18.4079 36.5209 18.1198 38.5971 18.1198H44.2771V17.8398C44.2771 16.2465 43.8312 15.1675 43.0694 14.4458L43.0597 14.4366C42.3275 13.7242 41.1431 13.2798 39.3171 13.2798C38.0706 13.2798 36.895 13.4871 35.7838 13.8978C34.6542 14.3153 33.7242 14.8573 32.9756 15.5124L32.0777 16.2981L29.7415 12.4287L30.3895 11.8779C31.5659 10.8779 32.9631 10.1256 34.5634 9.61026C36.1629 9.06854 37.8426 8.79983 39.5971 8.79983C42.4734 8.79983 44.8411 9.51943 46.5501 11.1001C48.3214 12.686 49.1171 15.0425 49.1171 17.9598V31.9998H44.3971ZM45.8771 11.8398C44.4104 10.4798 42.3171 9.79983 39.5971 9.79983C37.9438 9.79983 36.3704 10.0532 34.8771 10.5598C33.3838 11.0398 32.1038 11.7332 31.0371 12.6398L32.3171 14.7598C32.5664 14.5417 32.8316 14.3361 33.1128 14.143C33.794 13.6751 34.5688 13.2807 35.4371 12.9598C36.6638 12.5065 37.9571 12.2798 39.3171 12.2798C41.2904 12.2798 42.7704 12.7598 43.7571 13.7198C44.7704 14.6798 45.2771 16.0532 45.2771 17.8398V19.1198H38.5971C36.5971 19.1198 34.9971 19.3998 33.7971 19.9598C32.6238 20.4932 31.7704 21.2132 31.2371 22.1198C30.7304 22.9998 30.4771 23.9865 30.4771 25.0798C30.4771 26.2798 30.7838 27.3465 31.3971 28.2798C32.0104 29.1865 32.8904 29.9065 34.0371 30.4398C35.2104 30.9465 36.5838 31.1998 38.1571 31.1998C40.1571 31.1998 41.8104 30.7865 43.1171 29.9598C43.5952 29.6634 44.0219 29.331 44.3971 28.9626C44.7856 28.5812 45.1189 28.1612 45.3971 27.7026V30.9998H48.1171V17.9598C48.1171 15.2132 47.3704 13.1732 45.8771 11.8398ZM45.2771 21.2398H38.6771C36.6504 21.2398 35.2371 21.5998 34.4371 22.3198C33.6638 23.0398 33.2771 23.9332 33.2771 24.9998C33.2771 26.1998 33.7438 27.1598 34.6771 27.8798C35.6104 28.5998 36.9171 28.9598 38.5971 28.9598C40.1971 28.9598 41.5704 28.5998 42.7171 27.8798C43.371 27.4637 43.9254 26.9483 44.3806 26.3334C44.4713 26.2108 44.5582 26.0842 44.6411 25.9536C44.6991 25.8622 44.7551 25.7689 44.8092 25.6737C44.8232 25.6492 44.837 25.6246 44.8506 25.5998C45.0103 25.3106 45.1524 25.004 45.2771 24.6798V21.2398ZM44.2771 22.2398H38.6771C36.7129 22.2398 35.6258 22.6001 35.1119 23.0579C34.5485 23.5854 34.2771 24.2108 34.2771 24.9998C34.2771 25.8964 34.6052 26.5613 35.2879 27.088C35.9855 27.6262 37.0467 27.9598 38.5971 27.9598C40.0421 27.9598 41.2226 27.6366 42.1824 27.0348C43.1154 26.4405 43.8139 25.6042 44.2771 24.4877V22.2398ZM59.047 31.4326L59.0395 31.4301C57.4166 30.8985 56.0742 30.2195 55.0639 29.3623L54.4305 28.8249L56.6846 24.8802L57.5909 25.5598C58.3417 26.1229 59.3367 26.64 60.6011 27.0959C61.824 27.5106 63.1122 27.7198 64.4709 27.7198C66.4098 27.7198 67.5886 27.4144 68.211 26.985C68.8404 26.5242 69.1109 25.9798 69.1109 25.2798C69.1109 24.7466 68.9489 24.4487 68.7067 24.2447L68.6849 24.2264L68.6642 24.2068C68.332 23.8931 67.8526 23.6272 67.1732 23.4461L67.1583 23.4421L67.1435 23.4377C66.3924 23.2123 65.5425 23.0213 64.5908 22.8669C63.5868 22.7041 62.583 22.5142 61.5795 22.2972L61.5739 22.296C60.5419 22.0667 59.5836 21.7342 58.7036 21.2943L58.6919 21.2884L58.6803 21.2822C57.7464 20.7841 56.9726 20.1073 56.3731 19.2553L56.3658 19.245L56.3588 19.2345C55.7345 18.2981 55.4709 17.1235 55.4709 15.7998C55.4709 14.454 55.8506 13.2244 56.6139 12.1431C57.382 11.055 58.4795 10.2421 59.8444 9.67749C61.2526 9.07931 62.9118 8.79983 64.7909 8.79983C66.2406 8.79983 67.6866 8.99855 69.1267 9.39306C70.5588 9.75889 71.7884 10.263 72.7856 10.9278L73.546 11.4347L71.3397 15.4915L70.4253 14.8646C69.5872 14.2899 68.6961 13.8869 67.7483 13.65L67.737 13.6471L67.7257 13.644C66.7422 13.3736 65.7646 13.2398 64.7909 13.2398C62.9791 13.2398 61.8361 13.5654 61.1832 14.0455L61.179 14.0486C60.5355 14.5166 60.2709 15.0531 60.2709 15.7198C60.2709 16.3 60.4347 16.6389 60.6685 16.8642C61.0478 17.2005 61.5638 17.4946 62.2489 17.725C63.0276 17.9502 63.8753 18.14 64.7932 18.2931C65.8013 18.4566 66.7962 18.6609 67.778 18.9058C68.8231 19.133 69.786 19.4614 70.6608 19.8968C71.6346 20.3403 72.4268 20.9981 73.0111 21.8675C73.6697 22.7784 73.9509 23.9197 73.9509 25.1998C73.9509 26.6275 73.5428 27.9109 72.7071 29.0048C71.902 30.0669 70.7453 30.8566 69.3124 31.4122L69.302 31.4162C67.8783 31.9501 66.1919 32.1998 64.2709 32.1998C62.4441 32.1998 60.7036 31.9467 59.0545 31.4349L59.047 31.4326ZM71.9109 28.3998C72.6042 27.4932 72.9509 26.4265 72.9509 25.1998C72.9509 24.0532 72.6975 23.1332 72.1909 22.4398C71.7109 21.7198 71.0575 21.1732 70.2309 20.7998C69.4309 20.3998 68.5375 20.0932 67.5509 19.8798C66.5909 19.6398 65.6175 19.4398 64.6309 19.2798C63.6709 19.1198 62.7775 18.9198 61.9509 18.6798C61.1509 18.4132 60.4975 18.0532 59.9909 17.5998C59.5109 17.1465 59.2709 16.5198 59.2709 15.7198C59.2709 14.7065 59.7109 13.8798 60.5909 13.2398C61.4975 12.5732 62.8975 12.2398 64.7909 12.2398C65.8575 12.2398 66.9242 12.3865 67.9909 12.6798C68.7391 12.8669 69.4545 13.1458 70.1371 13.5165C70.4276 13.6743 70.7122 13.8488 70.9909 14.0398L72.2309 11.7598C71.3509 11.1732 70.2309 10.7065 68.8709 10.3598C67.5109 9.98649 66.1509 9.79983 64.7909 9.79983C63.0042 9.79983 61.4842 10.0665 60.2309 10.5998C59.0042 11.1065 58.0709 11.8132 57.4309 12.7198C56.7909 13.6265 56.4709 14.6532 56.4709 15.7998C56.4709 16.9998 56.7109 17.9598 57.1909 18.6798C57.6975 19.3998 58.3509 19.9732 59.1509 20.3998C59.9509 20.7998 60.8309 21.1065 61.7909 21.3198C62.7775 21.5332 63.7642 21.7198 64.7509 21.8798C65.7375 22.0398 66.6309 22.2398 67.4309 22.4798C68.2309 22.6932 68.8709 23.0265 69.3509 23.4798C69.8575 23.9065 70.1109 24.5065 70.1109 25.2798C70.1109 26.3198 69.6709 27.1598 68.7909 27.7998C67.9109 28.4132 66.4709 28.7198 64.4709 28.7198C63.0042 28.7198 61.6042 28.4932 60.2709 28.0398C59.3382 27.7041 58.523 27.3292 57.8253 26.9152C57.5254 26.7373 57.2473 26.5522 56.9909 26.3598L55.7109 28.5998C56.5909 29.3465 57.8042 29.9732 59.3509 30.4798C60.8975 30.9598 62.5375 31.1998 64.2709 31.1998C66.1109 31.1998 67.6709 30.9598 68.9509 30.4798C70.2575 29.9732 71.2442 29.2798 71.9109 28.3998ZM81.3782 31.4326L81.3708 31.4301C79.7479 30.8985 78.4054 30.2195 77.3951 29.3623L76.7617 28.8249L79.0159 24.8802L79.9221 25.5598C80.6729 26.1229 81.6679 26.64 82.9323 27.0959C84.1553 27.5106 85.4434 27.7198 86.8021 27.7198C88.7409 27.7198 89.9196 27.4145 90.5421 26.9851C91.1716 26.5243 91.4421 25.9798 91.4421 25.2798C91.4421 24.7466 91.2802 24.4487 91.038 24.2447L91.0162 24.2264L90.9955 24.2068C90.6633 23.8931 90.1839 23.6272 89.5045 23.4461L89.4895 23.4421L89.4748 23.4377C88.7237 23.2123 87.8738 23.0213 86.922 22.8669C85.918 22.7041 84.9143 22.5142 83.9108 22.2972L83.9052 22.296C82.8732 22.0667 81.9149 21.7342 81.0349 21.2943L81.0231 21.2884L81.0115 21.2822C80.0776 20.7841 79.3038 20.1073 78.7043 19.2553L78.6971 19.245L78.6901 19.2345C78.0658 18.2981 77.8021 17.1235 77.8021 15.7998C77.8021 14.454 78.1819 13.2244 78.9451 12.1431C79.7133 11.055 80.8108 10.2421 82.1757 9.67749C83.5838 9.07931 85.2431 8.79983 87.1221 8.79983C88.5719 8.79983 90.0179 8.99856 91.458 9.39308C92.8901 9.75891 94.1197 10.263 95.1168 10.9278L95.8772 11.4347L93.6709 15.4915L92.7566 14.8646C91.9185 14.2899 91.0274 13.8869 90.0796 13.65L90.0682 13.6471L90.057 13.644C89.0735 13.3736 88.0959 13.2398 87.1221 13.2398C85.3104 13.2398 84.1674 13.5654 83.5145 14.0455L83.5103 14.0486C82.8667 14.5166 82.6021 15.0531 82.6021 15.7198C82.6021 16.3 82.766 16.6389 82.9997 16.8642C83.379 17.2005 83.8951 17.4946 84.5801 17.725C85.3588 17.9502 86.2064 18.14 87.1242 18.293M89.8821 19.8798C88.9221 19.6398 87.9488 19.4398 86.9621 19.2798C86.0021 19.1198 85.1088 18.9198 84.2821 18.6798C83.4821 18.4132 82.8288 18.0532 82.3221 17.5998C81.8421 17.1465 81.6021 16.5198 81.6021 15.7198C81.6021 14.7065 82.0421 13.8798 82.9221 13.2398C83.8288 12.5732 85.2288 12.2398 87.1221 12.2398C88.1888 12.2398 89.2554 12.3865 90.3221 12.6798C91.0703 12.8669 91.7858 13.1458 92.4684 13.5165C92.7589 13.6743 93.0435 13.8488 93.3221 14.0398L94.5621 11.7598C93.6821 11.1732 92.5621 10.7065 91.2021 10.3598C89.8421 9.98649 88.4821 9.79983 87.1221 9.79983C85.3354 9.79983 83.8154 10.0665 82.5621 10.5998C81.3354 11.1065 80.4021 11.8132 79.7621 12.7198C79.1221 13.6265 78.8021 14.6532 78.8021 15.7998C78.8021 16.9998 79.0421 17.9598 79.5221 18.6798C80.0288 19.3998 80.6821 19.9732 81.4821 20.3998C82.2821 20.7998 83.1621 21.1065 84.1221 21.3198C85.1088 21.5332 86.0954 21.7198 87.0821 21.8798C88.0688 22.0398 88.9621 22.2398 89.7621 22.4798C90.5621 22.6932 91.2021 23.0265 91.6821 23.4798C92.1888 23.9065 92.4421 24.5065 92.4421 25.2798C92.4421 26.3198 92.0021 27.1598 91.1221 27.7998C90.2421 28.4132 88.8021 28.7198 86.8021 28.7198C85.3354 28.7198 83.9354 28.4932 82.6021 28.0398C81.6695 27.7041 80.8543 27.3292 80.1565 26.9152C79.8567 26.7373 79.5786 26.5522 79.3221 26.3598L78.0421 28.5998C78.9221 29.3465 80.1354 29.9732 81.6821 30.4798C83.2288 30.9598 84.8688 31.1998 86.6021 31.1998C88.4421 31.1998 90.0021 30.9598 91.2821 30.4798C92.5888 29.9732 93.5755 29.2798 94.2421 28.3998C94.9354 27.4932 95.2821 26.4265 95.2821 25.1998C95.2821 24.0532 95.0288 23.1332 94.5221 22.4398C94.0421 21.7198 93.3888 21.1732 92.5621 20.7998C91.7621 20.3998 90.8688 20.0932 89.8821 19.8798ZM95.3426 21.8678C96.001 22.7787 96.2821 23.9199 96.2821 25.1998C96.2821 26.6281 95.8737 27.9119 95.0374 29.0061C94.2323 30.0676 93.076 30.8568 91.6436 31.4122L91.6333 31.4162C90.2095 31.95 88.5231 32.1998 86.6021 32.1998C84.7753 32.1998 83.0349 31.9467 81.3857 31.4349L81.3782 31.4326M95.3426 21.8678C94.7582 20.9982 93.9659 20.3403 92.9919 19.8967C92.1172 19.4614 91.1544 19.133 90.1093 18.9058M106.491 31.9998L97.8168 8.99982H102.679L108.584 24.9756L114.653 8.99982H118.475L124.483 24.987L130.49 8.99982H135.231L126.513 31.9998H122.456L116.519 16.5506L110.548 31.9998H106.491ZM116.522 13.7697L123.143 30.9998H125.823L133.783 9.99982H131.183L124.483 27.8299L117.783 9.99982H115.343L108.571 27.8254L101.983 9.99982H99.2627L107.183 30.9998H109.863L116.522 13.7697ZM142.858 30.7085L142.849 30.7036C141.1 29.6834 139.71 28.2927 138.689 26.5437L138.686 26.5375C137.656 24.7433 137.153 22.7149 137.153 20.4798C137.153 18.2209 137.655 16.1889 138.689 14.416C139.711 12.6644 141.105 11.2843 142.86 10.2898C144.627 9.28835 146.627 8.79983 148.833 8.79983C151.062 8.79983 153.075 9.28683 154.844 10.2885C156.625 11.282 158.023 12.6635 159.02 14.4212C160.052 16.193 160.553 18.2231 160.553 20.4798C160.553 22.714 160.05 24.7416 159.022 26.5353C158.025 28.2932 156.629 29.687 154.851 30.7072L154.84 30.7134C153.049 31.7112 151.039 32.1998 148.833 32.1998C146.651 32.1998 144.655 31.7102 142.866 30.7133L142.858 30.7085ZM154.353 11.1598C152.753 10.2532 150.913 9.79983 148.833 9.79983C146.78 9.79983 144.953 10.2532 143.353 11.1598C141.753 12.0665 140.486 13.3198 139.553 14.9198C138.62 16.5198 138.153 18.3732 138.153 20.4798C138.153 22.5598 138.62 24.4132 139.553 26.0398C140.486 27.6398 141.753 28.9065 143.353 29.8398C144.98 30.7465 146.806 31.1998 148.833 31.1998C150.886 31.1998 152.726 30.7465 154.353 29.8398C155.98 28.9065 157.246 27.6398 158.153 26.0398C159.086 24.4132 159.553 22.5598 159.553 20.4798C159.553 18.3732 159.086 16.5198 158.153 14.9198C157.246 13.3198 155.98 12.0665 154.353 11.1598ZM154.754 24.3223L154.758 24.3158C155.359 23.2297 155.673 21.9605 155.673 20.4798C155.673 18.9689 155.357 17.7043 154.762 16.6519L154.758 16.6446L154.754 16.6373C154.174 15.5687 153.384 14.7605 152.379 14.1893L152.372 14.1851L152.364 14.1808C151.36 13.587 150.205 13.2798 148.873 13.2798C147.541 13.2798 146.387 13.587 145.382 14.1808L145.374 14.1851L145.367 14.1893C144.358 14.7625 143.552 15.5755 142.944 16.6519C142.349 17.7043 142.033 18.9689 142.033 20.4798C142.033 21.9586 142.347 23.2266 142.946 24.3118C143.554 25.3867 144.362 26.2144 145.374 26.8144C146.382 27.3855 147.527 27.6798 148.833 27.6798C150.199 27.6798 151.369 27.3826 152.372 26.8146C153.382 26.216 154.173 25.3916 154.754 24.3223ZM152.873 27.6798C151.7 28.3465 150.353 28.6798 148.833 28.6798C147.366 28.6798 146.046 28.3465 144.873 27.6798C143.7 26.9865 142.766 26.0265 142.073 24.7998C141.38 23.5465 141.033 22.1065 141.033 20.4798C141.033 18.8265 141.38 17.3865 142.073 16.1598C142.766 14.9332 143.7 13.9865 144.873 13.3198C146.046 12.6265 147.38 12.2798 148.873 12.2798C150.366 12.2798 151.7 12.6265 152.873 13.3198C154.046 13.9865 154.966 14.9332 155.633 16.1598C156.326 17.3865 156.673 18.8265 156.673 20.4798C156.673 22.1065 156.326 23.5465 155.633 24.7998C154.966 26.0265 154.046 26.9865 152.873 27.6798ZM167.151 31.9998V8.99982H171.871V11.0688C172.226 10.7567 172.614 10.4749 173.033 10.2243C174.613 9.25429 176.524 8.79983 178.711 8.79983H179.711V13.5598H178.268L178.149 13.53C178.119 13.5225 178.094 13.5198 178.071 13.5198C176.078 13.5198 174.634 14.1231 173.607 15.2375L173.6 15.2448C172.575 16.335 171.991 17.9623 171.991 20.2798V31.9998H167.151ZM173.551 11.0798C172.904 11.4656 172.344 11.9356 171.871 12.4898C171.477 12.9512 171.144 13.4709 170.871 14.0491V9.99982H168.151V30.9998H170.991V20.2798C170.991 17.7998 171.618 15.8932 172.871 14.5598C174.056 13.2744 175.669 12.5965 177.711 12.526C177.83 12.5219 177.95 12.5198 178.071 12.5198C178.178 12.5198 178.285 12.5332 178.391 12.5598H178.711V9.79983C178.369 9.79983 178.035 9.8117 177.711 9.83546C176.093 9.95409 174.706 10.3689 173.551 11.0798ZM188.965 30.7098L188.959 30.7063C187.229 29.7093 185.862 28.3261 184.868 26.5728L184.865 26.5667C183.865 24.7725 183.378 22.7342 183.378 20.4798C183.378 18.2016 183.863 16.1597 184.868 14.3868C185.862 12.6319 187.232 11.2595 188.967 10.2884C190.73 9.29014 192.702 8.79983 194.858 8.79983C196.852 8.79983 198.666 9.24911 200.272 10.1705C200.844 10.4929 201.372 10.8673 201.858 11.2922V0.319824H206.698V31.9998H201.978V29.6126C201.473 30.071 200.92 30.4754 200.321 30.8242L200.316 30.8271C198.706 31.7511 196.877 32.1998 194.858 32.1998C192.701 32.1998 190.728 31.7091 188.965 30.7098ZM201.978 28.1925C202.344 27.7807 202.677 27.3295 202.978 26.839V30.9998H205.698V1.31982H202.858V13.9933C202.556 13.5184 202.223 13.0829 201.858 12.687C201.251 12.0286 200.558 11.4795 199.778 11.0398C198.338 10.2132 196.698 9.79983 194.858 9.79983C192.858 9.79983 191.058 10.2532 189.458 11.1598C187.885 12.0398 186.645 13.2798 185.738 14.8798C184.831 16.4798 184.378 18.3465 184.378 20.4798C184.378 22.5865 184.831 24.4532 185.738 26.0798C186.645 27.6798 187.885 28.9332 189.458 29.8398C191.058 30.7465 192.858 31.1998 194.858 31.1998C196.725 31.1998 198.378 30.7865 199.818 29.9598C200.633 29.4859 201.353 28.8968 201.978 28.1925ZM201.984 24.5635C202.593 23.3664 202.898 22.0052 202.898 20.4798C202.898 20.4778 202.898 20.4758 202.898 20.4738C202.898 20.4545 202.898 20.4353 202.898 20.416C202.889 18.8463 202.566 17.4701 201.929 16.2875C201.913 16.2582 201.897 16.2289 201.881 16.1998C201.873 16.1865 201.866 16.1731 201.858 16.1598C201.191 14.9332 200.258 13.9865 199.058 13.3198C197.885 12.6265 196.551 12.2798 195.058 12.2798C193.591 12.2798 192.271 12.6265 191.098 13.3198C189.925 13.9865 188.991 14.9332 188.298 16.1598C187.605 17.3865 187.258 18.8265 187.258 20.4798C187.258 22.1065 187.605 23.5465 188.298 24.7998C188.991 26.0265 189.925 26.9865 191.098 27.6798C192.271 28.3465 193.591 28.6798 195.058 28.6798C196.551 28.6798 197.885 28.3465 199.058 27.6798C200.258 26.9865 201.191 26.0265 201.858 24.7998C201.901 24.7218 201.943 24.643 201.984 24.5635ZM200.979 24.3223L200.983 24.3158C201.584 23.2297 201.898 21.9605 201.898 20.4798C201.898 18.9689 201.582 17.7043 200.987 16.6519L200.983 16.6446L200.979 16.6373C200.402 15.5745 199.603 14.7668 198.572 14.194L198.561 14.1875L198.549 14.1808C197.545 13.587 196.39 13.2798 195.058 13.2798C193.756 13.2798 192.614 13.5854 191.607 14.1808L191.599 14.1851L191.592 14.1893C190.583 14.7625 189.777 15.5755 189.169 16.6519C188.574 17.7043 188.258 18.9689 188.258 20.4798C188.258 21.9586 188.572 23.2266 189.171 24.3118C189.779 25.3867 190.587 26.2144 191.599 26.8144C192.607 27.3855 193.752 27.6798 195.058 27.6798C196.396 27.6798 197.555 27.3831 198.562 26.8117C199.599 26.2114 200.401 25.3871 200.979 24.3223Z" fill="black"/>
</svg>
