<svg width="185" height="31" viewBox="0 0 185 31" fill="none" xmlns="http://www.w3.org/2000/svg">
<path d="M0.711914 29.9998V1.99982H11.1919C13.5652 1.99982 15.6052 2.38649 17.3119 3.15983C19.0186 3.90649 20.3252 4.99983 21.2319 6.43983C22.1652 7.85316 22.6319 9.57316 22.6319 11.5998C22.6319 13.5732 22.1652 15.2798 21.2319 16.7198C20.3252 18.1332 19.0186 19.2265 17.3119 19.9998C15.6052 20.7732 13.5652 21.1598 11.1919 21.1598H2.35191L3.67191 19.7598V29.9998H0.711914ZM3.67191 19.9998L2.35191 18.5598H11.1119C13.9119 18.5598 16.0319 17.9598 17.4719 16.7598C18.9386 15.5332 19.6719 13.8132 19.6719 11.5998C19.6719 9.35983 18.9386 7.62649 17.4719 6.39983C16.0319 5.17316 13.9119 4.55982 11.1119 4.55982H2.35191L3.67191 3.15983V19.9998Z" fill="#C92020" fill-opacity="0.5"/>
<path d="M41.3969 29.9998V25.3598L41.2769 24.5998V16.8398C41.2769 15.0532 40.7702 13.6798 39.7569 12.7198C38.7702 11.7598 37.2902 11.2798 35.3169 11.2798C33.9569 11.2798 32.6636 11.5065 31.4369 11.9598C30.2102 12.4132 29.1702 13.0132 28.3169 13.7598L27.0369 11.6398C28.1036 10.7332 29.3836 10.0398 30.8769 9.55982C32.3702 9.05316 33.9436 8.79983 35.5969 8.79983C38.3169 8.79983 40.4102 9.47983 41.8769 10.8398C43.3702 12.1732 44.1169 14.2132 44.1169 16.9598V29.9998H41.3969ZM34.1569 30.1998C32.5836 30.1998 31.2102 29.9465 30.0369 29.4398C28.8902 28.9065 28.0102 28.1865 27.3969 27.2798C26.7836 26.3465 26.4769 25.2798 26.4769 24.0798C26.4769 22.9865 26.7302 21.9998 27.2369 21.1198C27.7702 20.2132 28.6236 19.4932 29.7969 18.9598C30.9969 18.3998 32.5969 18.1198 34.5969 18.1198H41.8369V20.2398H34.6769C32.6502 20.2398 31.2369 20.5998 30.4369 21.3198C29.6636 22.0398 29.2769 22.9332 29.2769 23.9998C29.2769 25.1998 29.7436 26.1598 30.6769 26.8798C31.6102 27.5998 32.9169 27.9598 34.5969 27.9598C36.1969 27.9598 37.5702 27.5998 38.7169 26.8798C39.8902 26.1332 40.7436 25.0665 41.2769 23.6798L41.9169 25.6398C41.3836 27.0265 40.4502 28.1332 39.1169 28.9598C37.8102 29.7865 36.1569 30.1998 34.1569 30.1998Z" fill="#C92020" fill-opacity="0.5"/>
<path d="M57.4707 30.1998C55.7373 30.1998 54.0973 29.9598 52.5507 29.4798C51.004 28.9732 49.7907 28.3465 48.9107 27.5998L50.1907 25.3598C51.044 25.9998 52.1373 26.5598 53.4707 27.0398C54.804 27.4932 56.204 27.7198 57.6707 27.7198C59.6707 27.7198 61.1107 27.4132 61.9907 26.7998C62.8707 26.1598 63.3107 25.3198 63.3107 24.2798C63.3107 23.5065 63.0573 22.9065 62.5507 22.4798C62.0707 22.0265 61.4307 21.6932 60.6307 21.4798C59.8307 21.2398 58.9373 21.0398 57.9507 20.8798C56.964 20.7198 55.9773 20.5332 54.9907 20.3198C54.0307 20.1065 53.1507 19.7998 52.3507 19.3998C51.5507 18.9732 50.8973 18.3998 50.3907 17.6798C49.9107 16.9598 49.6707 15.9998 49.6707 14.7998C49.6707 13.6532 49.9907 12.6265 50.6307 11.7198C51.2707 10.8132 52.204 10.1065 53.4307 9.59982C54.684 9.06649 56.204 8.79983 57.9907 8.79983C59.3507 8.79983 60.7107 8.98649 62.0707 9.35983C63.4307 9.70649 64.5507 10.1732 65.4307 10.7598L64.1907 13.0398C63.2573 12.3998 62.2573 11.9465 61.1907 11.6798C60.124 11.3865 59.0573 11.2398 57.9907 11.2398C56.0973 11.2398 54.6973 11.5732 53.7907 12.2398C52.9107 12.8798 52.4707 13.7065 52.4707 14.7198C52.4707 15.5198 52.7107 16.1465 53.1907 16.5998C53.6973 17.0532 54.3507 17.4132 55.1507 17.6798C55.9773 17.9198 56.8707 18.1198 57.8307 18.2798C58.8173 18.4398 59.7907 18.6398 60.7507 18.8798C61.7373 19.0932 62.6307 19.3998 63.4307 19.7998C64.2573 20.1732 64.9107 20.7198 65.3907 21.4398C65.8973 22.1332 66.1507 23.0532 66.1507 24.1998C66.1507 25.4265 65.804 26.4932 65.1107 27.3998C64.444 28.2798 63.4573 28.9732 62.1507 29.4798C60.8707 29.9598 59.3107 30.1998 57.4707 30.1998Z" fill="#C92020" fill-opacity="0.5"/>
<path d="M77.0019 30.1998C75.2686 30.1998 73.6286 29.9598 72.0819 29.4798C70.5352 28.9732 69.3219 28.3465 68.4419 27.5998L69.7219 25.3598C70.5752 25.9998 71.6686 26.5598 73.0019 27.0398C74.3353 27.4932 75.7353 27.7198 77.2019 27.7198C79.2019 27.7198 80.6419 27.4132 81.5219 26.7998C82.4019 26.1598 82.8419 25.3198 82.8419 24.2798C82.8419 23.5065 82.5886 22.9065 82.0819 22.4798C81.6019 22.0265 80.9619 21.6932 80.1619 21.4798C79.3619 21.2398 78.4686 21.0398 77.4819 20.8798C76.4953 20.7198 75.5086 20.5332 74.5219 20.3198C73.5619 20.1065 72.6819 19.7998 71.8819 19.3998C71.0819 18.9732 70.4286 18.3998 69.9219 17.6798C69.4419 16.9598 69.2019 15.9998 69.2019 14.7998C69.2019 13.6532 69.5219 12.6265 70.1619 11.7198C70.8019 10.8132 71.7352 10.1065 72.9619 9.59982C74.2152 9.06649 75.7353 8.79983 77.5219 8.79983C78.8819 8.79983 80.2419 8.98649 81.6019 9.35983C82.9619 9.70649 84.0819 10.1732 84.9619 10.7598L83.7219 13.0398C82.7886 12.3998 81.7886 11.9465 80.7219 11.6798C79.6553 11.3865 78.5886 11.2398 77.5219 11.2398C75.6286 11.2398 74.2286 11.5732 73.3219 12.2398C72.4419 12.8798 72.0019 13.7065 72.0019 14.7198C72.0019 15.5198 72.2419 16.1465 72.7219 16.5998C73.2286 17.0532 73.8819 17.4132 74.6819 17.6798C75.5086 17.9198 76.4019 18.1198 77.3619 18.2798C78.3486 18.4398 79.3219 18.6398 80.2819 18.8798C81.2686 19.0932 82.1619 19.3998 82.9619 19.7998C83.7886 20.1732 84.4419 20.7198 84.9219 21.4398C85.4286 22.1332 85.6819 23.0532 85.6819 24.1998C85.6819 25.4265 85.3353 26.4932 84.6419 27.3998C83.9753 28.2798 82.9886 28.9732 81.6819 29.4798C80.4019 29.9598 78.8419 30.1998 77.0019 30.1998Z" fill="#C92020" fill-opacity="0.5"/>
<path d="M94.7825 29.9998L86.8625 8.99982H89.5825L96.7825 28.4798H95.5425L102.943 8.99982H105.383L112.703 28.4798H111.463L118.783 8.99982H121.383L113.423 29.9998H110.743L103.703 11.6798H104.543L97.4625 29.9998H94.7825Z" fill="#C92020" fill-opacity="0.5"/>
<path d="M133.633 30.1998C131.606 30.1998 129.78 29.7465 128.153 28.8398C126.553 27.9065 125.286 26.6398 124.353 25.0398C123.42 23.4132 122.953 21.5598 122.953 19.4798C122.953 17.3732 123.42 15.5198 124.353 13.9198C125.286 12.3198 126.553 11.0665 128.153 10.1598C129.753 9.25316 131.58 8.79983 133.633 8.79983C135.713 8.79983 137.553 9.25316 139.153 10.1598C140.78 11.0665 142.046 12.3198 142.953 13.9198C143.886 15.5198 144.353 17.3732 144.353 19.4798C144.353 21.5598 143.886 23.4132 142.953 25.0398C142.046 26.6398 140.78 27.9065 139.153 28.8398C137.526 29.7465 135.686 30.1998 133.633 30.1998ZM133.633 27.6798C135.153 27.6798 136.5 27.3465 137.673 26.6798C138.846 25.9865 139.766 25.0265 140.433 23.7998C141.126 22.5465 141.473 21.1065 141.473 19.4798C141.473 17.8265 141.126 16.3865 140.433 15.1598C139.766 13.9332 138.846 12.9865 137.673 12.3198C136.5 11.6265 135.166 11.2798 133.673 11.2798C132.18 11.2798 130.846 11.6265 129.673 12.3198C128.5 12.9865 127.566 13.9332 126.873 15.1598C126.18 16.3865 125.833 17.8265 125.833 19.4798C125.833 21.1065 126.18 22.5465 126.873 23.7998C127.566 25.0265 128.5 25.9865 129.673 26.6798C130.846 27.3465 132.166 27.6798 133.633 27.6798Z" fill="#C92020" fill-opacity="0.5"/>
<path d="M150.151 29.9998V8.99982H152.871V14.7198L152.591 13.7198C153.178 12.1198 154.164 10.9065 155.551 10.0798C156.938 9.22649 158.658 8.79983 160.711 8.79983V11.5598C160.604 11.5598 160.498 11.5598 160.391 11.5598C160.284 11.5332 160.178 11.5198 160.071 11.5198C157.858 11.5198 156.124 12.1998 154.871 13.5598C153.618 14.8932 152.991 16.7998 152.991 19.2798V29.9998H150.151Z" fill="#C92020" fill-opacity="0.5"/>
<path d="M174.058 30.1998C172.058 30.1998 170.258 29.7465 168.658 28.8398C167.085 27.9332 165.845 26.6798 164.938 25.0798C164.031 23.4532 163.578 21.5865 163.578 19.4798C163.578 17.3465 164.031 15.4798 164.938 13.8798C165.845 12.2798 167.085 11.0398 168.658 10.1598C170.258 9.25316 172.058 8.79983 174.058 8.79983C175.898 8.79983 177.538 9.21316 178.978 10.0398C180.445 10.8665 181.605 12.0798 182.458 13.6798C183.338 15.2532 183.778 17.1865 183.778 19.4798C183.778 21.7465 183.351 23.6798 182.498 25.2798C181.645 26.8798 180.485 28.1065 179.018 28.9598C177.578 29.7865 175.925 30.1998 174.058 30.1998ZM174.258 27.6798C175.751 27.6798 177.085 27.3465 178.258 26.6798C179.458 25.9865 180.391 25.0265 181.058 23.7998C181.751 22.5465 182.098 21.1065 182.098 19.4798C182.098 17.8265 181.751 16.3865 181.058 15.1598C180.391 13.9332 179.458 12.9865 178.258 12.3198C177.085 11.6265 175.751 11.2798 174.258 11.2798C172.791 11.2798 171.471 11.6265 170.298 12.3198C169.125 12.9865 168.191 13.9332 167.498 15.1598C166.805 16.3865 166.458 17.8265 166.458 19.4798C166.458 21.1065 166.805 22.5465 167.498 23.7998C168.191 25.0265 169.125 25.9865 170.298 26.6798C171.471 27.3465 172.791 27.6798 174.258 27.6798ZM182.178 29.9998V23.6798L182.458 19.4398L182.058 15.1998V0.319824H184.898V29.9998H182.178Z" fill="#C92020" fill-opacity="0.5"/>
</svg>
