<svg width="205" height="31" viewBox="0 0 205 31" fill="none" xmlns="http://www.w3.org/2000/svg">
<path d="M0.912109 29.9998V1.99982H11.3921C13.7654 1.99982 15.8054 2.38649 17.5121 3.15983C19.2188 3.90649 20.5254 4.99983 21.4321 6.43983C22.3654 7.85316 22.8321 9.57316 22.8321 11.5998C22.8321 13.5732 22.3654 15.2798 21.4321 16.7198C20.5254 18.1332 19.2188 19.2265 17.5121 19.9998C15.8054 20.7732 13.7654 21.1598 11.3921 21.1598H2.55211L3.87211 19.7598V29.9998H0.912109ZM3.87211 19.9998L2.55211 18.5598H11.3121C14.1121 18.5598 16.2321 17.9598 17.6721 16.7598C19.1388 15.5332 19.8721 13.8132 19.8721 11.5998C19.8721 9.35983 19.1388 7.62649 17.6721 6.39983C16.2321 5.17316 14.1121 4.55982 11.3121 4.55982H2.55211L3.87211 3.15983V19.9998Z" fill="black"/>
<path d="M44.3971 29.9998V25.3598L44.2771 24.5998V16.8398C44.2771 15.0532 43.7704 13.6798 42.7571 12.7198C41.7704 11.7598 40.2904 11.2798 38.3171 11.2798C36.9571 11.2798 35.6638 11.5065 34.4371 11.9598C33.2104 12.4132 32.1704 13.0132 31.3171 13.7598L30.0371 11.6398C31.1038 10.7332 32.3838 10.0398 33.8771 9.55982C35.3704 9.05316 36.9438 8.79983 38.5971 8.79983C41.3171 8.79983 43.4104 9.47983 44.8771 10.8398C46.3704 12.1732 47.1171 14.2132 47.1171 16.9598V29.9998H44.3971ZM37.1571 30.1998C35.5838 30.1998 34.2104 29.9465 33.0371 29.4398C31.8904 28.9065 31.0104 28.1865 30.3971 27.2798C29.7838 26.3465 29.4771 25.2798 29.4771 24.0798C29.4771 22.9865 29.7304 21.9998 30.2371 21.1198C30.7704 20.2132 31.6238 19.4932 32.7971 18.9598C33.9971 18.3998 35.5971 18.1198 37.5971 18.1198H44.8371V20.2398H37.6771C35.6504 20.2398 34.2371 20.5998 33.4371 21.3198C32.6638 22.0398 32.2771 22.9332 32.2771 23.9998C32.2771 25.1998 32.7438 26.1598 33.6771 26.8798C34.6104 27.5998 35.9171 27.9598 37.5971 27.9598C39.1971 27.9598 40.5704 27.5998 41.7171 26.8798C42.8904 26.1332 43.7438 25.0665 44.2771 23.6798L44.9171 25.6398C44.3838 27.0265 43.4504 28.1332 42.1171 28.9598C40.8104 29.7865 39.1571 30.1998 37.1571 30.1998Z" fill="black"/>
<path d="M63.2709 30.1998C61.5375 30.1998 59.8975 29.9598 58.3509 29.4798C56.8042 28.9732 55.5909 28.3465 54.7109 27.5998L55.9909 25.3598C56.8442 25.9998 57.9375 26.5598 59.2709 27.0398C60.6042 27.4932 62.0042 27.7198 63.4709 27.7198C65.4709 27.7198 66.9109 27.4132 67.7909 26.7998C68.6709 26.1598 69.1109 25.3198 69.1109 24.2798C69.1109 23.5065 68.8575 22.9065 68.3509 22.4798C67.8709 22.0265 67.2309 21.6932 66.4309 21.4798C65.6309 21.2398 64.7375 21.0398 63.7509 20.8798C62.7642 20.7198 61.7775 20.5332 60.7909 20.3198C59.8309 20.1065 58.9509 19.7998 58.1509 19.3998C57.3509 18.9732 56.6975 18.3998 56.1909 17.6798C55.7109 16.9598 55.4709 15.9998 55.4709 14.7998C55.4709 13.6532 55.7909 12.6265 56.4309 11.7198C57.0709 10.8132 58.0042 10.1065 59.2309 9.59982C60.4842 9.06649 62.0042 8.79983 63.7909 8.79983C65.1509 8.79983 66.5109 8.98649 67.8709 9.35983C69.2309 9.70649 70.3509 10.1732 71.2309 10.7598L69.9909 13.0398C69.0575 12.3998 68.0575 11.9465 66.9909 11.6798C65.9242 11.3865 64.8575 11.2398 63.7909 11.2398C61.8975 11.2398 60.4975 11.5732 59.5909 12.2398C58.7109 12.8798 58.2709 13.7065 58.2709 14.7198C58.2709 15.5198 58.5109 16.1465 58.9909 16.5998C59.4975 17.0532 60.1509 17.4132 60.9509 17.6798C61.7775 17.9198 62.6709 18.1198 63.6309 18.2798C64.6175 18.4398 65.5909 18.6398 66.5509 18.8798C67.5375 19.0932 68.4308 19.3998 69.2309 19.7998C70.0575 20.1732 70.7109 20.7198 71.1909 21.4398C71.6975 22.1332 71.9509 23.0532 71.9509 24.1998C71.9509 25.4265 71.6042 26.4932 70.9109 27.3998C70.2442 28.2798 69.2575 28.9732 67.9509 29.4798C66.6709 29.9598 65.1109 30.1998 63.2709 30.1998Z" fill="black"/>
<path d="M85.6021 30.1998C83.8688 30.1998 82.2288 29.9598 80.6821 29.4798C79.1354 28.9732 77.9221 28.3465 77.0421 27.5998L78.3221 25.3598C79.1754 25.9998 80.2688 26.5598 81.6021 27.0398C82.9354 27.4932 84.3354 27.7198 85.8021 27.7198C87.8021 27.7198 89.2421 27.4132 90.1221 26.7998C91.0021 26.1598 91.4421 25.3198 91.4421 24.2798C91.4421 23.5065 91.1888 22.9065 90.6821 22.4798C90.2021 22.0265 89.5621 21.6932 88.7621 21.4798C87.9621 21.2398 87.0688 21.0398 86.0821 20.8798C85.0954 20.7198 84.1088 20.5332 83.1221 20.3198C82.1621 20.1065 81.2821 19.7998 80.4821 19.3998C79.6821 18.9732 79.0288 18.3998 78.5221 17.6798C78.0421 16.9598 77.8021 15.9998 77.8021 14.7998C77.8021 13.6532 78.1221 12.6265 78.7621 11.7198C79.4021 10.8132 80.3354 10.1065 81.5621 9.59982C82.8154 9.06649 84.3354 8.79983 86.1221 8.79983C87.4821 8.79983 88.8421 8.98649 90.2021 9.35983C91.5621 9.70649 92.6821 10.1732 93.5621 10.7598L92.3221 13.0398C91.3888 12.3998 90.3888 11.9465 89.3221 11.6798C88.2554 11.3865 87.1888 11.2398 86.1221 11.2398C84.2288 11.2398 82.8288 11.5732 81.9221 12.2398C81.0421 12.8798 80.6021 13.7065 80.6021 14.7198C80.6021 15.5198 80.8421 16.1465 81.3221 16.5998C81.8288 17.0532 82.4821 17.4132 83.2821 17.6798C84.1088 17.9198 85.0021 18.1198 85.9621 18.2798C86.9488 18.4398 87.9221 18.6398 88.8821 18.8798C89.8688 19.0932 90.7621 19.3998 91.5621 19.7998C92.3888 20.1732 93.0421 20.7198 93.5221 21.4398C94.0288 22.1332 94.2821 23.0532 94.2821 24.1998C94.2821 25.4265 93.9354 26.4932 93.2421 27.3998C92.5754 28.2798 91.5888 28.9732 90.2821 29.4798C89.0021 29.9598 87.4421 30.1998 85.6021 30.1998Z" fill="black"/>
<path d="M106.183 29.9998L98.2627 8.99982H100.983L108.183 28.4798H106.943L114.343 8.99982H116.783L124.103 28.4798H122.863L130.183 8.99982H132.783L124.823 29.9998H122.143L115.103 11.6798H115.943L108.863 29.9998H106.183Z" fill="black"/>
<path d="M147.833 30.1998C145.806 30.1998 143.98 29.7465 142.353 28.8398C140.753 27.9065 139.486 26.6398 138.553 25.0398C137.62 23.4132 137.153 21.5598 137.153 19.4798C137.153 17.3732 137.62 15.5198 138.553 13.9198C139.486 12.3198 140.753 11.0665 142.353 10.1598C143.953 9.25316 145.78 8.79983 147.833 8.79983C149.913 8.79983 151.753 9.25316 153.353 10.1598C154.98 11.0665 156.246 12.3198 157.153 13.9198C158.086 15.5198 158.553 17.3732 158.553 19.4798C158.553 21.5598 158.086 23.4132 157.153 25.0398C156.246 26.6398 154.98 27.9065 153.353 28.8398C151.726 29.7465 149.886 30.1998 147.833 30.1998ZM147.833 27.6798C149.353 27.6798 150.7 27.3465 151.873 26.6798C153.046 25.9865 153.966 25.0265 154.633 23.7998C155.326 22.5465 155.673 21.1065 155.673 19.4798C155.673 17.8265 155.326 16.3865 154.633 15.1598C153.966 13.9332 153.046 12.9865 151.873 12.3198C150.7 11.6265 149.366 11.2798 147.873 11.2798C146.38 11.2798 145.046 11.6265 143.873 12.3198C142.7 12.9865 141.766 13.9332 141.073 15.1598C140.38 16.3865 140.033 17.8265 140.033 19.4798C140.033 21.1065 140.38 22.5465 141.073 23.7998C141.766 25.0265 142.7 25.9865 143.873 26.6798C145.046 27.3465 146.366 27.6798 147.833 27.6798Z" fill="black"/>
<path d="M167.151 29.9998V8.99982H169.871V14.7198L169.591 13.7198C170.178 12.1198 171.165 10.9065 172.551 10.0798C173.938 9.22649 175.658 8.79983 177.711 8.79983V11.5598C177.605 11.5598 177.498 11.5598 177.391 11.5598C177.285 11.5332 177.178 11.5198 177.071 11.5198C174.858 11.5198 173.124 12.1998 171.871 13.5598C170.618 14.8932 169.991 16.7998 169.991 19.2798V29.9998H167.151Z" fill="black"/>
<path d="M193.858 30.1998C191.858 30.1998 190.058 29.7465 188.458 28.8398C186.885 27.9332 185.645 26.6798 184.738 25.0798C183.831 23.4532 183.378 21.5865 183.378 19.4798C183.378 17.3465 183.831 15.4798 184.738 13.8798C185.645 12.2798 186.885 11.0398 188.458 10.1598C190.058 9.25316 191.858 8.79983 193.858 8.79983C195.698 8.79983 197.338 9.21316 198.778 10.0398C200.245 10.8665 201.405 12.0798 202.258 13.6798C203.138 15.2532 203.578 17.1865 203.578 19.4798C203.578 21.7465 203.151 23.6798 202.298 25.2798C201.445 26.8798 200.285 28.1065 198.818 28.9598C197.378 29.7865 195.725 30.1998 193.858 30.1998ZM194.058 27.6798C195.551 27.6798 196.885 27.3465 198.058 26.6798C199.258 25.9865 200.191 25.0265 200.858 23.7998C201.551 22.5465 201.898 21.1065 201.898 19.4798C201.898 17.8265 201.551 16.3865 200.858 15.1598C200.191 13.9332 199.258 12.9865 198.058 12.3198C196.885 11.6265 195.551 11.2798 194.058 11.2798C192.591 11.2798 191.271 11.6265 190.098 12.3198C188.925 12.9865 187.991 13.9332 187.298 15.1598C186.605 16.3865 186.258 17.8265 186.258 19.4798C186.258 21.1065 186.605 22.5465 187.298 23.7998C187.991 25.0265 188.925 25.9865 190.098 26.6798C191.271 27.3465 192.591 27.6798 194.058 27.6798ZM201.978 29.9998V23.6798L202.258 19.4398L201.858 15.1998V0.319824H204.698V29.9998H201.978Z" fill="black"/>
</svg>
