<svg width="41" height="14" viewBox="0 0 41 14" fill="none" xmlns="http://www.w3.org/2000/svg">
<path d="M0.494141 12.9999V0.399902H5.94814C7.07614 0.399902 8.04814 0.585902 8.86414 0.957902C9.68014 1.3179 10.3101 1.8399 10.7541 2.5239C11.1981 3.2079 11.4201 4.0239 11.4201 4.9719C11.4201 5.9079 11.1981 6.7179 10.7541 7.4019C10.3101 8.0859 9.68014 8.6139 8.86414 8.9859C8.04814 9.3459 7.07614 9.5259 5.94814 9.5259H2.11414L3.41014 8.2119V12.9999H0.494141ZM3.41014 8.5359L2.11414 7.1499H5.78614C6.68614 7.1499 7.35814 6.9579 7.80214 6.5739C8.24614 6.1899 8.46814 5.6559 8.46814 4.9719C8.46814 4.2759 8.24614 3.7359 7.80214 3.3519C7.35814 2.9679 6.68614 2.7759 5.78614 2.7759H2.11414L3.41014 1.3899V8.5359Z" fill="#C92020"/>
<path d="M19.1561 12.9999V11.1099L18.9761 10.6959V7.3119C18.9761 6.7119 18.7901 6.2439 18.4181 5.9079C18.0581 5.5719 17.5001 5.4039 16.7441 5.4039C16.2281 5.4039 15.7181 5.4879 15.2141 5.6559C14.7221 5.8119 14.3021 6.0279 13.9541 6.3039L12.9461 4.3419C13.4741 3.9699 14.1101 3.6819 14.8541 3.4779C15.5981 3.2739 16.3541 3.1719 17.1221 3.1719C18.5981 3.1719 19.7441 3.5199 20.5601 4.2159C21.3761 4.9119 21.7841 5.9979 21.7841 7.4739V12.9999H19.1561ZM16.2041 13.1439C15.4481 13.1439 14.8001 13.0179 14.2601 12.7659C13.7201 12.5019 13.3061 12.1479 13.0181 11.7039C12.7301 11.2599 12.5861 10.7619 12.5861 10.2099C12.5861 9.6339 12.7241 9.1299 13.0001 8.6979C13.2881 8.2659 13.7381 7.9299 14.3501 7.6899C14.9621 7.4379 15.7601 7.3119 16.7441 7.3119H19.3181V8.9499H17.0501C16.3901 8.9499 15.9341 9.0579 15.6821 9.2739C15.4421 9.4899 15.3221 9.7599 15.3221 10.0839C15.3221 10.4439 15.4601 10.7319 15.7361 10.9479C16.0241 11.1519 16.4141 11.2539 16.9061 11.2539C17.3741 11.2539 17.7941 11.1459 18.1661 10.9299C18.5381 10.7019 18.8081 10.3719 18.9761 9.9399L19.4081 11.2359C19.2041 11.8599 18.8321 12.3339 18.2921 12.6579C17.7521 12.9819 17.0561 13.1439 16.2041 13.1439Z" fill="#C92020"/>
<path d="M27.5834 13.1439C26.7554 13.1439 25.9574 13.0479 25.1894 12.8559C24.4334 12.6519 23.8334 12.3999 23.3894 12.0999L24.3254 10.0839C24.7694 10.3599 25.2914 10.5879 25.8914 10.7679C26.5034 10.9359 27.1034 11.0199 27.6914 11.0199C28.3394 11.0199 28.7954 10.9419 29.0594 10.7859C29.3354 10.6299 29.4734 10.4139 29.4734 10.1379C29.4734 9.9099 29.3654 9.7419 29.1494 9.6339C28.9454 9.5139 28.6694 9.4239 28.3214 9.3639C27.9734 9.3039 27.5894 9.2439 27.1694 9.1839C26.7614 9.1239 26.3474 9.0459 25.9274 8.9499C25.5074 8.8419 25.1234 8.6859 24.7754 8.4819C24.4274 8.2779 24.1454 8.0019 23.9294 7.6539C23.7254 7.3059 23.6234 6.8559 23.6234 6.3039C23.6234 5.6919 23.7974 5.1519 24.1454 4.6839C24.5054 4.2159 25.0214 3.8499 25.6934 3.5859C26.3654 3.3099 27.1694 3.1719 28.1054 3.1719C28.7654 3.1719 29.4374 3.2439 30.1214 3.3879C30.8054 3.5319 31.3754 3.7419 31.8314 4.0179L30.8954 6.0159C30.4274 5.7399 29.9534 5.5539 29.4734 5.4579C29.0054 5.3499 28.5494 5.2959 28.1054 5.2959C27.4814 5.2959 27.0254 5.3799 26.7374 5.5479C26.4494 5.7159 26.3054 5.9319 26.3054 6.1959C26.3054 6.4359 26.4074 6.6159 26.6114 6.7359C26.8274 6.8559 27.1094 6.9519 27.4574 7.0239C27.8054 7.0959 28.1834 7.1619 28.5914 7.2219C29.0114 7.2699 29.4314 7.3479 29.8514 7.4559C30.2714 7.5639 30.6494 7.7199 30.9854 7.9239C31.3334 8.1159 31.6154 8.3859 31.8314 8.7339C32.0474 9.0699 32.1554 9.5139 32.1554 10.0659C32.1554 10.6659 31.9754 11.1999 31.6154 11.6679C31.2554 12.1239 30.7334 12.4839 30.0494 12.7479C29.3774 13.0119 28.5554 13.1439 27.5834 13.1439Z" fill="#C92020"/>
<path d="M37.8479 13.1439C36.7079 13.1439 35.8199 12.8559 35.1839 12.2799C34.5479 11.6919 34.2299 10.8219 34.2299 9.6699V1.1739H37.0379V9.6339C37.0379 10.0419 37.1459 10.3599 37.3619 10.5879C37.5779 10.8039 37.8719 10.9119 38.2439 10.9119C38.6879 10.9119 39.0659 10.7919 39.3779 10.5519L40.1339 12.5319C39.8459 12.7359 39.4979 12.8919 39.0899 12.9999C38.6939 13.0959 38.2799 13.1439 37.8479 13.1439ZM32.7359 5.6919V3.5319H39.4499V5.6919H32.7359Z" fill="#C92020"/>
</svg>
