<svg width="200" height="14" viewBox="0 0 200 14" fill="none" xmlns="http://www.w3.org/2000/svg">
<path d="M2.324 10.9998V1.75982L2.926 2.41782H0.112V1.19982H3.71V10.9998H2.324Z" fill="#483332"/>
<path d="M9.85764 11.1118C9.09231 11.1118 8.40631 10.9158 7.79964 10.5238C7.20231 10.1318 6.72631 9.56248 6.37164 8.81582C6.02631 8.06915 5.85364 7.16382 5.85364 6.09982C5.85364 5.03582 6.02631 4.13048 6.37164 3.38382C6.72631 2.63715 7.20231 2.06782 7.79964 1.67582C8.40631 1.28382 9.09231 1.08782 9.85764 1.08782C10.6136 1.08782 11.295 1.28382 11.9016 1.67582C12.5083 2.06782 12.9843 2.63715 13.3296 3.38382C13.675 4.13048 13.8476 5.03582 13.8476 6.09982C13.8476 7.16382 13.675 8.06915 13.3296 8.81582C12.9843 9.56248 12.5083 10.1318 11.9016 10.5238C11.295 10.9158 10.6136 11.1118 9.85764 11.1118ZM9.85764 9.86582C10.371 9.86582 10.819 9.72582 11.2016 9.44582C11.5936 9.16582 11.897 8.74582 12.1116 8.18582C12.3356 7.62582 12.4476 6.93048 12.4476 6.09982C12.4476 5.26915 12.3356 4.57382 12.1116 4.01382C11.897 3.45382 11.5936 3.03382 11.2016 2.75382C10.819 2.47382 10.371 2.33382 9.85764 2.33382C9.34431 2.33382 8.89164 2.47382 8.49964 2.75382C8.10764 3.03382 7.79964 3.45382 7.57564 4.01382C7.36097 4.57382 7.25364 5.26915 7.25364 6.09982C7.25364 6.93048 7.36097 7.62582 7.57564 8.18582C7.79964 8.74582 8.10764 9.16582 8.49964 9.44582C8.89164 9.72582 9.34431 9.86582 9.85764 9.86582Z" fill="#483332"/>
<path d="M19.1955 11.1118C18.4302 11.1118 17.7442 10.9158 17.1375 10.5238C16.5402 10.1318 16.0642 9.56248 15.7095 8.81582C15.3642 8.06915 15.1915 7.16382 15.1915 6.09982C15.1915 5.03582 15.3642 4.13048 15.7095 3.38382C16.0642 2.63715 16.5402 2.06782 17.1375 1.67582C17.7442 1.28382 18.4302 1.08782 19.1955 1.08782C19.9515 1.08782 20.6329 1.28382 21.2395 1.67582C21.8462 2.06782 22.3222 2.63715 22.6675 3.38382C23.0129 4.13048 23.1855 5.03582 23.1855 6.09982C23.1855 7.16382 23.0129 8.06915 22.6675 8.81582C22.3222 9.56248 21.8462 10.1318 21.2395 10.5238C20.6329 10.9158 19.9515 11.1118 19.1955 11.1118ZM19.1955 9.86582C19.7089 9.86582 20.1569 9.72582 20.5395 9.44582C20.9315 9.16582 21.2349 8.74582 21.4495 8.18582C21.6735 7.62582 21.7855 6.93048 21.7855 6.09982C21.7855 5.26915 21.6735 4.57382 21.4495 4.01382C21.2349 3.45382 20.9315 3.03382 20.5395 2.75382C20.1569 2.47382 19.7089 2.33382 19.1955 2.33382C18.6822 2.33382 18.2295 2.47382 17.8375 2.75382C17.4455 3.03382 17.1375 3.45382 16.9135 4.01382C16.6989 4.57382 16.5915 5.26915 16.5915 6.09982C16.5915 6.93048 16.6989 7.62582 16.9135 8.18582C17.1375 8.74582 17.4455 9.16582 17.8375 9.44582C18.2295 9.72582 18.6822 9.86582 19.1955 9.86582Z" fill="#483332"/>
<path d="M30.3472 5.83382H35.4012V7.03782H30.3472V5.83382ZM30.4872 10.9998H29.0872V1.19982H36.0032V2.41782H30.4872V10.9998Z" fill="#483332"/>
<path d="M40.7235 11.0838C39.9768 11.0838 39.3142 10.9205 38.7355 10.5938C38.1568 10.2671 37.6995 9.81915 37.3635 9.24982C37.0275 8.67115 36.8595 8.01782 36.8595 7.28982C36.8595 6.55248 37.0275 5.89915 37.3635 5.32982C37.6995 4.76048 38.1568 4.31715 38.7355 3.99982C39.3142 3.67315 39.9768 3.50982 40.7235 3.50982C41.4608 3.50982 42.1188 3.67315 42.6975 3.99982C43.2855 4.31715 43.7428 4.76048 44.0695 5.32982C44.4055 5.88982 44.5735 6.54315 44.5735 7.28982C44.5735 8.02715 44.4055 8.68048 44.0695 9.24982C43.7428 9.81915 43.2855 10.2671 42.6975 10.5938C42.1188 10.9205 41.4608 11.0838 40.7235 11.0838ZM40.7235 9.90782C41.1995 9.90782 41.6242 9.80048 41.9975 9.58582C42.3802 9.37115 42.6788 9.06782 42.8935 8.67582C43.1082 8.27448 43.2155 7.81248 43.2155 7.28982C43.2155 6.75782 43.1082 6.30048 42.8935 5.91782C42.6788 5.52582 42.3802 5.22248 41.9975 5.00782C41.6242 4.79315 41.1995 4.68582 40.7235 4.68582C40.2475 4.68582 39.8228 4.79315 39.4495 5.00782C39.0762 5.22248 38.7775 5.52582 38.5535 5.91782C38.3295 6.30048 38.2175 6.75782 38.2175 7.28982C38.2175 7.81248 38.3295 8.27448 38.5535 8.67582C38.7775 9.06782 39.0762 9.37115 39.4495 9.58582C39.8228 9.80048 40.2475 9.90782 40.7235 9.90782Z" fill="#483332"/>
<path d="M49.6102 11.0838C48.8635 11.0838 48.2009 10.9205 47.6222 10.5938C47.0435 10.2671 46.5862 9.81915 46.2502 9.24982C45.9142 8.67115 45.7462 8.01782 45.7462 7.28982C45.7462 6.55248 45.9142 5.89915 46.2502 5.32982C46.5862 4.76048 47.0435 4.31715 47.6222 3.99982C48.2009 3.67315 48.8635 3.50982 49.6102 3.50982C50.3475 3.50982 51.0055 3.67315 51.5842 3.99982C52.1722 4.31715 52.6295 4.76048 52.9562 5.32982C53.2922 5.88982 53.4602 6.54315 53.4602 7.28982C53.4602 8.02715 53.2922 8.68048 52.9562 9.24982C52.6295 9.81915 52.1722 10.2671 51.5842 10.5938C51.0055 10.9205 50.3475 11.0838 49.6102 11.0838ZM49.6102 9.90782C50.0862 9.90782 50.5109 9.80048 50.8842 9.58582C51.2669 9.37115 51.5655 9.06782 51.7802 8.67582C51.9949 8.27448 52.1022 7.81248 52.1022 7.28982C52.1022 6.75782 51.9949 6.30048 51.7802 5.91782C51.5655 5.52582 51.2669 5.22248 50.8842 5.00782C50.5109 4.79315 50.0862 4.68582 49.6102 4.68582C49.1342 4.68582 48.7095 4.79315 48.3362 5.00782C47.9629 5.22248 47.6642 5.52582 47.4402 5.91782C47.2162 6.30048 47.1042 6.75782 47.1042 7.28982C47.1042 7.81248 47.2162 8.27448 47.4402 8.67582C47.6642 9.06782 47.9629 9.37115 48.3362 9.58582C48.7095 9.80048 49.1342 9.90782 49.6102 9.90782Z" fill="#483332"/>
<path d="M58.3849 11.0838C57.6663 11.0838 57.0223 10.9251 56.4529 10.6078C55.8929 10.2905 55.4496 9.84715 55.1229 9.27782C54.7963 8.70848 54.6329 8.04582 54.6329 7.28982C54.6329 6.53382 54.7963 5.87582 55.1229 5.31582C55.4496 4.74648 55.8929 4.30315 56.4529 3.98582C57.0223 3.66848 57.6663 3.50982 58.3849 3.50982C59.0103 3.50982 59.5749 3.64982 60.0789 3.92982C60.5829 4.20982 60.9843 4.62982 61.2829 5.18982C61.5909 5.74982 61.7449 6.44982 61.7449 7.28982C61.7449 8.12982 61.5956 8.82982 61.2969 9.38982C61.0076 9.94982 60.6109 10.3745 60.1069 10.6638C59.6029 10.9438 59.0289 11.0838 58.3849 11.0838ZM58.4969 9.90782C58.9636 9.90782 59.3836 9.80048 59.7569 9.58582C60.1396 9.37115 60.4383 9.06782 60.6529 8.67582C60.8769 8.27448 60.9889 7.81248 60.9889 7.28982C60.9889 6.75782 60.8769 6.30048 60.6529 5.91782C60.4383 5.52582 60.1396 5.22248 59.7569 5.00782C59.3836 4.79315 58.9636 4.68582 58.4969 4.68582C58.0209 4.68582 57.5963 4.79315 57.2229 5.00782C56.8496 5.22248 56.5509 5.52582 56.3269 5.91782C56.1029 6.30048 55.9909 6.75782 55.9909 7.28982C55.9909 7.81248 56.1029 8.27448 56.3269 8.67582C56.5509 9.06782 56.8496 9.37115 57.2229 9.58582C57.5963 9.80048 58.0209 9.90782 58.4969 9.90782ZM61.0309 10.9998V8.99782L61.1149 7.27582L60.9749 5.55382V0.611816H62.3189V10.9998H61.0309Z" fill="#483332"/>
<path d="M71.6737 11.1118C70.927 11.1118 70.213 10.9998 69.5317 10.7758C68.8503 10.5425 68.3137 10.2438 67.9217 9.87982L68.4397 8.78782C68.813 9.11448 69.289 9.38515 69.8677 9.59982C70.4463 9.81448 71.0483 9.92182 71.6737 9.92182C72.243 9.92182 72.705 9.85648 73.0597 9.72582C73.4143 9.59515 73.6757 9.41782 73.8437 9.19382C74.0117 8.96048 74.0957 8.69915 74.0957 8.40982C74.0957 8.07382 73.9837 7.80315 73.7597 7.59782C73.545 7.39248 73.2603 7.22915 72.9057 7.10782C72.5603 6.97715 72.1777 6.86515 71.7577 6.77182C71.3377 6.67848 70.913 6.57115 70.4837 6.44982C70.0637 6.31915 69.6763 6.15582 69.3217 5.95982C68.9763 5.76382 68.6963 5.50248 68.4817 5.17582C68.267 4.83982 68.1597 4.41048 68.1597 3.88782C68.1597 3.38382 68.2903 2.92182 68.5517 2.50182C68.8223 2.07248 69.233 1.73182 69.7837 1.47982C70.3437 1.21848 71.053 1.08782 71.9117 1.08782C72.481 1.08782 73.0457 1.16248 73.6057 1.31182C74.1657 1.46115 74.651 1.67582 75.0617 1.95582L74.5997 3.07582C74.1797 2.79582 73.7363 2.59515 73.2697 2.47382C72.803 2.34315 72.3503 2.27782 71.9117 2.27782C71.361 2.27782 70.9083 2.34782 70.5537 2.48782C70.199 2.62782 69.9377 2.81448 69.7697 3.04782C69.611 3.28115 69.5317 3.54248 69.5317 3.83182C69.5317 4.17715 69.639 4.45248 69.8537 4.65782C70.0777 4.86315 70.3623 5.02648 70.7077 5.14782C71.0623 5.26915 71.4497 5.38115 71.8697 5.48382C72.2897 5.57715 72.7097 5.68448 73.1297 5.80582C73.559 5.92715 73.9463 6.08582 74.2917 6.28182C74.6463 6.47782 74.931 6.73915 75.1457 7.06582C75.3603 7.39248 75.4677 7.81248 75.4677 8.32582C75.4677 8.82048 75.3323 9.28248 75.0617 9.71182C74.791 10.1318 74.371 10.4725 73.8017 10.7338C73.2417 10.9858 72.5323 11.1118 71.6737 11.1118Z" fill="#483332"/>
<path d="M79.865 11.0838C79.1183 11.0838 78.5396 10.8832 78.129 10.4818C77.7183 10.0805 77.513 9.50648 77.513 8.75982V1.95582H78.857V8.70382C78.857 9.10515 78.955 9.41315 79.151 9.62782C79.3563 9.84248 79.6456 9.94982 80.019 9.94982C80.439 9.94982 80.789 9.83315 81.069 9.59982L81.489 10.5658C81.2836 10.7431 81.0363 10.8738 80.747 10.9578C80.467 11.0418 80.173 11.0838 79.865 11.0838ZM76.253 4.68582V3.57982H80.985V4.68582H76.253Z" fill="#483332"/>
<path d="M83.1138 10.9998V3.57982H84.4018V5.59582L84.2758 5.09182C84.4812 4.57848 84.8265 4.18648 85.3118 3.91582C85.7972 3.64515 86.3945 3.50982 87.1038 3.50982V4.81182C87.0478 4.80248 86.9918 4.79782 86.9358 4.79782C86.8892 4.79782 86.8425 4.79782 86.7958 4.79782C86.0772 4.79782 85.5078 5.01248 85.0878 5.44182C84.6678 5.87115 84.4578 6.49182 84.4578 7.30382V10.9998H83.1138Z" fill="#483332"/>
<path d="M91.996 11.0838C91.2026 11.0838 90.5026 10.9205 89.896 10.5938C89.2986 10.2671 88.832 9.81915 88.496 9.24982C88.1693 8.68048 88.006 8.02715 88.006 7.28982C88.006 6.55248 88.1646 5.89915 88.482 5.32982C88.8086 4.76048 89.252 4.31715 89.812 3.99982C90.3813 3.67315 91.0206 3.50982 91.73 3.50982C92.4486 3.50982 93.0833 3.66848 93.634 3.98582C94.1846 4.30315 94.614 4.75115 94.922 5.32982C95.2393 5.89915 95.398 6.56648 95.398 7.33182C95.398 7.38782 95.3933 7.45315 95.384 7.52782C95.384 7.60248 95.3793 7.67248 95.37 7.73782H89.056V6.77182H94.67L94.124 7.10782C94.1333 6.63182 94.0353 6.20715 93.83 5.83382C93.6246 5.46048 93.34 5.17115 92.976 4.96582C92.6213 4.75115 92.206 4.64382 91.73 4.64382C91.2633 4.64382 90.848 4.75115 90.484 4.96582C90.12 5.17115 89.8353 5.46515 89.63 5.84782C89.4246 6.22115 89.322 6.65048 89.322 7.13582V7.35982C89.322 7.85448 89.434 8.29782 89.658 8.68982C89.8913 9.07248 90.2133 9.37115 90.624 9.58582C91.0346 9.80048 91.506 9.90782 92.038 9.90782C92.4766 9.90782 92.8733 9.83315 93.228 9.68382C93.592 9.53448 93.9093 9.31048 94.18 9.01182L94.922 9.87982C94.586 10.2718 94.166 10.5705 93.662 10.7758C93.1673 10.9812 92.612 11.0838 91.996 11.0838Z" fill="#483332"/>
<path d="M100.568 11.0838C99.7749 11.0838 99.0749 10.9205 98.4682 10.5938C97.8709 10.2671 97.4042 9.81915 97.0682 9.24982C96.7416 8.68048 96.5782 8.02715 96.5782 7.28982C96.5782 6.55248 96.7369 5.89915 97.0542 5.32982C97.3809 4.76048 97.8242 4.31715 98.3842 3.99982C98.9536 3.67315 99.5929 3.50982 100.302 3.50982C101.021 3.50982 101.656 3.66848 102.206 3.98582C102.757 4.30315 103.186 4.75115 103.494 5.32982C103.812 5.89915 103.97 6.56648 103.97 7.33182C103.97 7.38782 103.966 7.45315 103.956 7.52782C103.956 7.60248 103.952 7.67248 103.942 7.73782H97.6282V6.77182H103.242L102.696 7.10782C102.706 6.63182 102.608 6.20715 102.402 5.83382C102.197 5.46048 101.912 5.17115 101.548 4.96582C101.194 4.75115 100.778 4.64382 100.302 4.64382C99.8356 4.64382 99.4202 4.75115 99.0562 4.96582C98.6922 5.17115 98.4076 5.46515 98.2022 5.84782C97.9969 6.22115 97.8942 6.65048 97.8942 7.13582V7.35982C97.8942 7.85448 98.0062 8.29782 98.2302 8.68982C98.4636 9.07248 98.7856 9.37115 99.1962 9.58582C99.6069 9.80048 100.078 9.90782 100.61 9.90782C101.049 9.90782 101.446 9.83315 101.8 9.68382C102.164 9.53448 102.482 9.31048 102.752 9.01182L103.494 9.87982C103.158 10.2718 102.738 10.5705 102.234 10.7758C101.74 10.9812 101.184 11.0838 100.568 11.0838Z" fill="#483332"/>
<path d="M108.384 11.0838C107.638 11.0838 107.059 10.8832 106.648 10.4818C106.238 10.0805 106.033 9.50648 106.033 8.75982V1.95582H107.377V8.70382C107.377 9.10515 107.475 9.41315 107.671 9.62782C107.876 9.84248 108.165 9.94982 108.538 9.94982C108.958 9.94982 109.309 9.83315 109.589 9.59982L110.008 10.5658C109.803 10.7431 109.556 10.8738 109.267 10.9578C108.987 11.0418 108.692 11.0838 108.384 11.0838ZM104.772 4.68582V3.57982H109.505V4.68582H104.772Z" fill="#483332"/>
<path d="M111.238 13.0718L111.938 10.2438L112.12 11.0558C111.849 11.0558 111.621 10.9718 111.434 10.8038C111.257 10.6358 111.168 10.4072 111.168 10.1178C111.168 9.83782 111.257 9.60915 111.434 9.43182C111.621 9.25448 111.845 9.16582 112.106 9.16582C112.377 9.16582 112.596 9.25915 112.764 9.44582C112.932 9.62315 113.016 9.84715 113.016 10.1178C113.016 10.2112 113.007 10.3045 112.988 10.3978C112.979 10.4818 112.955 10.5845 112.918 10.7058C112.89 10.8178 112.843 10.9578 112.778 11.1258L112.12 13.0718H111.238Z" fill="#483332"/>
<path d="M120.844 10.9998V2.41782H117.484V1.19982H125.59V2.41782H122.23V10.9998H120.844Z" fill="#483332"/>
<path d="M129.331 11.0838C128.584 11.0838 127.922 10.9205 127.343 10.5938C126.764 10.2671 126.307 9.81915 125.971 9.24982C125.635 8.67115 125.467 8.01782 125.467 7.28982C125.467 6.55248 125.635 5.89915 125.971 5.32982C126.307 4.76048 126.764 4.31715 127.343 3.99982C127.922 3.67315 128.584 3.50982 129.331 3.50982C130.068 3.50982 130.726 3.67315 131.305 3.99982C131.893 4.31715 132.35 4.76048 132.677 5.32982C133.013 5.88982 133.181 6.54315 133.181 7.28982C133.181 8.02715 133.013 8.68048 132.677 9.24982C132.35 9.81915 131.893 10.2671 131.305 10.5938C130.726 10.9205 130.068 11.0838 129.331 11.0838ZM129.331 9.90782C129.807 9.90782 130.232 9.80048 130.605 9.58582C130.988 9.37115 131.286 9.06782 131.501 8.67582C131.716 8.27448 131.823 7.81248 131.823 7.28982C131.823 6.75782 131.716 6.30048 131.501 5.91782C131.286 5.52582 130.988 5.22248 130.605 5.00782C130.232 4.79315 129.807 4.68582 129.331 4.68582C128.855 4.68582 128.43 4.79315 128.057 5.00782C127.684 5.22248 127.385 5.52582 127.161 5.91782C126.937 6.30048 126.825 6.75782 126.825 7.28982C126.825 7.81248 126.937 8.27448 127.161 8.67582C127.385 9.06782 127.684 9.37115 128.057 9.58582C128.43 9.80048 128.855 9.90782 129.331 9.90782Z" fill="#483332"/>
<path d="M135.04 10.9998V3.57982H136.328V5.59582L136.202 5.09182C136.407 4.57848 136.752 4.18648 137.238 3.91582C137.723 3.64515 138.32 3.50982 139.03 3.50982V4.81182C138.974 4.80248 138.918 4.79782 138.862 4.79782C138.815 4.79782 138.768 4.79782 138.722 4.79782C138.003 4.79782 137.434 5.01248 137.014 5.44182C136.594 5.87115 136.384 6.49182 136.384 7.30382V10.9998H135.04Z" fill="#483332"/>
<path d="M143.796 11.0838C143.049 11.0838 142.386 10.9205 141.808 10.5938C141.229 10.2671 140.772 9.81915 140.436 9.24982C140.1 8.67115 139.932 8.01782 139.932 7.28982C139.932 6.55248 140.1 5.89915 140.436 5.32982C140.772 4.76048 141.229 4.31715 141.808 3.99982C142.386 3.67315 143.049 3.50982 143.796 3.50982C144.533 3.50982 145.191 3.67315 145.77 3.99982C146.358 4.31715 146.815 4.76048 147.142 5.32982C147.478 5.88982 147.646 6.54315 147.646 7.28982C147.646 8.02715 147.478 8.68048 147.142 9.24982C146.815 9.81915 146.358 10.2671 145.77 10.5938C145.191 10.9205 144.533 11.0838 143.796 11.0838ZM143.796 9.90782C144.272 9.90782 144.696 9.80048 145.07 9.58582C145.452 9.37115 145.751 9.06782 145.966 8.67582C146.18 8.27448 146.288 7.81248 146.288 7.28982C146.288 6.75782 146.18 6.30048 145.966 5.91782C145.751 5.52582 145.452 5.22248 145.07 5.00782C144.696 4.79315 144.272 4.68582 143.796 4.68582C143.32 4.68582 142.895 4.79315 142.522 5.00782C142.148 5.22248 141.85 5.52582 141.626 5.91782C141.402 6.30048 141.29 6.75782 141.29 7.28982C141.29 7.81248 141.402 8.27448 141.626 8.67582C141.85 9.06782 142.148 9.37115 142.522 9.58582C142.895 9.80048 143.32 9.90782 143.796 9.90782Z" fill="#483332"/>
<path d="M153.466 3.50982C154.073 3.50982 154.605 3.62648 155.062 3.85982C155.529 4.09315 155.893 4.44782 156.154 4.92382C156.416 5.39982 156.546 6.00182 156.546 6.72982V10.9998H155.202V6.88382C155.202 6.16515 155.025 5.62382 154.67 5.25982C154.325 4.89582 153.835 4.71382 153.2 4.71382C152.724 4.71382 152.309 4.80715 151.954 4.99382C151.6 5.18048 151.324 5.45582 151.128 5.81982C150.942 6.18382 150.848 6.63648 150.848 7.17782V10.9998H149.504V3.57982H150.792V5.58182L150.582 5.04982C150.825 4.56448 151.198 4.18648 151.702 3.91582C152.206 3.64515 152.794 3.50982 153.466 3.50982Z" fill="#483332"/>
<path d="M161.582 11.0838C160.835 11.0838 160.256 10.8832 159.846 10.4818C159.435 10.0805 159.23 9.50648 159.23 8.75982V1.95582H160.574V8.70382C160.574 9.10515 160.672 9.41315 160.868 9.62782C161.073 9.84248 161.362 9.94982 161.736 9.94982C162.156 9.94982 162.506 9.83315 162.786 9.59982L163.206 10.5658C163 10.7431 162.753 10.8738 162.464 10.9578C162.184 11.0418 161.89 11.0838 161.582 11.0838ZM157.97 4.68582V3.57982H162.702V4.68582H157.97Z" fill="#483332"/>
<path d="M167.763 11.0838C167.016 11.0838 166.353 10.9205 165.775 10.5938C165.196 10.2671 164.739 9.81915 164.403 9.24982C164.067 8.67115 163.899 8.01782 163.899 7.28982C163.899 6.55248 164.067 5.89915 164.403 5.32982C164.739 4.76048 165.196 4.31715 165.775 3.99982C166.353 3.67315 167.016 3.50982 167.763 3.50982C168.5 3.50982 169.158 3.67315 169.737 3.99982C170.325 4.31715 170.782 4.76048 171.109 5.32982C171.445 5.88982 171.613 6.54315 171.613 7.28982C171.613 8.02715 171.445 8.68048 171.109 9.24982C170.782 9.81915 170.325 10.2671 169.737 10.5938C169.158 10.9205 168.5 11.0838 167.763 11.0838ZM167.763 9.90782C168.239 9.90782 168.663 9.80048 169.037 9.58582C169.419 9.37115 169.718 9.06782 169.933 8.67582C170.147 8.27448 170.255 7.81248 170.255 7.28982C170.255 6.75782 170.147 6.30048 169.933 5.91782C169.718 5.52582 169.419 5.22248 169.037 5.00782C168.663 4.79315 168.239 4.68582 167.763 4.68582C167.287 4.68582 166.862 4.79315 166.489 5.00782C166.115 5.22248 165.817 5.52582 165.593 5.91782C165.369 6.30048 165.257 6.75782 165.257 7.28982C165.257 7.81248 165.369 8.27448 165.593 8.67582C165.817 9.06782 166.115 9.37115 166.489 9.58582C166.862 9.80048 167.287 9.90782 167.763 9.90782Z" fill="#483332"/>
<path d="M172.775 13.0718L173.475 10.2438L173.657 11.0558C173.387 11.0558 173.158 10.9718 172.971 10.8038C172.794 10.6358 172.705 10.4072 172.705 10.1178C172.705 9.83782 172.794 9.60915 172.971 9.43182C173.158 9.25448 173.382 9.16582 173.643 9.16582C173.914 9.16582 174.133 9.25915 174.301 9.44582C174.469 9.62315 174.553 9.84715 174.553 10.1178C174.553 10.2112 174.544 10.3045 174.525 10.3978C174.516 10.4818 174.493 10.5845 174.455 10.7058C174.427 10.8178 174.381 10.9578 174.315 11.1258L173.657 13.0718H172.775Z" fill="#483332"/>
<path d="M184.817 11.1118C184.07 11.1118 183.38 10.9905 182.745 10.7478C182.12 10.4958 181.574 10.1458 181.107 9.69782C180.65 9.24048 180.29 8.70848 180.029 8.10182C179.768 7.49515 179.637 6.82782 179.637 6.09982C179.637 5.37182 179.768 4.70448 180.029 4.09782C180.29 3.49115 180.654 2.96382 181.121 2.51582C181.588 2.05848 182.134 1.70848 182.759 1.46582C183.394 1.21382 184.084 1.08782 184.831 1.08782C185.587 1.08782 186.282 1.21848 186.917 1.47982C187.561 1.73182 188.107 2.10982 188.555 2.61382L187.645 3.49582C187.271 3.10382 186.852 2.81448 186.385 2.62782C185.918 2.43182 185.419 2.33382 184.887 2.33382C184.336 2.33382 183.823 2.42715 183.347 2.61382C182.88 2.80048 182.474 3.06182 182.129 3.39782C181.784 3.73382 181.513 4.13515 181.317 4.60182C181.13 5.05915 181.037 5.55848 181.037 6.09982C181.037 6.64115 181.13 7.14515 181.317 7.61182C181.513 8.06915 181.784 8.46582 182.129 8.80182C182.474 9.13782 182.88 9.39915 183.347 9.58582C183.823 9.77248 184.336 9.86582 184.887 9.86582C185.419 9.86582 185.918 9.77248 186.385 9.58582C186.852 9.38982 187.271 9.09115 187.645 8.68982L188.555 9.57182C188.107 10.0758 187.561 10.4585 186.917 10.7198C186.282 10.9812 185.582 11.1118 184.817 11.1118Z" fill="#483332"/>
<path d="M188.836 10.9998L193.274 1.19982H194.66L199.112 10.9998H197.642L193.68 1.98382H194.24L190.278 10.9998H188.836ZM190.726 8.54982L191.104 7.42982H196.62L197.026 8.54982H190.726Z" fill="#483332"/>
</svg>
