<svg width="200" height="14" viewBox="0 0 200 14" fill="none" xmlns="http://www.w3.org/2000/svg">
<path d="M2.324 11.0003V1.7603L2.926 2.4183H0.112V1.2003H3.71V11.0003H2.324Z" fill="#483332"/>
<path d="M9.85764 11.1123C9.09231 11.1123 8.40631 10.9163 7.79964 10.5243C7.20231 10.1323 6.72631 9.56297 6.37164 8.81631C6.02631 8.06964 5.85364 7.1643 5.85364 6.1003C5.85364 5.0363 6.02631 4.13097 6.37164 3.38431C6.72631 2.63764 7.20231 2.0683 7.79964 1.6763C8.40631 1.2843 9.09231 1.0883 9.85764 1.0883C10.6136 1.0883 11.295 1.2843 11.9016 1.6763C12.5083 2.0683 12.9843 2.63764 13.3296 3.38431C13.675 4.13097 13.8476 5.0363 13.8476 6.1003C13.8476 7.1643 13.675 8.06964 13.3296 8.81631C12.9843 9.56297 12.5083 10.1323 11.9016 10.5243C11.295 10.9163 10.6136 11.1123 9.85764 11.1123ZM9.85764 9.86631C10.371 9.86631 10.819 9.72631 11.2016 9.44631C11.5936 9.16631 11.897 8.74631 12.1116 8.18631C12.3356 7.62631 12.4476 6.93097 12.4476 6.1003C12.4476 5.26964 12.3356 4.57431 12.1116 4.01431C11.897 3.45431 11.5936 3.0343 11.2016 2.7543C10.819 2.4743 10.371 2.3343 9.85764 2.3343C9.34431 2.3343 8.89164 2.4743 8.49964 2.7543C8.10764 3.0343 7.79964 3.45431 7.57564 4.01431C7.36097 4.57431 7.25364 5.26964 7.25364 6.1003C7.25364 6.93097 7.36097 7.62631 7.57564 8.18631C7.79964 8.74631 8.10764 9.16631 8.49964 9.44631C8.89164 9.72631 9.34431 9.86631 9.85764 9.86631Z" fill="#483332"/>
<path d="M19.1955 11.1123C18.4302 11.1123 17.7442 10.9163 17.1375 10.5243C16.5402 10.1323 16.0642 9.56297 15.7095 8.81631C15.3642 8.06964 15.1915 7.1643 15.1915 6.1003C15.1915 5.0363 15.3642 4.13097 15.7095 3.38431C16.0642 2.63764 16.5402 2.0683 17.1375 1.6763C17.7442 1.2843 18.4302 1.0883 19.1955 1.0883C19.9515 1.0883 20.6329 1.2843 21.2395 1.6763C21.8462 2.0683 22.3222 2.63764 22.6675 3.38431C23.0129 4.13097 23.1855 5.0363 23.1855 6.1003C23.1855 7.1643 23.0129 8.06964 22.6675 8.81631C22.3222 9.56297 21.8462 10.1323 21.2395 10.5243C20.6329 10.9163 19.9515 11.1123 19.1955 11.1123ZM19.1955 9.86631C19.7089 9.86631 20.1569 9.72631 20.5395 9.44631C20.9315 9.16631 21.2349 8.74631 21.4495 8.18631C21.6735 7.62631 21.7855 6.93097 21.7855 6.1003C21.7855 5.26964 21.6735 4.57431 21.4495 4.01431C21.2349 3.45431 20.9315 3.0343 20.5395 2.7543C20.1569 2.4743 19.7089 2.3343 19.1955 2.3343C18.6822 2.3343 18.2295 2.4743 17.8375 2.7543C17.4455 3.0343 17.1375 3.45431 16.9135 4.01431C16.6989 4.57431 16.5915 5.26964 16.5915 6.1003C16.5915 6.93097 16.6989 7.62631 16.9135 8.18631C17.1375 8.74631 17.4455 9.16631 17.8375 9.44631C18.2295 9.72631 18.6822 9.86631 19.1955 9.86631Z" fill="#483332"/>
<path d="M30.3472 5.8343H35.4012V7.03831H30.3472V5.8343ZM30.4872 11.0003H29.0872V1.2003H36.0032V2.4183H30.4872V11.0003Z" fill="#483332"/>
<path d="M40.7235 11.0843C39.9768 11.0843 39.3142 10.921 38.7355 10.5943C38.1568 10.2676 37.6995 9.81964 37.3635 9.25031C37.0275 8.67164 36.8595 8.01831 36.8595 7.29031C36.8595 6.55297 37.0275 5.89964 37.3635 5.33031C37.6995 4.76097 38.1568 4.31764 38.7355 4.00031C39.3142 3.67364 39.9768 3.5103 40.7235 3.5103C41.4608 3.5103 42.1188 3.67364 42.6975 4.00031C43.2855 4.31764 43.7428 4.76097 44.0695 5.33031C44.4055 5.89031 44.5735 6.54364 44.5735 7.29031C44.5735 8.02764 44.4055 8.68097 44.0695 9.25031C43.7428 9.81964 43.2855 10.2676 42.6975 10.5943C42.1188 10.921 41.4608 11.0843 40.7235 11.0843ZM40.7235 9.90831C41.1995 9.90831 41.6242 9.80097 41.9975 9.5863C42.3802 9.37164 42.6788 9.06831 42.8935 8.6763C43.1082 8.27497 43.2155 7.81297 43.2155 7.29031C43.2155 6.75831 43.1082 6.30097 42.8935 5.91831C42.6788 5.52631 42.3802 5.22297 41.9975 5.0083C41.6242 4.79364 41.1995 4.6863 40.7235 4.6863C40.2475 4.6863 39.8228 4.79364 39.4495 5.0083C39.0762 5.22297 38.7775 5.52631 38.5535 5.91831C38.3295 6.30097 38.2175 6.75831 38.2175 7.29031C38.2175 7.81297 38.3295 8.27497 38.5535 8.6763C38.7775 9.06831 39.0762 9.37164 39.4495 9.5863C39.8228 9.80097 40.2475 9.90831 40.7235 9.90831Z" fill="#483332"/>
<path d="M49.6102 11.0843C48.8635 11.0843 48.2009 10.921 47.6222 10.5943C47.0435 10.2676 46.5862 9.81964 46.2502 9.25031C45.9142 8.67164 45.7462 8.01831 45.7462 7.29031C45.7462 6.55297 45.9142 5.89964 46.2502 5.33031C46.5862 4.76097 47.0435 4.31764 47.6222 4.00031C48.2009 3.67364 48.8635 3.5103 49.6102 3.5103C50.3475 3.5103 51.0055 3.67364 51.5842 4.00031C52.1722 4.31764 52.6295 4.76097 52.9562 5.33031C53.2922 5.89031 53.4602 6.54364 53.4602 7.29031C53.4602 8.02764 53.2922 8.68097 52.9562 9.25031C52.6295 9.81964 52.1722 10.2676 51.5842 10.5943C51.0055 10.921 50.3475 11.0843 49.6102 11.0843ZM49.6102 9.90831C50.0862 9.90831 50.5109 9.80097 50.8842 9.5863C51.2669 9.37164 51.5655 9.06831 51.7802 8.6763C51.9949 8.27497 52.1022 7.81297 52.1022 7.29031C52.1022 6.75831 51.9949 6.30097 51.7802 5.91831C51.5655 5.52631 51.2669 5.22297 50.8842 5.0083C50.5109 4.79364 50.0862 4.6863 49.6102 4.6863C49.1342 4.6863 48.7095 4.79364 48.3362 5.0083C47.9629 5.22297 47.6642 5.52631 47.4402 5.91831C47.2162 6.30097 47.1042 6.75831 47.1042 7.29031C47.1042 7.81297 47.2162 8.27497 47.4402 8.6763C47.6642 9.06831 47.9629 9.37164 48.3362 9.5863C48.7095 9.80097 49.1342 9.90831 49.6102 9.90831Z" fill="#483332"/>
<path d="M58.3849 11.0843C57.6663 11.0843 57.0223 10.9256 56.4529 10.6083C55.8929 10.291 55.4496 9.84764 55.1229 9.27831C54.7963 8.70897 54.6329 8.04631 54.6329 7.29031C54.6329 6.53431 54.7963 5.87631 55.1229 5.31631C55.4496 4.74697 55.8929 4.30364 56.4529 3.9863C57.0223 3.66897 57.6663 3.5103 58.3849 3.5103C59.0103 3.5103 59.5749 3.65031 60.0789 3.93031C60.5829 4.21031 60.9843 4.6303 61.2829 5.1903C61.5909 5.7503 61.7449 6.4503 61.7449 7.29031C61.7449 8.13031 61.5956 8.83031 61.2969 9.39031C61.0076 9.95031 60.6109 10.375 60.1069 10.6643C59.6029 10.9443 59.0289 11.0843 58.3849 11.0843ZM58.4969 9.90831C58.9636 9.90831 59.3836 9.80097 59.7569 9.5863C60.1396 9.37164 60.4383 9.06831 60.6529 8.6763C60.8769 8.27497 60.9889 7.81297 60.9889 7.29031C60.9889 6.75831 60.8769 6.30097 60.6529 5.91831C60.4383 5.52631 60.1396 5.22297 59.7569 5.0083C59.3836 4.79364 58.9636 4.6863 58.4969 4.6863C58.0209 4.6863 57.5963 4.79364 57.2229 5.0083C56.8496 5.22297 56.5509 5.52631 56.3269 5.91831C56.1029 6.30097 55.9909 6.75831 55.9909 7.29031C55.9909 7.81297 56.1029 8.27497 56.3269 8.6763C56.5509 9.06831 56.8496 9.37164 57.2229 9.5863C57.5963 9.80097 58.0209 9.90831 58.4969 9.90831ZM61.0309 11.0003V8.99831L61.1149 7.27631L60.9749 5.55431V0.612305H62.3189V11.0003H61.0309Z" fill="#483332"/>
<path d="M71.6737 11.1123C70.927 11.1123 70.213 11.0003 69.5317 10.7763C68.8503 10.543 68.3137 10.2443 67.9217 9.88031L68.4397 8.78831C68.813 9.11497 69.289 9.38564 69.8677 9.60031C70.4463 9.81497 71.0483 9.92231 71.6737 9.92231C72.243 9.92231 72.705 9.85697 73.0597 9.72631C73.4143 9.59564 73.6757 9.41831 73.8437 9.19431C74.0117 8.96097 74.0957 8.69964 74.0957 8.41031C74.0957 8.07431 73.9837 7.80364 73.7597 7.5983C73.545 7.39297 73.2603 7.22964 72.9057 7.1083C72.5603 6.97764 72.1777 6.86564 71.7577 6.7723C71.3377 6.67897 70.913 6.57164 70.4837 6.4503C70.0637 6.31964 69.6763 6.15631 69.3217 5.96031C68.9763 5.76431 68.6963 5.50297 68.4817 5.1763C68.267 4.8403 68.1597 4.41097 68.1597 3.8883C68.1597 3.3843 68.2903 2.9223 68.5517 2.5023C68.8223 2.07297 69.233 1.7323 69.7837 1.48031C70.3437 1.21897 71.053 1.0883 71.9117 1.0883C72.481 1.0883 73.0457 1.16297 73.6057 1.3123C74.1657 1.46164 74.651 1.6763 75.0617 1.9563L74.5997 3.0763C74.1797 2.7963 73.7363 2.59564 73.2697 2.4743C72.803 2.34364 72.3503 2.27831 71.9117 2.27831C71.361 2.27831 70.9083 2.3483 70.5537 2.4883C70.199 2.6283 69.9377 2.81497 69.7697 3.04831C69.611 3.28164 69.5317 3.54297 69.5317 3.8323C69.5317 4.17764 69.639 4.45297 69.8537 4.65831C70.0777 4.86364 70.3623 5.02697 70.7077 5.1483C71.0623 5.26964 71.4497 5.38164 71.8697 5.4843C72.2897 5.57764 72.7097 5.68497 73.1297 5.8063C73.559 5.92764 73.9463 6.0863 74.2917 6.2823C74.6463 6.4783 74.931 6.73964 75.1457 7.06631C75.3603 7.39297 75.4677 7.81297 75.4677 8.32631C75.4677 8.82097 75.3323 9.28297 75.0617 9.71231C74.791 10.1323 74.371 10.473 73.8017 10.7343C73.2417 10.9863 72.5323 11.1123 71.6737 11.1123Z" fill="#483332"/>
<path d="M79.865 11.0843C79.1183 11.0843 78.5396 10.8836 78.129 10.4823C77.7183 10.081 77.513 9.50697 77.513 8.76031V1.9563H78.857V8.7043C78.857 9.10564 78.955 9.41364 79.151 9.62831C79.3563 9.84297 79.6456 9.9503 80.019 9.9503C80.439 9.9503 80.789 9.83364 81.069 9.60031L81.489 10.5663C81.2836 10.7436 81.0363 10.8743 80.747 10.9583C80.467 11.0423 80.173 11.0843 79.865 11.0843ZM76.253 4.6863V3.5803H80.985V4.6863H76.253Z" fill="#483332"/>
<path d="M83.1138 11.0003V3.5803H84.4018V5.5963L84.2758 5.09231C84.4812 4.57897 84.8265 4.18697 85.3118 3.9163C85.7972 3.64564 86.3945 3.5103 87.1038 3.5103V4.8123C87.0478 4.80297 86.9918 4.79831 86.9358 4.79831C86.8892 4.79831 86.8425 4.79831 86.7958 4.79831C86.0772 4.79831 85.5078 5.01297 85.0878 5.4423C84.6678 5.87164 84.4578 6.4923 84.4578 7.30431V11.0003H83.1138Z" fill="#483332"/>
<path d="M91.996 11.0843C91.2026 11.0843 90.5026 10.921 89.896 10.5943C89.2986 10.2676 88.832 9.81964 88.496 9.25031C88.1693 8.68097 88.006 8.02764 88.006 7.29031C88.006 6.55297 88.1646 5.89964 88.482 5.33031C88.8086 4.76097 89.252 4.31764 89.812 4.00031C90.3813 3.67364 91.0206 3.5103 91.73 3.5103C92.4486 3.5103 93.0833 3.66897 93.634 3.9863C94.1846 4.30364 94.614 4.75164 94.922 5.33031C95.2393 5.89964 95.398 6.56697 95.398 7.3323C95.398 7.38831 95.3933 7.45364 95.384 7.52831C95.384 7.60297 95.3793 7.67297 95.37 7.73831H89.056V6.7723H94.67L94.124 7.1083C94.1333 6.63231 94.0353 6.20764 93.83 5.8343C93.6246 5.46097 93.34 5.17164 92.976 4.9663C92.6213 4.75164 92.206 4.6443 91.73 4.6443C91.2633 4.6443 90.848 4.75164 90.484 4.9663C90.12 5.17164 89.8353 5.46564 89.63 5.8483C89.4246 6.22164 89.322 6.65097 89.322 7.1363V7.3603C89.322 7.85497 89.434 8.2983 89.658 8.6903C89.8913 9.07297 90.2133 9.37164 90.624 9.5863C91.0346 9.80097 91.506 9.90831 92.038 9.90831C92.4766 9.90831 92.8733 9.83364 93.228 9.68431C93.592 9.53497 93.9093 9.31097 94.18 9.01231L94.922 9.88031C94.586 10.2723 94.166 10.571 93.662 10.7763C93.1673 10.9816 92.612 11.0843 91.996 11.0843Z" fill="#483332"/>
<path d="M100.568 11.0843C99.7749 11.0843 99.0749 10.921 98.4682 10.5943C97.8709 10.2676 97.4042 9.81964 97.0682 9.25031C96.7416 8.68097 96.5782 8.02764 96.5782 7.29031C96.5782 6.55297 96.7369 5.89964 97.0542 5.33031C97.3809 4.76097 97.8242 4.31764 98.3842 4.00031C98.9536 3.67364 99.5929 3.5103 100.302 3.5103C101.021 3.5103 101.656 3.66897 102.206 3.9863C102.757 4.30364 103.186 4.75164 103.494 5.33031C103.812 5.89964 103.97 6.56697 103.97 7.3323C103.97 7.38831 103.966 7.45364 103.956 7.52831C103.956 7.60297 103.952 7.67297 103.942 7.73831H97.6282V6.7723H103.242L102.696 7.1083C102.706 6.63231 102.608 6.20764 102.402 5.8343C102.197 5.46097 101.912 5.17164 101.548 4.9663C101.194 4.75164 100.778 4.6443 100.302 4.6443C99.8356 4.6443 99.4202 4.75164 99.0562 4.9663C98.6922 5.17164 98.4076 5.46564 98.2022 5.8483C97.9969 6.22164 97.8942 6.65097 97.8942 7.1363V7.3603C97.8942 7.85497 98.0062 8.2983 98.2302 8.6903C98.4636 9.07297 98.7856 9.37164 99.1962 9.5863C99.6069 9.80097 100.078 9.90831 100.61 9.90831C101.049 9.90831 101.446 9.83364 101.8 9.68431C102.164 9.53497 102.482 9.31097 102.752 9.01231L103.494 9.88031C103.158 10.2723 102.738 10.571 102.234 10.7763C101.74 10.9816 101.184 11.0843 100.568 11.0843Z" fill="#483332"/>
<path d="M108.384 11.0843C107.638 11.0843 107.059 10.8836 106.648 10.4823C106.238 10.081 106.033 9.50697 106.033 8.76031V1.9563H107.377V8.7043C107.377 9.10564 107.475 9.41364 107.671 9.62831C107.876 9.84297 108.165 9.9503 108.538 9.9503C108.958 9.9503 109.309 9.83364 109.589 9.60031L110.008 10.5663C109.803 10.7436 109.556 10.8743 109.267 10.9583C108.987 11.0423 108.692 11.0843 108.384 11.0843ZM104.772 4.6863V3.5803H109.505V4.6863H104.772Z" fill="#483332"/>
<path d="M111.238 13.0723L111.938 10.2443L112.12 11.0563C111.849 11.0563 111.621 10.9723 111.434 10.8043C111.257 10.6363 111.168 10.4076 111.168 10.1183C111.168 9.83831 111.257 9.60964 111.434 9.43231C111.621 9.25497 111.845 9.1663 112.106 9.1663C112.377 9.1663 112.596 9.25964 112.764 9.44631C112.932 9.62364 113.016 9.84764 113.016 10.1183C113.016 10.2116 113.007 10.305 112.988 10.3983C112.979 10.4823 112.955 10.585 112.918 10.7063C112.89 10.8183 112.843 10.9583 112.778 11.1263L112.12 13.0723H111.238Z" fill="#483332"/>
<path d="M120.844 11.0003V2.4183H117.484V1.2003H125.59V2.4183H122.23V11.0003H120.844Z" fill="#483332"/>
<path d="M129.331 11.0843C128.584 11.0843 127.922 10.921 127.343 10.5943C126.764 10.2676 126.307 9.81964 125.971 9.25031C125.635 8.67164 125.467 8.01831 125.467 7.29031C125.467 6.55297 125.635 5.89964 125.971 5.33031C126.307 4.76097 126.764 4.31764 127.343 4.00031C127.922 3.67364 128.584 3.5103 129.331 3.5103C130.068 3.5103 130.726 3.67364 131.305 4.00031C131.893 4.31764 132.35 4.76097 132.677 5.33031C133.013 5.89031 133.181 6.54364 133.181 7.29031C133.181 8.02764 133.013 8.68097 132.677 9.25031C132.35 9.81964 131.893 10.2676 131.305 10.5943C130.726 10.921 130.068 11.0843 129.331 11.0843ZM129.331 9.90831C129.807 9.90831 130.232 9.80097 130.605 9.5863C130.988 9.37164 131.286 9.06831 131.501 8.6763C131.716 8.27497 131.823 7.81297 131.823 7.29031C131.823 6.75831 131.716 6.30097 131.501 5.91831C131.286 5.52631 130.988 5.22297 130.605 5.0083C130.232 4.79364 129.807 4.6863 129.331 4.6863C128.855 4.6863 128.43 4.79364 128.057 5.0083C127.684 5.22297 127.385 5.52631 127.161 5.91831C126.937 6.30097 126.825 6.75831 126.825 7.29031C126.825 7.81297 126.937 8.27497 127.161 8.6763C127.385 9.06831 127.684 9.37164 128.057 9.5863C128.43 9.80097 128.855 9.90831 129.331 9.90831Z" fill="#483332"/>
<path d="M135.04 11.0003V3.5803H136.328V5.5963L136.202 5.09231C136.407 4.57897 136.752 4.18697 137.238 3.9163C137.723 3.64564 138.32 3.5103 139.03 3.5103V4.8123C138.974 4.80297 138.918 4.79831 138.862 4.79831C138.815 4.79831 138.768 4.79831 138.722 4.79831C138.003 4.79831 137.434 5.01297 137.014 5.4423C136.594 5.87164 136.384 6.4923 136.384 7.30431V11.0003H135.04Z" fill="#483332"/>
<path d="M143.796 11.0843C143.049 11.0843 142.386 10.921 141.808 10.5943C141.229 10.2676 140.772 9.81964 140.436 9.25031C140.1 8.67164 139.932 8.01831 139.932 7.29031C139.932 6.55297 140.1 5.89964 140.436 5.33031C140.772 4.76097 141.229 4.31764 141.808 4.00031C142.386 3.67364 143.049 3.5103 143.796 3.5103C144.533 3.5103 145.191 3.67364 145.77 4.00031C146.358 4.31764 146.815 4.76097 147.142 5.33031C147.478 5.89031 147.646 6.54364 147.646 7.29031C147.646 8.02764 147.478 8.68097 147.142 9.25031C146.815 9.81964 146.358 10.2676 145.77 10.5943C145.191 10.921 144.533 11.0843 143.796 11.0843ZM143.796 9.90831C144.272 9.90831 144.696 9.80097 145.07 9.5863C145.452 9.37164 145.751 9.06831 145.966 8.6763C146.18 8.27497 146.288 7.81297 146.288 7.29031C146.288 6.75831 146.18 6.30097 145.966 5.91831C145.751 5.52631 145.452 5.22297 145.07 5.0083C144.696 4.79364 144.272 4.6863 143.796 4.6863C143.32 4.6863 142.895 4.79364 142.522 5.0083C142.148 5.22297 141.85 5.52631 141.626 5.91831C141.402 6.30097 141.29 6.75831 141.29 7.29031C141.29 7.81297 141.402 8.27497 141.626 8.6763C141.85 9.06831 142.148 9.37164 142.522 9.5863C142.895 9.80097 143.32 9.90831 143.796 9.90831Z" fill="#483332"/>
<path d="M153.466 3.5103C154.073 3.5103 154.605 3.62697 155.062 3.8603C155.529 4.09364 155.893 4.4483 156.154 4.9243C156.416 5.4003 156.546 6.0023 156.546 6.7303V11.0003H155.202V6.88431C155.202 6.16564 155.025 5.6243 154.67 5.2603C154.325 4.8963 153.835 4.7143 153.2 4.7143C152.724 4.7143 152.309 4.80764 151.954 4.9943C151.6 5.18097 151.324 5.45631 151.128 5.8203C150.942 6.1843 150.848 6.63697 150.848 7.1783V11.0003H149.504V3.5803H150.792V5.5823L150.582 5.05031C150.825 4.56497 151.198 4.18697 151.702 3.9163C152.206 3.64564 152.794 3.5103 153.466 3.5103Z" fill="#483332"/>
<path d="M161.582 11.0843C160.835 11.0843 160.256 10.8836 159.846 10.4823C159.435 10.081 159.23 9.50697 159.23 8.76031V1.9563H160.574V8.7043C160.574 9.10564 160.672 9.41364 160.868 9.62831C161.073 9.84297 161.362 9.9503 161.736 9.9503C162.156 9.9503 162.506 9.83364 162.786 9.60031L163.206 10.5663C163 10.7436 162.753 10.8743 162.464 10.9583C162.184 11.0423 161.89 11.0843 161.582 11.0843ZM157.97 4.6863V3.5803H162.702V4.6863H157.97Z" fill="#483332"/>
<path d="M167.763 11.0843C167.016 11.0843 166.353 10.921 165.775 10.5943C165.196 10.2676 164.739 9.81964 164.403 9.25031C164.067 8.67164 163.899 8.01831 163.899 7.29031C163.899 6.55297 164.067 5.89964 164.403 5.33031C164.739 4.76097 165.196 4.31764 165.775 4.00031C166.353 3.67364 167.016 3.5103 167.763 3.5103C168.5 3.5103 169.158 3.67364 169.737 4.00031C170.325 4.31764 170.782 4.76097 171.109 5.33031C171.445 5.89031 171.613 6.54364 171.613 7.29031C171.613 8.02764 171.445 8.68097 171.109 9.25031C170.782 9.81964 170.325 10.2676 169.737 10.5943C169.158 10.921 168.5 11.0843 167.763 11.0843ZM167.763 9.90831C168.239 9.90831 168.663 9.80097 169.037 9.5863C169.419 9.37164 169.718 9.06831 169.933 8.6763C170.147 8.27497 170.255 7.81297 170.255 7.29031C170.255 6.75831 170.147 6.30097 169.933 5.91831C169.718 5.52631 169.419 5.22297 169.037 5.0083C168.663 4.79364 168.239 4.6863 167.763 4.6863C167.287 4.6863 166.862 4.79364 166.489 5.0083C166.115 5.22297 165.817 5.52631 165.593 5.91831C165.369 6.30097 165.257 6.75831 165.257 7.29031C165.257 7.81297 165.369 8.27497 165.593 8.6763C165.817 9.06831 166.115 9.37164 166.489 9.5863C166.862 9.80097 167.287 9.90831 167.763 9.90831Z" fill="#483332"/>
<path d="M172.775 13.0723L173.475 10.2443L173.657 11.0563C173.387 11.0563 173.158 10.9723 172.971 10.8043C172.794 10.6363 172.705 10.4076 172.705 10.1183C172.705 9.83831 172.794 9.60964 172.971 9.43231C173.158 9.25497 173.382 9.1663 173.643 9.1663C173.914 9.1663 174.133 9.25964 174.301 9.44631C174.469 9.62364 174.553 9.84764 174.553 10.1183C174.553 10.2116 174.544 10.305 174.525 10.3983C174.516 10.4823 174.493 10.585 174.455 10.7063C174.427 10.8183 174.381 10.9583 174.315 11.1263L173.657 13.0723H172.775Z" fill="#483332"/>
<path d="M184.817 11.1123C184.07 11.1123 183.38 10.991 182.745 10.7483C182.12 10.4963 181.574 10.1463 181.107 9.69831C180.65 9.24097 180.29 8.70897 180.029 8.1023C179.768 7.49564 179.637 6.8283 179.637 6.1003C179.637 5.3723 179.768 4.70497 180.029 4.0983C180.29 3.49164 180.654 2.9643 181.121 2.5163C181.588 2.05897 182.134 1.70897 182.759 1.4663C183.394 1.2143 184.084 1.0883 184.831 1.0883C185.587 1.0883 186.282 1.21897 186.917 1.48031C187.561 1.7323 188.107 2.1103 188.555 2.6143L187.645 3.4963C187.271 3.10431 186.852 2.81497 186.385 2.6283C185.918 2.4323 185.419 2.3343 184.887 2.3343C184.336 2.3343 183.823 2.42764 183.347 2.6143C182.88 2.80097 182.474 3.0623 182.129 3.3983C181.784 3.7343 181.513 4.13564 181.317 4.6023C181.13 5.05964 181.037 5.55897 181.037 6.1003C181.037 6.64164 181.13 7.14564 181.317 7.6123C181.513 8.06964 181.784 8.46631 182.129 8.80231C182.474 9.13831 182.88 9.39964 183.347 9.5863C183.823 9.77297 184.336 9.86631 184.887 9.86631C185.419 9.86631 185.918 9.77297 186.385 9.5863C186.852 9.3903 187.271 9.09164 187.645 8.6903L188.555 9.5723C188.107 10.0763 187.561 10.459 186.917 10.7203C186.282 10.9816 185.582 11.1123 184.817 11.1123Z" fill="#483332"/>
<path d="M188.836 11.0003L193.274 1.2003H194.66L199.112 11.0003H197.642L193.68 1.9843H194.24L190.278 11.0003H188.836ZM190.726 8.55031L191.104 7.4303H196.62L197.026 8.55031H190.726Z" fill="#483332"/>
</svg>
