<svg width="594" height="578" viewBox="0 0 594 578" fill="none" xmlns="http://www.w3.org/2000/svg">
<g filter="url(#filter0_d_17_2590)">
<path d="M10 26C10 17.1634 17.1634 10 26 10H568C576.837 10 584 17.1634 584 26V552C584 560.837 576.837 568 568 568H26C17.1635 568 10 560.837 10 552V26Z" fill="white"/>
</g>
<path d="M10 26C10 17.1635 17.1634 10 26 10H568C576.837 10 584 17.1634 584 26V394H10V26Z" fill="#E0E2E6"/>
<path d="M294.372 350.616C294.295 350.394 294.154 350.199 293.965 350.055C293.777 349.91 293.549 349.824 293.311 349.805L286.346 349.261L283.331 342.709C283.235 342.498 283.079 342.319 282.882 342.193C282.684 342.067 282.454 342 282.219 342C281.983 342 281.753 342.067 281.555 342.192C281.358 342.318 281.201 342.497 281.105 342.708L278.091 349.261L271.125 349.805C270.891 349.823 270.668 349.907 270.481 350.047C270.294 350.187 270.153 350.376 270.073 350.593C269.993 350.81 269.978 351.045 270.031 351.27C270.084 351.494 270.201 351.699 270.369 351.86L275.517 356.788L273.696 364.529C273.641 364.764 273.658 365.009 273.747 365.233C273.835 365.458 273.99 365.651 274.192 365.787C274.393 365.924 274.632 365.998 274.877 366C275.122 366.002 275.362 365.931 275.565 365.798L282.218 361.442L288.871 365.798C289.079 365.933 289.325 366.003 289.574 365.998C289.824 365.992 290.066 365.912 290.268 365.768C290.47 365.623 290.622 365.421 290.704 365.189C290.785 364.958 290.793 364.707 290.725 364.471L288.49 356.792L294.032 351.894C294.395 351.572 294.528 351.071 294.372 350.616Z" fill="#C92020"/>
<path d="M541 359C541 361.761 538.761 364 536 364C533.239 364 531 361.761 531 359C531 356.239 533.239 354 536 354C538.761 354 541 356.239 541 359Z" fill="white"/>
<path d="M541 359C541 361.761 538.761 364 536 364C533.239 364 531 361.761 531 359C531 356.239 533.239 354 536 354C538.761 354 541 356.239 541 359Z" fill="white"/>
<path d="M541 359C541 361.761 538.761 364 536 364C533.239 364 531 361.761 531 359C531 356.239 533.239 354 536 354C538.761 354 541 356.239 541 359Z" fill="white"/>
<path d="M556 359C556 361.761 553.761 364 551 364C548.239 364 546 361.761 546 359C546 356.239 548.239 354 551 354C553.761 354 556 356.239 556 359Z" fill="white"/>
<path d="M556 359C556 361.761 553.761 364 551 364C548.239 364 546 361.761 546 359C546 356.239 548.239 354 551 354C553.761 354 556 356.239 556 359Z" fill="white"/>
<path d="M556 359C556 361.761 553.761 364 551 364C548.239 364 546 361.761 546 359C546 356.239 548.239 354 551 354C553.761 354 556 356.239 556 359Z" fill="white"/>
<path d="M526 359C526 361.761 523.761 364 521 364C518.239 364 516 361.761 516 359C516 356.239 518.239 354 521 354C523.761 354 526 356.239 526 359Z" fill="white"/>
<path d="M526 359C526 361.761 523.761 364 521 364C518.239 364 516 361.761 516 359C516 356.239 518.239 354 521 354C523.761 354 526 356.239 526 359Z" fill="white"/>
<path d="M526 359C526 361.761 523.761 364 521 364C518.239 364 516 361.761 516 359C516 356.239 518.239 354 521 354C523.761 354 526 356.239 526 359Z" fill="white"/>
<path d="M511 359C511 361.761 508.761 364 506 364C503.239 364 501 361.761 501 359C501 356.239 503.239 354 506 354C508.761 354 511 356.239 511 359Z" fill="white"/>
<path d="M511 359C511 361.761 508.761 364 506 364C503.239 364 501 361.761 501 359C501 356.239 503.239 354 506 354C508.761 354 511 356.239 511 359Z" fill="white"/>
<path d="M511 359C511 361.761 508.761 364 506 364C503.239 364 501 361.761 501 359C501 356.239 503.239 354 506 354C508.761 354 511 356.239 511 359Z" fill="white"/>
<path d="M112 326C112 346.987 94.9868 364 74 364C53.0132 364 36 346.987 36 326C36 305.013 53.0132 288 74 288C94.9868 288 112 305.013 112 326Z" fill="#C2C6CC"/>
<path d="M134.494 333V320.4H139.948C141.076 320.4 142.048 320.586 142.864 320.958C143.68 321.318 144.31 321.84 144.754 322.524C145.198 323.208 145.42 324.024 145.42 324.972C145.42 325.908 145.198 326.718 144.754 327.402C144.31 328.074 143.68 328.59 142.864 328.95C142.048 329.31 141.076 329.49 139.948 329.49H136.114L137.41 328.212V333H134.494ZM142.504 333L139.354 328.428H142.468L145.654 333H142.504ZM137.41 328.536L136.114 327.168H139.786C140.686 327.168 141.358 326.976 141.802 326.592C142.246 326.196 142.468 325.656 142.468 324.972C142.468 324.276 142.246 323.736 141.802 323.352C141.358 322.968 140.686 322.776 139.786 322.776H136.114L137.41 321.39V328.536Z" fill="#484848"/>
<path d="M152.338 333.144C151.234 333.144 150.262 332.928 149.422 332.496C148.594 332.064 147.952 331.476 147.496 330.732C147.04 329.976 146.812 329.118 146.812 328.158C146.812 327.186 147.034 326.328 147.478 325.584C147.934 324.828 148.552 324.24 149.332 323.82C150.112 323.388 150.994 323.172 151.978 323.172C152.926 323.172 153.778 323.376 154.534 323.784C155.302 324.18 155.908 324.756 156.352 325.512C156.796 326.256 157.018 327.15 157.018 328.194C157.018 328.302 157.012 328.428 157 328.572C156.988 328.704 156.976 328.83 156.964 328.95H149.098V327.312H155.488L154.408 327.798C154.408 327.294 154.306 326.856 154.102 326.484C153.898 326.112 153.616 325.824 153.256 325.62C152.896 325.404 152.476 325.296 151.996 325.296C151.516 325.296 151.09 325.404 150.718 325.62C150.358 325.824 150.076 326.118 149.872 326.502C149.668 326.874 149.566 327.318 149.566 327.834V328.266C149.566 328.794 149.68 329.262 149.908 329.67C150.148 330.066 150.478 330.372 150.898 330.588C151.33 330.792 151.834 330.894 152.41 330.894C152.926 330.894 153.376 330.816 153.76 330.66C154.156 330.504 154.516 330.27 154.84 329.958L156.334 331.578C155.89 332.082 155.332 332.472 154.66 332.748C153.988 333.012 153.214 333.144 152.338 333.144Z" fill="#484848"/>
<path d="M162.146 333.144C161.318 333.144 160.52 333.048 159.752 332.856C158.996 332.652 158.396 332.4 157.952 332.1L158.888 330.084C159.332 330.36 159.854 330.588 160.454 330.768C161.066 330.936 161.666 331.02 162.254 331.02C162.902 331.02 163.358 330.942 163.622 330.786C163.898 330.63 164.036 330.414 164.036 330.138C164.036 329.91 163.928 329.742 163.712 329.634C163.508 329.514 163.232 329.424 162.884 329.364C162.536 329.304 162.152 329.244 161.732 329.184C161.324 329.124 160.91 329.046 160.49 328.95C160.07 328.842 159.686 328.686 159.338 328.482C158.99 328.278 158.708 328.002 158.492 327.654C158.288 327.306 158.186 326.856 158.186 326.304C158.186 325.692 158.36 325.152 158.708 324.684C159.068 324.216 159.584 323.85 160.256 323.586C160.928 323.31 161.732 323.172 162.668 323.172C163.328 323.172 164 323.244 164.684 323.388C165.368 323.532 165.938 323.742 166.394 324.018L165.458 326.016C164.99 325.74 164.516 325.554 164.036 325.458C163.568 325.35 163.112 325.296 162.668 325.296C162.044 325.296 161.588 325.38 161.3 325.548C161.012 325.716 160.868 325.932 160.868 326.196C160.868 326.436 160.97 326.616 161.174 326.736C161.39 326.856 161.672 326.952 162.02 327.024C162.368 327.096 162.746 327.162 163.154 327.222C163.574 327.27 163.994 327.348 164.414 327.456C164.834 327.564 165.212 327.72 165.548 327.924C165.896 328.116 166.178 328.386 166.394 328.734C166.61 329.07 166.718 329.514 166.718 330.066C166.718 330.666 166.538 331.2 166.178 331.668C165.818 332.124 165.296 332.484 164.612 332.748C163.94 333.012 163.118 333.144 162.146 333.144Z" fill="#484848"/>
<path d="M172.41 333.144C171.27 333.144 170.382 332.856 169.746 332.28C169.11 331.692 168.792 330.822 168.792 329.67V321.174H171.6V329.634C171.6 330.042 171.708 330.36 171.924 330.588C172.14 330.804 172.434 330.912 172.806 330.912C173.25 330.912 173.628 330.792 173.94 330.552L174.696 332.532C174.408 332.736 174.06 332.892 173.652 333C173.256 333.096 172.842 333.144 172.41 333.144ZM167.298 325.692V323.532H174.012V325.692H167.298Z" fill="#484848"/>
<path d="M182.213 333V331.11L182.033 330.696V327.312C182.033 326.712 181.847 326.244 181.475 325.908C181.115 325.572 180.557 325.404 179.801 325.404C179.285 325.404 178.775 325.488 178.271 325.656C177.779 325.812 177.359 326.028 177.011 326.304L176.003 324.342C176.531 323.97 177.167 323.682 177.911 323.478C178.655 323.274 179.411 323.172 180.179 323.172C181.655 323.172 182.801 323.52 183.617 324.216C184.433 324.912 184.841 325.998 184.841 327.474V333H182.213ZM179.261 333.144C178.505 333.144 177.857 333.018 177.317 332.766C176.777 332.502 176.363 332.148 176.075 331.704C175.787 331.26 175.643 330.762 175.643 330.21C175.643 329.634 175.781 329.13 176.057 328.698C176.345 328.266 176.795 327.93 177.407 327.69C178.019 327.438 178.817 327.312 179.801 327.312H182.375V328.95H180.107C179.447 328.95 178.991 329.058 178.739 329.274C178.499 329.49 178.379 329.76 178.379 330.084C178.379 330.444 178.517 330.732 178.793 330.948C179.081 331.152 179.471 331.254 179.963 331.254C180.431 331.254 180.851 331.146 181.223 330.93C181.595 330.702 181.865 330.372 182.033 329.94L182.465 331.236C182.261 331.86 181.889 332.334 181.349 332.658C180.809 332.982 180.113 333.144 179.261 333.144Z" fill="#484848"/>
<path d="M191.468 333.144C190.664 333.144 189.944 332.988 189.308 332.676C188.684 332.364 188.198 331.89 187.85 331.254C187.502 330.606 187.328 329.784 187.328 328.788V323.316H190.136V328.374C190.136 329.178 190.304 329.772 190.64 330.156C190.988 330.528 191.474 330.714 192.098 330.714C192.53 330.714 192.914 330.624 193.25 330.444C193.586 330.252 193.85 329.964 194.042 329.58C194.234 329.184 194.33 328.692 194.33 328.104V323.316H197.138V333H194.474V330.336L194.96 331.11C194.636 331.782 194.156 332.292 193.52 332.64C192.896 332.976 192.212 333.144 191.468 333.144Z" fill="#484848"/>
<path d="M199.739 333V323.316H202.421V326.052L202.043 325.26C202.331 324.576 202.793 324.06 203.429 323.712C204.065 323.352 204.839 323.172 205.751 323.172V325.764C205.631 325.752 205.523 325.746 205.427 325.746C205.331 325.734 205.229 325.728 205.121 325.728C204.353 325.728 203.729 325.95 203.249 326.394C202.781 326.826 202.547 327.504 202.547 328.428V333H199.739Z" fill="#484848"/>
<path d="M212.728 333V331.11L212.548 330.696V327.312C212.548 326.712 212.362 326.244 211.99 325.908C211.63 325.572 211.072 325.404 210.316 325.404C209.8 325.404 209.29 325.488 208.786 325.656C208.294 325.812 207.874 326.028 207.526 326.304L206.518 324.342C207.046 323.97 207.682 323.682 208.426 323.478C209.17 323.274 209.926 323.172 210.694 323.172C212.17 323.172 213.316 323.52 214.132 324.216C214.948 324.912 215.356 325.998 215.356 327.474V333H212.728ZM209.776 333.144C209.02 333.144 208.372 333.018 207.832 332.766C207.292 332.502 206.878 332.148 206.59 331.704C206.302 331.26 206.158 330.762 206.158 330.21C206.158 329.634 206.296 329.13 206.572 328.698C206.86 328.266 207.31 327.93 207.922 327.69C208.534 327.438 209.332 327.312 210.316 327.312H212.89V328.95H210.622C209.962 328.95 209.506 329.058 209.254 329.274C209.014 329.49 208.894 329.76 208.894 330.084C208.894 330.444 209.032 330.732 209.308 330.948C209.596 331.152 209.986 331.254 210.478 331.254C210.946 331.254 211.366 331.146 211.738 330.93C212.11 330.702 212.38 330.372 212.548 329.94L212.98 331.236C212.776 331.86 212.404 332.334 211.864 332.658C211.324 332.982 210.628 333.144 209.776 333.144Z" fill="#484848"/>
<path d="M223.784 323.172C224.552 323.172 225.236 323.328 225.836 323.64C226.448 323.94 226.928 324.408 227.276 325.044C227.624 325.668 227.798 326.472 227.798 327.456V333H224.99V327.888C224.99 327.108 224.816 326.532 224.468 326.16C224.132 325.788 223.652 325.602 223.028 325.602C222.584 325.602 222.182 325.698 221.822 325.89C221.474 326.07 221.198 326.352 220.994 326.736C220.802 327.12 220.706 327.612 220.706 328.212V333H217.898V323.316H220.58V325.998L220.076 325.188C220.424 324.54 220.922 324.042 221.57 323.694C222.218 323.346 222.956 323.172 223.784 323.172Z" fill="#484848"/>
<path d="M234.303 333.144C233.163 333.144 232.275 332.856 231.639 332.28C231.003 331.692 230.685 330.822 230.685 329.67V321.174H233.493V329.634C233.493 330.042 233.601 330.36 233.817 330.588C234.033 330.804 234.327 330.912 234.699 330.912C235.143 330.912 235.521 330.792 235.833 330.552L236.589 332.532C236.301 332.736 235.953 332.892 235.545 333C235.149 333.096 234.735 333.144 234.303 333.144ZM229.191 325.692V323.532H235.905V325.692H229.191Z" fill="#484848"/>
<path d="M246.755 333.216C245.879 333.216 245.009 333.102 244.145 332.874C243.281 332.634 242.549 332.298 241.949 331.866L243.083 329.634C243.563 329.982 244.121 330.258 244.757 330.462C245.393 330.666 246.035 330.768 246.683 330.768C247.415 330.768 247.991 330.624 248.411 330.336C248.831 330.048 249.041 329.652 249.041 329.148C249.041 328.668 248.855 328.29 248.483 328.014C248.111 327.738 247.511 327.6 246.683 327.6H245.351V325.674L248.861 321.696L249.185 322.74H242.579V320.4H251.399V322.29L247.907 326.268L246.431 325.422H247.277C248.825 325.422 249.995 325.77 250.787 326.466C251.579 327.162 251.975 328.056 251.975 329.148C251.975 329.856 251.789 330.522 251.417 331.146C251.045 331.758 250.475 332.256 249.707 332.64C248.939 333.024 247.955 333.216 246.755 333.216Z" fill="#484848"/>
<path d="M261.372 350.616C261.295 350.394 261.154 350.199 260.965 350.055C260.777 349.91 260.549 349.824 260.311 349.805L253.346 349.261L250.331 342.709C250.235 342.498 250.079 342.319 249.882 342.193C249.684 342.067 249.454 342 249.219 342C248.983 342 248.753 342.067 248.555 342.192C248.358 342.318 248.201 342.497 248.105 342.708L245.091 349.261L238.125 349.805C237.891 349.823 237.668 349.907 237.481 350.047C237.294 350.187 237.153 350.376 237.073 350.593C236.993 350.81 236.978 351.045 237.031 351.27C237.084 351.494 237.201 351.699 237.369 351.86L242.517 356.788L240.696 364.529C240.641 364.764 240.658 365.009 240.747 365.233C240.835 365.458 240.99 365.651 241.192 365.787C241.393 365.924 241.632 365.998 241.877 366C242.122 366.002 242.362 365.931 242.565 365.798L249.218 361.442L255.871 365.798C256.079 365.933 256.325 366.003 256.574 365.998C256.824 365.992 257.066 365.912 257.268 365.768C257.47 365.623 257.622 365.421 257.704 365.189C257.785 364.958 257.793 364.707 257.725 364.471L255.49 356.792L261.032 351.894C261.395 351.572 261.528 351.071 261.372 350.616Z" fill="#C92020"/>
<path d="M158.372 350.616C158.295 350.394 158.154 350.199 157.965 350.055C157.777 349.91 157.549 349.824 157.311 349.805L150.346 349.261L147.331 342.709C147.235 342.498 147.079 342.319 146.882 342.193C146.684 342.067 146.454 342 146.219 342C145.983 342 145.753 342.067 145.555 342.192C145.358 342.318 145.201 342.497 145.105 342.708L142.091 349.261L135.125 349.805C134.891 349.823 134.668 349.907 134.481 350.047C134.294 350.187 134.153 350.376 134.073 350.593C133.993 350.81 133.978 351.045 134.031 351.27C134.084 351.494 134.201 351.699 134.369 351.86L139.517 356.788L137.696 364.529C137.641 364.764 137.658 365.009 137.747 365.233C137.835 365.458 137.99 365.651 138.192 365.787C138.393 365.924 138.632 365.998 138.877 366C139.122 366.002 139.362 365.931 139.565 365.798L146.218 361.442L152.871 365.798C153.079 365.933 153.325 366.003 153.574 365.998C153.824 365.992 154.066 365.912 154.268 365.768C154.47 365.623 154.622 365.421 154.704 365.189C154.785 364.958 154.793 364.707 154.725 364.471L152.49 356.792L158.032 351.894C158.395 351.572 158.528 351.071 158.372 350.616Z" fill="#C92020"/>
<path d="M195.026 350.616C194.95 350.394 194.808 350.199 194.62 350.055C194.431 349.91 194.204 349.824 193.966 349.805L187 349.261L183.986 342.709C183.89 342.498 183.734 342.319 183.536 342.193C183.339 342.067 183.109 342 182.873 342C182.638 342 182.407 342.067 182.21 342.192C182.012 342.318 181.856 342.497 181.76 342.708L178.745 349.261L171.78 349.805C171.546 349.823 171.322 349.907 171.135 350.047C170.949 350.187 170.807 350.376 170.727 350.593C170.647 350.81 170.633 351.045 170.686 351.27C170.738 351.494 170.855 351.699 171.024 351.86L176.171 356.788L174.351 364.529C174.295 364.764 174.313 365.009 174.401 365.233C174.49 365.458 174.645 365.651 174.846 365.787C175.048 365.924 175.287 365.998 175.532 366C175.777 366.002 176.016 365.931 176.22 365.798L182.873 361.442L189.526 365.798C189.734 365.933 189.979 366.003 190.229 365.998C190.479 365.992 190.721 365.912 190.923 365.768C191.125 365.623 191.277 365.421 191.358 365.189C191.44 364.958 191.447 364.707 191.379 364.471L189.144 356.792L194.687 351.894C195.05 351.572 195.183 351.071 195.026 350.616Z" fill="#C92020"/>
<path d="M229.935 350.616C229.859 350.394 229.717 350.199 229.529 350.055C229.34 349.91 229.113 349.824 228.875 349.805L221.909 349.261L218.895 342.709C218.799 342.498 218.643 342.319 218.445 342.193C218.248 342.067 218.018 342 217.782 342C217.547 342 217.317 342.067 217.119 342.192C216.921 342.318 216.765 342.497 216.669 342.708L213.655 349.261L206.689 349.805C206.455 349.823 206.231 349.907 206.045 350.047C205.858 350.187 205.716 350.376 205.636 350.593C205.557 350.81 205.542 351.045 205.595 351.27C205.647 351.494 205.765 351.699 205.933 351.86L211.08 356.788L209.26 364.529C209.204 364.764 209.222 365.009 209.311 365.233C209.399 365.458 209.554 365.651 209.756 365.787C209.957 365.924 210.196 365.998 210.441 366C210.686 366.002 210.925 365.931 211.129 365.798L217.782 361.442L224.435 365.798C224.643 365.933 224.888 366.003 225.138 365.998C225.388 365.992 225.63 365.912 225.832 365.768C226.034 365.623 226.186 365.421 226.267 365.189C226.349 364.958 226.356 364.707 226.288 364.471L224.054 356.792L229.596 351.894C229.959 351.572 230.092 351.071 229.935 350.616Z" fill="#C92020"/>
<path fill-rule="evenodd" clip-rule="evenodd" d="M549.077 37.1164C550.063 36.7078 551.12 36.4976 552.188 36.4976C553.255 36.4976 554.312 36.7078 555.298 37.1164C556.284 37.5249 557.179 38.1236 557.934 38.8782C558.689 39.6328 559.287 40.5286 559.696 41.5147C560.105 42.5007 560.315 43.5575 560.315 44.6248C560.315 45.6922 560.105 46.749 559.696 47.735C559.287 48.721 558.689 49.6167 557.934 50.3712C557.934 50.3713 557.934 50.3712 557.934 50.3712L546.884 61.4212C546.396 61.9094 545.604 61.9094 545.116 61.4212L534.066 50.3712C532.542 48.8472 531.686 46.7802 531.686 44.6248C531.686 42.4695 532.542 40.4025 534.066 38.8785C535.59 37.3544 537.657 36.4982 539.813 36.4982C541.968 36.4982 544.035 37.3544 545.559 38.8785L546 39.3196L546.441 38.8787C546.441 38.8787 546.441 38.8786 546.441 38.8787C547.195 38.1239 548.091 37.5249 549.077 37.1164ZM552.188 38.9976C551.449 38.9976 550.717 39.1431 550.034 39.426C549.352 39.7088 548.731 40.1234 548.209 40.646L546.884 41.9712C546.396 42.4594 545.604 42.4594 545.116 41.9712L543.791 40.6462C542.736 39.591 541.305 38.9982 539.813 38.9982C538.32 38.9982 536.889 39.591 535.834 40.6462C534.779 41.7014 534.186 43.1326 534.186 44.6248C534.186 46.1171 534.779 47.5483 535.834 48.6035L546 58.7696L556.166 48.6035C556.689 48.0811 557.104 47.4607 557.386 46.778C557.669 46.0954 557.815 45.3637 557.815 44.6248C557.815 43.8859 557.669 43.1543 557.386 42.4716C557.104 41.789 556.689 41.1688 556.166 40.6464C555.644 40.1238 555.023 39.7088 554.341 39.426C553.658 39.1431 552.926 38.9976 552.188 38.9976Z" fill="#9A9A9A"/>
<defs>
<filter id="filter0_d_17_2590" x="0" y="0" width="594" height="578" filterUnits="userSpaceOnUse" color-interpolation-filters="sRGB">
<feFlood flood-opacity="0" result="BackgroundImageFix"/>
<feColorMatrix in="SourceAlpha" type="matrix" values="0 0 0 0 0 0 0 0 0 0 0 0 0 0 0 0 0 0 127 0" result="hardAlpha"/>
<feOffset/>
<feGaussianBlur stdDeviation="5"/>
<feComposite in2="hardAlpha" operator="out"/>
<feColorMatrix type="matrix" values="0 0 0 0 0.898039 0 0 0 0 0.898039 0 0 0 0 0.898039 0 0 0 1 0"/>
<feBlend mode="normal" in2="BackgroundImageFix" result="effect1_dropShadow_17_2590"/>
<feBlend mode="normal" in="SourceGraphic" in2="effect1_dropShadow_17_2590" result="shape"/>
</filter>
</defs>
</svg>
