<svg width="200" height="14" viewBox="0 0 200 14" fill="none" xmlns="http://www.w3.org/2000/svg">
<path d="M2.324 11.0001V1.76006L2.926 2.41806H0.112V1.20006H3.71V11.0001H2.324Z" fill="#483332"/>
<path d="M9.85764 11.1121C9.09231 11.1121 8.40631 10.9161 7.79964 10.5241C7.20231 10.1321 6.72631 9.56273 6.37164 8.81606C6.02631 8.06939 5.85364 7.16406 5.85364 6.10006C5.85364 5.03606 6.02631 4.13073 6.37164 3.38406C6.72631 2.63739 7.20231 2.06806 7.79964 1.67606C8.40631 1.28406 9.09231 1.08806 9.85764 1.08806C10.6136 1.08806 11.295 1.28406 11.9016 1.67606C12.5083 2.06806 12.9843 2.63739 13.3296 3.38406C13.675 4.13073 13.8476 5.03606 13.8476 6.10006C13.8476 7.16406 13.675 8.06939 13.3296 8.81606C12.9843 9.56273 12.5083 10.1321 11.9016 10.5241C11.295 10.9161 10.6136 11.1121 9.85764 11.1121ZM9.85764 9.86606C10.371 9.86606 10.819 9.72606 11.2016 9.44606C11.5936 9.16606 11.897 8.74606 12.1116 8.18606C12.3356 7.62606 12.4476 6.93073 12.4476 6.10006C12.4476 5.26939 12.3356 4.57406 12.1116 4.01406C11.897 3.45406 11.5936 3.03406 11.2016 2.75406C10.819 2.47406 10.371 2.33406 9.85764 2.33406C9.34431 2.33406 8.89164 2.47406 8.49964 2.75406C8.10764 3.03406 7.79964 3.45406 7.57564 4.01406C7.36097 4.57406 7.25364 5.26939 7.25364 6.10006C7.25364 6.93073 7.36097 7.62606 7.57564 8.18606C7.79964 8.74606 8.10764 9.16606 8.49964 9.44606C8.89164 9.72606 9.34431 9.86606 9.85764 9.86606Z" fill="#483332"/>
<path d="M19.1955 11.1121C18.4302 11.1121 17.7442 10.9161 17.1375 10.5241C16.5402 10.1321 16.0642 9.56273 15.7095 8.81606C15.3642 8.06939 15.1915 7.16406 15.1915 6.10006C15.1915 5.03606 15.3642 4.13073 15.7095 3.38406C16.0642 2.63739 16.5402 2.06806 17.1375 1.67606C17.7442 1.28406 18.4302 1.08806 19.1955 1.08806C19.9515 1.08806 20.6329 1.28406 21.2395 1.67606C21.8462 2.06806 22.3222 2.63739 22.6675 3.38406C23.0129 4.13073 23.1855 5.03606 23.1855 6.10006C23.1855 7.16406 23.0129 8.06939 22.6675 8.81606C22.3222 9.56273 21.8462 10.1321 21.2395 10.5241C20.6329 10.9161 19.9515 11.1121 19.1955 11.1121ZM19.1955 9.86606C19.7089 9.86606 20.1569 9.72606 20.5395 9.44606C20.9315 9.16606 21.2349 8.74606 21.4495 8.18606C21.6735 7.62606 21.7855 6.93073 21.7855 6.10006C21.7855 5.26939 21.6735 4.57406 21.4495 4.01406C21.2349 3.45406 20.9315 3.03406 20.5395 2.75406C20.1569 2.47406 19.7089 2.33406 19.1955 2.33406C18.6822 2.33406 18.2295 2.47406 17.8375 2.75406C17.4455 3.03406 17.1375 3.45406 16.9135 4.01406C16.6989 4.57406 16.5915 5.26939 16.5915 6.10006C16.5915 6.93073 16.6989 7.62606 16.9135 8.18606C17.1375 8.74606 17.4455 9.16606 17.8375 9.44606C18.2295 9.72606 18.6822 9.86606 19.1955 9.86606Z" fill="#483332"/>
<path d="M30.3472 5.83406H35.4012V7.03806H30.3472V5.83406ZM30.4872 11.0001H29.0872V1.20006H36.0032V2.41806H30.4872V11.0001Z" fill="#483332"/>
<path d="M40.7235 11.0841C39.9768 11.0841 39.3142 10.9207 38.7355 10.5941C38.1568 10.2674 37.6995 9.81939 37.3635 9.25006C37.0275 8.67139 36.8595 8.01806 36.8595 7.29006C36.8595 6.55273 37.0275 5.89939 37.3635 5.33006C37.6995 4.76073 38.1568 4.31739 38.7355 4.00006C39.3142 3.67339 39.9768 3.51006 40.7235 3.51006C41.4608 3.51006 42.1188 3.67339 42.6975 4.00006C43.2855 4.31739 43.7428 4.76073 44.0695 5.33006C44.4055 5.89006 44.5735 6.54339 44.5735 7.29006C44.5735 8.02739 44.4055 8.68073 44.0695 9.25006C43.7428 9.81939 43.2855 10.2674 42.6975 10.5941C42.1188 10.9207 41.4608 11.0841 40.7235 11.0841ZM40.7235 9.90806C41.1995 9.90806 41.6242 9.80073 41.9975 9.58606C42.3802 9.37139 42.6788 9.06806 42.8935 8.67606C43.1082 8.27473 43.2155 7.81273 43.2155 7.29006C43.2155 6.75806 43.1082 6.30073 42.8935 5.91806C42.6788 5.52606 42.3802 5.22273 41.9975 5.00806C41.6242 4.79339 41.1995 4.68606 40.7235 4.68606C40.2475 4.68606 39.8228 4.79339 39.4495 5.00806C39.0762 5.22273 38.7775 5.52606 38.5535 5.91806C38.3295 6.30073 38.2175 6.75806 38.2175 7.29006C38.2175 7.81273 38.3295 8.27473 38.5535 8.67606C38.7775 9.06806 39.0762 9.37139 39.4495 9.58606C39.8228 9.80073 40.2475 9.90806 40.7235 9.90806Z" fill="#483332"/>
<path d="M49.6102 11.0841C48.8635 11.0841 48.2009 10.9207 47.6222 10.5941C47.0435 10.2674 46.5862 9.81939 46.2502 9.25006C45.9142 8.67139 45.7462 8.01806 45.7462 7.29006C45.7462 6.55273 45.9142 5.89939 46.2502 5.33006C46.5862 4.76073 47.0435 4.31739 47.6222 4.00006C48.2009 3.67339 48.8635 3.51006 49.6102 3.51006C50.3475 3.51006 51.0055 3.67339 51.5842 4.00006C52.1722 4.31739 52.6295 4.76073 52.9562 5.33006C53.2922 5.89006 53.4602 6.54339 53.4602 7.29006C53.4602 8.02739 53.2922 8.68073 52.9562 9.25006C52.6295 9.81939 52.1722 10.2674 51.5842 10.5941C51.0055 10.9207 50.3475 11.0841 49.6102 11.0841ZM49.6102 9.90806C50.0862 9.90806 50.5109 9.80073 50.8842 9.58606C51.2669 9.37139 51.5655 9.06806 51.7802 8.67606C51.9949 8.27473 52.1022 7.81273 52.1022 7.29006C52.1022 6.75806 51.9949 6.30073 51.7802 5.91806C51.5655 5.52606 51.2669 5.22273 50.8842 5.00806C50.5109 4.79339 50.0862 4.68606 49.6102 4.68606C49.1342 4.68606 48.7095 4.79339 48.3362 5.00806C47.9629 5.22273 47.6642 5.52606 47.4402 5.91806C47.2162 6.30073 47.1042 6.75806 47.1042 7.29006C47.1042 7.81273 47.2162 8.27473 47.4402 8.67606C47.6642 9.06806 47.9629 9.37139 48.3362 9.58606C48.7095 9.80073 49.1342 9.90806 49.6102 9.90806Z" fill="#483332"/>
<path d="M58.3849 11.0841C57.6663 11.0841 57.0223 10.9254 56.4529 10.6081C55.8929 10.2907 55.4496 9.84739 55.1229 9.27806C54.7963 8.70873 54.6329 8.04606 54.6329 7.29006C54.6329 6.53406 54.7963 5.87606 55.1229 5.31606C55.4496 4.74673 55.8929 4.30339 56.4529 3.98606C57.0223 3.66873 57.6663 3.51006 58.3849 3.51006C59.0103 3.51006 59.5749 3.65006 60.0789 3.93006C60.5829 4.21006 60.9843 4.63006 61.2829 5.19006C61.5909 5.75006 61.7449 6.45006 61.7449 7.29006C61.7449 8.13006 61.5956 8.83006 61.2969 9.39006C61.0076 9.95006 60.6109 10.3747 60.1069 10.6641C59.6029 10.9441 59.0289 11.0841 58.3849 11.0841ZM58.4969 9.90806C58.9636 9.90806 59.3836 9.80073 59.7569 9.58606C60.1396 9.37139 60.4383 9.06806 60.6529 8.67606C60.8769 8.27473 60.9889 7.81273 60.9889 7.29006C60.9889 6.75806 60.8769 6.30073 60.6529 5.91806C60.4383 5.52606 60.1396 5.22273 59.7569 5.00806C59.3836 4.79339 58.9636 4.68606 58.4969 4.68606C58.0209 4.68606 57.5963 4.79339 57.2229 5.00806C56.8496 5.22273 56.5509 5.52606 56.3269 5.91806C56.1029 6.30073 55.9909 6.75806 55.9909 7.29006C55.9909 7.81273 56.1029 8.27473 56.3269 8.67606C56.5509 9.06806 56.8496 9.37139 57.2229 9.58606C57.5963 9.80073 58.0209 9.90806 58.4969 9.90806ZM61.0309 11.0001V8.99806L61.1149 7.27606L60.9749 5.55406V0.612061H62.3189V11.0001H61.0309Z" fill="#483332"/>
<path d="M71.6737 11.1121C70.927 11.1121 70.213 11.0001 69.5317 10.7761C68.8503 10.5427 68.3137 10.2441 67.9217 9.88006L68.4397 8.78806C68.813 9.11473 69.289 9.3854 69.8677 9.60006C70.4463 9.81473 71.0483 9.92206 71.6737 9.92206C72.243 9.92206 72.705 9.85673 73.0597 9.72606C73.4143 9.59539 73.6757 9.41806 73.8437 9.19406C74.0117 8.96073 74.0957 8.69939 74.0957 8.41006C74.0957 8.07406 73.9837 7.80339 73.7597 7.59806C73.545 7.39273 73.2603 7.22939 72.9057 7.10806C72.5603 6.97739 72.1777 6.86539 71.7577 6.77206C71.3377 6.67873 70.913 6.57139 70.4837 6.45006C70.0637 6.31939 69.6763 6.15606 69.3217 5.96006C68.9763 5.76406 68.6963 5.50273 68.4817 5.17606C68.267 4.84006 68.1597 4.41073 68.1597 3.88806C68.1597 3.38406 68.2903 2.92206 68.5517 2.50206C68.8223 2.07273 69.233 1.73206 69.7837 1.48006C70.3437 1.21873 71.053 1.08806 71.9117 1.08806C72.481 1.08806 73.0457 1.16273 73.6057 1.31206C74.1657 1.46139 74.651 1.67606 75.0617 1.95606L74.5997 3.07606C74.1797 2.79606 73.7363 2.59539 73.2697 2.47406C72.803 2.34339 72.3503 2.27806 71.9117 2.27806C71.361 2.27806 70.9083 2.34806 70.5537 2.48806C70.199 2.62806 69.9377 2.81473 69.7697 3.04806C69.611 3.28139 69.5317 3.54273 69.5317 3.83206C69.5317 4.17739 69.639 4.45273 69.8537 4.65806C70.0777 4.86339 70.3623 5.02673 70.7077 5.14806C71.0623 5.26939 71.4497 5.38139 71.8697 5.48406C72.2897 5.57739 72.7097 5.68473 73.1297 5.80606C73.559 5.92739 73.9463 6.08606 74.2917 6.28206C74.6463 6.47806 74.931 6.73939 75.1457 7.06606C75.3603 7.39273 75.4677 7.81273 75.4677 8.32606C75.4677 8.82073 75.3323 9.28273 75.0617 9.71206C74.791 10.1321 74.371 10.4727 73.8017 10.7341C73.2417 10.9861 72.5323 11.1121 71.6737 11.1121Z" fill="#483332"/>
<path d="M79.865 11.0841C79.1183 11.0841 78.5396 10.8834 78.129 10.4821C77.7183 10.0807 77.513 9.50673 77.513 8.76006V1.95606H78.857V8.70406C78.857 9.10539 78.955 9.41339 79.151 9.62806C79.3563 9.84273 79.6456 9.95006 80.019 9.95006C80.439 9.95006 80.789 9.8334 81.069 9.60006L81.489 10.5661C81.2836 10.7434 81.0363 10.8741 80.747 10.9581C80.467 11.0421 80.173 11.0841 79.865 11.0841ZM76.253 4.68606V3.58006H80.985V4.68606H76.253Z" fill="#483332"/>
<path d="M83.1138 11.0001V3.58006H84.4018V5.59606L84.2758 5.09206C84.4812 4.57873 84.8265 4.18673 85.3118 3.91606C85.7972 3.64539 86.3945 3.51006 87.1038 3.51006V4.81206C87.0478 4.80273 86.9918 4.79806 86.9358 4.79806C86.8892 4.79806 86.8425 4.79806 86.7958 4.79806C86.0772 4.79806 85.5078 5.01273 85.0878 5.44206C84.6678 5.87139 84.4578 6.49206 84.4578 7.30406V11.0001H83.1138Z" fill="#483332"/>
<path d="M91.996 11.0841C91.2026 11.0841 90.5026 10.9207 89.896 10.5941C89.2986 10.2674 88.832 9.81939 88.496 9.25006C88.1693 8.68073 88.006 8.02739 88.006 7.29006C88.006 6.55273 88.1646 5.89939 88.482 5.33006C88.8086 4.76073 89.252 4.31739 89.812 4.00006C90.3813 3.67339 91.0206 3.51006 91.73 3.51006C92.4486 3.51006 93.0833 3.66873 93.634 3.98606C94.1846 4.30339 94.614 4.75139 94.922 5.33006C95.2393 5.89939 95.398 6.56673 95.398 7.33206C95.398 7.38806 95.3933 7.45339 95.384 7.52806C95.384 7.60273 95.3793 7.67273 95.37 7.73806H89.056V6.77206H94.67L94.124 7.10806C94.1333 6.63206 94.0353 6.20739 93.83 5.83406C93.6246 5.46073 93.34 5.17139 92.976 4.96606C92.6213 4.75139 92.206 4.64406 91.73 4.64406C91.2633 4.64406 90.848 4.75139 90.484 4.96606C90.12 5.17139 89.8353 5.46539 89.63 5.84806C89.4246 6.22139 89.322 6.65073 89.322 7.13606V7.36006C89.322 7.85473 89.434 8.29806 89.658 8.69006C89.8913 9.07273 90.2133 9.37139 90.624 9.58606C91.0346 9.80073 91.506 9.90806 92.038 9.90806C92.4766 9.90806 92.8733 9.83339 93.228 9.68406C93.592 9.53473 93.9093 9.31073 94.18 9.01206L94.922 9.88006C94.586 10.2721 94.166 10.5707 93.662 10.7761C93.1673 10.9814 92.612 11.0841 91.996 11.0841Z" fill="#483332"/>
<path d="M100.568 11.0841C99.7749 11.0841 99.0749 10.9207 98.4682 10.5941C97.8709 10.2674 97.4042 9.81939 97.0682 9.25006C96.7416 8.68073 96.5782 8.02739 96.5782 7.29006C96.5782 6.55273 96.7369 5.89939 97.0542 5.33006C97.3809 4.76073 97.8242 4.31739 98.3842 4.00006C98.9536 3.67339 99.5929 3.51006 100.302 3.51006C101.021 3.51006 101.656 3.66873 102.206 3.98606C102.757 4.30339 103.186 4.75139 103.494 5.33006C103.812 5.89939 103.97 6.56673 103.97 7.33206C103.97 7.38806 103.966 7.45339 103.956 7.52806C103.956 7.60273 103.952 7.67273 103.942 7.73806H97.6282V6.77206H103.242L102.696 7.10806C102.706 6.63206 102.608 6.20739 102.402 5.83406C102.197 5.46073 101.912 5.17139 101.548 4.96606C101.194 4.75139 100.778 4.64406 100.302 4.64406C99.8356 4.64406 99.4202 4.75139 99.0562 4.96606C98.6922 5.17139 98.4076 5.46539 98.2022 5.84806C97.9969 6.22139 97.8942 6.65073 97.8942 7.13606V7.36006C97.8942 7.85473 98.0062 8.29806 98.2302 8.69006C98.4636 9.07273 98.7856 9.37139 99.1962 9.58606C99.6069 9.80073 100.078 9.90806 100.61 9.90806C101.049 9.90806 101.446 9.83339 101.8 9.68406C102.164 9.53473 102.482 9.31073 102.752 9.01206L103.494 9.88006C103.158 10.2721 102.738 10.5707 102.234 10.7761C101.74 10.9814 101.184 11.0841 100.568 11.0841Z" fill="#483332"/>
<path d="M108.384 11.0841C107.638 11.0841 107.059 10.8834 106.648 10.4821C106.238 10.0807 106.033 9.50673 106.033 8.76006V1.95606H107.377V8.70406C107.377 9.10539 107.475 9.41339 107.671 9.62806C107.876 9.84273 108.165 9.95006 108.538 9.95006C108.958 9.95006 109.309 9.8334 109.589 9.60006L110.008 10.5661C109.803 10.7434 109.556 10.8741 109.267 10.9581C108.987 11.0421 108.692 11.0841 108.384 11.0841ZM104.772 4.68606V3.58006H109.505V4.68606H104.772Z" fill="#483332"/>
<path d="M111.238 13.0721L111.938 10.2441L112.12 11.0561C111.849 11.0561 111.621 10.9721 111.434 10.8041C111.257 10.6361 111.168 10.4074 111.168 10.1181C111.168 9.83806 111.257 9.60939 111.434 9.43206C111.621 9.25473 111.845 9.16606 112.106 9.16606C112.377 9.16606 112.596 9.25939 112.764 9.44606C112.932 9.62339 113.016 9.84739 113.016 10.1181C113.016 10.2114 113.007 10.3047 112.988 10.3981C112.979 10.4821 112.955 10.5847 112.918 10.7061C112.89 10.8181 112.843 10.9581 112.778 11.1261L112.12 13.0721H111.238Z" fill="#483332"/>
<path d="M120.844 11.0001V2.41806H117.484V1.20006H125.59V2.41806H122.23V11.0001H120.844Z" fill="#483332"/>
<path d="M129.331 11.0841C128.584 11.0841 127.922 10.9207 127.343 10.5941C126.764 10.2674 126.307 9.81939 125.971 9.25006C125.635 8.67139 125.467 8.01806 125.467 7.29006C125.467 6.55273 125.635 5.89939 125.971 5.33006C126.307 4.76073 126.764 4.31739 127.343 4.00006C127.922 3.67339 128.584 3.51006 129.331 3.51006C130.068 3.51006 130.726 3.67339 131.305 4.00006C131.893 4.31739 132.35 4.76073 132.677 5.33006C133.013 5.89006 133.181 6.54339 133.181 7.29006C133.181 8.02739 133.013 8.68073 132.677 9.25006C132.35 9.81939 131.893 10.2674 131.305 10.5941C130.726 10.9207 130.068 11.0841 129.331 11.0841ZM129.331 9.90806C129.807 9.90806 130.232 9.80073 130.605 9.58606C130.988 9.37139 131.286 9.06806 131.501 8.67606C131.716 8.27473 131.823 7.81273 131.823 7.29006C131.823 6.75806 131.716 6.30073 131.501 5.91806C131.286 5.52606 130.988 5.22273 130.605 5.00806C130.232 4.79339 129.807 4.68606 129.331 4.68606C128.855 4.68606 128.43 4.79339 128.057 5.00806C127.684 5.22273 127.385 5.52606 127.161 5.91806C126.937 6.30073 126.825 6.75806 126.825 7.29006C126.825 7.81273 126.937 8.27473 127.161 8.67606C127.385 9.06806 127.684 9.37139 128.057 9.58606C128.43 9.80073 128.855 9.90806 129.331 9.90806Z" fill="#483332"/>
<path d="M135.04 11.0001V3.58006H136.328V5.59606L136.202 5.09206C136.407 4.57873 136.752 4.18673 137.238 3.91606C137.723 3.64539 138.32 3.51006 139.03 3.51006V4.81206C138.974 4.80273 138.918 4.79806 138.862 4.79806C138.815 4.79806 138.768 4.79806 138.722 4.79806C138.003 4.79806 137.434 5.01273 137.014 5.44206C136.594 5.87139 136.384 6.49206 136.384 7.30406V11.0001H135.04Z" fill="#483332"/>
<path d="M143.796 11.0841C143.049 11.0841 142.386 10.9207 141.808 10.5941C141.229 10.2674 140.772 9.81939 140.436 9.25006C140.1 8.67139 139.932 8.01806 139.932 7.29006C139.932 6.55273 140.1 5.89939 140.436 5.33006C140.772 4.76073 141.229 4.31739 141.808 4.00006C142.386 3.67339 143.049 3.51006 143.796 3.51006C144.533 3.51006 145.191 3.67339 145.77 4.00006C146.358 4.31739 146.815 4.76073 147.142 5.33006C147.478 5.89006 147.646 6.54339 147.646 7.29006C147.646 8.02739 147.478 8.68073 147.142 9.25006C146.815 9.81939 146.358 10.2674 145.77 10.5941C145.191 10.9207 144.533 11.0841 143.796 11.0841ZM143.796 9.90806C144.272 9.90806 144.696 9.80073 145.07 9.58606C145.452 9.37139 145.751 9.06806 145.966 8.67606C146.18 8.27473 146.288 7.81273 146.288 7.29006C146.288 6.75806 146.18 6.30073 145.966 5.91806C145.751 5.52606 145.452 5.22273 145.07 5.00806C144.696 4.79339 144.272 4.68606 143.796 4.68606C143.32 4.68606 142.895 4.79339 142.522 5.00806C142.148 5.22273 141.85 5.52606 141.626 5.91806C141.402 6.30073 141.29 6.75806 141.29 7.29006C141.29 7.81273 141.402 8.27473 141.626 8.67606C141.85 9.06806 142.148 9.37139 142.522 9.58606C142.895 9.80073 143.32 9.90806 143.796 9.90806Z" fill="#483332"/>
<path d="M153.466 3.51006C154.073 3.51006 154.605 3.62673 155.062 3.86006C155.529 4.09339 155.893 4.44806 156.154 4.92406C156.416 5.40006 156.546 6.00206 156.546 6.73006V11.0001H155.202V6.88406C155.202 6.16539 155.025 5.62406 154.67 5.26006C154.325 4.89606 153.835 4.71406 153.2 4.71406C152.724 4.71406 152.309 4.80739 151.954 4.99406C151.6 5.18073 151.324 5.45606 151.128 5.82006C150.942 6.18406 150.848 6.63673 150.848 7.17806V11.0001H149.504V3.58006H150.792V5.58206L150.582 5.05006C150.825 4.56473 151.198 4.18673 151.702 3.91606C152.206 3.64539 152.794 3.51006 153.466 3.51006Z" fill="#483332"/>
<path d="M161.582 11.0841C160.835 11.0841 160.256 10.8834 159.846 10.4821C159.435 10.0807 159.23 9.50673 159.23 8.76006V1.95606H160.574V8.70406C160.574 9.10539 160.672 9.41339 160.868 9.62806C161.073 9.84273 161.362 9.95006 161.736 9.95006C162.156 9.95006 162.506 9.8334 162.786 9.60006L163.206 10.5661C163 10.7434 162.753 10.8741 162.464 10.9581C162.184 11.0421 161.89 11.0841 161.582 11.0841ZM157.97 4.68606V3.58006H162.702V4.68606H157.97Z" fill="#483332"/>
<path d="M167.763 11.0841C167.016 11.0841 166.353 10.9207 165.775 10.5941C165.196 10.2674 164.739 9.81939 164.403 9.25006C164.067 8.67139 163.899 8.01806 163.899 7.29006C163.899 6.55273 164.067 5.89939 164.403 5.33006C164.739 4.76073 165.196 4.31739 165.775 4.00006C166.353 3.67339 167.016 3.51006 167.763 3.51006C168.5 3.51006 169.158 3.67339 169.737 4.00006C170.325 4.31739 170.782 4.76073 171.109 5.33006C171.445 5.89006 171.613 6.54339 171.613 7.29006C171.613 8.02739 171.445 8.68073 171.109 9.25006C170.782 9.81939 170.325 10.2674 169.737 10.5941C169.158 10.9207 168.5 11.0841 167.763 11.0841ZM167.763 9.90806C168.239 9.90806 168.663 9.80073 169.037 9.58606C169.419 9.37139 169.718 9.06806 169.933 8.67606C170.147 8.27473 170.255 7.81273 170.255 7.29006C170.255 6.75806 170.147 6.30073 169.933 5.91806C169.718 5.52606 169.419 5.22273 169.037 5.00806C168.663 4.79339 168.239 4.68606 167.763 4.68606C167.287 4.68606 166.862 4.79339 166.489 5.00806C166.115 5.22273 165.817 5.52606 165.593 5.91806C165.369 6.30073 165.257 6.75806 165.257 7.29006C165.257 7.81273 165.369 8.27473 165.593 8.67606C165.817 9.06806 166.115 9.37139 166.489 9.58606C166.862 9.80073 167.287 9.90806 167.763 9.90806Z" fill="#483332"/>
<path d="M172.775 13.0721L173.475 10.2441L173.657 11.0561C173.387 11.0561 173.158 10.9721 172.971 10.8041C172.794 10.6361 172.705 10.4074 172.705 10.1181C172.705 9.83806 172.794 9.60939 172.971 9.43206C173.158 9.25473 173.382 9.16606 173.643 9.16606C173.914 9.16606 174.133 9.25939 174.301 9.44606C174.469 9.62339 174.553 9.84739 174.553 10.1181C174.553 10.2114 174.544 10.3047 174.525 10.3981C174.516 10.4821 174.493 10.5847 174.455 10.7061C174.427 10.8181 174.381 10.9581 174.315 11.1261L173.657 13.0721H172.775Z" fill="#483332"/>
<path d="M184.817 11.1121C184.07 11.1121 183.38 10.9907 182.745 10.7481C182.12 10.4961 181.574 10.1461 181.107 9.69806C180.65 9.24073 180.29 8.70873 180.029 8.10206C179.768 7.49539 179.637 6.82806 179.637 6.10006C179.637 5.37206 179.768 4.70473 180.029 4.09806C180.29 3.49139 180.654 2.96406 181.121 2.51606C181.588 2.05873 182.134 1.70873 182.759 1.46606C183.394 1.21406 184.084 1.08806 184.831 1.08806C185.587 1.08806 186.282 1.21873 186.917 1.48006C187.561 1.73206 188.107 2.11006 188.555 2.61406L187.645 3.49606C187.271 3.10406 186.852 2.81473 186.385 2.62806C185.918 2.43206 185.419 2.33406 184.887 2.33406C184.336 2.33406 183.823 2.42739 183.347 2.61406C182.88 2.80073 182.474 3.06206 182.129 3.39806C181.784 3.73406 181.513 4.13539 181.317 4.60206C181.13 5.05939 181.037 5.55873 181.037 6.10006C181.037 6.64139 181.13 7.14539 181.317 7.61206C181.513 8.06939 181.784 8.46606 182.129 8.80206C182.474 9.13806 182.88 9.39939 183.347 9.58606C183.823 9.77273 184.336 9.86606 184.887 9.86606C185.419 9.86606 185.918 9.77273 186.385 9.58606C186.852 9.39006 187.271 9.09139 187.645 8.69006L188.555 9.57206C188.107 10.0761 187.561 10.4587 186.917 10.7201C186.282 10.9814 185.582 11.1121 184.817 11.1121Z" fill="#483332"/>
<path d="M188.836 11.0001L193.274 1.20006H194.66L199.112 11.0001H197.642L193.68 1.98406H194.24L190.278 11.0001H188.836ZM190.726 8.55006L191.104 7.43006H196.62L197.026 8.55006H190.726Z" fill="#483332"/>
</svg>
