<svg width="90" height="21" viewBox="0 0 90 21" fill="none" xmlns="http://www.w3.org/2000/svg">
<path d="M17.9732 7.18638C17.9165 7.00111 17.8123 6.83831 17.6733 6.71809C17.5343 6.59787 17.3667 6.52548 17.1911 6.50987L12.0542 6.05653L9.83133 0.591413C9.76054 0.415393 9.64539 0.265889 9.49979 0.160946C9.35418 0.0560034 9.18435 0.000105959 9.01077 1.50492e-07C8.8372 -0.000105658 8.6673 0.0555847 8.52159 0.16035C8.37589 0.265116 8.26059 0.414479 8.18963 0.590413L5.96675 6.05653L0.829887 6.50987C0.657296 6.52506 0.492299 6.59515 0.354635 6.71176C0.21697 6.82836 0.112468 6.98655 0.0536297 7.1674C-0.00520839 7.34824 -0.0158908 7.54409 0.0228606 7.7315C0.061612 7.91891 0.148156 8.08995 0.27214 8.22416L4.06824 12.3343L2.72569 18.7911C2.68492 18.9866 2.69799 19.1911 2.76319 19.3782C2.82839 19.5653 2.94272 19.7263 3.09133 19.8404C3.23995 19.9544 3.41599 20.0162 3.59662 20.0177C3.77725 20.0192 3.95412 19.9604 4.10429 19.8489L9.01048 16.2162L13.9167 19.8489C14.0702 19.9621 14.2512 20.0204 14.4353 20.0159C14.6195 20.0114 14.7981 19.9444 14.9469 19.8238C15.0958 19.7033 15.2078 19.535 15.268 19.3416C15.3282 19.1482 15.3336 18.939 15.2836 18.7421L13.6355 12.3373L17.7227 8.25219C17.9903 7.98398 18.0885 7.56567 17.9732 7.18638Z" fill="#C92020"/>
<path d="M41.9732 7.18638C41.9165 7.00111 41.8123 6.83831 41.6733 6.71809C41.5343 6.59787 41.3667 6.52548 41.1911 6.50987L36.0542 6.05653L33.8313 0.591413C33.7605 0.415393 33.6454 0.265889 33.4998 0.160946C33.3542 0.0560034 33.1843 0.000105959 33.0108 1.50492e-07C32.8372 -0.000105658 32.6673 0.0555847 32.5216 0.16035C32.3759 0.265116 32.2606 0.414479 32.1896 0.590413L29.9667 6.05653L24.8299 6.50987C24.6573 6.52506 24.4923 6.59515 24.3546 6.71176C24.217 6.82836 24.1125 6.98655 24.0536 7.1674C23.9948 7.34824 23.9841 7.54409 24.0229 7.7315C24.0616 7.91891 24.1482 8.08995 24.2721 8.22416L28.0682 12.3343L26.7257 18.7911C26.6849 18.9866 26.698 19.1911 26.7632 19.3782C26.8284 19.5653 26.9427 19.7263 27.0913 19.8404C27.2399 19.9544 27.416 20.0162 27.5966 20.0177C27.7773 20.0192 27.9541 19.9604 28.1043 19.8489L33.0105 16.2162L37.9167 19.8489C38.0702 19.9621 38.2512 20.0204 38.4353 20.0159C38.6195 20.0114 38.7981 19.9444 38.9469 19.8238C39.0958 19.7033 39.2078 19.535 39.268 19.3416C39.3282 19.1482 39.3336 18.939 39.2836 18.7421L37.6355 12.3373L41.7227 8.25219C41.9903 7.98398 42.0885 7.56567 41.9732 7.18638Z" fill="#C92020"/>
<path d="M65.9732 7.18638C65.9165 7.00111 65.8123 6.83831 65.6733 6.71809C65.5343 6.59787 65.3667 6.52548 65.1911 6.50987L60.0542 6.05653L57.8313 0.591413C57.7605 0.415393 57.6454 0.265889 57.4998 0.160946C57.3542 0.0560034 57.1843 0.000105959 57.0108 1.50492e-07C56.8372 -0.000105658 56.6673 0.0555847 56.5216 0.16035C56.3759 0.265116 56.2606 0.414479 56.1896 0.590413L53.9667 6.05653L48.8299 6.50987C48.6573 6.52506 48.4923 6.59515 48.3546 6.71176C48.217 6.82836 48.1125 6.98655 48.0536 7.1674C47.9948 7.34824 47.9841 7.54409 48.0229 7.7315C48.0616 7.91891 48.1482 8.08995 48.2721 8.22416L52.0682 12.3343L50.7257 18.7911C50.6849 18.9866 50.698 19.1911 50.7632 19.3782C50.8284 19.5653 50.9427 19.7263 51.0913 19.8404C51.2399 19.9544 51.416 20.0162 51.5966 20.0177C51.7773 20.0192 51.9541 19.9604 52.1043 19.8489L57.0105 16.2162L61.9167 19.8489C62.0702 19.9621 62.2512 20.0204 62.4353 20.0159C62.6195 20.0114 62.7981 19.9444 62.9469 19.8238C63.0958 19.7033 63.2078 19.535 63.268 19.3416C63.3282 19.1482 63.3336 18.939 63.2836 18.7421L61.6355 12.3373L65.7227 8.25219C65.9903 7.98398 66.0885 7.56567 65.9732 7.18638Z" fill="#C92020"/>
<path d="M88.9732 7.18638C88.9165 7.00111 88.8123 6.83831 88.6733 6.71809C88.5343 6.59787 88.3667 6.52548 88.1911 6.50987L83.0542 6.05653L80.8313 0.591413C80.7605 0.415393 80.6454 0.265889 80.4998 0.160946C80.3542 0.0560034 80.1843 0.000105959 80.0108 1.50492e-07C79.8372 -0.000105658 79.6673 0.0555847 79.5216 0.16035C79.3759 0.265116 79.2606 0.414479 79.1896 0.590413L76.9667 6.05653L71.8299 6.50987C71.6573 6.52506 71.4923 6.59515 71.3546 6.71176C71.217 6.82836 71.1125 6.98655 71.0536 7.1674C70.9948 7.34824 70.9841 7.54409 71.0229 7.7315C71.0616 7.91891 71.1482 8.08995 71.2721 8.22416L75.0682 12.3343L73.7257 18.7911C73.6849 18.9866 73.698 19.1911 73.7632 19.3782C73.8284 19.5653 73.9427 19.7263 74.0913 19.8404C74.2399 19.9544 74.416 20.0162 74.5966 20.0177C74.7773 20.0192 74.9541 19.9604 75.1043 19.8489L80.0105 16.2162L84.9167 19.8489C85.0702 19.9621 85.2512 20.0204 85.4353 20.0159C85.6195 20.0114 85.7981 19.9444 85.9469 19.8238C86.0958 19.7033 86.2078 19.535 86.268 19.3416C86.3282 19.1482 86.3336 18.939 86.2836 18.7421L84.6355 12.3373L88.7227 8.25219C88.9903 7.98398 89.0885 7.56567 88.9732 7.18638Z" fill="#C92020"/>
</svg>
