<svg width="107" height="21" viewBox="0 0 107 21" fill="none" xmlns="http://www.w3.org/2000/svg">
<path d="M17.9732 7.18638C17.9165 7.00111 17.8123 6.83831 17.6733 6.71809C17.5343 6.59787 17.3667 6.52548 17.1911 6.50987L12.0542 6.05653L9.83133 0.591413C9.76054 0.415393 9.64539 0.265889 9.49979 0.160946C9.35418 0.0560034 9.18435 0.000105959 9.01077 1.50492e-07C8.8372 -0.000105658 8.6673 0.0555847 8.52159 0.16035C8.37589 0.265116 8.26059 0.414479 8.18963 0.590412L5.96675 6.05653L0.829887 6.50987C0.657296 6.52506 0.492299 6.59515 0.354635 6.71176C0.21697 6.82836 0.112468 6.98655 0.0536297 7.1674C-0.00520838 7.34824 -0.0158908 7.54409 0.0228606 7.7315C0.061612 7.91891 0.148156 8.08995 0.27214 8.22416L4.06824 12.3343L2.72569 18.7911C2.68492 18.9866 2.69799 19.1911 2.76319 19.3782C2.82839 19.5653 2.94272 19.7263 3.09133 19.8404C3.23995 19.9544 3.41599 20.0162 3.59662 20.0177C3.77725 20.0192 3.95412 19.9604 4.10429 19.8489L9.01048 16.2162L13.9167 19.8489C14.0702 19.9621 14.2512 20.0204 14.4353 20.0159C14.6195 20.0114 14.7981 19.9444 14.9469 19.8238C15.0958 19.7033 15.2078 19.535 15.268 19.3416C15.3282 19.1482 15.3336 18.939 15.2836 18.7421L13.6355 12.3373L17.7227 8.25218C17.9903 7.98398 18.0885 7.56567 17.9732 7.18638Z" fill="#C92020"/>
<path d="M39.9732 7.18638C39.9165 7.00111 39.8123 6.83831 39.6733 6.71809C39.5343 6.59787 39.3667 6.52548 39.1911 6.50987L34.0542 6.05653L31.8313 0.591413C31.7605 0.415393 31.6454 0.265889 31.4998 0.160946C31.3542 0.0560034 31.1843 0.000105959 31.0108 1.50492e-07C30.8372 -0.000105658 30.6673 0.0555847 30.5216 0.16035C30.3759 0.265116 30.2606 0.414479 30.1896 0.590413L27.9667 6.05653L22.8299 6.50987C22.6573 6.52506 22.4923 6.59515 22.3546 6.71176C22.217 6.82836 22.1125 6.98655 22.0536 7.1674C21.9948 7.34824 21.9841 7.54409 22.0229 7.7315C22.0616 7.91891 22.1482 8.08995 22.2721 8.22416L26.0682 12.3343L24.7257 18.7911C24.6849 18.9866 24.698 19.1911 24.7632 19.3782C24.8284 19.5653 24.9427 19.7263 25.0913 19.8404C25.2399 19.9544 25.416 20.0162 25.5966 20.0177C25.7773 20.0192 25.9541 19.9604 26.1043 19.8489L31.0105 16.2162L35.9167 19.8489C36.0702 19.9621 36.2512 20.0204 36.4353 20.0159C36.6195 20.0114 36.7981 19.9444 36.9469 19.8238C37.0958 19.7033 37.2078 19.535 37.268 19.3416C37.3282 19.1482 37.3336 18.939 37.2836 18.7421L35.6355 12.3373L39.7227 8.25219C39.9903 7.98398 40.0885 7.56567 39.9732 7.18638Z" fill="#C92020"/>
<path d="M61.9732 7.18638C61.9165 7.00111 61.8123 6.83831 61.6733 6.71809C61.5343 6.59787 61.3667 6.52548 61.1911 6.50987L56.0542 6.05653L53.8313 0.591413C53.7605 0.415393 53.6454 0.265889 53.4998 0.160946C53.3542 0.0560034 53.1843 0.000105959 53.0108 1.50492e-07C52.8372 -0.000105658 52.6673 0.0555847 52.5216 0.16035C52.3759 0.265116 52.2606 0.414479 52.1896 0.590413L49.9667 6.05653L44.8299 6.50987C44.6573 6.52506 44.4923 6.59515 44.3546 6.71176C44.217 6.82836 44.1125 6.98655 44.0536 7.1674C43.9948 7.34824 43.9841 7.54409 44.0229 7.7315C44.0616 7.91891 44.1482 8.08995 44.2721 8.22416L48.0682 12.3343L46.7257 18.7911C46.6849 18.9866 46.698 19.1911 46.7632 19.3782C46.8284 19.5653 46.9427 19.7263 47.0913 19.8404C47.2399 19.9544 47.416 20.0162 47.5966 20.0177C47.7773 20.0192 47.9541 19.9604 48.1043 19.8489L53.0105 16.2162L57.9167 19.8489C58.0702 19.9621 58.2512 20.0204 58.4353 20.0159C58.6195 20.0114 58.7981 19.9444 58.9469 19.8238C59.0958 19.7033 59.2078 19.535 59.268 19.3416C59.3282 19.1482 59.3336 18.939 59.2836 18.7421L57.6355 12.3373L61.7227 8.25219C61.9903 7.98398 62.0885 7.56567 61.9732 7.18638Z" fill="#C92020"/>
<path d="M83.9732 7.18638C83.9165 7.00111 83.8123 6.83831 83.6733 6.71809C83.5343 6.59787 83.3667 6.52548 83.1911 6.50987L78.0542 6.05653L75.8313 0.591413C75.7605 0.415393 75.6454 0.265889 75.4998 0.160946C75.3542 0.0560034 75.1843 0.000105959 75.0108 1.50492e-07C74.8372 -0.000105658 74.6673 0.0555847 74.5216 0.16035C74.3759 0.265116 74.2606 0.414479 74.1896 0.590413L71.9667 6.05653L66.8299 6.50987C66.6573 6.52506 66.4923 6.59515 66.3546 6.71176C66.217 6.82836 66.1125 6.98655 66.0536 7.1674C65.9948 7.34824 65.9841 7.54409 66.0229 7.7315C66.0616 7.91891 66.1482 8.08995 66.2721 8.22416L70.0682 12.3343L68.7257 18.7911C68.6849 18.9866 68.698 19.1911 68.7632 19.3782C68.8284 19.5653 68.9427 19.7263 69.0913 19.8404C69.2399 19.9544 69.416 20.0162 69.5966 20.0177C69.7773 20.0192 69.9541 19.9604 70.1043 19.8489L75.0105 16.2162L79.9167 19.8489C80.0702 19.9621 80.2512 20.0204 80.4353 20.0159C80.6195 20.0114 80.7981 19.9444 80.9469 19.8238C81.0958 19.7033 81.2078 19.535 81.268 19.3416C81.3282 19.1482 81.3336 18.939 81.2836 18.7421L79.6355 12.3373L83.7227 8.25219C83.9903 7.98398 84.0885 7.56567 83.9732 7.18638Z" fill="#C92020"/>
<path d="M105.973 7.18638C105.917 7.00111 105.812 6.83831 105.673 6.71809C105.534 6.59787 105.367 6.52548 105.191 6.50987L100.054 6.05653L97.8313 0.591413C97.7605 0.415393 97.6454 0.265889 97.4998 0.160946C97.3542 0.0560034 97.1843 0.000105959 97.0108 1.50492e-07C96.8372 -0.000105658 96.6673 0.0555847 96.5216 0.16035C96.3759 0.265116 96.2606 0.414479 96.1896 0.590413L93.9667 6.05653L88.8299 6.50987C88.6573 6.52506 88.4923 6.59515 88.3546 6.71176C88.217 6.82836 88.1125 6.98655 88.0536 7.1674C87.9948 7.34824 87.9841 7.54409 88.0229 7.7315C88.0616 7.91891 88.1482 8.08995 88.2721 8.22416L92.0682 12.3343L90.7257 18.7911C90.6849 18.9866 90.698 19.1911 90.7632 19.3782C90.8284 19.5653 90.9427 19.7263 91.0913 19.8404C91.2399 19.9544 91.416 20.0162 91.5966 20.0177C91.7773 20.0192 91.9541 19.9604 92.1043 19.8489L97.0105 16.2162L101.917 19.8489C102.07 19.9621 102.251 20.0204 102.435 20.0159C102.62 20.0114 102.798 19.9444 102.947 19.8238C103.096 19.7033 103.208 19.535 103.268 19.3416C103.328 19.1482 103.334 18.939 103.284 18.7421L101.636 12.3373L105.723 8.25219C105.99 7.98398 106.089 7.56567 105.973 7.18638Z" fill="#C92020"/>
</svg>
