<svg width="70" height="13" viewBox="0 0 70 13" fill="none" xmlns="http://www.w3.org/2000/svg">
<path d="M0.682617 12.0001V0.36377H5.27353C6.15231 0.36377 6.90231 0.520967 7.52353 0.835361C8.14853 1.14597 8.6239 1.58725 8.94966 2.15922C9.27921 2.72741 9.44398 3.39597 9.44398 4.16491C9.44398 4.93763 9.27731 5.60241 8.94398 6.15922C8.61065 6.71225 8.12769 7.1365 7.49512 7.43195C6.86633 7.72741 6.10496 7.87513 5.21103 7.87513H2.13716V5.89786H4.8133C5.283 5.89786 5.67315 5.83347 5.98375 5.70468C6.29436 5.57589 6.52542 5.38271 6.67694 5.12513C6.83224 4.86756 6.90989 4.54748 6.90989 4.16491C6.90989 3.77854 6.83224 3.45278 6.67694 3.18763C6.52542 2.92248 6.29247 2.72172 5.97807 2.58536C5.66747 2.44521 5.27542 2.37513 4.80194 2.37513H3.14284V12.0001H0.682617ZM6.96671 6.70468L9.85875 12.0001H7.14285L4.3133 6.70468H6.96671Z" fill="black"/>
<path d="M16.0938 12.1706C15.1961 12.1706 14.4234 11.9888 13.7756 11.6251C13.1317 11.2577 12.6355 10.7388 12.287 10.0683C11.9385 9.39407 11.7643 8.59672 11.7643 7.67627C11.7643 6.77854 11.9385 5.99066 12.287 5.31263C12.6355 4.6346 13.126 4.10619 13.7586 3.72741C14.3949 3.34862 15.1412 3.15922 15.9972 3.15922C16.573 3.15922 17.109 3.25203 17.6052 3.43763C18.1052 3.61945 18.5408 3.89407 18.912 4.2615C19.287 4.62892 19.5787 5.09104 19.787 5.64786C19.9953 6.20089 20.0995 6.84862 20.0995 7.59104V8.25582H12.7302V6.75582H17.8211C17.8211 6.40733 17.7453 6.09862 17.5938 5.82968C17.4423 5.56074 17.2321 5.35051 16.9631 5.199C16.698 5.04369 16.3893 4.96604 16.037 4.96604C15.6696 4.96604 15.3438 5.05127 15.0597 5.22172C14.7794 5.38839 14.5597 5.61377 14.4006 5.89786C14.2415 6.17816 14.1601 6.49066 14.1563 6.83536V8.2615C14.1563 8.69332 14.2359 9.06642 14.3949 9.38082C14.5578 9.69521 14.787 9.93763 15.0824 10.1081C15.3779 10.2785 15.7283 10.3638 16.1336 10.3638C16.4025 10.3638 16.6487 10.3259 16.8722 10.2501C17.0957 10.1744 17.287 10.0607 17.4461 9.90922C17.6052 9.75771 17.7264 9.5721 17.8097 9.35241L20.0484 9.50013C19.9347 10.038 19.7018 10.5077 19.3495 10.9092C19.001 11.307 18.5502 11.6176 17.9972 11.841C17.448 12.0607 16.8135 12.1706 16.0938 12.1706Z" fill="black"/>
<path d="M30.0604 5.7615L27.8445 5.89786C27.8066 5.70847 27.7252 5.53801 27.6002 5.3865C27.4752 5.23119 27.3104 5.10809 27.1059 5.01718C26.9051 4.92248 26.6646 4.87513 26.3843 4.87513C26.0093 4.87513 25.693 4.95468 25.4354 5.11377C25.1778 5.26907 25.049 5.47741 25.049 5.73877C25.049 5.9471 25.1324 6.12324 25.299 6.26718C25.4657 6.41112 25.7517 6.52665 26.157 6.61377L27.7365 6.93195C28.585 7.10619 29.2176 7.3865 29.6343 7.77286C30.0509 8.15922 30.2593 8.6668 30.2593 9.29559C30.2593 9.86756 30.0907 10.3695 29.7536 10.8013C29.4202 11.2331 28.9619 11.5702 28.3786 11.8126C27.799 12.0513 27.1305 12.1706 26.3729 12.1706C25.2176 12.1706 24.2971 11.9301 23.6115 11.449C22.9297 10.9641 22.5301 10.3051 22.4127 9.47172L24.7934 9.34672C24.8653 9.699 25.0396 9.96794 25.3161 10.1535C25.5926 10.3354 25.9468 10.4263 26.3786 10.4263C26.8028 10.4263 27.1437 10.3448 27.4013 10.182C27.6627 10.0153 27.7952 9.80127 27.799 9.53991C27.7952 9.32021 27.7024 9.14029 27.5206 9.00013C27.3388 8.85619 27.0585 8.74635 26.6797 8.67059L25.1684 8.36945C24.3161 8.199 23.6816 7.90354 23.2649 7.48309C22.8521 7.06263 22.6456 6.52665 22.6456 5.87513C22.6456 5.31453 22.7971 4.83157 23.1002 4.42627C23.407 4.02097 23.8369 3.70847 24.3899 3.48877C24.9468 3.26907 25.5983 3.15922 26.3445 3.15922C27.4468 3.15922 28.3142 3.39218 28.9468 3.85809C29.5831 4.324 29.9543 4.95847 30.0604 5.7615Z" fill="black"/>
<path d="M36.8807 12.1706C35.983 12.1706 35.2102 11.9888 34.5625 11.6251C33.9186 11.2577 33.4224 10.7388 33.0739 10.0683C32.7254 9.39407 32.5511 8.59672 32.5511 7.67627C32.5511 6.77854 32.7254 5.99066 33.0739 5.31263C33.4224 4.6346 33.9129 4.10619 34.5455 3.72741C35.1818 3.34862 35.928 3.15922 36.7841 3.15922C37.3599 3.15922 37.8958 3.25203 38.392 3.43763C38.892 3.61945 39.3277 3.89407 39.6989 4.2615C40.0739 4.62892 40.3655 5.09104 40.5739 5.64786C40.7822 6.20089 40.8864 6.84862 40.8864 7.59104V8.25582H33.517V6.75582H38.608C38.608 6.40733 38.5322 6.09862 38.3807 5.82968C38.2292 5.56074 38.0189 5.35051 37.75 5.199C37.4849 5.04369 37.1761 4.96604 36.8239 4.96604C36.4564 4.96604 36.1307 5.05127 35.8466 5.22172C35.5663 5.38839 35.3466 5.61377 35.1875 5.89786C35.0284 6.17816 34.947 6.49066 34.9432 6.83536V8.2615C34.9432 8.69332 35.0227 9.06642 35.1818 9.38082C35.3447 9.69521 35.5739 9.93763 35.8693 10.1081C36.1648 10.2785 36.5152 10.3638 36.9205 10.3638C37.1894 10.3638 37.4356 10.3259 37.6591 10.2501C37.8826 10.1744 38.0739 10.0607 38.233 9.90922C38.3921 9.75771 38.5133 9.5721 38.5966 9.35241L40.8352 9.50013C40.7216 10.038 40.4886 10.5077 40.1364 10.9092C39.7879 11.307 39.3371 11.6176 38.7841 11.841C38.2349 12.0607 37.6004 12.1706 36.8807 12.1706Z" fill="black"/>
<path d="M43.5859 12.0001V3.27286H45.9325V4.79559H46.0234C46.1825 4.25392 46.4495 3.84483 46.8245 3.56832C47.1995 3.28801 47.6314 3.14786 48.12 3.14786C48.2412 3.14786 48.3719 3.15544 48.512 3.17059C48.6522 3.18574 48.7753 3.20657 48.8814 3.23309V5.38082C48.7677 5.34672 48.6105 5.31642 48.4098 5.28991C48.209 5.26339 48.0253 5.25013 47.8586 5.25013C47.5026 5.25013 47.1844 5.32778 46.9041 5.48309C46.6276 5.6346 46.4079 5.84672 46.245 6.11945C46.0859 6.39218 46.0064 6.70657 46.0064 7.06263V12.0001H43.5859Z" fill="black"/>
<path d="M59.6548 3.27286L56.6036 12.0001H53.8764L50.8252 3.27286H53.382L55.1945 9.51718H55.2855L57.0923 3.27286H59.6548Z" fill="black"/>
<path d="M65.7094 12.1706C64.8117 12.1706 64.039 11.9888 63.3913 11.6251C62.7473 11.2577 62.2511 10.7388 61.9026 10.0683C61.5541 9.39407 61.3799 8.59672 61.3799 7.67627C61.3799 6.77854 61.5541 5.99066 61.9026 5.31263C62.2511 4.6346 62.7416 4.10619 63.3742 3.72741C64.0106 3.34862 64.7568 3.15922 65.6128 3.15922C66.1886 3.15922 66.7246 3.25203 67.2208 3.43763C67.7208 3.61945 68.1564 3.89407 68.5276 4.2615C68.9026 4.62892 69.1943 5.09104 69.4026 5.64786C69.611 6.20089 69.7151 6.84862 69.7151 7.59104V8.25582H62.3458V6.75582H67.4367C67.4367 6.40733 67.361 6.09862 67.2094 5.82968C67.0579 5.56074 66.8477 5.35051 66.5788 5.199C66.3136 5.04369 66.0049 4.96604 65.6526 4.96604C65.2852 4.96604 64.9594 5.05127 64.6753 5.22172C64.395 5.38839 64.1753 5.61377 64.0163 5.89786C63.8572 6.17816 63.7757 6.49066 63.7719 6.83536V8.2615C63.7719 8.69332 63.8515 9.06642 64.0106 9.38082C64.1735 9.69521 64.4026 9.93763 64.6981 10.1081C64.9935 10.2785 65.3439 10.3638 65.7492 10.3638C66.0181 10.3638 66.2644 10.3259 66.4878 10.2501C66.7113 10.1744 66.9026 10.0607 67.0617 9.90922C67.2208 9.75771 67.342 9.5721 67.4253 9.35241L69.664 9.50013C69.5503 10.038 69.3174 10.5077 68.9651 10.9092C68.6166 11.307 68.1659 11.6176 67.6128 11.841C67.0636 12.0607 66.4291 12.1706 65.7094 12.1706Z" fill="black"/>
</svg>
