<svg width="252" height="32" viewBox="0 0 252 32" fill="none" xmlns="http://www.w3.org/2000/svg">
<path d="M0 30.9999V0.899851H13.76C16.512 0.899851 18.877 1.34418 20.855 2.23285C22.8617 3.12152 24.4097 4.41152 25.499 6.10285C26.5883 7.76552 27.133 9.74352 27.133 12.0369C27.133 14.3015 26.5883 16.2652 25.499 17.9279C24.4097 19.5619 22.8617 20.8232 20.855 21.7119C18.877 22.5719 16.512 23.0019 13.76 23.0019H4.73L8.514 19.4329V30.9999H0ZM18.619 30.9999L11.137 20.0349H20.21L27.735 30.9999H18.619ZM8.514 20.3359L4.73 16.4229H13.244C15.0213 16.4229 16.34 16.0359 17.2 15.2619C18.0887 14.4879 18.533 13.4129 18.533 12.0369C18.533 10.6322 18.0887 9.54285 17.2 8.76885C16.34 7.99485 15.0213 7.60785 13.244 7.60785H4.73L8.514 3.69485V20.3359Z" fill="#DE1D1D"/>
<path d="M39.6561 12.5529H53.6311V18.9169H39.6561V12.5529ZM40.2581 24.4209H55.9961V30.9999H31.8301V0.899851H55.4371V7.47885H40.2581V24.4209Z" fill="#DE1D1D"/>
<path d="M71.2987 31.6019C68.8334 31.6019 66.454 31.3009 64.1607 30.6989C61.896 30.0682 60.047 29.2655 58.6137 28.2909L61.4087 22.0129C62.756 22.8729 64.304 23.5895 66.0527 24.1629C67.83 24.7075 69.593 24.9799 71.3417 24.9799C72.517 24.9799 73.463 24.8795 74.1797 24.6789C74.8964 24.4495 75.4124 24.1629 75.7277 23.8189C76.0717 23.4462 76.2437 23.0162 76.2437 22.5289C76.2437 21.8409 75.9284 21.2962 75.2977 20.8949C74.667 20.4935 73.85 20.1639 72.8467 19.9059C71.8434 19.6479 70.7254 19.3899 69.4927 19.1319C68.2887 18.8739 67.0704 18.5442 65.8377 18.1429C64.6337 17.7415 63.53 17.2255 62.5267 16.5949C61.5234 15.9355 60.7064 15.0899 60.0757 14.0579C59.445 12.9972 59.1297 11.6642 59.1297 10.0589C59.1297 8.25285 59.617 6.61885 60.5917 5.15685C61.595 3.69485 63.0857 2.51952 65.0637 1.63085C67.0417 0.742185 69.507 0.297852 72.4597 0.297852C74.4377 0.297852 76.3727 0.527185 78.2647 0.985852C80.1854 1.41585 81.891 2.06085 83.3817 2.92085L80.7587 9.24185C79.3254 8.46785 77.9064 7.89452 76.5017 7.52185C75.097 7.12052 73.7354 6.91985 72.4167 6.91985C71.2414 6.91985 70.2954 7.04885 69.5787 7.30685C68.862 7.53618 68.346 7.85152 68.0307 8.25285C67.7154 8.65418 67.5577 9.11285 67.5577 9.62885C67.5577 10.2882 67.8587 10.8185 68.4607 11.2199C69.0914 11.5925 69.9084 11.9079 70.9117 12.1659C71.9437 12.3952 73.0617 12.6389 74.2657 12.8969C75.4984 13.1549 76.7167 13.4845 77.9207 13.8859C79.1534 14.2585 80.2714 14.7745 81.2747 15.4339C82.278 16.0645 83.0807 16.9102 83.6827 17.9709C84.3134 19.0029 84.6287 20.3072 84.6287 21.8839C84.6287 23.6325 84.127 25.2522 83.1237 26.7429C82.149 28.2049 80.6727 29.3802 78.6947 30.2689C76.7454 31.1575 74.28 31.6019 71.2987 31.6019Z" fill="#DE1D1D"/>
<path d="M96.3875 12.5529H110.363V18.9169H96.3875V12.5529ZM96.9895 24.4209H112.728V30.9999H88.5615V0.899851H112.169V7.47885H96.9895V24.4209Z" fill="#DE1D1D"/>
<path d="M117.452 30.9999V0.899851H131.212C133.964 0.899851 136.329 1.34418 138.307 2.23285C140.314 3.12152 141.862 4.41152 142.951 6.10285C144.04 7.76552 144.585 9.74352 144.585 12.0369C144.585 14.3015 144.04 16.2652 142.951 17.9279C141.862 19.5619 140.314 20.8232 138.307 21.7119C136.329 22.5719 133.964 23.0019 131.212 23.0019H122.182L125.966 19.4329V30.9999H117.452ZM136.071 30.9999L128.589 20.0349H137.662L145.187 30.9999H136.071ZM125.966 20.3359L122.182 16.4229H130.696C132.473 16.4229 133.792 16.0359 134.652 15.2619C135.541 14.4879 135.985 13.4129 135.985 12.0369C135.985 10.6322 135.541 9.54285 134.652 8.76885C133.792 7.99485 132.473 7.60785 130.696 7.60785H122.182L125.966 3.69485V20.3359Z" fill="#DE1D1D"/>
<path d="M158.527 30.9999L145.67 0.899851H154.872L165.708 26.9579H160.29L171.384 0.899851H179.812L166.912 30.9999H158.527Z" fill="#DE1D1D"/>
<path d="M181.574 30.9999V0.899851H190.088V30.9999H181.574Z" fill="#DE1D1D"/>
<path d="M204.058 14.1009H217.947V20.6799H204.058V14.1009ZM204.66 30.9999H196.146V0.899851H219.753V7.47885H204.66V30.9999Z" fill="#DE1D1D"/>
<path d="M231.345 30.9999V18.2719L233.323 23.3889L219.864 0.899851H228.851L238.569 17.1969H233.366L243.127 0.899851H251.383L237.967 23.3889L239.859 18.2719V30.9999H231.345Z" fill="#DE1D1D"/>
</svg>
