<svg width="261" height="32" viewBox="0 0 261 32" fill="none" xmlns="http://www.w3.org/2000/svg">
<path d="M0.660156 31.0002V4.40024H12.8202C15.2522 4.40024 17.3422 4.79291 19.0902 5.57824C20.8635 6.36358 22.2315 7.50358 23.1942 8.99824C24.1568 10.4676 24.6382 12.2156 24.6382 14.2422C24.6382 16.2436 24.1568 17.9789 23.1942 19.4482C22.2315 20.8922 20.8635 22.0069 19.0902 22.7922C17.3422 23.5522 15.2522 23.9322 12.8202 23.9322H4.84016L8.18416 20.7782V31.0002H0.660156ZM17.1142 31.0002L10.5022 21.3102H18.5202L25.1702 31.0002H17.1142ZM8.18416 21.5762L4.84016 18.1182H12.3642C13.9348 18.1182 15.1002 17.7762 15.8602 17.0922C16.6455 16.4082 17.0382 15.4582 17.0382 14.2422C17.0382 13.0009 16.6455 12.0382 15.8602 11.3542C15.1002 10.6702 13.9348 10.3282 12.3642 10.3282H4.84016L8.18416 6.87024V21.5762Z" fill="#483332"/>
<path d="M39.2391 31.3422C36.8071 31.3422 34.6791 30.8862 32.8551 29.9742C31.0564 29.0369 29.6504 27.7702 28.6371 26.1742C27.6491 24.5529 27.1551 22.7162 27.1551 20.6642C27.1551 18.6122 27.6364 16.7882 28.5991 15.1922C29.5871 13.5709 30.9424 12.3169 32.6651 11.4302C34.3877 10.5182 36.3257 10.0622 38.4791 10.0622C40.5057 10.0622 42.3551 10.4802 44.0271 11.3162C45.6991 12.1269 47.0291 13.3302 48.0171 14.9262C49.0051 16.5222 49.4991 18.4602 49.4991 20.7402C49.4991 20.9936 49.4864 21.2849 49.4611 21.6142C49.4357 21.9436 49.4104 22.2476 49.3851 22.5262H33.0831V18.7262H45.5471L42.8111 19.7902C42.8364 18.8529 42.6591 18.0422 42.2791 17.3582C41.9244 16.6742 41.4177 16.1422 40.7591 15.7622C40.1257 15.3822 39.3784 15.1922 38.5171 15.1922C37.6557 15.1922 36.8957 15.3822 36.2371 15.7622C35.6037 16.1422 35.1097 16.6869 34.7551 17.3962C34.4004 18.0802 34.2231 18.8909 34.2231 19.8282V20.9302C34.2231 21.9436 34.4257 22.8176 34.8311 23.5522C35.2617 24.2869 35.8697 24.8569 36.6551 25.2622C37.4404 25.6422 38.3777 25.8322 39.4671 25.8322C40.4804 25.8322 41.3417 25.6929 42.0511 25.4142C42.7857 25.1102 43.5077 24.6542 44.2171 24.0462L48.0171 27.9982C47.0291 29.0876 45.8131 29.9236 44.3691 30.5062C42.9251 31.0636 41.2151 31.3422 39.2391 31.3422Z" fill="#483332"/>
<path d="M60.3139 31.3422C58.5659 31.3422 56.8559 31.1396 55.1839 30.7342C53.5373 30.3289 52.2073 29.8222 51.1939 29.2142L53.3599 24.2742C54.3226 24.8569 55.4499 25.3256 56.7419 25.6802C58.0339 26.0096 59.3006 26.1742 60.5419 26.1742C61.7579 26.1742 62.5939 26.0476 63.0499 25.7942C63.5313 25.5409 63.7719 25.1989 63.7719 24.7682C63.7719 24.3629 63.5439 24.0716 63.0879 23.8942C62.6573 23.6916 62.0746 23.5396 61.3399 23.4382C60.6306 23.3369 59.8453 23.2229 58.9839 23.0962C58.1226 22.9696 57.2486 22.8049 56.3619 22.6022C55.5006 22.3742 54.7026 22.0449 53.9679 21.6142C53.2586 21.1582 52.6886 20.5502 52.2579 19.7902C51.8273 19.0302 51.6119 18.0676 51.6119 16.9022C51.6119 15.5849 51.9919 14.4196 52.7519 13.4062C53.5373 12.3676 54.6773 11.5569 56.1719 10.9742C57.6666 10.3662 59.4906 10.0622 61.6439 10.0622C63.0879 10.0622 64.5446 10.2142 66.0139 10.5182C67.5086 10.7969 68.7626 11.2276 69.7759 11.8102L67.6099 16.7122C66.5966 16.1296 65.5833 15.7369 64.5699 15.5342C63.5566 15.3062 62.5939 15.1922 61.6819 15.1922C60.4659 15.1922 59.6046 15.3316 59.0979 15.6102C58.6166 15.8889 58.3759 16.2309 58.3759 16.6362C58.3759 17.0416 58.5913 17.3582 59.0219 17.5862C59.4526 17.7889 60.0226 17.9536 60.7319 18.0802C61.4666 18.1816 62.2646 18.2956 63.1259 18.4222C63.9873 18.5236 64.8486 18.6882 65.7099 18.9162C66.5966 19.1442 67.3946 19.4862 68.1039 19.9422C68.8386 20.3729 69.4213 20.9682 69.8519 21.7282C70.2826 22.4629 70.4979 23.4129 70.4979 24.5782C70.4979 25.8449 70.1052 26.9849 69.3199 27.9982C68.5599 29.0116 67.4199 29.8222 65.8999 30.4302C64.4053 31.0382 62.5433 31.3422 60.3139 31.3422Z" fill="#483332"/>
<path d="M84.4012 31.3422C81.9692 31.3422 79.8412 30.8862 78.0172 29.9742C76.2185 29.0369 74.8125 27.7702 73.7992 26.1742C72.8112 24.5529 72.3172 22.7162 72.3172 20.6642C72.3172 18.6122 72.7985 16.7882 73.7612 15.1922C74.7492 13.5709 76.1045 12.3169 77.8272 11.4302C79.5498 10.5182 81.4878 10.0622 83.6412 10.0622C85.6678 10.0622 87.5172 10.4802 89.1892 11.3162C90.8612 12.1269 92.1912 13.3302 93.1792 14.9262C94.1672 16.5222 94.6612 18.4602 94.6612 20.7402C94.6612 20.9936 94.6485 21.2849 94.6232 21.6142C94.5978 21.9436 94.5725 22.2476 94.5472 22.5262H78.2452V18.7262H90.7092L87.9732 19.7902C87.9985 18.8529 87.8212 18.0422 87.4412 17.3582C87.0865 16.6742 86.5798 16.1422 85.9212 15.7622C85.2878 15.3822 84.5405 15.1922 83.6792 15.1922C82.8178 15.1922 82.0578 15.3822 81.3992 15.7622C80.7658 16.1422 80.2718 16.6869 79.9172 17.3962C79.5625 18.0802 79.3852 18.8909 79.3852 19.8282V20.9302C79.3852 21.9436 79.5878 22.8176 79.9932 23.5522C80.4238 24.2869 81.0318 24.8569 81.8172 25.2622C82.6025 25.6422 83.5398 25.8322 84.6292 25.8322C85.6425 25.8322 86.5038 25.6929 87.2132 25.4142C87.9478 25.1102 88.6698 24.6542 89.3792 24.0462L93.1792 27.9982C92.1912 29.0876 90.9752 29.9236 89.5312 30.5062C88.0872 31.0636 86.3772 31.3422 84.4012 31.3422Z" fill="#483332"/>
<path d="M97.99 31.0002V10.4042H104.868V16.4082L103.842 14.6982C104.45 13.1529 105.438 12.0002 106.806 11.2402C108.174 10.4549 109.833 10.0622 111.784 10.0622V16.5602C111.455 16.5096 111.163 16.4842 110.91 16.4842C110.682 16.4589 110.429 16.4462 110.15 16.4462C108.681 16.4462 107.49 16.8516 106.578 17.6622C105.666 18.4476 105.21 19.7396 105.21 21.5382V31.0002H97.99Z" fill="#483332"/>
<path d="M121.132 31.0002L112.658 10.4042H120.068L126.832 27.6182H123.108L130.214 10.4042H137.092L128.58 31.0002H121.132Z" fill="#483332"/>
<path d="M150.832 31.0002V27.1622L150.338 26.2122V19.1442C150.338 18.0042 149.983 17.1302 149.274 16.5222C148.59 15.8889 147.488 15.5722 145.968 15.5722C144.98 15.5722 143.979 15.7369 142.966 16.0662C141.952 16.3702 141.091 16.8009 140.382 17.3582L137.95 12.4562C139.115 11.6962 140.508 11.1136 142.13 10.7082C143.776 10.2776 145.41 10.0622 147.032 10.0622C150.376 10.0622 152.96 10.8349 154.784 12.3802C156.633 13.9002 157.558 16.2942 157.558 19.5622V31.0002H150.832ZM144.752 31.3422C143.105 31.3422 141.712 31.0636 140.572 30.5062C139.432 29.9489 138.558 29.1889 137.95 28.2262C137.367 27.2636 137.076 26.1869 137.076 24.9962C137.076 23.7296 137.392 22.6402 138.026 21.7282C138.684 20.7909 139.685 20.0816 141.028 19.6002C142.37 19.0936 144.106 18.8402 146.234 18.8402H151.098V22.6022H147.222C146.056 22.6022 145.233 22.7922 144.752 23.1722C144.296 23.5522 144.068 24.0589 144.068 24.6922C144.068 25.3256 144.308 25.8322 144.79 26.2122C145.271 26.5922 145.93 26.7822 146.766 26.7822C147.551 26.7822 148.26 26.5922 148.894 26.2122C149.552 25.8069 150.034 25.1989 150.338 24.3882L151.326 27.0482C150.946 28.4669 150.198 29.5436 149.084 30.2782C147.994 30.9876 146.55 31.3422 144.752 31.3422Z" fill="#483332"/>
<path d="M171.311 31.3422C168.676 31.3422 166.624 30.6962 165.155 29.4042C163.686 28.0869 162.951 26.1109 162.951 23.4762V5.80624H170.171V23.4002C170.171 24.1349 170.374 24.7176 170.779 25.1482C171.184 25.5536 171.704 25.7562 172.337 25.7562C173.198 25.7562 173.933 25.5409 174.541 25.1102L176.327 30.1642C175.719 30.5696 174.972 30.8609 174.085 31.0382C173.198 31.2409 172.274 31.3422 171.311 31.3422ZM159.949 16.5602V11.1642H174.883V16.5602H159.949Z" fill="#483332"/>
<path d="M179.111 31.0002V10.4042H186.331V31.0002H179.111ZM182.721 8.12424C181.404 8.12424 180.34 7.75691 179.529 7.02224C178.718 6.28758 178.313 5.37558 178.313 4.28624C178.313 3.19691 178.718 2.28491 179.529 1.55024C180.34 0.815576 181.404 0.448242 182.721 0.448242C184.038 0.448242 185.102 0.802909 185.913 1.51224C186.724 2.19624 187.129 3.08291 187.129 4.17224C187.129 5.31224 186.724 6.26224 185.913 7.02224C185.128 7.75691 184.064 8.12424 182.721 8.12424Z" fill="#483332"/>
<path d="M201.359 31.3422C199.105 31.3422 197.103 30.8862 195.355 29.9742C193.607 29.0622 192.227 27.8082 191.213 26.2122C190.225 24.5909 189.731 22.7416 189.731 20.6642C189.731 18.5869 190.225 16.7502 191.213 15.1542C192.227 13.5582 193.607 12.3169 195.355 11.4302C197.103 10.5182 199.105 10.0622 201.359 10.0622C203.614 10.0622 205.615 10.5182 207.363 11.4302C209.137 12.3169 210.517 13.5582 211.505 15.1542C212.493 16.7502 212.987 18.5869 212.987 20.6642C212.987 22.7416 212.493 24.5909 211.505 26.2122C210.517 27.8082 209.137 29.0622 207.363 29.9742C205.615 30.8862 203.614 31.3422 201.359 31.3422ZM201.359 25.6042C202.195 25.6042 202.93 25.4142 203.563 25.0342C204.222 24.6542 204.741 24.0969 205.121 23.3622C205.501 22.6022 205.691 21.7029 205.691 20.6642C205.691 19.6256 205.501 18.7516 205.121 18.0422C204.741 17.3076 204.222 16.7502 203.563 16.3702C202.93 15.9902 202.195 15.8002 201.359 15.8002C200.549 15.8002 199.814 15.9902 199.155 16.3702C198.522 16.7502 198.003 17.3076 197.597 18.0422C197.217 18.7516 197.027 19.6256 197.027 20.6642C197.027 21.7029 197.217 22.6022 197.597 23.3622C198.003 24.0969 198.522 24.6542 199.155 25.0342C199.814 25.4142 200.549 25.6042 201.359 25.6042Z" fill="#483332"/>
<path d="M229.746 10.0622C231.342 10.0622 232.786 10.3916 234.078 11.0502C235.37 11.6836 236.383 12.6716 237.118 14.0142C237.878 15.3569 238.258 17.0922 238.258 19.2202V31.0002H231.038V20.3982C231.038 18.9289 230.734 17.8649 230.126 17.2062C229.543 16.5222 228.72 16.1802 227.656 16.1802C226.896 16.1802 226.199 16.3576 225.566 16.7122C224.932 17.0416 224.438 17.5609 224.084 18.2702C223.729 18.9796 223.552 19.9042 223.552 21.0442V31.0002H216.332V10.4042H223.21V16.2562L221.88 14.5462C222.665 13.0516 223.742 11.9369 225.11 11.2022C226.478 10.4422 228.023 10.0622 229.746 10.0622Z" fill="#483332"/>
<path d="M250.277 31.3422C248.529 31.3422 246.819 31.1396 245.147 30.7342C243.5 30.3289 242.17 29.8222 241.157 29.2142L243.323 24.2742C244.285 24.8569 245.413 25.3256 246.705 25.6802C247.997 26.0096 249.263 26.1742 250.505 26.1742C251.721 26.1742 252.557 26.0476 253.013 25.7942C253.494 25.5409 253.735 25.1989 253.735 24.7682C253.735 24.3629 253.507 24.0716 253.051 23.8942C252.62 23.6916 252.037 23.5396 251.303 23.4382C250.593 23.3369 249.808 23.2229 248.947 23.0962C248.085 22.9696 247.211 22.8049 246.325 22.6022C245.463 22.3742 244.665 22.0449 243.931 21.6142C243.221 21.1582 242.651 20.5502 242.221 19.7902C241.79 19.0302 241.575 18.0676 241.575 16.9022C241.575 15.5849 241.955 14.4196 242.715 13.4062C243.5 12.3676 244.64 11.5569 246.135 10.9742C247.629 10.3662 249.453 10.0622 251.607 10.0622C253.051 10.0622 254.507 10.2142 255.977 10.5182C257.471 10.7969 258.725 11.2276 259.739 11.8102L257.573 16.7122C256.559 16.1296 255.546 15.7369 254.533 15.5342C253.519 15.3062 252.557 15.1922 251.645 15.1922C250.429 15.1922 249.567 15.3316 249.061 15.6102C248.579 15.8889 248.339 16.2309 248.339 16.6362C248.339 17.0416 248.554 17.3582 248.985 17.5862C249.415 17.7889 249.985 17.9536 250.695 18.0802C251.429 18.1816 252.227 18.2956 253.089 18.4222C253.95 18.5236 254.811 18.6882 255.673 18.9162C256.559 19.1442 257.357 19.4862 258.067 19.9422C258.801 20.3729 259.384 20.9682 259.815 21.7282C260.245 22.4629 260.461 23.4129 260.461 24.5782C260.461 25.8449 260.068 26.9849 259.283 27.9982C258.523 29.0116 257.383 29.8222 255.863 30.4302C254.368 31.0382 252.506 31.3422 250.277 31.3422Z" fill="#483332"/>
</svg>
