<svg width="70" height="13" viewBox="0 0 70 13" fill="none" xmlns="http://www.w3.org/2000/svg">
<path d="M0.682617 11.9999V0.363525H5.27353C6.15231 0.363525 6.90231 0.520722 7.52353 0.835116C8.14853 1.14572 8.6239 1.58701 8.94966 2.15898C9.27921 2.72716 9.44398 3.39572 9.44398 4.16466C9.44398 4.93739 9.27731 5.60216 8.94398 6.15898C8.61065 6.71201 8.12769 7.13625 7.49512 7.43171C6.86633 7.72716 6.10496 7.87489 5.21103 7.87489H2.13716V5.89762H4.8133C5.283 5.89762 5.67315 5.83322 5.98375 5.70444C6.29436 5.57565 6.52542 5.38246 6.67694 5.12489C6.83224 4.86731 6.90989 4.54724 6.90989 4.16466C6.90989 3.7783 6.83224 3.45254 6.67694 3.18739C6.52542 2.92224 6.29247 2.72148 5.97807 2.58512C5.66747 2.44497 5.27542 2.37489 4.80194 2.37489H3.14284V11.9999H0.682617ZM6.96671 6.70444L9.85875 11.9999H7.14285L4.3133 6.70444H6.96671Z" fill="black"/>
<path d="M16.0938 12.1703C15.1961 12.1703 14.4234 11.9885 13.7756 11.6249C13.1317 11.2575 12.6355 10.7385 12.287 10.0681C11.9385 9.39383 11.7643 8.59648 11.7643 7.67603C11.7643 6.7783 11.9385 5.99042 12.287 5.31239C12.6355 4.63436 13.126 4.10595 13.7586 3.72716C14.3949 3.34837 15.1412 3.15898 15.9972 3.15898C16.573 3.15898 17.109 3.25178 17.6052 3.43739C18.1052 3.61921 18.5408 3.89383 18.912 4.26125C19.287 4.62868 19.5787 5.0908 19.787 5.64762C19.9953 6.20065 20.0995 6.84837 20.0995 7.5908V8.25557H12.7302V6.75557H17.8211C17.8211 6.40709 17.7453 6.09837 17.5938 5.82944C17.4423 5.5605 17.2321 5.35027 16.9631 5.19875C16.698 5.04345 16.3893 4.9658 16.037 4.9658C15.6696 4.9658 15.3438 5.05102 15.0597 5.22148C14.7794 5.38815 14.5597 5.61353 14.4006 5.89762C14.2415 6.17792 14.1601 6.49042 14.1563 6.83512V8.26125C14.1563 8.69307 14.2359 9.06618 14.3949 9.38057C14.5578 9.69497 14.787 9.93739 15.0824 10.1078C15.3779 10.2783 15.7283 10.3635 16.1336 10.3635C16.4025 10.3635 16.6487 10.3256 16.8722 10.2499C17.0957 10.1741 17.287 10.0605 17.4461 9.90898C17.6052 9.75747 17.7264 9.57186 17.8097 9.35216L20.0484 9.49989C19.9347 10.0378 19.7018 10.5075 19.3495 10.909C19.001 11.3067 18.5502 11.6173 17.9972 11.8408C17.448 12.0605 16.8135 12.1703 16.0938 12.1703Z" fill="black"/>
<path d="M30.0604 5.76125L27.8445 5.89762C27.8066 5.70822 27.7252 5.53777 27.6002 5.38625C27.4752 5.23095 27.3104 5.10784 27.1059 5.01693C26.9051 4.92224 26.6646 4.87489 26.3843 4.87489C26.0093 4.87489 25.693 4.95443 25.4354 5.11353C25.1778 5.26883 25.049 5.47716 25.049 5.73853C25.049 5.94686 25.1324 6.123 25.299 6.26694C25.4657 6.41087 25.7517 6.5264 26.157 6.61353L27.7365 6.93171C28.585 7.10595 29.2176 7.38625 29.6343 7.77262C30.0509 8.15898 30.2593 8.66656 30.2593 9.29534C30.2593 9.86731 30.0907 10.3692 29.7536 10.801C29.4202 11.2328 28.9619 11.57 28.3786 11.8124C27.799 12.051 27.1305 12.1703 26.3729 12.1703C25.2176 12.1703 24.2971 11.9298 23.6115 11.4488C22.9297 10.9639 22.5301 10.3048 22.4127 9.47148L24.7934 9.34648C24.8653 9.69875 25.0396 9.96769 25.3161 10.1533C25.5926 10.3351 25.9468 10.426 26.3786 10.426C26.8028 10.426 27.1437 10.3446 27.4013 10.1817C27.6627 10.015 27.7952 9.80103 27.799 9.53966C27.7952 9.31997 27.7024 9.14004 27.5206 8.99989C27.3388 8.85595 27.0585 8.7461 26.6797 8.67034L25.1684 8.36921C24.3161 8.19875 23.6816 7.9033 23.2649 7.48284C22.8521 7.06239 22.6456 6.5264 22.6456 5.87489C22.6456 5.31428 22.7971 4.83133 23.1002 4.42603C23.407 4.02072 23.8369 3.70822 24.3899 3.48853C24.9468 3.26883 25.5983 3.15898 26.3445 3.15898C27.4468 3.15898 28.3142 3.39193 28.9468 3.85784C29.5831 4.32375 29.9543 4.95822 30.0604 5.76125Z" fill="black"/>
<path d="M36.8807 12.1703C35.983 12.1703 35.2102 11.9885 34.5625 11.6249C33.9186 11.2575 33.4224 10.7385 33.0739 10.0681C32.7254 9.39383 32.5511 8.59648 32.5511 7.67603C32.5511 6.7783 32.7254 5.99042 33.0739 5.31239C33.4224 4.63436 33.9129 4.10595 34.5455 3.72716C35.1818 3.34837 35.928 3.15898 36.7841 3.15898C37.3599 3.15898 37.8958 3.25178 38.392 3.43739C38.892 3.61921 39.3277 3.89383 39.6989 4.26125C40.0739 4.62868 40.3655 5.0908 40.5739 5.64762C40.7822 6.20065 40.8864 6.84837 40.8864 7.5908V8.25557H33.517V6.75557H38.608C38.608 6.40709 38.5322 6.09837 38.3807 5.82944C38.2292 5.5605 38.0189 5.35027 37.75 5.19875C37.4849 5.04345 37.1761 4.9658 36.8239 4.9658C36.4564 4.9658 36.1307 5.05102 35.8466 5.22148C35.5663 5.38815 35.3466 5.61353 35.1875 5.89762C35.0284 6.17792 34.947 6.49042 34.9432 6.83512V8.26125C34.9432 8.69307 35.0227 9.06618 35.1818 9.38057C35.3447 9.69497 35.5739 9.93739 35.8693 10.1078C36.1648 10.2783 36.5152 10.3635 36.9205 10.3635C37.1894 10.3635 37.4356 10.3256 37.6591 10.2499C37.8826 10.1741 38.0739 10.0605 38.233 9.90898C38.3921 9.75747 38.5133 9.57186 38.5966 9.35216L40.8352 9.49989C40.7216 10.0378 40.4886 10.5075 40.1364 10.909C39.7879 11.3067 39.3371 11.6173 38.7841 11.8408C38.2349 12.0605 37.6004 12.1703 36.8807 12.1703Z" fill="black"/>
<path d="M43.5859 11.9999V3.27262H45.9325V4.79534H46.0234C46.1825 4.25368 46.4495 3.84459 46.8245 3.56807C47.1995 3.28777 47.6314 3.14762 48.12 3.14762C48.2412 3.14762 48.3719 3.15519 48.512 3.17034C48.6522 3.1855 48.7753 3.20633 48.8814 3.23284V5.38057C48.7677 5.34648 48.6105 5.31618 48.4098 5.28966C48.209 5.26315 48.0253 5.24989 47.8586 5.24989C47.5026 5.24989 47.1844 5.32754 46.9041 5.48284C46.6276 5.63436 46.4079 5.84648 46.245 6.11921C46.0859 6.39193 46.0064 6.70633 46.0064 7.06239V11.9999H43.5859Z" fill="black"/>
<path d="M59.6548 3.27262L56.6036 11.9999H53.8764L50.8252 3.27262H53.382L55.1945 9.51694H55.2855L57.0923 3.27262H59.6548Z" fill="black"/>
<path d="M65.7094 12.1703C64.8117 12.1703 64.039 11.9885 63.3913 11.6249C62.7473 11.2575 62.2511 10.7385 61.9026 10.0681C61.5541 9.39383 61.3799 8.59648 61.3799 7.67603C61.3799 6.7783 61.5541 5.99042 61.9026 5.31239C62.2511 4.63436 62.7416 4.10595 63.3742 3.72716C64.0106 3.34837 64.7568 3.15898 65.6128 3.15898C66.1886 3.15898 66.7246 3.25178 67.2208 3.43739C67.7208 3.61921 68.1564 3.89383 68.5276 4.26125C68.9026 4.62868 69.1943 5.0908 69.4026 5.64762C69.611 6.20065 69.7151 6.84837 69.7151 7.5908V8.25557H62.3458V6.75557H67.4367C67.4367 6.40709 67.361 6.09837 67.2094 5.82944C67.0579 5.5605 66.8477 5.35027 66.5788 5.19875C66.3136 5.04345 66.0049 4.9658 65.6526 4.9658C65.2852 4.9658 64.9594 5.05102 64.6753 5.22148C64.395 5.38815 64.1753 5.61353 64.0163 5.89762C63.8572 6.17792 63.7757 6.49042 63.7719 6.83512V8.26125C63.7719 8.69307 63.8515 9.06618 64.0106 9.38057C64.1735 9.69497 64.4026 9.93739 64.6981 10.1078C64.9935 10.2783 65.3439 10.3635 65.7492 10.3635C66.0181 10.3635 66.2644 10.3256 66.4878 10.2499C66.7113 10.1741 66.9026 10.0605 67.0617 9.90898C67.2208 9.75747 67.342 9.57186 67.4253 9.35216L69.664 9.49989C69.5503 10.0378 69.3174 10.5075 68.9651 10.909C68.6166 11.3067 68.1659 11.6173 67.6128 11.8408C67.0636 12.0605 66.4291 12.1703 65.7094 12.1703Z" fill="black"/>
</svg>
