<svg width="252" height="32" viewBox="0 0 252 32" fill="none" xmlns="http://www.w3.org/2000/svg">
<path d="M0.606934 31.0501V0.950144H14.3669C17.1189 0.950144 19.4839 1.39448 21.4619 2.28314C23.4686 3.17181 25.0166 4.46181 26.1059 6.15314C27.1953 7.81581 27.7399 9.79381 27.7399 12.0871C27.7399 14.3518 27.1953 16.3155 26.1059 17.9781C25.0166 19.6121 23.4686 20.8735 21.4619 21.7621C19.4839 22.6221 17.1189 23.0521 14.3669 23.0521H5.33693L9.12093 19.4831V31.0501H0.606934ZM19.2259 31.0501L11.7439 20.0851H20.8169L28.3419 31.0501H19.2259ZM9.12093 20.3861L5.33693 16.4731H13.8509C15.6283 16.4731 16.9469 16.0861 17.8069 15.3121C18.6956 14.5381 19.1399 13.4631 19.1399 12.0871C19.1399 10.6825 18.6956 9.59315 17.8069 8.81915C16.9469 8.04515 15.6283 7.65814 13.8509 7.65814H5.33693L9.12093 3.74514V20.3861Z" fill="#DE1D1D"/>
<path d="M40.263 12.6031H54.238V18.9671H40.263V12.6031ZM40.865 24.4711H56.603V31.0501H32.437V0.950144H56.044V7.52914H40.865V24.4711Z" fill="#DE1D1D"/>
<path d="M71.9056 31.6521C69.4403 31.6521 67.061 31.3511 64.7676 30.7491C62.503 30.1185 60.654 29.3158 59.2206 28.3411L62.0156 22.0631C63.363 22.9231 64.911 23.6398 66.6596 24.2131C68.437 24.7578 70.2 25.0301 71.9486 25.0301C73.124 25.0301 74.07 24.9298 74.7866 24.7291C75.5033 24.4998 76.0193 24.2131 76.3346 23.8691C76.6786 23.4965 76.8506 23.0665 76.8506 22.5791C76.8506 21.8911 76.5353 21.3465 75.9046 20.9451C75.274 20.5438 74.457 20.2141 73.4536 19.9561C72.4503 19.6981 71.3323 19.4401 70.0996 19.1821C68.8956 18.9241 67.6773 18.5945 66.4446 18.1931C65.2406 17.7918 64.137 17.2758 63.1336 16.6451C62.1303 15.9858 61.3133 15.1401 60.6826 14.1081C60.052 13.0475 59.7366 11.7145 59.7366 10.1091C59.7366 8.30315 60.224 6.66915 61.1986 5.20715C62.202 3.74515 63.6926 2.56981 65.6706 1.68114C67.6486 0.792478 70.114 0.348145 73.0666 0.348145C75.0446 0.348145 76.9796 0.577478 78.8716 1.03615C80.7923 1.46614 82.498 2.11114 83.9886 2.97114L81.3656 9.29214C79.9323 8.51814 78.5133 7.94481 77.1086 7.57215C75.704 7.17081 74.3423 6.97015 73.0236 6.97015C71.8483 6.97015 70.9023 7.09915 70.1856 7.35715C69.469 7.58648 68.953 7.90181 68.6376 8.30314C68.3223 8.70448 68.1646 9.16315 68.1646 9.67915C68.1646 10.3385 68.4656 10.8688 69.0676 11.2701C69.6983 11.6428 70.5153 11.9581 71.5186 12.2161C72.5506 12.4455 73.6686 12.6891 74.8726 12.9471C76.1053 13.2051 77.3236 13.5348 78.5276 13.9361C79.7603 14.3088 80.8783 14.8248 81.8816 15.4841C82.885 16.1148 83.6876 16.9605 84.2896 18.0211C84.9203 19.0531 85.2356 20.3575 85.2356 21.9341C85.2356 23.6828 84.734 25.3025 83.7306 26.7931C82.756 28.2551 81.2796 29.4305 79.3016 30.3191C77.3523 31.2078 74.887 31.6521 71.9056 31.6521Z" fill="#DE1D1D"/>
<path d="M96.9945 12.6031H110.969V18.9671H96.9945V12.6031ZM97.5965 24.4711H113.334V31.0501H89.1685V0.950144H112.775V7.52914H97.5965V24.4711Z" fill="#DE1D1D"/>
<path d="M118.059 31.0501V0.950144H131.819C134.571 0.950144 136.936 1.39448 138.914 2.28314C140.921 3.17181 142.469 4.46181 143.558 6.15314C144.647 7.81581 145.192 9.79381 145.192 12.0871C145.192 14.3518 144.647 16.3155 143.558 17.9781C142.469 19.6121 140.921 20.8735 138.914 21.7621C136.936 22.6221 134.571 23.0521 131.819 23.0521H122.789L126.573 19.4831V31.0501H118.059ZM136.678 31.0501L129.196 20.0851H138.269L145.794 31.0501H136.678ZM126.573 20.3861L122.789 16.4731H131.303C133.08 16.4731 134.399 16.0861 135.259 15.3121C136.148 14.5381 136.592 13.4631 136.592 12.0871C136.592 10.6825 136.148 9.59315 135.259 8.81915C134.399 8.04515 133.08 7.65814 131.303 7.65814H122.789L126.573 3.74514V20.3861Z" fill="#DE1D1D"/>
<path d="M159.134 31.0501L146.277 0.950144H155.479L166.315 27.0081H160.897L171.991 0.950144H180.419L167.519 31.0501H159.134Z" fill="#DE1D1D"/>
<path d="M182.181 31.0501V0.950144H190.695V31.0501H182.181Z" fill="#DE1D1D"/>
<path d="M204.664 14.1511H218.553V20.7301H204.664V14.1511ZM205.266 31.0501H196.752V0.950144H220.359V7.52914H205.266V31.0501Z" fill="#DE1D1D"/>
<path d="M231.952 31.0501V18.3221L233.93 23.4391L220.471 0.950144H229.458L239.176 17.2471H233.973L243.734 0.950144H251.99L238.574 23.4391L240.466 18.3221V31.0501H231.952Z" fill="#DE1D1D"/>
</svg>
