<svg width="70" height="13" viewBox="0 0 70 13" fill="none" xmlns="http://www.w3.org/2000/svg">
<path d="M0.182617 11.9562V0.319824H4.77353C5.65231 0.319824 6.40231 0.477021 7.02353 0.791415C7.64853 1.10202 8.1239 1.54331 8.44966 2.11528C8.77921 2.68346 8.94398 3.35202 8.94398 4.12096C8.94398 4.89369 8.77731 5.55846 8.44398 6.11528C8.11065 6.66831 7.62769 7.09255 6.99512 7.38801C6.36633 7.68346 5.60496 7.83119 4.71103 7.83119H1.63716V5.85392H4.3133C4.783 5.85392 5.17315 5.78952 5.48375 5.66073C5.79436 5.53195 6.02542 5.33876 6.17694 5.08119C6.33224 4.82361 6.40989 4.50354 6.40989 4.12096C6.40989 3.7346 6.33224 3.40884 6.17694 3.14369C6.02542 2.87854 5.79247 2.67778 5.47807 2.54142C5.16747 2.40126 4.77542 2.33119 4.30194 2.33119H2.64284V11.9562H0.182617ZM6.46671 6.66073L9.35875 11.9562H6.64285L3.8133 6.66073H6.46671Z" fill="black"/>
<path d="M15.5938 12.1266C14.6961 12.1266 13.9234 11.9448 13.2756 11.5812C12.6317 11.2138 12.1355 10.6948 11.787 10.0244C11.4385 9.35013 11.2643 8.55278 11.2643 7.63232C11.2643 6.7346 11.4385 5.94672 11.787 5.26869C12.1355 4.59066 12.626 4.06225 13.2586 3.68346C13.8949 3.30467 14.6412 3.11528 15.4972 3.11528C16.073 3.11528 16.609 3.20808 17.1052 3.39369C17.6052 3.57551 18.0408 3.85013 18.412 4.21755C18.787 4.58498 19.0787 5.0471 19.287 5.60392C19.4953 6.15695 19.5995 6.80467 19.5995 7.5471V8.21187H12.2302V6.71187H17.3211C17.3211 6.36339 17.2453 6.05467 17.0938 5.78573C16.9423 5.51679 16.7321 5.30657 16.4631 5.15505C16.198 4.99975 15.8893 4.9221 15.537 4.9221C15.1696 4.9221 14.8438 5.00732 14.5597 5.17778C14.2794 5.34444 14.0597 5.56982 13.9006 5.85392C13.7415 6.13422 13.6601 6.44672 13.6563 6.79142V8.21755C13.6563 8.64937 13.7359 9.02248 13.8949 9.33687C14.0578 9.65126 14.287 9.89369 14.5824 10.0641C14.8779 10.2346 15.2283 10.3198 15.6336 10.3198C15.9025 10.3198 16.1487 10.2819 16.3722 10.2062C16.5957 10.1304 16.787 10.0168 16.9461 9.86528C17.1052 9.71376 17.2264 9.52816 17.3097 9.30846L19.5484 9.45619C19.4347 9.99407 19.2018 10.4638 18.8495 10.8653C18.501 11.263 18.0502 11.5736 17.4972 11.7971C16.948 12.0168 16.3135 12.1266 15.5938 12.1266Z" fill="black"/>
<path d="M29.5604 5.71755L27.3445 5.85392C27.3066 5.66452 27.2252 5.49407 27.1002 5.34255C26.9752 5.18725 26.8104 5.06414 26.6059 4.97323C26.4051 4.87854 26.1646 4.83119 25.8843 4.83119C25.5093 4.83119 25.193 4.91073 24.9354 5.06982C24.6778 5.22513 24.549 5.43346 24.549 5.69482C24.549 5.90316 24.6324 6.07929 24.799 6.22323C24.9657 6.36717 25.2517 6.4827 25.657 6.56982L27.2365 6.88801C28.085 7.06225 28.7176 7.34255 29.1343 7.72892C29.5509 8.11528 29.7593 8.62285 29.7593 9.25164C29.7593 9.82361 29.5907 10.3255 29.2536 10.7573C28.9202 11.1891 28.4619 11.5263 27.8786 11.7687C27.299 12.0073 26.6305 12.1266 25.8729 12.1266C24.7176 12.1266 23.7971 11.8861 23.1115 11.4051C22.4297 10.9202 22.0301 10.2611 21.9127 9.42778L24.2934 9.30278C24.3653 9.65505 24.5396 9.92399 24.8161 10.1096C25.0926 10.2914 25.4468 10.3823 25.8786 10.3823C26.3028 10.3823 26.6437 10.3009 26.9013 10.138C27.1627 9.97134 27.2952 9.75732 27.299 9.49596C27.2952 9.27626 27.2024 9.09634 27.0206 8.95619C26.8388 8.81225 26.5585 8.7024 26.1797 8.62664L24.6684 8.32551C23.8161 8.15505 23.1816 7.8596 22.7649 7.43914C22.3521 7.01869 22.1456 6.4827 22.1456 5.83119C22.1456 5.27058 22.2971 4.78763 22.6002 4.38232C22.907 3.97702 23.3369 3.66452 23.8899 3.44482C24.4468 3.22513 25.0983 3.11528 25.8445 3.11528C26.9468 3.11528 27.8142 3.34823 28.4468 3.81414C29.0831 4.28005 29.4543 4.91452 29.5604 5.71755Z" fill="black"/>
<path d="M36.3807 12.1266C35.483 12.1266 34.7102 11.9448 34.0625 11.5812C33.4186 11.2138 32.9224 10.6948 32.5739 10.0244C32.2254 9.35013 32.0511 8.55278 32.0511 7.63232C32.0511 6.7346 32.2254 5.94672 32.5739 5.26869C32.9224 4.59066 33.4129 4.06225 34.0455 3.68346C34.6818 3.30467 35.428 3.11528 36.2841 3.11528C36.8599 3.11528 37.3958 3.20808 37.892 3.39369C38.392 3.57551 38.8277 3.85013 39.1989 4.21755C39.5739 4.58498 39.8655 5.0471 40.0739 5.60392C40.2822 6.15695 40.3864 6.80467 40.3864 7.5471V8.21187H33.017V6.71187H38.108C38.108 6.36339 38.0322 6.05467 37.8807 5.78573C37.7292 5.51679 37.5189 5.30657 37.25 5.15505C36.9849 4.99975 36.6761 4.9221 36.3239 4.9221C35.9564 4.9221 35.6307 5.00732 35.3466 5.17778C35.0663 5.34444 34.8466 5.56982 34.6875 5.85392C34.5284 6.13422 34.447 6.44672 34.4432 6.79142V8.21755C34.4432 8.64937 34.5227 9.02248 34.6818 9.33687C34.8447 9.65126 35.0739 9.89369 35.3693 10.0641C35.6648 10.2346 36.0152 10.3198 36.4205 10.3198C36.6894 10.3198 36.9356 10.2819 37.1591 10.2062C37.3826 10.1304 37.5739 10.0168 37.733 9.86528C37.8921 9.71376 38.0133 9.52816 38.0966 9.30846L40.3352 9.45619C40.2216 9.99407 39.9886 10.4638 39.6364 10.8653C39.2879 11.263 38.8371 11.5736 38.2841 11.7971C37.7349 12.0168 37.1004 12.1266 36.3807 12.1266Z" fill="black"/>
<path d="M43.0859 11.9562V3.22892H45.4325V4.75164H45.5234C45.6825 4.20998 45.9495 3.80088 46.3245 3.52437C46.6995 3.24407 47.1314 3.10392 47.62 3.10392C47.7412 3.10392 47.8719 3.11149 48.012 3.12664C48.1522 3.14179 48.2753 3.16263 48.3814 3.18914V5.33687C48.2677 5.30278 48.1105 5.27248 47.9098 5.24596C47.709 5.21945 47.5253 5.20619 47.3586 5.20619C47.0026 5.20619 46.6844 5.28384 46.4041 5.43914C46.1276 5.59066 45.9079 5.80278 45.745 6.07551C45.5859 6.34823 45.5064 6.66263 45.5064 7.01869V11.9562H43.0859Z" fill="black"/>
<path d="M59.1548 3.22892L56.1036 11.9562H53.3764L50.3252 3.22892H52.882L54.6945 9.47323H54.7855L56.5923 3.22892H59.1548Z" fill="black"/>
<path d="M65.2094 12.1266C64.3117 12.1266 63.539 11.9448 62.8913 11.5812C62.2473 11.2138 61.7511 10.6948 61.4026 10.0244C61.0541 9.35013 60.8799 8.55278 60.8799 7.63232C60.8799 6.7346 61.0541 5.94672 61.4026 5.26869C61.7511 4.59066 62.2416 4.06225 62.8742 3.68346C63.5106 3.30467 64.2568 3.11528 65.1128 3.11528C65.6886 3.11528 66.2246 3.20808 66.7208 3.39369C67.2208 3.57551 67.6564 3.85013 68.0276 4.21755C68.4026 4.58498 68.6943 5.0471 68.9026 5.60392C69.111 6.15695 69.2151 6.80467 69.2151 7.5471V8.21187H61.8458V6.71187H66.9367C66.9367 6.36339 66.861 6.05467 66.7094 5.78573C66.5579 5.51679 66.3477 5.30657 66.0788 5.15505C65.8136 4.99975 65.5049 4.9221 65.1526 4.9221C64.7852 4.9221 64.4594 5.00732 64.1753 5.17778C63.895 5.34444 63.6753 5.56982 63.5163 5.85392C63.3572 6.13422 63.2757 6.44672 63.2719 6.79142V8.21755C63.2719 8.64937 63.3515 9.02248 63.5106 9.33687C63.6735 9.65126 63.9026 9.89369 64.1981 10.0641C64.4935 10.2346 64.8439 10.3198 65.2492 10.3198C65.5181 10.3198 65.7644 10.2819 65.9878 10.2062C66.2113 10.1304 66.4026 10.0168 66.5617 9.86528C66.7208 9.71376 66.842 9.52816 66.9253 9.30846L69.164 9.45619C69.0503 9.99407 68.8174 10.4638 68.4651 10.8653C68.1166 11.263 67.6659 11.5736 67.1128 11.7971C66.5636 12.0168 65.9291 12.1266 65.2094 12.1266Z" fill="black"/>
</svg>
