<svg width="101" height="13" viewBox="0 0 101 13" fill="none" xmlns="http://www.w3.org/2000/svg">
<path d="M0.328125 11.9998V0.799805H5.17613C6.17879 0.799805 7.04279 0.965138 7.76813 1.2958C8.49346 1.6158 9.05346 2.0798 9.44813 2.68781C9.84279 3.2958 10.0401 4.02114 10.0401 4.86381C10.0401 5.69581 9.84279 6.41581 9.44813 7.02381C9.05346 7.62114 8.49346 8.0798 7.76813 8.39981C7.04279 8.71981 6.17879 8.87981 5.17613 8.87981H1.76813L2.92013 7.7438V11.9998H0.328125ZM7.44812 11.9998L4.64813 7.93581H7.41613L10.2481 11.9998H7.44812ZM2.92013 8.03181L1.76813 6.81581H5.03212C5.83213 6.81581 6.42946 6.64514 6.82413 6.30381C7.21879 5.95181 7.41613 5.47181 7.41613 4.86381C7.41613 4.24514 7.21879 3.76514 6.82413 3.42381C6.42946 3.08247 5.83213 2.91181 5.03212 2.91181H1.76813L2.92013 1.6798V8.03181Z" fill="#C92020"/>
<path d="M16.1897 12.1278C15.2084 12.1278 14.3444 11.9358 13.5977 11.5518C12.8617 11.1678 12.2911 10.6451 11.8857 9.98381C11.4804 9.31181 11.2778 8.54914 11.2778 7.6958C11.2778 6.8318 11.4751 6.06914 11.8698 5.4078C12.2751 4.7358 12.8244 4.21314 13.5177 3.8398C14.2111 3.45581 14.9951 3.26381 15.8698 3.26381C16.7124 3.26381 17.4697 3.44514 18.1418 3.80781C18.8244 4.15981 19.3631 4.67181 19.7578 5.34381C20.1524 6.00514 20.3498 6.79981 20.3498 7.72781C20.3498 7.82381 20.3444 7.93581 20.3338 8.06381C20.3231 8.18114 20.3124 8.29314 20.3018 8.39981H13.3098V6.94381H18.9897L18.0298 7.3758C18.0298 6.9278 17.9391 6.53847 17.7578 6.20781C17.5764 5.87714 17.3257 5.62114 17.0057 5.43981C16.6857 5.24781 16.3124 5.1518 15.8858 5.1518C15.4591 5.1518 15.0804 5.24781 14.7498 5.43981C14.4298 5.62114 14.1791 5.88247 13.9978 6.2238C13.8164 6.55447 13.7257 6.94914 13.7257 7.40781V7.79181C13.7257 8.26114 13.8271 8.67714 14.0297 9.03981C14.2431 9.39181 14.5364 9.66381 14.9097 9.85581C15.2937 10.0371 15.7418 10.1278 16.2538 10.1278C16.7124 10.1278 17.1124 10.0585 17.4538 9.91981C17.8058 9.78114 18.1257 9.57314 18.4137 9.2958L19.7418 10.7358C19.3471 11.1838 18.8511 11.5305 18.2537 11.7758C17.6564 12.0105 16.9684 12.1278 16.1897 12.1278Z" fill="#C92020"/>
<path d="M24.9075 12.1278C24.1715 12.1278 23.4622 12.0425 22.7795 11.8718C22.1075 11.6905 21.5742 11.4665 21.1795 11.1998L22.0115 9.40781C22.4062 9.65314 22.8702 9.85581 23.4035 10.0158C23.9475 10.1651 24.4808 10.2398 25.0035 10.2398C25.5795 10.2398 25.9848 10.1705 26.2195 10.0318C26.4648 9.89314 26.5875 9.70114 26.5875 9.4558C26.5875 9.25314 26.4915 9.1038 26.2995 9.0078C26.1182 8.90114 25.8728 8.82114 25.5635 8.76781C25.2542 8.71447 24.9128 8.66114 24.5395 8.60781C24.1768 8.55447 23.8088 8.48514 23.4355 8.39981C23.0622 8.3038 22.7208 8.16514 22.4115 7.9838C22.1022 7.80247 21.8515 7.55714 21.6595 7.2478C21.4782 6.93847 21.3875 6.53847 21.3875 6.04781C21.3875 5.50381 21.5422 5.02381 21.8515 4.60781C22.1715 4.1918 22.6302 3.86647 23.2275 3.63181C23.8248 3.38647 24.5395 3.26381 25.3715 3.26381C25.9582 3.26381 26.5555 3.32781 27.1635 3.4558C27.7715 3.58381 28.2782 3.77047 28.6835 4.01581L27.8515 5.79181C27.4355 5.54647 27.0142 5.38114 26.5875 5.2958C26.1715 5.1998 25.7662 5.1518 25.3715 5.1518C24.8168 5.1518 24.4115 5.22647 24.1555 5.3758C23.8995 5.52514 23.7715 5.71714 23.7715 5.95181C23.7715 6.16514 23.8622 6.32514 24.0435 6.4318C24.2355 6.53847 24.4862 6.62381 24.7955 6.68781C25.1048 6.75181 25.4408 6.81047 25.8035 6.86381C26.1768 6.90647 26.5502 6.97581 26.9235 7.07181C27.2968 7.16781 27.6328 7.30647 27.9315 7.48781C28.2408 7.65847 28.4915 7.89847 28.6835 8.20781C28.8755 8.50647 28.9715 8.90114 28.9715 9.39181C28.9715 9.92514 28.8115 10.3998 28.4915 10.8158C28.1715 11.2211 27.7075 11.5411 27.0995 11.7758C26.5022 12.0105 25.7715 12.1278 24.9075 12.1278Z" fill="#C92020"/>
<path d="M34.0315 12.1278C33.0182 12.1278 32.2288 11.8718 31.6635 11.3598C31.0982 10.8371 30.8155 10.0638 30.8155 9.03981V1.48781H33.3115V9.0078C33.3115 9.37047 33.4075 9.65314 33.5995 9.85581C33.7915 10.0478 34.0528 10.1438 34.3835 10.1438C34.7782 10.1438 35.1142 10.0371 35.3915 9.8238L36.0635 11.5838C35.8075 11.7651 35.4982 11.9038 35.1355 11.9998C34.7835 12.0851 34.4155 12.1278 34.0315 12.1278ZM29.4875 5.50381V3.58381H35.4555V5.50381H29.4875Z" fill="#C92020"/>
<path d="M42.7446 11.9998V10.3198L42.5846 9.95181V6.94381C42.5846 6.41047 42.4193 5.99447 42.0886 5.6958C41.7686 5.39714 41.2726 5.2478 40.6006 5.2478C40.142 5.2478 39.6886 5.32247 39.2406 5.47181C38.8033 5.61047 38.43 5.80247 38.1206 6.04781L37.2246 4.3038C37.694 3.97314 38.2593 3.71714 38.9206 3.5358C39.582 3.35447 40.254 3.26381 40.9366 3.26381C42.2486 3.26381 43.2673 3.57314 43.9926 4.1918C44.718 4.81047 45.0806 5.7758 45.0806 7.0878V11.9998H42.7446ZM40.1206 12.1278C39.4486 12.1278 38.8726 12.0158 38.3926 11.7918C37.9126 11.5571 37.5446 11.2425 37.2886 10.8478C37.0326 10.4531 36.9046 10.0105 36.9046 9.51981C36.9046 9.00781 37.0273 8.5598 37.2726 8.17581C37.5286 7.79181 37.9286 7.49314 38.4726 7.27981C39.0166 7.05581 39.726 6.94381 40.6006 6.94381H42.8886V8.39981H40.8726C40.286 8.39981 39.8806 8.49581 39.6566 8.68781C39.4433 8.87981 39.3366 9.11981 39.3366 9.40781C39.3366 9.72781 39.4593 9.9838 39.7046 10.1758C39.9606 10.3571 40.3073 10.4478 40.7446 10.4478C41.1606 10.4478 41.534 10.3518 41.8646 10.1598C42.1953 9.95714 42.4353 9.66381 42.5846 9.27981L42.9686 10.4318C42.7873 10.9865 42.4566 11.4078 41.9766 11.6958C41.4966 11.9838 40.878 12.1278 40.1206 12.1278Z" fill="#C92020"/>
<path d="M50.9716 12.1278C50.257 12.1278 49.617 11.9891 49.0516 11.7118C48.497 11.4345 48.065 11.0131 47.7556 10.4478C47.4463 9.87181 47.2916 9.14114 47.2916 8.25581V3.3918H49.7876V7.88781C49.7876 8.60247 49.937 9.13047 50.2356 9.47181C50.545 9.80247 50.977 9.96781 51.5316 9.96781C51.9156 9.96781 52.257 9.8878 52.5556 9.72781C52.8543 9.55714 53.089 9.30114 53.2596 8.95981C53.4303 8.60781 53.5156 8.17047 53.5156 7.64781V3.3918H56.0116V11.9998H53.6436V9.63181L54.0756 10.3198C53.7876 10.9171 53.361 11.3705 52.7956 11.6798C52.241 11.9785 51.633 12.1278 50.9716 12.1278Z" fill="#C92020"/>
<path d="M58.324 11.9998V3.3918H60.708V5.8238L60.372 5.11981C60.628 4.51181 61.0387 4.05314 61.604 3.7438C62.1693 3.42381 62.8573 3.26381 63.668 3.26381V5.56781C63.5613 5.55714 63.4653 5.55181 63.38 5.55181C63.2947 5.54114 63.204 5.5358 63.108 5.5358C62.4253 5.5358 61.8707 5.73314 61.444 6.12781C61.028 6.51181 60.82 7.11447 60.82 7.93581V11.9998H58.324Z" fill="#C92020"/>
<path d="M69.8696 11.9998V10.3198L69.7096 9.95181V6.94381C69.7096 6.41047 69.5443 5.99447 69.2136 5.6958C68.8936 5.39714 68.3976 5.2478 67.7256 5.2478C67.267 5.2478 66.8136 5.32247 66.3656 5.47181C65.9283 5.61047 65.555 5.80247 65.2456 6.04781L64.3496 4.3038C64.819 3.97314 65.3843 3.71714 66.0456 3.5358C66.707 3.35447 67.379 3.26381 68.0616 3.26381C69.3736 3.26381 70.3923 3.57314 71.1176 4.1918C71.843 4.81047 72.2056 5.7758 72.2056 7.0878V11.9998H69.8696ZM67.2456 12.1278C66.5736 12.1278 65.9976 12.0158 65.5176 11.7918C65.0376 11.5571 64.6696 11.2425 64.4136 10.8478C64.1576 10.4531 64.0296 10.0105 64.0296 9.51981C64.0296 9.00781 64.1523 8.5598 64.3976 8.17581C64.6536 7.79181 65.0536 7.49314 65.5976 7.27981C66.1416 7.05581 66.851 6.94381 67.7256 6.94381H70.0136V8.39981H67.9976C67.4109 8.39981 67.0056 8.49581 66.7816 8.68781C66.5683 8.87981 66.4616 9.11981 66.4616 9.40781C66.4616 9.72781 66.5843 9.9838 66.8296 10.1758C67.0856 10.3571 67.4323 10.4478 67.8696 10.4478C68.2856 10.4478 68.659 10.3518 68.9896 10.1598C69.3203 9.95714 69.5603 9.66381 69.7096 9.27981L70.0936 10.4318C69.9123 10.9865 69.5816 11.4078 69.1016 11.6958C68.6216 11.9838 68.003 12.1278 67.2456 12.1278Z" fill="#C92020"/>
<path d="M79.6966 3.26381C80.3793 3.26381 80.9873 3.40247 81.5206 3.6798C82.0646 3.94647 82.4913 4.36247 82.8006 4.9278C83.11 5.48247 83.2646 6.19714 83.2646 7.07181V11.9998H80.7686V7.4558C80.7686 6.76247 80.614 6.25047 80.3046 5.91981C80.006 5.58914 79.5793 5.42381 79.0246 5.42381C78.63 5.42381 78.2726 5.50914 77.9526 5.67981C77.6433 5.83981 77.398 6.09047 77.2166 6.4318C77.046 6.77314 76.9606 7.21047 76.9606 7.7438V11.9998H74.4646V3.3918H76.8486V5.7758L76.4006 5.05581C76.71 4.4798 77.1526 4.03714 77.7286 3.72781C78.3046 3.41847 78.9606 3.26381 79.6966 3.26381Z" fill="#C92020"/>
<path d="M89.0471 12.1278C88.0338 12.1278 87.2445 11.8718 86.6791 11.3598C86.1138 10.8371 85.8311 10.0638 85.8311 9.03981V1.48781H88.3271V9.0078C88.3271 9.37047 88.4231 9.65314 88.6151 9.85581C88.8071 10.0478 89.0685 10.1438 89.3991 10.1438C89.7938 10.1438 90.1298 10.0371 90.4071 9.8238L91.0791 11.5838C90.8231 11.7651 90.5138 11.9038 90.1511 11.9998C89.7991 12.0851 89.4311 12.1278 89.0471 12.1278ZM84.5031 5.50381V3.58381H90.4711V5.50381H84.5031Z" fill="#C92020"/>
<path d="M98.2115 11.9998V1.7598L99.3315 2.8798H95.9715V0.799805H100.803V11.9998H98.2115Z" fill="#C92020"/>
</svg>
