<svg width="105" height="13" viewBox="0 0 105 13" fill="none" xmlns="http://www.w3.org/2000/svg">
<path d="M0.328125 11.9999V0.79991H5.17613C6.17879 0.79991 7.04279 0.965243 7.76813 1.29591C8.49346 1.61591 9.05346 2.07991 9.44813 2.68791C9.84279 3.29591 10.0401 4.02124 10.0401 4.86391C10.0401 5.69591 9.84279 6.41591 9.44813 7.02391C9.05346 7.62124 8.49346 8.07991 7.76813 8.39991C7.04279 8.71991 6.17879 8.87991 5.17613 8.87991H1.76813L2.92013 7.74391V11.9999H0.328125ZM7.44812 11.9999L4.64813 7.93591H7.41613L10.2481 11.9999H7.44812ZM2.92013 8.03191L1.76813 6.81591H5.03212C5.83213 6.81591 6.42946 6.64524 6.82413 6.30391C7.21879 5.95191 7.41613 5.47191 7.41613 4.86391C7.41613 4.24524 7.21879 3.76524 6.82413 3.42391C6.42946 3.08258 5.83213 2.91191 5.03212 2.91191H1.76813L2.92013 1.67991V8.03191Z" fill="#C92020"/>
<path d="M16.1897 12.1279C15.2084 12.1279 14.3444 11.9359 13.5977 11.5519C12.8617 11.1679 12.2911 10.6452 11.8857 9.98391C11.4804 9.31191 11.2778 8.54924 11.2778 7.69591C11.2778 6.83191 11.4751 6.06924 11.8698 5.40791C12.2751 4.73591 12.8244 4.21324 13.5177 3.83991C14.2111 3.45591 14.9951 3.26391 15.8698 3.26391C16.7124 3.26391 17.4697 3.44524 18.1418 3.80791C18.8244 4.15991 19.3631 4.67191 19.7578 5.34391C20.1524 6.00524 20.3498 6.79991 20.3498 7.72791C20.3498 7.82391 20.3444 7.93591 20.3338 8.06391C20.3231 8.18124 20.3124 8.29324 20.3018 8.39991H13.3098V6.94391H18.9897L18.0298 7.37591C18.0298 6.92791 17.9391 6.53858 17.7578 6.20791C17.5764 5.87724 17.3257 5.62124 17.0057 5.43991C16.6857 5.24791 16.3124 5.15191 15.8858 5.15191C15.4591 5.15191 15.0804 5.24791 14.7498 5.43991C14.4298 5.62124 14.1791 5.88258 13.9978 6.22391C13.8164 6.55458 13.7257 6.94924 13.7257 7.40791V7.79191C13.7257 8.26124 13.8271 8.67724 14.0297 9.03991C14.2431 9.39191 14.5364 9.66391 14.9097 9.85591C15.2937 10.0372 15.7418 10.1279 16.2538 10.1279C16.7124 10.1279 17.1124 10.0586 17.4538 9.91991C17.8058 9.78124 18.1257 9.57324 18.4137 9.29591L19.7418 10.7359C19.3471 11.1839 18.8511 11.5306 18.2537 11.7759C17.6564 12.0106 16.9684 12.1279 16.1897 12.1279Z" fill="#C92020"/>
<path d="M24.9075 12.1279C24.1715 12.1279 23.4622 12.0426 22.7795 11.8719C22.1075 11.6906 21.5742 11.4666 21.1795 11.1999L22.0115 9.40791C22.4062 9.65324 22.8702 9.85591 23.4035 10.0159C23.9475 10.1652 24.4808 10.2399 25.0035 10.2399C25.5795 10.2399 25.9848 10.1706 26.2195 10.0319C26.4648 9.89324 26.5875 9.70124 26.5875 9.45591C26.5875 9.25324 26.4915 9.10391 26.2995 9.00791C26.1182 8.90124 25.8728 8.82124 25.5635 8.76791C25.2542 8.71458 24.9128 8.66124 24.5395 8.60791C24.1768 8.55458 23.8088 8.48524 23.4355 8.39991C23.0622 8.30391 22.7208 8.16524 22.4115 7.98391C22.1022 7.80258 21.8515 7.55724 21.6595 7.24791C21.4782 6.93858 21.3875 6.53858 21.3875 6.04791C21.3875 5.50391 21.5422 5.02391 21.8515 4.60791C22.1715 4.19191 22.6302 3.86658 23.2275 3.63191C23.8248 3.38658 24.5395 3.26391 25.3715 3.26391C25.9582 3.26391 26.5555 3.32791 27.1635 3.45591C27.7715 3.58391 28.2782 3.77058 28.6835 4.01591L27.8515 5.79191C27.4355 5.54658 27.0142 5.38124 26.5875 5.29591C26.1715 5.19991 25.7662 5.15191 25.3715 5.15191C24.8168 5.15191 24.4115 5.22658 24.1555 5.37591C23.8995 5.52524 23.7715 5.71724 23.7715 5.95191C23.7715 6.16524 23.8622 6.32524 24.0435 6.43191C24.2355 6.53858 24.4862 6.62391 24.7955 6.68791C25.1048 6.75191 25.4408 6.81058 25.8035 6.86391C26.1768 6.90658 26.5502 6.97591 26.9235 7.07191C27.2968 7.16791 27.6328 7.30658 27.9315 7.48791C28.2408 7.65858 28.4915 7.89858 28.6835 8.20791C28.8755 8.50658 28.9715 8.90124 28.9715 9.39191C28.9715 9.92524 28.8115 10.3999 28.4915 10.8159C28.1715 11.2212 27.7075 11.5412 27.0995 11.7759C26.5022 12.0106 25.7715 12.1279 24.9075 12.1279Z" fill="#C92020"/>
<path d="M34.0315 12.1279C33.0182 12.1279 32.2288 11.8719 31.6635 11.3599C31.0982 10.8372 30.8155 10.0639 30.8155 9.03991V1.48791H33.3115V9.00791C33.3115 9.37058 33.4075 9.65324 33.5995 9.85591C33.7915 10.0479 34.0528 10.1439 34.3835 10.1439C34.7782 10.1439 35.1142 10.0372 35.3915 9.82391L36.0635 11.5839C35.8075 11.7652 35.4982 11.9039 35.1355 11.9999C34.7835 12.0852 34.4155 12.1279 34.0315 12.1279ZM29.4875 5.50391V3.58391H35.4555V5.50391H29.4875Z" fill="#C92020"/>
<path d="M42.7446 11.9999V10.3199L42.5846 9.95191V6.94391C42.5846 6.41058 42.4193 5.99458 42.0886 5.69591C41.7686 5.39724 41.2726 5.24791 40.6006 5.24791C40.142 5.24791 39.6886 5.32258 39.2406 5.47191C38.8033 5.61058 38.43 5.80258 38.1206 6.04791L37.2246 4.30391C37.694 3.97324 38.2593 3.71724 38.9206 3.53591C39.582 3.35458 40.254 3.26391 40.9366 3.26391C42.2486 3.26391 43.2673 3.57324 43.9926 4.19191C44.718 4.81058 45.0806 5.77591 45.0806 7.08791V11.9999H42.7446ZM40.1206 12.1279C39.4486 12.1279 38.8726 12.0159 38.3926 11.7919C37.9126 11.5572 37.5446 11.2426 37.2886 10.8479C37.0326 10.4532 36.9046 10.0106 36.9046 9.51991C36.9046 9.00791 37.0273 8.55991 37.2726 8.17591C37.5286 7.79191 37.9286 7.49324 38.4726 7.27991C39.0166 7.05591 39.726 6.94391 40.6006 6.94391H42.8886V8.39991H40.8726C40.286 8.39991 39.8806 8.49591 39.6566 8.68791C39.4433 8.87991 39.3366 9.11991 39.3366 9.40791C39.3366 9.72791 39.4593 9.98391 39.7046 10.1759C39.9606 10.3572 40.3073 10.4479 40.7446 10.4479C41.1606 10.4479 41.534 10.3519 41.8646 10.1599C42.1953 9.95724 42.4353 9.66391 42.5846 9.27991L42.9686 10.4319C42.7873 10.9866 42.4566 11.4079 41.9766 11.6959C41.4966 11.9839 40.878 12.1279 40.1206 12.1279Z" fill="#C92020"/>
<path d="M50.9716 12.1279C50.257 12.1279 49.617 11.9892 49.0516 11.7119C48.497 11.4346 48.065 11.0132 47.7556 10.4479C47.4463 9.87191 47.2916 9.14124 47.2916 8.25591V3.39191H49.7876V7.88791C49.7876 8.60258 49.937 9.13058 50.2356 9.47191C50.545 9.80258 50.977 9.96791 51.5316 9.96791C51.9156 9.96791 52.257 9.88791 52.5556 9.72791C52.8543 9.55724 53.089 9.30124 53.2596 8.95991C53.4303 8.60791 53.5156 8.17058 53.5156 7.64791V3.39191H56.0116V11.9999H53.6436V9.63191L54.0756 10.3199C53.7876 10.9172 53.361 11.3706 52.7956 11.6799C52.241 11.9786 51.633 12.1279 50.9716 12.1279Z" fill="#C92020"/>
<path d="M58.324 11.9999V3.39191H60.708V5.82391L60.372 5.11991C60.628 4.51191 61.0387 4.05324 61.604 3.74391C62.1693 3.42391 62.8573 3.26391 63.668 3.26391V5.56791C63.5613 5.55724 63.4653 5.55191 63.38 5.55191C63.2947 5.54124 63.204 5.53591 63.108 5.53591C62.4253 5.53591 61.8707 5.73324 61.444 6.12791C61.028 6.51191 60.82 7.11458 60.82 7.93591V11.9999H58.324Z" fill="#C92020"/>
<path d="M69.8696 11.9999V10.3199L69.7096 9.95191V6.94391C69.7096 6.41058 69.5443 5.99458 69.2136 5.69591C68.8936 5.39724 68.3976 5.24791 67.7256 5.24791C67.267 5.24791 66.8136 5.32258 66.3656 5.47191C65.9283 5.61058 65.555 5.80258 65.2456 6.04791L64.3496 4.30391C64.819 3.97324 65.3843 3.71724 66.0456 3.53591C66.707 3.35458 67.379 3.26391 68.0616 3.26391C69.3736 3.26391 70.3923 3.57324 71.1176 4.19191C71.843 4.81058 72.2056 5.77591 72.2056 7.08791V11.9999H69.8696ZM67.2456 12.1279C66.5736 12.1279 65.9976 12.0159 65.5176 11.7919C65.0376 11.5572 64.6696 11.2426 64.4136 10.8479C64.1576 10.4532 64.0296 10.0106 64.0296 9.51991C64.0296 9.00791 64.1523 8.55991 64.3976 8.17591C64.6536 7.79191 65.0536 7.49324 65.5976 7.27991C66.1416 7.05591 66.851 6.94391 67.7256 6.94391H70.0136V8.39991H67.9976C67.4109 8.39991 67.0056 8.49591 66.7816 8.68791C66.5683 8.87991 66.4616 9.11991 66.4616 9.40791C66.4616 9.72791 66.5843 9.98391 66.8296 10.1759C67.0856 10.3572 67.4323 10.4479 67.8696 10.4479C68.2856 10.4479 68.659 10.3519 68.9896 10.1599C69.3203 9.95724 69.5603 9.66391 69.7096 9.27991L70.0936 10.4319C69.9123 10.9866 69.5816 11.4079 69.1016 11.6959C68.6216 11.9839 68.003 12.1279 67.2456 12.1279Z" fill="#C92020"/>
<path d="M79.6966 3.26391C80.3793 3.26391 80.9873 3.40258 81.5206 3.67991C82.0646 3.94658 82.4913 4.36258 82.8006 4.92791C83.11 5.48258 83.2646 6.19724 83.2646 7.07191V11.9999H80.7686V7.45591C80.7686 6.76258 80.614 6.25058 80.3046 5.91991C80.006 5.58924 79.5793 5.42391 79.0246 5.42391C78.63 5.42391 78.2726 5.50924 77.9526 5.67991C77.6433 5.83991 77.398 6.09058 77.2166 6.43191C77.046 6.77324 76.9606 7.21058 76.9606 7.74391V11.9999H74.4646V3.39191H76.8486V5.77591L76.4006 5.05591C76.71 4.47991 77.1526 4.03724 77.7286 3.72791C78.3046 3.41858 78.9606 3.26391 79.6966 3.26391Z" fill="#C92020"/>
<path d="M89.0471 12.1279C88.0338 12.1279 87.2445 11.8719 86.6791 11.3599C86.1138 10.8372 85.8311 10.0639 85.8311 9.03991V1.48791H88.3271V9.00791C88.3271 9.37058 88.4231 9.65324 88.6151 9.85591C88.8071 10.0479 89.0685 10.1439 89.3991 10.1439C89.7938 10.1439 90.1298 10.0372 90.4071 9.82391L91.0791 11.5839C90.8231 11.7652 90.5138 11.9039 90.1511 11.9999C89.7991 12.0852 89.4311 12.1279 89.0471 12.1279ZM84.5031 5.50391V3.58391H90.4711V5.50391H84.5031Z" fill="#C92020"/>
<path d="M96.3875 11.9999V10.3199L100.707 6.23991C101.049 5.93058 101.299 5.65324 101.459 5.40791C101.619 5.16258 101.726 4.93858 101.779 4.73591C101.843 4.53324 101.875 4.34658 101.875 4.17591C101.875 3.72791 101.721 3.38658 101.411 3.15191C101.113 2.90658 100.67 2.78391 100.083 2.78391C99.6142 2.78391 99.1768 2.87458 98.7715 3.05591C98.3768 3.23724 98.0408 3.51991 97.7635 3.90391L95.8755 2.68791C96.3022 2.04791 96.8995 1.54124 97.6675 1.16791C98.4355 0.794577 99.3208 0.60791 100.323 0.60791C101.155 0.60791 101.881 0.746577 102.499 1.02391C103.129 1.29058 103.614 1.66924 103.955 2.15991C104.307 2.65058 104.483 3.23724 104.483 3.91991C104.483 4.28258 104.436 4.64524 104.34 5.00791C104.254 5.35991 104.073 5.73324 103.795 6.12791C103.529 6.52258 103.134 6.96524 102.611 7.45591L99.0275 10.8319L98.5315 9.88791H104.852V11.9999H96.3875Z" fill="#C92020"/>
</svg>
