<svg width="94" height="19" viewBox="0 0 94 19" fill="none" xmlns="http://www.w3.org/2000/svg">
<path d="M0.825928 18V2.60004H7.49193C8.87059 2.60004 10.0586 2.82737 11.0559 3.28204C12.0533 3.72204 12.8233 4.36003 13.3659 5.19604C13.9086 6.03203 14.1799 7.02937 14.1799 8.18804C14.1799 9.33204 13.9086 10.322 13.3659 11.158C12.8233 11.9794 12.0533 12.61 11.0559 13.05C10.0586 13.49 8.87059 13.71 7.49193 13.71H2.80593L4.38993 12.148V18H0.825928ZM10.6159 18L6.76593 12.412H10.5719L14.4659 18H10.6159ZM4.38993 12.544L2.80593 10.872H7.29393C8.39393 10.872 9.21526 10.6374 9.75793 10.168C10.3006 9.68404 10.5719 9.02404 10.5719 8.18804C10.5719 7.33737 10.3006 6.67737 9.75793 6.20804C9.21526 5.7387 8.39393 5.50404 7.29393 5.50404H2.80593L4.38993 3.81004V12.544Z" fill="#C92020"/>
<path d="M22.6357 18.176C21.2863 18.176 20.0983 17.912 19.0717 17.384C18.0597 16.856 17.275 16.1374 16.7177 15.228C16.1603 14.304 15.8817 13.2554 15.8817 12.082C15.8817 10.894 16.153 9.84537 16.6957 8.93604C17.253 8.01204 18.0083 7.29337 18.9617 6.78004C19.915 6.25204 20.993 5.98804 22.1957 5.98804C23.3543 5.98804 24.3957 6.23737 25.3197 6.73604C26.2583 7.22004 26.999 7.92404 27.5417 8.84804C28.0843 9.75737 28.3557 10.85 28.3557 12.126C28.3557 12.258 28.3483 12.412 28.3337 12.588C28.319 12.7494 28.3043 12.9034 28.2897 13.05H18.6757V11.048H26.4857L25.1657 11.642C25.1657 11.026 25.041 10.4907 24.7917 10.036C24.5423 9.58137 24.1977 9.22937 23.7577 8.98004C23.3177 8.71604 22.8043 8.58404 22.2177 8.58404C21.631 8.58404 21.1103 8.71604 20.6557 8.98004C20.2157 9.22937 19.871 9.5887 19.6217 10.058C19.3723 10.5127 19.2477 11.0554 19.2477 11.686V12.214C19.2477 12.8594 19.387 13.4314 19.6657 13.93C19.959 14.414 20.3623 14.788 20.8757 15.052C21.4037 15.3014 22.0197 15.426 22.7237 15.426C23.3543 15.426 23.9043 15.3307 24.3737 15.14C24.8577 14.9494 25.2977 14.6634 25.6937 14.282L27.5197 16.262C26.977 16.878 26.295 17.3547 25.4737 17.692C24.6523 18.0147 23.7063 18.176 22.6357 18.176Z" fill="#C92020"/>
<path d="M33.6377 18L28.6657 6.16403H32.2077L36.3437 16.35H34.5837L38.8737 6.16403H42.1737L37.1797 18H33.6377Z" fill="#C92020"/>
<path d="M43.5742 18V6.16403H47.0062V18H43.5742ZM45.2902 4.51404C44.6595 4.51404 44.1462 4.3307 43.7502 3.96404C43.3542 3.59737 43.1562 3.1427 43.1562 2.60004C43.1562 2.05737 43.3542 1.6027 43.7502 1.23604C44.1462 0.869369 44.6595 0.686035 45.2902 0.686035C45.9208 0.686035 46.4342 0.862036 46.8302 1.21404C47.2262 1.55137 47.4242 1.99137 47.4242 2.53404C47.4242 3.10604 47.2262 3.5827 46.8302 3.96404C46.4488 4.3307 45.9355 4.51404 45.2902 4.51404Z" fill="#C92020"/>
<path d="M56.0653 18.176C54.716 18.176 53.528 17.912 52.5014 17.384C51.4893 16.856 50.7047 16.1374 50.1474 15.228C49.59 14.304 49.3113 13.2554 49.3113 12.082C49.3113 10.894 49.5827 9.84537 50.1254 8.93604C50.6827 8.01204 51.438 7.29337 52.3913 6.78004C53.3447 6.25204 54.4227 5.98804 55.6254 5.98804C56.784 5.98804 57.8254 6.23737 58.7494 6.73604C59.688 7.22004 60.4287 7.92404 60.9714 8.84804C61.514 9.75737 61.7854 10.85 61.7854 12.126C61.7854 12.258 61.778 12.412 61.7634 12.588C61.7487 12.7494 61.734 12.9034 61.7193 13.05H52.1054V11.048H59.9153L58.5953 11.642C58.5953 11.026 58.4707 10.4907 58.2213 10.036C57.972 9.58137 57.6273 9.22937 57.1874 8.98004C56.7474 8.71604 56.234 8.58404 55.6474 8.58404C55.0607 8.58404 54.54 8.71604 54.0854 8.98004C53.6454 9.22937 53.3007 9.5887 53.0513 10.058C52.802 10.5127 52.6773 11.0554 52.6773 11.686V12.214C52.6773 12.8594 52.8167 13.4314 53.0953 13.93C53.3887 14.414 53.792 14.788 54.3054 15.052C54.8334 15.3014 55.4494 15.426 56.1534 15.426C56.784 15.426 57.334 15.3307 57.8033 15.14C58.2873 14.9494 58.7273 14.6634 59.1233 14.282L60.9494 16.262C60.4067 16.878 59.7247 17.3547 58.9034 17.692C58.082 18.0147 57.136 18.176 56.0653 18.176Z" fill="#C92020"/>
<path d="M66.5614 18L62.2934 6.16403H65.5274L69.0694 16.35H67.5294L71.2254 6.16403H74.1294L77.7154 16.35H76.1754L79.8274 6.16403H82.8634L78.5734 18H75.2514L72.1054 9.26604H73.1174L69.8614 18H66.5614Z" fill="#C92020"/>
<path d="M88.2691 18.176C87.2571 18.176 86.2817 18.0587 85.3431 17.824C84.4191 17.5747 83.6857 17.2667 83.1431 16.9L84.2871 14.436C84.8297 14.7734 85.4677 15.052 86.2011 15.272C86.9491 15.4774 87.6824 15.58 88.4011 15.58C89.1931 15.58 89.7504 15.4847 90.0731 15.294C90.4104 15.1034 90.5791 14.8394 90.5791 14.502C90.5791 14.2234 90.4471 14.018 90.1831 13.886C89.9337 13.7394 89.5964 13.6294 89.1711 13.556C88.7457 13.4827 88.2764 13.4094 87.7631 13.336C87.2644 13.2627 86.7584 13.1674 86.2451 13.05C85.7317 12.918 85.2624 12.7274 84.8371 12.478C84.4117 12.2287 84.0671 11.8914 83.8031 11.466C83.5537 11.0407 83.4291 10.4907 83.4291 9.81604C83.4291 9.06804 83.6417 8.40804 84.0671 7.83604C84.5071 7.26404 85.1377 6.8167 85.9591 6.49404C86.7804 6.1567 87.7631 5.98804 88.9071 5.98804C89.7137 5.98804 90.5351 6.07604 91.3711 6.25204C92.2071 6.42804 92.9037 6.6847 93.4611 7.02204L92.3171 9.46404C91.7451 9.1267 91.1657 8.89937 90.5791 8.78204C90.0071 8.65004 89.4497 8.58404 88.9071 8.58404C88.1444 8.58404 87.5871 8.6867 87.2351 8.89204C86.8831 9.09737 86.7071 9.36137 86.7071 9.68404C86.7071 9.97737 86.8317 10.1974 87.0811 10.344C87.3451 10.4907 87.6897 10.608 88.1151 10.696C88.5404 10.784 89.0024 10.8647 89.5011 10.938C90.0144 10.9967 90.5277 11.092 91.0411 11.224C91.5544 11.356 92.0164 11.5467 92.4271 11.796C92.8524 12.0307 93.1971 12.3607 93.4611 12.786C93.7251 13.1967 93.8571 13.7394 93.8571 14.414C93.8571 15.1474 93.6371 15.8 93.1971 16.372C92.7571 16.9294 92.1191 17.3694 91.2831 17.692C90.4617 18.0147 89.4571 18.176 88.2691 18.176Z" fill="#C92020"/>
</svg>
