<svg width="235" height="28" viewBox="0 0 235 28" fill="none" xmlns="http://www.w3.org/2000/svg">
<path d="M6.32007 12.6H19.7601V17.8H6.32007V12.6ZM6.80007 28H0.320068V0H21.4801V5.2H6.80007V28Z" fill="black"/>
<path d="M25.8669 28V0H32.3469V28H25.8669Z" fill="black"/>
<path d="M38.9919 28V0H44.3519L60.8719 20.16H58.2719V0H64.6719V28H59.3519L42.7919 7.84H45.3919V28H38.9919Z" fill="black"/>
<path d="M71.2966 28V0H84.0166C87.0566 0 89.7366 0.586667 92.0566 1.76C94.3766 2.90667 96.19 4.52 97.4966 6.6C98.8033 8.68 99.4566 11.1467 99.4566 14C99.4566 16.8267 98.8033 19.2933 97.4966 21.4C96.19 23.48 94.3766 25.1067 92.0566 26.28C89.7366 27.4267 87.0566 28 84.0166 28H71.2966ZM77.7766 22.68H83.6966C85.5633 22.68 87.1766 22.3333 88.5366 21.64C89.9233 20.92 90.99 19.9067 91.7366 18.6C92.51 17.2933 92.8966 15.76 92.8966 14C92.8966 12.2133 92.51 10.68 91.7366 9.4C90.99 8.09333 89.9233 7.09334 88.5366 6.4C87.1766 5.68 85.5633 5.32 83.6966 5.32H77.7766V22.68Z" fill="black"/>
<path d="M137.504 13.9998V2.7998H142.112C143.104 2.7998 143.952 2.9598 144.656 3.27981C145.371 3.5998 145.92 4.05847 146.304 4.6558C146.688 5.25314 146.88 5.96247 146.88 6.7838C146.88 7.60514 146.688 8.31447 146.304 8.91181C145.92 9.49847 145.371 9.9518 144.656 10.2718C143.952 10.5811 143.104 10.7358 142.112 10.7358H138.656L139.584 9.79181V13.9998H137.504ZM144.832 13.9998L142 9.93581H144.224L147.072 13.9998H144.832ZM139.584 10.0158L138.656 9.02381H142.016C142.933 9.02381 143.621 8.82647 144.08 8.4318C144.549 8.03714 144.784 7.4878 144.784 6.7838C144.784 6.06914 144.549 5.51981 144.08 5.13581C143.621 4.7518 142.933 4.5598 142.016 4.5598H138.656L139.584 3.5358V10.0158Z" fill="#DE1D1D"/>
<path d="M153.031 14.1118C152.082 14.1118 151.25 13.9251 150.535 13.5518C149.831 13.1678 149.282 12.6451 148.887 11.9838C148.503 11.3225 148.311 10.5705 148.311 9.72781C148.311 8.87447 148.498 8.12247 148.871 7.47181C149.255 6.81047 149.778 6.29314 150.439 5.91981C151.111 5.54647 151.874 5.35981 152.727 5.35981C153.559 5.35981 154.301 5.54114 154.951 5.9038C155.602 6.26647 156.114 6.77847 156.487 7.43981C156.861 8.10114 157.047 8.87981 157.047 9.77581C157.047 9.86114 157.042 9.95714 157.031 10.0638C157.031 10.1705 157.026 10.2718 157.015 10.3678H149.895V9.03981H155.959L155.175 9.4558C155.186 8.96514 155.085 8.53314 154.871 8.15981C154.658 7.78647 154.365 7.49314 153.991 7.27981C153.629 7.06647 153.207 6.9598 152.727 6.9598C152.237 6.9598 151.805 7.06647 151.431 7.27981C151.069 7.49314 150.781 7.79181 150.567 8.17581C150.365 8.54914 150.263 8.99181 150.263 9.50381V9.8238C150.263 10.3358 150.381 10.7891 150.615 11.1838C150.85 11.5785 151.181 11.8825 151.607 12.0958C152.034 12.3091 152.525 12.4158 153.079 12.4158C153.559 12.4158 153.991 12.3411 154.375 12.1918C154.759 12.0425 155.101 11.8078 155.399 11.4878L156.471 12.7198C156.087 13.1678 155.602 13.5145 155.015 13.7598C154.439 13.9945 153.778 14.1118 153.031 14.1118Z" fill="#DE1D1D"/>
<path d="M161.608 14.1118C160.894 14.1118 160.206 14.0211 159.544 13.8398C158.894 13.6478 158.376 13.4185 157.992 13.1518L158.76 11.6318C159.144 11.8771 159.603 12.0798 160.136 12.2398C160.67 12.3998 161.203 12.4798 161.736 12.4798C162.366 12.4798 162.819 12.3945 163.096 12.2238C163.384 12.0531 163.528 11.8238 163.528 11.5358C163.528 11.3011 163.432 11.1251 163.24 11.0078C163.048 10.8798 162.798 10.7838 162.488 10.7198C162.179 10.6558 161.832 10.5971 161.448 10.5438C161.075 10.4905 160.696 10.4211 160.312 10.3358C159.939 10.2398 159.598 10.1065 159.288 9.93581C158.979 9.75447 158.728 9.51447 158.536 9.21581C158.344 8.91714 158.248 8.52247 158.248 8.03181C158.248 7.4878 158.403 7.01847 158.712 6.62381C159.022 6.21847 159.454 5.90914 160.008 5.6958C160.574 5.4718 161.24 5.35981 162.008 5.35981C162.584 5.35981 163.166 5.42381 163.752 5.55181C164.339 5.67981 164.824 5.86114 165.208 6.09581L164.44 7.6158C164.035 7.37047 163.624 7.20514 163.208 7.11981C162.803 7.02381 162.398 6.97581 161.992 6.97581C161.384 6.97581 160.931 7.06647 160.632 7.2478C160.344 7.42914 160.2 7.65847 160.2 7.93581C160.2 8.19181 160.296 8.3838 160.488 8.5118C160.68 8.6398 160.931 8.74114 161.24 8.81581C161.55 8.89047 161.891 8.95447 162.264 9.0078C162.648 9.05047 163.027 9.1198 163.4 9.21581C163.774 9.31181 164.115 9.44514 164.424 9.6158C164.744 9.7758 165 10.0051 165.192 10.3038C165.384 10.6025 165.48 10.9918 165.48 11.4718C165.48 12.0051 165.32 12.4691 165 12.8638C164.691 13.2585 164.248 13.5678 163.672 13.7918C163.096 14.0051 162.408 14.1118 161.608 14.1118Z" fill="#DE1D1D"/>
<path d="M170.419 14.1118C169.48 14.1118 168.755 13.8718 168.243 13.3918C167.731 12.9011 167.475 12.1811 167.475 11.2318V3.56781H169.475V11.1838C169.475 11.5891 169.576 11.9038 169.779 12.1278C169.992 12.3518 170.285 12.4638 170.659 12.4638C171.107 12.4638 171.48 12.3465 171.779 12.1118L172.339 13.5358C172.104 13.7278 171.816 13.8718 171.475 13.9678C171.133 14.0638 170.781 14.1118 170.419 14.1118ZM166.067 7.11981V5.5198H171.763V7.11981H166.067Z" fill="#DE1D1D"/>
<path d="M179.248 13.9998V12.2718L179.136 11.9038V8.8798C179.136 8.29314 178.96 7.83981 178.608 7.5198C178.256 7.18914 177.723 7.02381 177.008 7.02381C176.528 7.02381 176.053 7.09847 175.584 7.2478C175.125 7.39714 174.736 7.60514 174.416 7.87181L173.632 6.4158C174.091 6.0638 174.635 5.80247 175.264 5.63181C175.904 5.45047 176.565 5.35981 177.248 5.35981C178.485 5.35981 179.44 5.65847 180.112 6.25581C180.795 6.84247 181.136 7.75447 181.136 8.99181V13.9998H179.248ZM176.56 14.1118C175.92 14.1118 175.36 14.0051 174.88 13.7918C174.4 13.5678 174.027 13.2638 173.76 12.8798C173.504 12.4851 173.376 12.0425 173.376 11.5518C173.376 11.0718 173.488 10.6398 173.712 10.2558C173.947 9.87181 174.325 9.56781 174.848 9.34381C175.371 9.11981 176.064 9.0078 176.928 9.0078H179.408V10.3358H177.072C176.389 10.3358 175.931 10.4478 175.696 10.6718C175.461 10.8851 175.344 11.1518 175.344 11.4718C175.344 11.8345 175.488 12.1225 175.776 12.3358C176.064 12.5491 176.464 12.6558 176.976 12.6558C177.467 12.6558 177.904 12.5438 178.288 12.3198C178.683 12.0958 178.965 11.7651 179.136 11.3278L179.472 12.5278C179.28 13.0291 178.933 13.4185 178.432 13.6958C177.941 13.9731 177.317 14.1118 176.56 14.1118Z" fill="#DE1D1D"/>
<path d="M187.319 14.1118C186.593 14.1118 185.953 13.9785 185.399 13.7118C184.844 13.4345 184.412 13.0185 184.103 12.4638C183.793 11.8985 183.639 11.1891 183.639 10.3358V5.4558H185.639V10.0638C185.639 10.8318 185.809 11.4078 186.151 11.7918C186.503 12.1651 186.999 12.3518 187.639 12.3518C188.108 12.3518 188.513 12.2558 188.855 12.0638C189.207 11.8718 189.479 11.5838 189.671 11.1998C189.873 10.8158 189.975 10.3411 189.975 9.77581V5.4558H191.975V13.9998H190.071V11.6958L190.407 12.3998C190.119 12.9545 189.697 13.3811 189.143 13.6798C188.588 13.9678 187.98 14.1118 187.319 14.1118Z" fill="#DE1D1D"/>
<path d="M194.593 13.9998V5.4558H196.497V7.80781L196.273 7.11981C196.529 6.54381 196.929 6.10647 197.473 5.80781C198.028 5.50914 198.716 5.35981 199.537 5.35981V7.26381C199.452 7.24247 199.372 7.23181 199.297 7.23181C199.223 7.22114 199.148 7.21581 199.073 7.21581C198.316 7.21581 197.713 7.43981 197.265 7.8878C196.817 8.32514 196.593 8.98114 196.593 9.85581V13.9998H194.593Z" fill="#DE1D1D"/>
<path d="M205.889 13.9998V12.2718L205.777 11.9038V8.8798C205.777 8.29314 205.601 7.83981 205.249 7.5198C204.897 7.18914 204.363 7.02381 203.649 7.02381C203.169 7.02381 202.694 7.09847 202.225 7.2478C201.766 7.39714 201.377 7.60514 201.057 7.87181L200.273 6.4158C200.731 6.0638 201.275 5.80247 201.905 5.63181C202.545 5.45047 203.206 5.35981 203.889 5.35981C205.126 5.35981 206.081 5.65847 206.753 6.25581C207.435 6.84247 207.777 7.75447 207.777 8.99181V13.9998H205.889ZM203.201 14.1118C202.561 14.1118 202.001 14.0051 201.521 13.7918C201.041 13.5678 200.667 13.2638 200.401 12.8798C200.145 12.4851 200.017 12.0425 200.017 11.5518C200.017 11.0718 200.129 10.6398 200.353 10.2558C200.587 9.87181 200.966 9.56781 201.489 9.34381C202.011 9.11981 202.705 9.0078 203.569 9.0078H206.049V10.3358H203.713C203.03 10.3358 202.571 10.4478 202.337 10.6718C202.102 10.8851 201.985 11.1518 201.985 11.4718C201.985 11.8345 202.129 12.1225 202.417 12.3358C202.705 12.5491 203.105 12.6558 203.617 12.6558C204.107 12.6558 204.545 12.5438 204.929 12.3198C205.323 12.0958 205.606 11.7651 205.777 11.3278L206.113 12.5278C205.921 13.0291 205.574 13.4185 205.073 13.6958C204.582 13.9731 203.958 14.1118 203.201 14.1118Z" fill="#DE1D1D"/>
<path d="M215.191 5.35981C215.874 5.35981 216.482 5.49314 217.015 5.7598C217.559 6.02647 217.986 6.43714 218.295 6.99181C218.605 7.53581 218.759 8.23981 218.759 9.10381V13.9998H216.759V9.35981C216.759 8.60247 216.578 8.03714 216.215 7.66381C215.863 7.29047 215.367 7.10381 214.727 7.10381C214.258 7.10381 213.842 7.19981 213.479 7.39181C213.117 7.58381 212.834 7.87181 212.631 8.25581C212.439 8.62914 212.343 9.10381 212.343 9.67981V13.9998H210.343V5.4558H212.247V7.75981L211.911 7.05581C212.21 6.51181 212.642 6.09581 213.207 5.80781C213.783 5.50914 214.445 5.35981 215.191 5.35981Z" fill="#DE1D1D"/>
<path d="M224.512 14.1118C223.574 14.1118 222.848 13.8718 222.336 13.3918C221.824 12.9011 221.568 12.1811 221.568 11.2318V3.56781H223.568V11.1838C223.568 11.5891 223.67 11.9038 223.872 12.1278C224.086 12.3518 224.379 12.4638 224.752 12.4638C225.2 12.4638 225.574 12.3465 225.872 12.1118L226.432 13.5358C226.198 13.7278 225.91 13.8718 225.568 13.9678C225.227 14.0638 224.875 14.1118 224.512 14.1118ZM220.16 7.11981V5.5198H225.856V7.11981H220.16Z" fill="#DE1D1D"/>
<path d="M230.718 14.1118C230.003 14.1118 229.315 14.0211 228.654 13.8398C228.003 13.6478 227.486 13.4185 227.102 13.1518L227.87 11.6318C228.254 11.8771 228.712 12.0798 229.246 12.2398C229.779 12.3998 230.312 12.4798 230.846 12.4798C231.475 12.4798 231.928 12.3945 232.206 12.2238C232.494 12.0531 232.638 11.8238 232.638 11.5358C232.638 11.3011 232.542 11.1251 232.35 11.0078C232.158 10.8798 231.907 10.7838 231.598 10.7198C231.288 10.6558 230.942 10.5971 230.558 10.5438C230.184 10.4905 229.806 10.4211 229.422 10.3358C229.048 10.2398 228.707 10.1065 228.398 9.93581C228.088 9.75447 227.838 9.51447 227.646 9.21581C227.454 8.91714 227.358 8.52247 227.358 8.03181C227.358 7.4878 227.512 7.01847 227.822 6.62381C228.131 6.21847 228.563 5.90914 229.118 5.6958C229.683 5.4718 230.35 5.35981 231.118 5.35981C231.694 5.35981 232.275 5.42381 232.862 5.55181C233.448 5.67981 233.934 5.86114 234.318 6.09581L233.55 7.6158C233.144 7.37047 232.734 7.20514 232.318 7.11981C231.912 7.02381 231.507 6.97581 231.102 6.97581C230.494 6.97581 230.04 7.06647 229.742 7.2478C229.454 7.42914 229.31 7.65847 229.31 7.93581C229.31 8.19181 229.406 8.3838 229.598 8.5118C229.79 8.6398 230.04 8.74114 230.35 8.81581C230.659 8.89047 231 8.95447 231.374 9.0078C231.758 9.05047 232.136 9.1198 232.51 9.21581C232.883 9.31181 233.224 9.44514 233.534 9.6158C233.854 9.7758 234.11 10.0051 234.302 10.3038C234.494 10.6025 234.59 10.9918 234.59 11.4718C234.59 12.0051 234.43 12.4691 234.11 12.8638C233.8 13.2585 233.358 13.5678 232.782 13.7918C232.206 14.0051 231.518 14.1118 230.718 14.1118Z" fill="#DE1D1D"/>
<path d="M137 23H167V25H137V23Z" fill="#DE1D1D"/>
</svg>
