<svg width="42" height="10" viewBox="0 0 42 10" fill="none" xmlns="http://www.w3.org/2000/svg">
<path d="M3.73192 9.1197C3.07592 9.1197 2.44792 9.0277 1.84792 8.8437C1.24792 8.6517 0.771922 8.4077 0.419922 8.1117L0.959922 6.8997C1.29592 7.1637 1.71192 7.3837 2.20792 7.5597C2.70392 7.7357 3.21192 7.8237 3.73192 7.8237C4.17192 7.8237 4.52792 7.7757 4.79992 7.6797C5.07192 7.5837 5.27192 7.4557 5.39992 7.2957C5.52792 7.1277 5.59192 6.9397 5.59192 6.7317C5.59192 6.4757 5.49992 6.2717 5.31592 6.1197C5.13192 5.9597 4.89192 5.8357 4.59592 5.7477C4.30792 5.6517 3.98392 5.5637 3.62392 5.4837C3.27192 5.4037 2.91592 5.3117 2.55592 5.2077C2.20392 5.0957 1.87992 4.9557 1.58392 4.7877C1.29592 4.6117 1.05992 4.3797 0.875922 4.0917C0.691922 3.8037 0.599922 3.4357 0.599922 2.9877C0.599922 2.5317 0.719922 2.1157 0.959922 1.7397C1.20792 1.3557 1.57992 1.0517 2.07592 0.827703C2.57992 0.595703 3.21592 0.479703 3.98392 0.479703C4.48792 0.479703 4.98792 0.543703 5.48392 0.671704C5.97992 0.799703 6.41192 0.983703 6.77992 1.2237L6.28792 2.4357C5.91192 2.2117 5.52392 2.0477 5.12392 1.9437C4.72392 1.8317 4.33992 1.7757 3.97192 1.7757C3.53992 1.7757 3.18792 1.8277 2.91592 1.9317C2.65192 2.0357 2.45592 2.1717 2.32792 2.3397C2.20792 2.5077 2.14792 2.6997 2.14792 2.9157C2.14792 3.1717 2.23592 3.3797 2.41192 3.5397C2.59592 3.6917 2.83192 3.8117 3.11992 3.8997C3.41592 3.9877 3.74392 4.0757 4.10392 4.1637C4.46392 4.2437 4.81992 4.3357 5.17192 4.4397C5.53192 4.5437 5.85592 4.6797 6.14392 4.8477C6.43992 5.0157 6.67592 5.2437 6.85192 5.5317C7.03592 5.8197 7.12792 6.1837 7.12792 6.6237C7.12792 7.0717 7.00392 7.4877 6.75592 7.8717C6.51592 8.2477 6.14392 8.5517 5.63992 8.7837C5.13592 9.0077 4.49992 9.1197 3.73192 9.1197Z" fill="#483332"/>
<path d="M11.5428 9.0837C10.8308 9.0837 10.2068 8.9437 9.6708 8.6637C9.1428 8.3757 8.7308 7.9837 8.4348 7.4877C8.1468 6.9917 8.0028 6.4277 8.0028 5.7957C8.0028 5.1557 8.1428 4.5917 8.4228 4.1037C8.7108 3.6077 9.1028 3.2197 9.5988 2.9397C10.1028 2.6597 10.6748 2.5197 11.3148 2.5197C11.9388 2.5197 12.4948 2.6557 12.9828 2.9277C13.4708 3.1997 13.8548 3.5837 14.1348 4.0797C14.4148 4.5757 14.5548 5.1597 14.5548 5.8317C14.5548 5.8957 14.5508 5.9677 14.5428 6.0477C14.5428 6.1277 14.5388 6.2037 14.5308 6.2757H9.1908V5.2797H13.7388L13.1508 5.5917C13.1588 5.2237 13.0828 4.8997 12.9228 4.6197C12.7628 4.3397 12.5428 4.1197 12.2628 3.9597C11.9908 3.7997 11.6748 3.7197 11.3148 3.7197C10.9468 3.7197 10.6228 3.7997 10.3428 3.9597C10.0708 4.1197 9.8548 4.3437 9.6948 4.6317C9.5428 4.9117 9.4668 5.2437 9.4668 5.6277V5.8677C9.4668 6.2517 9.5548 6.5917 9.7308 6.8877C9.9068 7.1837 10.1548 7.4117 10.4748 7.5717C10.7948 7.7317 11.1628 7.8117 11.5788 7.8117C11.9388 7.8117 12.2628 7.7557 12.5508 7.6437C12.8388 7.5317 13.0948 7.3557 13.3188 7.1157L14.1228 8.0397C13.8348 8.3757 13.4708 8.6357 13.0308 8.8197C12.5988 8.9957 12.1028 9.0837 11.5428 9.0837Z" fill="#483332"/>
<path d="M19.7679 8.9997V7.7037L19.6839 7.4277V5.1597C19.6839 4.7197 19.5519 4.3797 19.2879 4.1397C19.0239 3.8917 18.6239 3.7677 18.0879 3.7677C17.7279 3.7677 17.3719 3.8237 17.0199 3.9357C16.6759 4.0477 16.3839 4.2037 16.1439 4.4037L15.5559 3.3117C15.8999 3.0477 16.3079 2.8517 16.7799 2.7237C17.2599 2.5877 17.7559 2.5197 18.2679 2.5197C19.1959 2.5197 19.9119 2.7437 20.4159 3.1917C20.9279 3.6317 21.1839 4.3157 21.1839 5.2437V8.9997H19.7679ZM17.7519 9.0837C17.2719 9.0837 16.8519 9.0037 16.4919 8.8437C16.1319 8.6757 15.8519 8.4477 15.6519 8.1597C15.4599 7.8637 15.3639 7.5317 15.3639 7.1637C15.3639 6.8037 15.4479 6.4797 15.6159 6.1917C15.7919 5.9037 16.0759 5.6757 16.4679 5.5077C16.8599 5.3397 17.3799 5.2557 18.0279 5.2557H19.8879V6.2517H18.1359C17.6239 6.2517 17.2799 6.3357 17.1039 6.5037C16.9279 6.6637 16.8399 6.8637 16.8399 7.1037C16.8399 7.3757 16.9479 7.5917 17.1639 7.7517C17.3799 7.9117 17.6799 7.9917 18.0639 7.9917C18.4319 7.9917 18.7599 7.9077 19.0479 7.7397C19.3439 7.5717 19.5559 7.3237 19.6839 6.9957L19.9359 7.8957C19.7919 8.2717 19.5319 8.5637 19.1559 8.7717C18.7879 8.9797 18.3199 9.0837 17.7519 9.0837Z" fill="#483332"/>
<path d="M23.1089 8.9997V2.5917H24.5369V4.3557L24.3689 3.8397C24.5609 3.4077 24.8609 3.0797 25.2689 2.8557C25.6849 2.6317 26.2009 2.5197 26.8169 2.5197V3.9477C26.7529 3.9317 26.6929 3.9237 26.6369 3.9237C26.5809 3.9157 26.5249 3.9117 26.4689 3.9117C25.9009 3.9117 25.4489 4.0797 25.1129 4.4157C24.7769 4.7437 24.6089 5.2357 24.6089 5.8917V8.9997H23.1089Z" fill="#483332"/>
<path d="M30.9708 9.0837C30.2988 9.0837 29.6988 8.9437 29.1708 8.6637C28.6508 8.3757 28.2428 7.9837 27.9468 7.4877C27.6508 6.9917 27.5028 6.4277 27.5028 5.7957C27.5028 5.1557 27.6508 4.5917 27.9468 4.1037C28.2428 3.6077 28.6508 3.2197 29.1708 2.9397C29.6988 2.6597 30.2988 2.5197 30.9708 2.5197C31.5948 2.5197 32.1428 2.6477 32.6148 2.9037C33.0948 3.1517 33.4588 3.5197 33.7068 4.0077L32.5548 4.6797C32.3628 4.3757 32.1268 4.1517 31.8468 4.0077C31.5748 3.8637 31.2788 3.7917 30.9588 3.7917C30.5908 3.7917 30.2588 3.8717 29.9628 4.0317C29.6668 4.1917 29.4348 4.4237 29.2668 4.7277C29.0988 5.0237 29.0148 5.3797 29.0148 5.7957C29.0148 6.2117 29.0988 6.5717 29.2668 6.8757C29.4348 7.1717 29.6668 7.3997 29.9628 7.5597C30.2588 7.7197 30.5908 7.7997 30.9588 7.7997C31.2788 7.7997 31.5748 7.7277 31.8468 7.5837C32.1268 7.4397 32.3628 7.2157 32.5548 6.9117L33.7068 7.5837C33.4588 8.0637 33.0948 8.4357 32.6148 8.6997C32.1428 8.9557 31.5948 9.0837 30.9708 9.0837Z" fill="#483332"/>
<path d="M38.5809 2.5197C39.0929 2.5197 39.5489 2.6197 39.9489 2.8197C40.3569 3.0197 40.6769 3.3277 40.9089 3.7437C41.1409 4.1517 41.2569 4.6797 41.2569 5.3277V8.9997H39.7569V5.5197C39.7569 4.9517 39.6209 4.5277 39.3489 4.2477C39.0849 3.9677 38.7129 3.8277 38.2329 3.8277C37.8809 3.8277 37.5689 3.8997 37.2969 4.0437C37.0249 4.1877 36.8129 4.4037 36.6609 4.6917C36.5169 4.9717 36.4449 5.3277 36.4449 5.7597V8.9997H34.9449V0.0957031H36.4449V4.3197L36.1209 3.7917C36.3449 3.3837 36.6689 3.0717 37.0929 2.8557C37.5249 2.6317 38.0209 2.5197 38.5809 2.5197Z" fill="#483332"/>
</svg>
