<svg width="794" height="70" viewBox="0 0 794 70" fill="none" xmlns="http://www.w3.org/2000/svg">
<path d="M0 35C0 15.67 15.67 0 35 0H759C778.33 0 794 15.67 794 35C794 54.33 778.33 70 759 70H35C15.67 70 0 54.33 0 35Z" fill="white"/>
<path d="M33.732 28.1202C33.076 28.1202 32.448 28.0282 31.848 27.8442C31.248 27.6522 30.772 27.4082 30.42 27.1122L30.96 25.9002C31.296 26.1642 31.712 26.3842 32.208 26.5602C32.704 26.7362 33.212 26.8242 33.732 26.8242C34.172 26.8242 34.528 26.7762 34.8 26.6802C35.072 26.5842 35.272 26.4562 35.4 26.2962C35.528 26.1282 35.592 25.9402 35.592 25.7322C35.592 25.4762 35.5 25.2722 35.316 25.1202C35.132 24.9602 34.892 24.8362 34.596 24.7482C34.308 24.6522 33.984 24.5642 33.624 24.4842C33.272 24.4042 32.916 24.3122 32.556 24.2082C32.204 24.0962 31.88 23.9562 31.584 23.7882C31.296 23.6122 31.06 23.3802 30.876 23.0922C30.692 22.8042 30.6 22.4362 30.6 21.9882C30.6 21.5322 30.72 21.1162 30.96 20.7402C31.208 20.3562 31.58 20.0522 32.076 19.8282C32.58 19.5962 33.216 19.4802 33.984 19.4802C34.488 19.4802 34.988 19.5442 35.484 19.6722C35.98 19.8002 36.412 19.9842 36.78 20.2242L36.288 21.4362C35.912 21.2122 35.524 21.0482 35.124 20.9442C34.724 20.8322 34.34 20.7762 33.972 20.7762C33.54 20.7762 33.188 20.8282 32.916 20.9322C32.652 21.0362 32.456 21.1722 32.328 21.3402C32.208 21.5082 32.148 21.7002 32.148 21.9162C32.148 22.1722 32.236 22.3802 32.412 22.5402C32.596 22.6922 32.832 22.8122 33.12 22.9002C33.416 22.9882 33.744 23.0762 34.104 23.1642C34.464 23.2442 34.82 23.3362 35.172 23.4402C35.532 23.5442 35.856 23.6802 36.144 23.8482C36.44 24.0162 36.676 24.2442 36.852 24.5322C37.036 24.8202 37.128 25.1842 37.128 25.6242C37.128 26.0722 37.004 26.4882 36.756 26.8722C36.516 27.2482 36.144 27.5522 35.64 27.7842C35.136 28.0082 34.5 28.1202 33.732 28.1202Z" fill="#483332"/>
<path d="M41.5429 28.0842C40.8309 28.0842 40.2069 27.9442 39.6709 27.6642C39.1429 27.3762 38.7309 26.9842 38.4349 26.4882C38.1469 25.9922 38.0029 25.4282 38.0029 24.7962C38.0029 24.1562 38.1429 23.5922 38.4229 23.1042C38.7109 22.6082 39.1029 22.2202 39.5989 21.9402C40.1029 21.6602 40.6749 21.5202 41.3149 21.5202C41.9389 21.5202 42.4949 21.6562 42.9829 21.9282C43.4709 22.2002 43.8549 22.5842 44.1349 23.0802C44.4149 23.5762 44.5549 24.1602 44.5549 24.8322C44.5549 24.8962 44.5509 24.9682 44.5429 25.0482C44.5429 25.1282 44.5389 25.2042 44.5309 25.2762H39.1909V24.2802H43.7389L43.1509 24.5922C43.1589 24.2242 43.0829 23.9002 42.9229 23.6202C42.7629 23.3402 42.5429 23.1202 42.2629 22.9602C41.9909 22.8002 41.6749 22.7202 41.3149 22.7202C40.9469 22.7202 40.6229 22.8002 40.3429 22.9602C40.0709 23.1202 39.8549 23.3442 39.6949 23.6322C39.5429 23.9122 39.4669 24.2442 39.4669 24.6282V24.8682C39.4669 25.2522 39.5549 25.5922 39.7309 25.8882C39.9069 26.1842 40.1549 26.4122 40.4749 26.5722C40.7949 26.7322 41.1629 26.8122 41.5789 26.8122C41.9389 26.8122 42.2629 26.7562 42.5509 26.6442C42.8389 26.5322 43.0949 26.3562 43.3189 26.1162L44.1229 27.0402C43.8349 27.3762 43.4709 27.6362 43.0309 27.8202C42.5989 27.9962 42.1029 28.0842 41.5429 28.0842Z" fill="#483332"/>
<path d="M49.7679 28.0002V26.7042L49.6839 26.4282V24.1602C49.6839 23.7202 49.5519 23.3802 49.2879 23.1402C49.0239 22.8922 48.6239 22.7682 48.0879 22.7682C47.7279 22.7682 47.3719 22.8242 47.0199 22.9362C46.6759 23.0482 46.3839 23.2042 46.1439 23.4042L45.5559 22.3122C45.8999 22.0482 46.3079 21.8522 46.7799 21.7242C47.2599 21.5882 47.7559 21.5202 48.2679 21.5202C49.1959 21.5202 49.9119 21.7442 50.4159 22.1922C50.9279 22.6322 51.1839 23.3162 51.1839 24.2442V28.0002H49.7679ZM47.7519 28.0842C47.2719 28.0842 46.8519 28.0042 46.4919 27.8442C46.1319 27.6762 45.8519 27.4482 45.6519 27.1602C45.4599 26.8642 45.3639 26.5322 45.3639 26.1642C45.3639 25.8042 45.4479 25.4802 45.6159 25.1922C45.7919 24.9042 46.0759 24.6762 46.4679 24.5082C46.8599 24.3402 47.3799 24.2562 48.0279 24.2562H49.8879V25.2522H48.1359C47.6239 25.2522 47.2799 25.3362 47.1039 25.5042C46.9279 25.6642 46.8399 25.8642 46.8399 26.1042C46.8399 26.3762 46.9479 26.5922 47.1639 26.7522C47.3799 26.9122 47.6799 26.9922 48.0639 26.9922C48.4319 26.9922 48.7599 26.9082 49.0479 26.7402C49.3439 26.5722 49.5559 26.3242 49.6839 25.9962L49.9359 26.8962C49.7919 27.2722 49.5319 27.5642 49.1559 27.7722C48.7879 27.9802 48.3199 28.0842 47.7519 28.0842Z" fill="#483332"/>
<path d="M53.109 28.0002V21.5922H54.537V23.3562L54.369 22.8402C54.561 22.4082 54.861 22.0802 55.269 21.8562C55.685 21.6322 56.201 21.5202 56.817 21.5202V22.9482C56.753 22.9322 56.693 22.9242 56.637 22.9242C56.581 22.9162 56.525 22.9122 56.469 22.9122C55.901 22.9122 55.449 23.0802 55.113 23.4162C54.777 23.7442 54.609 24.2362 54.609 24.8922V28.0002H53.109Z" fill="#483332"/>
<path d="M60.9709 28.0842C60.2989 28.0842 59.6989 27.9442 59.1709 27.6642C58.6509 27.3762 58.2429 26.9842 57.9469 26.4882C57.6509 25.9922 57.5029 25.4282 57.5029 24.7962C57.5029 24.1562 57.6509 23.5922 57.9469 23.1042C58.2429 22.6082 58.6509 22.2202 59.1709 21.9402C59.6989 21.6602 60.2989 21.5202 60.9709 21.5202C61.5949 21.5202 62.1429 21.6482 62.6149 21.9042C63.0949 22.1522 63.4589 22.5202 63.7069 23.0082L62.5549 23.6802C62.3629 23.3762 62.1269 23.1522 61.8469 23.0082C61.5749 22.8642 61.2789 22.7922 60.9589 22.7922C60.5909 22.7922 60.2589 22.8722 59.9629 23.0322C59.6669 23.1922 59.4349 23.4242 59.2669 23.7282C59.0989 24.0242 59.0149 24.3802 59.0149 24.7962C59.0149 25.2122 59.0989 25.5722 59.2669 25.8762C59.4349 26.1722 59.6669 26.4002 59.9629 26.5602C60.2589 26.7202 60.5909 26.8002 60.9589 26.8002C61.2789 26.8002 61.5749 26.7282 61.8469 26.5842C62.1269 26.4402 62.3629 26.2162 62.5549 25.9122L63.7069 26.5842C63.4589 27.0642 63.0949 27.4362 62.6149 27.7002C62.1429 27.9562 61.5949 28.0842 60.9709 28.0842Z" fill="#483332"/>
<path d="M68.5809 21.5202C69.0929 21.5202 69.5489 21.6202 69.9489 21.8202C70.3569 22.0202 70.6769 22.3282 70.9089 22.7442C71.1409 23.1522 71.2569 23.6802 71.2569 24.3282V28.0002H69.7569V24.5202C69.7569 23.9522 69.6209 23.5282 69.3489 23.2482C69.0849 22.9682 68.7129 22.8282 68.2329 22.8282C67.8809 22.8282 67.5689 22.9002 67.2969 23.0442C67.0249 23.1882 66.8129 23.4042 66.6609 23.6922C66.5169 23.9722 66.4449 24.3282 66.4449 24.7602V28.0002H64.9449V19.0962H66.4449V23.3202L66.1209 22.7922C66.3449 22.3842 66.6689 22.0722 67.0929 21.8562C67.5249 21.6322 68.0209 21.5202 68.5809 21.5202Z" fill="#483332"/>
<path d="M32.316 49.9999V40.1999H36.348C37.216 40.1999 37.958 40.3399 38.574 40.6199C39.1993 40.8999 39.68 41.3012 40.016 41.8239C40.352 42.3466 40.52 42.9672 40.52 43.6859C40.52 44.4046 40.352 45.0252 40.016 45.5479C39.68 46.0612 39.1993 46.4579 38.574 46.7379C37.958 47.0086 37.216 47.1439 36.348 47.1439H33.324L34.136 46.3179V49.9999H32.316ZM38.728 49.9999L36.25 46.4439H38.196L40.688 49.9999H38.728ZM34.136 46.5139L33.324 45.6459H36.264C37.0666 45.6459 37.6686 45.4732 38.07 45.1279C38.4806 44.7826 38.686 44.3019 38.686 43.6859C38.686 43.0606 38.4806 42.5799 38.07 42.2439C37.6686 41.9079 37.0666 41.7399 36.264 41.7399H33.324L34.136 40.8439V46.5139Z" fill="#C2C6CC"/>
<path d="M45.9022 50.0979C45.0715 50.0979 44.3435 49.9346 43.7182 49.6079C43.1022 49.2719 42.6215 48.8146 42.2762 48.2359C41.9402 47.6572 41.7722 46.9992 41.7722 46.2619C41.7722 45.5152 41.9355 44.8572 42.2622 44.2879C42.5982 43.7092 43.0555 43.2566 43.6342 42.9299C44.2222 42.6032 44.8895 42.4399 45.6362 42.4399C46.3642 42.4399 47.0129 42.5986 47.5822 42.9159C48.1515 43.2332 48.5995 43.6812 48.9262 44.2599C49.2529 44.8386 49.4162 45.5199 49.4162 46.3039C49.4162 46.3786 49.4115 46.4626 49.4022 46.5559C49.4022 46.6492 49.3975 46.7379 49.3882 46.8219H43.1582V45.6599H48.4642L47.7782 46.0239C47.7875 45.5946 47.6989 45.2166 47.5122 44.8899C47.3255 44.5632 47.0689 44.3066 46.7422 44.1199C46.4249 43.9332 46.0562 43.8399 45.6362 43.8399C45.2069 43.8399 44.8289 43.9332 44.5022 44.1199C44.1849 44.3066 43.9329 44.5679 43.7462 44.9039C43.5689 45.2306 43.4802 45.6179 43.4802 46.0659V46.3459C43.4802 46.7939 43.5829 47.1906 43.7882 47.5359C43.9935 47.8812 44.2829 48.1472 44.6562 48.3339C45.0295 48.5206 45.4589 48.6139 45.9442 48.6139C46.3642 48.6139 46.7422 48.5486 47.0782 48.4179C47.4142 48.2872 47.7129 48.0819 47.9742 47.8019L48.9122 48.8799C48.5762 49.2719 48.1515 49.5752 47.6382 49.7899C47.1342 49.9952 46.5555 50.0979 45.9022 50.0979Z" fill="#C2C6CC"/>
<path d="M53.4072 50.0979C52.7819 50.0979 52.1799 50.0186 51.6012 49.8599C51.0319 49.6919 50.5792 49.4912 50.2432 49.2579L50.9152 47.9279C51.2512 48.1426 51.6525 48.3199 52.1192 48.4599C52.5859 48.5999 53.0525 48.6699 53.5192 48.6699C54.0699 48.6699 54.4665 48.5952 54.7092 48.4459C54.9612 48.2966 55.0872 48.0959 55.0872 47.8439C55.0872 47.6386 55.0032 47.4846 54.8352 47.3819C54.6672 47.2699 54.4479 47.1859 54.1772 47.1299C53.9065 47.0739 53.6032 47.0226 53.2672 46.9759C52.9405 46.9292 52.6092 46.8686 52.2732 46.7939C51.9465 46.7099 51.6479 46.5932 51.3772 46.4439C51.1065 46.2852 50.8872 46.0752 50.7192 45.8139C50.5512 45.5526 50.4672 45.2072 50.4672 44.7779C50.4672 44.3019 50.6025 43.8912 50.8732 43.5459C51.1439 43.1912 51.5219 42.9206 52.0072 42.7339C52.5019 42.5379 53.0852 42.4399 53.7572 42.4399C54.2612 42.4399 54.7699 42.4959 55.2832 42.6079C55.7965 42.7199 56.2212 42.8786 56.5572 43.0839L55.8852 44.4139C55.5305 44.1992 55.1712 44.0546 54.8072 43.9799C54.4525 43.8959 54.0979 43.8539 53.7432 43.8539C53.2112 43.8539 52.8145 43.9332 52.5532 44.0919C52.3012 44.2506 52.1752 44.4512 52.1752 44.6939C52.1752 44.9179 52.2592 45.0859 52.4272 45.1979C52.5952 45.3099 52.8145 45.3986 53.0852 45.4639C53.3559 45.5292 53.6545 45.5852 53.9812 45.6319C54.3172 45.6692 54.6485 45.7299 54.9752 45.8139C55.3019 45.8979 55.6005 46.0146 55.8712 46.1639C56.1512 46.3039 56.3752 46.5046 56.5432 46.7659C56.7112 47.0272 56.7952 47.3679 56.7952 47.7879C56.7952 48.2546 56.6552 48.6606 56.3752 49.0059C56.1045 49.3512 55.7172 49.6219 55.2132 49.8179C54.7092 50.0046 54.1072 50.0979 53.4072 50.0979Z" fill="#C2C6CC"/>
<path d="M61.1163 50.0979C60.2949 50.0979 59.6603 49.8879 59.2123 49.4679C58.7643 49.0386 58.5403 48.4086 58.5403 47.5779V40.8719H60.2903V47.5359C60.2903 47.8906 60.3789 48.1659 60.5563 48.3619C60.7429 48.5579 60.9996 48.6559 61.3263 48.6559C61.7183 48.6559 62.0449 48.5532 62.3063 48.3479L62.7963 49.5939C62.5909 49.7619 62.3389 49.8879 62.0403 49.9719C61.7416 50.0559 61.4336 50.0979 61.1163 50.0979ZM57.3083 43.9799V42.5799H62.2923V43.9799H57.3083Z" fill="#C2C6CC"/>
<path d="M68.8419 49.9999V48.4879L68.7439 48.1659V45.5199C68.7439 45.0066 68.5899 44.6099 68.2819 44.3299C67.9739 44.0406 67.5072 43.8959 66.8819 43.8959C66.4619 43.8959 66.0465 43.9612 65.6359 44.0919C65.2345 44.2226 64.8939 44.4046 64.6139 44.6379L63.9279 43.3639C64.3292 43.0559 64.8052 42.8272 65.3559 42.6779C65.9159 42.5192 66.4945 42.4399 67.0919 42.4399C68.1745 42.4399 69.0099 42.7012 69.5979 43.2239C70.1952 43.7372 70.4939 44.5352 70.4939 45.6179V49.9999H68.8419ZM66.4899 50.0979C65.9299 50.0979 65.4399 50.0046 65.0199 49.8179C64.5999 49.6219 64.2732 49.3559 64.0399 49.0199C63.8159 48.6746 63.7039 48.2872 63.7039 47.8579C63.7039 47.4379 63.8019 47.0599 63.9979 46.7239C64.2032 46.3879 64.5345 46.1219 64.9919 45.9259C65.4492 45.7299 66.0559 45.6319 66.8119 45.6319H68.9819V46.7939H66.9379C66.3405 46.7939 65.9392 46.8919 65.7339 47.0879C65.5285 47.2746 65.4259 47.5079 65.4259 47.7879C65.4259 48.1052 65.5519 48.3572 65.8039 48.5439C66.0559 48.7306 66.4059 48.8239 66.8539 48.8239C67.2832 48.8239 67.6659 48.7259 68.0019 48.5299C68.3472 48.3339 68.5945 48.0446 68.7439 47.6619L69.0379 48.7119C68.8699 49.1506 68.5665 49.4912 68.1279 49.7339C67.6985 49.9766 67.1525 50.0979 66.4899 50.0979Z" fill="#C2C6CC"/>
<path d="M75.9038 50.0979C75.2691 50.0979 74.7091 49.9812 74.2238 49.7479C73.7384 49.5052 73.3604 49.1412 73.0898 48.6559C72.8191 48.1612 72.6838 47.5406 72.6838 46.7939V42.5239H74.4338V46.5559C74.4338 47.2279 74.5831 47.7319 74.8818 48.0679C75.1898 48.3946 75.6238 48.5579 76.1838 48.5579C76.5944 48.5579 76.9491 48.4739 77.2478 48.3059C77.5558 48.1379 77.7938 47.8859 77.9618 47.5499C78.1391 47.2139 78.2278 46.7986 78.2278 46.3039V42.5239H79.9778V49.9999H78.3118V47.9839L78.6058 48.5999C78.3538 49.0852 77.9851 49.4586 77.4998 49.7199C77.0144 49.9719 76.4824 50.0979 75.9038 50.0979Z" fill="#C2C6CC"/>
<path d="M82.2691 49.9999V42.5239H83.9351V44.5819L83.7391 43.9799C83.9631 43.4759 84.3131 43.0932 84.7891 42.8319C85.2744 42.5706 85.8764 42.4399 86.5951 42.4399V44.1059C86.5204 44.0872 86.4504 44.0779 86.3851 44.0779C86.3197 44.0686 86.2544 44.0639 86.1891 44.0639C85.5264 44.0639 84.9991 44.2599 84.6071 44.6519C84.2151 45.0346 84.0191 45.6086 84.0191 46.3739V49.9999H82.2691Z" fill="#C2C6CC"/>
<path d="M92.1524 49.9999V48.4879L92.0544 48.1659V45.5199C92.0544 45.0066 91.9004 44.6099 91.5924 44.3299C91.2844 44.0406 90.8177 43.8959 90.1924 43.8959C89.7724 43.8959 89.3571 43.9612 88.9464 44.0919C88.5451 44.2226 88.2044 44.4046 87.9244 44.6379L87.2384 43.3639C87.6397 43.0559 88.1157 42.8272 88.6664 42.6779C89.2264 42.5192 89.8051 42.4399 90.4024 42.4399C91.4851 42.4399 92.3204 42.7012 92.9084 43.2239C93.5057 43.7372 93.8044 44.5352 93.8044 45.6179V49.9999H92.1524ZM89.8004 50.0979C89.2404 50.0979 88.7504 50.0046 88.3304 49.8179C87.9104 49.6219 87.5837 49.3559 87.3504 49.0199C87.1264 48.6746 87.0144 48.2872 87.0144 47.8579C87.0144 47.4379 87.1124 47.0599 87.3084 46.7239C87.5137 46.3879 87.8451 46.1219 88.3024 45.9259C88.7597 45.7299 89.3664 45.6319 90.1224 45.6319H92.2924V46.7939H90.2484C89.6511 46.7939 89.2497 46.8919 89.0444 47.0879C88.8391 47.2746 88.7364 47.5079 88.7364 47.7879C88.7364 48.1052 88.8624 48.3572 89.1144 48.5439C89.3664 48.7306 89.7164 48.8239 90.1644 48.8239C90.5937 48.8239 90.9764 48.7259 91.3124 48.5299C91.6577 48.3339 91.9051 48.0446 92.0544 47.6619L92.3484 48.7119C92.1804 49.1506 91.8771 49.4912 91.4384 49.7339C91.0091 49.9766 90.4631 50.0979 89.8004 50.0979Z" fill="#C2C6CC"/>
<path d="M100.292 42.4399C100.89 42.4399 101.422 42.5566 101.888 42.7899C102.364 43.0232 102.738 43.3826 103.008 43.8679C103.279 44.3439 103.414 44.9599 103.414 45.7159V49.9999H101.664V45.9399C101.664 45.2772 101.506 44.7826 101.188 44.4559C100.88 44.1292 100.446 43.9659 99.8863 43.9659C99.4757 43.9659 99.1116 44.0499 98.7943 44.2179C98.477 44.3859 98.2297 44.6379 98.0523 44.9739C97.8843 45.3006 97.8003 45.7159 97.8003 46.2199V49.9999H96.0503V42.5239H97.7163V44.5399L97.4223 43.9239C97.6836 43.4479 98.0617 43.0839 98.5563 42.8319C99.0603 42.5706 99.639 42.4399 100.292 42.4399Z" fill="#C2C6CC"/>
<path d="M108.448 50.0979C107.627 50.0979 106.992 49.8879 106.544 49.4679C106.096 49.0386 105.872 48.4086 105.872 47.5779V40.8719H107.622V47.5359C107.622 47.8906 107.711 48.1659 107.888 48.3619C108.075 48.5579 108.332 48.6559 108.658 48.6559C109.05 48.6559 109.377 48.5532 109.638 48.3479L110.128 49.5939C109.923 49.7619 109.671 49.8879 109.372 49.9719C109.074 50.0559 108.766 50.0979 108.448 50.0979ZM104.64 43.9799V42.5799H109.624V43.9799H104.64Z" fill="#C2C6CC"/>
<path d="M111.243 52.1139L112.055 49.0199L112.293 50.0559C111.966 50.0559 111.691 49.9579 111.467 49.7619C111.252 49.5566 111.145 49.2812 111.145 48.9359C111.145 48.5812 111.252 48.3012 111.467 48.0959C111.691 47.8812 111.961 47.7739 112.279 47.7739C112.605 47.7739 112.876 47.8812 113.091 48.0959C113.305 48.3106 113.413 48.5906 113.413 48.9359C113.413 49.0292 113.403 49.1319 113.385 49.2439C113.366 49.3466 113.333 49.4679 113.287 49.6079C113.249 49.7479 113.184 49.9252 113.091 50.1399L112.377 52.1139H111.243Z" fill="#C2C6CC"/>
<path d="M119.16 49.9999V40.1999H120.98V48.4599H126.104V49.9999H119.16Z" fill="#C2C6CC"/>
<path d="M130.664 50.0979C129.899 50.0979 129.218 49.9346 128.62 49.6079C128.023 49.2719 127.552 48.8146 127.206 48.2359C126.861 47.6572 126.688 46.9992 126.688 46.2619C126.688 45.5152 126.861 44.8572 127.206 44.2879C127.552 43.7092 128.023 43.2566 128.62 42.9299C129.218 42.6032 129.899 42.4399 130.664 42.4399C131.439 42.4399 132.125 42.6032 132.722 42.9299C133.329 43.2566 133.8 43.7046 134.136 44.2739C134.482 44.8432 134.654 45.5059 134.654 46.2619C134.654 46.9992 134.482 47.6572 134.136 48.2359C133.8 48.8146 133.329 49.2719 132.722 49.6079C132.125 49.9346 131.439 50.0979 130.664 50.0979ZM130.664 48.5999C131.094 48.5999 131.476 48.5066 131.812 48.3199C132.148 48.1332 132.41 47.8626 132.596 47.5079C132.792 47.1532 132.89 46.7379 132.89 46.2619C132.89 45.7766 132.792 45.3612 132.596 45.0159C132.41 44.6612 132.148 44.3906 131.812 44.2039C131.476 44.0172 131.098 43.9239 130.678 43.9239C130.249 43.9239 129.866 44.0172 129.53 44.2039C129.204 44.3906 128.942 44.6612 128.746 45.0159C128.55 45.3612 128.452 45.7766 128.452 46.2619C128.452 46.7379 128.55 47.1532 128.746 47.5079C128.942 47.8626 129.204 48.1332 129.53 48.3199C129.866 48.5066 130.244 48.5999 130.664 48.5999Z" fill="#C2C6CC"/>
<path d="M139.758 50.0979C138.974 50.0979 138.274 49.9346 137.658 49.6079C137.051 49.2719 136.575 48.8146 136.23 48.2359C135.884 47.6572 135.712 46.9992 135.712 46.2619C135.712 45.5152 135.884 44.8572 136.23 44.2879C136.575 43.7092 137.051 43.2566 137.658 42.9299C138.274 42.6032 138.974 42.4399 139.758 42.4399C140.486 42.4399 141.125 42.5892 141.676 42.8879C142.236 43.1772 142.66 43.6066 142.95 44.1759L141.606 44.9599C141.382 44.6052 141.106 44.3439 140.78 44.1759C140.462 44.0079 140.117 43.9239 139.744 43.9239C139.314 43.9239 138.927 44.0172 138.582 44.2039C138.236 44.3906 137.966 44.6612 137.77 45.0159C137.574 45.3612 137.476 45.7766 137.476 46.2619C137.476 46.7472 137.574 47.1672 137.77 47.5219C137.966 47.8672 138.236 48.1332 138.582 48.3199C138.927 48.5066 139.314 48.5999 139.744 48.5999C140.117 48.5999 140.462 48.5159 140.78 48.3479C141.106 48.1799 141.382 47.9186 141.606 47.5639L142.95 48.3479C142.66 48.9079 142.236 49.3419 141.676 49.6499C141.125 49.9486 140.486 50.0979 139.758 50.0979Z" fill="#C2C6CC"/>
<path d="M149.068 49.9999V48.4879L148.97 48.1659V45.5199C148.97 45.0066 148.816 44.6099 148.508 44.3299C148.2 44.0406 147.734 43.8959 147.108 43.8959C146.688 43.8959 146.273 43.9612 145.862 44.0919C145.461 44.2226 145.12 44.4046 144.84 44.6379L144.154 43.3639C144.556 43.0559 145.032 42.8272 145.582 42.6779C146.142 42.5192 146.721 42.4399 147.318 42.4399C148.401 42.4399 149.236 42.7012 149.824 43.2239C150.422 43.7372 150.72 44.5352 150.72 45.6179V49.9999H149.068ZM146.716 50.0979C146.156 50.0979 145.666 50.0046 145.246 49.8179C144.826 49.6219 144.5 49.3559 144.266 49.0199C144.042 48.6746 143.93 48.2872 143.93 47.8579C143.93 47.4379 144.028 47.0599 144.224 46.7239C144.43 46.3879 144.761 46.1219 145.218 45.9259C145.676 45.7299 146.282 45.6319 147.038 45.6319H149.208V46.7939H147.164C146.567 46.7939 146.166 46.8919 145.96 47.0879C145.755 47.2746 145.652 47.5079 145.652 47.7879C145.652 48.1052 145.778 48.3572 146.03 48.5439C146.282 48.7306 146.632 48.8239 147.08 48.8239C147.51 48.8239 147.892 48.7259 148.228 48.5299C148.574 48.3339 148.821 48.0446 148.97 47.6619L149.264 48.7119C149.096 49.1506 148.793 49.4912 148.354 49.7339C147.925 49.9766 147.379 50.0979 146.716 50.0979Z" fill="#C2C6CC"/>
<path d="M155.78 50.0979C154.959 50.0979 154.324 49.8879 153.876 49.4679C153.428 49.0386 153.204 48.4086 153.204 47.5779V40.8719H154.954V47.5359C154.954 47.8906 155.043 48.1659 155.22 48.3619C155.407 48.5579 155.664 48.6559 155.99 48.6559C156.382 48.6559 156.709 48.5532 156.97 48.3479L157.46 49.5939C157.255 49.7619 157.003 49.8879 156.704 49.9719C156.406 50.0559 156.098 50.0979 155.78 50.0979ZM151.972 43.9799V42.5799H156.956V43.9799H151.972Z" fill="#C2C6CC"/>
<path d="M158.9 49.9999V42.5239H160.65V49.9999H158.9ZM159.782 41.2919C159.455 41.2919 159.185 41.1892 158.97 40.9839C158.765 40.7786 158.662 40.5312 158.662 40.2419C158.662 39.9432 158.765 39.6959 158.97 39.4999C159.185 39.2946 159.455 39.1919 159.782 39.1919C160.109 39.1919 160.375 39.2899 160.58 39.4859C160.795 39.6726 160.902 39.9106 160.902 40.1999C160.902 40.5079 160.799 40.7692 160.594 40.9839C160.389 41.1892 160.118 41.2919 159.782 41.2919Z" fill="#C2C6CC"/>
<path d="M166.307 50.0979C165.541 50.0979 164.86 49.9346 164.263 49.6079C163.665 49.2719 163.194 48.8146 162.849 48.2359C162.503 47.6572 162.331 46.9992 162.331 46.2619C162.331 45.5152 162.503 44.8572 162.849 44.2879C163.194 43.7092 163.665 43.2566 164.263 42.9299C164.86 42.6032 165.541 42.4399 166.307 42.4399C167.081 42.4399 167.767 42.6032 168.365 42.9299C168.971 43.2566 169.443 43.7046 169.779 44.2739C170.124 44.8432 170.297 45.5059 170.297 46.2619C170.297 46.9992 170.124 47.6572 169.779 48.2359C169.443 48.8146 168.971 49.2719 168.365 49.6079C167.767 49.9346 167.081 50.0979 166.307 50.0979ZM166.307 48.5999C166.736 48.5999 167.119 48.5066 167.455 48.3199C167.791 48.1332 168.052 47.8626 168.239 47.5079C168.435 47.1532 168.533 46.7379 168.533 46.2619C168.533 45.7766 168.435 45.3612 168.239 45.0159C168.052 44.6612 167.791 44.3906 167.455 44.2039C167.119 44.0172 166.741 43.9239 166.321 43.9239C165.891 43.9239 165.509 44.0172 165.173 44.2039C164.846 44.3906 164.585 44.6612 164.389 45.0159C164.193 45.3612 164.095 45.7766 164.095 46.2619C164.095 46.7379 164.193 47.1532 164.389 47.5079C164.585 47.8626 164.846 48.1332 165.173 48.3199C165.509 48.5066 165.887 48.5999 166.307 48.5999Z" fill="#C2C6CC"/>
<path d="M176.212 42.4399C176.81 42.4399 177.342 42.5566 177.808 42.7899C178.284 43.0232 178.658 43.3826 178.928 43.8679C179.199 44.3439 179.334 44.9599 179.334 45.7159V49.9999H177.584V45.9399C177.584 45.2772 177.426 44.7826 177.108 44.4559C176.8 44.1292 176.366 43.9659 175.806 43.9659C175.396 43.9659 175.032 44.0499 174.714 44.2179C174.397 44.3859 174.15 44.6379 173.972 44.9739C173.804 45.3006 173.72 45.7159 173.72 46.2199V49.9999H171.97V42.5239H173.636V44.5399L173.342 43.9239C173.604 43.4479 173.982 43.0839 174.476 42.8319C174.98 42.5706 175.559 42.4399 176.212 42.4399Z" fill="#C2C6CC"/>
<path d="M181.092 52.1139L181.904 49.0199L182.142 50.0559C181.816 50.0559 181.54 49.9579 181.316 49.7619C181.102 49.5566 180.994 49.2812 180.994 48.9359C180.994 48.5812 181.102 48.3012 181.316 48.0959C181.54 47.8812 181.811 47.7739 182.128 47.7739C182.455 47.7739 182.726 47.8812 182.94 48.0959C183.155 48.3106 183.262 48.5906 183.262 48.9359C183.262 49.0292 183.253 49.1319 183.234 49.2439C183.216 49.3466 183.183 49.4679 183.136 49.6079C183.099 49.7479 183.034 49.9252 182.94 50.1399L182.226 52.1139H181.092Z" fill="#C2C6CC"/>
<path d="M193.545 50.1399C192.799 50.1399 192.103 50.0186 191.459 49.7759C190.825 49.5239 190.269 49.1739 189.793 48.7259C189.327 48.2686 188.963 47.7319 188.701 47.1159C188.44 46.4999 188.309 45.8279 188.309 45.0999C188.309 44.3719 188.44 43.6999 188.701 43.0839C188.963 42.4679 189.331 41.9359 189.807 41.4879C190.283 41.0306 190.839 40.6806 191.473 40.4379C192.108 40.1859 192.803 40.0599 193.559 40.0599C194.362 40.0599 195.095 40.1999 195.757 40.4799C196.42 40.7506 196.98 41.1566 197.437 41.6979L196.261 42.8039C195.907 42.4212 195.51 42.1366 195.071 41.9499C194.633 41.7539 194.157 41.6559 193.643 41.6559C193.13 41.6559 192.659 41.7399 192.229 41.9079C191.809 42.0759 191.441 42.3139 191.123 42.6219C190.815 42.9299 190.573 43.2939 190.395 43.7139C190.227 44.1339 190.143 44.5959 190.143 45.0999C190.143 45.6039 190.227 46.0659 190.395 46.4859C190.573 46.9059 190.815 47.2699 191.123 47.5779C191.441 47.8859 191.809 48.1239 192.229 48.2919C192.659 48.4599 193.13 48.5439 193.643 48.5439C194.157 48.5439 194.633 48.4506 195.071 48.2639C195.51 48.0679 195.907 47.7739 196.261 47.3819L197.437 48.5019C196.98 49.0339 196.42 49.4399 195.757 49.7199C195.095 49.9999 194.357 50.1399 193.545 50.1399Z" fill="#C2C6CC"/>
<path d="M201.972 50.0979C201.337 50.0979 200.777 49.9812 200.292 49.7479C199.807 49.5052 199.429 49.1412 199.158 48.6559C198.887 48.1612 198.752 47.5406 198.752 46.7939V42.5239H200.502V46.5559C200.502 47.2279 200.651 47.7319 200.95 48.0679C201.258 48.3946 201.692 48.5579 202.252 48.5579C202.663 48.5579 203.017 48.4739 203.316 48.3059C203.624 48.1379 203.862 47.8859 204.03 47.5499C204.207 47.2139 204.296 46.7986 204.296 46.3039V42.5239H206.046V49.9999H204.38V47.9839L204.674 48.5999C204.422 49.0852 204.053 49.4586 203.568 49.7199C203.083 49.9719 202.551 50.0979 201.972 50.0979Z" fill="#C2C6CC"/>
<path d="M208.337 49.9999V42.5239H210.087V49.9999H208.337ZM209.219 41.2919C208.893 41.2919 208.622 41.1892 208.407 40.9839C208.202 40.7786 208.099 40.5312 208.099 40.2419C208.099 39.9432 208.202 39.6959 208.407 39.4999C208.622 39.2946 208.893 39.1919 209.219 39.1919C209.546 39.1919 209.812 39.2899 210.017 39.4859C210.232 39.6726 210.339 39.9106 210.339 40.1999C210.339 40.5079 210.237 40.7692 210.031 40.9839C209.826 41.1892 209.555 41.2919 209.219 41.2919Z" fill="#C2C6CC"/>
<path d="M214.694 50.0979C214.069 50.0979 213.467 50.0186 212.888 49.8599C212.319 49.6919 211.866 49.4912 211.53 49.2579L212.202 47.9279C212.538 48.1426 212.94 48.3199 213.406 48.4599C213.873 48.5999 214.34 48.6699 214.806 48.6699C215.357 48.6699 215.754 48.5952 215.996 48.4459C216.248 48.2966 216.374 48.0959 216.374 47.8439C216.374 47.6386 216.29 47.4846 216.122 47.3819C215.954 47.2699 215.735 47.1859 215.464 47.1299C215.194 47.0739 214.89 47.0226 214.554 46.9759C214.228 46.9292 213.896 46.8686 213.56 46.7939C213.234 46.7099 212.935 46.5932 212.664 46.4439C212.394 46.2852 212.174 46.0752 212.006 45.8139C211.838 45.5526 211.754 45.2072 211.754 44.7779C211.754 44.3019 211.89 43.8912 212.16 43.5459C212.431 43.1912 212.809 42.9206 213.294 42.7339C213.789 42.5379 214.372 42.4399 215.044 42.4399C215.548 42.4399 216.057 42.4959 216.57 42.6079C217.084 42.7199 217.508 42.8786 217.844 43.0839L217.172 44.4139C216.818 44.1992 216.458 44.0546 216.094 43.9799C215.74 43.8959 215.385 43.8539 215.03 43.8539C214.498 43.8539 214.102 43.9332 213.84 44.0919C213.588 44.2506 213.462 44.4512 213.462 44.6939C213.462 44.9179 213.546 45.0859 213.714 45.1979C213.882 45.3099 214.102 45.3986 214.372 45.4639C214.643 45.5292 214.942 45.5852 215.268 45.6319C215.604 45.6692 215.936 45.7299 216.262 45.8139C216.589 45.8979 216.888 46.0146 217.158 46.1639C217.438 46.3039 217.662 46.5046 217.83 46.7659C217.998 47.0272 218.082 47.3679 218.082 47.7879C218.082 48.2546 217.942 48.6606 217.662 49.0059C217.392 49.3512 217.004 49.6219 216.5 49.8179C215.996 50.0046 215.394 50.0979 214.694 50.0979Z" fill="#C2C6CC"/>
<path d="M219.589 49.9999V42.5239H221.339V49.9999H219.589ZM220.471 41.2919C220.145 41.2919 219.874 41.1892 219.659 40.9839C219.454 40.7786 219.351 40.5312 219.351 40.2419C219.351 39.9432 219.454 39.6959 219.659 39.4999C219.874 39.2946 220.145 39.1919 220.471 39.1919C220.798 39.1919 221.064 39.2899 221.269 39.4859C221.484 39.6726 221.591 39.9106 221.591 40.1999C221.591 40.5079 221.489 40.7692 221.283 40.9839C221.078 41.1892 220.807 41.2919 220.471 41.2919Z" fill="#C2C6CC"/>
<path d="M227.878 42.4399C228.476 42.4399 229.008 42.5566 229.474 42.7899C229.95 43.0232 230.324 43.3826 230.594 43.8679C230.865 44.3439 231 44.9599 231 45.7159V49.9999H229.25V45.9399C229.25 45.2772 229.092 44.7826 228.774 44.4559C228.466 44.1292 228.032 43.9659 227.472 43.9659C227.062 43.9659 226.698 44.0499 226.38 44.2179C226.063 44.3859 225.816 44.6379 225.638 44.9739C225.47 45.3006 225.386 45.7159 225.386 46.2199V49.9999H223.636V42.5239H225.302V44.5399L225.008 43.9239C225.27 43.4479 225.648 43.0839 226.142 42.8319C226.646 42.5706 227.225 42.4399 227.878 42.4399Z" fill="#C2C6CC"/>
<path d="M236.748 50.0979C235.917 50.0979 235.189 49.9346 234.564 49.6079C233.948 49.2719 233.467 48.8146 233.122 48.2359C232.786 47.6572 232.618 46.9992 232.618 46.2619C232.618 45.5152 232.781 44.8572 233.108 44.2879C233.444 43.7092 233.901 43.2566 234.48 42.9299C235.068 42.6032 235.735 42.4399 236.482 42.4399C237.21 42.4399 237.859 42.5986 238.428 42.9159C238.997 43.2332 239.445 43.6812 239.772 44.2599C240.099 44.8386 240.262 45.5199 240.262 46.3039C240.262 46.3786 240.257 46.4626 240.248 46.5559C240.248 46.6492 240.243 46.7379 240.234 46.8219H234.004V45.6599H239.31L238.624 46.0239C238.633 45.5946 238.545 45.2166 238.358 44.8899C238.171 44.5632 237.915 44.3066 237.588 44.1199C237.271 43.9332 236.902 43.8399 236.482 43.8399C236.053 43.8399 235.675 43.9332 235.348 44.1199C235.031 44.3066 234.779 44.5679 234.592 44.9039C234.415 45.2306 234.326 45.6179 234.326 46.0659V46.3459C234.326 46.7939 234.429 47.1906 234.634 47.5359C234.839 47.8812 235.129 48.1472 235.502 48.3339C235.875 48.5206 236.305 48.6139 236.79 48.6139C237.21 48.6139 237.588 48.5486 237.924 48.4179C238.26 48.2872 238.559 48.0819 238.82 47.8019L239.758 48.8799C239.422 49.2719 238.997 49.5752 238.484 49.7899C237.98 49.9952 237.401 50.0979 236.748 50.0979Z" fill="#C2C6CC"/>
<path d="M297.128 28.0001V19.6001H300.8C301.712 19.6001 302.512 19.7761 303.2 20.1281C303.888 20.4801 304.424 20.9681 304.808 21.5921C305.192 22.2161 305.384 22.9521 305.384 23.8001C305.384 24.6401 305.192 25.3761 304.808 26.0081C304.424 26.6321 303.888 27.1201 303.2 27.4721C302.512 27.8241 301.712 28.0001 300.8 28.0001H297.128ZM298.688 26.6801H300.728C301.36 26.6801 301.904 26.5601 302.36 26.3201C302.824 26.0801 303.18 25.7441 303.428 25.3121C303.684 24.8801 303.812 24.3761 303.812 23.8001C303.812 23.2161 303.684 22.7121 303.428 22.2881C303.18 21.8561 302.824 21.5201 302.36 21.2801C301.904 21.0401 301.36 20.9201 300.728 20.9201H298.688V26.6801Z" fill="#483332"/>
<path d="M310.846 28.0001V26.7041L310.762 26.4281V24.1601C310.762 23.7201 310.63 23.3801 310.366 23.1401C310.102 22.8921 309.702 22.7681 309.166 22.7681C308.806 22.7681 308.45 22.8241 308.098 22.9361C307.754 23.0481 307.462 23.2041 307.222 23.4041L306.634 22.3121C306.978 22.0481 307.386 21.8521 307.858 21.7241C308.338 21.5881 308.834 21.5201 309.346 21.5201C310.274 21.5201 310.99 21.7441 311.494 22.1921C312.006 22.6321 312.262 23.3161 312.262 24.2441V28.0001H310.846ZM308.83 28.0841C308.35 28.0841 307.93 28.0041 307.57 27.8441C307.21 27.6761 306.93 27.4481 306.73 27.1601C306.538 26.8641 306.442 26.5321 306.442 26.1641C306.442 25.8041 306.526 25.4801 306.694 25.1921C306.87 24.9041 307.154 24.6761 307.546 24.5081C307.938 24.3401 308.458 24.2561 309.106 24.2561H310.966V25.2521H309.214C308.702 25.2521 308.358 25.3361 308.182 25.5041C308.006 25.6641 307.918 25.8641 307.918 26.1041C307.918 26.3761 308.026 26.5921 308.242 26.7521C308.458 26.9121 308.758 26.9921 309.142 26.9921C309.51 26.9921 309.838 26.9081 310.126 26.7401C310.422 26.5721 310.634 26.3241 310.762 25.9961L311.014 26.8961C310.87 27.2721 310.61 27.5641 310.234 27.7721C309.866 27.9801 309.398 28.0841 308.83 28.0841Z" fill="#483332"/>
<path d="M316.599 28.0841C315.895 28.0841 315.351 27.9041 314.967 27.5441C314.583 27.1761 314.391 26.6361 314.391 25.9241V20.1761H315.891V25.8881C315.891 26.1921 315.967 26.4281 316.119 26.5961C316.279 26.7641 316.499 26.8481 316.779 26.8481C317.115 26.8481 317.395 26.7601 317.619 26.5841L318.039 27.6521C317.863 27.7961 317.647 27.9041 317.391 27.9761C317.135 28.0481 316.871 28.0841 316.599 28.0841ZM313.335 22.8401V21.6401H317.607V22.8401H313.335Z" fill="#483332"/>
<path d="M322.074 28.0841C321.362 28.0841 320.738 27.9441 320.202 27.6641C319.674 27.3761 319.262 26.9841 318.966 26.4881C318.678 25.9921 318.534 25.4281 318.534 24.7961C318.534 24.1561 318.674 23.5921 318.954 23.1041C319.242 22.6081 319.634 22.2201 320.13 21.9401C320.634 21.6601 321.206 21.5201 321.846 21.5201C322.47 21.5201 323.026 21.6561 323.514 21.9281C324.002 22.2001 324.386 22.5841 324.666 23.0801C324.946 23.5761 325.086 24.1601 325.086 24.8321C325.086 24.8961 325.082 24.9681 325.074 25.0481C325.074 25.1281 325.07 25.2041 325.062 25.2761H319.722V24.2801H324.27L323.682 24.5921C323.69 24.2241 323.614 23.9001 323.454 23.6201C323.294 23.3401 323.074 23.1201 322.794 22.9601C322.522 22.8001 322.206 22.7201 321.846 22.7201C321.478 22.7201 321.154 22.8001 320.874 22.9601C320.602 23.1201 320.386 23.3441 320.226 23.6321C320.074 23.9121 319.998 24.2441 319.998 24.6281V24.8681C319.998 25.2521 320.086 25.5921 320.262 25.8881C320.438 26.1841 320.686 26.4121 321.006 26.5721C321.326 26.7321 321.694 26.8121 322.11 26.8121C322.47 26.8121 322.794 26.7561 323.082 26.6441C323.37 26.5321 323.626 26.3561 323.85 26.1161L324.654 27.0401C324.366 27.3761 324.002 27.6361 323.562 27.8201C323.13 27.9961 322.634 28.0841 322.074 28.0841Z" fill="#483332"/>
<path d="M296.93 49.9998L301.34 40.1998H303.132L307.556 49.9998H305.652L301.858 41.1658H302.586L298.806 49.9998H296.93ZM298.96 47.7318L299.45 46.3038H304.742L305.232 47.7318H298.96Z" fill="#C2C6CC"/>
<path d="M311.73 50.0978C311.011 50.0978 310.363 49.9391 309.784 49.6218C309.215 49.2951 308.767 48.8471 308.44 48.2778C308.113 47.7085 307.95 47.0365 307.95 46.2618C307.95 45.4872 308.113 44.8152 308.44 44.2458C308.767 43.6765 309.215 43.2331 309.784 42.9158C310.363 42.5985 311.011 42.4398 311.73 42.4398C312.355 42.4398 312.915 42.5798 313.41 42.8598C313.905 43.1305 314.297 43.5458 314.586 44.1058C314.875 44.6658 315.02 45.3845 315.02 46.2618C315.02 47.1298 314.88 47.8485 314.6 48.4178C314.32 48.9778 313.933 49.3978 313.438 49.6778C312.943 49.9578 312.374 50.0978 311.73 50.0978ZM311.94 48.5998C312.36 48.5998 312.733 48.5065 313.06 48.3198C313.396 48.1332 313.662 47.8625 313.858 47.5078C314.063 47.1532 314.166 46.7378 314.166 46.2618C314.166 45.7765 314.063 45.3611 313.858 45.0158C313.662 44.6611 313.396 44.3905 313.06 44.2038C312.733 44.0171 312.36 43.9238 311.94 43.9238C311.52 43.9238 311.142 44.0171 310.806 44.2038C310.479 44.3905 310.213 44.6611 310.008 45.0158C309.812 45.3611 309.714 45.7765 309.714 46.2618C309.714 46.7378 309.812 47.1532 310.008 47.5078C310.213 47.8625 310.479 48.1332 310.806 48.3198C311.142 48.5065 311.52 48.5998 311.94 48.5998ZM314.208 49.9998V48.2358L314.278 46.2478L314.138 44.2598V39.6118H315.874V49.9998H314.208Z" fill="#C2C6CC"/>
<path d="M321.341 50.0978C320.623 50.0978 319.974 49.9391 319.395 49.6218C318.826 49.2951 318.378 48.8471 318.051 48.2778C317.725 47.7085 317.561 47.0365 317.561 46.2618C317.561 45.4872 317.725 44.8152 318.051 44.2458C318.378 43.6765 318.826 43.2331 319.395 42.9158C319.974 42.5985 320.623 42.4398 321.341 42.4398C321.967 42.4398 322.527 42.5798 323.021 42.8598C323.516 43.1305 323.908 43.5458 324.197 44.1058C324.487 44.6658 324.631 45.3845 324.631 46.2618C324.631 47.1298 324.491 47.8485 324.211 48.4178C323.931 48.9778 323.544 49.3978 323.049 49.6778C322.555 49.9578 321.985 50.0978 321.341 50.0978ZM321.551 48.5998C321.971 48.5998 322.345 48.5065 322.671 48.3198C323.007 48.1332 323.273 47.8625 323.469 47.5078C323.675 47.1532 323.777 46.7378 323.777 46.2618C323.777 45.7765 323.675 45.3611 323.469 45.0158C323.273 44.6611 323.007 44.3905 322.671 44.2038C322.345 44.0171 321.971 43.9238 321.551 43.9238C321.131 43.9238 320.753 44.0171 320.417 44.2038C320.091 44.3905 319.825 44.6611 319.619 45.0158C319.423 45.3611 319.325 45.7765 319.325 46.2618C319.325 46.7378 319.423 47.1532 319.619 47.5078C319.825 47.8625 320.091 48.1332 320.417 48.3198C320.753 48.5065 321.131 48.5998 321.551 48.5998ZM323.819 49.9998V48.2358L323.889 46.2478L323.749 44.2598V39.6118H325.485V49.9998H323.819Z" fill="#C2C6CC"/>
<path d="M331.826 49.9998V40.1998H336.11C337.174 40.1998 338.107 40.4051 338.91 40.8158C339.712 41.2265 340.338 41.7958 340.786 42.5238C341.234 43.2518 341.458 44.1105 341.458 45.0998C341.458 46.0798 341.234 46.9385 340.786 47.6758C340.338 48.4038 339.712 48.9732 338.91 49.3838C338.107 49.7945 337.174 49.9998 336.11 49.9998H331.826ZM333.646 48.4598H336.026C336.763 48.4598 337.398 48.3198 337.93 48.0398C338.471 47.7598 338.886 47.3678 339.176 46.8638C339.474 46.3598 339.624 45.7718 339.624 45.0998C339.624 44.4185 339.474 43.8305 339.176 43.3358C338.886 42.8318 338.471 42.4398 337.93 42.1598C337.398 41.8798 336.763 41.7398 336.026 41.7398H333.646V48.4598Z" fill="#C2C6CC"/>
<path d="M347.83 49.9998V48.4878L347.732 48.1658V45.5198C347.732 45.0065 347.578 44.6098 347.27 44.3298C346.962 44.0405 346.495 43.8958 345.87 43.8958C345.45 43.8958 345.035 43.9612 344.624 44.0918C344.223 44.2225 343.882 44.4045 343.602 44.6378L342.916 43.3638C343.317 43.0558 343.793 42.8271 344.344 42.6778C344.904 42.5192 345.483 42.4398 346.08 42.4398C347.163 42.4398 347.998 42.7011 348.586 43.2238C349.183 43.7371 349.482 44.5352 349.482 45.6178V49.9998H347.83ZM345.478 50.0978C344.918 50.0978 344.428 50.0045 344.008 49.8178C343.588 49.6218 343.261 49.3558 343.028 49.0198C342.804 48.6745 342.692 48.2872 342.692 47.8578C342.692 47.4378 342.79 47.0598 342.986 46.7238C343.191 46.3878 343.523 46.1218 343.98 45.9258C344.437 45.7298 345.044 45.6318 345.8 45.6318H347.97V46.7938H345.926C345.329 46.7938 344.927 46.8918 344.722 47.0878C344.517 47.2745 344.414 47.5078 344.414 47.7878C344.414 48.1052 344.54 48.3572 344.792 48.5438C345.044 48.7305 345.394 48.8238 345.842 48.8238C346.271 48.8238 346.654 48.7258 346.99 48.5298C347.335 48.3338 347.583 48.0445 347.732 47.6618L348.026 48.7118C347.858 49.1505 347.555 49.4912 347.116 49.7338C346.687 49.9765 346.141 50.0978 345.478 50.0978Z" fill="#C2C6CC"/>
<path d="M354.542 50.0978C353.721 50.0978 353.086 49.8878 352.638 49.4678C352.19 49.0385 351.966 48.4085 351.966 47.5778V40.8718H353.716V47.5358C353.716 47.8905 353.805 48.1658 353.982 48.3618C354.169 48.5578 354.425 48.6558 354.752 48.6558C355.144 48.6558 355.471 48.5532 355.732 48.3478L356.222 49.5938C356.017 49.7618 355.765 49.8878 355.466 49.9718C355.167 50.0558 354.859 50.0978 354.542 50.0978ZM350.734 43.9798V42.5798H355.718V43.9798H350.734Z" fill="#C2C6CC"/>
<path d="M360.93 50.0978C360.099 50.0978 359.371 49.9345 358.746 49.6078C358.13 49.2718 357.649 48.8145 357.304 48.2358C356.968 47.6572 356.8 46.9992 356.8 46.2618C356.8 45.5152 356.963 44.8572 357.29 44.2878C357.626 43.7092 358.083 43.2565 358.662 42.9298C359.25 42.6032 359.917 42.4398 360.664 42.4398C361.392 42.4398 362.04 42.5985 362.61 42.9158C363.179 43.2331 363.627 43.6811 363.954 44.2598C364.28 44.8385 364.444 45.5198 364.444 46.3038C364.444 46.3785 364.439 46.4625 364.43 46.5558C364.43 46.6491 364.425 46.7378 364.416 46.8218H358.186V45.6598H363.492L362.806 46.0238C362.815 45.5945 362.726 45.2165 362.54 44.8898C362.353 44.5631 362.096 44.3065 361.77 44.1198C361.452 43.9331 361.084 43.8398 360.664 43.8398C360.234 43.8398 359.856 43.9331 359.53 44.1198C359.212 44.3065 358.96 44.5678 358.774 44.9038C358.596 45.2305 358.508 45.6178 358.508 46.0658V46.3458C358.508 46.7938 358.61 47.1905 358.816 47.5358C359.021 47.8812 359.31 48.1472 359.684 48.3338C360.057 48.5205 360.486 48.6138 360.972 48.6138C361.392 48.6138 361.77 48.5485 362.106 48.4178C362.442 48.2872 362.74 48.0818 363.002 47.8018L363.94 48.8798C363.604 49.2718 363.179 49.5752 362.666 49.7898C362.162 49.9952 361.583 50.0978 360.93 50.0978Z" fill="#C2C6CC"/>
<path d="M440.832 27.9998V20.9198H438.048V19.5998H445.176V20.9198H442.392V27.9998H440.832Z" fill="#483332"/>
<path d="M446.203 27.9998V21.5918H447.703V27.9998H446.203ZM446.959 20.5358C446.679 20.5358 446.447 20.4478 446.263 20.2718C446.087 20.0958 445.999 19.8838 445.999 19.6358C445.999 19.3798 446.087 19.1678 446.263 18.9998C446.447 18.8238 446.679 18.7358 446.959 18.7358C447.239 18.7358 447.467 18.8198 447.643 18.9878C447.827 19.1478 447.919 19.3518 447.919 19.5998C447.919 19.8638 447.831 20.0878 447.655 20.2718C447.479 20.4478 447.247 20.5358 446.959 20.5358Z" fill="#483332"/>
<path d="M457.759 21.5198C458.271 21.5198 458.723 21.6198 459.115 21.8198C459.515 22.0198 459.827 22.3278 460.051 22.7438C460.275 23.1518 460.387 23.6798 460.387 24.3278V27.9998H458.887V24.5198C458.887 23.9518 458.763 23.5278 458.515 23.2478C458.267 22.9678 457.911 22.8278 457.447 22.8278C457.119 22.8278 456.827 22.8998 456.571 23.0438C456.323 23.1878 456.127 23.3998 455.983 23.6798C455.847 23.9598 455.779 24.3158 455.779 24.7478V27.9998H454.279V24.5198C454.279 23.9518 454.155 23.5278 453.907 23.2478C453.659 22.9678 453.303 22.8278 452.839 22.8278C452.511 22.8278 452.219 22.8998 451.963 23.0438C451.715 23.1878 451.519 23.3998 451.375 23.6798C451.239 23.9598 451.171 24.3158 451.171 24.7478V27.9998H449.671V21.5918H451.099V23.2958L450.847 22.7918C451.063 22.3758 451.375 22.0598 451.783 21.8438C452.199 21.6278 452.671 21.5198 453.199 21.5198C453.799 21.5198 454.319 21.6678 454.759 21.9638C455.207 22.2598 455.503 22.7078 455.647 23.3078L455.059 23.1038C455.267 22.6238 455.611 22.2398 456.091 21.9518C456.571 21.6638 457.127 21.5198 457.759 21.5198Z" fill="#483332"/>
<path d="M465.328 28.0838C464.616 28.0838 463.992 27.9438 463.456 27.6638C462.928 27.3758 462.516 26.9838 462.22 26.4878C461.932 25.9918 461.788 25.4278 461.788 24.7958C461.788 24.1558 461.928 23.5918 462.208 23.1038C462.496 22.6078 462.888 22.2198 463.384 21.9398C463.888 21.6598 464.46 21.5198 465.1 21.5198C465.724 21.5198 466.28 21.6558 466.768 21.9278C467.256 22.1998 467.64 22.5838 467.92 23.0798C468.2 23.5758 468.34 24.1598 468.34 24.8318C468.34 24.8958 468.336 24.9678 468.328 25.0478C468.328 25.1278 468.324 25.2038 468.316 25.2758H462.976V24.2798H467.524L466.936 24.5918C466.944 24.2238 466.868 23.8998 466.708 23.6198C466.548 23.3398 466.328 23.1198 466.048 22.9598C465.776 22.7998 465.46 22.7198 465.1 22.7198C464.732 22.7198 464.408 22.7998 464.128 22.9598C463.856 23.1198 463.64 23.3438 463.48 23.6318C463.328 23.9118 463.252 24.2438 463.252 24.6278V24.8678C463.252 25.2518 463.34 25.5918 463.516 25.8878C463.692 26.1838 463.94 26.4118 464.26 26.5718C464.58 26.7318 464.948 26.8118 465.364 26.8118C465.724 26.8118 466.048 26.7558 466.336 26.6438C466.624 26.5318 466.88 26.3558 467.104 26.1158L467.908 27.0398C467.62 27.3758 467.256 27.6358 466.816 27.8198C466.384 27.9958 465.888 28.0838 465.328 28.0838Z" fill="#483332"/>
<path d="M438.93 49.9999L443.34 40.1999H445.132L449.556 49.9999H447.652L443.858 41.1659H444.586L440.806 49.9999H438.93ZM440.96 47.7319L441.45 46.3039H446.742L447.232 47.7319H440.96Z" fill="#C2C6CC"/>
<path d="M453.73 50.0979C453.011 50.0979 452.363 49.9392 451.784 49.6219C451.215 49.2952 450.767 48.8472 450.44 48.2779C450.113 47.7086 449.95 47.0366 449.95 46.2619C449.95 45.4872 450.113 44.8152 450.44 44.2459C450.767 43.6766 451.215 43.2332 451.784 42.9159C452.363 42.5986 453.011 42.4399 453.73 42.4399C454.355 42.4399 454.915 42.5799 455.41 42.8599C455.905 43.1306 456.297 43.5459 456.586 44.1059C456.875 44.6659 457.02 45.3846 457.02 46.2619C457.02 47.1299 456.88 47.8486 456.6 48.4179C456.32 48.9779 455.933 49.3979 455.438 49.6779C454.943 49.9579 454.374 50.0979 453.73 50.0979ZM453.94 48.5999C454.36 48.5999 454.733 48.5066 455.06 48.3199C455.396 48.1332 455.662 47.8626 455.858 47.5079C456.063 47.1532 456.166 46.7379 456.166 46.2619C456.166 45.7766 456.063 45.3612 455.858 45.0159C455.662 44.6612 455.396 44.3906 455.06 44.2039C454.733 44.0172 454.36 43.9239 453.94 43.9239C453.52 43.9239 453.142 44.0172 452.806 44.2039C452.479 44.3906 452.213 44.6612 452.008 45.0159C451.812 45.3612 451.714 45.7766 451.714 46.2619C451.714 46.7379 451.812 47.1532 452.008 47.5079C452.213 47.8626 452.479 48.1332 452.806 48.3199C453.142 48.5066 453.52 48.5999 453.94 48.5999ZM456.208 49.9999V48.2359L456.278 46.2479L456.138 44.2599V39.6119H457.874V49.9999H456.208Z" fill="#C2C6CC"/>
<path d="M463.341 50.0979C462.623 50.0979 461.974 49.9392 461.395 49.6219C460.826 49.2952 460.378 48.8472 460.051 48.2779C459.725 47.7086 459.561 47.0366 459.561 46.2619C459.561 45.4872 459.725 44.8152 460.051 44.2459C460.378 43.6766 460.826 43.2332 461.395 42.9159C461.974 42.5986 462.623 42.4399 463.341 42.4399C463.967 42.4399 464.527 42.5799 465.021 42.8599C465.516 43.1306 465.908 43.5459 466.197 44.1059C466.487 44.6659 466.631 45.3846 466.631 46.2619C466.631 47.1299 466.491 47.8486 466.211 48.4179C465.931 48.9779 465.544 49.3979 465.049 49.6779C464.555 49.9579 463.985 50.0979 463.341 50.0979ZM463.551 48.5999C463.971 48.5999 464.345 48.5066 464.671 48.3199C465.007 48.1332 465.273 47.8626 465.469 47.5079C465.675 47.1532 465.777 46.7379 465.777 46.2619C465.777 45.7766 465.675 45.3612 465.469 45.0159C465.273 44.6612 465.007 44.3906 464.671 44.2039C464.345 44.0172 463.971 43.9239 463.551 43.9239C463.131 43.9239 462.753 44.0172 462.417 44.2039C462.091 44.3906 461.825 44.6612 461.619 45.0159C461.423 45.3612 461.325 45.7766 461.325 46.2619C461.325 46.7379 461.423 47.1532 461.619 47.5079C461.825 47.8626 462.091 48.1332 462.417 48.3199C462.753 48.5066 463.131 48.5999 463.551 48.5999ZM465.819 49.9999V48.2359L465.889 46.2479L465.749 44.2599V39.6119H467.485V49.9999H465.819Z" fill="#C2C6CC"/>
<path d="M475.814 49.9999V41.7399H472.566V40.1999H480.882V41.7399H477.634V49.9999H475.814Z" fill="#C2C6CC"/>
<path d="M482.08 49.9999V42.5239H483.83V49.9999H482.08ZM482.962 41.2919C482.635 41.2919 482.364 41.1892 482.15 40.9839C481.944 40.7786 481.842 40.5312 481.842 40.2419C481.842 39.9432 481.944 39.6959 482.15 39.4999C482.364 39.2946 482.635 39.1919 482.962 39.1919C483.288 39.1919 483.554 39.2899 483.76 39.4859C483.974 39.6726 484.082 39.9106 484.082 40.1999C484.082 40.5079 483.979 40.7692 483.774 40.9839C483.568 41.1892 483.298 41.2919 482.962 41.2919Z" fill="#C2C6CC"/>
<path d="M495.563 42.4399C496.16 42.4399 496.687 42.5566 497.145 42.7899C497.611 43.0232 497.975 43.3826 498.237 43.8679C498.498 44.3439 498.629 44.9599 498.629 45.7159V49.9999H496.879V45.9399C496.879 45.2772 496.734 44.7826 496.445 44.4559C496.155 44.1292 495.74 43.9659 495.199 43.9659C494.816 43.9659 494.475 44.0499 494.177 44.2179C493.887 44.3859 493.659 44.6332 493.491 44.9599C493.332 45.2866 493.253 45.7019 493.253 46.2059V49.9999H491.503V45.9399C491.503 45.2772 491.358 44.7826 491.069 44.4559C490.779 44.1292 490.364 43.9659 489.823 43.9659C489.44 43.9659 489.099 44.0499 488.801 44.2179C488.511 44.3859 488.283 44.6332 488.115 44.9599C487.956 45.2866 487.877 45.7019 487.877 46.2059V49.9999H486.127V42.5239H487.793V44.5119L487.499 43.9239C487.751 43.4386 488.115 43.0699 488.591 42.8179C489.076 42.5659 489.627 42.4399 490.243 42.4399C490.943 42.4399 491.549 42.6126 492.063 42.9579C492.585 43.3032 492.931 43.8259 493.099 44.5259L492.413 44.2879C492.655 43.7279 493.057 43.2799 493.617 42.9439C494.177 42.6079 494.825 42.4399 495.563 42.4399Z" fill="#C2C6CC"/>
<path d="M504.392 50.0979C503.562 50.0979 502.834 49.9346 502.208 49.6079C501.592 49.2719 501.112 48.8146 500.766 48.2359C500.43 47.6572 500.262 46.9992 500.262 46.2619C500.262 45.5152 500.426 44.8572 500.752 44.2879C501.088 43.7092 501.546 43.2566 502.124 42.9299C502.712 42.6032 503.38 42.4399 504.126 42.4399C504.854 42.4399 505.503 42.5986 506.072 42.9159C506.642 43.2332 507.09 43.6812 507.416 44.2599C507.743 44.8386 507.906 45.5199 507.906 46.3039C507.906 46.3786 507.902 46.4626 507.892 46.5559C507.892 46.6492 507.888 46.7379 507.878 46.8219H501.648V45.6599H506.954L506.268 46.0239C506.278 45.5946 506.189 45.2166 506.002 44.8899C505.816 44.5632 505.559 44.3066 505.232 44.1199C504.915 43.9332 504.546 43.8399 504.126 43.8399C503.697 43.8399 503.319 43.9332 502.992 44.1199C502.675 44.3066 502.423 44.5679 502.236 44.9039C502.059 45.2306 501.97 45.6179 501.97 46.0659V46.3459C501.97 46.7939 502.073 47.1906 502.278 47.5359C502.484 47.8812 502.773 48.1472 503.146 48.3339C503.52 48.5206 503.949 48.6139 504.434 48.6139C504.854 48.6139 505.232 48.5486 505.568 48.4179C505.904 48.2872 506.203 48.0819 506.464 47.8019L507.402 48.8799C507.066 49.2719 506.642 49.5752 506.128 49.7899C505.624 49.9952 505.046 50.0979 504.392 50.0979Z" fill="#C2C6CC"/>
<path d="M605.128 28.0002V19.6002H606.412L611.68 26.0682H611.044V19.6002H612.592V28.0002H611.308L606.04 21.5322H606.676V28.0002H605.128Z" fill="#483332"/>
<path d="M617.411 28.0842C616.867 28.0842 616.387 27.9842 615.971 27.7842C615.555 27.5762 615.231 27.2642 614.999 26.8482C614.767 26.4242 614.651 25.8922 614.651 25.2522V21.5922H616.151V25.0482C616.151 25.6242 616.279 26.0562 616.535 26.3442C616.799 26.6242 617.171 26.7642 617.651 26.7642C618.003 26.7642 618.307 26.6922 618.563 26.5482C618.827 26.4042 619.031 26.1882 619.175 25.9002C619.327 25.6122 619.403 25.2562 619.403 24.8322V21.5922H620.903V28.0002H619.475V26.2722L619.727 26.8002C619.511 27.2162 619.195 27.5362 618.779 27.7602C618.363 27.9762 617.907 28.0842 617.411 28.0842Z" fill="#483332"/>
<path d="M630.955 21.5202C631.467 21.5202 631.919 21.6202 632.311 21.8202C632.711 22.0202 633.023 22.3282 633.247 22.7442C633.471 23.1522 633.583 23.6802 633.583 24.3282V28.0002H632.083V24.5202C632.083 23.9522 631.959 23.5282 631.711 23.2482C631.463 22.9682 631.107 22.8282 630.643 22.8282C630.315 22.8282 630.023 22.9002 629.767 23.0442C629.519 23.1882 629.323 23.4002 629.179 23.6802C629.043 23.9602 628.975 24.3162 628.975 24.7482V28.0002H627.475V24.5202C627.475 23.9522 627.351 23.5282 627.103 23.2482C626.855 22.9682 626.499 22.8282 626.035 22.8282C625.707 22.8282 625.415 22.9002 625.159 23.0442C624.911 23.1882 624.715 23.4002 624.571 23.6802C624.435 23.9602 624.367 24.3162 624.367 24.7482V28.0002H622.867V21.5922H624.295V23.2962L624.043 22.7922C624.259 22.3762 624.571 22.0602 624.979 21.8442C625.395 21.6282 625.867 21.5202 626.395 21.5202C626.995 21.5202 627.515 21.6682 627.955 21.9642C628.403 22.2602 628.699 22.7082 628.843 23.3082L628.255 23.1042C628.463 22.6242 628.807 22.2402 629.287 21.9522C629.767 21.6642 630.323 21.5202 630.955 21.5202Z" fill="#483332"/>
<path d="M639.052 28.0842C638.508 28.0842 638.024 27.9642 637.6 27.7242C637.176 27.4842 636.84 27.1242 636.592 26.6442C636.352 26.1562 636.232 25.5402 636.232 24.7962C636.232 24.0442 636.356 23.4282 636.604 22.9482C636.86 22.4682 637.2 22.1122 637.624 21.8802C638.056 21.6402 638.532 21.5202 639.052 21.5202C639.684 21.5202 640.24 21.6562 640.72 21.9282C641.208 22.2002 641.592 22.5802 641.872 23.0682C642.16 23.5562 642.304 24.1322 642.304 24.7962C642.304 25.4602 642.16 26.0362 641.872 26.5242C641.592 27.0122 641.208 27.3962 640.72 27.6762C640.24 27.9482 639.684 28.0842 639.052 28.0842ZM635.5 28.0002V19.0962H637V23.0802L636.88 24.7842L636.928 26.4882V28.0002H635.5ZM638.884 26.8002C639.244 26.8002 639.564 26.7202 639.844 26.5602C640.132 26.4002 640.36 26.1682 640.528 25.8642C640.696 25.5602 640.78 25.2042 640.78 24.7962C640.78 24.3802 640.696 24.0242 640.528 23.7282C640.36 23.4242 640.132 23.1922 639.844 23.0322C639.564 22.8722 639.244 22.7922 638.884 22.7922C638.524 22.7922 638.2 22.8722 637.912 23.0322C637.624 23.1922 637.396 23.4242 637.228 23.7282C637.06 24.0242 636.976 24.3802 636.976 24.7962C636.976 25.2042 637.06 25.5602 637.228 25.8642C637.396 26.1682 637.624 26.4002 637.912 26.5602C638.2 26.7202 638.524 26.8002 638.884 26.8002Z" fill="#483332"/>
<path d="M646.738 28.0842C646.026 28.0842 645.402 27.9442 644.866 27.6642C644.338 27.3762 643.926 26.9842 643.63 26.4882C643.342 25.9922 643.198 25.4282 643.198 24.7962C643.198 24.1562 643.338 23.5922 643.618 23.1042C643.906 22.6082 644.298 22.2202 644.794 21.9402C645.298 21.6602 645.87 21.5202 646.51 21.5202C647.134 21.5202 647.69 21.6562 648.178 21.9282C648.666 22.2002 649.05 22.5842 649.33 23.0802C649.61 23.5762 649.75 24.1602 649.75 24.8322C649.75 24.8962 649.746 24.9682 649.738 25.0482C649.738 25.1282 649.734 25.2042 649.726 25.2762H644.386V24.2802H648.934L648.346 24.5922C648.354 24.2242 648.278 23.9002 648.118 23.6202C647.958 23.3402 647.738 23.1202 647.458 22.9602C647.186 22.8002 646.87 22.7202 646.51 22.7202C646.142 22.7202 645.818 22.8002 645.538 22.9602C645.266 23.1202 645.05 23.3442 644.89 23.6322C644.738 23.9122 644.662 24.2442 644.662 24.6282V24.8682C644.662 25.2522 644.75 25.5922 644.926 25.8882C645.102 26.1842 645.35 26.4122 645.67 26.5722C645.99 26.7322 646.358 26.8122 646.774 26.8122C647.134 26.8122 647.458 26.7562 647.746 26.6442C648.034 26.5322 648.29 26.3562 648.514 26.1162L649.318 27.0402C649.03 27.3762 648.666 27.6362 648.226 27.8202C647.794 27.9962 647.298 28.0842 646.738 28.0842Z" fill="#483332"/>
<path d="M651.191 28.0002V21.5922H652.619V23.3562L652.451 22.8402C652.643 22.4082 652.943 22.0802 653.351 21.8562C653.767 21.6322 654.283 21.5202 654.899 21.5202V22.9482C654.835 22.9322 654.775 22.9242 654.719 22.9242C654.663 22.9162 654.607 22.9122 654.551 22.9122C653.983 22.9122 653.531 23.0802 653.195 23.4162C652.859 23.7442 652.691 24.2362 652.691 24.8922V28.0002H651.191Z" fill="#483332"/>
<path d="M662.426 28.0842C661.77 28.0842 661.186 27.9442 660.674 27.6642C660.162 27.3762 659.758 26.9842 659.462 26.4882C659.166 25.9922 659.018 25.4282 659.018 24.7962C659.018 24.1562 659.166 23.5922 659.462 23.1042C659.758 22.6082 660.162 22.2202 660.674 21.9402C661.186 21.6602 661.77 21.5202 662.426 21.5202C663.09 21.5202 663.678 21.6602 664.19 21.9402C664.71 22.2202 665.114 22.6042 665.402 23.0922C665.698 23.5802 665.846 24.1482 665.846 24.7962C665.846 25.4282 665.698 25.9922 665.402 26.4882C665.114 26.9842 664.71 27.3762 664.19 27.6642C663.678 27.9442 663.09 28.0842 662.426 28.0842ZM662.426 26.8002C662.794 26.8002 663.122 26.7202 663.41 26.5602C663.698 26.4002 663.922 26.1682 664.082 25.8642C664.25 25.5602 664.334 25.2042 664.334 24.7962C664.334 24.3802 664.25 24.0242 664.082 23.7282C663.922 23.4242 663.698 23.1922 663.41 23.0322C663.122 22.8722 662.798 22.7922 662.438 22.7922C662.07 22.7922 661.742 22.8722 661.454 23.0322C661.174 23.1922 660.95 23.4242 660.782 23.7282C660.614 24.0242 660.53 24.3802 660.53 24.7962C660.53 25.2042 660.614 25.5602 660.782 25.8642C660.95 26.1682 661.174 26.4002 661.454 26.5602C661.742 26.7202 662.066 26.8002 662.426 26.8002Z" fill="#483332"/>
<path d="M667.485 28.0002V21.2322C667.485 20.5602 667.681 20.0242 668.073 19.6242C668.473 19.2162 669.041 19.0122 669.777 19.0122C670.041 19.0122 670.289 19.0402 670.521 19.0962C670.761 19.1522 670.961 19.2402 671.121 19.3602L670.713 20.4882C670.601 20.4002 670.473 20.3362 670.329 20.2962C670.185 20.2482 670.037 20.2242 669.885 20.2242C669.573 20.2242 669.337 20.3122 669.177 20.4882C669.017 20.6562 668.937 20.9122 668.937 21.2562V21.9762L668.985 22.6482V28.0002H667.485ZM666.429 22.8402V21.6402H670.701V22.8402H666.429Z" fill="#483332"/>
<path d="M675.171 28.0002V19.6002H678.627C679.371 19.6002 680.007 19.7202 680.535 19.9602C681.071 20.2002 681.483 20.5442 681.771 20.9922C682.059 21.4402 682.203 21.9722 682.203 22.5882C682.203 23.2042 682.059 23.7362 681.771 24.1842C681.483 24.6322 681.071 24.9762 680.535 25.2162C680.007 25.4562 679.371 25.5762 678.627 25.5762H676.035L676.731 24.8442V28.0002H675.171ZM676.731 25.0122L676.035 24.2562H678.555C679.243 24.2562 679.759 24.1122 680.103 23.8242C680.455 23.5282 680.631 23.1162 680.631 22.5882C680.631 22.0522 680.455 21.6402 680.103 21.3522C679.759 21.0642 679.243 20.9202 678.555 20.9202H676.035L676.731 20.1522V25.0122Z" fill="#483332"/>
<path d="M686.605 28.0842C685.893 28.0842 685.269 27.9442 684.733 27.6642C684.205 27.3762 683.793 26.9842 683.497 26.4882C683.209 25.9922 683.065 25.4282 683.065 24.7962C683.065 24.1562 683.205 23.5922 683.485 23.1042C683.773 22.6082 684.165 22.2202 684.661 21.9402C685.165 21.6602 685.737 21.5202 686.377 21.5202C687.001 21.5202 687.557 21.6562 688.045 21.9282C688.533 22.2002 688.917 22.5842 689.197 23.0802C689.477 23.5762 689.617 24.1602 689.617 24.8322C689.617 24.8962 689.613 24.9682 689.605 25.0482C689.605 25.1282 689.601 25.2042 689.593 25.2762H684.253V24.2802H688.801L688.213 24.5922C688.221 24.2242 688.145 23.9002 687.985 23.6202C687.825 23.3402 687.605 23.1202 687.325 22.9602C687.053 22.8002 686.737 22.7202 686.377 22.7202C686.009 22.7202 685.685 22.8002 685.405 22.9602C685.133 23.1202 684.917 23.3442 684.757 23.6322C684.605 23.9122 684.529 24.2442 684.529 24.6282V24.8682C684.529 25.2522 684.617 25.5922 684.793 25.8882C684.969 26.1842 685.217 26.4122 685.537 26.5722C685.857 26.7322 686.225 26.8122 686.641 26.8122C687.001 26.8122 687.325 26.7562 687.613 26.6442C687.901 26.5322 688.157 26.3562 688.381 26.1162L689.185 27.0402C688.897 27.3762 688.533 27.6362 688.093 27.8202C687.661 27.9962 687.165 28.0842 686.605 28.0842Z" fill="#483332"/>
<path d="M693.938 28.0842C693.282 28.0842 692.698 27.9442 692.186 27.6642C691.674 27.3762 691.27 26.9842 690.974 26.4882C690.678 25.9922 690.53 25.4282 690.53 24.7962C690.53 24.1562 690.678 23.5922 690.974 23.1042C691.27 22.6082 691.674 22.2202 692.186 21.9402C692.698 21.6602 693.282 21.5202 693.938 21.5202C694.602 21.5202 695.19 21.6602 695.702 21.9402C696.222 22.2202 696.626 22.6042 696.914 23.0922C697.21 23.5802 697.358 24.1482 697.358 24.7962C697.358 25.4282 697.21 25.9922 696.914 26.4882C696.626 26.9842 696.222 27.3762 695.702 27.6642C695.19 27.9442 694.602 28.0842 693.938 28.0842ZM693.938 26.8002C694.306 26.8002 694.634 26.7202 694.922 26.5602C695.21 26.4002 695.434 26.1682 695.594 25.8642C695.762 25.5602 695.846 25.2042 695.846 24.7962C695.846 24.3802 695.762 24.0242 695.594 23.7282C695.434 23.4242 695.21 23.1922 694.922 23.0322C694.634 22.8722 694.31 22.7922 693.95 22.7922C693.582 22.7922 693.254 22.8722 692.966 23.0322C692.686 23.1922 692.462 23.4242 692.294 23.7282C692.126 24.0242 692.042 24.3802 692.042 24.7962C692.042 25.2042 692.126 25.5602 692.294 25.8642C692.462 26.1682 692.686 26.4002 692.966 26.5602C693.254 26.7202 693.578 26.8002 693.938 26.8002Z" fill="#483332"/>
<path d="M702.345 28.0842C701.825 28.0842 701.349 27.9642 700.917 27.7242C700.493 27.4842 700.153 27.1242 699.897 26.6442C699.649 26.1562 699.525 25.5402 699.525 24.7962C699.525 24.0442 699.645 23.4282 699.885 22.9482C700.133 22.4682 700.469 22.1122 700.893 21.8802C701.317 21.6402 701.801 21.5202 702.345 21.5202C702.977 21.5202 703.533 21.6562 704.013 21.9282C704.501 22.2002 704.885 22.5802 705.165 23.0682C705.453 23.5562 705.597 24.1322 705.597 24.7962C705.597 25.4602 705.453 26.0402 705.165 26.5362C704.885 27.0242 704.501 27.4042 704.013 27.6762C703.533 27.9482 702.977 28.0842 702.345 28.0842ZM698.793 30.3282V21.5922H700.221V23.1042L700.173 24.8082L700.293 26.5122V30.3282H698.793ZM702.177 26.8002C702.537 26.8002 702.857 26.7202 703.137 26.5602C703.425 26.4002 703.653 26.1682 703.821 25.8642C703.989 25.5602 704.073 25.2042 704.073 24.7962C704.073 24.3802 703.989 24.0242 703.821 23.7282C703.653 23.4242 703.425 23.1922 703.137 23.0322C702.857 22.8722 702.537 22.7922 702.177 22.7922C701.817 22.7922 701.493 22.8722 701.205 23.0322C700.917 23.1922 700.689 23.4242 700.521 23.7282C700.353 24.0242 700.269 24.3802 700.269 24.7962C700.269 25.2042 700.353 25.5602 700.521 25.8642C700.689 26.1682 700.917 26.4002 701.205 26.5602C701.493 26.7202 701.817 26.8002 702.177 26.8002Z" fill="#483332"/>
<path d="M707.019 28.0002V19.0962H708.519V28.0002H707.019Z" fill="#483332"/>
<path d="M713.5 28.0842C712.788 28.0842 712.164 27.9442 711.628 27.6642C711.1 27.3762 710.688 26.9842 710.392 26.4882C710.104 25.9922 709.96 25.4282 709.96 24.7962C709.96 24.1562 710.1 23.5922 710.38 23.1042C710.668 22.6082 711.06 22.2202 711.556 21.9402C712.06 21.6602 712.632 21.5202 713.272 21.5202C713.896 21.5202 714.452 21.6562 714.94 21.9282C715.428 22.2002 715.812 22.5842 716.092 23.0802C716.372 23.5762 716.512 24.1602 716.512 24.8322C716.512 24.8962 716.508 24.9682 716.5 25.0482C716.5 25.1282 716.496 25.2042 716.488 25.2762H711.148V24.2802H715.696L715.108 24.5922C715.116 24.2242 715.04 23.9002 714.88 23.6202C714.72 23.3402 714.5 23.1202 714.22 22.9602C713.948 22.8002 713.632 22.7202 713.272 22.7202C712.904 22.7202 712.58 22.8002 712.3 22.9602C712.028 23.1202 711.812 23.3442 711.652 23.6322C711.5 23.9122 711.424 24.2442 711.424 24.6282V24.8682C711.424 25.2522 711.512 25.5922 711.688 25.8882C711.864 26.1842 712.112 26.4122 712.432 26.5722C712.752 26.7322 713.12 26.8122 713.536 26.8122C713.896 26.8122 714.22 26.7562 714.508 26.6442C714.796 26.5322 715.052 26.3562 715.276 26.1162L716.08 27.0402C715.792 27.3762 715.428 27.6362 714.988 27.8202C714.556 27.9962 714.06 28.0842 713.5 28.0842Z" fill="#483332"/>
<path d="M604.93 49.9998L609.34 40.1998H611.132L615.556 49.9998H613.652L609.858 41.1658H610.586L606.806 49.9998H604.93ZM606.96 47.7318L607.45 46.3038H612.742L613.232 47.7318H606.96Z" fill="#C2C6CC"/>
<path d="M619.73 50.0978C619.011 50.0978 618.363 49.9391 617.784 49.6218C617.215 49.2951 616.767 48.8471 616.44 48.2778C616.113 47.7085 615.95 47.0365 615.95 46.2618C615.95 45.4872 616.113 44.8152 616.44 44.2458C616.767 43.6765 617.215 43.2331 617.784 42.9158C618.363 42.5985 619.011 42.4398 619.73 42.4398C620.355 42.4398 620.915 42.5798 621.41 42.8598C621.905 43.1305 622.297 43.5458 622.586 44.1058C622.875 44.6658 623.02 45.3845 623.02 46.2618C623.02 47.1298 622.88 47.8485 622.6 48.4178C622.32 48.9778 621.933 49.3978 621.438 49.6778C620.943 49.9578 620.374 50.0978 619.73 50.0978ZM619.94 48.5998C620.36 48.5998 620.733 48.5065 621.06 48.3198C621.396 48.1332 621.662 47.8625 621.858 47.5078C622.063 47.1532 622.166 46.7378 622.166 46.2618C622.166 45.7765 622.063 45.3611 621.858 45.0158C621.662 44.6611 621.396 44.3905 621.06 44.2038C620.733 44.0171 620.36 43.9238 619.94 43.9238C619.52 43.9238 619.142 44.0171 618.806 44.2038C618.479 44.3905 618.213 44.6611 618.008 45.0158C617.812 45.3611 617.714 45.7765 617.714 46.2618C617.714 46.7378 617.812 47.1532 618.008 47.5078C618.213 47.8625 618.479 48.1332 618.806 48.3198C619.142 48.5065 619.52 48.5998 619.94 48.5998ZM622.208 49.9998V48.2358L622.278 46.2478L622.138 44.2598V39.6118H623.874V49.9998H622.208Z" fill="#C2C6CC"/>
<path d="M629.341 50.0978C628.623 50.0978 627.974 49.9391 627.395 49.6218C626.826 49.2951 626.378 48.8471 626.051 48.2778C625.725 47.7085 625.561 47.0365 625.561 46.2618C625.561 45.4872 625.725 44.8152 626.051 44.2458C626.378 43.6765 626.826 43.2331 627.395 42.9158C627.974 42.5985 628.623 42.4398 629.341 42.4398C629.967 42.4398 630.527 42.5798 631.021 42.8598C631.516 43.1305 631.908 43.5458 632.197 44.1058C632.487 44.6658 632.631 45.3845 632.631 46.2618C632.631 47.1298 632.491 47.8485 632.211 48.4178C631.931 48.9778 631.544 49.3978 631.049 49.6778C630.555 49.9578 629.985 50.0978 629.341 50.0978ZM629.551 48.5998C629.971 48.5998 630.345 48.5065 630.671 48.3198C631.007 48.1332 631.273 47.8625 631.469 47.5078C631.675 47.1532 631.777 46.7378 631.777 46.2618C631.777 45.7765 631.675 45.3611 631.469 45.0158C631.273 44.6611 631.007 44.3905 630.671 44.2038C630.345 44.0171 629.971 43.9238 629.551 43.9238C629.131 43.9238 628.753 44.0171 628.417 44.2038C628.091 44.3905 627.825 44.6611 627.619 45.0158C627.423 45.3611 627.325 45.7765 627.325 46.2618C627.325 46.7378 627.423 47.1532 627.619 47.5078C627.825 47.8625 628.091 48.1332 628.417 48.3198C628.753 48.5065 629.131 48.5998 629.551 48.5998ZM631.819 49.9998V48.2358L631.889 46.2478L631.749 44.2598V39.6118H633.485V49.9998H631.819Z" fill="#C2C6CC"/>
<path d="M639.826 49.9998V40.1998H643.858C644.726 40.1998 645.468 40.3398 646.084 40.6198C646.709 40.8998 647.19 41.3011 647.526 41.8238C647.862 42.3465 648.03 42.9671 648.03 43.6858C648.03 44.4045 647.862 45.0251 647.526 45.5478C647.19 46.0705 646.709 46.4718 646.084 46.7518C645.468 47.0318 644.726 47.1718 643.858 47.1718H640.834L641.646 46.3178V49.9998H639.826ZM641.646 46.5138L640.834 45.6318H643.774C644.576 45.6318 645.178 45.4638 645.58 45.1278C645.99 44.7825 646.196 44.3018 646.196 43.6858C646.196 43.0605 645.99 42.5798 645.58 42.2438C645.178 41.9078 644.576 41.7398 643.774 41.7398H640.834L641.646 40.8438V46.5138Z" fill="#C2C6CC"/>
<path d="M653.166 50.0978C652.335 50.0978 651.607 49.9345 650.982 49.6078C650.366 49.2718 649.885 48.8145 649.54 48.2358C649.204 47.6572 649.036 46.9992 649.036 46.2618C649.036 45.5152 649.199 44.8572 649.526 44.2878C649.862 43.7092 650.319 43.2565 650.898 42.9298C651.486 42.6032 652.153 42.4398 652.9 42.4398C653.628 42.4398 654.277 42.5985 654.846 42.9158C655.415 43.2331 655.863 43.6811 656.19 44.2598C656.517 44.8385 656.68 45.5198 656.68 46.3038C656.68 46.3785 656.675 46.4625 656.666 46.5558C656.666 46.6491 656.661 46.7378 656.652 46.8218H650.422V45.6598H655.728L655.042 46.0238C655.051 45.5945 654.963 45.2165 654.776 44.8898C654.589 44.5631 654.333 44.3065 654.006 44.1198C653.689 43.9331 653.32 43.8398 652.9 43.8398C652.471 43.8398 652.093 43.9331 651.766 44.1198C651.449 44.3065 651.197 44.5678 651.01 44.9038C650.833 45.2305 650.744 45.6178 650.744 46.0658V46.3458C650.744 46.7938 650.847 47.1905 651.052 47.5358C651.257 47.8812 651.547 48.1472 651.92 48.3338C652.293 48.5205 652.723 48.6138 653.208 48.6138C653.628 48.6138 654.006 48.5485 654.342 48.4178C654.678 48.2872 654.977 48.0818 655.238 47.8018L656.176 48.8798C655.84 49.2718 655.415 49.5752 654.902 49.7898C654.398 49.9952 653.819 50.0978 653.166 50.0978Z" fill="#C2C6CC"/>
<path d="M661.721 50.0978C660.955 50.0978 660.274 49.9345 659.677 49.6078C659.079 49.2718 658.608 48.8145 658.263 48.2358C657.917 47.6572 657.745 46.9992 657.745 46.2618C657.745 45.5152 657.917 44.8572 658.263 44.2878C658.608 43.7092 659.079 43.2565 659.677 42.9298C660.274 42.6032 660.955 42.4398 661.721 42.4398C662.495 42.4398 663.181 42.6032 663.779 42.9298C664.385 43.2565 664.857 43.7045 665.193 44.2738C665.538 44.8432 665.711 45.5058 665.711 46.2618C665.711 46.9992 665.538 47.6572 665.193 48.2358C664.857 48.8145 664.385 49.2718 663.779 49.6078C663.181 49.9345 662.495 50.0978 661.721 50.0978ZM661.721 48.5998C662.15 48.5998 662.533 48.5065 662.869 48.3198C663.205 48.1332 663.466 47.8625 663.653 47.5078C663.849 47.1532 663.947 46.7378 663.947 46.2618C663.947 45.7765 663.849 45.3611 663.653 45.0158C663.466 44.6611 663.205 44.3905 662.869 44.2038C662.533 44.0171 662.155 43.9238 661.735 43.9238C661.305 43.9238 660.923 44.0171 660.587 44.2038C660.26 44.3905 659.999 44.6611 659.803 45.0158C659.607 45.3611 659.509 45.7765 659.509 46.2618C659.509 46.7378 659.607 47.1532 659.803 47.5078C659.999 47.8625 660.26 48.1332 660.587 48.3198C660.923 48.5065 661.301 48.5998 661.721 48.5998Z" fill="#C2C6CC"/>
<path d="M671.528 50.0978C670.922 50.0978 670.366 49.9578 669.862 49.6778C669.368 49.3978 668.971 48.9778 668.672 48.4178C668.383 47.8485 668.238 47.1298 668.238 46.2618C668.238 45.3845 668.378 44.6658 668.658 44.1058C668.948 43.5458 669.34 43.1305 669.834 42.8598C670.329 42.5798 670.894 42.4398 671.528 42.4398C672.266 42.4398 672.914 42.5985 673.474 42.9158C674.044 43.2331 674.492 43.6765 674.818 44.2458C675.154 44.8152 675.322 45.4872 675.322 46.2618C675.322 47.0365 675.154 47.7132 674.818 48.2918C674.492 48.8611 674.044 49.3045 673.474 49.6218C672.914 49.9391 672.266 50.0978 671.528 50.0978ZM667.384 52.7158V42.5238H669.05V44.2878L668.994 46.2758L669.134 48.2638V52.7158H667.384ZM671.332 48.5998C671.752 48.5998 672.126 48.5065 672.452 48.3198C672.788 48.1332 673.054 47.8625 673.25 47.5078C673.446 47.1532 673.544 46.7378 673.544 46.2618C673.544 45.7765 673.446 45.3611 673.25 45.0158C673.054 44.6611 672.788 44.3905 672.452 44.2038C672.126 44.0171 671.752 43.9238 671.332 43.9238C670.912 43.9238 670.534 44.0171 670.198 44.2038C669.862 44.3905 669.596 44.6611 669.4 45.0158C669.204 45.3611 669.106 45.7765 669.106 46.2618C669.106 46.7378 669.204 47.1532 669.4 47.5078C669.596 47.8625 669.862 48.1332 670.198 48.3198C670.534 48.5065 670.912 48.5998 671.332 48.5998Z" fill="#C2C6CC"/>
<path d="M676.982 49.9998V39.6118H678.732V49.9998H676.982Z" fill="#C2C6CC"/>
<path d="M684.543 50.0978C683.712 50.0978 682.984 49.9345 682.359 49.6078C681.743 49.2718 681.262 48.8145 680.917 48.2358C680.581 47.6572 680.413 46.9992 680.413 46.2618C680.413 45.5152 680.576 44.8572 680.903 44.2878C681.239 43.7092 681.696 43.2565 682.275 42.9298C682.863 42.6032 683.53 42.4398 684.277 42.4398C685.005 42.4398 685.653 42.5985 686.223 42.9158C686.792 43.2331 687.24 43.6811 687.567 44.2598C687.893 44.8385 688.057 45.5198 688.057 46.3038C688.057 46.3785 688.052 46.4625 688.043 46.5558C688.043 46.6491 688.038 46.7378 688.029 46.8218H681.799V45.6598H687.105L686.419 46.0238C686.428 45.5945 686.339 45.2165 686.153 44.8898C685.966 44.5631 685.709 44.3065 685.383 44.1198C685.065 43.9331 684.697 43.8398 684.277 43.8398C683.847 43.8398 683.469 43.9331 683.143 44.1198C682.825 44.3065 682.573 44.5678 682.387 44.9038C682.209 45.2305 682.121 45.6178 682.121 46.0658V46.3458C682.121 46.7938 682.223 47.1905 682.429 47.5358C682.634 47.8812 682.923 48.1472 683.297 48.3338C683.67 48.5205 684.099 48.6138 684.585 48.6138C685.005 48.6138 685.383 48.5485 685.719 48.4178C686.055 48.2872 686.353 48.0818 686.615 47.8018L687.553 48.8798C687.217 49.2718 686.792 49.5752 686.279 49.7898C685.775 49.9952 685.196 50.0978 684.543 50.0978Z" fill="#C2C6CC"/>
<path d="M786 35C786 49.9117 773.912 62 759 62C744.088 62 732 49.9117 732 35C732 20.0883 744.088 8 759 8C773.912 8 786 20.0883 786 35Z" fill="#483332"/>
<path fill-rule="evenodd" clip-rule="evenodd" d="M763.325 37.8992L768.705 43.2792C768.894 43.4685 769 43.7251 769 43.9926C769 44.2601 768.894 44.5166 768.705 44.7057C768.515 44.8948 768.259 45.001 767.991 45.0009C767.724 45.0008 767.467 44.8945 767.278 44.7052L761.898 39.3252C760.29 40.5709 758.267 41.1571 756.242 40.9646C754.217 40.7721 752.341 39.8153 750.996 38.2888C749.652 36.7624 748.939 34.781 749.003 32.7478C749.068 30.7145 749.904 28.7821 751.342 27.3436C752.781 25.9052 754.713 25.0687 756.747 25.0045C758.78 24.9402 760.761 25.653 762.288 26.9977C763.814 28.3425 764.771 30.2182 764.963 32.2434C765.156 34.2685 764.57 36.2909 763.324 37.8992H763.325ZM757 39.0002C758.591 39.0002 760.117 38.3681 761.243 37.2429C762.368 36.1177 763 34.5915 763 33.0002C763 31.4089 762.368 29.8828 761.243 28.7576C760.117 27.6324 758.591 27.0002 757 27.0002C755.409 27.0002 753.883 27.6324 752.757 28.7576C751.632 29.8828 751 31.4089 751 33.0002C751 34.5915 751.632 36.1177 752.757 37.2429C753.883 38.3681 755.409 39.0002 757 39.0002Z" fill="white"/>
<path fill-rule="evenodd" clip-rule="evenodd" d="M422 49L422 19L423 19L423 49L422 49Z" fill="#DDDDDD"/>
<path fill-rule="evenodd" clip-rule="evenodd" d="M589 49L589 19L590 19L590 49L589 49Z" fill="#DDDDDD"/>
<path fill-rule="evenodd" clip-rule="evenodd" d="M280 49L280 19L281 19L281 49L280 49Z" fill="#DDDDDD"/>
</svg>
