<svg width="794" height="70" viewBox="0 0 794 70" fill="none" xmlns="http://www.w3.org/2000/svg">
<path d="M0 35C0 15.67 15.67 0 35 0H759C778.33 0 794 15.67 794 35C794 54.33 778.33 70 759 70H35C15.67 70 0 54.33 0 35Z" fill="white"/>
<path d="M33.732 28.1197C33.076 28.1197 32.448 28.0277 31.848 27.8437C31.248 27.6517 30.772 27.4077 30.42 27.1117L30.96 25.8997C31.296 26.1637 31.712 26.3837 32.208 26.5597C32.704 26.7357 33.212 26.8237 33.732 26.8237C34.172 26.8237 34.528 26.7757 34.8 26.6797C35.072 26.5837 35.272 26.4557 35.4 26.2957C35.528 26.1277 35.592 25.9397 35.592 25.7317C35.592 25.4757 35.5 25.2717 35.316 25.1197C35.132 24.9597 34.892 24.8357 34.596 24.7477C34.308 24.6517 33.984 24.5637 33.624 24.4837C33.272 24.4037 32.916 24.3117 32.556 24.2077C32.204 24.0957 31.88 23.9557 31.584 23.7877C31.296 23.6117 31.06 23.3797 30.876 23.0917C30.692 22.8037 30.6 22.4357 30.6 21.9877C30.6 21.5317 30.72 21.1157 30.96 20.7397C31.208 20.3557 31.58 20.0517 32.076 19.8277C32.58 19.5957 33.216 19.4797 33.984 19.4797C34.488 19.4797 34.988 19.5437 35.484 19.6717C35.98 19.7997 36.412 19.9837 36.78 20.2237L36.288 21.4357C35.912 21.2117 35.524 21.0477 35.124 20.9437C34.724 20.8317 34.34 20.7757 33.972 20.7757C33.54 20.7757 33.188 20.8277 32.916 20.9317C32.652 21.0357 32.456 21.1717 32.328 21.3397C32.208 21.5077 32.148 21.6997 32.148 21.9157C32.148 22.1717 32.236 22.3797 32.412 22.5397C32.596 22.6917 32.832 22.8117 33.12 22.8997C33.416 22.9877 33.744 23.0757 34.104 23.1637C34.464 23.2437 34.82 23.3357 35.172 23.4397C35.532 23.5437 35.856 23.6797 36.144 23.8477C36.44 24.0157 36.676 24.2437 36.852 24.5317C37.036 24.8197 37.128 25.1837 37.128 25.6237C37.128 26.0717 37.004 26.4877 36.756 26.8717C36.516 27.2477 36.144 27.5517 35.64 27.7837C35.136 28.0077 34.5 28.1197 33.732 28.1197Z" fill="#483332"/>
<path d="M41.5429 28.0837C40.8309 28.0837 40.2069 27.9437 39.6709 27.6637C39.1429 27.3757 38.7309 26.9837 38.4349 26.4877C38.1469 25.9917 38.0029 25.4277 38.0029 24.7957C38.0029 24.1557 38.1429 23.5917 38.4229 23.1037C38.7109 22.6077 39.1029 22.2197 39.5989 21.9397C40.1029 21.6597 40.6749 21.5197 41.3149 21.5197C41.9389 21.5197 42.4949 21.6557 42.9829 21.9277C43.4709 22.1997 43.8549 22.5837 44.1349 23.0797C44.4149 23.5757 44.5549 24.1597 44.5549 24.8317C44.5549 24.8957 44.5509 24.9677 44.5429 25.0477C44.5429 25.1277 44.5389 25.2037 44.5309 25.2757H39.1909V24.2797H43.7389L43.1509 24.5917C43.1589 24.2237 43.0829 23.8997 42.9229 23.6197C42.7629 23.3397 42.5429 23.1197 42.2629 22.9597C41.9909 22.7997 41.6749 22.7197 41.3149 22.7197C40.9469 22.7197 40.6229 22.7997 40.3429 22.9597C40.0709 23.1197 39.8549 23.3437 39.6949 23.6317C39.5429 23.9117 39.4669 24.2437 39.4669 24.6277V24.8677C39.4669 25.2517 39.5549 25.5917 39.7309 25.8877C39.9069 26.1837 40.1549 26.4117 40.4749 26.5717C40.7949 26.7317 41.1629 26.8117 41.5789 26.8117C41.9389 26.8117 42.2629 26.7557 42.5509 26.6437C42.8389 26.5317 43.0949 26.3557 43.3189 26.1157L44.1229 27.0397C43.8349 27.3757 43.4709 27.6357 43.0309 27.8197C42.5989 27.9957 42.1029 28.0837 41.5429 28.0837Z" fill="#483332"/>
<path d="M49.7679 27.9997V26.7037L49.6839 26.4277V24.1597C49.6839 23.7197 49.5519 23.3797 49.2879 23.1397C49.0239 22.8917 48.6239 22.7677 48.0879 22.7677C47.7279 22.7677 47.3719 22.8237 47.0199 22.9357C46.6759 23.0477 46.3839 23.2037 46.1439 23.4037L45.5559 22.3117C45.8999 22.0477 46.3079 21.8517 46.7799 21.7237C47.2599 21.5877 47.7559 21.5197 48.2679 21.5197C49.1959 21.5197 49.9119 21.7437 50.4159 22.1917C50.9279 22.6317 51.1839 23.3157 51.1839 24.2437V27.9997H49.7679ZM47.7519 28.0837C47.2719 28.0837 46.8519 28.0037 46.4919 27.8437C46.1319 27.6757 45.8519 27.4477 45.6519 27.1597C45.4599 26.8637 45.3639 26.5317 45.3639 26.1637C45.3639 25.8037 45.4479 25.4797 45.6159 25.1917C45.7919 24.9037 46.0759 24.6757 46.4679 24.5077C46.8599 24.3397 47.3799 24.2557 48.0279 24.2557H49.8879V25.2517H48.1359C47.6239 25.2517 47.2799 25.3357 47.1039 25.5037C46.9279 25.6637 46.8399 25.8637 46.8399 26.1037C46.8399 26.3757 46.9479 26.5917 47.1639 26.7517C47.3799 26.9117 47.6799 26.9917 48.0639 26.9917C48.4319 26.9917 48.7599 26.9077 49.0479 26.7397C49.3439 26.5717 49.5559 26.3237 49.6839 25.9957L49.9359 26.8957C49.7919 27.2717 49.5319 27.5637 49.1559 27.7717C48.7879 27.9797 48.3199 28.0837 47.7519 28.0837Z" fill="#483332"/>
<path d="M53.109 27.9997V21.5917H54.537V23.3557L54.369 22.8397C54.561 22.4077 54.861 22.0797 55.269 21.8557C55.685 21.6317 56.201 21.5197 56.817 21.5197V22.9477C56.753 22.9317 56.693 22.9237 56.637 22.9237C56.581 22.9157 56.525 22.9117 56.469 22.9117C55.901 22.9117 55.449 23.0797 55.113 23.4157C54.777 23.7437 54.609 24.2357 54.609 24.8917V27.9997H53.109Z" fill="#483332"/>
<path d="M60.9709 28.0837C60.2989 28.0837 59.6989 27.9437 59.1709 27.6637C58.6509 27.3757 58.2429 26.9837 57.9469 26.4877C57.6509 25.9917 57.5029 25.4277 57.5029 24.7957C57.5029 24.1557 57.6509 23.5917 57.9469 23.1037C58.2429 22.6077 58.6509 22.2197 59.1709 21.9397C59.6989 21.6597 60.2989 21.5197 60.9709 21.5197C61.5949 21.5197 62.1429 21.6477 62.6149 21.9037C63.0949 22.1517 63.4589 22.5197 63.7069 23.0077L62.5549 23.6797C62.3629 23.3757 62.1269 23.1517 61.8469 23.0077C61.5749 22.8637 61.2789 22.7917 60.9589 22.7917C60.5909 22.7917 60.2589 22.8717 59.9629 23.0317C59.6669 23.1917 59.4349 23.4237 59.2669 23.7277C59.0989 24.0237 59.0149 24.3797 59.0149 24.7957C59.0149 25.2117 59.0989 25.5717 59.2669 25.8757C59.4349 26.1717 59.6669 26.3997 59.9629 26.5597C60.2589 26.7197 60.5909 26.7997 60.9589 26.7997C61.2789 26.7997 61.5749 26.7277 61.8469 26.5837C62.1269 26.4397 62.3629 26.2157 62.5549 25.9117L63.7069 26.5837C63.4589 27.0637 63.0949 27.4357 62.6149 27.6997C62.1429 27.9557 61.5949 28.0837 60.9709 28.0837Z" fill="#483332"/>
<path d="M68.5809 21.5197C69.0929 21.5197 69.5489 21.6197 69.9489 21.8197C70.3569 22.0197 70.6769 22.3277 70.9089 22.7437C71.1409 23.1517 71.2569 23.6797 71.2569 24.3277V27.9997H69.7569V24.5197C69.7569 23.9517 69.6209 23.5277 69.3489 23.2477C69.0849 22.9677 68.7129 22.8277 68.2329 22.8277C67.8809 22.8277 67.5689 22.8997 67.2969 23.0437C67.0249 23.1877 66.8129 23.4037 66.6609 23.6917C66.5169 23.9717 66.4449 24.3277 66.4449 24.7597V27.9997H64.9449V19.0957H66.4449V23.3197L66.1209 22.7917C66.3449 22.3837 66.6689 22.0717 67.0929 21.8557C67.5249 21.6317 68.0209 21.5197 68.5809 21.5197Z" fill="#483332"/>
<path d="M297.128 28.0001V19.6001H300.8C301.712 19.6001 302.512 19.7761 303.2 20.1281C303.888 20.4801 304.424 20.9681 304.808 21.5921C305.192 22.2161 305.384 22.9521 305.384 23.8001C305.384 24.6401 305.192 25.3761 304.808 26.0081C304.424 26.6321 303.888 27.1201 303.2 27.4721C302.512 27.8241 301.712 28.0001 300.8 28.0001H297.128ZM298.688 26.6801H300.728C301.36 26.6801 301.904 26.5601 302.36 26.3201C302.824 26.0801 303.18 25.7441 303.428 25.3121C303.684 24.8801 303.812 24.3761 303.812 23.8001C303.812 23.2161 303.684 22.7121 303.428 22.2881C303.18 21.8561 302.824 21.5201 302.36 21.2801C301.904 21.0401 301.36 20.9201 300.728 20.9201H298.688V26.6801Z" fill="#483332"/>
<path d="M310.846 28.0001V26.7041L310.762 26.4281V24.1601C310.762 23.7201 310.63 23.3801 310.366 23.1401C310.102 22.8921 309.702 22.7681 309.166 22.7681C308.806 22.7681 308.45 22.8241 308.098 22.9361C307.754 23.0481 307.462 23.2041 307.222 23.4041L306.634 22.3121C306.978 22.0481 307.386 21.8521 307.858 21.7241C308.338 21.5881 308.834 21.5201 309.346 21.5201C310.274 21.5201 310.99 21.7441 311.494 22.1921C312.006 22.6321 312.262 23.3161 312.262 24.2441V28.0001H310.846ZM308.83 28.0841C308.35 28.0841 307.93 28.0041 307.57 27.8441C307.21 27.6761 306.93 27.4481 306.73 27.1601C306.538 26.8641 306.442 26.5321 306.442 26.1641C306.442 25.8041 306.526 25.4801 306.694 25.1921C306.87 24.9041 307.154 24.6761 307.546 24.5081C307.938 24.3401 308.458 24.2561 309.106 24.2561H310.966V25.2521H309.214C308.702 25.2521 308.358 25.3361 308.182 25.5041C308.006 25.6641 307.918 25.8641 307.918 26.1041C307.918 26.3761 308.026 26.5921 308.242 26.7521C308.458 26.9121 308.758 26.9921 309.142 26.9921C309.51 26.9921 309.838 26.9081 310.126 26.7401C310.422 26.5721 310.634 26.3241 310.762 25.9961L311.014 26.8961C310.87 27.2721 310.61 27.5641 310.234 27.7721C309.866 27.9801 309.398 28.0841 308.83 28.0841Z" fill="#483332"/>
<path d="M316.599 28.0841C315.895 28.0841 315.351 27.9041 314.967 27.5441C314.583 27.1761 314.391 26.6361 314.391 25.9241V20.1761H315.891V25.8881C315.891 26.1921 315.967 26.4281 316.119 26.5961C316.279 26.7641 316.499 26.8481 316.779 26.8481C317.115 26.8481 317.395 26.7601 317.619 26.5841L318.039 27.6521C317.863 27.7961 317.647 27.9041 317.391 27.9761C317.135 28.0481 316.871 28.0841 316.599 28.0841ZM313.335 22.8401V21.6401H317.607V22.8401H313.335Z" fill="#483332"/>
<path d="M322.074 28.0841C321.362 28.0841 320.738 27.9441 320.202 27.6641C319.674 27.3761 319.262 26.9841 318.966 26.4881C318.678 25.9921 318.534 25.4281 318.534 24.7961C318.534 24.1561 318.674 23.5921 318.954 23.1041C319.242 22.6081 319.634 22.2201 320.13 21.9401C320.634 21.6601 321.206 21.5201 321.846 21.5201C322.47 21.5201 323.026 21.6561 323.514 21.9281C324.002 22.2001 324.386 22.5841 324.666 23.0801C324.946 23.5761 325.086 24.1601 325.086 24.8321C325.086 24.8961 325.082 24.9681 325.074 25.0481C325.074 25.1281 325.07 25.2041 325.062 25.2761H319.722V24.2801H324.27L323.682 24.5921C323.69 24.2241 323.614 23.9001 323.454 23.6201C323.294 23.3401 323.074 23.1201 322.794 22.9601C322.522 22.8001 322.206 22.7201 321.846 22.7201C321.478 22.7201 321.154 22.8001 320.874 22.9601C320.602 23.1201 320.386 23.3441 320.226 23.6321C320.074 23.9121 319.998 24.2441 319.998 24.6281V24.8681C319.998 25.2521 320.086 25.5921 320.262 25.8881C320.438 26.1841 320.686 26.4121 321.006 26.5721C321.326 26.7321 321.694 26.8121 322.11 26.8121C322.47 26.8121 322.794 26.7561 323.082 26.6441C323.37 26.5321 323.626 26.3561 323.85 26.1161L324.654 27.0401C324.366 27.3761 324.002 27.6361 323.562 27.8201C323.13 27.9961 322.634 28.0841 322.074 28.0841Z" fill="#483332"/>
<path d="M440.832 27.9998V20.9198H438.048V19.5998H445.176V20.9198H442.392V27.9998H440.832Z" fill="#483332"/>
<path d="M446.203 27.9998V21.5918H447.703V27.9998H446.203ZM446.959 20.5358C446.679 20.5358 446.447 20.4478 446.263 20.2718C446.087 20.0958 445.999 19.8838 445.999 19.6358C445.999 19.3798 446.087 19.1678 446.263 18.9998C446.447 18.8238 446.679 18.7358 446.959 18.7358C447.239 18.7358 447.467 18.8198 447.643 18.9878C447.827 19.1478 447.919 19.3518 447.919 19.5998C447.919 19.8638 447.831 20.0878 447.655 20.2718C447.479 20.4478 447.247 20.5358 446.959 20.5358Z" fill="#483332"/>
<path d="M457.759 21.5198C458.271 21.5198 458.723 21.6198 459.115 21.8198C459.515 22.0198 459.827 22.3278 460.051 22.7438C460.275 23.1518 460.387 23.6798 460.387 24.3278V27.9998H458.887V24.5198C458.887 23.9518 458.763 23.5278 458.515 23.2478C458.267 22.9678 457.911 22.8278 457.447 22.8278C457.119 22.8278 456.827 22.8998 456.571 23.0438C456.323 23.1878 456.127 23.3998 455.983 23.6798C455.847 23.9598 455.779 24.3158 455.779 24.7478V27.9998H454.279V24.5198C454.279 23.9518 454.155 23.5278 453.907 23.2478C453.659 22.9678 453.303 22.8278 452.839 22.8278C452.511 22.8278 452.219 22.8998 451.963 23.0438C451.715 23.1878 451.519 23.3998 451.375 23.6798C451.239 23.9598 451.171 24.3158 451.171 24.7478V27.9998H449.671V21.5918H451.099V23.2958L450.847 22.7918C451.063 22.3758 451.375 22.0598 451.783 21.8438C452.199 21.6278 452.671 21.5198 453.199 21.5198C453.799 21.5198 454.319 21.6678 454.759 21.9638C455.207 22.2598 455.503 22.7078 455.647 23.3078L455.059 23.1038C455.267 22.6238 455.611 22.2398 456.091 21.9518C456.571 21.6638 457.127 21.5198 457.759 21.5198Z" fill="#483332"/>
<path d="M465.328 28.0838C464.616 28.0838 463.992 27.9438 463.456 27.6638C462.928 27.3758 462.516 26.9838 462.22 26.4878C461.932 25.9918 461.788 25.4278 461.788 24.7958C461.788 24.1558 461.928 23.5918 462.208 23.1038C462.496 22.6078 462.888 22.2198 463.384 21.9398C463.888 21.6598 464.46 21.5198 465.1 21.5198C465.724 21.5198 466.28 21.6558 466.768 21.9278C467.256 22.1998 467.64 22.5838 467.92 23.0798C468.2 23.5758 468.34 24.1598 468.34 24.8318C468.34 24.8958 468.336 24.9678 468.328 25.0478C468.328 25.1278 468.324 25.2038 468.316 25.2758H462.976V24.2798H467.524L466.936 24.5918C466.944 24.2238 466.868 23.8998 466.708 23.6198C466.548 23.3398 466.328 23.1198 466.048 22.9598C465.776 22.7998 465.46 22.7198 465.1 22.7198C464.732 22.7198 464.408 22.7998 464.128 22.9598C463.856 23.1198 463.64 23.3438 463.48 23.6318C463.328 23.9118 463.252 24.2438 463.252 24.6278V24.8678C463.252 25.2518 463.34 25.5918 463.516 25.8878C463.692 26.1838 463.94 26.4118 464.26 26.5718C464.58 26.7318 464.948 26.8118 465.364 26.8118C465.724 26.8118 466.048 26.7558 466.336 26.6438C466.624 26.5318 466.88 26.3558 467.104 26.1158L467.908 27.0398C467.62 27.3758 467.256 27.6358 466.816 27.8198C466.384 27.9958 465.888 28.0838 465.328 28.0838Z" fill="#483332"/>
<path d="M605.128 27.9997V19.5997H606.412L611.68 26.0677H611.044V19.5997H612.592V27.9997H611.308L606.04 21.5317H606.676V27.9997H605.128Z" fill="#483332"/>
<path d="M617.411 28.0837C616.867 28.0837 616.387 27.9837 615.971 27.7837C615.555 27.5757 615.231 27.2637 614.999 26.8477C614.767 26.4237 614.651 25.8917 614.651 25.2517V21.5917H616.151V25.0477C616.151 25.6237 616.279 26.0557 616.535 26.3437C616.799 26.6237 617.171 26.7637 617.651 26.7637C618.003 26.7637 618.307 26.6917 618.563 26.5477C618.827 26.4037 619.031 26.1877 619.175 25.8997C619.327 25.6117 619.403 25.2557 619.403 24.8317V21.5917H620.903V27.9997H619.475V26.2717L619.727 26.7997C619.511 27.2157 619.195 27.5357 618.779 27.7597C618.363 27.9757 617.907 28.0837 617.411 28.0837Z" fill="#483332"/>
<path d="M630.955 21.5197C631.467 21.5197 631.919 21.6197 632.311 21.8197C632.711 22.0197 633.023 22.3277 633.247 22.7437C633.471 23.1517 633.583 23.6797 633.583 24.3277V27.9997H632.083V24.5197C632.083 23.9517 631.959 23.5277 631.711 23.2477C631.463 22.9677 631.107 22.8277 630.643 22.8277C630.315 22.8277 630.023 22.8997 629.767 23.0437C629.519 23.1877 629.323 23.3997 629.179 23.6797C629.043 23.9597 628.975 24.3157 628.975 24.7477V27.9997H627.475V24.5197C627.475 23.9517 627.351 23.5277 627.103 23.2477C626.855 22.9677 626.499 22.8277 626.035 22.8277C625.707 22.8277 625.415 22.8997 625.159 23.0437C624.911 23.1877 624.715 23.3997 624.571 23.6797C624.435 23.9597 624.367 24.3157 624.367 24.7477V27.9997H622.867V21.5917H624.295V23.2957L624.043 22.7917C624.259 22.3757 624.571 22.0597 624.979 21.8437C625.395 21.6277 625.867 21.5197 626.395 21.5197C626.995 21.5197 627.515 21.6677 627.955 21.9637C628.403 22.2597 628.699 22.7077 628.843 23.3077L628.255 23.1037C628.463 22.6237 628.807 22.2397 629.287 21.9517C629.767 21.6637 630.323 21.5197 630.955 21.5197Z" fill="#483332"/>
<path d="M639.052 28.0837C638.508 28.0837 638.024 27.9637 637.6 27.7237C637.176 27.4837 636.84 27.1237 636.592 26.6437C636.352 26.1557 636.232 25.5397 636.232 24.7957C636.232 24.0437 636.356 23.4277 636.604 22.9477C636.86 22.4677 637.2 22.1117 637.624 21.8797C638.056 21.6397 638.532 21.5197 639.052 21.5197C639.684 21.5197 640.24 21.6557 640.72 21.9277C641.208 22.1997 641.592 22.5797 641.872 23.0677C642.16 23.5557 642.304 24.1317 642.304 24.7957C642.304 25.4597 642.16 26.0357 641.872 26.5237C641.592 27.0117 641.208 27.3957 640.72 27.6757C640.24 27.9477 639.684 28.0837 639.052 28.0837ZM635.5 27.9997V19.0957H637V23.0797L636.88 24.7837L636.928 26.4877V27.9997H635.5ZM638.884 26.7997C639.244 26.7997 639.564 26.7197 639.844 26.5597C640.132 26.3997 640.36 26.1677 640.528 25.8637C640.696 25.5597 640.78 25.2037 640.78 24.7957C640.78 24.3797 640.696 24.0237 640.528 23.7277C640.36 23.4237 640.132 23.1917 639.844 23.0317C639.564 22.8717 639.244 22.7917 638.884 22.7917C638.524 22.7917 638.2 22.8717 637.912 23.0317C637.624 23.1917 637.396 23.4237 637.228 23.7277C637.06 24.0237 636.976 24.3797 636.976 24.7957C636.976 25.2037 637.06 25.5597 637.228 25.8637C637.396 26.1677 637.624 26.3997 637.912 26.5597C638.2 26.7197 638.524 26.7997 638.884 26.7997Z" fill="#483332"/>
<path d="M646.738 28.0837C646.026 28.0837 645.402 27.9437 644.866 27.6637C644.338 27.3757 643.926 26.9837 643.63 26.4877C643.342 25.9917 643.198 25.4277 643.198 24.7957C643.198 24.1557 643.338 23.5917 643.618 23.1037C643.906 22.6077 644.298 22.2197 644.794 21.9397C645.298 21.6597 645.87 21.5197 646.51 21.5197C647.134 21.5197 647.69 21.6557 648.178 21.9277C648.666 22.1997 649.05 22.5837 649.33 23.0797C649.61 23.5757 649.75 24.1597 649.75 24.8317C649.75 24.8957 649.746 24.9677 649.738 25.0477C649.738 25.1277 649.734 25.2037 649.726 25.2757H644.386V24.2797H648.934L648.346 24.5917C648.354 24.2237 648.278 23.8997 648.118 23.6197C647.958 23.3397 647.738 23.1197 647.458 22.9597C647.186 22.7997 646.87 22.7197 646.51 22.7197C646.142 22.7197 645.818 22.7997 645.538 22.9597C645.266 23.1197 645.05 23.3437 644.89 23.6317C644.738 23.9117 644.662 24.2437 644.662 24.6277V24.8677C644.662 25.2517 644.75 25.5917 644.926 25.8877C645.102 26.1837 645.35 26.4117 645.67 26.5717C645.99 26.7317 646.358 26.8117 646.774 26.8117C647.134 26.8117 647.458 26.7557 647.746 26.6437C648.034 26.5317 648.29 26.3557 648.514 26.1157L649.318 27.0397C649.03 27.3757 648.666 27.6357 648.226 27.8197C647.794 27.9957 647.298 28.0837 646.738 28.0837Z" fill="#483332"/>
<path d="M651.191 27.9997V21.5917H652.619V23.3557L652.451 22.8397C652.643 22.4077 652.943 22.0797 653.351 21.8557C653.767 21.6317 654.283 21.5197 654.899 21.5197V22.9477C654.835 22.9317 654.775 22.9237 654.719 22.9237C654.663 22.9157 654.607 22.9117 654.551 22.9117C653.983 22.9117 653.531 23.0797 653.195 23.4157C652.859 23.7437 652.691 24.2357 652.691 24.8917V27.9997H651.191Z" fill="#483332"/>
<path d="M662.426 28.0837C661.77 28.0837 661.186 27.9437 660.674 27.6637C660.162 27.3757 659.758 26.9837 659.462 26.4877C659.166 25.9917 659.018 25.4277 659.018 24.7957C659.018 24.1557 659.166 23.5917 659.462 23.1037C659.758 22.6077 660.162 22.2197 660.674 21.9397C661.186 21.6597 661.77 21.5197 662.426 21.5197C663.09 21.5197 663.678 21.6597 664.19 21.9397C664.71 22.2197 665.114 22.6037 665.402 23.0917C665.698 23.5797 665.846 24.1477 665.846 24.7957C665.846 25.4277 665.698 25.9917 665.402 26.4877C665.114 26.9837 664.71 27.3757 664.19 27.6637C663.678 27.9437 663.09 28.0837 662.426 28.0837ZM662.426 26.7997C662.794 26.7997 663.122 26.7197 663.41 26.5597C663.698 26.3997 663.922 26.1677 664.082 25.8637C664.25 25.5597 664.334 25.2037 664.334 24.7957C664.334 24.3797 664.25 24.0237 664.082 23.7277C663.922 23.4237 663.698 23.1917 663.41 23.0317C663.122 22.8717 662.798 22.7917 662.438 22.7917C662.07 22.7917 661.742 22.8717 661.454 23.0317C661.174 23.1917 660.95 23.4237 660.782 23.7277C660.614 24.0237 660.53 24.3797 660.53 24.7957C660.53 25.2037 660.614 25.5597 660.782 25.8637C660.95 26.1677 661.174 26.3997 661.454 26.5597C661.742 26.7197 662.066 26.7997 662.426 26.7997Z" fill="#483332"/>
<path d="M667.485 27.9997V21.2317C667.485 20.5597 667.681 20.0237 668.073 19.6237C668.473 19.2157 669.041 19.0117 669.777 19.0117C670.041 19.0117 670.289 19.0397 670.521 19.0957C670.761 19.1517 670.961 19.2397 671.121 19.3597L670.713 20.4877C670.601 20.3997 670.473 20.3357 670.329 20.2957C670.185 20.2477 670.037 20.2237 669.885 20.2237C669.573 20.2237 669.337 20.3117 669.177 20.4877C669.017 20.6557 668.937 20.9117 668.937 21.2557V21.9757L668.985 22.6477V27.9997H667.485ZM666.429 22.8397V21.6397H670.701V22.8397H666.429Z" fill="#483332"/>
<path d="M675.171 27.9997V19.5997H678.627C679.371 19.5997 680.007 19.7197 680.535 19.9597C681.071 20.1997 681.483 20.5437 681.771 20.9917C682.059 21.4397 682.203 21.9717 682.203 22.5877C682.203 23.2037 682.059 23.7357 681.771 24.1837C681.483 24.6317 681.071 24.9757 680.535 25.2157C680.007 25.4557 679.371 25.5757 678.627 25.5757H676.035L676.731 24.8437V27.9997H675.171ZM676.731 25.0117L676.035 24.2557H678.555C679.243 24.2557 679.759 24.1117 680.103 23.8237C680.455 23.5277 680.631 23.1157 680.631 22.5877C680.631 22.0517 680.455 21.6397 680.103 21.3517C679.759 21.0637 679.243 20.9197 678.555 20.9197H676.035L676.731 20.1517V25.0117Z" fill="#483332"/>
<path d="M686.605 28.0837C685.893 28.0837 685.269 27.9437 684.733 27.6637C684.205 27.3757 683.793 26.9837 683.497 26.4877C683.209 25.9917 683.065 25.4277 683.065 24.7957C683.065 24.1557 683.205 23.5917 683.485 23.1037C683.773 22.6077 684.165 22.2197 684.661 21.9397C685.165 21.6597 685.737 21.5197 686.377 21.5197C687.001 21.5197 687.557 21.6557 688.045 21.9277C688.533 22.1997 688.917 22.5837 689.197 23.0797C689.477 23.5757 689.617 24.1597 689.617 24.8317C689.617 24.8957 689.613 24.9677 689.605 25.0477C689.605 25.1277 689.601 25.2037 689.593 25.2757H684.253V24.2797H688.801L688.213 24.5917C688.221 24.2237 688.145 23.8997 687.985 23.6197C687.825 23.3397 687.605 23.1197 687.325 22.9597C687.053 22.7997 686.737 22.7197 686.377 22.7197C686.009 22.7197 685.685 22.7997 685.405 22.9597C685.133 23.1197 684.917 23.3437 684.757 23.6317C684.605 23.9117 684.529 24.2437 684.529 24.6277V24.8677C684.529 25.2517 684.617 25.5917 684.793 25.8877C684.969 26.1837 685.217 26.4117 685.537 26.5717C685.857 26.7317 686.225 26.8117 686.641 26.8117C687.001 26.8117 687.325 26.7557 687.613 26.6437C687.901 26.5317 688.157 26.3557 688.381 26.1157L689.185 27.0397C688.897 27.3757 688.533 27.6357 688.093 27.8197C687.661 27.9957 687.165 28.0837 686.605 28.0837Z" fill="#483332"/>
<path d="M693.938 28.0837C693.282 28.0837 692.698 27.9437 692.186 27.6637C691.674 27.3757 691.27 26.9837 690.974 26.4877C690.678 25.9917 690.53 25.4277 690.53 24.7957C690.53 24.1557 690.678 23.5917 690.974 23.1037C691.27 22.6077 691.674 22.2197 692.186 21.9397C692.698 21.6597 693.282 21.5197 693.938 21.5197C694.602 21.5197 695.19 21.6597 695.702 21.9397C696.222 22.2197 696.626 22.6037 696.914 23.0917C697.21 23.5797 697.358 24.1477 697.358 24.7957C697.358 25.4277 697.21 25.9917 696.914 26.4877C696.626 26.9837 696.222 27.3757 695.702 27.6637C695.19 27.9437 694.602 28.0837 693.938 28.0837ZM693.938 26.7997C694.306 26.7997 694.634 26.7197 694.922 26.5597C695.21 26.3997 695.434 26.1677 695.594 25.8637C695.762 25.5597 695.846 25.2037 695.846 24.7957C695.846 24.3797 695.762 24.0237 695.594 23.7277C695.434 23.4237 695.21 23.1917 694.922 23.0317C694.634 22.8717 694.31 22.7917 693.95 22.7917C693.582 22.7917 693.254 22.8717 692.966 23.0317C692.686 23.1917 692.462 23.4237 692.294 23.7277C692.126 24.0237 692.042 24.3797 692.042 24.7957C692.042 25.2037 692.126 25.5597 692.294 25.8637C692.462 26.1677 692.686 26.3997 692.966 26.5597C693.254 26.7197 693.578 26.7997 693.938 26.7997Z" fill="#483332"/>
<path d="M702.345 28.0837C701.825 28.0837 701.349 27.9637 700.917 27.7237C700.493 27.4837 700.153 27.1237 699.897 26.6437C699.649 26.1557 699.525 25.5397 699.525 24.7957C699.525 24.0437 699.645 23.4277 699.885 22.9477C700.133 22.4677 700.469 22.1117 700.893 21.8797C701.317 21.6397 701.801 21.5197 702.345 21.5197C702.977 21.5197 703.533 21.6557 704.013 21.9277C704.501 22.1997 704.885 22.5797 705.165 23.0677C705.453 23.5557 705.597 24.1317 705.597 24.7957C705.597 25.4597 705.453 26.0397 705.165 26.5357C704.885 27.0237 704.501 27.4037 704.013 27.6757C703.533 27.9477 702.977 28.0837 702.345 28.0837ZM698.793 30.3277V21.5917H700.221V23.1037L700.173 24.8077L700.293 26.5117V30.3277H698.793ZM702.177 26.7997C702.537 26.7997 702.857 26.7197 703.137 26.5597C703.425 26.3997 703.653 26.1677 703.821 25.8637C703.989 25.5597 704.073 25.2037 704.073 24.7957C704.073 24.3797 703.989 24.0237 703.821 23.7277C703.653 23.4237 703.425 23.1917 703.137 23.0317C702.857 22.8717 702.537 22.7917 702.177 22.7917C701.817 22.7917 701.493 22.8717 701.205 23.0317C700.917 23.1917 700.689 23.4237 700.521 23.7277C700.353 24.0237 700.269 24.3797 700.269 24.7957C700.269 25.2037 700.353 25.5597 700.521 25.8637C700.689 26.1677 700.917 26.3997 701.205 26.5597C701.493 26.7197 701.817 26.7997 702.177 26.7997Z" fill="#483332"/>
<path d="M707.019 27.9997V19.0957H708.519V27.9997H707.019Z" fill="#483332"/>
<path d="M713.5 28.0837C712.788 28.0837 712.164 27.9437 711.628 27.6637C711.1 27.3757 710.688 26.9837 710.392 26.4877C710.104 25.9917 709.96 25.4277 709.96 24.7957C709.96 24.1557 710.1 23.5917 710.38 23.1037C710.668 22.6077 711.06 22.2197 711.556 21.9397C712.06 21.6597 712.632 21.5197 713.272 21.5197C713.896 21.5197 714.452 21.6557 714.94 21.9277C715.428 22.1997 715.812 22.5837 716.092 23.0797C716.372 23.5757 716.512 24.1597 716.512 24.8317C716.512 24.8957 716.508 24.9677 716.5 25.0477C716.5 25.1277 716.496 25.2037 716.488 25.2757H711.148V24.2797H715.696L715.108 24.5917C715.116 24.2237 715.04 23.8997 714.88 23.6197C714.72 23.3397 714.5 23.1197 714.22 22.9597C713.948 22.7997 713.632 22.7197 713.272 22.7197C712.904 22.7197 712.58 22.7997 712.3 22.9597C712.028 23.1197 711.812 23.3437 711.652 23.6317C711.5 23.9117 711.424 24.2437 711.424 24.6277V24.8677C711.424 25.2517 711.512 25.5917 711.688 25.8877C711.864 26.1837 712.112 26.4117 712.432 26.5717C712.752 26.7317 713.12 26.8117 713.536 26.8117C713.896 26.8117 714.22 26.7557 714.508 26.6437C714.796 26.5317 715.052 26.3557 715.276 26.1157L716.08 27.0397C715.792 27.3757 715.428 27.6357 714.988 27.8197C714.556 27.9957 714.06 28.0837 713.5 28.0837Z" fill="#483332"/>
<path d="M786 35C786 49.9117 773.912 62 759 62C744.088 62 732 49.9117 732 35C732 20.0883 744.088 8 759 8C773.912 8 786 20.0883 786 35Z" fill="#483332"/>
<path fill-rule="evenodd" clip-rule="evenodd" d="M763.325 37.8992L768.705 43.2792C768.894 43.4685 769 43.7251 769 43.9926C769 44.2601 768.894 44.5166 768.705 44.7057C768.515 44.8948 768.259 45.001 767.991 45.0009C767.724 45.0008 767.467 44.8945 767.278 44.7052L761.898 39.3252C760.29 40.5709 758.267 41.1571 756.242 40.9646C754.217 40.7721 752.341 39.8153 750.996 38.2888C749.652 36.7624 748.939 34.781 749.003 32.7478C749.068 30.7145 749.904 28.7821 751.342 27.3436C752.781 25.9052 754.713 25.0687 756.747 25.0045C758.78 24.9402 760.761 25.653 762.288 26.9977C763.814 28.3425 764.771 30.2182 764.963 32.2434C765.156 34.2685 764.57 36.2909 763.324 37.8992H763.325ZM757 39.0002C758.591 39.0002 760.117 38.3681 761.243 37.2429C762.368 36.1177 763 34.5915 763 33.0002C763 31.4089 762.368 29.8828 761.243 28.7576C760.117 27.6324 758.591 27.0002 757 27.0002C755.409 27.0002 753.883 27.6324 752.757 28.7576C751.632 29.8828 751 31.4089 751 33.0002C751 34.5915 751.632 36.1177 752.757 37.2429C753.883 38.3681 755.409 39.0002 757 39.0002Z" fill="white"/>
<path fill-rule="evenodd" clip-rule="evenodd" d="M422 49L422 19L423 19L423 49L422 49Z" fill="#DDDDDD"/>
<path fill-rule="evenodd" clip-rule="evenodd" d="M589 49L589 19L590 19L590 49L589 49Z" fill="#DDDDDD"/>
<path fill-rule="evenodd" clip-rule="evenodd" d="M280 49L280 19L281 19L281 49L280 49Z" fill="#DDDDDD"/>
</svg>
