<svg width="52" height="52" viewBox="0 0 52 52" fill="none" xmlns="http://www.w3.org/2000/svg">
<path d="M52 26C52 40.3594 40.3594 52 26 52C11.6406 52 0 40.3594 0 26C0 11.6406 11.6406 0 26 0C40.3594 0 52 11.6406 52 26Z" fill="#9A9A9A"/>
<path d="M19.9642 37.8599L38.4391 27.514C38.7105 27.362 38.9366 27.1404 39.0939 26.872C39.2512 26.6036 39.3341 26.2981 39.3341 25.987C39.3341 25.6759 39.2512 25.3704 39.0939 25.102C38.9366 24.8336 38.7105 24.612 38.4391 24.46L19.9642 14.114C19.6534 13.9399 19.2968 13.8649 18.9421 13.8989C18.5875 13.9328 18.2516 14.0743 17.9795 14.3043C17.7074 14.5343 17.5119 14.8418 17.4193 15.1859C17.3266 15.5299 17.3412 15.894 17.4611 16.2296L20.9458 25.9869L17.4611 35.7445C17.3925 35.9355 17.3573 36.137 17.3571 36.34C17.3588 36.6447 17.4399 36.9436 17.5925 37.2074C17.745 37.4711 17.9636 37.6905 18.2269 37.844C18.4901 37.9974 18.7887 38.0796 19.0934 38.0824C19.398 38.0852 19.6982 38.0085 19.9641 37.8599L19.9642 37.8599ZM22.4917 26.862L28.875 26.862C29.1071 26.862 29.3296 26.7698 29.4937 26.6057C29.6578 26.4416 29.75 26.2191 29.75 25.987C29.75 25.755 29.6578 25.5324 29.4937 25.3683C29.3296 25.2042 29.1071 25.112 28.875 25.112L22.4917 25.112L19.11 15.6415L37.5842 25.987L19.1095 36.3321L22.4917 26.862Z" fill="white"/>
</svg>
