<svg width="52" height="53" viewBox="0 0 52 53" fill="none" xmlns="http://www.w3.org/2000/svg">
<path d="M52 26.9561C52 41.3155 40.3594 52.9561 26 52.9561C11.6406 52.9561 0 41.3155 0 26.9561C0 12.5967 11.6406 0.956055 26 0.956055C40.3594 0.956055 52 12.5967 52 26.9561Z" fill="#9A9A9A"/>
<path d="M19.9642 38.8159L38.4391 28.4701C38.7105 28.3181 38.9366 28.0964 39.0939 27.828C39.2512 27.5597 39.3341 27.2542 39.3341 26.9431C39.3341 26.632 39.2512 26.3265 39.0939 26.0581C38.9366 25.7897 38.7105 25.5681 38.4391 25.4161L19.9642 15.0701C19.6534 14.896 19.2968 14.8209 18.9421 14.8549C18.5875 14.8889 18.2516 15.0303 17.9795 15.2603C17.7074 15.4903 17.5119 15.7979 17.4193 16.1419C17.3266 16.486 17.3412 16.8501 17.4611 17.1856L20.9458 26.943L17.4611 36.7005C17.3925 36.8916 17.3573 37.0931 17.3571 37.2961C17.3588 37.6007 17.4399 37.8997 17.5925 38.1634C17.745 38.4272 17.9636 38.6466 18.2269 38.8C18.4901 38.9535 18.7887 39.0356 19.0934 39.0384C19.398 39.0412 19.6982 38.9645 19.9641 38.8159L19.9642 38.8159ZM22.4917 27.8181L28.875 27.8181C29.1071 27.8181 29.3296 27.7259 29.4937 27.5618C29.6578 27.3977 29.75 27.1751 29.75 26.9431C29.75 26.711 29.6578 26.4884 29.4937 26.3244C29.3296 26.1603 29.1071 26.0681 28.875 26.0681L22.4917 26.0681L19.11 16.5975L37.5842 26.9431L19.1095 37.2882L22.4917 27.8181Z" fill="white"/>
</svg>
