<svg width="52" height="52" viewBox="0 0 52 52" fill="none" xmlns="http://www.w3.org/2000/svg">
<circle cx="26" cy="26" r="26" fill="#9A9A9A"/>
<path d="M19.9641 37.8601L38.439 27.5142C38.7104 27.3622 38.9364 27.1406 39.0937 26.8722C39.2511 26.6038 39.334 26.2984 39.334 25.9873C39.334 25.6762 39.2511 25.3707 39.0937 25.1023C38.9364 24.8339 38.7104 24.6123 38.439 24.4603L19.9641 14.1143C19.6533 13.9402 19.2967 13.8651 18.942 13.8991C18.5873 13.9331 18.2515 14.0745 17.9794 14.3045C17.7072 14.5345 17.5118 14.8421 17.4192 15.1861C17.3265 15.5302 17.3411 15.8943 17.461 16.2298L20.9456 25.9872L17.461 35.7447C17.3924 35.9358 17.3572 36.1372 17.3569 36.3403C17.3587 36.6449 17.4398 36.9439 17.5923 37.2076C17.7449 37.4714 17.9635 37.6908 18.2267 37.8442C18.4899 37.9977 18.7886 38.0798 19.0933 38.0826C19.3979 38.0854 19.698 38.0087 19.964 37.8601L19.9641 37.8601ZM22.4916 26.8623L28.8749 26.8623C29.107 26.8623 29.3295 26.7701 29.4936 26.606C29.6577 26.4419 29.7499 26.2193 29.7499 25.9873C29.7499 25.7552 29.6577 25.5326 29.4936 25.3685C29.3295 25.2045 29.107 25.1123 28.8749 25.1123L22.4916 25.1123L19.1099 15.6417L37.5841 25.9873L19.1094 36.3324L22.4916 26.8623Z" fill="white"/>
</svg>
