<svg width="414" height="468" viewBox="0 0 414 468" fill="none" xmlns="http://www.w3.org/2000/svg">
<g filter="url(#filter0_d_17_2480)">
<path d="M16 26C16 20.4772 20.4772 16 26 16H388C393.523 16 398 20.4772 398 26V442C398 447.523 393.523 452 388 452H26C20.4771 452 16 447.523 16 442V26Z" fill="white"/>
</g>
<path d="M121.354 197.14C120.589 197.14 119.856 197.033 119.156 196.818C118.456 196.594 117.901 196.309 117.49 195.964L118.12 194.55C118.512 194.858 118.997 195.115 119.576 195.32C120.155 195.525 120.747 195.628 121.354 195.628C121.867 195.628 122.283 195.572 122.6 195.46C122.917 195.348 123.151 195.199 123.3 195.012C123.449 194.816 123.524 194.597 123.524 194.354C123.524 194.055 123.417 193.817 123.202 193.64C122.987 193.453 122.707 193.309 122.362 193.206C122.026 193.094 121.648 192.991 121.228 192.898C120.817 192.805 120.402 192.697 119.982 192.576C119.571 192.445 119.193 192.282 118.848 192.086C118.512 191.881 118.237 191.61 118.022 191.274C117.807 190.938 117.7 190.509 117.7 189.986C117.7 189.454 117.84 188.969 118.12 188.53C118.409 188.082 118.843 187.727 119.422 187.466C120.01 187.195 120.752 187.06 121.648 187.06C122.236 187.06 122.819 187.135 123.398 187.284C123.977 187.433 124.481 187.648 124.91 187.928L124.336 189.342C123.897 189.081 123.445 188.889 122.978 188.768C122.511 188.637 122.063 188.572 121.634 188.572C121.13 188.572 120.719 188.633 120.402 188.754C120.094 188.875 119.865 189.034 119.716 189.23C119.576 189.426 119.506 189.65 119.506 189.902C119.506 190.201 119.609 190.443 119.814 190.63C120.029 190.807 120.304 190.947 120.64 191.05C120.985 191.153 121.368 191.255 121.788 191.358C122.208 191.451 122.623 191.559 123.034 191.68C123.454 191.801 123.832 191.96 124.168 192.156C124.513 192.352 124.789 192.618 124.994 192.954C125.209 193.29 125.316 193.715 125.316 194.228C125.316 194.751 125.171 195.236 124.882 195.684C124.602 196.123 124.168 196.477 123.58 196.748C122.992 197.009 122.25 197.14 121.354 197.14Z" fill="white"/>
<path d="M130.467 197.098C129.636 197.098 128.908 196.935 128.283 196.608C127.667 196.272 127.186 195.815 126.841 195.236C126.505 194.657 126.337 193.999 126.337 193.262C126.337 192.515 126.5 191.857 126.827 191.288C127.163 190.709 127.62 190.257 128.199 189.93C128.787 189.603 129.454 189.44 130.201 189.44C130.929 189.44 131.577 189.599 132.147 189.916C132.716 190.233 133.164 190.681 133.491 191.26C133.817 191.839 133.981 192.52 133.981 193.304C133.981 193.379 133.976 193.463 133.967 193.556C133.967 193.649 133.962 193.738 133.953 193.822H127.723V192.66H133.029L132.343 193.024C132.352 192.595 132.263 192.217 132.077 191.89C131.89 191.563 131.633 191.307 131.307 191.12C130.989 190.933 130.621 190.84 130.201 190.84C129.771 190.84 129.393 190.933 129.067 191.12C128.749 191.307 128.497 191.568 128.311 191.904C128.133 192.231 128.045 192.618 128.045 193.066V193.346C128.045 193.794 128.147 194.191 128.353 194.536C128.558 194.881 128.847 195.147 129.221 195.334C129.594 195.521 130.023 195.614 130.509 195.614C130.929 195.614 131.307 195.549 131.643 195.418C131.979 195.287 132.277 195.082 132.539 194.802L133.477 195.88C133.141 196.272 132.716 196.575 132.203 196.79C131.699 196.995 131.12 197.098 130.467 197.098Z" fill="white"/>
<path d="M135.662 197V186.612H137.412V197H135.662Z" fill="white"/>
<path d="M143.223 197.098C142.392 197.098 141.664 196.935 141.039 196.608C140.423 196.272 139.942 195.815 139.597 195.236C139.261 194.657 139.093 193.999 139.093 193.262C139.093 192.515 139.256 191.857 139.583 191.288C139.919 190.709 140.376 190.257 140.955 189.93C141.543 189.603 142.21 189.44 142.957 189.44C143.685 189.44 144.333 189.599 144.903 189.916C145.472 190.233 145.92 190.681 146.247 191.26C146.573 191.839 146.737 192.52 146.737 193.304C146.737 193.379 146.732 193.463 146.723 193.556C146.723 193.649 146.718 193.738 146.709 193.822H140.479V192.66H145.785L145.099 193.024C145.108 192.595 145.019 192.217 144.833 191.89C144.646 191.563 144.389 191.307 144.063 191.12C143.745 190.933 143.377 190.84 142.957 190.84C142.527 190.84 142.149 190.933 141.823 191.12C141.505 191.307 141.253 191.568 141.067 191.904C140.889 192.231 140.801 192.618 140.801 193.066V193.346C140.801 193.794 140.903 194.191 141.109 194.536C141.314 194.881 141.603 195.147 141.977 195.334C142.35 195.521 142.779 195.614 143.265 195.614C143.685 195.614 144.063 195.549 144.399 195.418C144.735 195.287 145.033 195.082 145.295 194.802L146.233 195.88C145.897 196.272 145.472 196.575 144.959 196.79C144.455 196.995 143.876 197.098 143.223 197.098Z" fill="white"/>
<path d="M151.848 197.098C151.064 197.098 150.364 196.935 149.748 196.608C149.141 196.272 148.665 195.815 148.32 195.236C147.974 194.657 147.802 193.999 147.802 193.262C147.802 192.515 147.974 191.857 148.32 191.288C148.665 190.709 149.141 190.257 149.748 189.93C150.364 189.603 151.064 189.44 151.848 189.44C152.576 189.44 153.215 189.589 153.766 189.888C154.326 190.177 154.75 190.607 155.04 191.176L153.696 191.96C153.472 191.605 153.196 191.344 152.87 191.176C152.552 191.008 152.207 190.924 151.834 190.924C151.404 190.924 151.017 191.017 150.672 191.204C150.326 191.391 150.056 191.661 149.86 192.016C149.664 192.361 149.566 192.777 149.566 193.262C149.566 193.747 149.664 194.167 149.86 194.522C150.056 194.867 150.326 195.133 150.672 195.32C151.017 195.507 151.404 195.6 151.834 195.6C152.207 195.6 152.552 195.516 152.87 195.348C153.196 195.18 153.472 194.919 153.696 194.564L155.04 195.348C154.75 195.908 154.326 196.342 153.766 196.65C153.215 196.949 152.576 197.098 151.848 197.098Z" fill="white"/>
<path d="M159.462 197.098C158.641 197.098 158.006 196.888 157.558 196.468C157.11 196.039 156.886 195.409 156.886 194.578V187.872H158.636V194.536C158.636 194.891 158.725 195.166 158.902 195.362C159.089 195.558 159.345 195.656 159.672 195.656C160.064 195.656 160.391 195.553 160.652 195.348L161.142 196.594C160.937 196.762 160.685 196.888 160.386 196.972C160.087 197.056 159.779 197.098 159.462 197.098ZM155.654 190.98V189.58H160.638V190.98H155.654Z" fill="white"/>
<path d="M168.607 197V188.74H165.359V187.2H173.675V188.74H170.427V197H168.607Z" fill="white"/>
<path d="M174.873 197V189.524H176.623V197H174.873ZM175.755 188.292C175.428 188.292 175.157 188.189 174.943 187.984C174.737 187.779 174.635 187.531 174.635 187.242C174.635 186.943 174.737 186.696 174.943 186.5C175.157 186.295 175.428 186.192 175.755 186.192C176.081 186.192 176.347 186.29 176.553 186.486C176.767 186.673 176.875 186.911 176.875 187.2C176.875 187.508 176.772 187.769 176.567 187.984C176.361 188.189 176.091 188.292 175.755 188.292Z" fill="white"/>
<path d="M188.355 189.44C188.953 189.44 189.48 189.557 189.937 189.79C190.404 190.023 190.768 190.383 191.029 190.868C191.291 191.344 191.421 191.96 191.421 192.716V197H189.671V192.94C189.671 192.277 189.527 191.783 189.237 191.456C188.948 191.129 188.533 190.966 187.991 190.966C187.609 190.966 187.268 191.05 186.969 191.218C186.68 191.386 186.451 191.633 186.283 191.96C186.125 192.287 186.045 192.702 186.045 193.206V197H184.295V192.94C184.295 192.277 184.151 191.783 183.861 191.456C183.572 191.129 183.157 190.966 182.615 190.966C182.233 190.966 181.892 191.05 181.593 191.218C181.304 191.386 181.075 191.633 180.907 191.96C180.749 192.287 180.669 192.702 180.669 193.206V197H178.919V189.524H180.585V191.512L180.291 190.924C180.543 190.439 180.907 190.07 181.383 189.818C181.869 189.566 182.419 189.44 183.035 189.44C183.735 189.44 184.342 189.613 184.855 189.958C185.378 190.303 185.723 190.826 185.891 191.526L185.205 191.288C185.448 190.728 185.849 190.28 186.409 189.944C186.969 189.608 187.618 189.44 188.355 189.44Z" fill="white"/>
<path d="M197.185 197.098C196.355 197.098 195.627 196.935 195.001 196.608C194.385 196.272 193.905 195.815 193.559 195.236C193.223 194.657 193.055 193.999 193.055 193.262C193.055 192.515 193.219 191.857 193.545 191.288C193.881 190.709 194.339 190.257 194.917 189.93C195.505 189.603 196.173 189.44 196.919 189.44C197.647 189.44 198.296 189.599 198.865 189.916C199.435 190.233 199.883 190.681 200.209 191.26C200.536 191.839 200.699 192.52 200.699 193.304C200.699 193.379 200.695 193.463 200.685 193.556C200.685 193.649 200.681 193.738 200.671 193.822H194.441V192.66H199.747L199.061 193.024C199.071 192.595 198.982 192.217 198.795 191.89C198.609 191.563 198.352 191.307 198.025 191.12C197.708 190.933 197.339 190.84 196.919 190.84C196.49 190.84 196.112 190.933 195.785 191.12C195.468 191.307 195.216 191.568 195.029 191.904C194.852 192.231 194.763 192.618 194.763 193.066V193.346C194.763 193.794 194.866 194.191 195.071 194.536C195.277 194.881 195.566 195.147 195.939 195.334C196.313 195.521 196.742 195.614 197.227 195.614C197.647 195.614 198.025 195.549 198.361 195.418C198.697 195.287 198.996 195.082 199.257 194.802L200.195 195.88C199.859 196.272 199.435 196.575 198.921 196.79C198.417 196.995 197.839 197.098 197.185 197.098Z" fill="white"/>
<path d="M219 224.5C219 217.044 225.044 211 232.5 211H368.5C375.956 211 382 217.044 382 224.5C382 231.956 375.956 238 368.5 238H232.5C225.044 238 219 231.956 219 224.5Z" fill="#9A9A9A"/>
<path fill-rule="evenodd" clip-rule="evenodd" d="M369.04 228.152C369.596 228.616 370.404 228.616 370.96 228.152L376.96 223.152C377.597 222.622 377.683 221.676 377.152 221.04C376.622 220.403 375.676 220.317 375.04 220.848L370 225.047L364.96 220.848C364.324 220.317 363.378 220.403 362.848 221.04C362.317 221.676 362.403 222.622 363.04 223.152L369.04 228.152Z" fill="white"/>
<path d="M84.9121 68.0002V54.0002H90.1521C91.3388 54.0002 92.3588 54.1935 93.2121 54.5802C94.0654 54.9535 94.7188 55.5002 95.1721 56.2202C95.6388 56.9268 95.8721 57.7868 95.8721 58.8002C95.8721 59.7868 95.6388 60.6402 95.1721 61.3602C94.7188 62.0668 94.0654 62.6135 93.2121 63.0002C92.3588 63.3868 91.3388 63.5802 90.1521 63.5802H85.7321L86.3921 62.8802V68.0002H84.9121ZM86.3921 63.0002L85.7321 62.2802H90.1121C91.5121 62.2802 92.5721 61.9802 93.2921 61.3802C94.0254 60.7668 94.3921 59.9068 94.3921 58.8002C94.3921 57.6802 94.0254 56.8135 93.2921 56.2002C92.5721 55.5868 91.5121 55.2802 90.1121 55.2802H85.7321L86.3921 54.5802V63.0002Z" fill="#C92020"/>
<path d="M100.368 68.0002V57.5002H101.788V68.0002H100.368ZM101.088 55.1802C100.794 55.1802 100.548 55.0802 100.348 54.8802C100.148 54.6802 100.048 54.4402 100.048 54.1602C100.048 53.8802 100.148 53.6468 100.348 53.4602C100.548 53.2602 100.794 53.1602 101.088 53.1602C101.381 53.1602 101.628 53.2535 101.828 53.4402C102.028 53.6268 102.128 53.8602 102.128 54.1402C102.128 54.4335 102.028 54.6802 101.828 54.8802C101.641 55.0802 101.394 55.1802 101.088 55.1802Z" fill="#C92020"/>
<path d="M111.499 68.1002C110.459 68.1002 109.525 67.8735 108.699 67.4202C107.885 66.9535 107.245 66.3202 106.779 65.5202C106.312 64.7068 106.079 63.7802 106.079 62.7402C106.079 61.6868 106.312 60.7602 106.779 59.9602C107.245 59.1602 107.885 58.5335 108.699 58.0802C109.525 57.6268 110.459 57.4002 111.499 57.4002C112.392 57.4002 113.199 57.5735 113.919 57.9202C114.639 58.2668 115.205 58.7868 115.619 59.4802L114.559 60.2002C114.199 59.6668 113.752 59.2735 113.219 59.0202C112.685 58.7668 112.105 58.6402 111.479 58.6402C110.732 58.6402 110.059 58.8135 109.459 59.1602C108.859 59.4935 108.385 59.9668 108.039 60.5802C107.692 61.1935 107.519 61.9135 107.519 62.7402C107.519 63.5668 107.692 64.2868 108.039 64.9002C108.385 65.5135 108.859 65.9935 109.459 66.3402C110.059 66.6735 110.732 66.8402 111.479 66.8402C112.105 66.8402 112.685 66.7135 113.219 66.4602C113.752 66.2068 114.199 65.8202 114.559 65.3002L115.619 66.0202C115.205 66.7002 114.639 67.2202 113.919 67.5802C113.199 67.9268 112.392 68.1002 111.499 68.1002Z" fill="#C92020"/>
<path d="M120.772 65.2802L120.812 63.4602L127.352 57.5002H129.092L124.472 61.9202L123.672 62.6002L120.772 65.2802ZM119.652 68.0002V53.1602H121.072V68.0002H119.652ZM127.792 68.0002L123.412 62.5402L124.332 61.4402L129.532 68.0002H127.792Z" fill="#C92020"/>
<path d="M143.018 68.1002C142.031 68.1002 141.271 67.8335 140.738 67.3002C140.205 66.7668 139.938 66.0135 139.938 65.0402V55.1802H141.358V64.9602C141.358 65.5735 141.511 66.0468 141.818 66.3802C142.138 66.7135 142.591 66.8802 143.178 66.8802C143.805 66.8802 144.325 66.7002 144.738 66.3402L145.238 67.3602C144.958 67.6135 144.618 67.8002 144.218 67.9202C143.831 68.0402 143.431 68.1002 143.018 68.1002ZM138.058 58.6802V57.5002H144.558V58.6802H138.058Z" fill="#C92020"/>
<path d="M154.583 57.4002C155.436 57.4002 156.183 57.5668 156.823 57.9002C157.476 58.2202 157.983 58.7135 158.343 59.3802C158.716 60.0468 158.903 60.8868 158.903 61.9002V68.0002H157.483V62.0402C157.483 60.9335 157.203 60.1002 156.643 59.5402C156.096 58.9668 155.323 58.6802 154.323 58.6802C153.576 58.6802 152.923 58.8335 152.363 59.1402C151.816 59.4335 151.39 59.8668 151.083 60.4402C150.79 61.0002 150.643 61.6802 150.643 62.4802V68.0002H149.223V53.1602H150.643V60.3802L150.363 59.8402C150.696 59.0802 151.23 58.4868 151.963 58.0602C152.696 57.6202 153.57 57.4002 154.583 57.4002Z" fill="#C92020"/>
<path d="M168.599 68.1002C167.505 68.1002 166.545 67.8735 165.719 67.4202C164.892 66.9535 164.245 66.3202 163.779 65.5202C163.312 64.7068 163.079 63.7802 163.079 62.7402C163.079 61.7002 163.299 60.7802 163.739 59.9802C164.192 59.1802 164.805 58.5535 165.579 58.1002C166.365 57.6335 167.245 57.4002 168.219 57.4002C169.205 57.4002 170.079 57.6268 170.839 58.0802C171.612 58.5202 172.219 59.1468 172.659 59.9602C173.099 60.7602 173.319 61.6868 173.319 62.7402C173.319 62.8068 173.312 62.8802 173.299 62.9602C173.299 63.0268 173.299 63.1002 173.299 63.1802H164.159V62.1202H172.539L171.979 62.5402C171.979 61.7802 171.812 61.1068 171.479 60.5202C171.159 59.9202 170.719 59.4535 170.159 59.1202C169.599 58.7868 168.952 58.6202 168.219 58.6202C167.499 58.6202 166.852 58.7868 166.279 59.1202C165.705 59.4535 165.259 59.9202 164.939 60.5202C164.619 61.1202 164.459 61.8068 164.459 62.5802V62.8002C164.459 63.6002 164.632 64.3068 164.979 64.9202C165.339 65.5202 165.832 65.9935 166.459 66.3402C167.099 66.6735 167.825 66.8402 168.639 66.8402C169.279 66.8402 169.872 66.7268 170.419 66.5002C170.979 66.2735 171.459 65.9268 171.859 65.4602L172.659 66.3802C172.192 66.9402 171.605 67.3668 170.899 67.6602C170.205 67.9535 169.439 68.1002 168.599 68.1002Z" fill="#C92020"/>
<path d="M184.243 68.0002V57.5002H185.603V60.3602L185.463 59.8602C185.757 59.0602 186.25 58.4535 186.943 58.0402C187.637 57.6135 188.497 57.4002 189.523 57.4002V58.7802C189.47 58.7802 189.417 58.7802 189.363 58.7802C189.31 58.7668 189.257 58.7602 189.203 58.7602C188.097 58.7602 187.23 59.1002 186.603 59.7802C185.977 60.4468 185.663 61.4002 185.663 62.6402V68.0002H184.243Z" fill="#C92020"/>
<path d="M197.877 68.1002C196.783 68.1002 195.823 67.8735 194.997 67.4202C194.17 66.9535 193.523 66.3202 193.057 65.5202C192.59 64.7068 192.357 63.7802 192.357 62.7402C192.357 61.7002 192.577 60.7802 193.017 59.9802C193.47 59.1802 194.083 58.5535 194.857 58.1002C195.643 57.6335 196.523 57.4002 197.497 57.4002C198.483 57.4002 199.357 57.6268 200.117 58.0802C200.89 58.5202 201.497 59.1468 201.937 59.9602C202.377 60.7602 202.597 61.6868 202.597 62.7402C202.597 62.8068 202.59 62.8802 202.577 62.9602C202.577 63.0268 202.577 63.1002 202.577 63.1802H193.437V62.1202H201.817L201.257 62.5402C201.257 61.7802 201.09 61.1068 200.757 60.5202C200.437 59.9202 199.997 59.4535 199.437 59.1202C198.877 58.7868 198.23 58.6202 197.497 58.6202C196.777 58.6202 196.13 58.7868 195.557 59.1202C194.983 59.4535 194.537 59.9202 194.217 60.5202C193.897 61.1202 193.737 61.8068 193.737 62.5802V62.8002C193.737 63.6002 193.91 64.3068 194.257 64.9202C194.617 65.5202 195.11 65.9935 195.737 66.3402C196.377 66.6735 197.103 66.8402 197.917 66.8402C198.557 66.8402 199.15 66.7268 199.697 66.5002C200.257 66.2735 200.737 65.9268 201.137 65.4602L201.937 66.3802C201.47 66.9402 200.883 67.3668 200.177 67.6602C199.483 67.9535 198.717 68.1002 197.877 68.1002Z" fill="#C92020"/>
<path d="M209.707 68.1002C208.84 68.1002 208.02 67.9802 207.247 67.7402C206.474 67.4868 205.867 67.1735 205.427 66.8002L206.067 65.6802C206.494 66.0002 207.04 66.2802 207.707 66.5202C208.374 66.7468 209.074 66.8602 209.807 66.8602C210.807 66.8602 211.527 66.7068 211.967 66.4002C212.407 66.0802 212.627 65.6602 212.627 65.1402C212.627 64.7535 212.5 64.4535 212.247 64.2402C212.007 64.0135 211.687 63.8468 211.287 63.7402C210.887 63.6202 210.44 63.5202 209.947 63.4402C209.454 63.3602 208.96 63.2668 208.467 63.1602C207.987 63.0535 207.547 62.9002 207.147 62.7002C206.747 62.4868 206.42 62.2002 206.167 61.8402C205.927 61.4802 205.807 61.0002 205.807 60.4002C205.807 59.8268 205.967 59.3135 206.287 58.8602C206.607 58.4068 207.074 58.0535 207.687 57.8002C208.314 57.5335 209.074 57.4002 209.967 57.4002C210.647 57.4002 211.327 57.4935 212.007 57.6802C212.687 57.8535 213.247 58.0868 213.687 58.3802L213.067 59.5202C212.6 59.2002 212.1 58.9735 211.567 58.8402C211.034 58.6935 210.5 58.6202 209.967 58.6202C209.02 58.6202 208.32 58.7868 207.867 59.1202C207.427 59.4402 207.207 59.8535 207.207 60.3602C207.207 60.7602 207.327 61.0735 207.567 61.3002C207.82 61.5268 208.147 61.7068 208.547 61.8402C208.96 61.9602 209.407 62.0602 209.887 62.1402C210.38 62.2202 210.867 62.3202 211.347 62.4402C211.84 62.5468 212.287 62.7002 212.687 62.9002C213.1 63.0868 213.427 63.3602 213.667 63.7202C213.92 64.0668 214.047 64.5268 214.047 65.1002C214.047 65.7135 213.874 66.2468 213.527 66.7002C213.194 67.1402 212.7 67.4868 212.047 67.7402C211.407 67.9802 210.627 68.1002 209.707 68.1002Z" fill="#C92020"/>
<path d="M221.373 68.1002C220.386 68.1002 219.626 67.8335 219.093 67.3002C218.559 66.7668 218.293 66.0135 218.293 65.0402V55.1802H219.713V64.9602C219.713 65.5735 219.866 66.0468 220.173 66.3802C220.493 66.7135 220.946 66.8802 221.533 66.8802C222.159 66.8802 222.679 66.7002 223.093 66.3402L223.593 67.3602C223.313 67.6135 222.973 67.8002 222.573 67.9202C222.186 68.0402 221.786 68.1002 221.373 68.1002ZM216.413 58.6802V57.5002H222.913V58.6802H216.413Z" fill="#C92020"/>
<path d="M234.158 68.0002V65.6802L234.098 65.3002V61.4202C234.098 60.5268 233.844 59.8402 233.338 59.3602C232.844 58.8802 232.104 58.6402 231.118 58.6402C230.438 58.6402 229.791 58.7535 229.178 58.9802C228.564 59.2068 228.044 59.5068 227.618 59.8802L226.978 58.8202C227.511 58.3668 228.151 58.0202 228.898 57.7802C229.644 57.5268 230.431 57.4002 231.258 57.4002C232.618 57.4002 233.664 57.7402 234.398 58.4202C235.144 59.0868 235.518 60.1068 235.518 61.4802V68.0002H234.158ZM230.538 68.1002C229.751 68.1002 229.064 67.9735 228.478 67.7202C227.904 67.4535 227.464 67.0935 227.158 66.6402C226.851 66.1735 226.698 65.6402 226.698 65.0402C226.698 64.4935 226.824 64.0002 227.078 63.5602C227.344 63.1068 227.771 62.7468 228.358 62.4802C228.958 62.2002 229.758 62.0602 230.758 62.0602H234.378V63.1202H230.798C229.784 63.1202 229.078 63.3002 228.678 63.6602C228.291 64.0202 228.098 64.4668 228.098 65.0002C228.098 65.6002 228.331 66.0802 228.798 66.4402C229.264 66.8002 229.918 66.9802 230.758 66.9802C231.558 66.9802 232.244 66.8002 232.818 66.4402C233.404 66.0668 233.831 65.5335 234.098 64.8402L234.418 65.8202C234.151 66.5135 233.684 67.0668 233.018 67.4802C232.364 67.8935 231.538 68.1002 230.538 68.1002Z" fill="#C92020"/>
<path d="M245.115 68.1002C244.221 68.1002 243.441 67.9335 242.775 67.6002C242.108 67.2668 241.588 66.7668 241.215 66.1002C240.855 65.4335 240.675 64.6002 240.675 63.6002V57.5002H242.095V63.4402C242.095 64.5602 242.368 65.4068 242.915 65.9802C243.475 66.5402 244.255 66.8202 245.255 66.8202C245.988 66.8202 246.621 66.6735 247.155 66.3802C247.701 66.0735 248.115 65.6335 248.395 65.0602C248.688 64.4868 248.835 63.8002 248.835 63.0002V57.5002H250.255V68.0002H248.895V65.1202L249.115 65.6402C248.781 66.4135 248.261 67.0202 247.555 67.4602C246.861 67.8868 246.048 68.1002 245.115 68.1002Z" fill="#C92020"/>
<path d="M255.612 68.0002V57.5002H256.972V60.3602L256.832 59.8602C257.125 59.0602 257.619 58.4535 258.312 58.0402C259.005 57.6135 259.865 57.4002 260.892 57.4002V58.7802C260.839 58.7802 260.785 58.7802 260.732 58.7802C260.679 58.7668 260.625 58.7602 260.572 58.7602C259.465 58.7602 258.599 59.1002 257.972 59.7802C257.345 60.4468 257.032 61.4002 257.032 62.6402V68.0002H255.612Z" fill="#C92020"/>
<path d="M270.682 68.0002V65.6802L270.622 65.3002V61.4202C270.622 60.5268 270.369 59.8402 269.862 59.3602C269.369 58.8802 268.629 58.6402 267.642 58.6402C266.962 58.6402 266.315 58.7535 265.702 58.9802C265.089 59.2068 264.569 59.5068 264.142 59.8802L263.502 58.8202C264.035 58.3668 264.675 58.0202 265.422 57.7802C266.169 57.5268 266.955 57.4002 267.782 57.4002C269.142 57.4002 270.189 57.7402 270.922 58.4202C271.669 59.0868 272.042 60.1068 272.042 61.4802V68.0002H270.682ZM267.062 68.1002C266.275 68.1002 265.589 67.9735 265.002 67.7202C264.429 67.4535 263.989 67.0935 263.682 66.6402C263.375 66.1735 263.222 65.6402 263.222 65.0402C263.222 64.4935 263.349 64.0002 263.602 63.5602C263.869 63.1068 264.295 62.7468 264.882 62.4802C265.482 62.2002 266.282 62.0602 267.282 62.0602H270.902V63.1202H267.322C266.309 63.1202 265.602 63.3002 265.202 63.6602C264.815 64.0202 264.622 64.4668 264.622 65.0002C264.622 65.6002 264.855 66.0802 265.322 66.4402C265.789 66.8002 266.442 66.9802 267.282 66.9802C268.082 66.9802 268.769 66.8002 269.342 66.4402C269.929 66.0668 270.355 65.5335 270.622 64.8402L270.942 65.8202C270.675 66.5135 270.209 67.0668 269.542 67.4802C268.889 67.8935 268.062 68.1002 267.062 68.1002Z" fill="#C92020"/>
<path d="M282.659 57.4002C283.512 57.4002 284.259 57.5668 284.899 57.9002C285.552 58.2202 286.059 58.7135 286.419 59.3802C286.792 60.0468 286.979 60.8868 286.979 61.9002V68.0002H285.559V62.0402C285.559 60.9335 285.279 60.1002 284.719 59.5402C284.172 58.9668 283.399 58.6802 282.399 58.6802C281.652 58.6802 280.999 58.8335 280.439 59.1402C279.892 59.4335 279.465 59.8668 279.159 60.4402C278.865 61.0002 278.719 61.6802 278.719 62.4802V68.0002H277.299V57.5002H278.659V60.3802L278.439 59.8402C278.772 59.0802 279.305 58.4868 280.039 58.0602C280.772 57.6202 281.645 57.4002 282.659 57.4002Z" fill="#C92020"/>
<path d="M295.534 68.1002C294.548 68.1002 293.788 67.8335 293.254 67.3002C292.721 66.7668 292.454 66.0135 292.454 65.0402V55.1802H293.874V64.9602C293.874 65.5735 294.028 66.0468 294.334 66.3802C294.654 66.7135 295.108 66.8802 295.694 66.8802C296.321 66.8802 296.841 66.7002 297.254 66.3402L297.754 67.3602C297.474 67.6135 297.134 67.8002 296.734 67.9202C296.348 68.0402 295.948 68.1002 295.534 68.1002ZM290.574 58.6802V57.5002H297.074V58.6802H290.574Z" fill="#C92020"/>
<path d="M301.239 59.2802L301.139 54.0002H302.399L302.299 59.2802H301.239Z" fill="#C92020"/>
<path d="M310.002 68.1002C309.136 68.1002 308.316 67.9802 307.542 67.7402C306.769 67.4868 306.162 67.1735 305.722 66.8002L306.362 65.6802C306.789 66.0002 307.336 66.2802 308.002 66.5202C308.669 66.7468 309.369 66.8602 310.102 66.8602C311.102 66.8602 311.822 66.7068 312.262 66.4002C312.702 66.0802 312.922 65.6602 312.922 65.1402C312.922 64.7535 312.796 64.4535 312.542 64.2402C312.302 64.0135 311.982 63.8468 311.582 63.7402C311.182 63.6202 310.736 63.5202 310.242 63.4402C309.749 63.3602 309.256 63.2668 308.762 63.1602C308.282 63.0535 307.842 62.9002 307.442 62.7002C307.042 62.4868 306.716 62.2002 306.462 61.8402C306.222 61.4802 306.102 61.0002 306.102 60.4002C306.102 59.8268 306.262 59.3135 306.582 58.8602C306.902 58.4068 307.369 58.0535 307.982 57.8002C308.609 57.5335 309.369 57.4002 310.262 57.4002C310.942 57.4002 311.622 57.4935 312.302 57.6802C312.982 57.8535 313.542 58.0868 313.982 58.3802L313.362 59.5202C312.896 59.2002 312.396 58.9735 311.862 58.8402C311.329 58.6935 310.796 58.6202 310.262 58.6202C309.316 58.6202 308.616 58.7868 308.162 59.1202C307.722 59.4402 307.502 59.8535 307.502 60.3602C307.502 60.7602 307.622 61.0735 307.862 61.3002C308.116 61.5268 308.442 61.7068 308.842 61.8402C309.256 61.9602 309.702 62.0602 310.182 62.1402C310.676 62.2202 311.162 62.3202 311.642 62.4402C312.136 62.5468 312.582 62.7002 312.982 62.9002C313.396 63.0868 313.722 63.3602 313.962 63.7202C314.216 64.0668 314.342 64.5268 314.342 65.1002C314.342 65.7135 314.169 66.2468 313.822 66.7002C313.489 67.1402 312.996 67.4868 312.342 67.7402C311.702 67.9802 310.922 68.1002 310.002 68.1002Z" fill="#C92020"/>
<path d="M68.2969 92.0002V81.5002H69.6569V84.3602L69.5169 83.8602C69.8102 83.0602 70.3035 82.4535 70.9969 82.0402C71.6902 81.6135 72.5502 81.4002 73.5769 81.4002V82.7802C73.5235 82.7802 73.4702 82.7802 73.4169 82.7802C73.3635 82.7668 73.3102 82.7602 73.2569 82.7602C72.1502 82.7602 71.2835 83.1002 70.6569 83.7802C70.0302 84.4468 69.7169 85.4002 69.7169 86.6402V92.0002H68.2969Z" fill="#C92020"/>
<path d="M81.9303 92.1002C80.837 92.1002 79.877 91.8735 79.0503 91.4202C78.2236 90.9535 77.577 90.3202 77.1103 89.5202C76.6436 88.7068 76.4103 87.7802 76.4103 86.7402C76.4103 85.7002 76.6303 84.7802 77.0703 83.9802C77.5236 83.1802 78.137 82.5535 78.9103 82.1002C79.697 81.6335 80.577 81.4002 81.5503 81.4002C82.537 81.4002 83.4103 81.6268 84.1703 82.0802C84.9436 82.5202 85.5503 83.1468 85.9903 83.9602C86.4303 84.7602 86.6503 85.6868 86.6503 86.7402C86.6503 86.8068 86.6436 86.8802 86.6303 86.9602C86.6303 87.0268 86.6303 87.1002 86.6303 87.1802H77.4903V86.1202H85.8703L85.3103 86.5402C85.3103 85.7802 85.1436 85.1068 84.8103 84.5202C84.4903 83.9202 84.0503 83.4535 83.4903 83.1202C82.9303 82.7868 82.2836 82.6202 81.5503 82.6202C80.8303 82.6202 80.1836 82.7868 79.6103 83.1202C79.037 83.4535 78.5903 83.9202 78.2703 84.5202C77.9503 85.1202 77.7903 85.8068 77.7903 86.5802V86.8002C77.7903 87.6002 77.9636 88.3068 78.3103 88.9202C78.6703 89.5202 79.1636 89.9935 79.7903 90.3402C80.4303 90.6735 81.157 90.8402 81.9703 90.8402C82.6103 90.8402 83.2036 90.7268 83.7503 90.5002C84.3103 90.2735 84.7903 89.9268 85.1903 89.4602L85.9903 90.3802C85.5236 90.9402 84.937 91.3668 84.2303 91.6602C83.537 91.9535 82.7703 92.1002 81.9303 92.1002Z" fill="#C92020"/>
<path d="M93.7606 92.1002C92.894 92.1002 92.074 91.9802 91.3006 91.7402C90.5273 91.4868 89.9206 91.1735 89.4806 90.8002L90.1206 89.6802C90.5473 90.0002 91.094 90.2802 91.7606 90.5202C92.4273 90.7468 93.1273 90.8602 93.8606 90.8602C94.8606 90.8602 95.5806 90.7068 96.0206 90.4002C96.4606 90.0802 96.6806 89.6602 96.6806 89.1402C96.6806 88.7535 96.554 88.4535 96.3006 88.2402C96.0606 88.0135 95.7406 87.8468 95.3406 87.7402C94.9406 87.6202 94.494 87.5202 94.0006 87.4402C93.5073 87.3602 93.014 87.2668 92.5206 87.1602C92.0406 87.0535 91.6006 86.9002 91.2006 86.7002C90.8006 86.4868 90.474 86.2002 90.2206 85.8402C89.9806 85.4802 89.8606 85.0002 89.8606 84.4002C89.8606 83.8268 90.0206 83.3135 90.3406 82.8602C90.6606 82.4068 91.1273 82.0535 91.7406 81.8002C92.3673 81.5335 93.1273 81.4002 94.0206 81.4002C94.7006 81.4002 95.3806 81.4935 96.0606 81.6802C96.7406 81.8535 97.3006 82.0868 97.7406 82.3802L97.1206 83.5202C96.654 83.2002 96.154 82.9735 95.6206 82.8402C95.0873 82.6935 94.554 82.6202 94.0206 82.6202C93.074 82.6202 92.374 82.7868 91.9206 83.1202C91.4806 83.4402 91.2606 83.8535 91.2606 84.3602C91.2606 84.7602 91.3806 85.0735 91.6206 85.3002C91.874 85.5268 92.2006 85.7068 92.6006 85.8402C93.014 85.9602 93.4606 86.0602 93.9406 86.1402C94.434 86.2202 94.9206 86.3202 95.4006 86.4402C95.894 86.5468 96.3406 86.7002 96.7406 86.9002C97.154 87.0868 97.4806 87.3602 97.7206 87.7202C97.974 88.0668 98.1006 88.5268 98.1006 89.1002C98.1006 89.7135 97.9273 90.2468 97.5806 90.7002C97.2473 91.1402 96.754 91.4868 96.1006 91.7402C95.4606 91.9802 94.6806 92.1002 93.7606 92.1002Z" fill="#C92020"/>
<path d="M106.566 92.1002C105.473 92.1002 104.513 91.8735 103.686 91.4202C102.86 90.9535 102.213 90.3202 101.746 89.5202C101.28 88.7068 101.046 87.7802 101.046 86.7402C101.046 85.7002 101.266 84.7802 101.706 83.9802C102.16 83.1802 102.773 82.5535 103.546 82.1002C104.333 81.6335 105.213 81.4002 106.186 81.4002C107.173 81.4002 108.046 81.6268 108.806 82.0802C109.58 82.5202 110.186 83.1468 110.626 83.9602C111.066 84.7602 111.286 85.6868 111.286 86.7402C111.286 86.8068 111.28 86.8802 111.266 86.9602C111.266 87.0268 111.266 87.1002 111.266 87.1802H102.126V86.1202H110.506L109.946 86.5402C109.946 85.7802 109.78 85.1068 109.446 84.5202C109.126 83.9202 108.686 83.4535 108.126 83.1202C107.566 82.7868 106.92 82.6202 106.186 82.6202C105.466 82.6202 104.82 82.7868 104.246 83.1202C103.673 83.4535 103.226 83.9202 102.906 84.5202C102.586 85.1202 102.426 85.8068 102.426 86.5802V86.8002C102.426 87.6002 102.6 88.3068 102.946 88.9202C103.306 89.5202 103.8 89.9935 104.426 90.3402C105.066 90.6735 105.793 90.8402 106.606 90.8402C107.246 90.8402 107.84 90.7268 108.386 90.5002C108.946 90.2735 109.426 89.9268 109.826 89.4602L110.626 90.3802C110.16 90.9402 109.573 91.3668 108.866 91.6602C108.173 91.9535 107.406 92.1002 106.566 92.1002Z" fill="#C92020"/>
<path d="M115.577 92.0002V81.5002H116.937V84.3602L116.797 83.8602C117.09 83.0602 117.583 82.4535 118.277 82.0402C118.97 81.6135 119.83 81.4002 120.857 81.4002V82.7802C120.803 82.7802 120.75 82.7802 120.697 82.7802C120.643 82.7668 120.59 82.7602 120.537 82.7602C119.43 82.7602 118.563 83.1002 117.937 83.7802C117.31 84.4468 116.997 85.4002 116.997 86.6402V92.0002H115.577Z" fill="#C92020"/>
<path d="M127.997 92.0002L123.337 81.5002H124.817L129.097 91.2402H128.397L132.737 81.5002H134.137L129.457 92.0002H127.997Z" fill="#C92020"/>
<path d="M143.804 92.0002V89.6802L143.744 89.3002V85.4202C143.744 84.5268 143.491 83.8402 142.984 83.3602C142.491 82.8802 141.751 82.6402 140.764 82.6402C140.084 82.6402 139.438 82.7535 138.824 82.9802C138.211 83.2068 137.691 83.5068 137.264 83.8802L136.624 82.8202C137.158 82.3668 137.798 82.0202 138.544 81.7802C139.291 81.5268 140.078 81.4002 140.904 81.4002C142.264 81.4002 143.311 81.7402 144.044 82.4202C144.791 83.0868 145.164 84.1068 145.164 85.4802V92.0002H143.804ZM140.184 92.1002C139.398 92.1002 138.711 91.9735 138.124 91.7202C137.551 91.4535 137.111 91.0935 136.804 90.6402C136.498 90.1735 136.344 89.6402 136.344 89.0402C136.344 88.4935 136.471 88.0002 136.724 87.5602C136.991 87.1068 137.418 86.7468 138.004 86.4802C138.604 86.2002 139.404 86.0602 140.404 86.0602H144.024V87.1202H140.444C139.431 87.1202 138.724 87.3002 138.324 87.6602C137.938 88.0202 137.744 88.4668 137.744 89.0002C137.744 89.6002 137.978 90.0802 138.444 90.4402C138.911 90.8002 139.564 90.9802 140.404 90.9802C141.204 90.9802 141.891 90.8002 142.464 90.4402C143.051 90.0668 143.478 89.5335 143.744 88.8402L144.064 89.8202C143.798 90.5135 143.331 91.0668 142.664 91.4802C142.011 91.8935 141.184 92.1002 140.184 92.1002Z" fill="#C92020"/>
<path d="M153.741 92.1002C152.754 92.1002 151.994 91.8335 151.461 91.3002C150.928 90.7668 150.661 90.0135 150.661 89.0402V79.1802H152.081V88.9602C152.081 89.5735 152.234 90.0468 152.541 90.3802C152.861 90.7135 153.314 90.8802 153.901 90.8802C154.528 90.8802 155.048 90.7002 155.461 90.3402L155.961 91.3602C155.681 91.6135 155.341 91.8002 154.941 91.9202C154.554 92.0402 154.154 92.1002 153.741 92.1002ZM148.781 82.6802V81.5002H155.281V82.6802H148.781Z" fill="#C92020"/>
<path d="M159.946 92.0002V81.5002H161.366V92.0002H159.946ZM160.666 79.1802C160.373 79.1802 160.126 79.0802 159.926 78.8802C159.726 78.6802 159.626 78.4402 159.626 78.1602C159.626 77.8802 159.726 77.6468 159.926 77.4602C160.126 77.2602 160.373 77.1602 160.666 77.1602C160.959 77.1602 161.206 77.2535 161.406 77.4402C161.606 77.6268 161.706 77.8602 161.706 78.1402C161.706 78.4335 161.606 78.6802 161.406 78.8802C161.219 79.0802 160.973 79.1802 160.666 79.1802Z" fill="#C92020"/>
<path d="M170.997 92.1002C169.984 92.1002 169.071 91.8735 168.257 91.4202C167.457 90.9535 166.824 90.3202 166.357 89.5202C165.891 88.7068 165.657 87.7802 165.657 86.7402C165.657 85.6868 165.891 84.7602 166.357 83.9602C166.824 83.1602 167.457 82.5335 168.257 82.0802C169.057 81.6268 169.971 81.4002 170.997 81.4002C172.037 81.4002 172.957 81.6268 173.757 82.0802C174.571 82.5335 175.204 83.1602 175.657 83.9602C176.124 84.7602 176.357 85.6868 176.357 86.7402C176.357 87.7802 176.124 88.7068 175.657 89.5202C175.204 90.3202 174.571 90.9535 173.757 91.4202C172.944 91.8735 172.024 92.1002 170.997 92.1002ZM170.997 90.8402C171.757 90.8402 172.431 90.6735 173.017 90.3402C173.604 89.9935 174.064 89.5135 174.397 88.9002C174.744 88.2735 174.917 87.5535 174.917 86.7402C174.917 85.9135 174.744 85.1935 174.397 84.5802C174.064 83.9668 173.604 83.4935 173.017 83.1602C172.431 82.8135 171.764 82.6402 171.017 82.6402C170.271 82.6402 169.604 82.8135 169.017 83.1602C168.431 83.4935 167.964 83.9668 167.617 84.5802C167.271 85.1935 167.097 85.9135 167.097 86.7402C167.097 87.5535 167.271 88.2735 167.617 88.9002C167.964 89.5135 168.431 89.9935 169.017 90.3402C169.604 90.6735 170.264 90.8402 170.997 90.8402Z" fill="#C92020"/>
<path d="M186.016 81.4002C186.87 81.4002 187.616 81.5668 188.256 81.9002C188.91 82.2202 189.416 82.7135 189.776 83.3802C190.15 84.0468 190.336 84.8868 190.336 85.9002V92.0002H188.916V86.0402C188.916 84.9335 188.636 84.1002 188.076 83.5402C187.53 82.9668 186.756 82.6802 185.756 82.6802C185.01 82.6802 184.356 82.8335 183.796 83.1402C183.25 83.4335 182.823 83.8668 182.516 84.4402C182.223 85.0002 182.076 85.6802 182.076 86.4802V92.0002H180.656V81.5002H182.016V84.3802L181.796 83.8402C182.13 83.0802 182.663 82.4868 183.396 82.0602C184.13 81.6202 185.003 81.4002 186.016 81.4002Z" fill="#C92020"/>
<path d="M202.206 92.0002V81.5002H203.626V92.0002H202.206ZM202.926 79.1802C202.633 79.1802 202.386 79.0802 202.186 78.8802C201.986 78.6802 201.886 78.4402 201.886 78.1602C201.886 77.8802 201.986 77.6468 202.186 77.4602C202.386 77.2602 202.633 77.1602 202.926 77.1602C203.22 77.1602 203.466 77.2535 203.666 77.4402C203.866 77.6268 203.966 77.8602 203.966 78.1402C203.966 78.4335 203.866 78.6802 203.666 78.8802C203.48 79.0802 203.233 79.1802 202.926 79.1802Z" fill="#C92020"/>
<path d="M214.337 81.4002C215.191 81.4002 215.937 81.5668 216.577 81.9002C217.231 82.2202 217.737 82.7135 218.097 83.3802C218.471 84.0468 218.657 84.8868 218.657 85.9002V92.0002H217.237V86.0402C217.237 84.9335 216.957 84.1002 216.397 83.5402C215.851 82.9668 215.077 82.6802 214.077 82.6802C213.331 82.6802 212.677 82.8335 212.117 83.1402C211.571 83.4335 211.144 83.8668 210.837 84.4402C210.544 85.0002 210.397 85.6802 210.397 86.4802V92.0002H208.977V81.5002H210.337V84.3802L210.117 83.8402C210.451 83.0802 210.984 82.4868 211.717 82.0602C212.451 81.6202 213.324 81.4002 214.337 81.4002Z" fill="#C92020"/>
<path d="M224.133 92.0002V80.1802C224.133 79.2468 224.406 78.4935 224.953 77.9202C225.5 77.3468 226.286 77.0602 227.313 77.0602C227.713 77.0602 228.1 77.1135 228.473 77.2202C228.846 77.3268 229.16 77.4935 229.413 77.7202L228.933 78.7802C228.733 78.6068 228.5 78.4802 228.233 78.4002C227.966 78.3068 227.68 78.2602 227.373 78.2602C226.773 78.2602 226.313 78.4268 225.993 78.7602C225.673 79.0935 225.513 79.5868 225.513 80.2402V81.8402L225.553 82.5002V92.0002H224.133ZM222.253 82.6802V81.5002H228.753V82.6802H222.253Z" fill="#C92020"/>
<path d="M236.175 92.1002C235.161 92.1002 234.248 91.8735 233.435 91.4202C232.635 90.9535 232.001 90.3202 231.535 89.5202C231.068 88.7068 230.835 87.7802 230.835 86.7402C230.835 85.6868 231.068 84.7602 231.535 83.9602C232.001 83.1602 232.635 82.5335 233.435 82.0802C234.235 81.6268 235.148 81.4002 236.175 81.4002C237.215 81.4002 238.135 81.6268 238.935 82.0802C239.748 82.5335 240.381 83.1602 240.835 83.9602C241.301 84.7602 241.535 85.6868 241.535 86.7402C241.535 87.7802 241.301 88.7068 240.835 89.5202C240.381 90.3202 239.748 90.9535 238.935 91.4202C238.121 91.8735 237.201 92.1002 236.175 92.1002ZM236.175 90.8402C236.935 90.8402 237.608 90.6735 238.195 90.3402C238.781 89.9935 239.241 89.5135 239.575 88.9002C239.921 88.2735 240.095 87.5535 240.095 86.7402C240.095 85.9135 239.921 85.1935 239.575 84.5802C239.241 83.9668 238.781 83.4935 238.195 83.1602C237.608 82.8135 236.941 82.6402 236.195 82.6402C235.448 82.6402 234.781 82.8135 234.195 83.1602C233.608 83.4935 233.141 83.9668 232.795 84.5802C232.448 85.1935 232.275 85.9135 232.275 86.7402C232.275 87.5535 232.448 88.2735 232.795 88.9002C233.141 89.5135 233.608 89.9935 234.195 90.3402C234.781 90.6735 235.441 90.8402 236.175 90.8402Z" fill="#C92020"/>
<path d="M245.834 92.0002V81.5002H247.194V84.3602L247.054 83.8602C247.347 83.0602 247.84 82.4535 248.534 82.0402C249.227 81.6135 250.087 81.4002 251.114 81.4002V82.7802C251.06 82.7802 251.007 82.7802 250.954 82.7802C250.9 82.7668 250.847 82.7602 250.794 82.7602C249.687 82.7602 248.82 83.1002 248.194 83.7802C247.567 84.4468 247.254 85.4002 247.254 86.6402V92.0002H245.834Z" fill="#C92020"/>
<path d="M268.225 81.4002C269.078 81.4002 269.818 81.5668 270.445 81.9002C271.085 82.2202 271.578 82.7135 271.925 83.3802C272.285 84.0468 272.465 84.8868 272.465 85.9002V92.0002H271.045V86.0402C271.045 84.9335 270.778 84.1002 270.245 83.5402C269.725 82.9668 268.985 82.6802 268.025 82.6802C267.305 82.6802 266.678 82.8335 266.145 83.1402C265.625 83.4335 265.218 83.8668 264.925 84.4402C264.645 85.0002 264.505 85.6802 264.505 86.4802V92.0002H263.085V86.0402C263.085 84.9335 262.818 84.1002 262.285 83.5402C261.751 82.9668 261.005 82.6802 260.045 82.6802C259.338 82.6802 258.718 82.8335 258.185 83.1402C257.651 83.4335 257.238 83.8668 256.945 84.4402C256.665 85.0002 256.525 85.6802 256.525 86.4802V92.0002H255.105V81.5002H256.465V84.3402L256.245 83.8402C256.565 83.0802 257.078 82.4868 257.785 82.0602C258.505 81.6202 259.351 81.4002 260.325 81.4002C261.351 81.4002 262.225 81.6602 262.945 82.1802C263.665 82.6868 264.131 83.4535 264.345 84.4802L263.785 84.2602C264.091 83.4068 264.631 82.7202 265.405 82.2002C266.191 81.6668 267.131 81.4002 268.225 81.4002Z" fill="#C92020"/>
<path d="M284.296 92.0002V89.6802L284.236 89.3002V85.4202C284.236 84.5268 283.982 83.8402 283.476 83.3602C282.982 82.8802 282.242 82.6402 281.256 82.6402C280.576 82.6402 279.929 82.7535 279.316 82.9802C278.702 83.2068 278.182 83.5068 277.756 83.8802L277.116 82.8202C277.649 82.3668 278.289 82.0202 279.036 81.7802C279.782 81.5268 280.569 81.4002 281.396 81.4002C282.756 81.4002 283.802 81.7402 284.536 82.4202C285.282 83.0868 285.656 84.1068 285.656 85.4802V92.0002H284.296ZM280.676 92.1002C279.889 92.1002 279.202 91.9735 278.616 91.7202C278.042 91.4535 277.602 91.0935 277.296 90.6402C276.989 90.1735 276.836 89.6402 276.836 89.0402C276.836 88.4935 276.962 88.0002 277.216 87.5602C277.482 87.1068 277.909 86.7468 278.496 86.4802C279.096 86.2002 279.896 86.0602 280.896 86.0602H284.516V87.1202H280.936C279.922 87.1202 279.216 87.3002 278.816 87.6602C278.429 88.0202 278.236 88.4668 278.236 89.0002C278.236 89.6002 278.469 90.0802 278.936 90.4402C279.402 90.8002 280.056 90.9802 280.896 90.9802C281.696 90.9802 282.382 90.8002 282.956 90.4402C283.542 90.0668 283.969 89.5335 284.236 88.8402L284.556 89.8202C284.289 90.5135 283.822 91.0668 283.156 91.4802C282.502 91.8935 281.676 92.1002 280.676 92.1002Z" fill="#C92020"/>
<path d="M294.233 92.1002C293.246 92.1002 292.486 91.8335 291.953 91.3002C291.419 90.7668 291.153 90.0135 291.153 89.0402V79.1802H292.573V88.9602C292.573 89.5735 292.726 90.0468 293.033 90.3802C293.353 90.7135 293.806 90.8802 294.393 90.8802C295.019 90.8802 295.539 90.7002 295.953 90.3402L296.453 91.3602C296.173 91.6135 295.833 91.8002 295.433 91.9202C295.046 92.0402 294.646 92.1002 294.233 92.1002ZM289.273 82.6802V81.5002H295.773V82.6802H289.273Z" fill="#C92020"/>
<path d="M300.438 92.0002V81.5002H301.857V92.0002H300.438ZM301.158 79.1802C300.864 79.1802 300.618 79.0802 300.418 78.8802C300.218 78.6802 300.118 78.4402 300.118 78.1602C300.118 77.8802 300.218 77.6468 300.418 77.4602C300.618 77.2602 300.864 77.1602 301.158 77.1602C301.451 77.1602 301.698 77.2535 301.898 77.4402C302.098 77.6268 302.198 77.8602 302.198 78.1402C302.198 78.4335 302.098 78.6802 301.898 78.8802C301.711 79.0802 301.464 79.1802 301.158 79.1802Z" fill="#C92020"/>
<path d="M311.489 92.1002C310.475 92.1002 309.562 91.8735 308.749 91.4202C307.949 90.9535 307.315 90.3202 306.849 89.5202C306.382 88.7068 306.149 87.7802 306.149 86.7402C306.149 85.6868 306.382 84.7602 306.849 83.9602C307.315 83.1602 307.949 82.5335 308.749 82.0802C309.549 81.6268 310.462 81.4002 311.489 81.4002C312.529 81.4002 313.449 81.6268 314.249 82.0802C315.062 82.5335 315.695 83.1602 316.149 83.9602C316.615 84.7602 316.849 85.6868 316.849 86.7402C316.849 87.7802 316.615 88.7068 316.149 89.5202C315.695 90.3202 315.062 90.9535 314.249 91.4202C313.435 91.8735 312.515 92.1002 311.489 92.1002ZM311.489 90.8402C312.249 90.8402 312.922 90.6735 313.509 90.3402C314.095 89.9935 314.555 89.5135 314.889 88.9002C315.235 88.2735 315.409 87.5535 315.409 86.7402C315.409 85.9135 315.235 85.1935 314.889 84.5802C314.555 83.9668 314.095 83.4935 313.509 83.1602C312.922 82.8135 312.255 82.6402 311.509 82.6402C310.762 82.6402 310.095 82.8135 309.509 83.1602C308.922 83.4935 308.455 83.9668 308.109 84.5802C307.762 85.1935 307.589 85.9135 307.589 86.7402C307.589 87.5535 307.762 88.2735 308.109 88.9002C308.455 89.5135 308.922 89.9935 309.509 90.3402C310.095 90.6735 310.755 90.8402 311.489 90.8402Z" fill="#C92020"/>
<path d="M326.508 81.4002C327.361 81.4002 328.108 81.5668 328.748 81.9002C329.401 82.2202 329.908 82.7135 330.268 83.3802C330.641 84.0468 330.828 84.8868 330.828 85.9002V92.0002H329.408V86.0402C329.408 84.9335 329.128 84.1002 328.568 83.5402C328.021 82.9668 327.248 82.6802 326.248 82.6802C325.501 82.6802 324.848 82.8335 324.288 83.1402C323.741 83.4335 323.314 83.8668 323.008 84.4402C322.714 85.0002 322.568 85.6802 322.568 86.4802V92.0002H321.148V81.5002H322.508V84.3802L322.288 83.8402C322.621 83.0802 323.154 82.4868 323.888 82.0602C324.621 81.6202 325.494 81.4002 326.508 81.4002Z" fill="#C92020"/>
<path d="M62.904 197V187.192H59.064V185.8H68.328V187.192H64.488V197H62.904Z" fill="#9A9A9A"/>
<path d="M69.8466 197V188.52H71.3826V197H69.8466ZM70.6146 186.888C70.3159 186.888 70.0653 186.792 69.8626 186.6C69.6706 186.408 69.5746 186.174 69.5746 185.896C69.5746 185.608 69.6706 185.368 69.8626 185.176C70.0653 184.984 70.3159 184.888 70.6146 184.888C70.9133 184.888 71.1586 184.984 71.3506 185.176C71.5533 185.358 71.6546 185.587 71.6546 185.864C71.6546 186.152 71.5586 186.398 71.3666 186.6C71.1746 186.792 70.9239 186.888 70.6146 186.888Z" fill="#9A9A9A"/>
<path d="M84.9233 188.44C85.606 188.44 86.2087 188.574 86.7313 188.84C87.254 189.107 87.6593 189.512 87.9473 190.056C88.246 190.6 88.3953 191.288 88.3953 192.12V197H86.8593V192.296C86.8593 191.475 86.6673 190.856 86.2833 190.44C85.8993 190.024 85.3607 189.816 84.6673 189.816C84.1553 189.816 83.7073 189.923 83.3233 190.136C82.9393 190.35 82.6407 190.664 82.4273 191.08C82.2247 191.496 82.1233 192.014 82.1233 192.632V197H80.5873V192.296C80.5873 191.475 80.3953 190.856 80.0113 190.44C79.638 190.024 79.0993 189.816 78.3953 189.816C77.894 189.816 77.4513 189.923 77.0673 190.136C76.6833 190.35 76.3847 190.664 76.1713 191.08C75.958 191.496 75.8513 192.014 75.8513 192.632V197H74.3153V188.52H75.7873V190.776L75.5473 190.2C75.814 189.646 76.2247 189.214 76.7793 188.904C77.334 188.595 77.9793 188.44 78.7153 188.44C79.526 188.44 80.2247 188.643 80.8113 189.048C81.398 189.443 81.782 190.046 81.9633 190.856L81.3393 190.6C81.5953 189.95 82.0433 189.427 82.6833 189.032C83.3233 188.638 84.07 188.44 84.9233 188.44Z" fill="#9A9A9A"/>
<path d="M94.9976 197.096C94.0909 197.096 93.2909 196.91 92.5976 196.536C91.9149 196.163 91.3816 195.651 90.9976 195C90.6243 194.35 90.4376 193.603 90.4376 192.76C90.4376 191.918 90.6189 191.171 90.9816 190.52C91.3549 189.87 91.8616 189.363 92.5016 189C93.1523 188.627 93.8829 188.44 94.6936 188.44C95.5149 188.44 96.2403 188.622 96.8696 188.984C97.4989 189.347 97.9896 189.859 98.3416 190.52C98.7043 191.171 98.8856 191.934 98.8856 192.808C98.8856 192.872 98.8803 192.947 98.8696 193.032C98.8696 193.118 98.8643 193.198 98.8536 193.272H91.6376V192.168H98.0536L97.4296 192.552C97.4403 192.008 97.3283 191.523 97.0936 191.096C96.8589 190.67 96.5336 190.339 96.1176 190.104C95.7123 189.859 95.2376 189.736 94.6936 189.736C94.1603 189.736 93.6856 189.859 93.2696 190.104C92.8536 190.339 92.5283 190.675 92.2936 191.112C92.0589 191.539 91.9416 192.03 91.9416 192.584V192.84C91.9416 193.406 92.0696 193.912 92.3256 194.36C92.5923 194.798 92.9603 195.139 93.4296 195.384C93.8989 195.63 94.4376 195.752 95.0456 195.752C95.5469 195.752 96.0003 195.667 96.4056 195.496C96.8216 195.326 97.1843 195.07 97.4936 194.728L98.3416 195.72C97.9576 196.168 97.4776 196.51 96.9016 196.744C96.3363 196.979 95.7016 197.096 94.9976 197.096Z" fill="#9A9A9A"/>
<path d="M101.386 190.632C101.088 190.632 100.832 190.531 100.618 190.328C100.405 190.115 100.298 189.848 100.298 189.528C100.298 189.208 100.405 188.947 100.618 188.744C100.832 188.542 101.088 188.44 101.386 188.44C101.674 188.44 101.92 188.542 102.122 188.744C102.336 188.947 102.442 189.208 102.442 189.528C102.442 189.848 102.336 190.115 102.122 190.328C101.92 190.531 101.674 190.632 101.386 190.632ZM101.386 197.096C101.088 197.096 100.832 196.995 100.618 196.792C100.405 196.579 100.298 196.312 100.298 195.992C100.298 195.672 100.405 195.411 100.618 195.208C100.832 195.006 101.088 194.904 101.386 194.904C101.674 194.904 101.92 195.006 102.122 195.208C102.336 195.411 102.442 195.672 102.442 195.992C102.442 196.312 102.336 196.579 102.122 196.792C101.92 196.995 101.674 197.096 101.386 197.096Z" fill="#9A9A9A"/>
<path d="M46 303C46 286.431 59.4315 273 76 273H340C356.569 273 370 286.431 370 303C370 319.569 356.569 333 340 333H76C59.4315 333 46 319.569 46 303Z" fill="#C92020"/>
<path d="M120.075 310V292.5H127.65C129.217 292.5 130.567 292.758 131.7 293.275C132.833 293.775 133.708 294.5 134.325 295.45C134.942 296.4 135.25 297.533 135.25 298.85C135.25 300.15 134.942 301.275 134.325 302.225C133.708 303.158 132.833 303.875 131.7 304.375C130.567 304.875 129.217 305.125 127.65 305.125H122.325L124.125 303.35V310H120.075ZM131.2 310L126.825 303.65H131.15L135.575 310H131.2ZM124.125 303.8L122.325 301.9H127.425C128.675 301.9 129.608 301.633 130.225 301.1C130.842 300.55 131.15 299.8 131.15 298.85C131.15 297.883 130.842 297.133 130.225 296.6C129.608 296.067 128.675 295.8 127.425 295.8H122.325L124.125 293.875V303.8Z" fill="white"/>
<path d="M144.859 310.2C143.325 310.2 141.975 309.9 140.809 309.3C139.659 308.7 138.767 307.883 138.134 306.85C137.5 305.8 137.184 304.608 137.184 303.275C137.184 301.925 137.492 300.733 138.109 299.7C138.742 298.65 139.6 297.833 140.684 297.25C141.767 296.65 142.992 296.35 144.359 296.35C145.675 296.35 146.859 296.633 147.909 297.2C148.975 297.75 149.817 298.55 150.434 299.6C151.05 300.633 151.359 301.875 151.359 303.325C151.359 303.475 151.35 303.65 151.334 303.85C151.317 304.033 151.3 304.208 151.284 304.375H140.359V302.1H149.234L147.734 302.775C147.734 302.075 147.592 301.467 147.309 300.95C147.025 300.433 146.634 300.033 146.134 299.75C145.634 299.45 145.05 299.3 144.384 299.3C143.717 299.3 143.125 299.45 142.609 299.75C142.109 300.033 141.717 300.442 141.434 300.975C141.15 301.492 141.009 302.108 141.009 302.825V303.425C141.009 304.158 141.167 304.808 141.484 305.375C141.817 305.925 142.275 306.35 142.859 306.65C143.459 306.933 144.159 307.075 144.959 307.075C145.675 307.075 146.3 306.967 146.834 306.75C147.384 306.533 147.884 306.208 148.334 305.775L150.409 308.025C149.792 308.725 149.017 309.267 148.084 309.65C147.15 310.017 146.075 310.2 144.859 310.2Z" fill="white"/>
<path d="M158.48 310.2C157.33 310.2 156.222 310.067 155.155 309.8C154.105 309.517 153.272 309.167 152.655 308.75L153.955 305.95C154.572 306.333 155.297 306.65 156.13 306.9C156.98 307.133 157.814 307.25 158.63 307.25C159.53 307.25 160.164 307.142 160.53 306.925C160.914 306.708 161.105 306.408 161.105 306.025C161.105 305.708 160.955 305.475 160.655 305.325C160.372 305.158 159.989 305.033 159.505 304.95C159.022 304.867 158.489 304.783 157.905 304.7C157.339 304.617 156.764 304.508 156.18 304.375C155.597 304.225 155.064 304.008 154.58 303.725C154.097 303.442 153.705 303.058 153.405 302.575C153.122 302.092 152.98 301.467 152.98 300.7C152.98 299.85 153.222 299.1 153.705 298.45C154.205 297.8 154.922 297.292 155.855 296.925C156.789 296.542 157.905 296.35 159.205 296.35C160.122 296.35 161.055 296.45 162.005 296.65C162.955 296.85 163.747 297.142 164.38 297.525L163.08 300.3C162.43 299.917 161.772 299.658 161.105 299.525C160.455 299.375 159.822 299.3 159.205 299.3C158.339 299.3 157.705 299.417 157.305 299.65C156.905 299.883 156.705 300.183 156.705 300.55C156.705 300.883 156.847 301.133 157.13 301.3C157.43 301.467 157.822 301.6 158.305 301.7C158.789 301.8 159.314 301.892 159.88 301.975C160.464 302.042 161.047 302.15 161.63 302.3C162.214 302.45 162.739 302.667 163.205 302.95C163.689 303.217 164.08 303.592 164.38 304.075C164.68 304.542 164.83 305.158 164.83 305.925C164.83 306.758 164.58 307.5 164.08 308.15C163.58 308.783 162.855 309.283 161.905 309.65C160.972 310.017 159.83 310.2 158.48 310.2Z" fill="white"/>
<path d="M173.911 310.2C172.378 310.2 171.028 309.9 169.861 309.3C168.711 308.7 167.82 307.883 167.186 306.85C166.553 305.8 166.236 304.608 166.236 303.275C166.236 301.925 166.545 300.733 167.161 299.7C167.795 298.65 168.653 297.833 169.736 297.25C170.82 296.65 172.045 296.35 173.411 296.35C174.728 296.35 175.911 296.633 176.961 297.2C178.028 297.75 178.87 298.55 179.486 299.6C180.103 300.633 180.411 301.875 180.411 303.325C180.411 303.475 180.403 303.65 180.386 303.85C180.37 304.033 180.353 304.208 180.336 304.375H169.411V302.1H178.286L176.786 302.775C176.786 302.075 176.645 301.467 176.361 300.95C176.078 300.433 175.686 300.033 175.186 299.75C174.686 299.45 174.103 299.3 173.436 299.3C172.77 299.3 172.178 299.45 171.661 299.75C171.161 300.033 170.77 300.442 170.486 300.975C170.203 301.492 170.061 302.108 170.061 302.825V303.425C170.061 304.158 170.22 304.808 170.536 305.375C170.87 305.925 171.328 306.35 171.911 306.65C172.511 306.933 173.211 307.075 174.011 307.075C174.728 307.075 175.353 306.967 175.886 306.75C176.436 306.533 176.936 306.208 177.386 305.775L179.461 308.025C178.845 308.725 178.07 309.267 177.136 309.65C176.203 310.017 175.128 310.2 173.911 310.2Z" fill="white"/>
<path d="M183.008 310V296.55H186.733V300.35L186.208 299.25C186.608 298.3 187.25 297.583 188.133 297.1C189.016 296.6 190.091 296.35 191.358 296.35V299.95C191.191 299.933 191.041 299.925 190.908 299.925C190.775 299.908 190.633 299.9 190.483 299.9C189.416 299.9 188.55 300.208 187.883 300.825C187.233 301.425 186.908 302.367 186.908 303.65V310H183.008Z" fill="white"/>
<path d="M197.791 310L192.141 296.55H196.166L200.866 308.125H198.866L203.741 296.55H207.491L201.816 310H197.791Z" fill="white"/>
<path d="M215.391 310.2C213.858 310.2 212.508 309.9 211.341 309.3C210.191 308.7 209.299 307.883 208.666 306.85C208.033 305.8 207.716 304.608 207.716 303.275C207.716 301.925 208.024 300.733 208.641 299.7C209.274 298.65 210.133 297.833 211.216 297.25C212.299 296.65 213.524 296.35 214.891 296.35C216.208 296.35 217.391 296.633 218.441 297.2C219.508 297.75 220.349 298.55 220.966 299.6C221.583 300.633 221.891 301.875 221.891 303.325C221.891 303.475 221.883 303.65 221.866 303.85C221.849 304.033 221.833 304.208 221.816 304.375H210.891V302.1H219.766L218.266 302.775C218.266 302.075 218.124 301.467 217.841 300.95C217.558 300.433 217.166 300.033 216.666 299.75C216.166 299.45 215.583 299.3 214.916 299.3C214.249 299.3 213.658 299.45 213.141 299.75C212.641 300.033 212.249 300.442 211.966 300.975C211.683 301.492 211.541 302.108 211.541 302.825V303.425C211.541 304.158 211.699 304.808 212.016 305.375C212.349 305.925 212.808 306.35 213.391 306.65C213.991 306.933 214.691 307.075 215.491 307.075C216.208 307.075 216.833 306.967 217.366 306.75C217.916 306.533 218.416 306.208 218.866 305.775L220.941 308.025C220.324 308.725 219.549 309.267 218.616 309.65C217.683 310.017 216.608 310.2 215.391 310.2Z" fill="white"/>
<path d="M231.843 310V292.5H235.193L245.518 305.1H243.893V292.5H247.893V310H244.568L234.218 297.4H235.843V310H231.843Z" fill="white"/>
<path d="M258.158 310.2C256.725 310.2 255.45 309.9 254.333 309.3C253.233 308.7 252.358 307.883 251.708 306.85C251.075 305.8 250.758 304.608 250.758 303.275C250.758 301.925 251.075 300.733 251.708 299.7C252.358 298.65 253.233 297.833 254.333 297.25C255.45 296.65 256.725 296.35 258.158 296.35C259.575 296.35 260.841 296.65 261.958 297.25C263.075 297.833 263.95 298.642 264.583 299.675C265.216 300.708 265.533 301.908 265.533 303.275C265.533 304.608 265.216 305.8 264.583 306.85C263.95 307.883 263.075 308.7 261.958 309.3C260.841 309.9 259.575 310.2 258.158 310.2ZM258.158 307C258.808 307 259.391 306.85 259.908 306.55C260.425 306.25 260.833 305.825 261.133 305.275C261.433 304.708 261.583 304.042 261.583 303.275C261.583 302.492 261.433 301.825 261.133 301.275C260.833 300.725 260.425 300.3 259.908 300C259.391 299.7 258.808 299.55 258.158 299.55C257.508 299.55 256.925 299.7 256.408 300C255.891 300.3 255.475 300.725 255.158 301.275C254.858 301.825 254.708 302.492 254.708 303.275C254.708 304.042 254.858 304.708 255.158 305.275C255.475 305.825 255.891 306.25 256.408 306.55C256.925 306.85 257.508 307 258.158 307Z" fill="white"/>
<path d="M270.849 310L265.999 296.55H269.674L273.699 308.125H271.949L276.149 296.55H279.449L283.524 308.125H281.774L285.924 296.55H289.374L284.499 310H280.724L277.149 300.075H278.299L274.599 310H270.849Z" fill="white"/>
<path d="M61.6799 164V152.8H66.3999C67.5946 152.8 68.6453 153.034 69.5519 153.504C70.4693 153.973 71.1786 154.629 71.6799 155.472C72.1919 156.314 72.4479 157.29 72.4479 158.4C72.4479 159.509 72.1919 160.485 71.6799 161.328C71.1786 162.17 70.4693 162.826 69.5519 163.296C68.6453 163.765 67.5946 164 66.3999 164H61.6799ZM63.2799 162.608H66.3039C67.2319 162.608 68.0319 162.432 68.7039 162.08C69.3866 161.728 69.9146 161.237 70.2879 160.608C70.6613 159.968 70.8479 159.232 70.8479 158.4C70.8479 157.557 70.6613 156.821 70.2879 156.192C69.9146 155.562 69.3866 155.072 68.7039 154.72C68.0319 154.368 67.2319 154.192 66.3039 154.192H63.2799V162.608Z" fill="#C92020"/>
<path d="M79.9387 164V162.208L79.8587 161.872V158.816C79.8587 158.165 79.6667 157.664 79.2827 157.312C78.9093 156.949 78.344 156.768 77.5867 156.768C77.0853 156.768 76.5947 156.853 76.1147 157.024C75.6347 157.184 75.2293 157.402 74.8987 157.68L74.2587 156.528C74.696 156.176 75.2187 155.909 75.8267 155.728C76.4453 155.536 77.0907 155.44 77.7627 155.44C78.9253 155.44 79.8213 155.722 80.4507 156.288C81.08 156.853 81.3947 157.717 81.3947 158.88V164H79.9387ZM77.1547 164.096C76.5253 164.096 75.9707 163.989 75.4907 163.776C75.0213 163.562 74.6587 163.269 74.4027 162.896C74.1467 162.512 74.0187 162.08 74.0187 161.6C74.0187 161.141 74.1253 160.725 74.3387 160.352C74.5627 159.978 74.92 159.68 75.4107 159.456C75.912 159.232 76.584 159.12 77.4267 159.12H80.1147V160.224H77.4907C76.7227 160.224 76.2053 160.352 75.9387 160.608C75.672 160.864 75.5387 161.173 75.5387 161.536C75.5387 161.952 75.704 162.288 76.0347 162.544C76.3653 162.789 76.824 162.912 77.4107 162.912C77.9867 162.912 78.488 162.784 78.9147 162.528C79.352 162.272 79.6667 161.898 79.8587 161.408L80.1627 162.464C79.96 162.965 79.6027 163.365 79.0907 163.664C78.5787 163.952 77.9333 164.096 77.1547 164.096Z" fill="#C92020"/>
<path d="M87.1492 164.096C86.2958 164.096 85.6345 163.866 85.1652 163.408C84.6958 162.949 84.4612 162.293 84.4612 161.44V153.664H85.9972V161.376C85.9972 161.834 86.1092 162.186 86.3332 162.432C86.5678 162.677 86.8985 162.8 87.3252 162.8C87.8052 162.8 88.2052 162.666 88.5252 162.4L89.0052 163.504C88.7705 163.706 88.4878 163.856 88.1572 163.952C87.8372 164.048 87.5012 164.096 87.1492 164.096ZM83.0212 156.784V155.52H88.4292V156.784H83.0212Z" fill="#C92020"/>
<path d="M94.3569 164.096C93.4503 164.096 92.6503 163.909 91.9569 163.536C91.2743 163.163 90.7409 162.65 90.3569 162C89.9836 161.349 89.7969 160.602 89.7969 159.76C89.7969 158.917 89.9783 158.17 90.3409 157.52C90.7143 156.869 91.2209 156.362 91.8609 156C92.5116 155.626 93.2423 155.44 94.0529 155.44C94.8743 155.44 95.5996 155.621 96.2289 155.984C96.8583 156.346 97.3489 156.858 97.7009 157.52C98.0636 158.17 98.2449 158.933 98.2449 159.808C98.2449 159.872 98.2396 159.946 98.2289 160.032C98.2289 160.117 98.2236 160.197 98.2129 160.272H90.9969V159.168H97.4129L96.7889 159.552C96.7996 159.008 96.6876 158.522 96.4529 158.096C96.2183 157.669 95.8929 157.339 95.4769 157.104C95.0716 156.859 94.5969 156.736 94.0529 156.736C93.5196 156.736 93.0449 156.859 92.6289 157.104C92.2129 157.339 91.8876 157.674 91.6529 158.112C91.4183 158.538 91.3009 159.029 91.3009 159.584V159.84C91.3009 160.405 91.4289 160.912 91.6849 161.36C91.9516 161.797 92.3196 162.138 92.7889 162.384C93.2583 162.629 93.7969 162.752 94.4049 162.752C94.9063 162.752 95.3596 162.667 95.7649 162.496C96.1809 162.325 96.5436 162.069 96.8529 161.728L97.7009 162.72C97.3169 163.168 96.8369 163.509 96.2609 163.744C95.6956 163.979 95.0609 164.096 94.3569 164.096Z" fill="#C92020"/>
<path d="M100.746 157.632C100.447 157.632 100.191 157.53 99.9778 157.328C99.7645 157.114 99.6578 156.848 99.6578 156.528C99.6578 156.208 99.7645 155.946 99.9778 155.744C100.191 155.541 100.447 155.44 100.746 155.44C101.034 155.44 101.279 155.541 101.482 155.744C101.695 155.946 101.802 156.208 101.802 156.528C101.802 156.848 101.695 157.114 101.482 157.328C101.279 157.53 101.034 157.632 100.746 157.632ZM100.746 164.096C100.447 164.096 100.191 163.994 99.9778 163.792C99.7645 163.578 99.6578 163.312 99.6578 162.992C99.6578 162.672 99.7645 162.41 99.9778 162.208C100.191 162.005 100.447 161.904 100.746 161.904C101.034 161.904 101.279 162.005 101.482 162.208C101.695 162.41 101.802 162.672 101.802 162.992C101.802 163.312 101.695 163.578 101.482 163.792C101.279 163.994 101.034 164.096 100.746 164.096Z" fill="#C92020"/>
<path d="M108.524 164V152.8H109.836L114.86 161.264H114.156L119.116 152.8H120.428L120.444 164H118.908L118.892 155.216H119.26L114.844 162.64H114.108L109.66 155.216H110.06V164H108.524Z" fill="#C92020"/>
<path d="M123.805 164V152.8H125.117L130.141 161.264H129.437L134.397 152.8H135.709L135.725 164H134.189L134.173 155.216H134.541L130.125 162.64H129.389L124.941 155.216H125.341V164H123.805Z" fill="#C92020"/>
<path d="M136.958 165.6L142.238 150.528H143.63L138.35 165.6H136.958Z" fill="#C92020"/>
<path d="M144.711 164V152.8H149.431C150.626 152.8 151.677 153.034 152.583 153.504C153.501 153.973 154.21 154.629 154.711 155.472C155.223 156.314 155.479 157.29 155.479 158.4C155.479 159.509 155.223 160.485 154.711 161.328C154.21 162.17 153.501 162.826 152.583 163.296C151.677 163.765 150.626 164 149.431 164H144.711ZM146.311 162.608H149.335C150.263 162.608 151.063 162.432 151.735 162.08C152.418 161.728 152.946 161.237 153.319 160.608C153.693 159.968 153.879 159.232 153.879 158.4C153.879 157.557 153.693 156.821 153.319 156.192C152.946 155.562 152.418 155.072 151.735 154.72C151.063 154.368 150.263 154.192 149.335 154.192H146.311V162.608Z" fill="#C92020"/>
<path d="M157.93 164V152.8H162.65C163.845 152.8 164.895 153.034 165.802 153.504C166.719 153.973 167.429 154.629 167.93 155.472C168.442 156.314 168.698 157.29 168.698 158.4C168.698 159.509 168.442 160.485 167.93 161.328C167.429 162.17 166.719 162.826 165.802 163.296C164.895 163.765 163.845 164 162.65 164H157.93ZM159.53 162.608H162.554C163.482 162.608 164.282 162.432 164.954 162.08C165.637 161.728 166.165 161.237 166.538 160.608C166.911 159.968 167.098 159.232 167.098 158.4C167.098 157.557 166.911 156.821 166.538 156.192C166.165 155.562 165.637 155.072 164.954 154.72C164.282 154.368 163.482 154.192 162.554 154.192H159.53V162.608Z" fill="#C92020"/>
<path d="M168.708 165.6L173.988 150.528H175.38L170.1 165.6H168.708Z" fill="#C92020"/>
<path d="M179.65 164V159.712L180.018 160.704L175.202 152.8H176.914L180.962 159.472H180.034L184.098 152.8H185.682L180.882 160.704L181.234 159.712V164H179.65Z" fill="#C92020"/>
<path d="M190.009 164V159.712L190.377 160.704L185.561 152.8H187.273L191.321 159.472H190.393L194.457 152.8H196.041L191.241 160.704L191.593 159.712V164H190.009Z" fill="#C92020"/>
<path d="M200.368 164V159.712L200.736 160.704L195.92 152.8H197.632L201.68 159.472H200.752L204.816 152.8H206.4L201.6 160.704L201.952 159.712V164H200.368Z" fill="#C92020"/>
<path d="M210.728 164V159.712L211.096 160.704L206.28 152.8H207.992L212.04 159.472H211.112L215.176 152.8H216.76L211.96 160.704L212.312 159.712V164H210.728Z" fill="#C92020"/>
<path d="M61.6799 230V218.8H62.9919L70.3999 228H69.7119V218.8H71.3119V230H69.9999L62.5919 220.8H63.2799V230H61.6799Z" fill="#C92020"/>
<path d="M78.0083 230.096C77.283 230.096 76.643 229.963 76.0883 229.696C75.5443 229.43 75.1176 229.024 74.8083 228.48C74.5096 227.926 74.3603 227.232 74.3603 226.4V221.52H75.8963V226.224C75.8963 227.056 76.0936 227.68 76.4883 228.096C76.8936 228.512 77.459 228.72 78.1843 228.72C78.7176 228.72 79.1816 228.614 79.5763 228.4C79.971 228.176 80.275 227.856 80.4883 227.44C80.7016 227.014 80.8083 226.502 80.8083 225.904V221.52H82.3443V230H80.8883V227.712L81.1283 228.32C80.851 228.886 80.435 229.323 79.8803 229.632C79.3256 229.942 78.7016 230.096 78.0083 230.096Z" fill="#C92020"/>
<path d="M95.8764 221.44C96.5591 221.44 97.1618 221.574 97.6844 221.84C98.2071 222.107 98.6124 222.512 98.9004 223.056C99.1991 223.6 99.3484 224.288 99.3484 225.12V230H97.8124V225.296C97.8124 224.475 97.6204 223.856 97.2364 223.44C96.8524 223.024 96.3138 222.816 95.6204 222.816C95.1084 222.816 94.6604 222.923 94.2764 223.136C93.8924 223.35 93.5938 223.664 93.3804 224.08C93.1778 224.496 93.0764 225.014 93.0764 225.632V230H91.5404V225.296C91.5404 224.475 91.3484 223.856 90.9644 223.44C90.5911 223.024 90.0524 222.816 89.3484 222.816C88.8471 222.816 88.4044 222.923 88.0204 223.136C87.6364 223.35 87.3378 223.664 87.1244 224.08C86.9111 224.496 86.8044 225.014 86.8044 225.632V230H85.2684V221.52H86.7404V223.776L86.5004 223.2C86.7671 222.646 87.1778 222.214 87.7324 221.904C88.2871 221.595 88.9324 221.44 89.6684 221.44C90.4791 221.44 91.1778 221.643 91.7644 222.048C92.3511 222.443 92.7351 223.046 92.9164 223.856L92.2924 223.6C92.5484 222.95 92.9964 222.427 93.6364 222.032C94.2764 221.638 95.0231 221.44 95.8764 221.44Z" fill="#C92020"/>
<path d="M106.671 230.096C105.945 230.096 105.289 229.936 104.703 229.616C104.127 229.286 103.668 228.8 103.327 228.16C102.996 227.52 102.831 226.72 102.831 225.76C102.831 224.8 103.001 224 103.343 223.36C103.695 222.72 104.159 222.24 104.735 221.92C105.321 221.6 105.967 221.44 106.671 221.44C107.503 221.44 108.239 221.622 108.879 221.984C109.519 222.347 110.025 222.854 110.399 223.504C110.772 224.144 110.959 224.896 110.959 225.76C110.959 226.624 110.772 227.382 110.399 228.032C110.025 228.683 109.519 229.19 108.879 229.552C108.239 229.915 107.503 230.096 106.671 230.096ZM102.175 230V218.128H103.711V223.776L103.551 225.744L103.647 227.712V230H102.175ZM106.543 228.752C107.087 228.752 107.572 228.63 107.999 228.384C108.436 228.139 108.777 227.792 109.023 227.344C109.279 226.886 109.407 226.358 109.407 225.76C109.407 225.152 109.279 224.63 109.023 224.192C108.777 223.744 108.436 223.398 107.999 223.152C107.572 222.907 107.087 222.784 106.543 222.784C106.009 222.784 105.524 222.907 105.087 223.152C104.66 223.398 104.319 223.744 104.063 224.192C103.817 224.63 103.695 225.152 103.695 225.76C103.695 226.358 103.817 226.886 104.063 227.344C104.319 227.792 104.66 228.139 105.087 228.384C105.524 228.63 106.009 228.752 106.543 228.752Z" fill="#C92020"/>
<path d="M116.857 230.096C115.95 230.096 115.15 229.91 114.457 229.536C113.774 229.163 113.241 228.651 112.857 228C112.484 227.35 112.297 226.603 112.297 225.76C112.297 224.918 112.478 224.171 112.841 223.52C113.214 222.87 113.721 222.363 114.361 222C115.012 221.627 115.742 221.44 116.553 221.44C117.374 221.44 118.1 221.622 118.729 221.984C119.358 222.347 119.849 222.859 120.201 223.52C120.564 224.171 120.745 224.934 120.745 225.808C120.745 225.872 120.74 225.947 120.729 226.032C120.729 226.118 120.724 226.198 120.713 226.272H113.497V225.168H119.913L119.289 225.552C119.3 225.008 119.188 224.523 118.953 224.096C118.718 223.67 118.393 223.339 117.977 223.104C117.572 222.859 117.097 222.736 116.553 222.736C116.02 222.736 115.545 222.859 115.129 223.104C114.713 223.339 114.388 223.675 114.153 224.112C113.918 224.539 113.801 225.03 113.801 225.584V225.84C113.801 226.406 113.929 226.912 114.185 227.36C114.452 227.798 114.82 228.139 115.289 228.384C115.758 228.63 116.297 228.752 116.905 228.752C117.406 228.752 117.86 228.667 118.265 228.496C118.681 228.326 119.044 228.07 119.353 227.728L120.201 228.72C119.817 229.168 119.337 229.51 118.761 229.744C118.196 229.979 117.561 230.096 116.857 230.096Z" fill="#C92020"/>
<path d="M122.878 230V221.52H124.35V223.824L124.206 223.248C124.44 222.662 124.835 222.214 125.39 221.904C125.944 221.595 126.627 221.44 127.438 221.44V222.928C127.374 222.918 127.31 222.912 127.246 222.912C127.192 222.912 127.139 222.912 127.086 222.912C126.264 222.912 125.614 223.158 125.134 223.648C124.654 224.139 124.414 224.848 124.414 225.776V230H122.878Z" fill="#C92020"/>
<path d="M137.369 230.096C136.516 230.096 135.759 229.91 135.097 229.536C134.436 229.163 133.913 228.651 133.529 228C133.145 227.339 132.953 226.592 132.953 225.76C132.953 224.918 133.145 224.171 133.529 223.52C133.913 222.87 134.436 222.363 135.097 222C135.759 221.627 136.516 221.44 137.369 221.44C138.212 221.44 138.964 221.627 139.625 222C140.297 222.363 140.82 222.87 141.193 223.52C141.577 224.16 141.769 224.907 141.769 225.76C141.769 226.603 141.577 227.35 141.193 228C140.82 228.651 140.297 229.163 139.625 229.536C138.964 229.91 138.212 230.096 137.369 230.096ZM137.369 228.752C137.913 228.752 138.399 228.63 138.825 228.384C139.263 228.139 139.604 227.792 139.849 227.344C140.095 226.886 140.217 226.358 140.217 225.76C140.217 225.152 140.095 224.63 139.849 224.192C139.604 223.744 139.263 223.398 138.825 223.152C138.399 222.907 137.913 222.784 137.369 222.784C136.825 222.784 136.34 222.907 135.913 223.152C135.487 223.398 135.145 223.744 134.889 224.192C134.633 224.63 134.505 225.152 134.505 225.76C134.505 226.358 134.633 226.886 134.889 227.344C135.145 227.792 135.487 228.139 135.913 228.384C136.34 228.63 136.825 228.752 137.369 228.752Z" fill="#C92020"/>
<path d="M144.117 230V220.768C144.117 219.936 144.357 219.275 144.837 218.784C145.328 218.283 146.021 218.032 146.917 218.032C147.248 218.032 147.563 218.075 147.861 218.16C148.171 218.235 148.432 218.358 148.645 218.528L148.181 219.696C148.021 219.568 147.84 219.472 147.637 219.408C147.435 219.334 147.221 219.296 146.997 219.296C146.549 219.296 146.208 219.424 145.973 219.68C145.739 219.926 145.621 220.294 145.621 220.784V221.92L145.653 222.624V230H144.117ZM142.677 222.784V221.52H148.085V222.784H142.677Z" fill="#C92020"/>
<path d="M154.055 230V218.8H158.423C159.404 218.8 160.242 218.955 160.935 219.264C161.628 219.574 162.162 220.022 162.535 220.608C162.908 221.195 163.095 221.894 163.095 222.704C163.095 223.515 162.908 224.214 162.535 224.8C162.162 225.376 161.628 225.824 160.935 226.144C160.242 226.454 159.404 226.608 158.423 226.608H154.935L155.655 225.856V230H154.055ZM155.655 226.016L154.935 225.216H158.375C159.399 225.216 160.172 224.998 160.695 224.56C161.228 224.123 161.495 223.504 161.495 222.704C161.495 221.904 161.228 221.286 160.695 220.848C160.172 220.411 159.399 220.192 158.375 220.192H154.935L155.655 219.392V226.016Z" fill="#C92020"/>
<path d="M168.966 230.096C168.06 230.096 167.26 229.91 166.566 229.536C165.884 229.163 165.35 228.651 164.966 228C164.593 227.35 164.406 226.603 164.406 225.76C164.406 224.918 164.588 224.171 164.95 223.52C165.324 222.87 165.83 222.363 166.47 222C167.121 221.627 167.852 221.44 168.662 221.44C169.484 221.44 170.209 221.622 170.838 221.984C171.468 222.347 171.958 222.859 172.31 223.52C172.673 224.171 172.854 224.934 172.854 225.808C172.854 225.872 172.849 225.947 172.838 226.032C172.838 226.118 172.833 226.198 172.822 226.272H165.606V225.168H172.022L171.398 225.552C171.409 225.008 171.297 224.523 171.062 224.096C170.828 223.67 170.502 223.339 170.086 223.104C169.681 222.859 169.206 222.736 168.662 222.736C168.129 222.736 167.654 222.859 167.238 223.104C166.822 223.339 166.497 223.675 166.262 224.112C166.028 224.539 165.91 225.03 165.91 225.584V225.84C165.91 226.406 166.038 226.912 166.294 227.36C166.561 227.798 166.929 228.139 167.398 228.384C167.868 228.63 168.406 228.752 169.014 228.752C169.516 228.752 169.969 228.667 170.374 228.496C170.79 228.326 171.153 228.07 171.462 227.728L172.31 228.72C171.926 229.168 171.446 229.51 170.87 229.744C170.305 229.979 169.67 230.096 168.966 230.096Z" fill="#C92020"/>
<path d="M178.619 230.096C177.766 230.096 177.009 229.91 176.347 229.536C175.686 229.163 175.163 228.651 174.779 228C174.395 227.339 174.203 226.592 174.203 225.76C174.203 224.918 174.395 224.171 174.779 223.52C175.163 222.87 175.686 222.363 176.347 222C177.009 221.627 177.766 221.44 178.619 221.44C179.462 221.44 180.214 221.627 180.875 222C181.547 222.363 182.07 222.87 182.443 223.52C182.827 224.16 183.019 224.907 183.019 225.76C183.019 226.603 182.827 227.35 182.443 228C182.07 228.651 181.547 229.163 180.875 229.536C180.214 229.91 179.462 230.096 178.619 230.096ZM178.619 228.752C179.163 228.752 179.649 228.63 180.075 228.384C180.513 228.139 180.854 227.792 181.099 227.344C181.345 226.886 181.467 226.358 181.467 225.76C181.467 225.152 181.345 224.63 181.099 224.192C180.854 223.744 180.513 223.398 180.075 223.152C179.649 222.907 179.163 222.784 178.619 222.784C178.075 222.784 177.59 222.907 177.163 223.152C176.737 223.398 176.395 223.744 176.139 224.192C175.883 224.63 175.755 225.152 175.755 225.76C175.755 226.358 175.883 226.886 176.139 227.344C176.395 227.792 176.737 228.139 177.163 228.384C177.59 228.63 178.075 228.752 178.619 228.752Z" fill="#C92020"/>
<path d="M189.639 230.096C188.935 230.096 188.29 229.936 187.703 229.616C187.127 229.286 186.663 228.8 186.311 228.16C185.97 227.52 185.799 226.72 185.799 225.76C185.799 224.8 185.965 224 186.295 223.36C186.637 222.72 187.095 222.24 187.671 221.92C188.258 221.6 188.914 221.44 189.639 221.44C190.471 221.44 191.207 221.622 191.847 221.984C192.487 222.347 192.994 222.854 193.367 223.504C193.741 224.144 193.927 224.896 193.927 225.76C193.927 226.624 193.741 227.382 193.367 228.032C192.994 228.683 192.487 229.19 191.847 229.552C191.207 229.915 190.471 230.096 189.639 230.096ZM185.143 233.104V221.52H186.615V223.808L186.519 225.776L186.679 227.744V233.104H185.143ZM189.511 228.752C190.055 228.752 190.541 228.63 190.967 228.384C191.405 228.139 191.746 227.792 191.991 227.344C192.247 226.886 192.375 226.358 192.375 225.76C192.375 225.152 192.247 224.63 191.991 224.192C191.746 223.744 191.405 223.398 190.967 223.152C190.541 222.907 190.055 222.784 189.511 222.784C188.978 222.784 188.493 222.907 188.055 223.152C187.629 223.398 187.287 223.744 187.031 224.192C186.786 224.63 186.663 225.152 186.663 225.76C186.663 226.358 186.786 226.886 187.031 227.344C187.287 227.792 187.629 228.139 188.055 228.384C188.493 228.63 188.978 228.752 189.511 228.752Z" fill="#C92020"/>
<path d="M196.05 230V218.128H197.586V230H196.05Z" fill="#C92020"/>
<path d="M204.294 230.096C203.388 230.096 202.588 229.91 201.894 229.536C201.212 229.163 200.678 228.651 200.294 228C199.921 227.35 199.734 226.603 199.734 225.76C199.734 224.918 199.916 224.171 200.278 223.52C200.652 222.87 201.158 222.363 201.798 222C202.449 221.627 203.18 221.44 203.99 221.44C204.812 221.44 205.537 221.622 206.166 221.984C206.796 222.347 207.286 222.859 207.638 223.52C208.001 224.171 208.182 224.934 208.182 225.808C208.182 225.872 208.177 225.947 208.166 226.032C208.166 226.118 208.161 226.198 208.15 226.272H200.934V225.168H207.35L206.726 225.552C206.737 225.008 206.625 224.523 206.39 224.096C206.156 223.67 205.83 223.339 205.414 223.104C205.009 222.859 204.534 222.736 203.99 222.736C203.457 222.736 202.982 222.859 202.566 223.104C202.15 223.339 201.825 223.675 201.59 224.112C201.356 224.539 201.238 225.03 201.238 225.584V225.84C201.238 226.406 201.366 226.912 201.622 227.36C201.889 227.798 202.257 228.139 202.726 228.384C203.196 228.63 203.734 228.752 204.342 228.752C204.844 228.752 205.297 228.667 205.702 228.496C206.118 228.326 206.481 228.07 206.79 227.728L207.638 228.72C207.254 229.168 206.774 229.51 206.198 229.744C205.633 229.979 204.998 230.096 204.294 230.096Z" fill="#C92020"/>
<path d="M210.683 223.632C210.385 223.632 210.129 223.531 209.915 223.328C209.702 223.115 209.595 222.848 209.595 222.528C209.595 222.208 209.702 221.947 209.915 221.744C210.129 221.542 210.385 221.44 210.683 221.44C210.971 221.44 211.217 221.542 211.419 221.744C211.633 221.947 211.739 222.208 211.739 222.528C211.739 222.848 211.633 223.115 211.419 223.328C211.217 223.531 210.971 223.632 210.683 223.632ZM210.683 230.096C210.385 230.096 210.129 229.995 209.915 229.792C209.702 229.579 209.595 229.312 209.595 228.992C209.595 228.672 209.702 228.411 209.915 228.208C210.129 228.006 210.385 227.904 210.683 227.904C210.971 227.904 211.217 228.006 211.419 228.208C211.633 228.411 211.739 228.672 211.739 228.992C211.739 229.312 211.633 229.579 211.419 229.792C211.217 229.995 210.971 230.096 210.683 230.096Z" fill="#C92020"/>
<path fill-rule="evenodd" clip-rule="evenodd" d="M384 116H59V115H384V116Z" fill="#E0E2E6"/>
<path d="M111 193C111 185.82 116.82 180 124 180H222C229.18 180 235 185.82 235 193C235 200.18 229.18 206 222 206H124C116.82 206 111 200.18 111 193Z" fill="#9A9A9A"/>
<path d="M122.852 197.14C122.105 197.14 121.41 197.019 120.766 196.776C120.131 196.524 119.576 196.174 119.1 195.726C118.633 195.269 118.269 194.732 118.008 194.116C117.747 193.5 117.616 192.828 117.616 192.1C117.616 191.372 117.747 190.7 118.008 190.084C118.269 189.468 118.638 188.936 119.114 188.488C119.59 188.031 120.145 187.681 120.78 187.438C121.415 187.186 122.11 187.06 122.866 187.06C123.669 187.06 124.401 187.2 125.064 187.48C125.727 187.751 126.287 188.157 126.744 188.698L125.568 189.804C125.213 189.421 124.817 189.137 124.378 188.95C123.939 188.754 123.463 188.656 122.95 188.656C122.437 188.656 121.965 188.74 121.536 188.908C121.116 189.076 120.747 189.314 120.43 189.622C120.122 189.93 119.879 190.294 119.702 190.714C119.534 191.134 119.45 191.596 119.45 192.1C119.45 192.604 119.534 193.066 119.702 193.486C119.879 193.906 120.122 194.27 120.43 194.578C120.747 194.886 121.116 195.124 121.536 195.292C121.965 195.46 122.437 195.544 122.95 195.544C123.463 195.544 123.939 195.451 124.378 195.264C124.817 195.068 125.213 194.774 125.568 194.382L126.744 195.502C126.287 196.034 125.727 196.44 125.064 196.72C124.401 197 123.664 197.14 122.852 197.14Z" fill="white"/>
<path d="M132.562 189.44C133.159 189.44 133.691 189.557 134.158 189.79C134.634 190.023 135.007 190.383 135.278 190.868C135.549 191.344 135.684 191.96 135.684 192.716V197H133.934V192.94C133.934 192.277 133.775 191.783 133.458 191.456C133.15 191.129 132.716 190.966 132.156 190.966C131.745 190.966 131.381 191.05 131.064 191.218C130.747 191.386 130.499 191.638 130.322 191.974C130.154 192.301 130.07 192.716 130.07 193.22V197H128.32V186.612H130.07V191.54L129.692 190.924C129.953 190.448 130.331 190.084 130.826 189.832C131.33 189.571 131.909 189.44 132.562 189.44Z" fill="white"/>
<path d="M141.277 197.098C140.512 197.098 139.831 196.935 139.233 196.608C138.636 196.272 138.165 195.815 137.819 195.236C137.474 194.657 137.301 193.999 137.301 193.262C137.301 192.515 137.474 191.857 137.819 191.288C138.165 190.709 138.636 190.257 139.233 189.93C139.831 189.603 140.512 189.44 141.277 189.44C142.052 189.44 142.738 189.603 143.335 189.93C143.942 190.257 144.413 190.705 144.75 191.274C145.095 191.843 145.267 192.506 145.267 193.262C145.267 193.999 145.095 194.657 144.75 195.236C144.413 195.815 143.942 196.272 143.335 196.608C142.738 196.935 142.052 197.098 141.277 197.098ZM141.277 195.6C141.707 195.6 142.089 195.507 142.425 195.32C142.761 195.133 143.023 194.863 143.209 194.508C143.406 194.153 143.503 193.738 143.503 193.262C143.503 192.777 143.406 192.361 143.209 192.016C143.023 191.661 142.761 191.391 142.425 191.204C142.089 191.017 141.711 190.924 141.291 190.924C140.862 190.924 140.479 191.017 140.143 191.204C139.817 191.391 139.556 191.661 139.359 192.016C139.163 192.361 139.065 192.777 139.065 193.262C139.065 193.738 139.163 194.153 139.359 194.508C139.556 194.863 139.817 195.133 140.143 195.32C140.479 195.507 140.857 195.6 141.277 195.6Z" fill="white"/>
<path d="M150.301 197.098C149.536 197.098 148.854 196.935 148.257 196.608C147.66 196.272 147.188 195.815 146.843 195.236C146.498 194.657 146.325 193.999 146.325 193.262C146.325 192.515 146.498 191.857 146.843 191.288C147.188 190.709 147.66 190.257 148.257 189.93C148.854 189.603 149.536 189.44 150.301 189.44C151.076 189.44 151.762 189.603 152.359 189.93C152.966 190.257 153.437 190.705 153.773 191.274C154.118 191.843 154.291 192.506 154.291 193.262C154.291 193.999 154.118 194.657 153.773 195.236C153.437 195.815 152.966 196.272 152.359 196.608C151.762 196.935 151.076 197.098 150.301 197.098ZM150.301 195.6C150.73 195.6 151.113 195.507 151.449 195.32C151.785 195.133 152.046 194.863 152.233 194.508C152.429 194.153 152.527 193.738 152.527 193.262C152.527 192.777 152.429 192.361 152.233 192.016C152.046 191.661 151.785 191.391 151.449 191.204C151.113 191.017 150.735 190.924 150.315 190.924C149.886 190.924 149.503 191.017 149.167 191.204C148.84 191.391 148.579 191.661 148.383 192.016C148.187 192.361 148.089 192.777 148.089 193.262C148.089 193.738 148.187 194.153 148.383 194.508C148.579 194.863 148.84 195.133 149.167 195.32C149.503 195.507 149.881 195.6 150.301 195.6Z" fill="white"/>
<path d="M158.274 197.098C157.649 197.098 157.047 197.019 156.468 196.86C155.899 196.692 155.446 196.491 155.11 196.258L155.782 194.928C156.118 195.143 156.52 195.32 156.986 195.46C157.453 195.6 157.92 195.67 158.386 195.67C158.937 195.67 159.334 195.595 159.576 195.446C159.828 195.297 159.954 195.096 159.954 194.844C159.954 194.639 159.87 194.485 159.702 194.382C159.534 194.27 159.315 194.186 159.044 194.13C158.774 194.074 158.47 194.023 158.134 193.976C157.808 193.929 157.476 193.869 157.14 193.794C156.814 193.71 156.515 193.593 156.244 193.444C155.974 193.285 155.754 193.075 155.586 192.814C155.418 192.553 155.334 192.207 155.334 191.778C155.334 191.302 155.47 190.891 155.74 190.546C156.011 190.191 156.389 189.921 156.874 189.734C157.369 189.538 157.952 189.44 158.624 189.44C159.128 189.44 159.637 189.496 160.15 189.608C160.664 189.72 161.088 189.879 161.424 190.084L160.752 191.414C160.398 191.199 160.038 191.055 159.674 190.98C159.32 190.896 158.965 190.854 158.61 190.854C158.078 190.854 157.682 190.933 157.42 191.092C157.168 191.251 157.042 191.451 157.042 191.694C157.042 191.918 157.126 192.086 157.294 192.198C157.462 192.31 157.682 192.399 157.952 192.464C158.223 192.529 158.522 192.585 158.848 192.632C159.184 192.669 159.516 192.73 159.842 192.814C160.169 192.898 160.468 193.015 160.738 193.164C161.018 193.304 161.242 193.505 161.41 193.766C161.578 194.027 161.662 194.368 161.662 194.788C161.662 195.255 161.522 195.661 161.242 196.006C160.972 196.351 160.584 196.622 160.08 196.818C159.576 197.005 158.974 197.098 158.274 197.098Z" fill="white"/>
<path d="M166.683 197.098C165.853 197.098 165.125 196.935 164.499 196.608C163.883 196.272 163.403 195.815 163.057 195.236C162.721 194.657 162.553 193.999 162.553 193.262C162.553 192.515 162.717 191.857 163.043 191.288C163.379 190.709 163.837 190.257 164.415 189.93C165.003 189.603 165.671 189.44 166.417 189.44C167.145 189.44 167.794 189.599 168.363 189.916C168.933 190.233 169.381 190.681 169.707 191.26C170.034 191.839 170.197 192.52 170.197 193.304C170.197 193.379 170.193 193.463 170.183 193.556C170.183 193.649 170.179 193.738 170.169 193.822H163.939V192.66H169.245L168.559 193.024C168.569 192.595 168.48 192.217 168.293 191.89C168.107 191.563 167.85 191.307 167.523 191.12C167.206 190.933 166.837 190.84 166.417 190.84C165.988 190.84 165.61 190.933 165.283 191.12C164.966 191.307 164.714 191.568 164.527 191.904C164.35 192.231 164.261 192.618 164.261 193.066V193.346C164.261 193.794 164.364 194.191 164.569 194.536C164.775 194.881 165.064 195.147 165.437 195.334C165.811 195.521 166.24 195.614 166.725 195.614C167.145 195.614 167.523 195.549 167.859 195.418C168.195 195.287 168.494 195.082 168.755 194.802L169.693 195.88C169.357 196.272 168.933 196.575 168.419 196.79C167.915 196.995 167.337 197.098 166.683 197.098Z" fill="white"/>
<path d="M177.904 197V188.74H174.656V187.2H182.972V188.74H179.724V197H177.904Z" fill="white"/>
<path d="M184.169 197V189.524H185.919V197H184.169ZM185.051 188.292C184.725 188.292 184.454 188.189 184.239 187.984C184.034 187.779 183.931 187.531 183.931 187.242C183.931 186.943 184.034 186.696 184.239 186.5C184.454 186.295 184.725 186.192 185.051 186.192C185.378 186.192 185.644 186.29 185.849 186.486C186.064 186.673 186.171 186.911 186.171 187.2C186.171 187.508 186.069 187.769 185.863 187.984C185.658 188.189 185.387 188.292 185.051 188.292Z" fill="white"/>
<path d="M197.652 189.44C198.25 189.44 198.777 189.557 199.234 189.79C199.701 190.023 200.065 190.383 200.326 190.868C200.588 191.344 200.718 191.96 200.718 192.716V197H198.968V192.94C198.968 192.277 198.824 191.783 198.534 191.456C198.245 191.129 197.83 190.966 197.288 190.966C196.906 190.966 196.565 191.05 196.266 191.218C195.977 191.386 195.748 191.633 195.58 191.96C195.422 192.287 195.342 192.702 195.342 193.206V197H193.592V192.94C193.592 192.277 193.448 191.783 193.158 191.456C192.869 191.129 192.454 190.966 191.912 190.966C191.53 190.966 191.189 191.05 190.89 191.218C190.601 191.386 190.372 191.633 190.204 191.96C190.046 192.287 189.966 192.702 189.966 193.206V197H188.216V189.524H189.882V191.512L189.588 190.924C189.84 190.439 190.204 190.07 190.68 189.818C191.166 189.566 191.716 189.44 192.332 189.44C193.032 189.44 193.639 189.613 194.152 189.958C194.675 190.303 195.02 190.826 195.188 191.526L194.502 191.288C194.745 190.728 195.146 190.28 195.706 189.944C196.266 189.608 196.915 189.44 197.652 189.44Z" fill="white"/>
<path d="M206.482 197.098C205.652 197.098 204.924 196.935 204.298 196.608C203.682 196.272 203.202 195.815 202.856 195.236C202.52 194.657 202.352 193.999 202.352 193.262C202.352 192.515 202.516 191.857 202.842 191.288C203.178 190.709 203.636 190.257 204.214 189.93C204.802 189.603 205.47 189.44 206.216 189.44C206.944 189.44 207.593 189.599 208.162 189.916C208.732 190.233 209.18 190.681 209.506 191.26C209.833 191.839 209.996 192.52 209.996 193.304C209.996 193.379 209.992 193.463 209.982 193.556C209.982 193.649 209.978 193.738 209.968 193.822H203.738V192.66H209.044L208.358 193.024C208.368 192.595 208.279 192.217 208.092 191.89C207.906 191.563 207.649 191.307 207.322 191.12C207.005 190.933 206.636 190.84 206.216 190.84C205.787 190.84 205.409 190.933 205.082 191.12C204.765 191.307 204.513 191.568 204.326 191.904C204.149 192.231 204.06 192.618 204.06 193.066V193.346C204.06 193.794 204.163 194.191 204.368 194.536C204.574 194.881 204.863 195.147 205.236 195.334C205.61 195.521 206.039 195.614 206.524 195.614C206.944 195.614 207.322 195.549 207.658 195.418C207.994 195.287 208.293 195.082 208.554 194.802L209.492 195.88C209.156 196.272 208.732 196.575 208.218 196.79C207.714 196.995 207.136 197.098 206.482 197.098Z" fill="white"/>
<path fill-rule="evenodd" clip-rule="evenodd" d="M221.04 196.152C221.596 196.616 222.404 196.616 222.96 196.152L228.96 191.152C229.597 190.622 229.683 189.676 229.152 189.04C228.622 188.403 227.676 188.317 227.04 188.848L222 193.047L216.96 188.848C216.324 188.317 215.378 188.403 214.848 189.04C214.317 189.676 214.403 190.622 215.04 191.152L221.04 196.152Z" fill="white"/>
<path d="M226.316 229V219.2H227.814L233.96 226.746H233.218V219.2H235.024V229H233.526L227.38 221.454H228.122V229H226.316Z" fill="white"/>
<path d="M240.646 229.098C240.011 229.098 239.451 228.981 238.966 228.748C238.481 228.505 238.103 228.141 237.832 227.656C237.561 227.161 237.426 226.541 237.426 225.794V221.524H239.176V225.556C239.176 226.228 239.325 226.732 239.624 227.068C239.932 227.395 240.366 227.558 240.926 227.558C241.337 227.558 241.691 227.474 241.99 227.306C242.298 227.138 242.536 226.886 242.704 226.55C242.881 226.214 242.97 225.799 242.97 225.304V221.524H244.72V229H243.054V226.984L243.348 227.6C243.096 228.085 242.727 228.459 242.242 228.72C241.757 228.972 241.225 229.098 240.646 229.098Z" fill="white"/>
<path d="M256.447 221.44C257.045 221.44 257.572 221.557 258.029 221.79C258.496 222.023 258.86 222.383 259.121 222.868C259.383 223.344 259.513 223.96 259.513 224.716V229H257.763V224.94C257.763 224.277 257.619 223.783 257.329 223.456C257.04 223.129 256.625 222.966 256.083 222.966C255.701 222.966 255.36 223.05 255.061 223.218C254.772 223.386 254.543 223.633 254.375 223.96C254.217 224.287 254.137 224.702 254.137 225.206V229H252.387V224.94C252.387 224.277 252.243 223.783 251.953 223.456C251.664 223.129 251.249 222.966 250.707 222.966C250.325 222.966 249.984 223.05 249.685 223.218C249.396 223.386 249.167 223.633 248.999 223.96C248.841 224.287 248.761 224.702 248.761 225.206V229H247.011V221.524H248.677V223.512L248.383 222.924C248.635 222.439 248.999 222.07 249.475 221.818C249.961 221.566 250.511 221.44 251.127 221.44C251.827 221.44 252.434 221.613 252.947 221.958C253.47 222.303 253.815 222.826 253.983 223.526L253.297 223.288C253.54 222.728 253.941 222.28 254.501 221.944C255.061 221.608 255.71 221.44 256.447 221.44Z" fill="white"/>
<path d="M265.893 229.098C265.259 229.098 264.694 228.958 264.199 228.678C263.705 228.398 263.313 227.978 263.023 227.418C262.743 226.849 262.603 226.13 262.603 225.262C262.603 224.385 262.748 223.666 263.037 223.106C263.336 222.546 263.733 222.131 264.227 221.86C264.731 221.58 265.287 221.44 265.893 221.44C266.631 221.44 267.279 221.599 267.839 221.916C268.409 222.233 268.857 222.677 269.183 223.246C269.519 223.815 269.687 224.487 269.687 225.262C269.687 226.037 269.519 226.709 269.183 227.278C268.857 227.847 268.409 228.295 267.839 228.622C267.279 228.939 266.631 229.098 265.893 229.098ZM261.749 229V218.612H263.499V223.26L263.359 225.248L263.415 227.236V229H261.749ZM265.697 227.6C266.117 227.6 266.491 227.507 266.817 227.32C267.153 227.133 267.419 226.863 267.615 226.508C267.811 226.153 267.909 225.738 267.909 225.262C267.909 224.777 267.811 224.361 267.615 224.016C267.419 223.661 267.153 223.391 266.817 223.204C266.491 223.017 266.117 222.924 265.697 222.924C265.277 222.924 264.899 223.017 264.563 223.204C264.227 223.391 263.961 223.661 263.765 224.016C263.569 224.361 263.471 224.777 263.471 225.262C263.471 225.738 263.569 226.153 263.765 226.508C263.961 226.863 264.227 227.133 264.563 227.32C264.899 227.507 265.277 227.6 265.697 227.6Z" fill="white"/>
<path d="M274.861 229.098C274.03 229.098 273.302 228.935 272.677 228.608C272.061 228.272 271.58 227.815 271.235 227.236C270.899 226.657 270.731 225.999 270.731 225.262C270.731 224.515 270.894 223.857 271.221 223.288C271.557 222.709 272.014 222.257 272.593 221.93C273.181 221.603 273.848 221.44 274.595 221.44C275.323 221.44 275.972 221.599 276.541 221.916C277.11 222.233 277.558 222.681 277.885 223.26C278.212 223.839 278.375 224.52 278.375 225.304C278.375 225.379 278.37 225.463 278.361 225.556C278.361 225.649 278.356 225.738 278.347 225.822H272.117V224.66H277.423L276.737 225.024C276.746 224.595 276.658 224.217 276.471 223.89C276.284 223.563 276.028 223.307 275.701 223.12C275.384 222.933 275.015 222.84 274.595 222.84C274.166 222.84 273.788 222.933 273.461 223.12C273.144 223.307 272.892 223.568 272.705 223.904C272.528 224.231 272.439 224.618 272.439 225.066V225.346C272.439 225.794 272.542 226.191 272.747 226.536C272.952 226.881 273.242 227.147 273.615 227.334C273.988 227.521 274.418 227.614 274.903 227.614C275.323 227.614 275.701 227.549 276.037 227.418C276.373 227.287 276.672 227.082 276.933 226.802L277.871 227.88C277.535 228.272 277.11 228.575 276.597 228.79C276.093 228.995 275.514 229.098 274.861 229.098Z" fill="white"/>
<path d="M280.056 229V221.524H281.722V223.582L281.526 222.98C281.75 222.476 282.1 222.093 282.576 221.832C283.061 221.571 283.663 221.44 284.382 221.44V223.106C284.307 223.087 284.237 223.078 284.172 223.078C284.107 223.069 284.041 223.064 283.976 223.064C283.313 223.064 282.786 223.26 282.394 223.652C282.002 224.035 281.806 224.609 281.806 225.374V229H280.056Z" fill="white"/>
<path d="M293.164 229.098C292.399 229.098 291.717 228.935 291.12 228.608C290.523 228.272 290.052 227.815 289.706 227.236C289.361 226.657 289.188 225.999 289.188 225.262C289.188 224.515 289.361 223.857 289.706 223.288C290.052 222.709 290.523 222.257 291.12 221.93C291.717 221.603 292.399 221.44 293.164 221.44C293.939 221.44 294.625 221.603 295.222 221.93C295.829 222.257 296.3 222.705 296.636 223.274C296.982 223.843 297.154 224.506 297.154 225.262C297.154 225.999 296.982 226.657 296.636 227.236C296.3 227.815 295.829 228.272 295.222 228.608C294.625 228.935 293.939 229.098 293.164 229.098ZM293.164 227.6C293.594 227.6 293.976 227.507 294.312 227.32C294.648 227.133 294.91 226.863 295.096 226.508C295.292 226.153 295.39 225.738 295.39 225.262C295.39 224.777 295.292 224.361 295.096 224.016C294.91 223.661 294.648 223.391 294.312 223.204C293.976 223.017 293.598 222.924 293.178 222.924C292.749 222.924 292.366 223.017 292.03 223.204C291.703 223.391 291.442 223.661 291.246 224.016C291.05 224.361 290.952 224.777 290.952 225.262C290.952 225.738 291.05 226.153 291.246 226.508C291.442 226.863 291.703 227.133 292.03 227.32C292.366 227.507 292.744 227.6 293.164 227.6Z" fill="white"/>
<path d="M299.066 229V221.104C299.066 220.32 299.294 219.695 299.752 219.228C300.218 218.752 300.881 218.514 301.74 218.514C302.048 218.514 302.337 218.547 302.608 218.612C302.888 218.677 303.121 218.78 303.308 218.92L302.832 220.236C302.701 220.133 302.552 220.059 302.384 220.012C302.216 219.956 302.043 219.928 301.866 219.928C301.502 219.928 301.226 220.031 301.04 220.236C300.853 220.432 300.76 220.731 300.76 221.132V221.972L300.816 222.756V229H299.066ZM297.834 222.98V221.58H302.818V222.98H297.834Z" fill="white"/>
<path d="M308.033 229V219.2H312.065C312.933 219.2 313.675 219.34 314.291 219.62C314.916 219.9 315.397 220.301 315.733 220.824C316.069 221.347 316.237 221.967 316.237 222.686C316.237 223.405 316.069 224.025 315.733 224.548C315.397 225.071 314.916 225.472 314.291 225.752C313.675 226.032 312.933 226.172 312.065 226.172H309.041L309.853 225.318V229H308.033ZM309.853 225.514L309.041 224.632H311.981C312.783 224.632 313.385 224.464 313.787 224.128C314.197 223.783 314.403 223.302 314.403 222.686C314.403 222.061 314.197 221.58 313.787 221.244C313.385 220.908 312.783 220.74 311.981 220.74H309.041L309.853 219.844V225.514Z" fill="white"/>
<path d="M321.373 229.098C320.542 229.098 319.814 228.935 319.189 228.608C318.573 228.272 318.092 227.815 317.747 227.236C317.411 226.657 317.243 225.999 317.243 225.262C317.243 224.515 317.406 223.857 317.733 223.288C318.069 222.709 318.526 222.257 319.105 221.93C319.693 221.603 320.36 221.44 321.107 221.44C321.835 221.44 322.484 221.599 323.053 221.916C323.622 222.233 324.07 222.681 324.397 223.26C324.724 223.839 324.887 224.52 324.887 225.304C324.887 225.379 324.882 225.463 324.873 225.556C324.873 225.649 324.868 225.738 324.859 225.822H318.629V224.66H323.935L323.249 225.024C323.258 224.595 323.17 224.217 322.983 223.89C322.796 223.563 322.54 223.307 322.213 223.12C321.896 222.933 321.527 222.84 321.107 222.84C320.678 222.84 320.3 222.933 319.973 223.12C319.656 223.307 319.404 223.568 319.217 223.904C319.04 224.231 318.951 224.618 318.951 225.066V225.346C318.951 225.794 319.054 226.191 319.259 226.536C319.464 226.881 319.754 227.147 320.127 227.334C320.5 227.521 320.93 227.614 321.415 227.614C321.835 227.614 322.213 227.549 322.549 227.418C322.885 227.287 323.184 227.082 323.445 226.802L324.383 227.88C324.047 228.272 323.622 228.575 323.109 228.79C322.605 228.995 322.026 229.098 321.373 229.098Z" fill="white"/>
<path d="M329.928 229.098C329.163 229.098 328.481 228.935 327.884 228.608C327.286 228.272 326.815 227.815 326.47 227.236C326.125 226.657 325.952 225.999 325.952 225.262C325.952 224.515 326.125 223.857 326.47 223.288C326.815 222.709 327.286 222.257 327.884 221.93C328.481 221.603 329.163 221.44 329.928 221.44C330.703 221.44 331.389 221.603 331.986 221.93C332.593 222.257 333.064 222.705 333.4 223.274C333.745 223.843 333.918 224.506 333.918 225.262C333.918 225.999 333.745 226.657 333.4 227.236C333.064 227.815 332.593 228.272 331.986 228.608C331.389 228.935 330.703 229.098 329.928 229.098ZM329.928 227.6C330.357 227.6 330.74 227.507 331.076 227.32C331.412 227.133 331.673 226.863 331.86 226.508C332.056 226.153 332.154 225.738 332.154 225.262C332.154 224.777 332.056 224.361 331.86 224.016C331.673 223.661 331.412 223.391 331.076 223.204C330.74 223.017 330.362 222.924 329.942 222.924C329.513 222.924 329.13 223.017 328.794 223.204C328.467 223.391 328.206 223.661 328.01 224.016C327.814 224.361 327.716 224.777 327.716 225.262C327.716 225.738 327.814 226.153 328.01 226.508C328.206 226.863 328.467 227.133 328.794 227.32C329.13 227.507 329.508 227.6 329.928 227.6Z" fill="white"/>
<path d="M339.735 229.098C339.129 229.098 338.573 228.958 338.069 228.678C337.575 228.398 337.178 227.978 336.879 227.418C336.59 226.849 336.445 226.13 336.445 225.262C336.445 224.385 336.585 223.666 336.865 223.106C337.155 222.546 337.547 222.131 338.041 221.86C338.536 221.58 339.101 221.44 339.735 221.44C340.473 221.44 341.121 221.599 341.681 221.916C342.251 222.233 342.699 222.677 343.025 223.246C343.361 223.815 343.529 224.487 343.529 225.262C343.529 226.037 343.361 226.713 343.025 227.292C342.699 227.861 342.251 228.305 341.681 228.622C341.121 228.939 340.473 229.098 339.735 229.098ZM335.591 231.716V221.524H337.257V223.288L337.201 225.276L337.341 227.264V231.716H335.591ZM339.539 227.6C339.959 227.6 340.333 227.507 340.659 227.32C340.995 227.133 341.261 226.863 341.457 226.508C341.653 226.153 341.751 225.738 341.751 225.262C341.751 224.777 341.653 224.361 341.457 224.016C341.261 223.661 340.995 223.391 340.659 223.204C340.333 223.017 339.959 222.924 339.539 222.924C339.119 222.924 338.741 223.017 338.405 223.204C338.069 223.391 337.803 223.661 337.607 224.016C337.411 224.361 337.313 224.777 337.313 225.262C337.313 225.738 337.411 226.153 337.607 226.508C337.803 226.863 338.069 227.133 338.405 227.32C338.741 227.507 339.119 227.6 339.539 227.6Z" fill="white"/>
<path d="M345.189 229V218.612H346.939V229H345.189Z" fill="white"/>
<path d="M352.75 229.098C351.919 229.098 351.191 228.935 350.566 228.608C349.95 228.272 349.469 227.815 349.124 227.236C348.788 226.657 348.62 225.999 348.62 225.262C348.62 224.515 348.783 223.857 349.11 223.288C349.446 222.709 349.903 222.257 350.482 221.93C351.07 221.603 351.737 221.44 352.484 221.44C353.212 221.44 353.86 221.599 354.43 221.916C354.999 222.233 355.447 222.681 355.774 223.26C356.1 223.839 356.264 224.52 356.264 225.304C356.264 225.379 356.259 225.463 356.25 225.556C356.25 225.649 356.245 225.738 356.236 225.822H350.006V224.66H355.312L354.626 225.024C354.635 224.595 354.546 224.217 354.36 223.89C354.173 223.563 353.916 223.307 353.59 223.12C353.272 222.933 352.904 222.84 352.484 222.84C352.054 222.84 351.676 222.933 351.35 223.12C351.032 223.307 350.78 223.568 350.594 223.904C350.416 224.231 350.328 224.618 350.328 225.066V225.346C350.328 225.794 350.43 226.191 350.636 226.536C350.841 226.881 351.13 227.147 351.504 227.334C351.877 227.521 352.306 227.614 352.792 227.614C353.212 227.614 353.59 227.549 353.926 227.418C354.262 227.287 354.56 227.082 354.822 226.802L355.76 227.88C355.424 228.272 354.999 228.575 354.486 228.79C353.982 228.995 353.403 229.098 352.75 229.098Z" fill="white"/>
<defs>
<filter id="filter0_d_17_2480" x="0" y="0" width="414" height="468" filterUnits="userSpaceOnUse" color-interpolation-filters="sRGB">
<feFlood flood-opacity="0" result="BackgroundImageFix"/>
<feColorMatrix in="SourceAlpha" type="matrix" values="0 0 0 0 0 0 0 0 0 0 0 0 0 0 0 0 0 0 127 0" result="hardAlpha"/>
<feOffset/>
<feGaussianBlur stdDeviation="8"/>
<feComposite in2="hardAlpha" operator="out"/>
<feColorMatrix type="matrix" values="0 0 0 0 0.760784 0 0 0 0 0.776471 0 0 0 0 0.8 0 0 0 0.6 0"/>
<feBlend mode="normal" in2="BackgroundImageFix" result="effect1_dropShadow_17_2480"/>
<feBlend mode="normal" in="SourceGraphic" in2="effect1_dropShadow_17_2480" result="shape"/>
</filter>
</defs>
</svg>
