<svg width="103" height="46" viewBox="0 0 103 46" fill="none" xmlns="http://www.w3.org/2000/svg">
<path d="M0 23C0 10.2975 10.2975 0 23 0H80C92.7025 0 103 10.2975 103 23C103 35.7025 92.7025 46 80 46H23C10.2975 46 0 35.7025 0 23Z" fill="black"/>
<path d="M25.397 28.1401C24.6317 28.1401 23.899 28.0327 23.199 27.8181C22.499 27.5941 21.9437 27.3094 21.533 26.9641L22.163 25.5501C22.555 25.8581 23.0403 26.1147 23.619 26.3201C24.1977 26.5254 24.7903 26.6281 25.397 26.6281C25.9103 26.6281 26.3257 26.5721 26.643 26.4601C26.9603 26.3481 27.1937 26.1987 27.343 26.0121C27.4923 25.8161 27.567 25.5967 27.567 25.3541C27.567 25.0554 27.4597 24.8174 27.245 24.6401C27.0303 24.4534 26.7503 24.3087 26.405 24.2061C26.069 24.0941 25.691 23.9914 25.271 23.8981C24.8603 23.8047 24.445 23.6974 24.025 23.5761C23.6143 23.4454 23.2363 23.2821 22.891 23.0861C22.555 22.8807 22.2797 22.6101 22.065 22.2741C21.8503 21.9381 21.743 21.5087 21.743 20.9861C21.743 20.4541 21.883 19.9687 22.163 19.5301C22.4523 19.0821 22.8863 18.7274 23.465 18.4661C24.053 18.1954 24.795 18.0601 25.691 18.0601C26.279 18.0601 26.8623 18.1347 27.441 18.2841C28.0197 18.4334 28.5237 18.6481 28.953 18.9281L28.379 20.3421C27.9403 20.0807 27.4877 19.8894 27.021 19.7681C26.5543 19.6374 26.1063 19.5721 25.677 19.5721C25.173 19.5721 24.7623 19.6327 24.445 19.7541C24.137 19.8754 23.9083 20.0341 23.759 20.2301C23.619 20.4261 23.549 20.6501 23.549 20.9021C23.549 21.2007 23.6517 21.4434 23.857 21.6301C24.0717 21.8074 24.347 21.9474 24.683 22.0501C25.0283 22.1527 25.411 22.2554 25.831 22.3581C26.251 22.4514 26.6663 22.5587 27.077 22.6801C27.497 22.8014 27.875 22.9601 28.211 23.1561C28.5563 23.3521 28.8317 23.6181 29.037 23.9541C29.2517 24.2901 29.359 24.7147 29.359 25.2281C29.359 25.7507 29.2143 26.2361 28.925 26.6841C28.645 27.1227 28.211 27.4774 27.623 27.7481C27.035 28.0094 26.293 28.1401 25.397 28.1401Z" fill="white"/>
<path d="M31.1637 28.0001V18.2001H32.9837V28.0001H31.1637Z" fill="white"/>
<path d="M40.2124 28.1401C39.4471 28.1401 38.7424 28.0187 38.0984 27.7761C37.4637 27.5241 36.9084 27.1741 36.4324 26.7261C35.9564 26.2687 35.5877 25.7321 35.3264 25.1161C35.0651 24.5001 34.9344 23.8281 34.9344 23.1001C34.9344 22.3721 35.0651 21.7001 35.3264 21.0841C35.5877 20.4681 35.9564 19.9361 36.4324 19.4881C36.9177 19.0307 37.4824 18.6807 38.1264 18.4381C38.7704 18.1861 39.4751 18.0601 40.2404 18.0601C41.0711 18.0601 41.8177 18.1954 42.4804 18.4661C43.1524 18.7367 43.7171 19.1334 44.1744 19.6561L43.0264 20.7761C42.6437 20.3934 42.2284 20.1134 41.7804 19.9361C41.3417 19.7494 40.8564 19.6561 40.3244 19.6561C39.8111 19.6561 39.3351 19.7401 38.8964 19.9081C38.4577 20.0761 38.0797 20.3141 37.7624 20.6221C37.4451 20.9301 37.1977 21.2941 37.0204 21.7141C36.8524 22.1341 36.7684 22.5961 36.7684 23.1001C36.7684 23.5947 36.8524 24.0521 37.0204 24.4721C37.1977 24.8921 37.4451 25.2607 37.7624 25.5781C38.0797 25.8861 38.4531 26.1241 38.8824 26.2921C39.3117 26.4601 39.7877 26.5441 40.3104 26.5441C40.7957 26.5441 41.2624 26.4694 41.7104 26.3201C42.1677 26.1614 42.6017 25.9001 43.0124 25.5361L44.0484 26.8941C43.5351 27.3047 42.9377 27.6174 42.2564 27.8321C41.5844 28.0374 40.9031 28.1401 40.2124 28.1401ZM42.3264 26.6561V22.9881H44.0484V26.8941L42.3264 26.6561Z" fill="white"/>
<path d="M46.4489 28.0001V18.2001H47.9469L54.0929 25.7461H53.3509V18.2001H55.1569V28.0001H53.6589L47.5129 20.4541H48.2549V28.0001H46.4489Z" fill="white"/>
<path d="M65.866 28.1401C64.522 28.1401 63.4673 27.7621 62.702 27.0061C61.946 26.2501 61.568 25.1581 61.568 23.7301V18.2001H63.388V23.6601C63.388 24.6681 63.6026 25.4007 64.032 25.8581C64.4706 26.3154 65.0866 26.5441 65.88 26.5441C66.6733 26.5441 67.2846 26.3154 67.714 25.8581C68.1433 25.4007 68.358 24.6681 68.358 23.6601V18.2001H70.15V23.7301C70.15 25.1581 69.7673 26.2501 69.002 27.0061C68.246 27.7621 67.2006 28.1401 65.866 28.1401Z" fill="white"/>
<path d="M72.6989 28.0001V18.2001H76.7309C77.5989 18.2001 78.3409 18.3401 78.9569 18.6201C79.5822 18.9001 80.0629 19.3014 80.3989 19.8241C80.7349 20.3467 80.9029 20.9674 80.9029 21.6861C80.9029 22.4047 80.7349 23.0254 80.3989 23.5481C80.0629 24.0707 79.5822 24.4721 78.9569 24.7521C78.3409 25.0321 77.5989 25.1721 76.7309 25.1721H73.7069L74.5189 24.3181V28.0001H72.6989ZM74.5189 24.5141L73.7069 23.6321H76.6469C77.4495 23.6321 78.0515 23.4641 78.4529 23.1281C78.8635 22.7827 79.0689 22.3021 79.0689 21.6861C79.0689 21.0607 78.8635 20.5801 78.4529 20.2441C78.0515 19.9081 77.4495 19.7401 76.6469 19.7401H73.7069L74.5189 18.8441V24.5141Z" fill="white"/>
</svg>
