<svg width="281" height="48" viewBox="0 0 281 48" fill="none" xmlns="http://www.w3.org/2000/svg">
<path d="M19.3205 47.9098C15.5938 47.9098 11.9972 47.4548 8.53051 46.5448C5.10717 45.5915 2.31217 44.3782 0.145508 42.9048L4.37051 33.4148C6.40717 34.7148 8.74717 35.7982 11.3905 36.6648C14.0772 37.4882 16.7422 37.8998 19.3855 37.8998C21.1622 37.8998 22.5922 37.7482 23.6755 37.4448C24.7588 37.0982 25.5388 36.6648 26.0155 36.1448C26.5355 35.5815 26.7955 34.9315 26.7955 34.1948C26.7955 33.1548 26.3188 32.3315 25.3655 31.7248C24.4122 31.1182 23.1772 30.6198 21.6605 30.2298C20.1438 29.8398 18.4538 29.4498 16.5905 29.0598C14.7705 28.6698 12.9288 28.1715 11.0655 27.5648C9.24551 26.9582 7.57717 26.1782 6.0605 25.2248C4.54384 24.2282 3.30884 22.9498 2.35551 21.3898C1.40217 19.7865 0.925507 17.7715 0.925507 15.3448C0.925507 12.6148 1.66217 10.1448 3.13551 7.93485C4.65217 5.72485 6.90551 3.94818 9.89551 2.60485C12.8855 1.26151 16.6122 0.589844 21.0755 0.589844C24.0655 0.589844 26.9905 0.936512 29.8505 1.62985C32.7538 2.27985 35.3322 3.25485 37.5855 4.55484L33.6205 14.1098C31.4538 12.9398 29.3088 12.0732 27.1855 11.5098C25.0622 10.9032 23.0038 10.5998 21.0105 10.5998C19.2338 10.5998 17.8038 10.7948 16.7205 11.1848C15.6372 11.5315 14.8572 12.0082 14.3805 12.6148C13.9038 13.2215 13.6655 13.9148 13.6655 14.6948C13.6655 15.6915 14.1205 16.4932 15.0305 17.0998C15.9838 17.6632 17.2188 18.1398 18.7355 18.5298C20.2955 18.8765 21.9855 19.2448 23.8055 19.6348C25.6688 20.0248 27.5105 20.5232 29.3305 21.1298C31.1938 21.6932 32.8838 22.4732 34.4005 23.4698C35.9172 24.4232 37.1305 25.7015 38.0405 27.3048C38.9938 28.8648 39.4705 30.8365 39.4705 33.2198C39.4705 35.8632 38.7122 38.3115 37.1955 40.5648C35.7222 42.7748 33.4905 44.5515 30.5005 45.8948C27.5538 47.2382 23.8272 47.9098 19.3205 47.9098Z" fill="#484848"/>
<path d="M45.4155 46.9998V1.49984H58.2855V46.9998H45.4155Z" fill="#484848"/>
<path d="M90.1918 47.9098C86.5952 47.9098 83.2585 47.3465 80.1818 46.2198C77.1052 45.0499 74.4402 43.4032 72.1868 41.2798C69.9768 39.1565 68.2435 36.6648 66.9868 33.8048C65.7302 30.9015 65.1018 27.7165 65.1018 24.2498C65.1018 20.7832 65.7302 17.6198 66.9868 14.7598C68.2435 11.8565 69.9985 9.34318 72.2518 7.21984C74.5052 5.09651 77.1702 3.47151 80.2468 2.34484C83.3668 1.17484 86.7685 0.589844 90.4518 0.589844C94.7418 0.589844 98.5768 1.30484 101.957 2.73484C105.337 4.16485 108.132 6.22318 110.342 8.90985L102.152 16.3198C100.592 14.6298 98.9018 13.3732 97.0818 12.5498C95.3052 11.6832 93.3118 11.2498 91.1018 11.2498C89.1518 11.2498 87.3752 11.5532 85.7718 12.1598C84.1685 12.7665 82.8035 13.6548 81.6768 14.8248C80.5502 15.9515 79.6618 17.3165 79.0118 18.9198C78.4052 20.4798 78.1018 22.2565 78.1018 24.2498C78.1018 26.1565 78.4052 27.9115 79.0118 29.5148C79.6618 31.1182 80.5502 32.5048 81.6768 33.6748C82.8035 34.8015 84.1468 35.6898 85.7068 36.3398C87.3102 36.9465 89.0652 37.2498 90.9718 37.2498C92.8785 37.2498 94.7418 36.9465 96.5618 36.3398C98.3818 35.6898 100.224 34.6065 102.087 33.0898L109.302 42.1248C106.702 43.9882 103.69 45.4182 100.267 46.4148C96.8435 47.4115 93.4852 47.9098 90.1918 47.9098ZM97.9268 40.4348V23.2748H109.302V42.1248L97.9268 40.4348Z" fill="#484848"/>
<path d="M117.461 46.9998V1.49984H128.056L153.146 31.7898H148.141V1.49984H160.751V46.9998H150.156L125.066 16.7098H130.071V46.9998H117.461Z" fill="#484848"/>
<path d="M209.741 47.9098C203.024 47.9098 197.781 46.0682 194.011 42.3848C190.241 38.7015 188.356 33.4799 188.356 26.7198V1.49984H201.226V26.3298C201.226 30.2298 201.984 33.0248 203.501 34.7148C205.061 36.4048 207.184 37.2498 209.871 37.2498C212.557 37.2498 214.659 36.4048 216.176 34.7148C217.692 33.0248 218.451 30.2298 218.451 26.3298V1.49984H231.126V26.7198C231.126 33.4799 229.241 38.7015 225.471 42.3848C221.701 46.0682 216.457 47.9098 209.741 47.9098Z" fill="#484848"/>
<path d="M239.844 46.9998V1.49984H260.644C264.804 1.49984 268.379 2.17151 271.369 3.51484C274.403 4.85818 276.743 6.80818 278.389 9.36484C280.036 11.8782 280.859 14.8682 280.859 18.3348C280.859 21.7582 280.036 24.7265 278.389 27.2398C276.743 29.7532 274.403 31.7032 271.369 33.0898C268.379 34.4332 264.804 35.1048 260.644 35.1048H246.994L252.714 29.5148V46.9998H239.844ZM252.714 30.8798L246.994 24.9648H259.864C262.551 24.9648 264.544 24.3798 265.844 23.2098C267.188 22.0398 267.859 20.4148 267.859 18.3348C267.859 16.2115 267.188 14.5648 265.844 13.3948C264.544 12.2248 262.551 11.6398 259.864 11.6398H246.994L252.714 5.72484V30.8798Z" fill="#484848"/>
</svg>
