<svg width="11" height="10" viewBox="0 0 11 10" fill="none" xmlns="http://www.w3.org/2000/svg">
<g clip-path="url(#clip0_180_30)">
<path d="M10.1425 3.85108C10.0778 3.65119 9.90053 3.50921 9.69077 3.49031L6.8415 3.23159L5.71482 0.594491C5.63174 0.401226 5.44255 0.276123 5.23234 0.276123C5.02212 0.276123 4.83292 0.401226 4.74985 0.594943L3.62317 3.23159L0.773448 3.49031C0.564065 3.50966 0.387219 3.65119 0.322219 3.85108C0.25722 4.05097 0.317248 4.27022 0.475642 4.40843L2.62935 6.29725L1.99427 9.09478C1.9478 9.30047 2.02764 9.51309 2.19831 9.63646C2.29005 9.70274 2.39737 9.73648 2.50561 9.73648C2.59892 9.73648 2.69149 9.71133 2.77457 9.66162L5.23234 8.1927L7.6892 9.66162C7.86898 9.76978 8.09561 9.75991 8.26591 9.63646C8.43665 9.51272 8.51642 9.30002 8.46994 9.09478L7.83486 6.29725L9.98858 4.40881C10.147 4.27022 10.2074 4.05135 10.1425 3.85108Z" fill="#C92020"/>
</g>
<defs>
<clipPath id="clip0_180_30">
<rect width="9.87179" height="9.87179" fill="white" transform="translate(0.296387 0.0644531)"/>
</clipPath>
</defs>
</svg>
