<svg width="11" height="10" viewBox="0 0 11 10" fill="none" xmlns="http://www.w3.org/2000/svg">
<g clip-path="url(#clip0_180_8)">
<path d="M10.0897 3.63892C10.0251 3.43903 9.8478 3.29705 9.63803 3.27815L6.78876 3.01943L5.66209 0.382333C5.57901 0.189068 5.38981 0.0639648 5.1796 0.0639648C4.96939 0.0639648 4.78019 0.189068 4.69711 0.382785L3.57044 3.01943L0.720714 3.27815C0.51133 3.29751 0.334484 3.43903 0.269485 3.63892C0.204486 3.83882 0.264514 4.05807 0.422907 4.19627L2.57662 6.08509L1.94154 8.88262C1.89507 9.08831 1.97491 9.30093 2.14558 9.4243C2.23731 9.49058 2.34464 9.52433 2.45287 9.52433C2.54619 9.52433 2.63876 9.49917 2.72183 9.44946L5.1796 7.98054L7.63647 9.44946C7.81625 9.55762 8.04288 9.54775 8.21317 9.4243C8.38392 9.30056 8.46368 9.08786 8.41721 8.88262L7.78213 6.08509L9.93584 4.19665C10.0942 4.05807 10.1547 3.83919 10.0897 3.63892Z" fill="#C92020"/>
</g>
<defs>
<clipPath id="clip0_180_8">
<rect width="9.87179" height="9.87179" fill="white" transform="translate(0.243652 0.0639648)"/>
</clipPath>
</defs>
</svg>
