<svg width="10" height="10" viewBox="0 0 10 10" fill="none" xmlns="http://www.w3.org/2000/svg">
<g clip-path="url(#clip0_90_22)">
<path d="M9.93176 3.85108C9.86713 3.65119 9.68984 3.50921 9.48008 3.49031L6.63081 3.23159L5.50413 0.594491C5.42105 0.401226 5.23185 0.276123 5.02164 0.276123C4.81143 0.276123 4.62223 0.401226 4.53916 0.594943L3.41248 3.23159L0.562755 3.49031C0.353371 3.50966 0.176525 3.65119 0.111526 3.85108C0.0465269 4.05097 0.106555 4.27022 0.264948 4.40843L2.41866 6.29725L1.78358 9.09478C1.73711 9.30047 1.81695 9.51309 1.98762 9.63646C2.07935 9.70274 2.18668 9.73648 2.29491 9.73648C2.38823 9.73648 2.4808 9.71133 2.56387 9.66162L5.02164 8.1927L7.47851 9.66162C7.65829 9.76978 7.88492 9.75991 8.05521 9.63646C8.22596 9.51272 8.30572 9.30002 8.25925 9.09478L7.62417 6.29725L9.77788 4.40881C9.93628 4.27022 9.99676 4.05135 9.93176 3.85108Z" fill="#C92020"/>
</g>
<defs>
<clipPath id="clip0_90_22">
<rect width="9.87179" height="9.87179" fill="white" transform="translate(0.0856934 0.0644531)"/>
</clipPath>
</defs>
</svg>
