<svg width="11" height="10" viewBox="0 0 11 10" fill="none" xmlns="http://www.w3.org/2000/svg">
<g clip-path="url(#clip0_90_26)">
<path d="M10.0372 3.85108C9.9726 3.65119 9.79531 3.50921 9.58554 3.49031L6.73627 3.23159L5.6096 0.594491C5.52652 0.401226 5.33732 0.276123 5.12711 0.276123C4.9169 0.276123 4.7277 0.401226 4.64462 0.594943L3.51795 3.23159L0.668224 3.49031C0.45884 3.50966 0.281994 3.65119 0.216995 3.85108C0.151996 4.05097 0.212024 4.27022 0.370417 4.40843L2.52413 6.29725L1.88905 9.09478C1.84258 9.30047 1.92241 9.51309 2.09308 9.63646C2.18482 9.70274 2.29215 9.73648 2.40038 9.73648C2.4937 9.73648 2.58627 9.71133 2.66934 9.66162L5.12711 8.1927L7.58398 9.66162C7.76376 9.76978 7.99039 9.75991 8.16068 9.63646C8.33143 9.51272 8.41119 9.30002 8.36472 9.09478L7.72964 6.29725L9.88335 4.40881C10.0417 4.27022 10.1022 4.05135 10.0372 3.85108Z" fill="#C92020"/>
</g>
<defs>
<clipPath id="clip0_90_26">
<rect width="9.87179" height="9.87179" fill="white" transform="translate(0.191162 0.0644531)"/>
</clipPath>
</defs>
</svg>
