<svg width="11" height="10" viewBox="0 0 11 10" fill="none" xmlns="http://www.w3.org/2000/svg">
<g clip-path="url(#clip0_90_6)">
<path d="M10.0372 3.85059C9.9726 3.6507 9.79531 3.50872 9.58554 3.48982L6.73627 3.2311L5.6096 0.594003C5.52652 0.400738 5.33732 0.275635 5.12711 0.275635C4.9169 0.275635 4.7277 0.400738 4.64462 0.594455L3.51795 3.2311L0.668224 3.48982C0.45884 3.50918 0.281994 3.6507 0.216995 3.85059C0.151996 4.05049 0.212024 4.26974 0.370417 4.40794L2.52413 6.29676L1.88905 9.09429C1.84258 9.29998 1.92241 9.5126 2.09308 9.63597C2.18482 9.70225 2.29215 9.736 2.40038 9.736C2.4937 9.736 2.58627 9.71084 2.66934 9.66113L5.12711 8.19221L7.58398 9.66113C7.76376 9.76929 7.99039 9.75942 8.16068 9.63597C8.33143 9.51223 8.41119 9.29953 8.36472 9.09429L7.72964 6.29676L9.88335 4.40832C10.0417 4.26974 10.1022 4.05086 10.0372 3.85059Z" fill="#C92020"/>
</g>
<defs>
<clipPath id="clip0_90_6">
<rect width="9.87179" height="9.87179" fill="white" transform="translate(0.191162 0.0639648)"/>
</clipPath>
</defs>
</svg>
