<svg width="11" height="10" viewBox="0 0 11 10" fill="none" xmlns="http://www.w3.org/2000/svg">
<g clip-path="url(#clip0_180_10)">
<path d="M10.1425 3.85059C10.0778 3.6507 9.90053 3.50872 9.69077 3.48982L6.8415 3.2311L5.71482 0.594003C5.63174 0.400738 5.44255 0.275635 5.23234 0.275635C5.02212 0.275635 4.83292 0.400738 4.74985 0.594455L3.62317 3.2311L0.773448 3.48982C0.564065 3.50918 0.387219 3.6507 0.322219 3.85059C0.25722 4.05049 0.317248 4.26974 0.475642 4.40794L2.62935 6.29676L1.99427 9.09429C1.9478 9.29998 2.02764 9.5126 2.19831 9.63597C2.29005 9.70225 2.39737 9.736 2.50561 9.736C2.59892 9.736 2.69149 9.71084 2.77457 9.66113L5.23234 8.19221L7.6892 9.66113C7.86898 9.76929 8.09561 9.75942 8.26591 9.63597C8.43665 9.51223 8.51642 9.29953 8.46994 9.09429L7.83486 6.29676L9.98858 4.40832C10.147 4.26974 10.2074 4.05086 10.1425 3.85059Z" fill="#C92020"/>
</g>
<defs>
<clipPath id="clip0_180_10">
<rect width="9.87179" height="9.87179" fill="white" transform="translate(0.296387 0.0639648)"/>
</clipPath>
</defs>
</svg>
