<svg width="11" height="10" viewBox="0 0 11 10" fill="none" xmlns="http://www.w3.org/2000/svg">
<g clip-path="url(#clip0_90_28)">
<path d="M10.0897 3.63941C10.0251 3.43952 9.8478 3.29754 9.63803 3.27864L6.78876 3.01992L5.66209 0.382821C5.57901 0.189556 5.38981 0.0644531 5.1796 0.0644531C4.96939 0.0644531 4.78019 0.189556 4.69711 0.383273L3.57044 3.01992L0.720714 3.27864C0.51133 3.29799 0.334484 3.43952 0.269485 3.63941C0.204486 3.8393 0.264514 4.05855 0.422907 4.19676L2.57662 6.08558L1.94154 8.88311C1.89507 9.0888 1.97491 9.30142 2.14558 9.42479C2.23731 9.49107 2.34464 9.52481 2.45287 9.52481C2.54619 9.52481 2.63876 9.49966 2.72183 9.44995L5.1796 7.98103L7.63647 9.44995C7.81625 9.55811 8.04288 9.54824 8.21317 9.42479C8.38392 9.30105 8.46368 9.08835 8.41721 8.88311L7.78213 6.08558L9.93584 4.19714C10.0942 4.05855 10.1547 3.83968 10.0897 3.63941Z" fill="#C92020"/>
</g>
<defs>
<clipPath id="clip0_90_28">
<rect width="9.87179" height="9.87179" fill="white" transform="translate(0.243652 0.0644531)"/>
</clipPath>
</defs>
</svg>
