<svg width="11" height="10" viewBox="0 0 11 10" fill="none" xmlns="http://www.w3.org/2000/svg">
<g clip-path="url(#clip0_90_24)">
<path d="M9.98449 3.85108C9.91987 3.65119 9.74257 3.50921 9.53281 3.49031L6.68354 3.23159L5.55686 0.594491C5.47379 0.401226 5.28459 0.276123 5.07438 0.276123C4.86416 0.276123 4.67497 0.401226 4.59189 0.594943L3.46521 3.23159L0.615489 3.49031C0.406106 3.50966 0.22926 3.65119 0.16426 3.85108C0.0992613 4.05097 0.15929 4.27022 0.317683 4.40843L2.47139 6.29725L1.83631 9.09478C1.78984 9.30047 1.86968 9.51309 2.04035 9.63646C2.13209 9.70274 2.23942 9.73648 2.34765 9.73648C2.44097 9.73648 2.53353 9.71133 2.61661 9.66162L5.07438 8.1927L7.53124 9.66162C7.71102 9.76978 7.93766 9.75991 8.10795 9.63646C8.2787 9.51272 8.35846 9.30002 8.31199 9.09478L7.67691 6.29725L9.83062 4.40881C9.98901 4.27022 10.0495 4.05135 9.98449 3.85108Z" fill="#C92020"/>
</g>
<defs>
<clipPath id="clip0_90_24">
<rect width="9.87179" height="9.87179" fill="white" transform="translate(0.138428 0.0644531)"/>
</clipPath>
</defs>
</svg>
