<svg width="11" height="10" viewBox="0 0 11 10" fill="none" xmlns="http://www.w3.org/2000/svg">
<g clip-path="url(#clip0_90_4)">
<path d="M9.98449 3.85059C9.91987 3.6507 9.74257 3.50872 9.53281 3.48982L6.68354 3.2311L5.55686 0.594003C5.47379 0.400738 5.28459 0.275635 5.07438 0.275635C4.86416 0.275635 4.67497 0.400738 4.59189 0.594455L3.46521 3.2311L0.615489 3.48982C0.406106 3.50918 0.22926 3.6507 0.16426 3.85059C0.0992613 4.05049 0.15929 4.26974 0.317683 4.40794L2.47139 6.29676L1.83631 9.09429C1.78984 9.29998 1.86968 9.5126 2.04035 9.63597C2.13209 9.70225 2.23942 9.736 2.34765 9.736C2.44097 9.736 2.53353 9.71084 2.61661 9.66113L5.07438 8.19221L7.53124 9.66113C7.71102 9.76929 7.93766 9.75942 8.10795 9.63597C8.2787 9.51223 8.35846 9.29953 8.31199 9.09429L7.67691 6.29676L9.83062 4.40832C9.98901 4.26974 10.0495 4.05086 9.98449 3.85059Z" fill="#C92020"/>
</g>
<defs>
<clipPath id="clip0_90_4">
<rect width="9.87179" height="9.87179" fill="white" transform="translate(0.138428 0.0639648)"/>
</clipPath>
</defs>
</svg>
