<svg width="10" height="10" viewBox="0 0 10 10" fill="none" xmlns="http://www.w3.org/2000/svg">
<g clip-path="url(#clip0_180_2)">
<path d="M9.93176 3.85059C9.86713 3.6507 9.68984 3.50872 9.48008 3.48982L6.63081 3.2311L5.50413 0.594003C5.42105 0.400738 5.23185 0.275635 5.02164 0.275635C4.81143 0.275635 4.62223 0.400738 4.53916 0.594455L3.41248 3.2311L0.562755 3.48982C0.353371 3.50918 0.176525 3.6507 0.111526 3.85059C0.0465269 4.05049 0.106555 4.26974 0.264948 4.40794L2.41866 6.29676L1.78358 9.09429C1.73711 9.29998 1.81695 9.5126 1.98762 9.63597C2.07935 9.70225 2.18668 9.736 2.29491 9.736C2.38823 9.736 2.4808 9.71084 2.56387 9.66113L5.02164 8.19221L7.47851 9.66113C7.65829 9.76929 7.88492 9.75942 8.05521 9.63597C8.22596 9.51223 8.30572 9.29953 8.25925 9.09429L7.62417 6.29676L9.77788 4.40832C9.93628 4.26974 9.99676 4.05086 9.93176 3.85059Z" fill="#C92020"/>
</g>
<defs>
<clipPath id="clip0_180_2">
<rect width="9.87179" height="9.87179" fill="white" transform="translate(0.0856934 0.0639648)"/>
</clipPath>
</defs>
</svg>
