<svg width="92" height="12" viewBox="0 0 92 12" fill="none" xmlns="http://www.w3.org/2000/svg">
<path d="M3.06776 10.9999V3.32987H0.0517578V1.89987H7.77376V3.32987H4.75776V10.9999H3.06776Z" fill="#9A9A9A"/>
<path d="M8.88607 10.9999V4.05787H10.5111V10.9999H8.88607ZM9.70507 2.91387C9.40174 2.91387 9.1504 2.81853 8.95107 2.62787C8.7604 2.4372 8.66507 2.20753 8.66507 1.93887C8.66507 1.66153 8.7604 1.43187 8.95107 1.24987C9.1504 1.0592 9.40174 0.963867 9.70507 0.963867C10.0084 0.963867 10.2554 1.05487 10.4461 1.23687C10.6454 1.4102 10.7451 1.6312 10.7451 1.89987C10.7451 2.18587 10.6497 2.42853 10.4591 2.62787C10.2684 2.81853 10.0171 2.91387 9.70507 2.91387Z" fill="#9A9A9A"/>
<path d="M21.4059 3.97987C21.9606 3.97987 22.4502 4.0882 22.8749 4.30487C23.3082 4.52153 23.6462 4.8552 23.8889 5.30587C24.1315 5.74787 24.2529 6.31987 24.2529 7.02187V10.9999H22.6279V7.22987C22.6279 6.61453 22.4936 6.1552 22.2249 5.85187C21.9562 5.54853 21.5705 5.39687 21.0679 5.39687C20.7125 5.39687 20.3962 5.47487 20.1189 5.63087C19.8502 5.78687 19.6379 6.01653 19.4819 6.31987C19.3346 6.6232 19.2609 7.00887 19.2609 7.47687V10.9999H17.6359V7.22987C17.6359 6.61453 17.5016 6.1552 17.2329 5.85187C16.9642 5.54853 16.5786 5.39687 16.0759 5.39687C15.7206 5.39687 15.4042 5.47487 15.1269 5.63087C14.8582 5.78687 14.6459 6.01653 14.4899 6.31987C14.3425 6.6232 14.2689 7.00887 14.2689 7.47687V10.9999H12.6439V4.05787H14.1909V5.90387L13.9179 5.35787C14.1519 4.9072 14.4899 4.56487 14.9319 4.33087C15.3825 4.09687 15.8939 3.97987 16.4659 3.97987C17.1159 3.97987 17.6792 4.1402 18.1559 4.46087C18.6412 4.78153 18.9619 5.26687 19.1179 5.91687L18.4809 5.69587C18.7062 5.17587 19.0789 4.75987 19.5989 4.44787C20.1189 4.13587 20.7212 3.97987 21.4059 3.97987Z" fill="#9A9A9A"/>
<path d="M29.6051 11.0909C28.8338 11.0909 28.1578 10.9392 27.5771 10.6359C27.0051 10.3239 26.5588 9.8992 26.2381 9.36187C25.9261 8.82453 25.7701 8.21353 25.7701 7.52887C25.7701 6.83553 25.9218 6.22453 26.2251 5.69587C26.5371 5.15853 26.9618 4.7382 27.4991 4.43487C28.0451 4.13153 28.6648 3.97987 29.3581 3.97987C30.0341 3.97987 30.6365 4.1272 31.1651 4.42187C31.6938 4.71653 32.1098 5.13253 32.4131 5.66987C32.7165 6.2072 32.8681 6.83987 32.8681 7.56787C32.8681 7.6372 32.8638 7.7152 32.8551 7.80187C32.8551 7.88853 32.8508 7.97087 32.8421 8.04887H27.0571V6.96987H31.9841L31.3471 7.30787C31.3558 6.9092 31.2735 6.5582 31.1001 6.25487C30.9268 5.95153 30.6885 5.7132 30.3851 5.53987C30.0905 5.36653 29.7481 5.27987 29.3581 5.27987C28.9595 5.27987 28.6085 5.36653 28.3051 5.53987C28.0105 5.7132 27.7765 5.95587 27.6031 6.26787C27.4385 6.5712 27.3561 6.93087 27.3561 7.34687V7.60687C27.3561 8.02287 27.4515 8.3912 27.6421 8.71187C27.8328 9.03253 28.1015 9.27953 28.4481 9.45287C28.7948 9.6262 29.1935 9.71287 29.6441 9.71287C30.0341 9.71287 30.3851 9.6522 30.6971 9.53087C31.0091 9.40953 31.2865 9.21887 31.5291 8.95887L32.4001 9.95987C32.0881 10.3239 31.6938 10.6055 31.2171 10.8049C30.7491 10.9955 30.2118 11.0909 29.6051 11.0909Z" fill="#9A9A9A"/>
<path d="M34.949 6.13787C34.6544 6.13787 34.403 6.0382 34.195 5.83887C33.987 5.63087 33.883 5.37087 33.883 5.05887C33.883 4.72953 33.987 4.46953 34.195 4.27887C34.403 4.07953 34.6544 3.97987 34.949 3.97987C35.2437 3.97987 35.495 4.07953 35.703 4.27887C35.911 4.46953 36.015 4.72953 36.015 5.05887C36.015 5.37087 35.911 5.63087 35.703 5.83887C35.495 6.0382 35.2437 6.13787 34.949 6.13787ZM34.949 11.0909C34.6544 11.0909 34.403 10.9912 34.195 10.7919C33.987 10.5839 33.883 10.3239 33.883 10.0119C33.883 9.68253 33.987 9.42253 34.195 9.23187C34.403 9.03253 34.6544 8.93287 34.949 8.93287C35.2437 8.93287 35.495 9.03253 35.703 9.23187C35.911 9.42253 36.015 9.68253 36.015 10.0119C36.015 10.3239 35.911 10.5839 35.703 10.7919C35.495 10.9912 35.2437 11.0909 34.949 11.0909Z" fill="#9A9A9A"/>
<path d="M43.5356 11.1039C42.8943 11.1039 42.2703 11.0042 41.6636 10.8049C41.0656 10.6055 40.576 10.3369 40.1946 9.99887L40.7926 8.97187C41.096 9.25787 41.4903 9.49187 41.9756 9.67387C42.461 9.85587 42.981 9.94687 43.5356 9.94687C44.2116 9.94687 44.736 9.80387 45.1086 9.51787C45.49 9.2232 45.6806 8.82887 45.6806 8.33487C45.6806 7.8582 45.4986 7.47687 45.1346 7.19087C44.7793 6.8962 44.2116 6.74887 43.4316 6.74887H42.7036V5.83887L45.4076 2.51087L45.5896 3.03087H40.6106V1.89987H46.6166V2.78387L43.9256 6.09887L43.2496 5.69587H43.6786C44.7793 5.69587 45.6026 5.94287 46.1486 6.43687C46.7033 6.93087 46.9806 7.5592 46.9806 8.32187C46.9806 8.8332 46.855 9.3012 46.6036 9.72587C46.3523 10.1505 45.971 10.4885 45.4596 10.7399C44.957 10.9825 44.3156 11.1039 43.5356 11.1039Z" fill="#9A9A9A"/>
<path d="M49.0511 5.82587C48.8084 5.82587 48.6004 5.74353 48.4271 5.57887C48.2538 5.40553 48.1671 5.18887 48.1671 4.92887C48.1671 4.66887 48.2538 4.45653 48.4271 4.29187C48.6004 4.1272 48.8084 4.04487 49.0511 4.04487C49.2851 4.04487 49.4844 4.1272 49.6491 4.29187C49.8224 4.45653 49.9091 4.66887 49.9091 4.92887C49.9091 5.18887 49.8224 5.40553 49.6491 5.57887C49.4844 5.74353 49.2851 5.82587 49.0511 5.82587ZM49.0511 11.0779C48.8084 11.0779 48.6004 10.9955 48.4271 10.8309C48.2538 10.6575 48.1671 10.4409 48.1671 10.1809C48.1671 9.92087 48.2538 9.70853 48.4271 9.54387C48.6004 9.3792 48.8084 9.29687 49.0511 9.29687C49.2851 9.29687 49.4844 9.3792 49.6491 9.54387C49.8224 9.70853 49.9091 9.92087 49.9091 10.1809C49.9091 10.4409 49.8224 10.6575 49.6491 10.8309C49.4844 10.9955 49.2851 11.0779 49.0511 11.0779Z" fill="#9A9A9A"/>
<path d="M54.8564 11.1039C54.1457 11.1039 53.5087 10.9219 52.9454 10.5579C52.3907 10.1939 51.9487 9.6652 51.6194 8.97187C51.2987 8.27853 51.1384 7.43787 51.1384 6.44987C51.1384 5.46187 51.2987 4.6212 51.6194 3.92787C51.9487 3.23453 52.3907 2.70587 52.9454 2.34187C53.5087 1.97787 54.1457 1.79587 54.8564 1.79587C55.5584 1.79587 56.1911 1.97787 56.7544 2.34187C57.3177 2.70587 57.7597 3.23453 58.0804 3.92787C58.4011 4.6212 58.5614 5.46187 58.5614 6.44987C58.5614 7.43787 58.4011 8.27853 58.0804 8.97187C57.7597 9.6652 57.3177 10.1939 56.7544 10.5579C56.1911 10.9219 55.5584 11.1039 54.8564 11.1039ZM54.8564 9.94687C55.3331 9.94687 55.7491 9.81687 56.1044 9.55687C56.4684 9.29687 56.7501 8.90687 56.9494 8.38687C57.1574 7.86687 57.2614 7.2212 57.2614 6.44987C57.2614 5.67853 57.1574 5.03287 56.9494 4.51287C56.7501 3.99287 56.4684 3.60287 56.1044 3.34287C55.7491 3.08287 55.3331 2.95287 54.8564 2.95287C54.3797 2.95287 53.9594 3.08287 53.5954 3.34287C53.2314 3.60287 52.9454 3.99287 52.7374 4.51287C52.5381 5.03287 52.4384 5.67853 52.4384 6.44987C52.4384 7.2212 52.5381 7.86687 52.7374 8.38687C52.9454 8.90687 53.2314 9.29687 53.5954 9.55687C53.9594 9.81687 54.3797 9.94687 54.8564 9.94687Z" fill="#9A9A9A"/>
<path d="M63.5273 11.1039C62.8166 11.1039 62.1796 10.9219 61.6163 10.5579C61.0616 10.1939 60.6196 9.6652 60.2903 8.97187C59.9696 8.27853 59.8093 7.43787 59.8093 6.44987C59.8093 5.46187 59.9696 4.6212 60.2903 3.92787C60.6196 3.23453 61.0616 2.70587 61.6163 2.34187C62.1796 1.97787 62.8166 1.79587 63.5273 1.79587C64.2293 1.79587 64.862 1.97787 65.4253 2.34187C65.9886 2.70587 66.4306 3.23453 66.7513 3.92787C67.072 4.6212 67.2323 5.46187 67.2323 6.44987C67.2323 7.43787 67.072 8.27853 66.7513 8.97187C66.4306 9.6652 65.9886 10.1939 65.4253 10.5579C64.862 10.9219 64.2293 11.1039 63.5273 11.1039ZM63.5273 9.94687C64.004 9.94687 64.42 9.81687 64.7753 9.55687C65.1393 9.29687 65.421 8.90687 65.6203 8.38687C65.8283 7.86687 65.9323 7.2212 65.9323 6.44987C65.9323 5.67853 65.8283 5.03287 65.6203 4.51287C65.421 3.99287 65.1393 3.60287 64.7753 3.34287C64.42 3.08287 64.004 2.95287 63.5273 2.95287C63.0506 2.95287 62.6303 3.08287 62.2663 3.34287C61.9023 3.60287 61.6163 3.99287 61.4083 4.51287C61.209 5.03287 61.1093 5.67853 61.1093 6.44987C61.1093 7.2212 61.209 7.86687 61.4083 8.38687C61.6163 8.90687 61.9023 9.29687 62.2663 9.55687C62.6303 9.81687 63.0506 9.94687 63.5273 9.94687Z" fill="#9A9A9A"/>
<path d="M72.7124 10.9999V1.89987H76.2614C77.0587 1.89987 77.7391 2.02553 78.3024 2.27687C78.8657 2.5282 79.2991 2.8922 79.6024 3.36887C79.9057 3.84553 80.0574 4.4132 80.0574 5.07187C80.0574 5.73053 79.9057 6.2982 79.6024 6.77487C79.2991 7.24287 78.8657 7.60687 78.3024 7.86687C77.7391 8.1182 77.0587 8.24387 76.2614 8.24387H73.4274L74.0124 7.63287V10.9999H72.7124ZM74.0124 7.76287L73.4274 7.11287H76.2224C77.0544 7.11287 77.6827 6.9352 78.1074 6.57987C78.5407 6.22453 78.7574 5.72187 78.7574 5.07187C78.7574 4.42187 78.5407 3.9192 78.1074 3.56387C77.6827 3.20853 77.0544 3.03087 76.2224 3.03087H73.4274L74.0124 2.38087V7.76287Z" fill="#9A9A9A"/>
<path d="M81.9673 10.9999V1.89987H83.0333L87.1153 8.77687H86.5433L90.5733 1.89987H91.6393L91.6523 10.9999H90.4043L90.3913 3.86287H90.6903L87.1023 9.89487H86.5043L82.8903 3.86287H83.2153V10.9999H81.9673Z" fill="#9A9A9A"/>
</svg>
