<svg width="31" height="11" viewBox="0 0 31 11" fill="none" xmlns="http://www.w3.org/2000/svg">
<path d="M2.83197 9.99984V2.91984H0.0479736V1.59984H7.17597V2.91984H4.39197V9.99984H2.83197Z" fill="#483332"/>
<path d="M8.20272 9.99984V3.59184H9.70272V9.99984H8.20272ZM8.95872 2.53584C8.67872 2.53584 8.44672 2.44784 8.26272 2.27184C8.08672 2.09584 7.99872 1.88384 7.99872 1.63584C7.99872 1.37984 8.08672 1.16784 8.26272 0.999839C8.44672 0.82384 8.67872 0.73584 8.95872 0.73584C9.23872 0.73584 9.46672 0.81984 9.64272 0.987839C9.82672 1.14784 9.91872 1.35184 9.91872 1.59984C9.91872 1.86384 9.83072 2.08784 9.65472 2.27184C9.47872 2.44784 9.24672 2.53584 8.95872 2.53584Z" fill="#483332"/>
<path d="M19.7595 3.51984C20.2715 3.51984 20.7235 3.61984 21.1155 3.81984C21.5155 4.01984 21.8275 4.32784 22.0515 4.74384C22.2755 5.15184 22.3875 5.67984 22.3875 6.32784V9.99984H20.8875V6.51984C20.8875 5.95184 20.7635 5.52784 20.5155 5.24784C20.2675 4.96784 19.9115 4.82784 19.4475 4.82784C19.1195 4.82784 18.8275 4.89984 18.5715 5.04384C18.3235 5.18784 18.1275 5.39984 17.9835 5.67984C17.8475 5.95984 17.7795 6.31584 17.7795 6.74784V9.99984H16.2795V6.51984C16.2795 5.95184 16.1555 5.52784 15.9075 5.24784C15.6595 4.96784 15.3035 4.82784 14.8395 4.82784C14.5115 4.82784 14.2195 4.89984 13.9635 5.04384C13.7155 5.18784 13.5195 5.39984 13.3755 5.67984C13.2395 5.95984 13.1715 6.31584 13.1715 6.74784V9.99984H11.6715V3.59184H13.0995V5.29584L12.8475 4.79184C13.0635 4.37584 13.3755 4.05984 13.7835 3.84384C14.1995 3.62784 14.6715 3.51984 15.1995 3.51984C15.7995 3.51984 16.3195 3.66784 16.7595 3.96384C17.2075 4.25984 17.5035 4.70784 17.6475 5.30784L17.0595 5.10384C17.2675 4.62384 17.6115 4.23984 18.0915 3.95184C18.5715 3.66384 19.1275 3.51984 19.7595 3.51984Z" fill="#483332"/>
<path d="M27.328 10.0838C26.616 10.0838 25.992 9.94384 25.456 9.66384C24.928 9.37584 24.516 8.98384 24.22 8.48784C23.932 7.99184 23.788 7.42784 23.788 6.79584C23.788 6.15584 23.928 5.59184 24.208 5.10384C24.496 4.60784 24.888 4.21984 25.384 3.93984C25.888 3.65984 26.46 3.51984 27.1 3.51984C27.724 3.51984 28.28 3.65584 28.768 3.92784C29.256 4.19984 29.64 4.58384 29.92 5.07984C30.2 5.57584 30.34 6.15984 30.34 6.83184C30.34 6.89584 30.336 6.96784 30.328 7.04784C30.328 7.12784 30.324 7.20384 30.316 7.27584H24.976V6.27984H29.524L28.936 6.59184C28.944 6.22384 28.868 5.89984 28.708 5.61984C28.548 5.33984 28.328 5.11984 28.048 4.95984C27.776 4.79984 27.46 4.71984 27.1 4.71984C26.732 4.71984 26.408 4.79984 26.128 4.95984C25.856 5.11984 25.64 5.34384 25.48 5.63184C25.328 5.91184 25.252 6.24384 25.252 6.62784V6.86784C25.252 7.25184 25.34 7.59184 25.516 7.88784C25.692 8.18384 25.94 8.41184 26.26 8.57184C26.58 8.73184 26.948 8.81184 27.364 8.81184C27.724 8.81184 28.048 8.75584 28.336 8.64384C28.624 8.53184 28.88 8.35584 29.104 8.11584L29.908 9.03984C29.62 9.37584 29.256 9.63584 28.816 9.81984C28.384 9.99584 27.888 10.0838 27.328 10.0838Z" fill="#483332"/>
</svg>
