<svg width="90" height="12" viewBox="0 0 90 12" fill="none" xmlns="http://www.w3.org/2000/svg">
<path d="M3.06776 10.9999V3.32987H0.0517578V1.89987H7.77376V3.32987H4.75776V10.9999H3.06776Z" fill="#C92020"/>
<path d="M8.88607 10.9999V4.05787H10.5111V10.9999H8.88607ZM9.70507 2.91387C9.40174 2.91387 9.1504 2.81853 8.95107 2.62787C8.7604 2.4372 8.66507 2.20753 8.66507 1.93887C8.66507 1.66153 8.7604 1.43187 8.95107 1.24987C9.1504 1.0592 9.40174 0.963867 9.70507 0.963867C10.0084 0.963867 10.2554 1.05487 10.4461 1.23687C10.6454 1.4102 10.7451 1.6312 10.7451 1.89987C10.7451 2.18587 10.6497 2.42853 10.4591 2.62787C10.2684 2.81853 10.0171 2.91387 9.70507 2.91387Z" fill="#C92020"/>
<path d="M21.4059 3.97987C21.9606 3.97987 22.4502 4.0882 22.8749 4.30487C23.3082 4.52153 23.6462 4.8552 23.8889 5.30587C24.1315 5.74787 24.2529 6.31987 24.2529 7.02187V10.9999H22.6279V7.22987C22.6279 6.61453 22.4936 6.1552 22.2249 5.85187C21.9562 5.54853 21.5705 5.39687 21.0679 5.39687C20.7125 5.39687 20.3962 5.47487 20.1189 5.63087C19.8502 5.78687 19.6379 6.01653 19.4819 6.31987C19.3346 6.6232 19.2609 7.00887 19.2609 7.47687V10.9999H17.6359V7.22987C17.6359 6.61453 17.5016 6.1552 17.2329 5.85187C16.9642 5.54853 16.5786 5.39687 16.0759 5.39687C15.7206 5.39687 15.4042 5.47487 15.1269 5.63087C14.8582 5.78687 14.6459 6.01653 14.4899 6.31987C14.3425 6.6232 14.2689 7.00887 14.2689 7.47687V10.9999H12.6439V4.05787H14.1909V5.90387L13.9179 5.35787C14.1519 4.9072 14.4899 4.56487 14.9319 4.33087C15.3825 4.09687 15.8939 3.97987 16.4659 3.97987C17.1159 3.97987 17.6792 4.1402 18.1559 4.46087C18.6412 4.78153 18.9619 5.26687 19.1179 5.91687L18.4809 5.69587C18.7062 5.17587 19.0789 4.75987 19.5989 4.44787C20.1189 4.13587 20.7212 3.97987 21.4059 3.97987Z" fill="#C92020"/>
<path d="M29.6051 11.0909C28.8338 11.0909 28.1578 10.9392 27.5771 10.6359C27.0051 10.3239 26.5588 9.8992 26.2381 9.36187C25.9261 8.82453 25.7701 8.21353 25.7701 7.52887C25.7701 6.83553 25.9218 6.22453 26.2251 5.69587C26.5371 5.15853 26.9618 4.7382 27.4991 4.43487C28.0451 4.13153 28.6648 3.97987 29.3581 3.97987C30.0341 3.97987 30.6365 4.1272 31.1651 4.42187C31.6938 4.71653 32.1098 5.13253 32.4131 5.66987C32.7165 6.2072 32.8681 6.83987 32.8681 7.56787C32.8681 7.6372 32.8638 7.7152 32.8551 7.80187C32.8551 7.88853 32.8508 7.97087 32.8421 8.04887H27.0571V6.96987H31.9841L31.3471 7.30787C31.3558 6.9092 31.2735 6.5582 31.1001 6.25487C30.9268 5.95153 30.6885 5.7132 30.3851 5.53987C30.0905 5.36653 29.7481 5.27987 29.3581 5.27987C28.9595 5.27987 28.6085 5.36653 28.3051 5.53987C28.0105 5.7132 27.7765 5.95587 27.6031 6.26787C27.4385 6.5712 27.3561 6.93087 27.3561 7.34687V7.60687C27.3561 8.02287 27.4515 8.3912 27.6421 8.71187C27.8328 9.03253 28.1015 9.27953 28.4481 9.45287C28.7948 9.6262 29.1935 9.71287 29.6441 9.71287C30.0341 9.71287 30.3851 9.6522 30.6971 9.53087C31.0091 9.40953 31.2865 9.21887 31.5291 8.95887L32.4001 9.95987C32.0881 10.3239 31.6938 10.6055 31.2171 10.8049C30.7491 10.9955 30.2118 11.0909 29.6051 11.0909Z" fill="#C92020"/>
<path d="M34.949 6.13787C34.6544 6.13787 34.403 6.0382 34.195 5.83887C33.987 5.63087 33.883 5.37087 33.883 5.05887C33.883 4.72953 33.987 4.46953 34.195 4.27887C34.403 4.07953 34.6544 3.97987 34.949 3.97987C35.2437 3.97987 35.495 4.07953 35.703 4.27887C35.911 4.46953 36.015 4.72953 36.015 5.05887C36.015 5.37087 35.911 5.63087 35.703 5.83887C35.495 6.0382 35.2437 6.13787 34.949 6.13787ZM34.949 11.0909C34.6544 11.0909 34.403 10.9912 34.195 10.7919C33.987 10.5839 33.883 10.3239 33.883 10.0119C33.883 9.68253 33.987 9.42253 34.195 9.23187C34.403 9.03253 34.6544 8.93287 34.949 8.93287C35.2437 8.93287 35.495 9.03253 35.703 9.23187C35.911 9.42253 36.015 9.68253 36.015 10.0119C36.015 10.3239 35.911 10.5839 35.703 10.7919C35.495 10.9912 35.2437 11.0909 34.949 11.0909Z" fill="#C92020"/>
<path d="M42.2876 10.9999V2.41987L42.8466 3.03087H40.2336V1.89987H43.5746V10.9999H42.2876Z" fill="#C92020"/>
<path d="M46.4232 5.82587C46.1805 5.82587 45.9725 5.74353 45.7992 5.57887C45.6258 5.40553 45.5392 5.18887 45.5392 4.92887C45.5392 4.66887 45.6258 4.45653 45.7992 4.29187C45.9725 4.1272 46.1805 4.04487 46.4232 4.04487C46.6572 4.04487 46.8565 4.1272 47.0212 4.29187C47.1945 4.45653 47.2812 4.66887 47.2812 4.92887C47.2812 5.18887 47.1945 5.40553 47.0212 5.57887C46.8565 5.74353 46.6572 5.82587 46.4232 5.82587ZM46.4232 11.0779C46.1805 11.0779 45.9725 10.9955 45.7992 10.8309C45.6258 10.6575 45.5392 10.4409 45.5392 10.1809C45.5392 9.92087 45.6258 9.70853 45.7992 9.54387C45.9725 9.3792 46.1805 9.29687 46.4232 9.29687C46.6572 9.29687 46.8565 9.3792 47.0212 9.54387C47.1945 9.70853 47.2812 9.92087 47.2812 10.1809C47.2812 10.4409 47.1945 10.6575 47.0212 10.8309C46.8565 10.9955 46.6572 11.0779 46.4232 11.0779Z" fill="#C92020"/>
<path d="M52.2285 11.1039C51.5178 11.1039 50.8808 10.9219 50.3175 10.5579C49.7628 10.1939 49.3208 9.6652 48.9915 8.97187C48.6708 8.27853 48.5105 7.43787 48.5105 6.44987C48.5105 5.46187 48.6708 4.6212 48.9915 3.92787C49.3208 3.23453 49.7628 2.70587 50.3175 2.34187C50.8808 1.97787 51.5178 1.79587 52.2285 1.79587C52.9305 1.79587 53.5631 1.97787 54.1265 2.34187C54.6898 2.70587 55.1318 3.23453 55.4525 3.92787C55.7731 4.6212 55.9335 5.46187 55.9335 6.44987C55.9335 7.43787 55.7731 8.27853 55.4525 8.97187C55.1318 9.6652 54.6898 10.1939 54.1265 10.5579C53.5631 10.9219 52.9305 11.1039 52.2285 11.1039ZM52.2285 9.94687C52.7051 9.94687 53.1211 9.81687 53.4765 9.55687C53.8405 9.29687 54.1221 8.90687 54.3215 8.38687C54.5295 7.86687 54.6335 7.2212 54.6335 6.44987C54.6335 5.67853 54.5295 5.03287 54.3215 4.51287C54.1221 3.99287 53.8405 3.60287 53.4765 3.34287C53.1211 3.08287 52.7051 2.95287 52.2285 2.95287C51.7518 2.95287 51.3315 3.08287 50.9675 3.34287C50.6035 3.60287 50.3175 3.99287 50.1095 4.51287C49.9101 5.03287 49.8105 5.67853 49.8105 6.44987C49.8105 7.2212 49.9101 7.86687 50.1095 8.38687C50.3175 8.90687 50.6035 9.29687 50.9675 9.55687C51.3315 9.81687 51.7518 9.94687 52.2285 9.94687Z" fill="#C92020"/>
<path d="M60.8994 11.1039C60.1887 11.1039 59.5517 10.9219 58.9884 10.5579C58.4337 10.1939 57.9917 9.6652 57.6624 8.97187C57.3417 8.27853 57.1814 7.43787 57.1814 6.44987C57.1814 5.46187 57.3417 4.6212 57.6624 3.92787C57.9917 3.23453 58.4337 2.70587 58.9884 2.34187C59.5517 1.97787 60.1887 1.79587 60.8994 1.79587C61.6014 1.79587 62.234 1.97787 62.7974 2.34187C63.3607 2.70587 63.8027 3.23453 64.1234 3.92787C64.444 4.6212 64.6044 5.46187 64.6044 6.44987C64.6044 7.43787 64.444 8.27853 64.1234 8.97187C63.8027 9.6652 63.3607 10.1939 62.7974 10.5579C62.234 10.9219 61.6014 11.1039 60.8994 11.1039ZM60.8994 9.94687C61.376 9.94687 61.792 9.81687 62.1474 9.55687C62.5114 9.29687 62.793 8.90687 62.9924 8.38687C63.2004 7.86687 63.3044 7.2212 63.3044 6.44987C63.3044 5.67853 63.2004 5.03287 62.9924 4.51287C62.793 3.99287 62.5114 3.60287 62.1474 3.34287C61.792 3.08287 61.376 2.95287 60.8994 2.95287C60.4227 2.95287 60.0024 3.08287 59.6384 3.34287C59.2744 3.60287 58.9884 3.99287 58.7804 4.51287C58.581 5.03287 58.4814 5.67853 58.4814 6.44987C58.4814 7.2212 58.581 7.86687 58.7804 8.38687C58.9884 8.90687 59.2744 9.29687 59.6384 9.55687C60.0024 9.81687 60.4227 9.94687 60.8994 9.94687Z" fill="#C92020"/>
<path d="M70.0845 10.9999V1.89987H73.6335C74.4308 1.89987 75.1112 2.02553 75.6745 2.27687C76.2378 2.5282 76.6711 2.8922 76.9745 3.36887C77.2778 3.84553 77.4295 4.4132 77.4295 5.07187C77.4295 5.73053 77.2778 6.2982 76.9745 6.77487C76.6711 7.24287 76.2378 7.60687 75.6745 7.86687C75.1112 8.1182 74.4308 8.24387 73.6335 8.24387H70.7995L71.3845 7.63287V10.9999H70.0845ZM71.3845 7.76287L70.7995 7.11287H73.5945C74.4265 7.11287 75.0548 6.9352 75.4795 6.57987C75.9128 6.22453 76.1295 5.72187 76.1295 5.07187C76.1295 4.42187 75.9128 3.9192 75.4795 3.56387C75.0548 3.20853 74.4265 3.03087 73.5945 3.03087H70.7995L71.3845 2.38087V7.76287Z" fill="#C92020"/>
<path d="M79.3394 10.9999V1.89987H80.4054L84.4874 8.77687H83.9154L87.9454 1.89987H89.0114L89.0244 10.9999H87.7764L87.7634 3.86287H88.0624L84.4744 9.89487H83.8764L80.2624 3.86287H80.5874V10.9999H79.3394Z" fill="#C92020"/>
</svg>
