<svg width="227" height="76" viewBox="0 0 227 76" fill="none" xmlns="http://www.w3.org/2000/svg">
<path d="M8.70804 26.9561V6.50814H0.644043V1.75614H22.604V6.50814H14.54V26.9561H8.70804Z" fill="#483332"/>
<path d="M32.5932 27.2441C30.5292 27.2441 28.6932 26.8121 27.0852 25.9481C25.5012 25.0841 24.2412 23.9081 23.3052 22.4201C22.3932 20.9081 21.9372 19.1921 21.9372 17.2721C21.9372 15.3281 22.3932 13.6121 23.3052 12.1241C24.2412 10.6121 25.5012 9.43614 27.0852 8.59614C28.6932 7.73214 30.5292 7.30014 32.5932 7.30014C34.6332 7.30014 36.4572 7.73214 38.0652 8.59614C39.6732 9.43614 40.9332 10.6001 41.8452 12.0881C42.7572 13.5761 43.2132 15.3041 43.2132 17.2721C43.2132 19.1921 42.7572 20.9081 41.8452 22.4201C40.9332 23.9081 39.6732 25.0841 38.0652 25.9481C36.4572 26.8121 34.6332 27.2441 32.5932 27.2441ZM32.5932 22.6361C33.5292 22.6361 34.3692 22.4201 35.1132 21.9881C35.8572 21.5561 36.4452 20.9441 36.8772 20.1521C37.3092 19.3361 37.5252 18.3761 37.5252 17.2721C37.5252 16.1441 37.3092 15.1841 36.8772 14.3921C36.4452 13.6001 35.8572 12.9881 35.1132 12.5561C34.3692 12.1241 33.5292 11.9081 32.5932 11.9081C31.6572 11.9081 30.8172 12.1241 30.0732 12.5561C29.3292 12.9881 28.7292 13.6001 28.2732 14.3921C27.8412 15.1841 27.6252 16.1441 27.6252 17.2721C27.6252 18.3761 27.8412 19.3361 28.2732 20.1521C28.7292 20.9441 29.3292 21.5561 30.0732 21.9881C30.8172 22.4201 31.6572 22.6361 32.5932 22.6361Z" fill="#483332"/>
<path d="M58.415 27.2441C56.783 27.2441 55.355 26.8841 54.131 26.1641C52.907 25.4441 51.947 24.3521 51.251 22.8881C50.579 21.4001 50.243 19.5281 50.243 17.2721C50.243 14.9921 50.567 13.1201 51.215 11.6561C51.863 10.1921 52.799 9.10014 54.023 8.38014C55.247 7.66014 56.711 7.30014 58.415 7.30014C60.239 7.30014 61.871 7.72014 63.311 8.56014C64.775 9.37614 65.927 10.5281 66.767 12.0161C67.631 13.5041 68.063 15.2561 68.063 17.2721C68.063 19.3121 67.631 21.0761 66.767 22.5641C65.927 24.0521 64.775 25.2041 63.311 26.0201C61.871 26.8361 60.239 27.2441 58.415 27.2441ZM46.967 33.9401V7.58814H52.331V11.5481L52.223 17.3081L52.583 23.0321V33.9401H46.967ZM57.443 22.6361C58.379 22.6361 59.207 22.4201 59.927 21.9881C60.671 21.5561 61.259 20.9441 61.691 20.1521C62.147 19.3361 62.375 18.3761 62.375 17.2721C62.375 16.1441 62.147 15.1841 61.691 14.3921C61.259 13.6001 60.671 12.9881 59.927 12.5561C59.207 12.1241 58.379 11.9081 57.443 11.9081C56.507 11.9081 55.667 12.1241 54.923 12.5561C54.179 12.9881 53.591 13.6001 53.159 14.3921C52.727 15.1841 52.511 16.1441 52.511 17.2721C52.511 18.3761 52.727 19.3361 53.159 20.1521C53.591 20.9441 54.179 21.5561 54.923 21.9881C55.667 22.4201 56.507 22.6361 57.443 22.6361Z" fill="#483332"/>
<path d="M82.4138 26.9561V1.75614H93.3218C95.5778 1.75614 97.5218 2.12814 99.1538 2.87214C100.786 3.59214 102.046 4.63614 102.934 6.00414C103.822 7.37214 104.266 9.00414 104.266 10.9001C104.266 12.7721 103.822 14.3921 102.934 15.7601C102.046 17.1041 100.786 18.1361 99.1538 18.8561C97.5218 19.5761 95.5778 19.9361 93.3218 19.9361H85.6538L88.2458 17.3801V26.9561H82.4138ZM98.4338 26.9561L92.1338 17.8121H98.3618L104.734 26.9561H98.4338ZM88.2458 18.0281L85.6538 15.2921H92.9978C94.7978 15.2921 96.1418 14.9081 97.0298 14.1401C97.9178 13.3481 98.3618 12.2681 98.3618 10.9001C98.3618 9.50814 97.9178 8.42814 97.0298 7.66014C96.1418 6.89214 94.7978 6.50814 92.9978 6.50814H85.6538L88.2458 3.73614V18.0281Z" fill="#483332"/>
<path d="M120.195 26.9561V23.1761L119.835 22.3481V15.5801C119.835 14.3801 119.463 13.4441 118.719 12.7721C117.999 12.1001 116.883 11.7641 115.371 11.7641C114.339 11.7641 113.319 11.9321 112.311 12.2681C111.327 12.5801 110.487 13.0121 109.791 13.5641L107.775 9.64014C108.831 8.89614 110.103 8.32014 111.591 7.91214C113.079 7.50414 114.591 7.30014 116.127 7.30014C119.079 7.30014 121.371 7.99614 123.003 9.38814C124.635 10.7801 125.451 12.9521 125.451 15.9041V26.9561H120.195ZM114.291 27.2441C112.779 27.2441 111.483 26.9921 110.403 26.4881C109.323 25.9601 108.495 25.2521 107.919 24.3641C107.343 23.4761 107.055 22.4801 107.055 21.3761C107.055 20.2241 107.331 19.2161 107.883 18.3521C108.459 17.4881 109.359 16.8161 110.583 16.3361C111.807 15.8321 113.403 15.5801 115.371 15.5801H120.519V18.8561H115.983C114.663 18.8561 113.751 19.0721 113.247 19.5041C112.767 19.9361 112.527 20.4761 112.527 21.1241C112.527 21.8441 112.803 22.4201 113.355 22.8521C113.931 23.2601 114.711 23.4641 115.695 23.4641C116.631 23.4641 117.471 23.2481 118.215 22.8161C118.959 22.3601 119.499 21.7001 119.835 20.8361L120.699 23.4281C120.291 24.6761 119.547 25.6241 118.467 26.2721C117.387 26.9201 115.995 27.2441 114.291 27.2441Z" fill="#483332"/>
<path d="M138.453 27.2441C136.173 27.2441 134.397 26.6681 133.125 25.5161C131.853 24.3401 131.217 22.6001 131.217 20.2961V3.30414H136.833V20.2241C136.833 21.0401 137.049 21.6761 137.481 22.1321C137.913 22.5641 138.501 22.7801 139.245 22.7801C140.133 22.7801 140.889 22.5401 141.513 22.0601L143.025 26.0201C142.449 26.4281 141.753 26.7401 140.937 26.9561C140.145 27.1481 139.317 27.2441 138.453 27.2441ZM128.229 12.3401V8.02014H141.657V12.3401H128.229Z" fill="#483332"/>
<path d="M155.192 27.2441C152.984 27.2441 151.04 26.8121 149.36 25.9481C147.704 25.0841 146.42 23.9081 145.508 22.4201C144.596 20.9081 144.14 19.1921 144.14 17.2721C144.14 15.3281 144.584 13.6121 145.472 12.1241C146.384 10.6121 147.62 9.43614 149.18 8.59614C150.74 7.73214 152.504 7.30014 154.472 7.30014C156.368 7.30014 158.072 7.70814 159.584 8.52414C161.12 9.31614 162.332 10.4681 163.22 11.9801C164.108 13.4681 164.552 15.2561 164.552 17.3441C164.552 17.5601 164.54 17.8121 164.516 18.1001C164.492 18.3641 164.468 18.6161 164.444 18.8561H148.712V15.5801H161.492L159.332 16.5521C159.332 15.5441 159.128 14.6681 158.72 13.9241C158.312 13.1801 157.748 12.6041 157.028 12.1961C156.308 11.7641 155.468 11.5481 154.508 11.5481C153.548 11.5481 152.696 11.7641 151.952 12.1961C151.232 12.6041 150.668 13.1921 150.26 13.9601C149.852 14.7041 149.648 15.5921 149.648 16.6241V17.4881C149.648 18.5441 149.876 19.4801 150.332 20.2961C150.812 21.0881 151.472 21.7001 152.312 22.1321C153.176 22.5401 154.184 22.7441 155.336 22.7441C156.368 22.7441 157.268 22.5881 158.036 22.2761C158.828 21.9641 159.548 21.4961 160.196 20.8721L163.184 24.1121C162.296 25.1201 161.18 25.9001 159.836 26.4521C158.492 26.9801 156.944 27.2441 155.192 27.2441Z" fill="#483332"/>
<path d="M176.607 27.2441C174.783 27.2441 173.139 26.8361 171.675 26.0201C170.211 25.1801 169.047 24.0161 168.183 22.5281C167.343 21.0401 166.923 19.2881 166.923 17.2721C166.923 15.2321 167.343 13.4681 168.183 11.9801C169.047 10.4921 170.211 9.34014 171.675 8.52414C173.139 7.70814 174.783 7.30014 176.607 7.30014C178.239 7.30014 179.667 7.66014 180.891 8.38014C182.115 9.10014 183.063 10.1921 183.735 11.6561C184.407 13.1201 184.743 14.9921 184.743 17.2721C184.743 19.5281 184.419 21.4001 183.771 22.8881C183.123 24.3521 182.187 25.4441 180.963 26.1641C179.763 26.8841 178.311 27.2441 176.607 27.2441ZM177.579 22.6361C178.491 22.6361 179.319 22.4201 180.063 21.9881C180.807 21.5561 181.395 20.9441 181.827 20.1521C182.283 19.3361 182.511 18.3761 182.511 17.2721C182.511 16.1441 182.283 15.1841 181.827 14.3921C181.395 13.6001 180.807 12.9881 180.063 12.5561C179.319 12.1241 178.491 11.9081 177.579 11.9081C176.643 11.9081 175.803 12.1241 175.059 12.5561C174.315 12.9881 173.715 13.6001 173.259 14.3921C172.827 15.1841 172.611 16.1441 172.611 17.2721C172.611 18.3761 172.827 19.3361 173.259 20.1521C173.715 20.9441 174.315 21.5561 175.059 21.9881C175.803 22.4201 176.643 22.6361 177.579 22.6361ZM182.655 26.9561V22.9961L182.763 17.2361L182.403 11.5121V0.244141H188.019V26.9561H182.655Z" fill="#483332"/>
<path d="M3.48804 74.9561V49.7561H14.396C16.652 49.7561 18.596 50.1281 20.228 50.8721C21.86 51.5921 23.12 52.6361 24.008 54.0041C24.896 55.3721 25.34 57.0041 25.34 58.9001C25.34 60.7721 24.896 62.3921 24.008 63.7601C23.12 65.1041 21.86 66.1361 20.228 66.8561C18.596 67.5761 16.652 67.9361 14.396 67.9361H6.72804L9.32004 65.3801V74.9561H3.48804ZM19.508 74.9561L13.208 65.8121H19.436L25.808 74.9561H19.508ZM9.32004 66.0281L6.72804 63.2921H14.072C15.872 63.2921 17.216 62.9081 18.104 62.1401C18.992 61.3481 19.436 60.2681 19.436 58.9001C19.436 57.5081 18.992 56.4281 18.104 55.6601C17.216 54.8921 15.872 54.5081 14.072 54.5081H6.72804L9.32004 51.7361V66.0281Z" fill="#483332"/>
<path d="M39.1767 75.2441C36.9687 75.2441 35.0247 74.8121 33.3447 73.9481C31.6887 73.0841 30.4047 71.9081 29.4927 70.4201C28.5807 68.9081 28.1247 67.1921 28.1247 65.2721C28.1247 63.3281 28.5687 61.6121 29.4567 60.1241C30.3687 58.6121 31.6047 57.4361 33.1647 56.5961C34.7247 55.7321 36.4887 55.3001 38.4567 55.3001C40.3527 55.3001 42.0567 55.7081 43.5687 56.5241C45.1047 57.3161 46.3167 58.4681 47.2047 59.9801C48.0927 61.4681 48.5367 63.2561 48.5367 65.3441C48.5367 65.5602 48.5247 65.8121 48.5007 66.1001C48.4767 66.3641 48.4527 66.6161 48.4287 66.8561H32.6967V63.5801H45.4767L43.3167 64.5521C43.3167 63.5441 43.1127 62.6681 42.7047 61.9241C42.2967 61.1801 41.7327 60.6041 41.0127 60.1961C40.2927 59.7641 39.4527 59.5481 38.4927 59.5481C37.5327 59.5481 36.6807 59.7641 35.9367 60.1961C35.2167 60.6041 34.6527 61.1921 34.2447 61.9601C33.8367 62.7041 33.6327 63.5921 33.6327 64.6241V65.4881C33.6327 66.5441 33.8607 67.4801 34.3167 68.2961C34.7967 69.0881 35.4567 69.7001 36.2967 70.1321C37.1607 70.5401 38.1687 70.7441 39.3207 70.7441C40.3527 70.7441 41.2527 70.5881 42.0207 70.2761C42.8127 69.9641 43.5327 69.4961 44.1807 68.8721L47.1687 72.1121C46.2807 73.1201 45.1647 73.9001 43.8207 74.4521C42.4767 74.9801 40.9287 75.2441 39.1767 75.2441Z" fill="#483332"/>
<path d="M58.7916 75.2441C57.1356 75.2441 55.5396 75.0521 54.0036 74.6681C52.4916 74.2601 51.2916 73.7561 50.4036 73.1561L52.2756 69.1241C53.1636 69.6761 54.2076 70.1321 55.4076 70.4921C56.6316 70.8281 57.8316 70.9961 59.0076 70.9961C60.3036 70.9961 61.2156 70.8401 61.7436 70.5281C62.2956 70.2161 62.5716 69.7841 62.5716 69.2321C62.5716 68.7761 62.3556 68.4401 61.9236 68.2241C61.5156 67.9841 60.9636 67.8041 60.2676 67.6841C59.5716 67.5641 58.8036 67.4441 57.9636 67.3241C57.1476 67.2041 56.3196 67.0481 55.4796 66.8561C54.6396 66.6401 53.8716 66.3281 53.1756 65.9201C52.4796 65.5121 51.9156 64.9601 51.4836 64.2641C51.0756 63.5681 50.8716 62.6681 50.8716 61.5641C50.8716 60.3401 51.2196 59.2601 51.9156 58.3241C52.6356 57.3881 53.6676 56.6561 55.0116 56.1281C56.3556 55.5761 57.9636 55.3001 59.8356 55.3001C61.1556 55.3001 62.4996 55.4441 63.8676 55.7321C65.2356 56.0201 66.3756 56.4401 67.2876 56.9921L65.4156 60.9881C64.4796 60.4361 63.5316 60.0641 62.5716 59.8721C61.6356 59.6561 60.7236 59.5481 59.8356 59.5481C58.5876 59.5481 57.6756 59.7161 57.0996 60.0521C56.5236 60.3881 56.2356 60.8201 56.2356 61.3481C56.2356 61.8281 56.4396 62.1881 56.8476 62.4281C57.2796 62.6681 57.8436 62.8601 58.5396 63.0041C59.2356 63.1481 59.9916 63.2801 60.8076 63.4001C61.6476 63.4961 62.4876 63.6521 63.3276 63.8681C64.1676 64.0841 64.9236 64.3961 65.5956 64.8041C66.2916 65.1881 66.8556 65.7281 67.2876 66.4241C67.7196 67.0961 67.9356 67.9841 67.9356 69.0881C67.9356 70.2881 67.5756 71.3561 66.8556 72.2921C66.1356 73.2041 65.0916 73.9241 63.7236 74.4521C62.3796 74.9801 60.7356 75.2441 58.7916 75.2441Z" fill="#483332"/>
<path d="M79.3206 75.2441C77.0406 75.2441 75.2646 74.6681 73.9926 73.5161C72.7206 72.3401 72.0846 70.6001 72.0846 68.2961V51.3041H77.7006V68.2241C77.7006 69.0401 77.9166 69.6761 78.3486 70.1321C78.7806 70.5641 79.3686 70.7801 80.1126 70.7801C81.0006 70.7801 81.7566 70.5401 82.3806 70.0601L83.8926 74.0201C83.3166 74.4281 82.6206 74.7401 81.8046 74.9561C81.0126 75.1481 80.1846 75.2441 79.3206 75.2441ZM69.0966 60.3401V56.0201H82.5246V60.3401H69.0966Z" fill="#483332"/>
<path d="M98.9252 74.9561V71.1761L98.5652 70.3481V63.5801C98.5652 62.3801 98.1932 61.4441 97.4492 60.7721C96.7292 60.1001 95.6132 59.7641 94.1012 59.7641C93.0692 59.7641 92.0492 59.9321 91.0412 60.2681C90.0572 60.5801 89.2172 61.0121 88.5212 61.5641L86.5052 57.6401C87.5612 56.8961 88.8332 56.3201 90.3212 55.9121C91.8092 55.5041 93.3212 55.3001 94.8572 55.3001C97.8092 55.3001 100.101 55.9961 101.733 57.3881C103.365 58.7801 104.181 60.9521 104.181 63.9041V74.9561H98.9252ZM93.0212 75.2441C91.5092 75.2441 90.2132 74.9921 89.1332 74.4881C88.0532 73.9601 87.2252 73.2521 86.6492 72.3641C86.0732 71.4761 85.7852 70.4801 85.7852 69.3761C85.7852 68.2241 86.0612 67.2161 86.6132 66.3521C87.1892 65.4881 88.0892 64.8161 89.3132 64.3361C90.5372 63.8321 92.1332 63.5801 94.1012 63.5801H99.2492V66.8561H94.7132C93.3932 66.8561 92.4812 67.0721 91.9772 67.5041C91.4972 67.9361 91.2572 68.4761 91.2572 69.1241C91.2572 69.8441 91.5332 70.4201 92.0852 70.8521C92.6612 71.2601 93.4412 71.4641 94.4252 71.4641C95.3612 71.4641 96.2012 71.2481 96.9452 70.8161C97.6892 70.3601 98.2292 69.7001 98.5652 68.8361L99.4292 71.4281C99.0212 72.6761 98.2772 73.6241 97.1972 74.2721C96.1172 74.9201 94.7252 75.2441 93.0212 75.2441Z" fill="#483332"/>
<path d="M117.436 75.2441C115.828 75.2441 114.388 74.9321 113.116 74.3081C111.868 73.6841 110.896 72.7361 110.2 71.4641C109.504 70.1681 109.156 68.5241 109.156 66.5321V55.5881H114.772V65.7041C114.772 67.3121 115.108 68.5001 115.78 69.2681C116.476 70.0121 117.448 70.3841 118.696 70.3841C119.56 70.3841 120.328 70.2041 121 69.8441C121.672 69.4601 122.2 68.8841 122.584 68.1161C122.968 67.3241 123.16 66.3401 123.16 65.1641V55.5881H128.776V74.9561H123.448V69.6281L124.42 71.1761C123.772 72.5201 122.812 73.5401 121.54 74.2361C120.292 74.9081 118.924 75.2441 117.436 75.2441Z" fill="#483332"/>
<path d="M133.979 74.9561V55.5881H139.343V61.0601L138.587 59.4761C139.163 58.1081 140.087 57.0761 141.359 56.3801C142.631 55.6601 144.179 55.3001 146.003 55.3001V60.4841C145.763 60.4601 145.547 60.4481 145.355 60.4481C145.163 60.4241 144.959 60.4121 144.743 60.4121C143.207 60.4121 141.959 60.8561 140.999 61.7441C140.063 62.6081 139.595 63.9641 139.595 65.8121V74.9561H133.979Z" fill="#483332"/>
<path d="M159.956 74.9561V71.1761L159.596 70.3481V63.5801C159.596 62.3801 159.224 61.4441 158.48 60.7721C157.76 60.1001 156.644 59.7641 155.132 59.7641C154.1 59.7641 153.08 59.9321 152.072 60.2681C151.088 60.5801 150.248 61.0121 149.552 61.5641L147.536 57.6401C148.592 56.8961 149.864 56.3201 151.352 55.9121C152.84 55.5041 154.352 55.3001 155.888 55.3001C158.84 55.3001 161.132 55.9961 162.764 57.3881C164.396 58.7801 165.212 60.9521 165.212 63.9041V74.9561H159.956ZM154.052 75.2441C152.54 75.2441 151.244 74.9921 150.164 74.4881C149.084 73.9601 148.256 73.2521 147.68 72.3641C147.104 71.4761 146.816 70.4801 146.816 69.3761C146.816 68.2241 147.092 67.2161 147.644 66.3521C148.22 65.4881 149.12 64.8161 150.344 64.3361C151.568 63.8321 153.164 63.5801 155.132 63.5801H160.28V66.8561H155.744C154.424 66.8561 153.512 67.0721 153.008 67.5041C152.528 67.9361 152.288 68.4761 152.288 69.1241C152.288 69.8441 152.564 70.4201 153.116 70.8521C153.692 71.2601 154.472 71.4641 155.456 71.4641C156.392 71.4641 157.232 71.2481 157.976 70.8161C158.72 70.3601 159.26 69.7001 159.596 68.8361L160.46 71.4281C160.052 72.6761 159.308 73.6241 158.228 74.2721C157.148 74.9201 155.756 75.2441 154.052 75.2441Z" fill="#483332"/>
<path d="M182.067 55.3001C183.603 55.3001 184.971 55.6121 186.171 56.2361C187.395 56.8361 188.355 57.7721 189.051 59.0441C189.747 60.2921 190.095 61.9001 190.095 63.8681V74.9561H184.479V64.7321C184.479 63.1721 184.131 62.0201 183.435 61.2761C182.763 60.5321 181.803 60.1601 180.555 60.1601C179.667 60.1601 178.863 60.3521 178.143 60.7361C177.447 61.0961 176.895 61.6601 176.487 62.4281C176.103 63.1961 175.911 64.1801 175.911 65.3801V74.9561H170.295V55.5881H175.659V60.9521L174.651 59.3321C175.347 58.0361 176.343 57.0401 177.639 56.3441C178.935 55.6481 180.411 55.3001 182.067 55.3001Z" fill="#483332"/>
<path d="M203.106 75.2441C200.826 75.2441 199.05 74.6681 197.778 73.5161C196.506 72.3401 195.87 70.6001 195.87 68.2961V51.3041H201.486V68.2241C201.486 69.0401 201.702 69.6761 202.134 70.1321C202.566 70.5641 203.154 70.7801 203.898 70.7801C204.786 70.7801 205.542 70.5401 206.166 70.0601L207.678 74.0201C207.102 74.4281 206.406 74.7401 205.59 74.9561C204.798 75.1481 203.97 75.2441 203.106 75.2441ZM192.882 60.3401V56.0201H206.31V60.3401H192.882Z" fill="#483332"/>
<path d="M217.346 75.2441C215.69 75.2441 214.094 75.0521 212.558 74.6681C211.046 74.2601 209.846 73.7561 208.958 73.1561L210.83 69.1241C211.718 69.6761 212.762 70.1321 213.962 70.4921C215.186 70.8281 216.386 70.9961 217.562 70.9961C218.858 70.9961 219.77 70.8401 220.298 70.5281C220.85 70.2161 221.126 69.7841 221.126 69.2321C221.126 68.7761 220.91 68.4401 220.478 68.2241C220.07 67.9841 219.518 67.8041 218.822 67.6841C218.126 67.5641 217.358 67.4441 216.518 67.3241C215.702 67.2041 214.874 67.0481 214.034 66.8561C213.194 66.6401 212.426 66.3281 211.73 65.9201C211.034 65.5121 210.47 64.9601 210.038 64.2641C209.63 63.5681 209.426 62.6681 209.426 61.5641C209.426 60.3401 209.774 59.2601 210.47 58.3241C211.19 57.3881 212.222 56.6561 213.566 56.1281C214.91 55.5761 216.518 55.3001 218.39 55.3001C219.71 55.3001 221.054 55.4441 222.422 55.7321C223.79 56.0201 224.93 56.4401 225.842 56.9921L223.97 60.9881C223.034 60.4361 222.086 60.0641 221.126 59.8721C220.19 59.6561 219.278 59.5481 218.39 59.5481C217.142 59.5481 216.23 59.7161 215.654 60.0521C215.078 60.3881 214.79 60.8201 214.79 61.3481C214.79 61.8281 214.994 62.1881 215.402 62.4281C215.834 62.6681 216.398 62.8601 217.094 63.0041C217.79 63.1481 218.546 63.2801 219.362 63.4001C220.202 63.4961 221.042 63.6521 221.882 63.8681C222.722 64.0841 223.478 64.3961 224.15 64.8041C224.846 65.1881 225.41 65.7281 225.842 66.4241C226.274 67.0961 226.49 67.9841 226.49 69.0881C226.49 70.2881 226.13 71.3561 225.41 72.2921C224.69 73.2041 223.646 73.9241 222.278 74.4521C220.934 74.9801 219.29 75.2441 217.346 75.2441Z" fill="#483332"/>
</svg>
