<svg width="585" height="86" viewBox="0 0 585 86" fill="none" xmlns="http://www.w3.org/2000/svg">
<path d="M453 55C453 41.7452 463.745 31 477 31H557C570.255 31 581 41.7452 581 55C581 68.2548 570.255 79 557 79H477C463.745 79 453 68.2548 453 55Z" fill="white"/>
<path fill-rule="evenodd" clip-rule="evenodd" d="M557 32H477C464.297 32 454 42.2975 454 55C454 67.7025 464.297 78 477 78H557C569.703 78 580 67.7025 580 55C580 42.2975 569.703 32 557 32ZM477 31C463.745 31 453 41.7452 453 55C453 68.2548 463.745 79 477 79H557C570.255 79 581 68.2548 581 55C581 41.7452 570.255 31 557 31H477Z" fill="#9A9A9A"/>
<path d="M514.136 51.7259V54.7079H518.868V56.2479H514.136V59.9999H512.316V50.1999H519.47V51.7259H514.136Z" fill="#484848"/>
<path d="M520.925 52.5239H522.675V59.9999H520.925V52.5239ZM521.807 51.2919C521.49 51.2919 521.224 51.1939 521.009 50.9979C520.795 50.7926 520.687 50.5406 520.687 50.2419C520.687 49.9432 520.795 49.6959 521.009 49.4999C521.224 49.2946 521.49 49.1919 521.807 49.1919C522.125 49.1919 522.391 49.2899 522.605 49.4859C522.82 49.6726 522.927 49.9106 522.927 50.1999C522.927 50.5079 522.82 50.7692 522.605 50.9839C522.4 51.1892 522.134 51.2919 521.807 51.2919Z" fill="#484848"/>
<path d="M524.972 49.6119H526.722V59.9999H524.972V49.6119Z" fill="#484848"/>
<path d="M533.882 59.5939C533.677 59.7619 533.425 59.8879 533.126 59.9719C532.837 60.0559 532.529 60.0979 532.202 60.0979C531.381 60.0979 530.746 59.8832 530.298 59.4539C529.85 59.0246 529.626 58.3992 529.626 57.5779V53.9799H528.394V52.5799H529.626V50.8719H531.376V52.5799H533.378V53.9799H531.376V57.5359C531.376 57.8999 531.465 58.1799 531.642 58.3759C531.82 58.5626 532.076 58.6559 532.412 58.6559C532.804 58.6559 533.131 58.5532 533.392 58.3479L533.882 59.5939Z" fill="#484848"/>
<path d="M542.104 56.3039C542.104 56.4252 542.094 56.5979 542.076 56.8219H536.21C536.312 57.3726 536.578 57.8112 537.008 58.1379C537.446 58.4552 537.988 58.6139 538.632 58.6139C539.453 58.6139 540.13 58.3432 540.662 57.8019L541.6 58.8799C541.264 59.2812 540.839 59.5846 540.326 59.7899C539.812 59.9952 539.234 60.0979 538.59 60.0979C537.768 60.0979 537.045 59.9346 536.42 59.6079C535.794 59.2812 535.309 58.8286 534.964 58.2499C534.628 57.6619 534.46 56.9992 534.46 56.2619C534.46 55.5339 534.623 54.8806 534.95 54.3019C535.286 53.7139 535.748 53.2566 536.336 52.9299C536.924 52.6032 537.586 52.4399 538.324 52.4399C539.052 52.4399 539.7 52.6032 540.27 52.9299C540.848 53.2472 541.296 53.6999 541.614 54.2879C541.94 54.8666 542.104 55.5386 542.104 56.3039ZM538.324 53.8399C537.764 53.8399 537.288 54.0079 536.896 54.3439C536.513 54.6706 536.28 55.1092 536.196 55.6599H540.438C540.363 55.1186 540.134 54.6799 539.752 54.3439C539.369 54.0079 538.893 53.8399 538.324 53.8399Z" fill="#484848"/>
<path d="M545.451 53.6159C545.955 52.8319 546.841 52.4399 548.111 52.4399V54.1059C547.961 54.0779 547.826 54.0639 547.705 54.0639C547.023 54.0639 546.491 54.2646 546.109 54.6659C545.726 55.0579 545.535 55.6272 545.535 56.3739V59.9999H543.785V52.5239H545.451V53.6159Z" fill="#484848"/>
<path d="M551.933 60.0979C551.326 60.0979 550.733 60.0186 550.155 59.8599C549.576 59.7012 549.114 59.5006 548.769 59.2579L549.441 57.9279C549.777 58.1519 550.178 58.3339 550.645 58.4739C551.121 58.6046 551.587 58.6699 552.045 58.6699C553.09 58.6699 553.613 58.3946 553.613 57.8439C553.613 57.5826 553.477 57.4006 553.207 57.2979C552.945 57.1952 552.521 57.0972 551.933 57.0039C551.317 56.9106 550.813 56.8032 550.421 56.6819C550.038 56.5606 549.702 56.3506 549.413 56.0519C549.133 55.7439 548.993 55.3192 548.993 54.7779C548.993 54.0686 549.287 53.5039 549.875 53.0839C550.472 52.6546 551.275 52.4399 552.283 52.4399C552.796 52.4399 553.309 52.5006 553.823 52.6219C554.336 52.7339 554.756 52.8879 555.083 53.0839L554.411 54.4139C553.776 54.0406 553.062 53.8539 552.269 53.8539C551.755 53.8539 551.363 53.9332 551.093 54.0919C550.831 54.2412 550.701 54.4419 550.701 54.6939C550.701 54.9739 550.841 55.1746 551.121 55.2959C551.41 55.4079 551.853 55.5152 552.451 55.6179C553.048 55.7112 553.538 55.8186 553.921 55.9399C554.303 56.0612 554.63 56.2666 554.901 56.5559C555.181 56.8452 555.321 57.2559 555.321 57.7879C555.321 58.4879 555.017 59.0479 554.411 59.4679C553.804 59.8879 552.978 60.0979 551.933 60.0979Z" fill="#484848"/>
<path fill-rule="evenodd" clip-rule="evenodd" d="M489.542 44.9346C490.094 44.9346 490.542 45.3823 490.542 45.9346V50.1153C490.542 50.6676 490.094 51.1153 489.542 51.1153C488.989 51.1153 488.542 50.6676 488.542 50.1153V49.0249H479C478.448 49.0249 478 48.5772 478 48.0249C478 47.4727 478.448 47.0249 479 47.0249H488.542V45.9346C488.542 45.3823 488.989 44.9346 489.542 44.9346ZM492.375 48.0249C492.375 47.4727 492.823 47.0249 493.375 47.0249H496.25C496.802 47.0249 497.25 47.4727 497.25 48.0249C497.25 48.5772 496.802 49.0249 496.25 49.0249H493.375C492.823 49.0249 492.375 48.5772 492.375 48.0249ZM486.667 52.2509C487.219 52.2509 487.667 52.6986 487.667 53.2509V54.3412H497.208C497.761 54.3412 498.208 54.7889 498.208 55.3412C498.208 55.8935 497.761 56.3412 497.208 56.3412H487.667V57.4316C487.667 57.9839 487.219 58.4316 486.667 58.4316C486.114 58.4316 485.667 57.9839 485.667 57.4316V53.2509C485.667 52.6986 486.114 52.2509 486.667 52.2509ZM478 55.3412C478 54.7889 478.448 54.3412 479 54.3412H482.833C483.386 54.3412 483.833 54.7889 483.833 55.3412C483.833 55.8935 483.386 56.3412 482.833 56.3412H479C478.448 56.3412 478 55.8935 478 55.3412ZM489.542 59.5672C490.094 59.5672 490.542 60.0149 490.542 60.5672V64.7479C490.542 65.3002 490.094 65.7479 489.542 65.7479C488.989 65.7479 488.542 65.3002 488.542 64.7479V63.6575H479C478.448 63.6575 478 63.2098 478 62.6575C478 62.1052 478.448 61.6575 479 61.6575H488.542V60.5672C488.542 60.0149 488.989 59.5672 489.542 59.5672ZM492.375 62.6575C492.375 62.1052 492.823 61.6575 493.375 61.6575H496.25C496.802 61.6575 497.25 62.1052 497.25 62.6575C497.25 63.2098 496.802 63.6575 496.25 63.6575H493.375C492.823 63.6575 492.375 63.2098 492.375 62.6575Z" fill="#484848"/>
<path d="M7 62C7 52.6112 14.6112 45 24 45H140C149.389 45 157 52.6112 157 62C157 71.3888 149.389 79 140 79H24C14.6112 79 7 71.3888 7 62Z" fill="#9A9A9A"/>
<path d="M139.174 61.384L142.754 57.4882C142.911 57.3172 142.999 57.0853 142.999 56.8435C142.999 56.6016 142.911 56.3697 142.754 56.1987C142.597 56.0277 142.384 55.9316 142.163 55.9316C141.941 55.9316 141.728 56.0277 141.572 56.1987L138 60.1036L134.428 56.1987C134.272 56.0277 134.059 55.9316 133.837 55.9316C133.616 55.9316 133.403 56.0277 133.246 56.1987C133.089 56.3697 133.001 56.6016 133.001 56.8435C133.001 57.0853 133.089 57.3172 133.246 57.4882L136.826 61.384L133.246 65.2798C133.168 65.3642 133.106 65.4646 133.064 65.5753C133.022 65.6859 133 65.8046 133 65.9245C133 66.0444 133.022 66.1631 133.064 66.2738C133.106 66.3844 133.168 66.4849 133.246 66.5693C133.324 66.6544 133.416 66.7219 133.517 66.7681C133.619 66.8142 133.727 66.8379 133.837 66.8379C133.947 66.8379 134.056 66.8142 134.158 66.7681C134.259 66.7219 134.351 66.6544 134.428 66.5693L138 62.6644L141.572 66.5693C141.649 66.6544 141.741 66.7219 141.842 66.7681C141.944 66.8142 142.053 66.8379 142.163 66.8379C142.273 66.8379 142.381 66.8142 142.483 66.7681C142.584 66.7219 142.676 66.6544 142.754 66.5693C142.832 66.4849 142.894 66.3844 142.936 66.2738C142.978 66.1631 143 66.0444 143 65.9245C143 65.8046 142.978 65.6859 142.936 65.5753C142.894 65.4646 142.832 65.3642 142.754 65.2798L139.174 61.384Z" fill="#484848"/>
<path d="M24.928 66.0001V58.6441H22.048V57.6001H28.996V58.6441H26.116V66.0001H24.928Z" fill="white"/>
<path d="M32.2027 66.0721C31.5627 66.0721 30.9947 65.9321 30.4987 65.6521C30.0027 65.3721 29.6107 64.9881 29.3227 64.5001C29.0347 64.0041 28.8907 63.4441 28.8907 62.8201C28.8907 62.1881 29.0347 61.6281 29.3227 61.1401C29.6107 60.6521 30.0027 60.2721 30.4987 60.0001C30.9947 59.7201 31.5627 59.5801 32.2027 59.5801C32.8347 59.5801 33.3987 59.7201 33.8947 60.0001C34.3987 60.2721 34.7907 60.6521 35.0707 61.1401C35.3587 61.6201 35.5027 62.1801 35.5027 62.8201C35.5027 63.4521 35.3587 64.0121 35.0707 64.5001C34.7907 64.9881 34.3987 65.3721 33.8947 65.6521C33.3987 65.9321 32.8347 66.0721 32.2027 66.0721ZM32.2027 65.0641C32.6107 65.0641 32.9747 64.9721 33.2947 64.7881C33.6227 64.6041 33.8787 64.3441 34.0627 64.0081C34.2467 63.6641 34.3387 63.2681 34.3387 62.8201C34.3387 62.3641 34.2467 61.9721 34.0627 61.6441C33.8787 61.3081 33.6227 61.0481 33.2947 60.8641C32.9747 60.6801 32.6107 60.5881 32.2027 60.5881C31.7947 60.5881 31.4307 60.6801 31.1107 60.8641C30.7907 61.0481 30.5347 61.3081 30.3427 61.6441C30.1507 61.9721 30.0547 62.3641 30.0547 62.8201C30.0547 63.2681 30.1507 63.6641 30.3427 64.0081C30.5347 64.3441 30.7907 64.6041 31.1107 64.7881C31.4307 64.9721 31.7947 65.0641 32.2027 65.0641Z" fill="white"/>
<path d="M37.0959 66.0001V59.6401H38.1999V61.3681L38.0919 60.9361C38.2679 60.4961 38.5639 60.1601 38.9799 59.9281C39.3959 59.6961 39.9079 59.5801 40.5159 59.5801V60.6961C40.4679 60.6881 40.4199 60.6841 40.3719 60.6841C40.3319 60.6841 40.2919 60.6841 40.2519 60.6841C39.6359 60.6841 39.1479 60.8681 38.7879 61.2361C38.4279 61.6041 38.2479 62.1361 38.2479 62.8321V66.0001H37.0959Z" fill="white"/>
<path d="M44.6011 66.0721C43.9611 66.0721 43.3931 65.9321 42.8971 65.6521C42.4011 65.3721 42.0091 64.9881 41.7211 64.5001C41.4331 64.0041 41.2891 63.4441 41.2891 62.8201C41.2891 62.1881 41.4331 61.6281 41.7211 61.1401C42.0091 60.6521 42.4011 60.2721 42.8971 60.0001C43.3931 59.7201 43.9611 59.5801 44.6011 59.5801C45.2331 59.5801 45.7971 59.7201 46.2931 60.0001C46.7971 60.2721 47.1891 60.6521 47.4691 61.1401C47.7571 61.6201 47.9011 62.1801 47.9011 62.8201C47.9011 63.4521 47.7571 64.0121 47.4691 64.5001C47.1891 64.9881 46.7971 65.3721 46.2931 65.6521C45.7971 65.9321 45.2331 66.0721 44.6011 66.0721ZM44.6011 65.0641C45.0091 65.0641 45.3731 64.9721 45.6931 64.7881C46.0211 64.6041 46.2771 64.3441 46.4611 64.0081C46.6451 63.6641 46.7371 63.2681 46.7371 62.8201C46.7371 62.3641 46.6451 61.9721 46.4611 61.6441C46.2771 61.3081 46.0211 61.0481 45.6931 60.8641C45.3731 60.6801 45.0091 60.5881 44.6011 60.5881C44.1931 60.5881 43.8291 60.6801 43.5091 60.8641C43.1891 61.0481 42.9331 61.3081 42.7411 61.6441C42.5491 61.9721 42.4531 62.3641 42.4531 62.8201C42.4531 63.2681 42.5491 63.6641 42.7411 64.0081C42.9331 64.3441 43.1891 64.6041 43.5091 64.7881C43.8291 64.9721 44.1931 65.0641 44.6011 65.0641Z" fill="white"/>
<path d="M52.8903 59.5801C53.4103 59.5801 53.8663 59.6801 54.2583 59.8801C54.6583 60.0801 54.9703 60.3841 55.1943 60.7921C55.4183 61.2001 55.5303 61.7161 55.5303 62.3401V66.0001H54.3783V62.4721C54.3783 61.8561 54.2263 61.3921 53.9223 61.0801C53.6263 60.7681 53.2063 60.6121 52.6623 60.6121C52.2543 60.6121 51.8983 60.6921 51.5943 60.8521C51.2903 61.0121 51.0543 61.2481 50.8863 61.5601C50.7263 61.8721 50.6463 62.2601 50.6463 62.7241V66.0001H49.4943V59.6401H50.5983V61.3561L50.4183 60.9001C50.6263 60.4841 50.9463 60.1601 51.3783 59.9281C51.8103 59.6961 52.3143 59.5801 52.8903 59.5801Z" fill="white"/>
<path d="M59.8463 66.0721C59.2063 66.0721 58.7103 65.9001 58.3583 65.5561C58.0063 65.2121 57.8303 64.7201 57.8303 64.0801V58.2481H58.9823V64.0321C58.9823 64.3761 59.0663 64.6401 59.2343 64.8241C59.4103 65.0081 59.6583 65.1001 59.9783 65.1001C60.3383 65.1001 60.6383 65.0001 60.8783 64.8001L61.2383 65.6281C61.0623 65.7801 60.8503 65.8921 60.6023 65.9641C60.3623 66.0361 60.1103 66.0721 59.8463 66.0721ZM56.7503 60.5881V59.6401H60.8063V60.5881H56.7503Z" fill="white"/>
<path d="M65.1441 66.0721C64.5041 66.0721 63.9361 65.9321 63.4401 65.6521C62.9441 65.3721 62.5521 64.9881 62.2641 64.5001C61.9761 64.0041 61.8321 63.4441 61.8321 62.8201C61.8321 62.1881 61.9761 61.6281 62.2641 61.1401C62.5521 60.6521 62.9441 60.2721 63.4401 60.0001C63.9361 59.7201 64.5041 59.5801 65.1441 59.5801C65.7761 59.5801 66.3401 59.7201 66.8361 60.0001C67.3401 60.2721 67.7321 60.6521 68.0121 61.1401C68.3001 61.6201 68.4441 62.1801 68.4441 62.8201C68.4441 63.4521 68.3001 64.0121 68.0121 64.5001C67.7321 64.9881 67.3401 65.3721 66.8361 65.6521C66.3401 65.9321 65.7761 66.0721 65.1441 66.0721ZM65.1441 65.0641C65.5521 65.0641 65.9161 64.9721 66.2361 64.7881C66.5641 64.6041 66.8201 64.3441 67.0041 64.0081C67.1881 63.6641 67.2801 63.2681 67.2801 62.8201C67.2801 62.3641 67.1881 61.9721 67.0041 61.6441C66.8201 61.3081 66.5641 61.0481 66.2361 60.8641C65.9161 60.6801 65.5521 60.5881 65.1441 60.5881C64.7361 60.5881 64.3721 60.6801 64.0521 60.8641C63.7321 61.0481 63.4761 61.3081 63.2841 61.6441C63.0921 61.9721 62.9961 62.3641 62.9961 62.8201C62.9961 63.2681 63.0921 63.6641 63.2841 64.0081C63.4761 64.3441 63.7321 64.6041 64.0521 64.7881C64.3721 64.9721 64.7361 65.0641 65.1441 65.0641Z" fill="white"/>
<path d="M166 62C166 52.6112 173.611 45 183 45H268C277.389 45 285 52.6112 285 62C285 71.3888 277.389 79 268 79H183C173.611 79 166 71.3888 166 62Z" fill="#9A9A9A"/>
<path d="M265.174 61.384L268.754 57.4882C268.911 57.3172 268.999 57.0853 268.999 56.8435C268.999 56.6016 268.911 56.3697 268.754 56.1987C268.597 56.0277 268.384 55.9316 268.163 55.9316C267.941 55.9316 267.728 56.0277 267.572 56.1987L264 60.1036L260.428 56.1987C260.272 56.0277 260.059 55.9316 259.837 55.9316C259.616 55.9316 259.403 56.0277 259.246 56.1987C259.089 56.3697 259.001 56.6016 259.001 56.8435C259.001 57.0853 259.089 57.3172 259.246 57.4882L262.826 61.384L259.246 65.2798C259.168 65.3642 259.106 65.4646 259.064 65.5753C259.022 65.6859 259 65.8046 259 65.9245C259 66.0444 259.022 66.1631 259.064 66.2738C259.106 66.3844 259.168 66.4849 259.246 66.5693C259.324 66.6544 259.416 66.7219 259.517 66.7681C259.619 66.8142 259.727 66.8379 259.837 66.8379C259.947 66.8379 260.056 66.8142 260.158 66.7681C260.259 66.7219 260.351 66.6544 260.428 66.5693L264 62.6644L267.572 66.5693C267.649 66.6544 267.741 66.7219 267.842 66.7681C267.944 66.8142 268.053 66.8379 268.163 66.8379C268.273 66.8379 268.381 66.8142 268.483 66.7681C268.584 66.7219 268.676 66.6544 268.754 66.5693C268.832 66.4849 268.894 66.3844 268.936 66.2738C268.978 66.1631 269 66.0444 269 65.9245C269 65.8046 268.978 65.6859 268.936 65.5753C268.894 65.4646 268.832 65.3642 268.754 65.2798L265.174 61.384Z" fill="#484848"/>
<path d="M182.992 66V58.08L183.508 58.644H181.096V57.6H184.18V66H182.992Z" fill="white"/>
<path d="M189.449 66.096C188.793 66.096 188.205 65.928 187.685 65.592C187.173 65.256 186.765 64.768 186.461 64.128C186.165 63.488 186.017 62.712 186.017 61.8C186.017 60.888 186.165 60.112 186.461 59.472C186.765 58.832 187.173 58.344 187.685 58.008C188.205 57.672 188.793 57.504 189.449 57.504C190.097 57.504 190.681 57.672 191.201 58.008C191.721 58.344 192.129 58.832 192.425 59.472C192.721 60.112 192.869 60.888 192.869 61.8C192.869 62.712 192.721 63.488 192.425 64.128C192.129 64.768 191.721 65.256 191.201 65.592C190.681 65.928 190.097 66.096 189.449 66.096ZM189.449 65.028C189.889 65.028 190.273 64.908 190.601 64.668C190.937 64.428 191.197 64.068 191.381 63.588C191.573 63.108 191.669 62.512 191.669 61.8C191.669 61.088 191.573 60.492 191.381 60.012C191.197 59.532 190.937 59.172 190.601 58.932C190.273 58.692 189.889 58.572 189.449 58.572C189.009 58.572 188.621 58.692 188.285 58.932C187.949 59.172 187.685 59.532 187.493 60.012C187.309 60.492 187.217 61.088 187.217 61.8C187.217 62.512 187.309 63.108 187.493 63.588C187.685 64.068 187.949 64.428 188.285 64.668C188.621 64.908 189.009 65.028 189.449 65.028Z" fill="white"/>
<path d="M192.875 67.2L196.835 55.896H197.879L193.919 67.2H192.875Z" fill="white"/>
<path d="M197.874 66V65.184L201.294 61.884C201.598 61.596 201.822 61.344 201.966 61.128C202.118 60.904 202.218 60.7 202.266 60.516C202.322 60.324 202.35 60.14 202.35 59.964C202.35 59.532 202.198 59.192 201.894 58.944C201.59 58.696 201.146 58.572 200.562 58.572C200.114 58.572 199.71 58.648 199.35 58.8C198.99 58.944 198.678 59.172 198.414 59.484L197.598 58.776C197.918 58.368 198.346 58.056 198.882 57.84C199.426 57.616 200.022 57.504 200.67 57.504C201.254 57.504 201.762 57.6 202.194 57.792C202.626 57.976 202.958 58.244 203.19 58.596C203.43 58.948 203.55 59.364 203.55 59.844C203.55 60.116 203.514 60.384 203.442 60.648C203.37 60.912 203.234 61.192 203.034 61.488C202.834 61.784 202.546 62.116 202.17 62.484L199.122 65.424L198.834 64.956H203.91V66H197.874Z" fill="white"/>
<path d="M208.413 66.096C207.669 66.096 207.033 65.932 206.505 65.604C205.977 65.276 205.573 64.804 205.293 64.188C205.021 63.564 204.885 62.804 204.885 61.908C204.885 60.956 205.053 60.152 205.389 59.496C205.725 58.84 206.193 58.344 206.793 58.008C207.393 57.672 208.081 57.504 208.857 57.504C209.257 57.504 209.637 57.544 209.997 57.624C210.365 57.704 210.681 57.828 210.945 57.996L210.489 58.932C210.273 58.78 210.025 58.676 209.745 58.62C209.473 58.564 209.185 58.536 208.881 58.536C208.025 58.536 207.345 58.804 206.841 59.34C206.337 59.868 206.085 60.656 206.085 61.704C206.085 61.872 206.093 62.072 206.109 62.304C206.125 62.536 206.165 62.764 206.229 62.988L205.821 62.58C205.941 62.212 206.129 61.904 206.385 61.656C206.649 61.4 206.961 61.212 207.321 61.092C207.689 60.964 208.085 60.9 208.509 60.9C209.069 60.9 209.565 61.004 209.997 61.212C210.429 61.42 210.769 61.716 211.017 62.1C211.265 62.476 211.389 62.924 211.389 63.444C211.389 63.98 211.257 64.448 210.993 64.848C210.729 65.248 210.373 65.556 209.925 65.772C209.477 65.988 208.973 66.096 208.413 66.096ZM208.365 65.124C208.733 65.124 209.053 65.056 209.325 64.92C209.605 64.784 209.825 64.596 209.985 64.356C210.145 64.108 210.225 63.82 210.225 63.492C210.225 62.996 210.053 62.604 209.709 62.316C209.365 62.02 208.897 61.872 208.305 61.872C207.921 61.872 207.585 61.944 207.297 62.088C207.009 62.232 206.781 62.428 206.613 62.676C206.453 62.916 206.373 63.192 206.373 63.504C206.373 63.792 206.449 64.06 206.601 64.308C206.753 64.548 206.977 64.744 207.273 64.896C207.569 65.048 207.933 65.124 208.365 65.124Z" fill="white"/>
<path d="M211.496 67.2L215.456 55.896H216.5L212.54 67.2H211.496Z" fill="white"/>
<path d="M216.495 66V65.184L219.915 61.884C220.219 61.596 220.443 61.344 220.587 61.128C220.739 60.904 220.839 60.7 220.887 60.516C220.943 60.324 220.971 60.14 220.971 59.964C220.971 59.532 220.819 59.192 220.515 58.944C220.211 58.696 219.767 58.572 219.183 58.572C218.735 58.572 218.331 58.648 217.971 58.8C217.611 58.944 217.299 59.172 217.035 59.484L216.219 58.776C216.539 58.368 216.967 58.056 217.503 57.84C218.047 57.616 218.643 57.504 219.291 57.504C219.875 57.504 220.383 57.6 220.815 57.792C221.247 57.976 221.579 58.244 221.811 58.596C222.051 58.948 222.171 59.364 222.171 59.844C222.171 60.116 222.135 60.384 222.063 60.648C221.991 60.912 221.855 61.192 221.655 61.488C221.455 61.784 221.167 62.116 220.791 62.484L217.743 65.424L217.455 64.956H222.531V66H216.495Z" fill="white"/>
<path d="M226.938 66.096C226.282 66.096 225.694 65.928 225.174 65.592C224.662 65.256 224.254 64.768 223.95 64.128C223.654 63.488 223.506 62.712 223.506 61.8C223.506 60.888 223.654 60.112 223.95 59.472C224.254 58.832 224.662 58.344 225.174 58.008C225.694 57.672 226.282 57.504 226.938 57.504C227.586 57.504 228.17 57.672 228.69 58.008C229.21 58.344 229.618 58.832 229.914 59.472C230.21 60.112 230.358 60.888 230.358 61.8C230.358 62.712 230.21 63.488 229.914 64.128C229.618 64.768 229.21 65.256 228.69 65.592C228.17 65.928 227.586 66.096 226.938 66.096ZM226.938 65.028C227.378 65.028 227.762 64.908 228.09 64.668C228.426 64.428 228.686 64.068 228.87 63.588C229.062 63.108 229.158 62.512 229.158 61.8C229.158 61.088 229.062 60.492 228.87 60.012C228.686 59.532 228.426 59.172 228.09 58.932C227.762 58.692 227.378 58.572 226.938 58.572C226.498 58.572 226.11 58.692 225.774 58.932C225.438 59.172 225.174 59.532 224.982 60.012C224.798 60.492 224.706 61.088 224.706 61.8C224.706 62.512 224.798 63.108 224.982 63.588C225.174 64.068 225.438 64.428 225.774 64.668C226.11 64.908 226.498 65.028 226.938 65.028Z" fill="white"/>
<path d="M231.378 66V65.184L234.798 61.884C235.102 61.596 235.326 61.344 235.47 61.128C235.622 60.904 235.722 60.7 235.77 60.516C235.826 60.324 235.854 60.14 235.854 59.964C235.854 59.532 235.702 59.192 235.398 58.944C235.094 58.696 234.65 58.572 234.066 58.572C233.618 58.572 233.214 58.648 232.854 58.8C232.494 58.944 232.182 59.172 231.918 59.484L231.102 58.776C231.422 58.368 231.85 58.056 232.386 57.84C232.93 57.616 233.526 57.504 234.174 57.504C234.758 57.504 235.266 57.6 235.698 57.792C236.13 57.976 236.462 58.244 236.694 58.596C236.934 58.948 237.054 59.364 237.054 59.844C237.054 60.116 237.018 60.384 236.946 60.648C236.874 60.912 236.738 61.192 236.538 61.488C236.338 61.784 236.05 62.116 235.674 62.484L232.626 65.424L232.338 64.956H237.414V66H231.378Z" fill="white"/>
<path d="M240.968 66.096C240.376 66.096 239.8 66.004 239.24 65.82C238.688 65.636 238.236 65.388 237.884 65.076L238.436 64.128C238.716 64.392 239.08 64.608 239.528 64.776C239.976 64.944 240.456 65.028 240.968 65.028C241.592 65.028 242.076 64.896 242.42 64.632C242.772 64.36 242.948 63.996 242.948 63.54C242.948 63.1 242.78 62.748 242.444 62.484C242.116 62.212 241.592 62.076 240.872 62.076H240.2V61.236L242.696 58.164L242.864 58.644H238.268V57.6H243.812V58.416L241.328 61.476L240.704 61.104H241.1C242.116 61.104 242.876 61.332 243.38 61.788C243.892 62.244 244.148 62.824 244.148 63.528C244.148 64 244.032 64.432 243.8 64.824C243.568 65.216 243.216 65.528 242.744 65.76C242.28 65.984 241.688 66.096 240.968 66.096Z" fill="white"/>
<path d="M294 62C294 52.6112 301.611 45 311 45H402C411.389 45 419 52.6112 419 62C419 71.3888 411.389 79 402 79H311C301.611 79 294 71.3888 294 62Z" fill="#9A9A9A"/>
<path d="M400.174 61.384L403.754 57.4882C403.911 57.3172 403.999 57.0853 403.999 56.8435C403.999 56.6016 403.911 56.3697 403.754 56.1987C403.597 56.0277 403.384 55.9316 403.163 55.9316C402.941 55.9316 402.728 56.0277 402.572 56.1987L399 60.1036L395.428 56.1987C395.272 56.0277 395.059 55.9316 394.837 55.9316C394.616 55.9316 394.403 56.0277 394.246 56.1987C394.089 56.3697 394.001 56.6016 394.001 56.8435C394.001 57.0853 394.089 57.3172 394.246 57.4882L397.826 61.384L394.246 65.2798C394.168 65.3642 394.106 65.4646 394.064 65.5753C394.022 65.6859 394 65.8046 394 65.9245C394 66.0444 394.022 66.1631 394.064 66.2738C394.106 66.3844 394.168 66.4849 394.246 66.5693C394.324 66.6544 394.416 66.7219 394.517 66.7681C394.619 66.8142 394.727 66.8379 394.837 66.8379C394.947 66.8379 395.056 66.8142 395.158 66.7681C395.259 66.7219 395.351 66.6544 395.428 66.5693L399 62.6644L402.572 66.5693C402.649 66.6544 402.741 66.7219 402.842 66.7681C402.944 66.8142 403.053 66.8379 403.163 66.8379C403.273 66.8379 403.381 66.8142 403.483 66.7681C403.584 66.7219 403.676 66.6544 403.754 66.5693C403.832 66.4849 403.894 66.3844 403.936 66.2738C403.978 66.1631 404 66.0444 404 65.9245C404 65.8046 403.978 65.6859 403.936 65.5753C403.894 65.4646 403.832 65.3642 403.754 65.2798L400.174 61.384Z" fill="#484848"/>
<path d="M310.26 66V57.6H311.46V66H310.26Z" fill="white"/>
<path d="M315.991 66.072C315.351 66.072 314.855 65.9 314.503 65.556C314.151 65.212 313.975 64.72 313.975 64.08V58.248H315.127V64.032C315.127 64.376 315.211 64.64 315.379 64.824C315.555 65.008 315.803 65.1 316.123 65.1C316.483 65.1 316.783 65 317.023 64.8L317.383 65.628C317.207 65.78 316.995 65.892 316.747 65.964C316.507 66.036 316.255 66.072 315.991 66.072ZM312.895 60.588V59.64H316.951V60.588H312.895Z" fill="white"/>
<path d="M322.724 66V64.656L322.664 64.404V62.112C322.664 61.624 322.52 61.248 322.232 60.984C321.952 60.712 321.528 60.576 320.96 60.576C320.584 60.576 320.216 60.64 319.856 60.768C319.496 60.888 319.192 61.052 318.944 61.26L318.464 60.396C318.792 60.132 319.184 59.932 319.64 59.796C320.104 59.652 320.588 59.58 321.092 59.58C321.964 59.58 322.636 59.792 323.108 60.216C323.58 60.64 323.816 61.288 323.816 62.16V66H322.724ZM320.636 66.072C320.164 66.072 319.748 65.992 319.388 65.832C319.036 65.672 318.764 65.452 318.572 65.172C318.38 64.884 318.284 64.56 318.284 64.2C318.284 63.856 318.364 63.544 318.524 63.264C318.692 62.984 318.96 62.76 319.328 62.592C319.704 62.424 320.208 62.34 320.84 62.34H322.856V63.168H320.888C320.312 63.168 319.924 63.264 319.724 63.456C319.524 63.648 319.424 63.88 319.424 64.152C319.424 64.464 319.548 64.716 319.796 64.908C320.044 65.092 320.388 65.184 320.828 65.184C321.26 65.184 321.636 65.088 321.956 64.896C322.284 64.704 322.52 64.424 322.664 64.056L322.892 64.848C322.74 65.224 322.472 65.524 322.088 65.748C321.704 65.964 321.22 66.072 320.636 66.072Z" fill="white"/>
<path d="M325.947 66V57.096H327.099V66H325.947Z" fill="white"/>
<path d="M329.299 66V59.64H330.451V66H329.299ZM329.875 58.416C329.651 58.416 329.463 58.344 329.311 58.2C329.167 58.056 329.095 57.88 329.095 57.672C329.095 57.456 329.167 57.276 329.311 57.132C329.463 56.988 329.651 56.916 329.875 56.916C330.099 56.916 330.283 56.988 330.427 57.132C330.579 57.268 330.655 57.44 330.655 57.648C330.655 57.864 330.583 58.048 330.439 58.2C330.295 58.344 330.107 58.416 329.875 58.416Z" fill="white"/>
<path d="M336.599 66V64.656L336.539 64.404V62.112C336.539 61.624 336.395 61.248 336.107 60.984C335.827 60.712 335.403 60.576 334.835 60.576C334.459 60.576 334.091 60.64 333.731 60.768C333.371 60.888 333.067 61.052 332.819 61.26L332.339 60.396C332.667 60.132 333.059 59.932 333.515 59.796C333.979 59.652 334.463 59.58 334.967 59.58C335.839 59.58 336.511 59.792 336.983 60.216C337.455 60.64 337.691 61.288 337.691 62.16V66H336.599ZM334.511 66.072C334.039 66.072 333.623 65.992 333.263 65.832C332.911 65.672 332.639 65.452 332.447 65.172C332.255 64.884 332.159 64.56 332.159 64.2C332.159 63.856 332.239 63.544 332.399 63.264C332.567 62.984 332.835 62.76 333.203 62.592C333.579 62.424 334.083 62.34 334.715 62.34H336.731V63.168H334.763C334.187 63.168 333.799 63.264 333.599 63.456C333.399 63.648 333.299 63.88 333.299 64.152C333.299 64.464 333.423 64.716 333.671 64.908C333.919 65.092 334.263 65.184 334.703 65.184C335.135 65.184 335.511 65.088 335.831 64.896C336.159 64.704 336.395 64.424 336.539 64.056L336.767 64.848C336.615 65.224 336.347 65.524 335.963 65.748C335.579 65.964 335.095 66.072 334.511 66.072Z" fill="white"/>
<path d="M343.218 59.58C343.738 59.58 344.194 59.68 344.586 59.88C344.986 60.08 345.298 60.384 345.522 60.792C345.746 61.2 345.858 61.716 345.858 62.34V66H344.706V62.472C344.706 61.856 344.554 61.392 344.25 61.08C343.954 60.768 343.534 60.612 342.99 60.612C342.582 60.612 342.226 60.692 341.922 60.852C341.618 61.012 341.382 61.248 341.214 61.56C341.054 61.872 340.974 62.26 340.974 62.724V66H339.822V59.64H340.926V61.356L340.746 60.9C340.954 60.484 341.274 60.16 341.706 59.928C342.138 59.696 342.642 59.58 343.218 59.58Z" fill="white"/>
<path d="M10.528 23.9999V8.63989L12.208 10.3199H7.168V7.19989H14.416V23.9999H10.528Z" fill="#483332"/>
<path d="M24.5344 24.2879C23.1584 24.2879 21.9264 23.9519 20.8384 23.2799C19.7504 22.5919 18.8944 21.5999 18.2704 20.3039C17.6464 19.0079 17.3344 17.4399 17.3344 15.5999C17.3344 13.7599 17.6464 12.1919 18.2704 10.8959C18.8944 9.5999 19.7504 8.61589 20.8384 7.94389C21.9264 7.2559 23.1584 6.9119 24.5344 6.9119C25.9264 6.9119 27.1584 7.2559 28.2304 7.94389C29.3184 8.61589 30.1744 9.5999 30.7984 10.8959C31.4224 12.1919 31.7344 13.7599 31.7344 15.5999C31.7344 17.4399 31.4224 19.0079 30.7984 20.3039C30.1744 21.5999 29.3184 22.5919 28.2304 23.2799C27.1584 23.9519 25.9264 24.2879 24.5344 24.2879ZM24.5344 20.9999C25.1904 20.9999 25.7584 20.8159 26.2384 20.4479C26.7344 20.0799 27.1184 19.4959 27.3904 18.6959C27.6784 17.8959 27.8224 16.8639 27.8224 15.5999C27.8224 14.3359 27.6784 13.3039 27.3904 12.5039C27.1184 11.7039 26.7344 11.1199 26.2384 10.7519C25.7584 10.3839 25.1904 10.1999 24.5344 10.1999C23.8944 10.1999 23.3264 10.3839 22.8304 10.7519C22.3504 11.1199 21.9664 11.7039 21.6784 12.5039C21.4064 13.3039 21.2704 14.3359 21.2704 15.5999C21.2704 16.8639 21.4064 17.8959 21.6784 18.6959C21.9664 19.4959 22.3504 20.0799 22.8304 20.4479C23.3264 20.8159 23.8944 20.9999 24.5344 20.9999Z" fill="#483332"/>
<path d="M41.4764 23.9999V7.19989H48.7484C50.2524 7.19989 51.5484 7.44789 52.6364 7.94389C53.7244 8.42389 54.5644 9.11989 55.1564 10.0319C55.7484 10.9439 56.0444 12.0319 56.0444 13.2959C56.0444 14.5439 55.7484 15.6239 55.1564 16.5359C54.5644 17.4319 53.7244 18.1199 52.6364 18.5999C51.5484 19.0799 50.2524 19.3199 48.7484 19.3199H43.6364L45.3644 17.6159V23.9999H41.4764ZM52.1564 23.9999L47.9564 17.9039H52.1084L56.3564 23.9999H52.1564ZM45.3644 18.0479L43.6364 16.2239H48.5324C49.7324 16.2239 50.6284 15.9679 51.2204 15.4559C51.8124 14.9279 52.1084 14.2079 52.1084 13.2959C52.1084 12.3679 51.8124 11.6479 51.2204 11.1359C50.6284 10.6239 49.7324 10.3679 48.5324 10.3679H43.6364L45.3644 8.51989V18.0479Z" fill="#483332"/>
<path d="M65.2688 24.1919C63.7968 24.1919 62.5008 23.9039 61.3808 23.3279C60.2768 22.7519 59.4208 21.9679 58.8128 20.9759C58.2048 19.9679 57.9008 18.8239 57.9008 17.5439C57.9008 16.2479 58.1968 15.1039 58.7888 14.1119C59.3968 13.1039 60.2208 12.3199 61.2608 11.7599C62.3008 11.1839 63.4768 10.8959 64.7888 10.8959C66.0528 10.8959 67.1888 11.1679 68.1968 11.7119C69.2208 12.2399 70.0288 13.0079 70.6208 14.0159C71.2128 15.0079 71.5088 16.1999 71.5088 17.5919C71.5088 17.7359 71.5008 17.9039 71.4848 18.0959C71.4688 18.2719 71.4528 18.4399 71.4368 18.5999H60.9488V16.4159H69.4688L68.0288 17.0639C68.0288 16.3919 67.8928 15.8079 67.6208 15.3119C67.3488 14.8159 66.9728 14.4319 66.4928 14.1599C66.0128 13.8719 65.4528 13.7279 64.8128 13.7279C64.1728 13.7279 63.6048 13.8719 63.1088 14.1599C62.6288 14.4319 62.2528 14.8239 61.9808 15.3359C61.7088 15.8319 61.5728 16.4239 61.5728 17.1119V17.6879C61.5728 18.3919 61.7248 19.0159 62.0288 19.5599C62.3488 20.0879 62.7888 20.4959 63.3488 20.7839C63.9248 21.0559 64.5968 21.1919 65.3648 21.1919C66.0528 21.1919 66.6528 21.0879 67.1648 20.8799C67.6928 20.6719 68.1728 20.3599 68.6048 19.9439L70.5968 22.1039C70.0048 22.7759 69.2608 23.2959 68.3648 23.6639C67.4688 24.0159 66.4368 24.1919 65.2688 24.1919Z" fill="#483332"/>
<path d="M78.3454 24.1919C77.2414 24.1919 76.1774 24.0639 75.1534 23.8079C74.1454 23.5359 73.3454 23.1999 72.7534 22.7999L74.0014 20.1119C74.5934 20.4799 75.2894 20.7839 76.0894 21.0239C76.9054 21.2479 77.7054 21.3599 78.4894 21.3599C79.3534 21.3599 79.9614 21.2559 80.3134 21.0479C80.6814 20.8399 80.8654 20.5519 80.8654 20.1839C80.8654 19.8799 80.7214 19.6559 80.4334 19.5119C80.1614 19.3519 79.7934 19.2319 79.3294 19.1519C78.8654 19.0719 78.3534 18.9919 77.7934 18.9119C77.2494 18.8319 76.6974 18.7279 76.1374 18.5999C75.5774 18.4559 75.0654 18.2479 74.6014 17.9759C74.1374 17.7039 73.7614 17.3359 73.4734 16.8719C73.2014 16.4079 73.0654 15.8079 73.0654 15.0719C73.0654 14.2559 73.2974 13.5359 73.7614 12.9119C74.2414 12.2879 74.9294 11.7999 75.8254 11.4479C76.7214 11.0799 77.7934 10.8959 79.0414 10.8959C79.9214 10.8959 80.8174 10.9919 81.7294 11.1839C82.6414 11.3759 83.4014 11.6559 84.0094 12.0239L82.7614 14.6879C82.1374 14.3199 81.5054 14.0719 80.8654 13.9439C80.2414 13.7999 79.6334 13.7279 79.0414 13.7279C78.2094 13.7279 77.6014 13.8399 77.2174 14.0639C76.8334 14.2879 76.6414 14.5759 76.6414 14.9279C76.6414 15.2479 76.7774 15.4879 77.0494 15.6479C77.3374 15.8079 77.7134 15.9359 78.1774 16.0319C78.6414 16.1279 79.1454 16.2159 79.6894 16.2959C80.2494 16.3599 80.8094 16.4639 81.3694 16.6079C81.9294 16.7519 82.4334 16.9599 82.8814 17.2319C83.3454 17.4879 83.7214 17.8479 84.0094 18.3119C84.2974 18.7599 84.4414 19.3519 84.4414 20.0879C84.4414 20.8879 84.2014 21.5999 83.7214 22.2239C83.2414 22.8319 82.5454 23.3119 81.6334 23.6639C80.7374 24.0159 79.6414 24.1919 78.3454 24.1919Z" fill="#483332"/>
<path d="M92.1994 24.1919C91.1274 24.1919 90.1674 23.9839 89.3194 23.5679C88.4874 23.1519 87.8394 22.5199 87.3754 21.6719C86.9114 20.8079 86.6794 19.7119 86.6794 18.3839V11.0879H90.4234V17.8319C90.4234 18.9039 90.6474 19.6959 91.0954 20.2079C91.5594 20.7039 92.2074 20.9519 93.0394 20.9519C93.6154 20.9519 94.1274 20.8319 94.5754 20.5919C95.0234 20.3359 95.3754 19.9519 95.6314 19.4399C95.8874 18.9119 96.0154 18.2559 96.0154 17.4719V11.0879H99.7594V23.9999H96.2074V20.4479L96.8554 21.4799C96.4234 22.3759 95.7834 23.0559 94.9354 23.5199C94.1034 23.9679 93.1914 24.1919 92.1994 24.1919Z" fill="#483332"/>
<path d="M103.228 23.9999V6.19189H106.972V23.9999H103.228Z" fill="#483332"/>
<path d="M116.688 24.1919C115.168 24.1919 113.984 23.8079 113.136 23.0399C112.288 22.2559 111.864 21.0959 111.864 19.5599V8.2319H115.608V19.5119C115.608 20.0559 115.752 20.4799 116.04 20.7839C116.328 21.0719 116.72 21.2159 117.216 21.2159C117.808 21.2159 118.312 21.0559 118.728 20.7359L119.736 23.3759C119.352 23.6479 118.888 23.8559 118.344 23.9999C117.816 24.1279 117.264 24.1919 116.688 24.1919ZM109.872 14.2559V11.3759H118.824V14.2559H109.872Z" fill="#483332"/>
<path d="M126.181 24.1919C125.077 24.1919 124.013 24.0639 122.989 23.8079C121.981 23.5359 121.181 23.1999 120.589 22.7999L121.837 20.1119C122.429 20.4799 123.125 20.7839 123.925 21.0239C124.741 21.2479 125.541 21.3599 126.325 21.3599C127.189 21.3599 127.797 21.2559 128.149 21.0479C128.517 20.8399 128.701 20.5519 128.701 20.1839C128.701 19.8799 128.557 19.6559 128.269 19.5119C127.997 19.3519 127.629 19.2319 127.165 19.1519C126.701 19.0719 126.189 18.9919 125.629 18.9119C125.085 18.8319 124.533 18.7279 123.973 18.5999C123.413 18.4559 122.901 18.2479 122.437 17.9759C121.973 17.7039 121.597 17.3359 121.309 16.8719C121.037 16.4079 120.901 15.8079 120.901 15.0719C120.901 14.2559 121.133 13.5359 121.597 12.9119C122.077 12.2879 122.765 11.7999 123.661 11.4479C124.557 11.0799 125.629 10.8959 126.877 10.8959C127.757 10.8959 128.653 10.9919 129.565 11.1839C130.477 11.3759 131.237 11.6559 131.845 12.0239L130.597 14.6879C129.973 14.3199 129.341 14.0719 128.701 13.9439C128.077 13.7999 127.469 13.7279 126.877 13.7279C126.045 13.7279 125.437 13.8399 125.053 14.0639C124.669 14.2879 124.477 14.5759 124.477 14.9279C124.477 15.2479 124.613 15.4879 124.885 15.6479C125.173 15.8079 125.549 15.9359 126.013 16.0319C126.477 16.1279 126.981 16.2159 127.525 16.2959C128.085 16.3599 128.645 16.4639 129.205 16.6079C129.765 16.7519 130.269 16.9599 130.717 17.2319C131.181 17.4879 131.557 17.8479 131.845 18.3119C132.133 18.7599 132.277 19.3519 132.277 20.0879C132.277 20.8879 132.037 21.5999 131.557 22.2239C131.077 22.8319 130.381 23.3119 129.469 23.6639C128.573 24.0159 127.477 24.1919 126.181 24.1919Z" fill="#483332"/>
<path d="M145.248 14.7599H153.312V17.8799H145.248V14.7599ZM145.536 23.9999H141.648V7.19989H154.344V10.3199H145.536V23.9999Z" fill="#483332"/>
<path d="M162.552 24.1919C161.176 24.1919 159.952 23.9039 158.88 23.3279C157.824 22.7519 156.984 21.9679 156.36 20.9759C155.752 19.9679 155.448 18.8239 155.448 17.5439C155.448 16.2479 155.752 15.1039 156.36 14.1119C156.984 13.1039 157.824 12.3199 158.88 11.7599C159.952 11.1839 161.176 10.8959 162.552 10.8959C163.912 10.8959 165.128 11.1839 166.2 11.7599C167.272 12.3199 168.112 13.0959 168.72 14.0879C169.328 15.0799 169.632 16.2319 169.632 17.5439C169.632 18.8239 169.328 19.9679 168.72 20.9759C168.112 21.9679 167.272 22.7519 166.2 23.3279C165.128 23.9039 163.912 24.1919 162.552 24.1919ZM162.552 21.1199C163.176 21.1199 163.736 20.9759 164.232 20.6879C164.728 20.3999 165.12 19.9919 165.408 19.4639C165.696 18.9199 165.84 18.2799 165.84 17.5439C165.84 16.7919 165.696 16.1519 165.408 15.6239C165.12 15.0959 164.728 14.6879 164.232 14.3999C163.736 14.1119 163.176 13.9679 162.552 13.9679C161.928 13.9679 161.368 14.1119 160.872 14.3999C160.376 14.6879 159.976 15.0959 159.672 15.6239C159.384 16.1519 159.24 16.7919 159.24 17.5439C159.24 18.2799 159.384 18.9199 159.672 19.4639C159.976 19.9919 160.376 20.3999 160.872 20.6879C161.368 20.9759 161.928 21.1199 162.552 21.1199Z" fill="#483332"/>
<path d="M177.582 24.1919C176.51 24.1919 175.55 23.9839 174.702 23.5679C173.87 23.1519 173.222 22.5199 172.758 21.6719C172.294 20.8079 172.062 19.7119 172.062 18.3839V11.0879H175.806V17.8319C175.806 18.9039 176.03 19.6959 176.478 20.2079C176.942 20.7039 177.59 20.9519 178.422 20.9519C178.998 20.9519 179.51 20.8319 179.958 20.5919C180.406 20.3359 180.758 19.9519 181.014 19.4399C181.27 18.9119 181.398 18.2559 181.398 17.4719V11.0879H185.142V23.9999H181.59V20.4479L182.238 21.4799C181.806 22.3759 181.166 23.0559 180.318 23.5199C179.486 23.9679 178.574 24.1919 177.582 24.1919Z" fill="#483332"/>
<path d="M196.459 10.8959C197.483 10.8959 198.395 11.1039 199.195 11.5199C200.011 11.9199 200.651 12.5439 201.115 13.3919C201.579 14.2239 201.811 15.2959 201.811 16.6079V23.9999H198.067V17.1839C198.067 16.1439 197.835 15.3759 197.371 14.8799C196.923 14.3839 196.283 14.1359 195.451 14.1359C194.859 14.1359 194.323 14.2639 193.843 14.5199C193.379 14.7599 193.011 15.1359 192.739 15.6479C192.483 16.1599 192.355 16.8159 192.355 17.6159V23.9999H188.611V11.0879H192.187V14.6639L191.515 13.5839C191.979 12.7199 192.643 12.0559 193.507 11.5919C194.371 11.1279 195.355 10.8959 196.459 10.8959Z" fill="#483332"/>
<path d="M210.842 24.1919C209.626 24.1919 208.53 23.9199 207.554 23.3759C206.578 22.8159 205.802 22.0399 205.226 21.0479C204.666 20.0559 204.386 18.8879 204.386 17.5439C204.386 16.1839 204.666 15.0079 205.226 14.0159C205.802 13.0239 206.578 12.2559 207.554 11.7119C208.53 11.1679 209.626 10.8959 210.842 10.8959C211.93 10.8959 212.882 11.1359 213.698 11.6159C214.514 12.0959 215.146 12.8239 215.594 13.7999C216.042 14.7759 216.266 16.0239 216.266 17.5439C216.266 19.0479 216.05 20.2959 215.618 21.2879C215.186 22.2639 214.562 22.9919 213.746 23.4719C212.946 23.9519 211.978 24.1919 210.842 24.1919ZM211.49 21.1199C212.098 21.1199 212.65 20.9759 213.146 20.6879C213.642 20.3999 214.034 19.9919 214.322 19.4639C214.626 18.9199 214.778 18.2799 214.778 17.5439C214.778 16.7919 214.626 16.1519 214.322 15.6239C214.034 15.0959 213.642 14.6879 213.146 14.3999C212.65 14.1119 212.098 13.9679 211.49 13.9679C210.866 13.9679 210.306 14.1119 209.81 14.3999C209.314 14.6879 208.914 15.0959 208.61 15.6239C208.322 16.1519 208.178 16.7919 208.178 17.5439C208.178 18.2799 208.322 18.9199 208.61 19.4639C208.914 19.9919 209.314 20.3999 209.81 20.6879C210.306 20.9759 210.866 21.1199 211.49 21.1199ZM214.874 23.9999V21.3599L214.946 17.5199L214.706 13.7039V6.19189H218.45V23.9999H214.874Z" fill="#483332"/>
</svg>
