<svg width="745" height="97" viewBox="0 0 745 97" fill="none" xmlns="http://www.w3.org/2000/svg">
<path d="M2.32397 46V26.4H11.228C13.356 26.4 15.232 26.8106 16.856 27.632C18.48 28.4346 19.7493 29.564 20.664 31.02C21.5786 32.476 22.036 34.2026 22.036 36.2C22.036 38.1786 21.5786 39.9053 20.664 41.38C19.7493 42.836 18.48 43.9746 16.856 44.796C15.232 45.5986 13.356 46 11.228 46H2.32397ZM6.85997 42.276H11.004C12.3106 42.276 13.44 42.0333 14.392 41.548C15.3626 41.044 16.1093 40.3346 16.632 39.42C17.1733 38.5053 17.444 37.432 17.444 36.2C17.444 34.9493 17.1733 33.876 16.632 32.98C16.1093 32.0653 15.3626 31.3653 14.392 30.88C13.44 30.376 12.3106 30.124 11.004 30.124H6.85997V42.276Z" fill="#C92020"/>
<path d="M34.9768 46.336C33.4275 46.336 31.9901 46.084 30.6648 45.58C29.3581 45.076 28.2195 44.3666 27.2488 43.452C26.2968 42.5373 25.5501 41.464 25.0088 40.232C24.4861 39 24.2248 37.656 24.2248 36.2C24.2248 34.744 24.4861 33.4 25.0088 32.168C25.5501 30.936 26.3061 29.8626 27.2768 28.948C28.2475 28.0333 29.3861 27.324 30.6928 26.82C31.9995 26.316 33.4181 26.064 34.9488 26.064C36.4981 26.064 37.9168 26.316 39.2048 26.82C40.5115 27.324 41.6408 28.0333 42.5928 28.948C43.5635 29.8626 44.3195 30.936 44.8608 32.168C45.4021 33.3813 45.6728 34.7253 45.6728 36.2C45.6728 37.656 45.4021 39.0093 44.8608 40.26C44.3195 41.492 43.5635 42.5653 42.5928 43.48C41.6408 44.376 40.5115 45.076 39.2048 45.58C37.9168 46.084 36.5075 46.336 34.9768 46.336ZM34.9488 42.472C35.8261 42.472 36.6288 42.3226 37.3568 42.024C38.1035 41.7253 38.7568 41.296 39.3168 40.736C39.8768 40.176 40.3061 39.5133 40.6048 38.748C40.9221 37.9826 41.0808 37.1333 41.0808 36.2C41.0808 35.2666 40.9221 34.4173 40.6048 33.652C40.3061 32.8866 39.8768 32.224 39.3168 31.664C38.7755 31.104 38.1315 30.6746 37.3848 30.376C36.6381 30.0773 35.8261 29.928 34.9488 29.928C34.0715 29.928 33.2595 30.0773 32.5128 30.376C31.7848 30.6746 31.1408 31.104 30.5808 31.664C30.0208 32.224 29.5821 32.8866 29.2648 33.652C28.9661 34.4173 28.8168 35.2666 28.8168 36.2C28.8168 37.1146 28.9661 37.964 29.2648 38.748C29.5821 39.5133 30.0115 40.176 30.5528 40.736C31.1128 41.296 31.7661 41.7253 32.5128 42.024C33.2595 42.3226 34.0715 42.472 34.9488 42.472Z" fill="#C92020"/>
<path d="M49.0818 46V26.4H52.8338L64.3978 40.512H62.5778V26.4H67.0578V46H63.3338L51.7418 31.888H53.5618V46H49.0818Z" fill="#C92020"/>
<path d="M77.0488 46L85.7848 26.4H90.2648L99.0288 46H94.2688L87.1008 28.696H88.8928L81.6968 46H77.0488ZM81.4168 41.8L82.6208 38.356H92.7008L93.9328 41.8H81.4168Z" fill="#C92020"/>
<path d="M101.062 46V26.4H105.598V42.304H115.426V46H101.062Z" fill="#C92020"/>
<path d="M122.161 35.22H131.569V38.86H122.161V35.22ZM122.497 46H117.961V26.4H132.773V30.04H122.497V46Z" fill="#C92020"/>
<path d="M145.172 46.336C143.623 46.336 142.185 46.084 140.86 45.58C139.553 45.076 138.415 44.3666 137.444 43.452C136.492 42.5373 135.745 41.464 135.204 40.232C134.681 39 134.42 37.656 134.42 36.2C134.42 34.744 134.681 33.4 135.204 32.168C135.745 30.936 136.501 29.8626 137.472 28.948C138.443 28.0333 139.581 27.324 140.888 26.82C142.195 26.316 143.613 26.064 145.144 26.064C146.693 26.064 148.112 26.316 149.4 26.82C150.707 27.324 151.836 28.0333 152.788 28.948C153.759 29.8626 154.515 30.936 155.056 32.168C155.597 33.3813 155.868 34.7253 155.868 36.2C155.868 37.656 155.597 39.0093 155.056 40.26C154.515 41.492 153.759 42.5653 152.788 43.48C151.836 44.376 150.707 45.076 149.4 45.58C148.112 46.084 146.703 46.336 145.172 46.336ZM145.144 42.472C146.021 42.472 146.824 42.3226 147.552 42.024C148.299 41.7253 148.952 41.296 149.512 40.736C150.072 40.176 150.501 39.5133 150.8 38.748C151.117 37.9826 151.276 37.1333 151.276 36.2C151.276 35.2666 151.117 34.4173 150.8 33.652C150.501 32.8866 150.072 32.224 149.512 31.664C148.971 31.104 148.327 30.6746 147.58 30.376C146.833 30.0773 146.021 29.928 145.144 29.928C144.267 29.928 143.455 30.0773 142.708 30.376C141.98 30.6746 141.336 31.104 140.776 31.664C140.216 32.224 139.777 32.8866 139.46 33.652C139.161 34.4173 139.012 35.2666 139.012 36.2C139.012 37.1146 139.161 37.964 139.46 38.748C139.777 39.5133 140.207 40.176 140.748 40.736C141.308 41.296 141.961 41.7253 142.708 42.024C143.455 42.3226 144.267 42.472 145.144 42.472Z" fill="#C92020"/>
<path d="M159.277 46V26.4H163.029L174.593 40.512H172.773V26.4H177.253V46H173.529L161.937 31.888H163.757V46H159.277Z" fill="#C92020"/>
<path d="M188.33 46.336C186.762 46.336 185.26 46.1306 183.822 45.72C182.385 45.2906 181.228 44.74 180.35 44.068L181.89 40.652C182.73 41.2493 183.72 41.744 184.858 42.136C186.016 42.5093 187.182 42.696 188.358 42.696C189.254 42.696 189.973 42.612 190.514 42.444C191.074 42.2573 191.485 42.0053 191.746 41.688C192.008 41.3706 192.138 41.0066 192.138 40.596C192.138 40.0733 191.933 39.6626 191.522 39.364C191.112 39.0466 190.57 38.7946 189.898 38.608C189.226 38.4026 188.48 38.216 187.658 38.048C186.856 37.8613 186.044 37.6373 185.222 37.376C184.42 37.1146 183.682 36.7786 183.01 36.368C182.338 35.9573 181.788 35.416 181.358 34.744C180.948 34.072 180.742 33.2133 180.742 32.168C180.742 31.048 181.041 30.0306 181.638 29.116C182.254 28.1826 183.169 27.4453 184.382 26.904C185.614 26.344 187.154 26.064 189.002 26.064C190.234 26.064 191.448 26.2133 192.642 26.512C193.837 26.792 194.892 27.2213 195.806 27.8L194.406 31.244C193.492 30.7213 192.577 30.3386 191.662 30.096C190.748 29.8346 189.852 29.704 188.974 29.704C188.097 29.704 187.378 29.8066 186.818 30.012C186.258 30.2173 185.857 30.488 185.614 30.824C185.372 31.1413 185.25 31.5146 185.25 31.944C185.25 32.448 185.456 32.8586 185.866 33.176C186.277 33.4746 186.818 33.7173 187.49 33.904C188.162 34.0906 188.9 34.2773 189.702 34.464C190.524 34.6506 191.336 34.8653 192.138 35.108C192.96 35.3506 193.706 35.6773 194.378 36.088C195.05 36.4986 195.592 37.04 196.002 37.712C196.432 38.384 196.646 39.2333 196.646 40.26C196.646 41.3613 196.338 42.3693 195.722 43.284C195.106 44.1986 194.182 44.936 192.95 45.496C191.737 46.056 190.197 46.336 188.33 46.336Z" fill="#C92020"/>
<path d="M209.266 46.336C207.717 46.336 206.279 46.084 204.954 45.58C203.647 45.076 202.509 44.3666 201.538 43.452C200.586 42.5373 199.839 41.464 199.298 40.232C198.775 39 198.514 37.656 198.514 36.2C198.514 34.744 198.775 33.4 199.298 32.168C199.839 30.936 200.595 29.8626 201.566 28.948C202.537 28.0333 203.675 27.324 204.982 26.82C206.289 26.316 207.707 26.064 209.238 26.064C210.787 26.064 212.206 26.316 213.494 26.82C214.801 27.324 215.93 28.0333 216.882 28.948C217.853 29.8626 218.609 30.936 219.15 32.168C219.691 33.3813 219.962 34.7253 219.962 36.2C219.962 37.656 219.691 39.0093 219.15 40.26C218.609 41.492 217.853 42.5653 216.882 43.48C215.93 44.376 214.801 45.076 213.494 45.58C212.206 46.084 210.797 46.336 209.266 46.336ZM209.238 42.472C210.115 42.472 210.918 42.3226 211.646 42.024C212.393 41.7253 213.046 41.296 213.606 40.736C214.166 40.176 214.595 39.5133 214.894 38.748C215.211 37.9826 215.37 37.1333 215.37 36.2C215.37 35.2666 215.211 34.4173 214.894 33.652C214.595 32.8866 214.166 32.224 213.606 31.664C213.065 31.104 212.421 30.6746 211.674 30.376C210.927 30.0773 210.115 29.928 209.238 29.928C208.361 29.928 207.549 30.0773 206.802 30.376C206.074 30.6746 205.43 31.104 204.87 31.664C204.31 32.224 203.871 32.8866 203.554 33.652C203.255 34.4173 203.106 35.2666 203.106 36.2C203.106 37.1146 203.255 37.964 203.554 38.748C203.871 39.5133 204.301 40.176 204.842 40.736C205.402 41.296 206.055 41.7253 206.802 42.024C207.549 42.3226 208.361 42.472 209.238 42.472Z" fill="#C92020"/>
<path d="M233.093 46V28.08L235.053 30.04H229.173V26.4H237.629V46H233.093Z" fill="#C92020"/>
<path d="M247.921 26.064C249.732 26.064 251.291 26.4373 252.597 27.184C253.904 27.9306 254.912 29.0226 255.621 30.46C256.331 31.8786 256.685 33.652 256.685 35.78C256.685 38.0386 256.256 39.952 255.397 41.52C254.557 43.088 253.391 44.2826 251.897 45.104C250.404 45.9253 248.668 46.336 246.689 46.336C245.663 46.336 244.673 46.224 243.721 46C242.769 45.776 241.948 45.44 241.257 44.992L242.937 41.66C243.479 42.0333 244.057 42.2946 244.673 42.444C245.289 42.5746 245.933 42.64 246.605 42.64C248.285 42.64 249.62 42.1266 250.609 41.1C251.617 40.0733 252.121 38.552 252.121 36.536C252.121 36.2 252.112 35.8266 252.093 35.416C252.075 35.0053 252.028 34.5946 251.953 34.184L253.185 35.36C252.868 36.088 252.42 36.704 251.841 37.208C251.263 37.6933 250.591 38.0666 249.825 38.328C249.06 38.5706 248.201 38.692 247.249 38.692C245.999 38.692 244.86 38.44 243.833 37.936C242.825 37.432 242.013 36.7226 241.397 35.808C240.8 34.8933 240.501 33.82 240.501 32.588C240.501 31.244 240.828 30.0866 241.481 29.116C242.153 28.1453 243.049 27.3986 244.169 26.876C245.308 26.3346 246.559 26.064 247.921 26.064ZM248.201 29.452C247.548 29.452 246.979 29.5733 246.493 29.816C246.008 30.04 245.625 30.376 245.345 30.824C245.065 31.2533 244.925 31.7666 244.925 32.364C244.925 33.26 245.224 33.9786 245.821 34.52C246.437 35.0426 247.249 35.304 248.257 35.304C248.911 35.304 249.489 35.1826 249.993 34.94C250.516 34.6786 250.917 34.324 251.197 33.876C251.477 33.428 251.617 32.924 251.617 32.364C251.617 31.804 251.477 31.3093 251.197 30.88C250.936 30.432 250.553 30.0866 250.049 29.844C249.545 29.5826 248.929 29.452 248.201 29.452Z" fill="#C92020"/>
<path d="M266.982 46.336C265.339 46.336 263.901 46.0933 262.669 45.608C261.438 45.104 260.476 44.404 259.785 43.508C259.095 42.5933 258.75 41.5293 258.75 40.316C258.75 39.1026 259.086 38.076 259.758 37.236C260.448 36.3773 261.41 35.7333 262.642 35.304C263.874 34.856 265.32 34.632 266.982 34.632C268.661 34.632 270.117 34.856 271.349 35.304C272.6 35.7333 273.561 36.3773 274.233 37.236C274.924 38.076 275.27 39.1026 275.27 40.316C275.27 41.5293 274.924 42.5933 274.233 43.508C273.543 44.404 272.572 45.104 271.322 45.608C270.09 46.0933 268.643 46.336 266.982 46.336ZM266.982 43.004C268.12 43.004 269.016 42.752 269.669 42.248C270.341 41.744 270.677 41.0533 270.677 40.176C270.677 39.2986 270.341 38.6173 269.669 38.132C269.016 37.628 268.12 37.376 266.982 37.376C265.862 37.376 264.975 37.628 264.322 38.132C263.668 38.6173 263.341 39.2986 263.341 40.176C263.341 41.0533 263.668 41.744 264.322 42.248C264.975 42.752 265.862 43.004 266.982 43.004ZM266.982 36.928C265.47 36.928 264.144 36.7226 263.005 36.312C261.885 35.9013 261.008 35.304 260.374 34.52C259.758 33.7173 259.449 32.7653 259.449 31.664C259.449 30.5066 259.767 29.5173 260.401 28.696C261.036 27.856 261.923 27.212 263.061 26.764C264.2 26.2973 265.507 26.064 266.982 26.064C268.493 26.064 269.81 26.2973 270.93 26.764C272.068 27.212 272.955 27.856 273.59 28.696C274.243 29.5173 274.569 30.5066 274.569 31.664C274.569 32.7653 274.252 33.7173 273.617 34.52C273.001 35.304 272.124 35.9013 270.986 36.312C269.847 36.7226 268.512 36.928 266.982 36.928ZM266.982 34.268C267.934 34.268 268.68 34.0533 269.221 33.624C269.781 33.1946 270.061 32.6066 270.061 31.86C270.061 31.076 269.772 30.4693 269.194 30.04C268.634 29.6106 267.896 29.396 266.982 29.396C266.086 29.396 265.358 29.6106 264.798 30.04C264.238 30.4693 263.957 31.076 263.957 31.86C263.957 32.6066 264.228 33.1946 264.77 33.624C265.311 34.0533 266.048 34.268 266.982 34.268Z" fill="#C92020"/>
<path d="M285.746 46.336C284.141 46.336 282.703 45.944 281.434 45.16C280.165 44.3573 279.166 43.2 278.438 41.688C277.71 40.176 277.346 38.3466 277.346 36.2C277.346 34.0533 277.71 32.224 278.438 30.712C279.166 29.2 280.165 28.052 281.434 27.268C282.703 26.4653 284.141 26.064 285.746 26.064C287.37 26.064 288.807 26.4653 290.058 27.268C291.327 28.052 292.326 29.2 293.054 30.712C293.782 32.224 294.146 34.0533 294.146 36.2C294.146 38.3466 293.782 40.176 293.054 41.688C292.326 43.2 291.327 44.3573 290.058 45.16C288.807 45.944 287.37 46.336 285.746 46.336ZM285.746 42.5C286.511 42.5 287.174 42.2853 287.734 41.856C288.313 41.4266 288.761 40.7453 289.078 39.812C289.414 38.8786 289.582 37.6746 289.582 36.2C289.582 34.7253 289.414 33.5213 289.078 32.588C288.761 31.6546 288.313 30.9733 287.734 30.544C287.174 30.1146 286.511 29.9 285.746 29.9C284.999 29.9 284.337 30.1146 283.758 30.544C283.198 30.9733 282.75 31.6546 282.414 32.588C282.097 33.5213 281.938 34.7253 281.938 36.2C281.938 37.6746 282.097 38.8786 282.414 39.812C282.75 40.7453 283.198 41.4266 283.758 41.856C284.337 42.2853 284.999 42.5 285.746 42.5Z" fill="#C92020"/>
<path d="M2.65593 74.9999V64.4399L3.34393 65.1919H0.12793V63.7999H4.23993V74.9999H2.65593Z" fill="#483332"/>
<path d="M11.2658 75.1279C10.3911 75.1279 9.60714 74.9039 8.91381 74.4559C8.23114 74.0079 7.68714 73.3573 7.28181 72.5039C6.88714 71.6506 6.68981 70.6159 6.68981 69.3999C6.68981 68.1839 6.88714 67.1493 7.28181 66.2959C7.68714 65.4426 8.23114 64.7919 8.91381 64.3439C9.60714 63.8959 10.3911 63.6719 11.2658 63.6719C12.1298 63.6719 12.9085 63.8959 13.6018 64.3439C14.2951 64.7919 14.8391 65.4426 15.2338 66.2959C15.6285 67.1493 15.8258 68.1839 15.8258 69.3999C15.8258 70.6159 15.6285 71.6506 15.2338 72.5039C14.8391 73.3573 14.2951 74.0079 13.6018 74.4559C12.9085 74.9039 12.1298 75.1279 11.2658 75.1279ZM11.2658 73.7039C11.8525 73.7039 12.3645 73.5439 12.8018 73.2239C13.2498 72.9039 13.5965 72.4239 13.8418 71.7839C14.0978 71.1439 14.2258 70.3493 14.2258 69.3999C14.2258 68.4506 14.0978 67.6559 13.8418 67.0159C13.5965 66.3759 13.2498 65.8959 12.8018 65.5759C12.3645 65.2559 11.8525 65.0959 11.2658 65.0959C10.6791 65.0959 10.1618 65.2559 9.7138 65.5759C9.2658 65.8959 8.91381 66.3759 8.6578 67.0159C8.41247 67.6559 8.2898 68.4506 8.2898 69.3999C8.2898 70.3493 8.41247 71.1439 8.6578 71.7839C8.91381 72.4239 9.2658 72.9039 9.7138 73.2239C10.1618 73.5439 10.6791 73.7039 11.2658 73.7039Z" fill="#483332"/>
<path d="M21.9377 75.1279C21.063 75.1279 20.279 74.9039 19.5857 74.4559C18.903 74.0079 18.359 73.3573 17.9537 72.5039C17.559 71.6506 17.3617 70.6159 17.3617 69.3999C17.3617 68.1839 17.559 67.1493 17.9537 66.2959C18.359 65.4426 18.903 64.7919 19.5857 64.3439C20.279 63.8959 21.063 63.6719 21.9377 63.6719C22.8017 63.6719 23.5803 63.8959 24.2737 64.3439C24.967 64.7919 25.511 65.4426 25.9057 66.2959C26.3003 67.1493 26.4977 68.1839 26.4977 69.3999C26.4977 70.6159 26.3003 71.6506 25.9057 72.5039C25.511 73.3573 24.967 74.0079 24.2737 74.4559C23.5803 74.9039 22.8017 75.1279 21.9377 75.1279ZM21.9377 73.7039C22.5243 73.7039 23.0363 73.5439 23.4737 73.2239C23.9217 72.9039 24.2683 72.4239 24.5137 71.7839C24.7697 71.1439 24.8977 70.3493 24.8977 69.3999C24.8977 68.4506 24.7697 67.6559 24.5137 67.0159C24.2683 66.3759 23.9217 65.8959 23.4737 65.5759C23.0363 65.2559 22.5243 65.0959 21.9377 65.0959C21.351 65.0959 20.8337 65.2559 20.3857 65.5759C19.9377 65.8959 19.5857 66.3759 19.3297 67.0159C19.0843 67.6559 18.9617 68.4506 18.9617 69.3999C18.9617 70.3493 19.0843 71.1439 19.3297 71.7839C19.5857 72.4239 19.9377 72.9039 20.3857 73.2239C20.8337 73.5439 21.351 73.7039 21.9377 73.7039Z" fill="#483332"/>
<path d="M34.6824 69.0959H40.4584V70.4719H34.6824V69.0959ZM34.8424 74.9999H33.2424V63.7999H41.1464V65.1919H34.8424V74.9999Z" fill="#483332"/>
<path d="M46.5411 75.0959C45.6877 75.0959 44.9304 74.9093 44.2691 74.5359C43.6077 74.1626 43.0851 73.6506 42.7011 72.9999C42.3171 72.3386 42.1251 71.5919 42.1251 70.7599C42.1251 69.9173 42.3171 69.1706 42.7011 68.5199C43.0851 67.8693 43.6077 67.3626 44.2691 66.9999C44.9304 66.6266 45.6877 66.4399 46.5411 66.4399C47.3837 66.4399 48.1357 66.6266 48.7971 66.9999C49.4691 67.3626 49.9917 67.8693 50.3651 68.5199C50.7491 69.1599 50.9411 69.9066 50.9411 70.7599C50.9411 71.6026 50.7491 72.3493 50.3651 72.9999C49.9917 73.6506 49.4691 74.1626 48.7971 74.5359C48.1357 74.9093 47.3837 75.0959 46.5411 75.0959ZM46.5411 73.7519C47.0851 73.7519 47.5704 73.6293 47.9971 73.3839C48.4344 73.1386 48.7757 72.7919 49.0211 72.3439C49.2664 71.8853 49.3891 71.3573 49.3891 70.7599C49.3891 70.1519 49.2664 69.6293 49.0211 69.1919C48.7757 68.7439 48.4344 68.3973 47.9971 68.1519C47.5704 67.9066 47.0851 67.7839 46.5411 67.7839C45.9971 67.7839 45.5117 67.9066 45.0851 68.1519C44.6584 68.3973 44.3171 68.7439 44.0611 69.1919C43.8051 69.6293 43.6771 70.1519 43.6771 70.7599C43.6771 71.3573 43.8051 71.8853 44.0611 72.3439C44.3171 72.7919 44.6584 73.1386 45.0851 73.3839C45.5117 73.6293 45.9971 73.7519 46.5411 73.7519Z" fill="#483332"/>
<path d="M56.6973 75.0959C55.844 75.0959 55.0866 74.9093 54.4253 74.5359C53.764 74.1626 53.2413 73.6506 52.8573 72.9999C52.4733 72.3386 52.2813 71.5919 52.2813 70.7599C52.2813 69.9173 52.4733 69.1706 52.8573 68.5199C53.2413 67.8693 53.764 67.3626 54.4253 66.9999C55.0866 66.6266 55.844 66.4399 56.6973 66.4399C57.54 66.4399 58.292 66.6266 58.9533 66.9999C59.6253 67.3626 60.148 67.8693 60.5213 68.5199C60.9053 69.1599 61.0973 69.9066 61.0973 70.7599C61.0973 71.6026 60.9053 72.3493 60.5213 72.9999C60.148 73.6506 59.6253 74.1626 58.9533 74.5359C58.292 74.9093 57.54 75.0959 56.6973 75.0959ZM56.6973 73.7519C57.2413 73.7519 57.7266 73.6293 58.1533 73.3839C58.5906 73.1386 58.932 72.7919 59.1773 72.3439C59.4226 71.8853 59.5453 71.3573 59.5453 70.7599C59.5453 70.1519 59.4226 69.6293 59.1773 69.1919C58.932 68.7439 58.5906 68.3973 58.1533 68.1519C57.7266 67.9066 57.2413 67.7839 56.6973 67.7839C56.1533 67.7839 55.668 67.9066 55.2413 68.1519C54.8146 68.3973 54.4733 68.7439 54.2173 69.1919C53.9613 69.6293 53.8333 70.1519 53.8333 70.7599C53.8333 71.3573 53.9613 71.8853 54.2173 72.3439C54.4733 72.7919 54.8146 73.1386 55.2413 73.3839C55.668 73.6293 56.1533 73.7519 56.6973 73.7519Z" fill="#483332"/>
<path d="M66.7256 75.0959C65.9042 75.0959 65.1682 74.9146 64.5176 74.5519C63.8776 74.1893 63.3709 73.6826 62.9976 73.0319C62.6242 72.3813 62.4376 71.6239 62.4376 70.7599C62.4376 69.8959 62.6242 69.1439 62.9976 68.5039C63.3709 67.8533 63.8776 67.3466 64.5176 66.9839C65.1682 66.6213 65.9042 66.4399 66.7256 66.4399C67.4402 66.4399 68.0856 66.5999 68.6616 66.9199C69.2376 67.2399 69.6962 67.7199 70.0376 68.3599C70.3896 68.9999 70.5656 69.7999 70.5656 70.7599C70.5656 71.7199 70.3949 72.5199 70.0536 73.1599C69.7229 73.7999 69.2696 74.2853 68.6936 74.6159C68.1176 74.9359 67.4616 75.0959 66.7256 75.0959ZM66.8536 73.7519C67.3869 73.7519 67.8669 73.6293 68.2936 73.3839C68.7309 73.1386 69.0722 72.7919 69.3176 72.3439C69.5736 71.8853 69.7016 71.3573 69.7016 70.7599C69.7016 70.1519 69.5736 69.6293 69.3176 69.1919C69.0722 68.7439 68.7309 68.3973 68.2936 68.1519C67.8669 67.9066 67.3869 67.7839 66.8536 67.7839C66.3096 67.7839 65.8242 67.9066 65.3976 68.1519C64.9709 68.3973 64.6296 68.7439 64.3736 69.1919C64.1176 69.6293 63.9896 70.1519 63.9896 70.7599C63.9896 71.3573 64.1176 71.8853 64.3736 72.3439C64.6296 72.7919 64.9709 73.1386 65.3976 73.3839C65.8242 73.6293 66.3096 73.7519 66.8536 73.7519ZM69.7496 74.9999V72.7119L69.8456 70.7439L69.6856 68.7759V63.1279H71.2216V74.9999H69.7496Z" fill="#483332"/>
<path d="M81.9127 75.1279C81.0593 75.1279 80.2433 74.9999 79.4647 74.7439C78.686 74.4773 78.0727 74.1359 77.6247 73.7199L78.2167 72.4719C78.6433 72.8453 79.1873 73.1546 79.8487 73.3999C80.51 73.6453 81.198 73.7679 81.9127 73.7679C82.5633 73.7679 83.0913 73.6933 83.4967 73.5439C83.902 73.3946 84.2007 73.1919 84.3927 72.9359C84.5847 72.6693 84.6807 72.3706 84.6807 72.0399C84.6807 71.6559 84.5527 71.3466 84.2967 71.1119C84.0514 70.8773 83.726 70.6906 83.3207 70.5519C82.926 70.4026 82.4887 70.2746 82.0087 70.1679C81.5287 70.0613 81.0434 69.9386 80.5527 69.7999C80.0727 69.6506 79.63 69.4639 79.2247 69.2399C78.83 69.0159 78.51 68.7173 78.2647 68.3439C78.0193 67.9599 77.8967 67.4693 77.8967 66.8719C77.8967 66.2959 78.046 65.7679 78.3447 65.2879C78.654 64.7973 79.1233 64.4079 79.7527 64.1199C80.3927 63.8213 81.2034 63.6719 82.1847 63.6719C82.8354 63.6719 83.4807 63.7573 84.1207 63.9279C84.7607 64.0986 85.3154 64.3439 85.7847 64.6639L85.2567 65.9439C84.7767 65.6239 84.27 65.3946 83.7367 65.2559C83.2033 65.1066 82.686 65.0319 82.1847 65.0319C81.5554 65.0319 81.038 65.1119 80.6327 65.2719C80.2273 65.4319 79.9287 65.6453 79.7367 65.9119C79.5553 66.1786 79.4647 66.4773 79.4647 66.8079C79.4647 67.2026 79.5873 67.5173 79.8327 67.7519C80.0887 67.9866 80.414 68.1733 80.8087 68.3119C81.214 68.4506 81.6567 68.5786 82.1367 68.6959C82.6167 68.8026 83.0967 68.9253 83.5767 69.0639C84.0674 69.2026 84.51 69.3839 84.9047 69.6079C85.31 69.8319 85.6354 70.1306 85.8807 70.5039C86.126 70.8773 86.2487 71.3573 86.2487 71.9439C86.2487 72.5093 86.094 73.0373 85.7847 73.5279C85.4753 74.0079 84.9953 74.3973 84.3447 74.6959C83.7047 74.9839 82.894 75.1279 81.9127 75.1279Z" fill="#483332"/>
<path d="M91.2742 75.0959C90.4208 75.0959 89.7595 74.8666 89.2902 74.4079C88.8209 73.9493 88.5862 73.2933 88.5862 72.4399V64.6639H90.1222V72.3759C90.1222 72.8346 90.2342 73.1866 90.4582 73.4319C90.6928 73.6773 91.0235 73.7999 91.4502 73.7999C91.9302 73.7999 92.3302 73.6666 92.6502 73.3999L93.1302 74.5039C92.8955 74.7066 92.6128 74.8559 92.2822 74.9519C91.9622 75.0479 91.6262 75.0959 91.2742 75.0959ZM87.1462 67.7839V66.5199H92.5542V67.7839H87.1462Z" fill="#483332"/>
<path d="M94.9872 74.9999V66.5199H96.4592V68.8239L96.3152 68.2479C96.5498 67.6613 96.9445 67.2133 97.4992 66.9039C98.0538 66.5946 98.7365 66.4399 99.5472 66.4399V67.9279C99.4832 67.9173 99.4192 67.9119 99.3552 67.9119C99.3018 67.9119 99.2485 67.9119 99.1952 67.9119C98.3738 67.9119 97.7232 68.1573 97.2432 68.6479C96.7632 69.1386 96.5232 69.8479 96.5232 70.7759V74.9999H94.9872Z" fill="#483332"/>
<path d="M105.138 75.0959C104.232 75.0959 103.432 74.9093 102.738 74.5359C102.056 74.1626 101.522 73.6506 101.138 72.9999C100.765 72.3493 100.578 71.6026 100.578 70.7599C100.578 69.9173 100.76 69.1706 101.122 68.5199C101.496 67.8693 102.002 67.3626 102.642 66.9999C103.293 66.6266 104.024 66.4399 104.834 66.4399C105.656 66.4399 106.381 66.6213 107.01 66.9839C107.64 67.3466 108.13 67.8586 108.482 68.5199C108.845 69.1706 109.026 69.9333 109.026 70.8079C109.026 70.8719 109.021 70.9466 109.01 71.0319C109.01 71.1173 109.005 71.1973 108.994 71.2719H101.778V70.1679H108.194L107.57 70.5519C107.581 70.0079 107.469 69.5226 107.234 69.0959C107 68.6693 106.674 68.3386 106.258 68.1039C105.853 67.8586 105.378 67.7359 104.834 67.7359C104.301 67.7359 103.826 67.8586 103.41 68.1039C102.994 68.3386 102.669 68.6746 102.434 69.1119C102.2 69.5386 102.082 70.0293 102.082 70.5839V70.8399C102.082 71.4053 102.21 71.9119 102.466 72.3599C102.733 72.7973 103.101 73.1386 103.57 73.3839C104.04 73.6293 104.578 73.7519 105.186 73.7519C105.688 73.7519 106.141 73.6666 106.546 73.4959C106.962 73.3253 107.325 73.0693 107.634 72.7279L108.482 73.7199C108.098 74.1679 107.618 74.5093 107.042 74.7439C106.477 74.9786 105.842 75.0959 105.138 75.0959Z" fill="#483332"/>
<path d="M114.935 75.0959C114.028 75.0959 113.228 74.9093 112.535 74.5359C111.852 74.1626 111.319 73.6506 110.935 72.9999C110.562 72.3493 110.375 71.6026 110.375 70.7599C110.375 69.9173 110.556 69.1706 110.919 68.5199C111.292 67.8693 111.799 67.3626 112.439 66.9999C113.09 66.6266 113.82 66.4399 114.631 66.4399C115.452 66.4399 116.178 66.6213 116.807 66.9839C117.436 67.3466 117.927 67.8586 118.279 68.5199C118.642 69.1706 118.823 69.9333 118.823 70.8079C118.823 70.8719 118.818 70.9466 118.807 71.0319C118.807 71.1173 118.802 71.1973 118.791 71.2719H111.575V70.1679H117.991L117.367 70.5519C117.378 70.0079 117.266 69.5226 117.031 69.0959C116.796 68.6693 116.471 68.3386 116.055 68.1039C115.65 67.8586 115.175 67.7359 114.631 67.7359C114.098 67.7359 113.623 67.8586 113.207 68.1039C112.791 68.3386 112.466 68.6746 112.231 69.1119C111.996 69.5386 111.879 70.0293 111.879 70.5839V70.8399C111.879 71.4053 112.007 71.9119 112.263 72.3599C112.53 72.7973 112.898 73.1386 113.367 73.3839C113.836 73.6293 114.375 73.7519 114.983 73.7519C115.484 73.7519 115.938 73.6666 116.343 73.4959C116.759 73.3253 117.122 73.0693 117.431 72.7279L118.279 73.7199C117.895 74.1679 117.415 74.5093 116.839 74.7439C116.274 74.9786 115.639 75.0959 114.935 75.0959Z" fill="#483332"/>
<path d="M123.868 75.0959C123.015 75.0959 122.353 74.8666 121.884 74.4079C121.415 73.9493 121.18 73.2933 121.18 72.4399V64.6639H122.716V72.3759C122.716 72.8346 122.828 73.1866 123.052 73.4319C123.287 73.6773 123.617 73.7999 124.044 73.7999C124.524 73.7999 124.924 73.6666 125.244 73.3999L125.724 74.5039C125.489 74.7066 125.207 74.8559 124.876 74.9519C124.556 75.0479 124.22 75.0959 123.868 75.0959ZM119.74 67.7839V66.5199H125.148V67.7839H119.74Z" fill="#483332"/>
<path d="M127.129 77.3679L127.929 74.1359L128.137 75.0639C127.828 75.0639 127.567 74.9679 127.353 74.7759C127.151 74.5839 127.049 74.3226 127.049 73.9919C127.049 73.6719 127.151 73.4106 127.353 73.2079C127.567 73.0053 127.823 72.9039 128.121 72.9039C128.431 72.9039 128.681 73.0106 128.873 73.2239C129.065 73.4266 129.161 73.6826 129.161 73.9919C129.161 74.0986 129.151 74.2053 129.129 74.3119C129.119 74.4079 129.092 74.5253 129.049 74.6639C129.017 74.7919 128.964 74.9519 128.889 75.1439L128.137 77.3679H127.129Z" fill="#483332"/>
<path d="M138.107 74.9999V65.1919H134.267V63.7999H143.531V65.1919H139.691V74.9999H138.107Z" fill="#483332"/>
<path d="M147.807 75.0959C146.953 75.0959 146.196 74.9093 145.535 74.5359C144.873 74.1626 144.351 73.6506 143.967 72.9999C143.583 72.3386 143.391 71.5919 143.391 70.7599C143.391 69.9173 143.583 69.1706 143.967 68.5199C144.351 67.8693 144.873 67.3626 145.535 66.9999C146.196 66.6266 146.953 66.4399 147.807 66.4399C148.649 66.4399 149.401 66.6266 150.063 66.9999C150.735 67.3626 151.257 67.8693 151.631 68.5199C152.015 69.1599 152.207 69.9066 152.207 70.7599C152.207 71.6026 152.015 72.3493 151.631 72.9999C151.257 73.6506 150.735 74.1626 150.063 74.5359C149.401 74.9093 148.649 75.0959 147.807 75.0959ZM147.807 73.7519C148.351 73.7519 148.836 73.6293 149.263 73.3839C149.7 73.1386 150.041 72.7919 150.287 72.3439C150.532 71.8853 150.655 71.3573 150.655 70.7599C150.655 70.1519 150.532 69.6293 150.287 69.1919C150.041 68.7439 149.7 68.3973 149.263 68.1519C148.836 67.9066 148.351 67.7839 147.807 67.7839C147.263 67.7839 146.777 67.9066 146.351 68.1519C145.924 68.3973 145.583 68.7439 145.327 69.1919C145.071 69.6293 144.943 70.1519 144.943 70.7599C144.943 71.3573 145.071 71.8853 145.327 72.3439C145.583 72.7919 145.924 73.1386 146.351 73.3839C146.777 73.6293 147.263 73.7519 147.807 73.7519Z" fill="#483332"/>
<path d="M154.331 74.9999V66.5199H155.803V68.8239L155.659 68.2479C155.894 67.6613 156.288 67.2133 156.843 66.9039C157.398 66.5946 158.08 66.4399 158.891 66.4399V67.9279C158.827 67.9173 158.763 67.9119 158.699 67.9119C158.646 67.9119 158.592 67.9119 158.539 67.9119C157.718 67.9119 157.067 68.1573 156.587 68.6479C156.107 69.1386 155.867 69.8479 155.867 70.7759V74.9999H154.331Z" fill="#483332"/>
<path d="M164.338 75.0959C163.485 75.0959 162.727 74.9093 162.066 74.5359C161.405 74.1626 160.882 73.6506 160.498 72.9999C160.114 72.3386 159.922 71.5919 159.922 70.7599C159.922 69.9173 160.114 69.1706 160.498 68.5199C160.882 67.8693 161.405 67.3626 162.066 66.9999C162.727 66.6266 163.485 66.4399 164.338 66.4399C165.181 66.4399 165.933 66.6266 166.594 66.9999C167.266 67.3626 167.789 67.8693 168.162 68.5199C168.546 69.1599 168.738 69.9066 168.738 70.7599C168.738 71.6026 168.546 72.3493 168.162 72.9999C167.789 73.6506 167.266 74.1626 166.594 74.5359C165.933 74.9093 165.181 75.0959 164.338 75.0959ZM164.338 73.7519C164.882 73.7519 165.367 73.6293 165.794 73.3839C166.231 73.1386 166.573 72.7919 166.818 72.3439C167.063 71.8853 167.186 71.3573 167.186 70.7599C167.186 70.1519 167.063 69.6293 166.818 69.1919C166.573 68.7439 166.231 68.3973 165.794 68.1519C165.367 67.9066 164.882 67.7839 164.338 67.7839C163.794 67.7839 163.309 67.9066 162.882 68.1519C162.455 68.3973 162.114 68.7439 161.858 69.1919C161.602 69.6293 161.474 70.1519 161.474 70.7599C161.474 71.3573 161.602 71.8853 161.858 72.3439C162.114 72.7919 162.455 73.1386 162.882 73.3839C163.309 73.6293 163.794 73.7519 164.338 73.7519Z" fill="#483332"/>
<path d="M175.39 66.4399C176.083 66.4399 176.691 66.5733 177.214 66.8399C177.748 67.1066 178.164 67.5119 178.462 68.0559C178.761 68.5999 178.91 69.2879 178.91 70.1199V74.9999H177.374V70.2959C177.374 69.4746 177.172 68.8559 176.766 68.4399C176.372 68.0239 175.811 67.8159 175.086 67.8159C174.542 67.8159 174.068 67.9226 173.662 68.1359C173.257 68.3493 172.942 68.6639 172.718 69.0799C172.505 69.4959 172.398 70.0133 172.398 70.6319V74.9999H170.862V66.5199H172.334V68.8079L172.094 68.1999C172.372 67.6453 172.798 67.2133 173.374 66.9039C173.95 66.5946 174.622 66.4399 175.39 66.4399Z" fill="#483332"/>
<path d="M184.665 75.0959C183.811 75.0959 183.15 74.8666 182.681 74.4079C182.211 73.9493 181.977 73.2933 181.977 72.4399V64.6639H183.513V72.3759C183.513 72.8346 183.625 73.1866 183.849 73.4319C184.083 73.6773 184.414 73.7999 184.841 73.7999C185.321 73.7999 185.721 73.6666 186.041 73.3999L186.521 74.5039C186.286 74.7066 186.003 74.8559 185.673 74.9519C185.353 75.0479 185.017 75.0959 184.665 75.0959ZM180.537 67.7839V66.5199H185.945V67.7839H180.537Z" fill="#483332"/>
<path d="M191.729 75.0959C190.875 75.0959 190.118 74.9093 189.457 74.5359C188.795 74.1626 188.273 73.6506 187.889 72.9999C187.505 72.3386 187.313 71.5919 187.313 70.7599C187.313 69.9173 187.505 69.1706 187.889 68.5199C188.273 67.8693 188.795 67.3626 189.457 66.9999C190.118 66.6266 190.875 66.4399 191.729 66.4399C192.571 66.4399 193.323 66.6266 193.985 66.9999C194.657 67.3626 195.179 67.8693 195.553 68.5199C195.937 69.1599 196.129 69.9066 196.129 70.7599C196.129 71.6026 195.937 72.3493 195.553 72.9999C195.179 73.6506 194.657 74.1626 193.985 74.5359C193.323 74.9093 192.571 75.0959 191.729 75.0959ZM191.729 73.7519C192.273 73.7519 192.758 73.6293 193.185 73.3839C193.622 73.1386 193.963 72.7919 194.209 72.3439C194.454 71.8853 194.577 71.3573 194.577 70.7599C194.577 70.1519 194.454 69.6293 194.209 69.1919C193.963 68.7439 193.622 68.3973 193.185 68.1519C192.758 67.9066 192.273 67.7839 191.729 67.7839C191.185 67.7839 190.699 67.9066 190.273 68.1519C189.846 68.3973 189.505 68.7439 189.249 69.1919C188.993 69.6293 188.865 70.1519 188.865 70.7599C188.865 71.3573 188.993 71.8853 189.249 72.3439C189.505 72.7919 189.846 73.1386 190.273 73.3839C190.699 73.6293 191.185 73.7519 191.729 73.7519Z" fill="#483332"/>
<path d="M197.457 77.3679L198.257 74.1359L198.465 75.0639C198.156 75.0639 197.895 74.9679 197.681 74.7759C197.479 74.5839 197.377 74.3226 197.377 73.9919C197.377 73.6719 197.479 73.4106 197.681 73.2079C197.895 73.0053 198.151 72.9039 198.449 72.9039C198.759 72.9039 199.009 73.0106 199.201 73.2239C199.393 73.4266 199.489 73.6826 199.489 73.9919C199.489 74.0986 199.479 74.2053 199.457 74.3119C199.447 74.4079 199.42 74.5253 199.377 74.6639C199.345 74.7919 199.292 74.9519 199.217 75.1439L198.465 77.3679H197.457Z" fill="#483332"/>
<path d="M211.219 75.1279C210.366 75.1279 209.577 74.9893 208.851 74.7119C208.137 74.4239 207.513 74.0239 206.979 73.5119C206.457 72.9893 206.046 72.3813 205.747 71.6879C205.449 70.9946 205.299 70.2319 205.299 69.3999C205.299 68.5679 205.449 67.8053 205.747 67.1119C206.046 66.4186 206.462 65.8159 206.995 65.3039C207.529 64.7813 208.153 64.3813 208.867 64.1039C209.592 63.8159 210.382 63.6719 211.235 63.6719C212.099 63.6719 212.894 63.8213 213.619 64.1199C214.355 64.4079 214.979 64.8399 215.491 65.4159L214.451 66.4239C214.025 65.9759 213.545 65.6453 213.011 65.4319C212.478 65.2079 211.907 65.0959 211.299 65.0959C210.67 65.0959 210.083 65.2026 209.539 65.4159C209.006 65.6293 208.542 65.9279 208.147 66.3119C207.753 66.6959 207.443 67.1546 207.219 67.6879C207.006 68.2106 206.899 68.7813 206.899 69.3999C206.899 70.0186 207.006 70.5946 207.219 71.1279C207.443 71.6506 207.753 72.1039 208.147 72.4879C208.542 72.8719 209.006 73.1706 209.539 73.3839C210.083 73.5973 210.67 73.7039 211.299 73.7039C211.907 73.7039 212.478 73.5973 213.011 73.3839C213.545 73.1599 214.025 72.8186 214.451 72.3599L215.491 73.3679C214.979 73.9439 214.355 74.3813 213.619 74.6799C212.894 74.9786 212.094 75.1279 211.219 75.1279Z" fill="#483332"/>
<path d="M215.812 74.9999L220.884 63.7999H222.468L227.556 74.9999H225.876L221.348 64.6959H221.988L217.46 74.9999H215.812ZM217.972 72.1999L218.404 70.9199H224.708L225.172 72.1999H217.972Z" fill="#483332"/>
</svg>
