<svg width="97" height="19" viewBox="0 0 97 19" fill="none" xmlns="http://www.w3.org/2000/svg">
<path d="M6.09223 15.216C4.30423 15.216 2.90623 14.718 1.89823 13.722C0.89023 12.726 0.38623 11.304 0.38623 9.45599V2.39998H3.30223V9.34799C3.30223 10.548 3.54823 11.412 4.04023 11.94C4.53223 12.468 5.22223 12.732 6.11023 12.732C6.99823 12.732 7.68823 12.468 8.18023 11.94C8.67223 11.412 8.91823 10.548 8.91823 9.34799V2.39998H11.7982V9.45599C11.7982 11.304 11.2942 12.726 10.2862 13.722C9.27823 14.718 7.88023 15.216 6.09223 15.216Z" fill="#C92020"/>
<path d="M20.2058 15.144C19.3898 15.144 18.6758 14.964 18.0638 14.604C17.4518 14.244 16.9718 13.698 16.6238 12.966C16.2878 12.222 16.1198 11.286 16.1198 10.158C16.1198 9.01799 16.2818 8.08198 16.6058 7.34999C16.9298 6.61798 17.3978 6.07198 18.0098 5.71198C18.6218 5.35198 19.3538 5.17199 20.2058 5.17199C21.1178 5.17199 21.9338 5.38199 22.6538 5.80198C23.3858 6.20998 23.9618 6.78599 24.3818 7.52999C24.8138 8.27399 25.0298 9.14999 25.0298 10.158C25.0298 11.178 24.8138 12.06 24.3818 12.804C23.9618 13.548 23.3858 14.124 22.6538 14.532C21.9338 14.94 21.1178 15.144 20.2058 15.144ZM14.4818 18.492V5.31598H17.1638V7.29599L17.1098 10.176L17.2898 13.038V18.492H14.4818ZM19.7198 12.84C20.1878 12.84 20.6018 12.732 20.9618 12.516C21.3338 12.3 21.6278 11.994 21.8438 11.598C22.0718 11.19 22.1858 10.71 22.1858 10.158C22.1858 9.59399 22.0718 9.11399 21.8438 8.71799C21.6278 8.32198 21.3338 8.01599 20.9618 7.79999C20.6018 7.58399 20.1878 7.47599 19.7198 7.47599C19.2518 7.47599 18.8318 7.58399 18.4598 7.79999C18.0878 8.01599 17.7938 8.32198 17.5778 8.71799C17.3618 9.11399 17.2538 9.59399 17.2538 10.158C17.2538 10.71 17.3618 11.19 17.5778 11.598C17.7938 11.994 18.0878 12.3 18.4598 12.516C18.8318 12.732 19.2518 12.84 19.7198 12.84Z" fill="#C92020"/>
<path d="M31.5895 15.144C30.5455 15.144 29.6155 14.934 28.7995 14.514C27.9835 14.082 27.3415 13.488 26.8735 12.732C26.4175 11.976 26.1895 11.118 26.1895 10.158C26.1895 9.18599 26.4175 8.32799 26.8735 7.58399C27.3415 6.82799 27.9835 6.23998 28.7995 5.81998C29.6155 5.38799 30.5455 5.17199 31.5895 5.17199C32.6095 5.17199 33.4975 5.38799 34.2535 5.81998C35.0095 6.23998 35.5675 6.84598 35.9275 7.63799L33.7495 8.80799C33.4975 8.35198 33.1795 8.01599 32.7955 7.79999C32.4235 7.58399 32.0155 7.47599 31.5715 7.47599C31.0915 7.47599 30.6595 7.58399 30.2755 7.79999C29.8915 8.01599 29.5855 8.32198 29.3575 8.71799C29.1415 9.11399 29.0335 9.59399 29.0335 10.158C29.0335 10.722 29.1415 11.202 29.3575 11.598C29.5855 11.994 29.8915 12.3 30.2755 12.516C30.6595 12.732 31.0915 12.84 31.5715 12.84C32.0155 12.84 32.4235 12.738 32.7955 12.534C33.1795 12.318 33.4975 11.976 33.7495 11.508L35.9275 12.696C35.5675 13.476 35.0095 14.082 34.2535 14.514C33.4975 14.934 32.6095 15.144 31.5895 15.144Z" fill="#C92020"/>
<path d="M42.0292 15.144C40.9972 15.144 40.0792 14.928 39.2752 14.496C38.4832 14.064 37.8532 13.476 37.3852 12.732C36.9292 11.976 36.7012 11.118 36.7012 10.158C36.7012 9.18599 36.9292 8.32799 37.3852 7.58399C37.8532 6.82799 38.4832 6.23998 39.2752 5.81998C40.0792 5.38799 40.9972 5.17199 42.0292 5.17199C43.0492 5.17199 43.9612 5.38799 44.7652 5.81998C45.5692 6.23998 46.1992 6.82199 46.6552 7.56599C47.1112 8.30999 47.3392 9.17399 47.3392 10.158C47.3392 11.118 47.1112 11.976 46.6552 12.732C46.1992 13.476 45.5692 14.064 44.7652 14.496C43.9612 14.928 43.0492 15.144 42.0292 15.144ZM42.0292 12.84C42.4972 12.84 42.9172 12.732 43.2892 12.516C43.6612 12.3 43.9552 11.994 44.1712 11.598C44.3872 11.19 44.4952 10.71 44.4952 10.158C44.4952 9.59399 44.3872 9.11399 44.1712 8.71799C43.9552 8.32198 43.6612 8.01599 43.2892 7.79999C42.9172 7.58399 42.4972 7.47599 42.0292 7.47599C41.5612 7.47599 41.1412 7.58399 40.7692 7.79999C40.3972 8.01599 40.0972 8.32198 39.8692 8.71799C39.6532 9.11399 39.5452 9.59399 39.5452 10.158C39.5452 10.71 39.6532 11.19 39.8692 11.598C40.0972 11.994 40.3972 12.3 40.7692 12.516C41.1412 12.732 41.5612 12.84 42.0292 12.84Z" fill="#C92020"/>
<path d="M61.6182 5.17199C62.3862 5.17199 63.0642 5.32799 63.6522 5.63999C64.2522 5.93999 64.7202 6.40799 65.0562 7.04399C65.4042 7.66799 65.5782 8.47199 65.5782 9.45599V15H62.7702V9.88799C62.7702 9.10799 62.6082 8.53199 62.2842 8.15999C61.9602 7.78799 61.5042 7.60198 60.9162 7.60198C60.5082 7.60198 60.1422 7.69799 59.8181 7.88999C59.4941 8.06998 59.2422 8.34598 59.0622 8.71799C58.8822 9.08998 58.7922 9.56398 58.7922 10.14V15H55.9841V9.88799C55.9841 9.10799 55.8222 8.53199 55.4981 8.15999C55.1861 7.78799 54.7362 7.60198 54.1482 7.60198C53.7402 7.60198 53.3742 7.69799 53.0502 7.88999C52.7262 8.06998 52.4742 8.34598 52.2942 8.71799C52.1142 9.08998 52.0242 9.56398 52.0242 10.14V15H49.2162V5.31598H51.8982V7.96199L51.3941 7.18799C51.7301 6.52799 52.2042 6.02998 52.8162 5.69398C53.4402 5.34599 54.1482 5.17199 54.9402 5.17199C55.8282 5.17199 56.6022 5.39999 57.2622 5.85599C57.9342 6.29999 58.3782 6.98399 58.5942 7.90799L57.6042 7.63799C57.9282 6.88198 58.4441 6.28198 59.1521 5.83799C59.8722 5.39398 60.6942 5.17199 61.6182 5.17199Z" fill="#C92020"/>
<path d="M68.0951 15V5.31598H70.9031V15H68.0951ZM69.4991 3.96599C68.9831 3.96599 68.5631 3.81598 68.2391 3.51599C67.9151 3.21598 67.7531 2.84398 67.7531 2.39998C67.7531 1.95598 67.9151 1.58398 68.2391 1.28398C68.5631 0.983984 68.9831 0.833984 69.4991 0.833984C70.0151 0.833984 70.4351 0.977985 70.7591 1.26599C71.0831 1.54199 71.2451 1.90199 71.2451 2.34599C71.2451 2.81398 71.0831 3.20398 70.7591 3.51599C70.4471 3.81598 70.0271 3.96599 69.4991 3.96599Z" fill="#C92020"/>
<path d="M79.3951 5.17199C80.1631 5.17199 80.8471 5.32799 81.4471 5.63999C82.0591 5.93999 82.5391 6.40799 82.8871 7.04399C83.2351 7.66799 83.4091 8.47199 83.4091 9.45599V15H80.6011V9.88799C80.6011 9.10799 80.4271 8.53199 80.0791 8.15999C79.7431 7.78799 79.2631 7.60198 78.6391 7.60198C78.1951 7.60198 77.7931 7.69799 77.4331 7.88999C77.0851 8.06998 76.8091 8.35199 76.6051 8.73599C76.4131 9.11999 76.3171 9.61199 76.3171 10.212V15H73.5091V5.31598H76.1911V7.99798L75.6871 7.18799C76.0351 6.53999 76.5331 6.04198 77.1811 5.69398C77.8291 5.34599 78.5671 5.17199 79.3951 5.17199Z" fill="#C92020"/>
<path d="M90.5787 18.636C89.6667 18.636 88.7847 18.522 87.9327 18.294C87.0928 18.078 86.3907 17.748 85.8267 17.304L86.9427 15.288C87.3507 15.624 87.8667 15.888 88.4907 16.08C89.1267 16.284 89.7507 16.386 90.3627 16.386C91.3587 16.386 92.0787 16.164 92.5227 15.72C92.9787 15.276 93.2067 14.616 93.2067 13.74V12.282L93.3867 9.85198L93.3507 7.40399V5.31598H96.0147V13.38C96.0147 15.18 95.5467 16.506 94.6107 17.358C93.6748 18.21 92.3307 18.636 90.5787 18.636ZM90.1467 14.532C89.2467 14.532 88.4307 14.34 87.6987 13.956C86.9787 13.56 86.3967 13.014 85.9527 12.318C85.5207 11.61 85.3047 10.788 85.3047 9.85198C85.3047 8.90399 85.5207 8.08199 85.9527 7.38599C86.3967 6.67799 86.9787 6.13199 87.6987 5.74799C88.4307 5.36399 89.2467 5.17199 90.1467 5.17199C90.9627 5.17199 91.6827 5.33999 92.3067 5.67599C92.9307 5.99999 93.4167 6.50998 93.7647 7.20599C94.1127 7.88999 94.2867 8.77199 94.2867 9.85198C94.2867 10.92 94.1127 11.802 93.7647 12.498C93.4167 13.182 92.9307 13.692 92.3067 14.028C91.6827 14.364 90.9627 14.532 90.1467 14.532ZM90.7047 12.228C91.1967 12.228 91.6347 12.132 92.0187 11.94C92.4027 11.736 92.7027 11.454 92.9187 11.094C93.1348 10.734 93.2427 10.32 93.2427 9.85198C93.2427 9.37199 93.1348 8.95799 92.9187 8.60999C92.7027 8.24999 92.4027 7.97399 92.0187 7.78199C91.6347 7.57799 91.1967 7.47599 90.7047 7.47599C90.2127 7.47599 89.7747 7.57799 89.3907 7.78199C89.0067 7.97399 88.7007 8.24999 88.4727 8.60999C88.2567 8.95799 88.1487 9.37199 88.1487 9.85198C88.1487 10.32 88.2567 10.734 88.4727 11.094C88.7007 11.454 89.0067 11.736 89.3907 11.94C89.7747 12.132 90.2127 12.228 90.7047 12.228Z" fill="#C92020"/>
</svg>
