<svg width="219" height="29" viewBox="0 0 219 29" fill="none" xmlns="http://www.w3.org/2000/svg">
<path d="M12.0552 28.24C8.48182 28.24 5.66849 27.2133 3.61516 25.16C1.56182 23.1067 0.535156 20.0667 0.535156 16.04V0H3.49516V15.92C3.49516 19.2267 4.24182 21.6667 5.73516 23.24C7.22849 24.8133 9.33516 25.6 12.0552 25.6C14.8018 25.6 16.9218 24.8133 18.4152 23.24C19.9085 21.6667 20.6552 19.2267 20.6552 15.92V0H23.5352V16.04C23.5352 20.0667 22.5085 23.1067 20.4552 25.16C18.4285 27.2133 15.6285 28.24 12.0552 28.24Z" fill="#C92020" fill-opacity="0.5"/>
<path d="M37.4948 28.2C35.7615 28.2 34.1215 27.96 32.5748 27.48C31.0282 26.9733 29.8148 26.3467 28.9348 25.6L30.2148 23.36C31.0682 24 32.1615 24.56 33.4948 25.04C34.8282 25.4933 36.2282 25.72 37.6948 25.72C39.6948 25.72 41.1348 25.4133 42.0148 24.8C42.8948 24.16 43.3348 23.32 43.3348 22.28C43.3348 21.5067 43.0815 20.9067 42.5748 20.48C42.0948 20.0267 41.4548 19.6933 40.6548 19.48C39.8548 19.24 38.9615 19.04 37.9748 18.88C36.9882 18.72 36.0015 18.5333 35.0148 18.32C34.0548 18.1067 33.1748 17.8 32.3748 17.4C31.5748 16.9733 30.9215 16.4 30.4148 15.68C29.9348 14.96 29.6948 14 29.6948 12.8C29.6948 11.6533 30.0148 10.6267 30.6548 9.72C31.2948 8.81333 32.2282 8.10667 33.4548 7.6C34.7082 7.06667 36.2282 6.8 38.0148 6.8C39.3748 6.8 40.7348 6.98667 42.0948 7.36C43.4548 7.70667 44.5748 8.17333 45.4548 8.76L44.2148 11.04C43.2815 10.4 42.2815 9.94667 41.2148 9.68C40.1482 9.38667 39.0815 9.24 38.0148 9.24C36.1215 9.24 34.7215 9.57333 33.8148 10.24C32.9348 10.88 32.4948 11.7067 32.4948 12.72C32.4948 13.52 32.7348 14.1467 33.2148 14.6C33.7215 15.0533 34.3748 15.4133 35.1748 15.68C36.0015 15.92 36.8948 16.12 37.8548 16.28C38.8415 16.44 39.8148 16.64 40.7748 16.88C41.7615 17.0933 42.6548 17.4 43.4548 17.8C44.2815 18.1733 44.9348 18.72 45.4148 19.44C45.9215 20.1333 46.1748 21.0533 46.1748 22.2C46.1748 23.4267 45.8282 24.4933 45.1348 25.4C44.4682 26.28 43.4815 26.9733 42.1748 27.48C40.8948 27.96 39.3348 28.2 37.4948 28.2Z" fill="#C92020" fill-opacity="0.5"/>
<path d="M60.3061 28.2C58.1194 28.2 56.1994 27.7467 54.5461 26.84C52.8928 25.9067 51.5994 24.64 50.6661 23.04C49.7328 21.4133 49.2661 19.56 49.2661 17.48C49.2661 15.4 49.7061 13.56 50.5861 11.96C51.4928 10.36 52.7194 9.10667 54.2661 8.2C55.8394 7.26667 57.5994 6.8 59.5461 6.8C61.5194 6.8 63.2661 7.25333 64.7861 8.16C66.3328 9.04 67.5461 10.2933 68.4261 11.92C69.3061 13.52 69.7461 15.3733 69.7461 17.48C69.7461 17.6133 69.7328 17.76 69.7061 17.92C69.7061 18.0533 69.7061 18.2 69.7061 18.36H51.4261V16.24H68.1861L67.0661 17.08C67.0661 15.56 66.7328 14.2133 66.0661 13.04C65.4261 11.84 64.5461 10.9067 63.4261 10.24C62.3061 9.57333 61.0128 9.24 59.5461 9.24C58.1061 9.24 56.8128 9.57333 55.6661 10.24C54.5194 10.9067 53.6261 11.84 52.9861 13.04C52.3461 14.24 52.0261 15.6133 52.0261 17.16V17.6C52.0261 19.2 52.3728 20.6133 53.0661 21.84C53.7861 23.04 54.7728 23.9867 56.0261 24.68C57.3061 25.3467 58.7594 25.68 60.3861 25.68C61.6661 25.68 62.8528 25.4533 63.9461 25C65.0661 24.5467 66.0261 23.8533 66.8261 22.92L68.4261 24.76C67.4928 25.88 66.3194 26.7333 64.9061 27.32C63.5194 27.9067 61.9861 28.2 60.3061 28.2Z" fill="#C92020" fill-opacity="0.5"/>
<path d="M75.5267 28V7H78.2467V12.72L77.9667 11.72C78.5534 10.12 79.5401 8.90667 80.9267 8.08C82.3134 7.22667 84.0334 6.8 86.0867 6.8V9.56C85.98 9.56 85.8734 9.56 85.7667 9.56C85.66 9.53333 85.5534 9.52 85.4467 9.52C83.2334 9.52 81.5001 10.2 80.2467 11.56C78.9934 12.8933 78.3667 14.8 78.3667 17.28V28H75.5267Z" fill="#C92020" fill-opacity="0.5"/>
<path d="M102.65 28V0H105.09L124.41 24.32H123.13V0H126.05V28H123.61L104.33 3.68H105.61V28H102.65Z" fill="#C92020" fill-opacity="0.5"/>
<path d="M147.749 28V23.36L147.629 22.6V14.84C147.629 13.0533 147.123 11.68 146.109 10.72C145.123 9.76 143.643 9.28 141.669 9.28C140.309 9.28 139.016 9.50667 137.789 9.96C136.563 10.4133 135.523 11.0133 134.669 11.76L133.389 9.64C134.456 8.73333 135.736 8.04 137.229 7.56C138.723 7.05333 140.296 6.8 141.949 6.8C144.669 6.8 146.763 7.48 148.229 8.84C149.723 10.1733 150.469 12.2133 150.469 14.96V28H147.749ZM140.509 28.2C138.936 28.2 137.563 27.9467 136.389 27.44C135.243 26.9067 134.363 26.1867 133.749 25.28C133.136 24.3467 132.829 23.28 132.829 22.08C132.829 20.9867 133.083 20 133.589 19.12C134.123 18.2133 134.976 17.4933 136.149 16.96C137.349 16.4 138.949 16.12 140.949 16.12H148.189V18.24H141.029C139.003 18.24 137.589 18.6 136.789 19.32C136.016 20.04 135.629 20.9333 135.629 22C135.629 23.2 136.096 24.16 137.029 24.88C137.963 25.6 139.269 25.96 140.949 25.96C142.549 25.96 143.923 25.6 145.069 24.88C146.243 24.1333 147.096 23.0667 147.629 21.68L148.269 23.64C147.736 25.0267 146.803 26.1333 145.469 26.96C144.163 27.7867 142.509 28.2 140.509 28.2Z" fill="#C92020" fill-opacity="0.5"/>
<path d="M184.423 6.8C186.13 6.8 187.61 7.13333 188.863 7.8C190.143 8.44 191.13 9.42667 191.823 10.76C192.543 12.0933 192.903 13.7733 192.903 15.8V28H190.063V16.08C190.063 13.8667 189.53 12.2 188.463 11.08C187.423 9.93333 185.943 9.36 184.023 9.36C182.583 9.36 181.33 9.66667 180.263 10.28C179.223 10.8667 178.41 11.7333 177.823 12.88C177.263 14 176.983 15.36 176.983 16.96V28H174.143V16.08C174.143 13.8667 173.61 12.2 172.543 11.08C171.476 9.93333 169.983 9.36 168.063 9.36C166.65 9.36 165.41 9.66667 164.343 10.28C163.276 10.8667 162.45 11.7333 161.863 12.88C161.303 14 161.023 15.36 161.023 16.96V28H158.183V7H160.903V12.68L160.463 11.68C161.103 10.16 162.13 8.97333 163.543 8.12C164.983 7.24 166.676 6.8 168.623 6.8C170.676 6.8 172.423 7.32 173.863 8.36C175.303 9.37333 176.236 10.9067 176.663 12.96L175.543 12.52C176.156 10.8133 177.236 9.44 178.783 8.4C180.356 7.33333 182.236 6.8 184.423 6.8Z" fill="#C92020" fill-opacity="0.5"/>
<path d="M209.525 28.2C207.338 28.2 205.418 27.7467 203.765 26.84C202.111 25.9067 200.818 24.64 199.885 23.04C198.952 21.4133 198.485 19.56 198.485 17.48C198.485 15.4 198.925 13.56 199.805 11.96C200.712 10.36 201.938 9.10667 203.485 8.2C205.058 7.26667 206.818 6.8 208.765 6.8C210.738 6.8 212.485 7.25333 214.005 8.16C215.551 9.04 216.765 10.2933 217.645 11.92C218.525 13.52 218.965 15.3733 218.965 17.48C218.965 17.6133 218.952 17.76 218.925 17.92C218.925 18.0533 218.925 18.2 218.925 18.36H200.645V16.24H217.405L216.285 17.08C216.285 15.56 215.952 14.2133 215.285 13.04C214.645 11.84 213.765 10.9067 212.645 10.24C211.525 9.57333 210.231 9.24 208.765 9.24C207.325 9.24 206.032 9.57333 204.885 10.24C203.738 10.9067 202.845 11.84 202.205 13.04C201.565 14.24 201.245 15.6133 201.245 17.16V17.6C201.245 19.2 201.592 20.6133 202.285 21.84C203.005 23.04 203.992 23.9867 205.245 24.68C206.525 25.3467 207.978 25.68 209.605 25.68C210.885 25.68 212.072 25.4533 213.165 25C214.285 24.5467 215.245 23.8533 216.045 22.92L217.645 24.76C216.712 25.88 215.538 26.7333 214.125 27.32C212.738 27.9067 211.205 28.2 209.525 28.2Z" fill="#C92020" fill-opacity="0.5"/>
</svg>
