<svg width="460" height="38" viewBox="0 0 460 38" fill="none" xmlns="http://www.w3.org/2000/svg">
<path d="M9.80773 30.1998C8.02107 30.1998 6.46107 29.8665 5.12774 29.1998C3.7944 28.5332 2.7544 27.5332 2.00773 26.1998C1.28773 24.8665 0.927734 23.1998 0.927734 21.1998V8.99982H3.76773V20.8798C3.76773 23.1198 4.3144 24.8132 5.40773 25.9598C6.52773 27.0798 8.08773 27.6398 10.0877 27.6398C11.5544 27.6398 12.8211 27.3465 13.8877 26.7598C14.9811 26.1465 15.8077 25.2665 16.3677 24.1198C16.9544 22.9732 17.2477 21.5998 17.2477 19.9998V8.99982H20.0877V29.9998H17.3677V24.2398L17.8077 25.2798C17.1411 26.8265 16.1011 28.0398 14.6877 28.9198C13.3011 29.7732 11.6744 30.1998 9.80773 30.1998Z" fill="#C92020" fill-opacity="0.5"/>
<path d="M33.6427 30.1998C31.9094 30.1998 30.2694 29.9598 28.7227 29.4798C27.1761 28.9732 25.9627 28.3465 25.0827 27.5998L26.3627 25.3598C27.2161 25.9998 28.3094 26.5598 29.6427 27.0398C30.9761 27.4932 32.3761 27.7198 33.8427 27.7198C35.8427 27.7198 37.2827 27.4132 38.1627 26.7998C39.0427 26.1598 39.4827 25.3198 39.4827 24.2798C39.4827 23.5065 39.2294 22.9065 38.7227 22.4798C38.2427 22.0265 37.6027 21.6932 36.8027 21.4798C36.0027 21.2398 35.1094 21.0398 34.1227 20.8798C33.1361 20.7198 32.1494 20.5332 31.1627 20.3198C30.2027 20.1065 29.3227 19.7998 28.5227 19.3998C27.7227 18.9732 27.0694 18.3998 26.5627 17.6798C26.0827 16.9598 25.8427 15.9998 25.8427 14.7998C25.8427 13.6532 26.1627 12.6265 26.8027 11.7198C27.4427 10.8132 28.3761 10.1065 29.6027 9.59982C30.8561 9.06649 32.3761 8.79983 34.1627 8.79983C35.5227 8.79983 36.8827 8.98649 38.2427 9.35983C39.6027 9.70649 40.7227 10.1732 41.6027 10.7598L40.3627 13.0398C39.4294 12.3998 38.4294 11.9465 37.3627 11.6798C36.2961 11.3865 35.2294 11.2398 34.1627 11.2398C32.2694 11.2398 30.8694 11.5732 29.9627 12.2398C29.0827 12.8798 28.6427 13.7065 28.6427 14.7198C28.6427 15.5198 28.8827 16.1465 29.3627 16.5998C29.8694 17.0532 30.5227 17.4132 31.3227 17.6798C32.1494 17.9198 33.0427 18.1198 34.0027 18.2798C34.9894 18.4398 35.9627 18.6398 36.9227 18.8798C37.9094 19.0932 38.8027 19.3998 39.6027 19.7998C40.4294 20.1732 41.0827 20.7198 41.5627 21.4398C42.0694 22.1332 42.3227 23.0532 42.3227 24.1998C42.3227 25.4265 41.9761 26.4932 41.2827 27.3998C40.6161 28.2798 39.6294 28.9732 38.3227 29.4798C37.0427 29.9598 35.4827 30.1998 33.6427 30.1998Z" fill="#C92020" fill-opacity="0.5"/>
<path d="M56.454 30.1998C54.2673 30.1998 52.3473 29.7465 50.694 28.8398C49.0407 27.9065 47.7473 26.6398 46.814 25.0398C45.8807 23.4132 45.414 21.5598 45.414 19.4798C45.414 17.3998 45.854 15.5598 46.734 13.9598C47.6407 12.3598 48.8673 11.1065 50.414 10.1998C51.9873 9.26649 53.7473 8.79983 55.694 8.79983C57.6673 8.79983 59.414 9.25316 60.934 10.1598C62.4806 11.0398 63.694 12.2932 64.574 13.9198C65.454 15.5198 65.894 17.3732 65.894 19.4798C65.894 19.6132 65.8806 19.7598 65.854 19.9198C65.854 20.0532 65.854 20.1998 65.854 20.3598H47.574V18.2398H64.334L63.214 19.0798C63.214 17.5598 62.8806 16.2132 62.214 15.0398C61.574 13.8398 60.694 12.9065 59.574 12.2398C58.454 11.5732 57.1607 11.2398 55.694 11.2398C54.254 11.2398 52.9607 11.5732 51.814 12.2398C50.6673 12.9065 49.774 13.8398 49.134 15.0398C48.494 16.2398 48.174 17.6132 48.174 19.1598V19.5998C48.174 21.1998 48.5206 22.6132 49.214 23.8398C49.934 25.0398 50.9206 25.9865 52.174 26.6798C53.454 27.3465 54.9073 27.6798 56.534 27.6798C57.814 27.6798 59.0007 27.4532 60.094 26.9998C61.214 26.5465 62.174 25.8532 62.974 24.9198L64.574 26.7598C63.6406 27.8798 62.4673 28.7332 61.054 29.3198C59.6673 29.9065 58.134 30.1998 56.454 30.1998Z" fill="#C92020" fill-opacity="0.5"/>
<path d="M71.6746 29.9998V8.99982H74.3946V14.7198L74.1146 13.7198C74.7013 12.1198 75.6879 10.9065 77.0746 10.0798C78.4613 9.22649 80.1813 8.79983 82.2346 8.79983V11.5598C82.1279 11.5598 82.0213 11.5598 81.9146 11.5598C81.8079 11.5332 81.7013 11.5198 81.5946 11.5198C79.3813 11.5198 77.6479 12.1998 76.3946 13.5598C75.1413 14.8932 74.5146 16.7998 74.5146 19.2798V29.9998H71.6746Z" fill="#C92020" fill-opacity="0.5"/>
<path d="M87.6187 30.1998C87.032 30.1998 86.5253 29.9865 86.0987 29.5598C85.6987 29.1332 85.4987 28.6132 85.4987 27.9998C85.4987 27.3598 85.6987 26.8398 86.0987 26.4398C86.5253 26.0398 87.032 25.8398 87.6187 25.8398C88.2053 25.8398 88.6987 26.0398 89.0987 26.4398C89.5253 26.8398 89.7387 27.3598 89.7387 27.9998C89.7387 28.6132 89.5253 29.1332 89.0987 29.5598C88.6987 29.9865 88.2053 30.1998 87.6187 30.1998Z" fill="#C92020" fill-opacity="0.5"/>
<path d="M106.535 8.79983C108.242 8.79983 109.735 9.13316 111.015 9.79983C112.322 10.4398 113.335 11.4265 114.055 12.7598C114.802 14.0932 115.175 15.7732 115.175 17.7998V29.9998H112.335V18.0798C112.335 15.8665 111.775 14.1998 110.655 13.0798C109.562 11.9332 108.015 11.3598 106.015 11.3598C104.522 11.3598 103.215 11.6665 102.095 12.2798C101.002 12.8665 100.149 13.7332 99.5352 14.8798C98.9486 15.9998 98.6552 17.3598 98.6552 18.9598V29.9998H95.8152V8.99982H98.5352V14.7598L98.0952 13.6798C98.7619 12.1598 99.8286 10.9732 101.295 10.1198C102.762 9.23982 104.509 8.79983 106.535 8.79983Z" fill="#C92020" fill-opacity="0.5"/>
<path d="M136.006 29.9998V25.3598L135.886 24.5998V16.8398C135.886 15.0532 135.38 13.6798 134.366 12.7198C133.38 11.7598 131.9 11.2798 129.926 11.2798C128.566 11.2798 127.273 11.5065 126.046 11.9598C124.82 12.4132 123.78 13.0132 122.926 13.7598L121.646 11.6398C122.713 10.7332 123.993 10.0398 125.486 9.55982C126.98 9.05316 128.553 8.79983 130.206 8.79983C132.926 8.79983 135.02 9.47983 136.486 10.8398C137.98 12.1732 138.726 14.2132 138.726 16.9598V29.9998H136.006ZM128.766 30.1998C127.193 30.1998 125.82 29.9465 124.646 29.4398C123.5 28.9065 122.62 28.1865 122.006 27.2798C121.393 26.3465 121.086 25.2798 121.086 24.0798C121.086 22.9865 121.34 21.9998 121.846 21.1198C122.38 20.2132 123.233 19.4932 124.406 18.9598C125.606 18.3998 127.206 18.1198 129.206 18.1198H136.446V20.2398H129.286C127.26 20.2398 125.846 20.5998 125.046 21.3198C124.273 22.0398 123.886 22.9332 123.886 23.9998C123.886 25.1998 124.353 26.1598 125.286 26.8798C126.22 27.5998 127.526 27.9598 129.206 27.9598C130.807 27.9598 132.18 27.5998 133.326 26.8798C134.5 26.1332 135.353 25.0665 135.886 23.6798L136.526 25.6398C135.993 27.0265 135.06 28.1332 133.726 28.9598C132.42 29.7865 130.766 30.1998 128.766 30.1998Z" fill="#C92020" fill-opacity="0.5"/>
<path d="M172.68 8.79983C174.387 8.79983 175.867 9.13316 177.12 9.79983C178.4 10.4398 179.387 11.4265 180.08 12.7598C180.8 14.0932 181.16 15.7732 181.16 17.7998V29.9998H178.32V18.0798C178.32 15.8665 177.787 14.1998 176.72 13.0798C175.68 11.9332 174.2 11.3598 172.28 11.3598C170.84 11.3598 169.587 11.6665 168.52 12.2798C167.48 12.8665 166.667 13.7332 166.08 14.8798C165.52 15.9998 165.24 17.3598 165.24 18.9598V29.9998H162.4V18.0798C162.4 15.8665 161.867 14.1998 160.8 13.0798C159.734 11.9332 158.24 11.3598 156.32 11.3598C154.907 11.3598 153.667 11.6665 152.6 12.2798C151.534 12.8665 150.707 13.7332 150.12 14.8798C149.56 15.9998 149.28 17.3598 149.28 18.9598V29.9998H146.44V8.99982H149.16V14.6798L148.72 13.6798C149.36 12.1598 150.387 10.9732 151.8 10.1198C153.24 9.23982 154.934 8.79983 156.88 8.79983C158.934 8.79983 160.68 9.31983 162.12 10.3598C163.56 11.3732 164.494 12.9065 164.92 14.9598L163.8 14.5198C164.414 12.8132 165.494 11.4398 167.04 10.3998C168.614 9.33316 170.494 8.79983 172.68 8.79983Z" fill="#C92020" fill-opacity="0.5"/>
<path d="M197.782 30.1998C195.595 30.1998 193.675 29.7465 192.022 28.8398C190.369 27.9065 189.075 26.6398 188.142 25.0398C187.209 23.4132 186.742 21.5598 186.742 19.4798C186.742 17.3998 187.182 15.5598 188.062 13.9598C188.969 12.3598 190.195 11.1065 191.742 10.1998C193.315 9.26649 195.075 8.79983 197.022 8.79983C198.995 8.79983 200.742 9.25316 202.262 10.1598C203.809 11.0398 205.022 12.2932 205.902 13.9198C206.782 15.5198 207.222 17.3732 207.222 19.4798C207.222 19.6132 207.209 19.7598 207.182 19.9198C207.182 20.0532 207.182 20.1998 207.182 20.3598H188.902V18.2398H205.662L204.542 19.0798C204.542 17.5598 204.209 16.2132 203.542 15.0398C202.902 13.8398 202.022 12.9065 200.902 12.2398C199.782 11.5732 198.489 11.2398 197.022 11.2398C195.582 11.2398 194.289 11.5732 193.142 12.2398C191.995 12.9065 191.102 13.8398 190.462 15.0398C189.822 16.2398 189.502 17.6132 189.502 19.1598V19.5998C189.502 21.1998 189.849 22.6132 190.542 23.8398C191.262 25.0398 192.249 25.9865 193.502 26.6798C194.782 27.3465 196.235 27.6798 197.862 27.6798C199.142 27.6798 200.329 27.4532 201.422 26.9998C202.542 26.5465 203.502 25.8532 204.302 24.9198L205.902 26.7598C204.969 27.8798 203.795 28.7332 202.382 29.3198C200.995 29.9065 199.462 30.1998 197.782 30.1998Z" fill="#C92020" fill-opacity="0.5"/>
<path d="M229.643 37.9998C226.896 37.9998 224.389 37.5465 222.123 36.6398C219.856 35.7598 217.896 34.5065 216.243 32.8798C214.616 31.2798 213.349 29.3732 212.443 27.1598C211.563 24.9198 211.123 22.4798 211.123 19.8398C211.123 17.1732 211.563 14.7465 212.443 12.5598C213.349 10.3465 214.629 8.43983 216.283 6.83982C217.963 5.21316 219.949 3.95982 222.243 3.07982C224.536 2.19982 227.056 1.75982 229.803 1.75982C232.523 1.75982 235.003 2.18649 237.243 3.03983C239.509 3.89316 241.469 5.10649 243.123 6.67983C244.776 8.22649 246.043 10.0798 246.923 12.2398C247.829 14.3998 248.283 16.7865 248.283 19.3998C248.283 21.6398 248.016 23.5732 247.483 25.1998C246.976 26.7998 246.229 28.0398 245.243 28.9198C244.256 29.7732 243.069 30.1998 241.683 30.1998C240.323 30.1998 239.229 29.7865 238.403 28.9598C237.576 28.1332 237.163 26.9732 237.163 25.4798V22.3198L237.483 19.7598L237.083 15.7598V9.71983H239.683V24.8798C239.683 25.9998 239.923 26.7865 240.403 27.2398C240.883 27.6932 241.469 27.9198 242.163 27.9198C242.989 27.9198 243.709 27.5865 244.323 26.9198C244.936 26.2532 245.403 25.2932 245.723 24.0398C246.069 22.7598 246.243 21.2265 246.243 19.4398C246.243 17.0932 245.843 14.9598 245.043 13.0398C244.243 11.1198 243.109 9.46649 241.643 8.07982C240.176 6.69316 238.443 5.63982 236.443 4.91982C234.443 4.17316 232.229 3.79983 229.803 3.79983C227.376 3.79983 225.149 4.18649 223.123 4.95982C221.096 5.73316 219.349 6.83983 217.883 8.27983C216.443 9.69316 215.323 11.3865 214.523 13.3598C213.723 15.3065 213.323 17.4665 213.323 19.8398C213.323 22.2132 213.709 24.3865 214.483 26.3598C215.283 28.3332 216.403 30.0265 217.843 31.4398C219.283 32.8798 221.003 33.9865 223.003 34.7598C225.003 35.5598 227.216 35.9598 229.643 35.9598C230.843 35.9598 232.123 35.8132 233.483 35.5198C234.869 35.2265 236.149 34.7865 237.323 34.1998L238.003 36.1598C236.803 36.7732 235.443 37.2265 233.923 37.5198C232.403 37.8398 230.976 37.9998 229.643 37.9998ZM229.163 30.1998C227.269 30.1998 225.576 29.7598 224.083 28.8798C222.589 27.9732 221.403 26.7465 220.523 25.1998C219.669 23.6265 219.243 21.8398 219.243 19.8398C219.243 17.8398 219.669 16.0665 220.523 14.5198C221.403 12.9732 222.589 11.7598 224.083 10.8798C225.576 9.99982 227.269 9.55982 229.163 9.55982C231.003 9.55982 232.629 9.97316 234.043 10.7998C235.483 11.6265 236.603 12.8132 237.403 14.3598C238.229 15.8798 238.643 17.7065 238.643 19.8398C238.643 21.9732 238.229 23.8132 237.403 25.3598C236.603 26.9065 235.496 28.1065 234.083 28.9598C232.669 29.7865 231.029 30.1998 229.163 30.1998ZM229.523 27.8798C230.963 27.8798 232.256 27.5465 233.403 26.8798C234.576 26.2132 235.483 25.2798 236.123 24.0798C236.789 22.8532 237.123 21.4398 237.123 19.8398C237.123 18.2132 236.789 16.8132 236.123 15.6398C235.483 14.4398 234.576 13.5198 233.403 12.8798C232.256 12.2132 230.963 11.8798 229.523 11.8798C228.029 11.8798 226.709 12.2132 225.563 12.8798C224.416 13.5198 223.509 14.4398 222.843 15.6398C222.203 16.8398 221.883 18.2398 221.883 19.8398C221.883 21.4398 222.203 22.8398 222.843 24.0398C223.509 25.2398 224.416 26.1865 225.563 26.8798C226.709 27.5465 228.029 27.8798 229.523 27.8798Z" fill="#C92020" fill-opacity="0.5"/>
<path d="M263.291 37.9598C261.371 37.9598 259.531 37.6798 257.771 37.1198C256.011 36.5598 254.584 35.7598 253.491 34.7198L254.931 32.5598C255.918 33.4398 257.131 34.1332 258.571 34.6398C260.038 35.1732 261.584 35.4398 263.211 35.4398C265.878 35.4398 267.838 34.8132 269.091 33.5598C270.344 32.3332 270.971 30.4132 270.971 27.7998V22.5598L271.371 18.9598L271.091 15.3598V8.99982H273.811V27.4398C273.811 31.0665 272.918 33.7198 271.131 35.3998C269.371 37.1065 266.758 37.9598 263.291 37.9598ZM262.771 29.1998C260.771 29.1998 258.971 28.7732 257.371 27.9198C255.771 27.0398 254.504 25.8265 253.571 24.2798C252.664 22.7332 252.211 20.9598 252.211 18.9598C252.211 16.9598 252.664 15.1998 253.571 13.6798C254.504 12.1332 255.771 10.9332 257.371 10.0798C258.971 9.22649 260.771 8.79983 262.771 8.79983C264.638 8.79983 266.318 9.18649 267.811 9.95983C269.304 10.7332 270.491 11.8798 271.371 13.3998C272.251 14.9198 272.691 16.7732 272.691 18.9598C272.691 21.1465 272.251 22.9998 271.371 24.5198C270.491 26.0398 269.304 27.1998 267.811 27.9998C266.318 28.7998 264.638 29.1998 262.771 29.1998ZM263.051 26.6798C264.598 26.6798 265.971 26.3598 267.171 25.7198C268.371 25.0532 269.318 24.1465 270.011 22.9998C270.704 21.8265 271.051 20.4798 271.051 18.9598C271.051 17.4398 270.704 16.1065 270.011 14.9598C269.318 13.8132 268.371 12.9198 267.171 12.2798C265.971 11.6132 264.598 11.2798 263.051 11.2798C261.531 11.2798 260.158 11.6132 258.931 12.2798C257.731 12.9198 256.784 13.8132 256.091 14.9598C255.424 16.1065 255.091 17.4398 255.091 18.9598C255.091 20.4798 255.424 21.8265 256.091 22.9998C256.784 24.1465 257.731 25.0532 258.931 25.7198C260.158 26.3598 261.531 26.6798 263.051 26.6798Z" fill="#C92020" fill-opacity="0.5"/>
<path d="M307.954 8.79983C309.66 8.79983 311.14 9.13316 312.394 9.79983C313.674 10.4398 314.66 11.4265 315.354 12.7598C316.074 14.0932 316.434 15.7732 316.434 17.7998V29.9998H313.594V18.0798C313.594 15.8665 313.06 14.1998 311.994 13.0798C310.954 11.9332 309.474 11.3598 307.554 11.3598C306.114 11.3598 304.86 11.6665 303.794 12.2798C302.754 12.8665 301.94 13.7332 301.354 14.8798C300.794 15.9998 300.514 17.3598 300.514 18.9598V29.9998H297.674V18.0798C297.674 15.8665 297.14 14.1998 296.074 13.0798C295.007 11.9332 293.514 11.3598 291.594 11.3598C290.18 11.3598 288.94 11.6665 287.874 12.2798C286.807 12.8665 285.98 13.7332 285.394 14.8798C284.834 15.9998 284.554 17.3598 284.554 18.9598V29.9998H281.714V8.99982H284.434V14.6798L283.994 13.6798C284.634 12.1598 285.66 10.9732 287.074 10.1198C288.514 9.23982 290.207 8.79983 292.154 8.79983C294.207 8.79983 295.954 9.31983 297.394 10.3598C298.834 11.3732 299.767 12.9065 300.194 14.9598L299.074 14.5198C299.687 12.8132 300.767 11.4398 302.314 10.3998C303.887 9.33316 305.767 8.79983 307.954 8.79983Z" fill="#C92020" fill-opacity="0.5"/>
<path d="M337.296 29.9998V25.3598L337.176 24.5998V16.8398C337.176 15.0532 336.669 13.6798 335.656 12.7198C334.669 11.7598 333.189 11.2798 331.216 11.2798C329.856 11.2798 328.562 11.5065 327.336 11.9598C326.109 12.4132 325.069 13.0132 324.216 13.7598L322.936 11.6398C324.002 10.7332 325.282 10.0398 326.776 9.55982C328.269 9.05316 329.842 8.79983 331.496 8.79983C334.216 8.79983 336.309 9.47983 337.776 10.8398C339.269 12.1732 340.016 14.2132 340.016 16.9598V29.9998H337.296ZM330.056 30.1998C328.482 30.1998 327.109 29.9465 325.936 29.4398C324.789 28.9065 323.909 28.1865 323.296 27.2798C322.682 26.3465 322.376 25.2798 322.376 24.0798C322.376 22.9865 322.629 21.9998 323.136 21.1198C323.669 20.2132 324.522 19.4932 325.696 18.9598C326.896 18.3998 328.496 18.1198 330.496 18.1198H337.736V20.2398H330.576C328.549 20.2398 327.136 20.5998 326.336 21.3198C325.562 22.0398 325.176 22.9332 325.176 23.9998C325.176 25.1998 325.642 26.1598 326.576 26.8798C327.509 27.5998 328.816 27.9598 330.496 27.9598C332.096 27.9598 333.469 27.5998 334.616 26.8798C335.789 26.1332 336.642 25.0665 337.176 23.6798L337.816 25.6398C337.282 27.0265 336.349 28.1332 335.016 28.9598C333.709 29.7865 332.056 30.1998 330.056 30.1998Z" fill="#C92020" fill-opacity="0.5"/>
<path d="M347.729 29.9998V8.99982H350.569V29.9998H347.729ZM349.169 4.35983C348.583 4.35983 348.089 4.15983 347.689 3.75983C347.289 3.35983 347.089 2.87983 347.089 2.31983C347.089 1.75982 347.289 1.29316 347.689 0.919825C348.089 0.519825 348.583 0.319824 349.169 0.319824C349.756 0.319824 350.249 0.506491 350.649 0.879825C351.049 1.25316 351.249 1.71982 351.249 2.27983C351.249 2.86649 351.049 3.35983 350.649 3.75983C350.276 4.15983 349.783 4.35983 349.169 4.35983Z" fill="#C92020" fill-opacity="0.5"/>
<path d="M358.471 29.9998V0.319824H361.311V29.9998H358.471Z" fill="#C92020" fill-opacity="0.5"/>
<path d="M369.494 30.1998C368.907 30.1998 368.4 29.9865 367.974 29.5598C367.574 29.1332 367.374 28.6132 367.374 27.9998C367.374 27.3598 367.574 26.8398 367.974 26.4398C368.4 26.0398 368.907 25.8398 369.494 25.8398C370.08 25.8398 370.574 26.0398 370.974 26.4398C371.4 26.8398 371.614 27.3598 371.614 27.9998C371.614 28.6132 371.4 29.1332 370.974 29.5598C370.574 29.9865 370.08 30.1998 369.494 30.1998Z" fill="#C92020" fill-opacity="0.5"/>
<path d="M385.824 30.1998C383.744 30.1998 381.878 29.7465 380.224 28.8398C378.598 27.9065 377.318 26.6398 376.384 25.0398C375.451 23.4132 374.984 21.5598 374.984 19.4798C374.984 17.3732 375.451 15.5198 376.384 13.9198C377.318 12.3198 378.598 11.0665 380.224 10.1598C381.878 9.25316 383.744 8.79983 385.824 8.79983C387.611 8.79983 389.224 9.14649 390.664 9.83983C392.104 10.5332 393.238 11.5732 394.064 12.9598L391.944 14.3998C391.224 13.3332 390.331 12.5465 389.264 12.0398C388.198 11.5332 387.038 11.2798 385.784 11.2798C384.291 11.2798 382.944 11.6265 381.744 12.3198C380.544 12.9865 379.598 13.9332 378.904 15.1598C378.211 16.3865 377.864 17.8265 377.864 19.4798C377.864 21.1332 378.211 22.5732 378.904 23.7998C379.598 25.0265 380.544 25.9865 381.744 26.6798C382.944 27.3465 384.291 27.6798 385.784 27.6798C387.038 27.6798 388.198 27.4265 389.264 26.9198C390.331 26.4132 391.224 25.6398 391.944 24.5998L394.064 26.0398C393.238 27.3998 392.104 28.4398 390.664 29.1598C389.224 29.8532 387.611 30.1998 385.824 30.1998Z" fill="#C92020" fill-opacity="0.5"/>
<path d="M407.852 30.1998C405.825 30.1998 403.998 29.7465 402.372 28.8398C400.772 27.9065 399.505 26.6398 398.572 25.0398C397.638 23.4132 397.172 21.5598 397.172 19.4798C397.172 17.3732 397.638 15.5198 398.572 13.9198C399.505 12.3198 400.772 11.0665 402.372 10.1598C403.972 9.25316 405.798 8.79983 407.852 8.79983C409.932 8.79983 411.772 9.25316 413.372 10.1598C414.998 11.0665 416.265 12.3198 417.172 13.9198C418.105 15.5198 418.572 17.3732 418.572 19.4798C418.572 21.5598 418.105 23.4132 417.172 25.0398C416.265 26.6398 414.998 27.9065 413.372 28.8398C411.745 29.7465 409.905 30.1998 407.852 30.1998ZM407.852 27.6798C409.372 27.6798 410.718 27.3465 411.892 26.6798C413.065 25.9865 413.985 25.0265 414.652 23.7998C415.345 22.5465 415.692 21.1065 415.692 19.4798C415.692 17.8265 415.345 16.3865 414.652 15.1598C413.985 13.9332 413.065 12.9865 411.892 12.3198C410.718 11.6265 409.385 11.2798 407.892 11.2798C406.398 11.2798 405.065 11.6265 403.892 12.3198C402.718 12.9865 401.785 13.9332 401.092 15.1598C400.398 16.3865 400.052 17.8265 400.052 19.4798C400.052 21.1065 400.398 22.5465 401.092 23.7998C401.785 25.0265 402.718 25.9865 403.892 26.6798C405.065 27.3465 406.385 27.6798 407.852 27.6798Z" fill="#C92020" fill-opacity="0.5"/>
<path d="M450.61 8.79983C452.317 8.79983 453.797 9.13316 455.05 9.79983C456.33 10.4398 457.317 11.4265 458.01 12.7598C458.73 14.0932 459.09 15.7732 459.09 17.7998V29.9998H456.25V18.0798C456.25 15.8665 455.717 14.1998 454.65 13.0798C453.61 11.9332 452.13 11.3598 450.21 11.3598C448.77 11.3598 447.517 11.6665 446.45 12.2798C445.41 12.8665 444.597 13.7332 444.01 14.8798C443.45 15.9998 443.17 17.3598 443.17 18.9598V29.9998H440.33V18.0798C440.33 15.8665 439.797 14.1998 438.73 13.0798C437.663 11.9332 436.17 11.3598 434.25 11.3598C432.837 11.3598 431.597 11.6665 430.53 12.2798C429.463 12.8665 428.637 13.7332 428.05 14.8798C427.49 15.9998 427.21 17.3598 427.21 18.9598V29.9998H424.37V8.99982H427.09V14.6798L426.65 13.6798C427.29 12.1598 428.317 10.9732 429.73 10.1198C431.17 9.23982 432.863 8.79983 434.81 8.79983C436.863 8.79983 438.61 9.31983 440.05 10.3598C441.49 11.3732 442.423 12.9065 442.85 14.9598L441.73 14.5198C442.343 12.8132 443.423 11.4398 444.97 10.3998C446.543 9.33316 448.423 8.79983 450.61 8.79983Z" fill="#C92020" fill-opacity="0.5"/>
</svg>
