<svg width="223" height="29" viewBox="0 0 223 29" fill="none" xmlns="http://www.w3.org/2000/svg">
<path d="M12.3994 28.24C8.82606 28.24 6.01273 27.2133 3.9594 25.16C1.90606 23.1067 0.879395 20.0667 0.879395 16.04V0H3.83939V15.92C3.83939 19.2267 4.58606 21.6667 6.0794 23.24C7.57273 24.8133 9.67939 25.6 12.3994 25.6C15.1461 25.6 17.2661 24.8133 18.7594 23.24C20.2527 21.6667 20.9994 19.2267 20.9994 15.92V0H23.8794V16.04C23.8794 20.0667 22.8527 23.1067 20.7994 25.16C18.7727 27.2133 15.9727 28.24 12.3994 28.24Z" fill="black"/>
<path d="M40.6391 28.2C38.9058 28.2 37.2658 27.96 35.7191 27.48C34.1724 26.9733 32.9591 26.3467 32.0791 25.6L33.3591 23.36C34.2124 24 35.3058 24.56 36.6391 25.04C37.9724 25.4933 39.3724 25.72 40.8391 25.72C42.8391 25.72 44.2791 25.4133 45.1591 24.8C46.0391 24.16 46.4791 23.32 46.4791 22.28C46.4791 21.5067 46.2258 20.9067 45.7191 20.48C45.2391 20.0267 44.5991 19.6933 43.7991 19.48C42.9991 19.24 42.1058 19.04 41.1191 18.88C40.1324 18.72 39.1458 18.5333 38.1591 18.32C37.1991 18.1067 36.3191 17.8 35.5191 17.4C34.7191 16.9733 34.0658 16.4 33.5591 15.68C33.0791 14.96 32.8391 14 32.8391 12.8C32.8391 11.6533 33.1591 10.6267 33.7991 9.72C34.4391 8.81333 35.3724 8.10667 36.5991 7.6C37.8524 7.06667 39.3724 6.8 41.1591 6.8C42.5191 6.8 43.8791 6.98667 45.2391 7.36C46.5991 7.70667 47.7191 8.17333 48.5991 8.76L47.3591 11.04C46.4258 10.4 45.4258 9.94667 44.3591 9.68C43.2924 9.38667 42.2258 9.24 41.1591 9.24C39.2658 9.24 37.8657 9.57333 36.9591 10.24C36.0791 10.88 35.6391 11.7067 35.6391 12.72C35.6391 13.52 35.8791 14.1467 36.3591 14.6C36.8658 15.0533 37.5191 15.4133 38.3191 15.68C39.1458 15.92 40.0391 16.12 40.9991 16.28C41.9858 16.44 42.9591 16.64 43.9191 16.88C44.9058 17.0933 45.7991 17.4 46.5991 17.8C47.4258 18.1733 48.0791 18.72 48.5591 19.44C49.0658 20.1333 49.3191 21.0533 49.3191 22.2C49.3191 23.4267 48.9724 24.4933 48.2791 25.4C47.6124 26.28 46.6258 26.9733 45.3191 27.48C44.0391 27.96 42.4791 28.2 40.6391 28.2Z" fill="black"/>
<path d="M66.2503 28.2C64.0637 28.2 62.1437 27.7467 60.4903 26.84C58.837 25.9067 57.5437 24.64 56.6103 23.04C55.677 21.4133 55.2103 19.56 55.2103 17.48C55.2103 15.4 55.6503 13.56 56.5303 11.96C57.437 10.36 58.6637 9.10667 60.2103 8.2C61.7837 7.26667 63.5437 6.8 65.4903 6.8C67.4637 6.8 69.2103 7.25333 70.7303 8.16C72.277 9.04 73.4903 10.2933 74.3703 11.92C75.2503 13.52 75.6903 15.3733 75.6903 17.48C75.6903 17.6133 75.677 17.76 75.6503 17.92C75.6503 18.0533 75.6503 18.2 75.6503 18.36H57.3703V16.24H74.1303L73.0103 17.08C73.0103 15.56 72.677 14.2133 72.0103 13.04C71.3703 11.84 70.4903 10.9067 69.3703 10.24C68.2503 9.57333 66.957 9.24 65.4903 9.24C64.0503 9.24 62.757 9.57333 61.6103 10.24C60.4637 10.9067 59.5703 11.84 58.9303 13.04C58.2903 14.24 57.9703 15.6133 57.9703 17.16V17.6C57.9703 19.2 58.317 20.6133 59.0103 21.84C59.7303 23.04 60.717 23.9867 61.9703 24.68C63.2503 25.3467 64.7037 25.68 66.3303 25.68C67.6103 25.68 68.797 25.4533 69.8903 25C71.0103 24.5467 71.9703 23.8533 72.7703 22.92L74.3703 24.76C73.437 25.88 72.2637 26.7333 70.8503 27.32C69.4637 27.9067 67.9303 28.2 66.2503 28.2Z" fill="black"/>
<path d="M84.271 28V7H86.991V12.72L86.711 11.72C87.2976 10.12 88.2843 8.90667 89.671 8.08C91.0576 7.22667 92.7776 6.8 94.831 6.8V9.56C94.7243 9.56 94.6176 9.56 94.511 9.56C94.4043 9.53333 94.2976 9.52 94.191 9.52C91.9776 9.52 90.2443 10.2 88.991 11.56C87.7376 12.8933 87.111 14.8 87.111 17.28V28H84.271Z" fill="black"/>
<path d="M113.533 6.8C115.24 6.8 116.733 7.13333 118.013 7.8C119.32 8.44 120.333 9.42667 121.053 10.76C121.8 12.0933 122.173 13.7733 122.173 15.8V28H119.333V16.08C119.333 13.8667 118.773 12.2 117.653 11.08C116.56 9.93333 115.013 9.36 113.013 9.36C111.52 9.36 110.213 9.66667 109.093 10.28C108 10.8667 107.146 11.7333 106.533 12.88C105.946 14 105.653 15.36 105.653 16.96V28H102.813V7H105.533V12.76L105.093 11.68C105.76 10.16 106.826 8.97333 108.293 8.12C109.76 7.24 111.506 6.8 113.533 6.8Z" fill="black"/>
<path d="M145.804 28V23.36L145.684 22.6V14.84C145.684 13.0533 145.178 11.68 144.164 10.72C143.178 9.76 141.698 9.28 139.724 9.28C138.364 9.28 137.071 9.50667 135.844 9.96C134.618 10.4133 133.578 11.0133 132.724 11.76L131.444 9.64C132.511 8.73333 133.791 8.04 135.284 7.56C136.778 7.05333 138.351 6.8 140.004 6.8C142.724 6.8 144.818 7.48 146.284 8.84C147.778 10.1733 148.524 12.2133 148.524 14.96V28H145.804ZM138.564 28.2C136.991 28.2 135.618 27.9467 134.444 27.44C133.298 26.9067 132.418 26.1867 131.804 25.28C131.191 24.3467 130.884 23.28 130.884 22.08C130.884 20.9867 131.138 20 131.644 19.12C132.178 18.2133 133.031 17.4933 134.204 16.96C135.404 16.4 137.004 16.12 139.004 16.12H146.244V18.24H139.084C137.058 18.24 135.644 18.6 134.844 19.32C134.071 20.04 133.684 20.9333 133.684 22C133.684 23.2 134.151 24.16 135.084 24.88C136.018 25.6 137.324 25.96 139.004 25.96C140.604 25.96 141.978 25.6 143.124 24.88C144.298 24.1333 145.151 23.0667 145.684 21.68L146.324 23.64C145.791 25.0267 144.858 26.1333 143.524 26.96C142.218 27.7867 140.564 28.2 138.564 28.2Z" fill="black"/>
<path d="M185.278 6.8C186.985 6.8 188.465 7.13333 189.718 7.8C190.998 8.44 191.985 9.42667 192.678 10.76C193.398 12.0933 193.758 13.7733 193.758 15.8V28H190.918V16.08C190.918 13.8667 190.385 12.2 189.318 11.08C188.278 9.93333 186.798 9.36 184.878 9.36C183.438 9.36 182.185 9.66667 181.118 10.28C180.078 10.8667 179.265 11.7333 178.678 12.88C178.118 14 177.838 15.36 177.838 16.96V28H174.998V16.08C174.998 13.8667 174.465 12.2 173.398 11.08C172.331 9.93333 170.838 9.36 168.918 9.36C167.505 9.36 166.265 9.66667 165.198 10.28C164.131 10.8667 163.305 11.7333 162.718 12.88C162.158 14 161.878 15.36 161.878 16.96V28H159.038V7H161.758V12.68L161.318 11.68C161.958 10.16 162.985 8.97333 164.398 8.12C165.838 7.24 167.531 6.8 169.478 6.8C171.531 6.8 173.278 7.32 174.718 8.36C176.158 9.37333 177.091 10.9067 177.518 12.96L176.398 12.52C177.011 10.8133 178.091 9.44 179.638 8.4C181.211 7.33333 183.091 6.8 185.278 6.8Z" fill="black"/>
<path d="M213.18 28.2C210.993 28.2 209.073 27.7467 207.42 26.84C205.767 25.9067 204.473 24.64 203.54 23.04C202.607 21.4133 202.14 19.56 202.14 17.48C202.14 15.4 202.58 13.56 203.46 11.96C204.367 10.36 205.593 9.10667 207.14 8.2C208.713 7.26667 210.473 6.8 212.42 6.8C214.393 6.8 216.14 7.25333 217.66 8.16C219.207 9.04 220.42 10.2933 221.3 11.92C222.18 13.52 222.62 15.3733 222.62 17.48C222.62 17.6133 222.607 17.76 222.58 17.92C222.58 18.0533 222.58 18.2 222.58 18.36H204.3V16.24H221.06L219.94 17.08C219.94 15.56 219.607 14.2133 218.94 13.04C218.3 11.84 217.42 10.9067 216.3 10.24C215.18 9.57333 213.887 9.24 212.42 9.24C210.98 9.24 209.687 9.57333 208.54 10.24C207.393 10.9067 206.5 11.84 205.86 13.04C205.22 14.24 204.9 15.6133 204.9 17.16V17.6C204.9 19.2 205.247 20.6133 205.94 21.84C206.66 23.04 207.647 23.9867 208.9 24.68C210.18 25.3467 211.633 25.68 213.26 25.68C214.54 25.68 215.727 25.4533 216.82 25C217.94 24.5467 218.9 23.8533 219.7 22.92L221.3 24.76C220.367 25.88 219.193 26.7333 217.78 27.32C216.393 27.9067 214.86 28.2 213.18 28.2Z" fill="black"/>
</svg>
