<svg width="25" height="24" viewBox="0 0 25 24" fill="none" xmlns="http://www.w3.org/2000/svg">
<path d="M24.3718 8.61602C24.295 8.39389 24.1536 8.1987 23.9652 8.05456C23.7767 7.91043 23.5494 7.82364 23.3112 7.80493L16.3456 7.2614L13.3314 0.709067C13.2354 0.49803 13.0792 0.318785 12.8818 0.192965C12.6844 0.0671445 12.4541 0.000127038 12.2187 1.8043e-07C11.9833 -0.000126677 11.7529 0.0666426 11.5554 0.19225C11.3578 0.317857 11.2014 0.496934 11.1052 0.707867L8.09096 7.2614L1.12533 7.80493C0.891299 7.82313 0.667562 7.90717 0.480888 8.04697C0.294213 8.18678 0.152507 8.37644 0.0727223 8.59326C-0.00706261 8.81008 -0.021548 9.04488 0.0309992 9.26958C0.0835464 9.49427 0.200901 9.69934 0.369023 9.86025L5.51657 14.788L3.69605 22.5294C3.64077 22.7637 3.65849 23.0089 3.74691 23.2333C3.83532 23.4576 3.99035 23.6506 4.19187 23.7873C4.3934 23.9241 4.63212 23.9981 4.87705 24C5.12198 24.0018 5.36182 23.9313 5.56545 23.7976L12.2183 19.4422L18.8711 23.7976C19.0792 23.9333 19.3247 24.0032 19.5744 23.9978C19.8242 23.9924 20.0663 23.912 20.2682 23.7675C20.47 23.623 20.622 23.4212 20.7036 23.1894C20.7852 22.9575 20.7925 22.7067 20.7246 22.4706L18.4899 14.7916L24.0321 9.89385C24.395 9.57229 24.5282 9.07076 24.3718 8.61602Z" fill="#C92020"/>
</svg>
