<svg width="29" height="26" viewBox="0 0 29 26" fill="none" xmlns="http://www.w3.org/2000/svg">
<path d="M28.9234 8.98134C28.8322 8.74979 28.6645 8.54633 28.4408 8.39608C28.2171 8.24583 27.9473 8.15537 27.6647 8.13586L19.3983 7.56928L15.8211 0.739132C15.7072 0.519146 15.5219 0.332301 15.2875 0.201146C15.0532 0.0699915 14.7799 0.000132424 14.5006 1.88081e-07C14.2213 -0.000132048 13.9479 0.0694682 13.7134 0.200401C13.4789 0.331334 13.2934 0.518004 13.1792 0.737881L9.60199 7.56928L1.3355 8.13586C1.05775 8.15484 0.792233 8.24243 0.570696 8.38816C0.349159 8.5339 0.180989 8.7316 0.0863037 8.95761C-0.0083816 9.18363 -0.0255723 9.42839 0.0367885 9.66261C0.0991492 9.89683 0.238421 10.1106 0.437941 10.2783L6.54683 15.415L4.38631 23.4846C4.32071 23.7289 4.34174 23.9845 4.44666 24.2183C4.55159 24.4522 4.73557 24.6534 4.97473 24.7959C5.21389 24.9384 5.49719 25.0157 5.78787 25.0176C6.07854 25.0195 6.36318 24.946 6.60483 24.8066L14.5001 20.2665L22.3954 24.8066C22.6424 24.9481 22.9337 25.0209 23.2301 25.0153C23.5265 25.0097 23.8138 24.9259 24.0533 24.7753C24.2929 24.6246 24.4732 24.4143 24.5701 24.1726C24.6669 23.9309 24.6757 23.6694 24.5951 23.4233L21.943 15.4188L28.5203 10.3134C28.9509 9.97816 29.109 9.45536 28.9234 8.98134Z" fill="#C92020"/>
</svg>
