<svg width="103" height="19" viewBox="0 0 103 19" fill="none" xmlns="http://www.w3.org/2000/svg">
<path d="M6.27389 15L0.837891 2.39998H3.98789L8.73989 13.56H6.88589L11.7099 2.39998H14.6079L9.15389 15H6.27389Z" fill="black"/>
<path d="M15.6201 15V5.31598H18.4281V15H15.6201ZM17.0241 3.96599C16.5081 3.96599 16.0881 3.81598 15.7641 3.51599C15.4401 3.21598 15.2781 2.84398 15.2781 2.39998C15.2781 1.95598 15.4401 1.58398 15.7641 1.28398C16.0881 0.983984 16.5081 0.833984 17.0241 0.833984C17.5401 0.833984 17.9601 0.977985 18.2841 1.26599C18.6081 1.54199 18.7701 1.90199 18.7701 2.34599C18.7701 2.81398 18.6081 3.20398 18.2841 3.51599C17.9721 3.81598 17.5521 3.96599 17.0241 3.96599Z" fill="black"/>
<path d="M25.8402 15.144C24.7362 15.144 23.7642 14.928 22.9242 14.496C22.0962 14.064 21.4542 13.476 20.9982 12.732C20.5422 11.976 20.3142 11.118 20.3142 10.158C20.3142 9.18599 20.5362 8.32799 20.9802 7.58399C21.4362 6.82799 22.0542 6.23998 22.8342 5.81998C23.6142 5.38799 24.4962 5.17199 25.4802 5.17199C26.4282 5.17199 27.2802 5.37599 28.0362 5.78399C28.8042 6.17999 29.4102 6.75599 29.8542 7.51199C30.2982 8.25599 30.5202 9.14999 30.5202 10.194C30.5202 10.302 30.5142 10.428 30.5022 10.572C30.4902 10.704 30.4782 10.83 30.4662 10.95H22.6002V9.31199H28.9902L27.9102 9.79799C27.9102 9.29399 27.8082 8.85598 27.6042 8.48398C27.4002 8.11199 27.1182 7.82399 26.7582 7.61999C26.3982 7.40399 25.9782 7.29599 25.4982 7.29599C25.0182 7.29599 24.5922 7.40399 24.2202 7.61999C23.8602 7.82399 23.5782 8.11799 23.3742 8.50199C23.1702 8.87399 23.0682 9.31799 23.0682 9.83399V10.266C23.0682 10.794 23.1822 11.262 23.4102 11.67C23.6502 12.066 23.9802 12.372 24.4002 12.588C24.8322 12.792 25.3362 12.894 25.9122 12.894C26.4282 12.894 26.8782 12.816 27.2622 12.66C27.6582 12.504 28.0182 12.27 28.3422 11.958L29.8362 13.578C29.3922 14.082 28.8342 14.472 28.1622 14.748C27.4902 15.012 26.7162 15.144 25.8402 15.144Z" fill="black"/>
<path d="M34.4279 15L30.9359 5.31598H33.5819L36.4799 13.65H35.2199L38.2439 5.31598H40.6199L43.5539 13.65H42.2939L45.2819 5.31598H47.7659L44.2559 15H41.5379L38.9639 7.85399H39.7919L37.1279 15H34.4279Z" fill="black"/>
<path d="M66.5709 5.17199C67.3389 5.17199 68.0169 5.32799 68.6049 5.63999C69.2049 5.93999 69.6729 6.40799 70.0089 7.04399C70.3569 7.66799 70.5309 8.47199 70.5309 9.45599V15H67.7229V9.88799C67.7229 9.10799 67.5609 8.53199 67.2369 8.15999C66.9129 7.78799 66.4569 7.60198 65.8689 7.60198C65.4609 7.60198 65.0949 7.69799 64.7709 7.88999C64.4469 8.06998 64.1949 8.34598 64.0149 8.71799C63.8349 9.08998 63.7449 9.56398 63.7449 10.14V15H60.9369V9.88799C60.9369 9.10799 60.7749 8.53199 60.4509 8.15999C60.1389 7.78799 59.6889 7.60198 59.1009 7.60198C58.6929 7.60198 58.3269 7.69799 58.0029 7.88999C57.6789 8.06998 57.4269 8.34598 57.2469 8.71799C57.0669 9.08998 56.9769 9.56398 56.9769 10.14V15H54.1689V5.31598H56.8509V7.96199L56.3469 7.18799C56.6829 6.52799 57.1569 6.02998 57.7689 5.69398C58.3929 5.34599 59.1009 5.17199 59.8929 5.17199C60.7809 5.17199 61.5549 5.39999 62.2149 5.85599C62.8869 6.29999 63.3309 6.98399 63.5469 7.90799L62.5569 7.63799C62.8809 6.88198 63.3969 6.28198 64.1049 5.83799C64.8249 5.39398 65.6469 5.17199 66.5709 5.17199Z" fill="black"/>
<path d="M77.7262 15.144C76.6942 15.144 75.7762 14.928 74.9722 14.496C74.1802 14.064 73.5502 13.476 73.0822 12.732C72.6262 11.976 72.3982 11.118 72.3982 10.158C72.3982 9.18599 72.6262 8.32799 73.0822 7.58399C73.5502 6.82799 74.1802 6.23998 74.9722 5.81998C75.7762 5.38799 76.6942 5.17199 77.7262 5.17199C78.7462 5.17199 79.6582 5.38799 80.4622 5.81998C81.2662 6.23998 81.8962 6.82199 82.3522 7.56599C82.8082 8.30999 83.0362 9.17399 83.0362 10.158C83.0362 11.118 82.8082 11.976 82.3522 12.732C81.8962 13.476 81.2662 14.064 80.4622 14.496C79.6582 14.928 78.7462 15.144 77.7262 15.144ZM77.7262 12.84C78.1942 12.84 78.6142 12.732 78.9862 12.516C79.3582 12.3 79.6522 11.994 79.8682 11.598C80.0842 11.19 80.1922 10.71 80.1922 10.158C80.1922 9.59399 80.0842 9.11399 79.8682 8.71799C79.6522 8.32198 79.3582 8.01599 78.9862 7.79999C78.6142 7.58399 78.1942 7.47599 77.7262 7.47599C77.2582 7.47599 76.8382 7.58399 76.4662 7.79999C76.0942 8.01599 75.7942 8.32198 75.5662 8.71799C75.3502 9.11399 75.2422 9.59399 75.2422 10.158C75.2422 10.71 75.3502 11.19 75.5662 11.598C75.7942 11.994 76.0942 12.3 76.4662 12.516C76.8382 12.732 77.2582 12.84 77.7262 12.84Z" fill="black"/>
<path d="M84.9131 15V5.31598H87.5951V8.05199L87.2171 7.25999C87.5051 6.57599 87.9671 6.05998 88.6031 5.71198C89.2391 5.35198 90.0131 5.17199 90.9251 5.17199V7.76399C90.8051 7.75199 90.6971 7.74599 90.6011 7.74599C90.5051 7.73398 90.4031 7.72799 90.2951 7.72799C89.5271 7.72799 88.9031 7.94999 88.4231 8.39399C87.9551 8.82599 87.7211 9.50398 87.7211 10.428V15H84.9131Z" fill="black"/>
<path d="M97.3304 15.144C96.2264 15.144 95.2544 14.928 94.4144 14.496C93.5864 14.064 92.9444 13.476 92.4884 12.732C92.0324 11.976 91.8044 11.118 91.8044 10.158C91.8044 9.18599 92.0264 8.32799 92.4704 7.58399C92.9264 6.82799 93.5444 6.23998 94.3244 5.81998C95.1044 5.38799 95.9864 5.17199 96.9704 5.17199C97.9184 5.17199 98.7704 5.37599 99.5264 5.78399C100.294 6.17999 100.9 6.75599 101.344 7.51199C101.788 8.25599 102.01 9.14999 102.01 10.194C102.01 10.302 102.004 10.428 101.992 10.572C101.98 10.704 101.968 10.83 101.956 10.95H94.0904V9.31199H100.48L99.4004 9.79799C99.4004 9.29399 99.2984 8.85598 99.0944 8.48398C98.8904 8.11199 98.6084 7.82399 98.2484 7.61999C97.8884 7.40399 97.4684 7.29599 96.9884 7.29599C96.5084 7.29599 96.0824 7.40399 95.7104 7.61999C95.3504 7.82399 95.0684 8.11799 94.8644 8.50199C94.6604 8.87399 94.5584 9.31799 94.5584 9.83399V10.266C94.5584 10.794 94.6724 11.262 94.9004 11.67C95.1404 12.066 95.4704 12.372 95.8904 12.588C96.3224 12.792 96.8264 12.894 97.4024 12.894C97.9184 12.894 98.3684 12.816 98.7524 12.66C99.1484 12.504 99.5084 12.27 99.8324 11.958L101.326 13.578C100.882 14.082 100.324 14.472 99.6524 14.748C98.9804 15.012 98.2064 15.144 97.3304 15.144Z" fill="black"/>
<path d="M0.999891 17.25H102.586V18.15H0.999891V17.25Z" fill="black"/>
</svg>
