<svg width="260" height="33" viewBox="0 0 260 33" fill="none" xmlns="http://www.w3.org/2000/svg">
<path d="M5.24612 11.9999V7.83985L5.51812 8.57585L0.766113 0.799851H2.03011L6.20612 7.63185H5.53411L9.71011 0.799851H10.8941L6.14211 8.57585L6.41412 7.83985V11.9999H5.24612Z" fill="black"/>
<path d="M14.9612 12.0799C14.1506 12.0799 13.4199 11.8985 12.7692 11.5359C12.1292 11.1625 11.6226 10.6559 11.2492 10.0159C10.8759 9.36519 10.6892 8.62385 10.6892 7.79185C10.6892 6.94919 10.8759 6.20785 11.2492 5.56785C11.6226 4.92785 12.1292 4.42652 12.7692 4.06385C13.4092 3.70118 14.1399 3.51985 14.9612 3.51985C15.7932 3.51985 16.5292 3.70118 17.1692 4.06385C17.8199 4.42652 18.3266 4.92785 18.6892 5.56785C19.0626 6.20785 19.2492 6.94919 19.2492 7.79185C19.2492 8.62385 19.0626 9.36519 18.6892 10.0159C18.3266 10.6559 17.8199 11.1625 17.1692 11.5359C16.5186 11.8985 15.7826 12.0799 14.9612 12.0799ZM14.9612 11.0719C15.5692 11.0719 16.1079 10.9385 16.5772 10.6719C17.0466 10.3945 17.4146 10.0105 17.6812 9.51985C17.9586 9.01852 18.0972 8.44252 18.0972 7.79185C18.0972 7.13052 17.9586 6.55452 17.6812 6.06385C17.4146 5.57318 17.0466 5.19452 16.5772 4.92785C16.1079 4.65052 15.5746 4.51185 14.9772 4.51185C14.3799 4.51185 13.8466 4.65052 13.3772 4.92785C12.9079 5.19452 12.5346 5.57318 12.2572 6.06385C11.9799 6.55452 11.8412 7.13052 11.8412 7.79185C11.8412 8.44252 11.9799 9.01852 12.2572 9.51985C12.5346 10.0105 12.9079 10.3945 13.3772 10.6719C13.8466 10.9385 14.3746 11.0719 14.9612 11.0719Z" fill="black"/>
<path d="M25.0405 12.0799C24.3258 12.0799 23.7018 11.9465 23.1685 11.6799C22.6352 11.4132 22.2192 11.0132 21.9205 10.4799C21.6325 9.94652 21.4885 9.27985 21.4885 8.47985V3.59985H22.6245V8.35185C22.6245 9.24785 22.8432 9.92519 23.2805 10.3839C23.7285 10.8319 24.3525 11.0559 25.1525 11.0559C25.7392 11.0559 26.2458 10.9385 26.6725 10.7039C27.1098 10.4585 27.4405 10.1065 27.6645 9.64785C27.8992 9.18919 28.0165 8.63985 28.0165 7.99985V3.59985H29.1525V11.9999H28.0645V9.69585L28.2405 10.1119C27.9738 10.7305 27.5578 11.2159 26.9925 11.5679C26.4378 11.9092 25.7872 12.0799 25.0405 12.0799Z" fill="black"/>
<path d="M39.29 11.9999L35.514 0.799851H36.73L40.266 11.3439H39.658L43.306 0.799851H44.394L47.994 11.3439H47.418L50.986 0.799851H52.122L48.346 11.9999H47.098L43.658 1.99985H43.978L40.522 11.9999H39.29Z" fill="black"/>
<path d="M54.006 11.9999V3.59985H55.142V11.9999H54.006ZM54.582 1.74385C54.3473 1.74385 54.15 1.66385 53.99 1.50385C53.83 1.34385 53.75 1.15185 53.75 0.927852C53.75 0.703851 53.83 0.517185 53.99 0.367851C54.15 0.207851 54.3473 0.127851 54.582 0.127851C54.8167 0.127851 55.014 0.202518 55.174 0.351851C55.334 0.501185 55.414 0.687852 55.414 0.911852C55.414 1.14652 55.334 1.34385 55.174 1.50385C55.0247 1.66385 54.8273 1.74385 54.582 1.74385Z" fill="black"/>
<path d="M58.3029 11.9999V0.127851H59.4389V11.9999H58.3029Z" fill="black"/>
<path d="M62.5997 11.9999V0.127851H63.7357V11.9999H62.5997Z" fill="black"/>
<path d="M76.2361 12.0959C75.3828 12.0959 74.5934 11.9572 73.8681 11.6799C73.1534 11.3919 72.5294 10.9919 71.9961 10.4799C71.4734 9.96785 71.0628 9.36519 70.7641 8.67185C70.4761 7.97852 70.3321 7.22119 70.3321 6.39985C70.3321 5.57852 70.4761 4.82119 70.7641 4.12785C71.0628 3.43452 71.4788 2.83185 72.0121 2.31985C72.5454 1.80785 73.1694 1.41318 73.8841 1.13585C74.6095 0.847852 75.3988 0.703852 76.2521 0.703852C77.1054 0.703852 77.8841 0.837185 78.5881 1.10385C79.3028 1.37052 79.9108 1.77585 80.4121 2.31985L79.6761 3.07185C79.2068 2.60252 78.6894 2.26652 78.1241 2.06385C77.5588 1.86118 76.9508 1.75985 76.3001 1.75985C75.6068 1.75985 74.9668 1.87718 74.3801 2.11185C73.8041 2.33585 73.2974 2.66119 72.8601 3.08785C72.4334 3.50385 72.0974 3.99452 71.8521 4.55985C71.6174 5.11452 71.5001 5.72785 71.5001 6.39985C71.5001 7.06119 71.6174 7.67452 71.8521 8.23985C72.0974 8.80519 72.4334 9.30119 72.8601 9.72785C73.2974 10.1439 73.8041 10.4692 74.3801 10.7039C74.9668 10.9279 75.6014 11.0399 76.2841 11.0399C76.9241 11.0399 77.5268 10.9439 78.0921 10.7519C78.6681 10.5599 79.1961 10.2345 79.6761 9.77585L80.3481 10.6719C79.8148 11.1412 79.1908 11.4985 78.4761 11.7439C77.7614 11.9785 77.0148 12.0959 76.2361 12.0959ZM79.2121 10.5279V6.39985H80.3481V10.6719L79.2121 10.5279Z" fill="black"/>
<path d="M87.0271 12.0799C86.1525 12.0799 85.3844 11.8985 84.7231 11.5359C84.0618 11.1625 83.5444 10.6559 83.1711 10.0159C82.7978 9.36519 82.6111 8.62385 82.6111 7.79185C82.6111 6.95985 82.7871 6.22385 83.1391 5.58385C83.5018 4.94385 83.9924 4.44252 84.6111 4.07985C85.2404 3.70652 85.9445 3.51985 86.7231 3.51985C87.5125 3.51985 88.2111 3.70118 88.8191 4.06385C89.4378 4.41585 89.9231 4.91719 90.2751 5.56785C90.6271 6.20785 90.8031 6.94919 90.8031 7.79185C90.8031 7.84519 90.7978 7.90385 90.7871 7.96785C90.7871 8.02119 90.7871 8.07985 90.7871 8.14385H83.4751V7.29585H90.1791L89.7311 7.63185C89.7311 7.02385 89.5978 6.48519 89.3311 6.01585C89.0751 5.53585 88.7231 5.16252 88.2751 4.89585C87.8271 4.62919 87.3098 4.49585 86.7231 4.49585C86.1471 4.49585 85.6298 4.62919 85.1711 4.89585C84.7124 5.16252 84.3551 5.53585 84.0991 6.01585C83.8431 6.49585 83.7151 7.04519 83.7151 7.66385V7.83985C83.7151 8.47985 83.8538 9.04519 84.1311 9.53585C84.4191 10.0159 84.8138 10.3945 85.3151 10.6719C85.8271 10.9385 86.4084 11.0719 87.0591 11.0719C87.5711 11.0719 88.0458 10.9812 88.4831 10.7999C88.9311 10.6185 89.3151 10.3412 89.6351 9.96785L90.2751 10.7039C89.9018 11.1519 89.4324 11.4932 88.8671 11.7279C88.3125 11.9625 87.6991 12.0799 87.0271 12.0799Z" fill="black"/>
<path d="M95.7714 12.0799C94.982 12.0799 94.374 11.8665 93.9474 11.4399C93.5207 11.0132 93.3074 10.4105 93.3074 9.63185V1.74385H94.4434V9.56785C94.4434 10.0585 94.566 10.4372 94.8114 10.7039C95.0674 10.9705 95.43 11.1039 95.8994 11.1039C96.4007 11.1039 96.8167 10.9599 97.1474 10.6719L97.5474 11.4879C97.3234 11.6905 97.0514 11.8399 96.7314 11.9359C96.422 12.0319 96.102 12.0799 95.7714 12.0799ZM91.8034 4.54385V3.59985H97.0034V4.54385H91.8034Z" fill="black"/>
<path d="M102.251 11.9999L107.371 0.799851H108.539L113.659 11.9999H112.411L107.707 1.48785H108.187L103.483 11.9999H102.251ZM104.267 9.00785L104.619 8.04785H111.131L111.483 9.00785H104.267Z" fill="black"/>
<path d="M124.563 12.0959C123.72 12.0959 122.942 11.9572 122.227 11.6799C121.512 11.3919 120.894 10.9919 120.371 10.4799C119.848 9.96785 119.438 9.36519 119.139 8.67185C118.851 7.97852 118.707 7.22119 118.707 6.39985C118.707 5.57852 118.851 4.82119 119.139 4.12785C119.438 3.43452 119.848 2.83185 120.371 2.31985C120.904 1.80785 121.528 1.41318 122.243 1.13585C122.958 0.847852 123.736 0.703852 124.579 0.703852C125.39 0.703852 126.152 0.842518 126.867 1.11985C127.582 1.38652 128.184 1.79185 128.675 2.33585L127.923 3.08785C127.464 2.61852 126.958 2.28252 126.403 2.07985C125.848 1.86652 125.251 1.75985 124.611 1.75985C123.939 1.75985 123.315 1.87718 122.739 2.11185C122.163 2.33585 121.662 2.66119 121.235 3.08785C120.808 3.50385 120.472 3.99452 120.227 4.55985C119.992 5.11452 119.875 5.72785 119.875 6.39985C119.875 7.07185 119.992 7.69052 120.227 8.25585C120.472 8.81052 120.808 9.30119 121.235 9.72785C121.662 10.1439 122.163 10.4692 122.739 10.7039C123.315 10.9279 123.939 11.0399 124.611 11.0399C125.251 11.0399 125.848 10.9332 126.403 10.7199C126.958 10.5065 127.464 10.1652 127.923 9.69585L128.675 10.4479C128.184 10.9919 127.582 11.4025 126.867 11.6799C126.152 11.9572 125.384 12.0959 124.563 12.0959Z" fill="black"/>
<path d="M134.008 12.0799C133.197 12.0799 132.467 11.8985 131.816 11.5359C131.176 11.1625 130.669 10.6559 130.296 10.0159C129.923 9.36519 129.736 8.62385 129.736 7.79185C129.736 6.94919 129.923 6.20785 130.296 5.56785C130.669 4.92785 131.176 4.42652 131.816 4.06385C132.456 3.70118 133.187 3.51985 134.008 3.51985C134.84 3.51985 135.576 3.70118 136.216 4.06385C136.867 4.42652 137.373 4.92785 137.736 5.56785C138.109 6.20785 138.296 6.94919 138.296 7.79185C138.296 8.62385 138.109 9.36519 137.736 10.0159C137.373 10.6559 136.867 11.1625 136.216 11.5359C135.565 11.8985 134.829 12.0799 134.008 12.0799ZM134.008 11.0719C134.616 11.0719 135.155 10.9385 135.624 10.6719C136.093 10.3945 136.461 10.0105 136.728 9.51985C137.005 9.01852 137.144 8.44252 137.144 7.79185C137.144 7.13052 137.005 6.55452 136.728 6.06385C136.461 5.57318 136.093 5.19452 135.624 4.92785C135.155 4.65052 134.621 4.51185 134.024 4.51185C133.427 4.51185 132.893 4.65052 132.424 4.92785C131.955 5.19452 131.581 5.57318 131.304 6.06385C131.027 6.55452 130.888 7.13052 130.888 7.79185C130.888 8.44252 131.027 9.01852 131.304 9.51985C131.581 10.0105 131.955 10.3945 132.424 10.6719C132.893 10.9385 133.421 11.0719 134.008 11.0719Z" fill="black"/>
<path d="M144.903 3.51985C145.586 3.51985 146.183 3.65319 146.695 3.91985C147.218 4.17585 147.623 4.57052 147.911 5.10385C148.21 5.63719 148.359 6.30919 148.359 7.11985V11.9999H147.223V7.23185C147.223 6.34652 146.999 5.67985 146.551 5.23185C146.114 4.77319 145.495 4.54385 144.695 4.54385C144.098 4.54385 143.575 4.66652 143.127 4.91185C142.69 5.14652 142.349 5.49319 142.103 5.95185C141.869 6.39985 141.751 6.94385 141.751 7.58385V11.9999H140.615V3.59985H141.703V5.90385L141.527 5.47185C141.794 4.86385 142.221 4.38919 142.807 4.04785C143.394 3.69585 144.093 3.51985 144.903 3.51985Z" fill="black"/>
<path d="M151.62 11.9999V2.54385C151.62 1.79719 151.839 1.19452 152.276 0.735851C152.713 0.277185 153.343 0.0478516 154.164 0.0478516C154.484 0.0478516 154.793 0.0905183 155.092 0.175852C155.391 0.261185 155.641 0.394519 155.844 0.575851L155.46 1.42385C155.3 1.28519 155.113 1.18385 154.9 1.11985C154.687 1.04519 154.457 1.00785 154.212 1.00785C153.732 1.00785 153.364 1.14118 153.108 1.40785C152.852 1.67452 152.724 2.06919 152.724 2.59185V3.87185L152.756 4.39985V11.9999H151.62ZM150.116 4.54385V3.59985H155.316V4.54385H150.116ZM156.852 11.9999V3.59985H157.988V11.9999H156.852ZM157.428 1.74385C157.193 1.74385 156.996 1.66385 156.836 1.50385C156.676 1.34385 156.596 1.15185 156.596 0.927852C156.596 0.703851 156.676 0.517185 156.836 0.367851C156.996 0.207851 157.193 0.127851 157.428 0.127851C157.663 0.127851 157.86 0.202518 158.02 0.351851C158.18 0.501185 158.26 0.687852 158.26 0.911852C158.26 1.14652 158.18 1.34385 158.02 1.50385C157.871 1.66385 157.673 1.74385 157.428 1.74385Z" fill="black"/>
<path d="M161.178 11.9999V3.59985H162.266V5.88785L162.154 5.48785C162.389 4.84785 162.783 4.36252 163.338 4.03185C163.893 3.69052 164.581 3.51985 165.402 3.51985V4.62385C165.359 4.62385 165.317 4.62385 165.274 4.62385C165.231 4.61319 165.189 4.60785 165.146 4.60785C164.261 4.60785 163.567 4.87985 163.066 5.42385C162.565 5.95719 162.314 6.71985 162.314 7.71185V11.9999H161.178Z" fill="black"/>
<path d="M177.971 3.51985C178.653 3.51985 179.245 3.65319 179.747 3.91985C180.259 4.17585 180.653 4.57052 180.931 5.10385C181.219 5.63719 181.363 6.30919 181.363 7.11985V11.9999H180.227V7.23185C180.227 6.34652 180.013 5.67985 179.587 5.23185C179.171 4.77319 178.579 4.54385 177.811 4.54385C177.235 4.54385 176.733 4.66652 176.307 4.91185C175.891 5.14652 175.565 5.49319 175.331 5.95185C175.107 6.39985 174.995 6.94385 174.995 7.58385V11.9999H173.859V7.23185C173.859 6.34652 173.645 5.67985 173.219 5.23185C172.792 4.77319 172.195 4.54385 171.427 4.54385C170.861 4.54385 170.365 4.66652 169.939 4.91185C169.512 5.14652 169.181 5.49319 168.947 5.95185C168.723 6.39985 168.611 6.94385 168.611 7.58385V11.9999H167.475V3.59985H168.563V5.87185L168.387 5.47185C168.643 4.86385 169.053 4.38919 169.619 4.04785C170.195 3.69585 170.872 3.51985 171.651 3.51985C172.472 3.51985 173.171 3.72785 173.747 4.14385C174.323 4.54918 174.696 5.16252 174.867 5.98385L174.419 5.80785C174.664 5.12519 175.096 4.57585 175.715 4.15985C176.344 3.73319 177.096 3.51985 177.971 3.51985Z" fill="black"/>
<path d="M189.707 11.9999V10.1439L189.659 9.83985V6.73585C189.659 6.02119 189.457 5.47185 189.051 5.08785C188.657 4.70385 188.065 4.51185 187.275 4.51185C186.731 4.51185 186.214 4.60252 185.723 4.78385C185.233 4.96519 184.817 5.20519 184.475 5.50385L183.964 4.65585C184.39 4.29319 184.902 4.01585 185.499 3.82385C186.097 3.62119 186.726 3.51985 187.387 3.51985C188.475 3.51985 189.313 3.79185 189.899 4.33585C190.497 4.86918 190.796 5.68519 190.796 6.78385V11.9999H189.707ZM186.811 12.0799C186.182 12.0799 185.633 11.9785 185.163 11.7759C184.705 11.5625 184.353 11.2745 184.107 10.9119C183.862 10.5385 183.74 10.1119 183.74 9.63185C183.74 9.19452 183.841 8.79985 184.043 8.44785C184.257 8.08519 184.598 7.79719 185.068 7.58385C185.548 7.35985 186.187 7.24785 186.987 7.24785H189.883V8.09585H187.02C186.209 8.09585 185.643 8.23985 185.323 8.52785C185.014 8.81585 184.859 9.17319 184.859 9.59985C184.859 10.0799 185.046 10.4639 185.419 10.7519C185.793 11.0399 186.315 11.1839 186.987 11.1839C187.627 11.1839 188.177 11.0399 188.635 10.7519C189.105 10.4532 189.446 10.0265 189.659 9.47185L189.915 10.2559C189.702 10.8105 189.329 11.2532 188.796 11.5839C188.273 11.9145 187.611 12.0799 186.811 12.0799Z" fill="black"/>
<path d="M196.537 12.0799C195.748 12.0799 195.14 11.8665 194.713 11.4399C194.286 11.0132 194.073 10.4105 194.073 9.63185V1.74385H195.209V9.56785C195.209 10.0585 195.332 10.4372 195.577 10.7039C195.833 10.9705 196.196 11.1039 196.665 11.1039C197.166 11.1039 197.582 10.9599 197.913 10.6719L198.313 11.4879C198.089 11.6905 197.817 11.8399 197.497 11.9359C197.188 12.0319 196.868 12.0799 196.537 12.0799ZM192.569 4.54385V3.59985H197.769V4.54385H192.569Z" fill="black"/>
<path d="M200.381 11.9999V3.59985H201.517V11.9999H200.381ZM200.957 1.74385C200.722 1.74385 200.525 1.66385 200.365 1.50385C200.205 1.34385 200.125 1.15185 200.125 0.927852C200.125 0.703851 200.205 0.517185 200.365 0.367851C200.525 0.207851 200.722 0.127851 200.957 0.127851C201.192 0.127851 201.389 0.202518 201.549 0.351851C201.709 0.501185 201.789 0.687852 201.789 0.911852C201.789 1.14652 201.709 1.34385 201.549 1.50385C201.4 1.66385 201.202 1.74385 200.957 1.74385Z" fill="black"/>
<path d="M208.102 12.0799C207.291 12.0799 206.561 11.8985 205.91 11.5359C205.27 11.1625 204.763 10.6559 204.39 10.0159C204.017 9.36519 203.83 8.62385 203.83 7.79185C203.83 6.94919 204.017 6.20785 204.39 5.56785C204.763 4.92785 205.27 4.42652 205.91 4.06385C206.55 3.70118 207.281 3.51985 208.102 3.51985C208.934 3.51985 209.67 3.70118 210.31 4.06385C210.961 4.42652 211.467 4.92785 211.83 5.56785C212.203 6.20785 212.39 6.94919 212.39 7.79185C212.39 8.62385 212.203 9.36519 211.83 10.0159C211.467 10.6559 210.961 11.1625 210.31 11.5359C209.659 11.8985 208.923 12.0799 208.102 12.0799ZM208.102 11.0719C208.71 11.0719 209.249 10.9385 209.718 10.6719C210.187 10.3945 210.555 10.0105 210.822 9.51985C211.099 9.01852 211.238 8.44252 211.238 7.79185C211.238 7.13052 211.099 6.55452 210.822 6.06385C210.555 5.57318 210.187 5.19452 209.718 4.92785C209.249 4.65052 208.715 4.51185 208.118 4.51185C207.521 4.51185 206.987 4.65052 206.518 4.92785C206.049 5.19452 205.675 5.57318 205.398 6.06385C205.121 6.55452 204.982 7.13052 204.982 7.79185C204.982 8.44252 205.121 9.01852 205.398 9.51985C205.675 10.0105 206.049 10.3945 206.518 10.6719C206.987 10.9385 207.515 11.0719 208.102 11.0719Z" fill="black"/>
<path d="M218.997 3.51985C219.68 3.51985 220.277 3.65319 220.789 3.91985C221.312 4.17585 221.717 4.57052 222.005 5.10385C222.304 5.63719 222.453 6.30919 222.453 7.11985V11.9999H221.317V7.23185C221.317 6.34652 221.093 5.67985 220.645 5.23185C220.208 4.77319 219.589 4.54385 218.789 4.54385C218.192 4.54385 217.669 4.66652 217.221 4.91185C216.784 5.14652 216.442 5.49319 216.197 5.95185C215.962 6.39985 215.845 6.94385 215.845 7.58385V11.9999H214.709V3.59985H215.797V5.90385L215.621 5.47185C215.888 4.86385 216.314 4.38919 216.901 4.04785C217.488 3.69585 218.186 3.51985 218.997 3.51985Z" fill="black"/>
<path d="M228.157 11.9999L233.277 0.799851H234.445L239.565 11.9999H238.317L233.613 1.48785H234.093L229.389 11.9999H228.157ZM230.173 9.00785L230.525 8.04785H237.037L237.389 9.00785H230.173Z" fill="black"/>
<path d="M245.466 3.51985C246.149 3.51985 246.746 3.65319 247.258 3.91985C247.781 4.17585 248.186 4.57052 248.474 5.10385C248.773 5.63719 248.922 6.30919 248.922 7.11985V11.9999H247.786V7.23185C247.786 6.34652 247.562 5.67985 247.114 5.23185C246.677 4.77319 246.058 4.54385 245.258 4.54385C244.661 4.54385 244.138 4.66652 243.69 4.91185C243.253 5.14652 242.911 5.49319 242.666 5.95185C242.431 6.39985 242.314 6.94385 242.314 7.58385V11.9999H241.178V3.59985H242.266V5.90385L242.09 5.47185C242.357 4.86385 242.783 4.38919 243.37 4.04785C243.957 3.69585 244.655 3.51985 245.466 3.51985Z" fill="black"/>
<path d="M255.334 12.0799C254.534 12.0799 253.814 11.8985 253.174 11.5359C252.545 11.1732 252.049 10.6719 251.686 10.0319C251.324 9.38118 251.142 8.63452 251.142 7.79185C251.142 6.93852 251.324 6.19185 251.686 5.55185C252.049 4.91185 252.545 4.41585 253.174 4.06385C253.814 3.70118 254.534 3.51985 255.334 3.51985C256.07 3.51985 256.726 3.68519 257.302 4.01585C257.889 4.34652 258.353 4.83185 258.694 5.47185C259.046 6.10119 259.222 6.87452 259.222 7.79185C259.222 8.69852 259.052 9.47185 258.71 10.1119C258.369 10.7519 257.905 11.2425 257.318 11.5839C256.742 11.9145 256.081 12.0799 255.334 12.0799ZM255.414 11.0719C256.012 11.0719 256.545 10.9385 257.014 10.6719C257.494 10.3945 257.868 10.0105 258.134 9.51985C258.412 9.01852 258.55 8.44252 258.55 7.79185C258.55 7.13052 258.412 6.55452 258.134 6.06385C257.868 5.57318 257.494 5.19452 257.014 4.92785C256.545 4.65052 256.012 4.51185 255.414 4.51185C254.828 4.51185 254.3 4.65052 253.83 4.92785C253.361 5.19452 252.988 5.57318 252.71 6.06385C252.433 6.55452 252.294 7.13052 252.294 7.79185C252.294 8.44252 252.433 9.01852 252.71 9.51985C252.988 10.0105 253.361 10.3945 253.83 10.6719C254.3 10.9385 254.828 11.0719 255.414 11.0719ZM258.582 11.9999V9.47185L258.694 7.77585L258.534 6.07985V0.127851H259.67V11.9999H258.582Z" fill="black"/>
<path d="M36.2069 31.9999V20.7999H40.3989C41.3483 20.7999 42.1643 20.9545 42.8469 21.2639C43.5296 21.5625 44.0523 21.9999 44.4149 22.5759C44.7883 23.1412 44.9749 23.8292 44.9749 24.6399C44.9749 25.4292 44.7883 26.1119 44.4149 26.6879C44.0523 27.2532 43.5296 27.6905 42.8469 27.9999C42.1643 28.2985 41.3483 28.4478 40.3989 28.4478H36.8629L37.3909 27.9039V31.9999H36.2069ZM43.8549 31.9999L40.9749 27.9359H42.2549L45.1509 31.9999H43.8549ZM37.3909 27.9999L36.8629 27.4398H40.3669C41.4869 27.4398 42.3349 27.1945 42.9109 26.7038C43.4976 26.2132 43.7909 25.5252 43.7909 24.6399C43.7909 23.7439 43.4976 23.0505 42.9109 22.5599C42.3349 22.0692 41.4869 21.8239 40.3669 21.8239H36.8629L37.3909 21.2639V27.9999Z" fill="black"/>
<path d="M51.0974 32.0799C50.2228 32.0799 49.4548 31.8985 48.7934 31.5359C48.1321 31.1625 47.6148 30.6558 47.2414 30.0159C46.8681 29.3652 46.6814 28.6239 46.6814 27.7919C46.6814 26.9599 46.8574 26.2239 47.2094 25.5839C47.5721 24.9439 48.0628 24.4425 48.6814 24.0799C49.3108 23.7065 50.0148 23.5199 50.7934 23.5199C51.5828 23.5199 52.2814 23.7012 52.8894 24.0639C53.5081 24.4158 53.9934 24.9172 54.3454 25.5679C54.6974 26.2079 54.8734 26.9492 54.8734 27.7919C54.8734 27.8452 54.8681 27.9039 54.8574 27.9679C54.8574 28.0212 54.8574 28.0799 54.8574 28.1439H47.5454V27.2959H54.2494L53.8014 27.6319C53.8014 27.0239 53.6681 26.4852 53.4014 26.0159C53.1454 25.5359 52.7934 25.1625 52.3454 24.8959C51.8974 24.6292 51.3801 24.4959 50.7934 24.4959C50.2174 24.4959 49.7001 24.6292 49.2414 24.8959C48.7828 25.1625 48.4254 25.5359 48.1694 26.0159C47.9134 26.4958 47.7854 27.0452 47.7854 27.6639V27.8399C47.7854 28.4799 47.9241 29.0452 48.2014 29.5359C48.4894 30.0159 48.8841 30.3945 49.3854 30.6719C49.8974 30.9385 50.4788 31.0718 51.1294 31.0718C51.6414 31.0718 52.1161 30.9812 52.5534 30.7999C53.0014 30.6185 53.3854 30.3412 53.7054 29.9678L54.3454 30.7038C53.9721 31.1518 53.5028 31.4932 52.9374 31.7279C52.3828 31.9625 51.7694 32.0799 51.0974 32.0799Z" fill="black"/>
<path d="M67.6817 23.5199C68.3643 23.5199 68.9563 23.6532 69.4577 23.9199C69.9697 24.1759 70.3643 24.5705 70.6417 25.1039C70.9297 25.6372 71.0737 26.3092 71.0737 27.1199V31.9999H69.9377V27.2319C69.9377 26.3465 69.7243 25.6799 69.2977 25.2319C68.8817 24.7732 68.2897 24.5438 67.5217 24.5438C66.9457 24.5438 66.4443 24.6665 66.0177 24.9118C65.6017 25.1465 65.2763 25.4932 65.0417 25.9519C64.8177 26.3999 64.7057 26.9439 64.7057 27.5839V31.9999H63.5697V27.2319C63.5697 26.3465 63.3563 25.6799 62.9297 25.2319C62.503 24.7732 61.9057 24.5438 61.1377 24.5438C60.5723 24.5438 60.0763 24.6665 59.6497 24.9118C59.223 25.1465 58.8923 25.4932 58.6577 25.9519C58.4337 26.3999 58.3217 26.9439 58.3217 27.5839V31.9999H57.1857V23.5998H58.2737V25.8719L58.0977 25.4719C58.3537 24.8639 58.7643 24.3892 59.3297 24.0479C59.9057 23.6959 60.583 23.5199 61.3617 23.5199C62.183 23.5199 62.8817 23.7279 63.4577 24.1439C64.0337 24.5492 64.407 25.1625 64.5777 25.9839L64.1297 25.8078C64.375 25.1252 64.807 24.5759 65.4257 24.1599C66.055 23.7332 66.807 23.5199 67.6817 23.5199Z" fill="black"/>
<path d="M74.1544 31.9999V23.5998H75.2904V31.9999H74.1544ZM74.7304 21.7439C74.4958 21.7439 74.2984 21.6639 74.1384 21.5039C73.9784 21.3439 73.8984 21.1519 73.8984 20.9279C73.8984 20.7039 73.9784 20.5172 74.1384 20.3679C74.2984 20.2079 74.4958 20.1278 74.7304 20.1278C74.9651 20.1278 75.1624 20.2025 75.3224 20.3519C75.4824 20.5012 75.5624 20.6878 75.5624 20.9118C75.5624 21.1465 75.4824 21.3439 75.3224 21.5039C75.1731 21.6639 74.9758 21.7439 74.7304 21.7439Z" fill="black"/>
<path d="M82.7393 23.5199C83.422 23.5199 84.0193 23.6532 84.5313 23.9199C85.054 24.1759 85.4593 24.5705 85.7473 25.1039C86.046 25.6372 86.1953 26.3092 86.1953 27.1199V31.9999H85.0593V27.2319C85.0593 26.3465 84.8353 25.6799 84.3873 25.2319C83.95 24.7732 83.3313 24.5438 82.5313 24.5438C81.934 24.5438 81.4113 24.6665 80.9633 24.9118C80.526 25.1465 80.1846 25.4932 79.9393 25.9519C79.7046 26.3999 79.5873 26.9439 79.5873 27.5839V31.9999H78.4513V23.5998H79.5393V25.9039L79.3633 25.4719C79.63 24.8639 80.0566 24.3892 80.6433 24.0479C81.23 23.6959 81.9286 23.5199 82.7393 23.5199Z" fill="black"/>
<path d="M92.6078 32.0799C91.8078 32.0799 91.0878 31.8985 90.4478 31.5359C89.8185 31.1732 89.3225 30.6719 88.9598 30.0319C88.5971 29.3812 88.4158 28.6345 88.4158 27.7919C88.4158 26.9385 88.5971 26.1919 88.9598 25.5519C89.3225 24.9119 89.8185 24.4158 90.4478 24.0639C91.0878 23.7012 91.8078 23.5199 92.6078 23.5199C93.3438 23.5199 93.9998 23.6852 94.5758 24.0159C95.1625 24.3465 95.6265 24.8319 95.9678 25.4719C96.3198 26.1012 96.4958 26.8745 96.4958 27.7919C96.4958 28.6985 96.3251 29.4719 95.9838 30.1119C95.6425 30.7519 95.1785 31.2425 94.5918 31.5839C94.0158 31.9145 93.3545 32.0799 92.6078 32.0799ZM92.6878 31.0718C93.2851 31.0718 93.8185 30.9385 94.2878 30.6719C94.7678 30.3945 95.1411 30.0105 95.4078 29.5199C95.6851 29.0185 95.8238 28.4425 95.8238 27.7919C95.8238 27.1305 95.6851 26.5545 95.4078 26.0639C95.1411 25.5732 94.7678 25.1945 94.2878 24.9279C93.8185 24.6505 93.2851 24.5119 92.6878 24.5119C92.1011 24.5119 91.5731 24.6505 91.1038 24.9279C90.6345 25.1945 90.2611 25.5732 89.9838 26.0639C89.7065 26.5545 89.5678 27.1305 89.5678 27.7919C89.5678 28.4425 89.7065 29.0185 89.9838 29.5199C90.2611 30.0105 90.6345 30.3945 91.1038 30.6719C91.5731 30.9385 92.1011 31.0718 92.6878 31.0718ZM95.8558 31.9999V29.4719L95.9678 27.7759L95.8078 26.0799V20.1278H96.9438V31.9999H95.8558Z" fill="black"/>
<path d="M103.676 32.0799C102.801 32.0799 102.033 31.8985 101.372 31.5359C100.71 31.1625 100.193 30.6558 99.8196 30.0159C99.4462 29.3652 99.2595 28.6239 99.2595 27.7919C99.2595 26.9599 99.4356 26.2239 99.7876 25.5839C100.15 24.9439 100.641 24.4425 101.26 24.0799C101.889 23.7065 102.593 23.5199 103.372 23.5199C104.161 23.5199 104.86 23.7012 105.468 24.0639C106.086 24.4158 106.572 24.9172 106.924 25.5679C107.276 26.2079 107.452 26.9492 107.452 27.7919C107.452 27.8452 107.446 27.9039 107.436 27.9679C107.436 28.0212 107.436 28.0799 107.436 28.1439H100.124V27.2959H106.828L106.38 27.6319C106.38 27.0239 106.246 26.4852 105.98 26.0159C105.724 25.5359 105.372 25.1625 104.924 24.8959C104.476 24.6292 103.958 24.4959 103.372 24.4959C102.796 24.4959 102.278 24.6292 101.82 24.8959C101.361 25.1625 101.004 25.5359 100.748 26.0159C100.492 26.4958 100.364 27.0452 100.364 27.6639V27.8399C100.364 28.4799 100.502 29.0452 100.78 29.5359C101.068 30.0159 101.462 30.3945 101.964 30.6719C102.476 30.9385 103.057 31.0718 103.708 31.0718C104.22 31.0718 104.694 30.9812 105.132 30.7999C105.58 30.6185 105.964 30.3412 106.284 29.9678L106.924 30.7038C106.55 31.1518 106.081 31.4932 105.516 31.7279C104.961 31.9625 104.348 32.0799 103.676 32.0799Z" fill="black"/>
<path d="M109.764 31.9999V23.5998H110.852V25.8879L110.74 25.4879C110.974 24.8479 111.369 24.3625 111.924 24.0319C112.478 23.6905 113.166 23.5199 113.988 23.5199V24.6239C113.945 24.6239 113.902 24.6239 113.86 24.6239C113.817 24.6132 113.774 24.6079 113.732 24.6079C112.846 24.6079 112.153 24.8799 111.652 25.4239C111.15 25.9572 110.9 26.7199 110.9 27.7119V31.9999H109.764Z" fill="black"/>
<path d="M122.789 31.9999V21.8239H118.853V20.7999H127.909V21.8239H123.973V31.9999H122.789Z" fill="black"/>
<path d="M132.11 32.0799C131.299 32.0799 130.568 31.8985 129.918 31.5359C129.278 31.1625 128.771 30.6558 128.398 30.0159C128.024 29.3652 127.838 28.6239 127.838 27.7919C127.838 26.9492 128.024 26.2079 128.398 25.5679C128.771 24.9279 129.278 24.4265 129.918 24.0639C130.558 23.7012 131.288 23.5199 132.11 23.5199C132.942 23.5199 133.678 23.7012 134.318 24.0639C134.968 24.4265 135.475 24.9279 135.838 25.5679C136.211 26.2079 136.398 26.9492 136.398 27.7919C136.398 28.6239 136.211 29.3652 135.838 30.0159C135.475 30.6558 134.968 31.1625 134.318 31.5359C133.667 31.8985 132.931 32.0799 132.11 32.0799ZM132.11 31.0718C132.718 31.0718 133.256 30.9385 133.726 30.6719C134.195 30.3945 134.563 30.0105 134.83 29.5199C135.107 29.0185 135.246 28.4425 135.246 27.7919C135.246 27.1305 135.107 26.5545 134.83 26.0639C134.563 25.5732 134.195 25.1945 133.726 24.9279C133.256 24.6505 132.723 24.5119 132.126 24.5119C131.528 24.5119 130.995 24.6505 130.526 24.9279C130.056 25.1945 129.683 25.5732 129.406 26.0639C129.128 26.5545 128.99 27.1305 128.99 27.7919C128.99 28.4425 129.128 29.0185 129.406 29.5199C129.683 30.0105 130.056 30.3945 130.526 30.6719C130.995 30.9385 131.523 31.0718 132.11 31.0718Z" fill="black"/>
<path d="M145.816 31.9999V27.8399L146.088 28.5759L141.336 20.7999H142.6L146.776 27.6319H146.104L150.28 20.7999H151.464L146.712 28.5759L146.984 27.8399V31.9999H145.816Z" fill="black"/>
<path d="M155.532 32.0799C154.721 32.0799 153.99 31.8985 153.34 31.5359C152.7 31.1625 152.193 30.6558 151.82 30.0159C151.446 29.3652 151.26 28.6239 151.26 27.7919C151.26 26.9492 151.446 26.2079 151.82 25.5679C152.193 24.9279 152.7 24.4265 153.34 24.0639C153.98 23.7012 154.71 23.5199 155.532 23.5199C156.364 23.5199 157.1 23.7012 157.74 24.0639C158.39 24.4265 158.897 24.9279 159.26 25.5679C159.633 26.2079 159.82 26.9492 159.82 27.7919C159.82 28.6239 159.633 29.3652 159.26 30.0159C158.897 30.6558 158.39 31.1625 157.74 31.5359C157.089 31.8985 156.353 32.0799 155.532 32.0799ZM155.532 31.0718C156.14 31.0718 156.678 30.9385 157.148 30.6719C157.617 30.3945 157.985 30.0105 158.252 29.5199C158.529 29.0185 158.668 28.4425 158.668 27.7919C158.668 27.1305 158.529 26.5545 158.252 26.0639C157.985 25.5732 157.617 25.1945 157.148 24.9279C156.678 24.6505 156.145 24.5119 155.548 24.5119C154.95 24.5119 154.417 24.6505 153.948 24.9279C153.478 25.1945 153.105 25.5732 152.828 26.0639C152.55 26.5545 152.412 27.1305 152.412 27.7919C152.412 28.4425 152.55 29.0185 152.828 29.5199C153.105 30.0105 153.478 30.3945 153.948 30.6719C154.417 30.9385 154.945 31.0718 155.532 31.0718Z" fill="black"/>
<path d="M165.611 32.0799C164.896 32.0799 164.272 31.9465 163.739 31.6799C163.205 31.4132 162.789 31.0132 162.491 30.4799C162.203 29.9465 162.059 29.2799 162.059 28.4799V23.5998H163.195V28.3519C163.195 29.2479 163.413 29.9252 163.851 30.3839C164.299 30.8319 164.923 31.0559 165.723 31.0559C166.309 31.0559 166.816 30.9385 167.243 30.7038C167.68 30.4585 168.011 30.1065 168.235 29.6479C168.469 29.1892 168.587 28.6399 168.587 27.9999V23.5998H169.723V31.9999H168.635V29.6959L168.811 30.1119C168.544 30.7305 168.128 31.2159 167.563 31.5679C167.008 31.9092 166.357 32.0799 165.611 32.0799Z" fill="black"/>
<path d="M172.889 31.9999V23.5998H173.977V25.8879L173.865 25.4879C174.099 24.8479 174.494 24.3625 175.049 24.0319C175.603 23.6905 176.291 23.5199 177.113 23.5199V24.6239C177.07 24.6239 177.027 24.6239 176.985 24.6239C176.942 24.6132 176.899 24.6079 176.857 24.6079C175.971 24.6079 175.278 24.8799 174.777 25.4239C174.275 25.9572 174.025 26.7199 174.025 27.7119V31.9999H172.889Z" fill="black"/>
<path d="M184.794 25.8078H190.714V26.8159H184.794V25.8078ZM184.922 30.9759H191.658V31.9999H183.738V20.7999H191.418V21.8239H184.922V30.9759Z" fill="black"/>
<path d="M204.697 23.5199C205.38 23.5199 205.972 23.6532 206.473 23.9199C206.985 24.1759 207.38 24.5705 207.657 25.1039C207.945 25.6372 208.089 26.3092 208.089 27.1199V31.9999H206.953V27.2319C206.953 26.3465 206.74 25.6799 206.313 25.2319C205.897 24.7732 205.305 24.5438 204.537 24.5438C203.961 24.5438 203.46 24.6665 203.033 24.9118C202.617 25.1465 202.292 25.4932 202.057 25.9519C201.833 26.3999 201.721 26.9439 201.721 27.5839V31.9999H200.585V27.2319C200.585 26.3465 200.372 25.6799 199.945 25.2319C199.519 24.7732 198.921 24.5438 198.153 24.5438C197.588 24.5438 197.092 24.6665 196.665 24.9118C196.239 25.1465 195.908 25.4932 195.673 25.9519C195.449 26.3999 195.337 26.9439 195.337 27.5839V31.9999H194.201V23.5998H195.289V25.8719L195.113 25.4719C195.369 24.8639 195.78 24.3892 196.345 24.0479C196.921 23.6959 197.599 23.5199 198.377 23.5199C199.199 23.5199 199.897 23.7279 200.473 24.1439C201.049 24.5492 201.423 25.1625 201.593 25.9839L201.145 25.8078C201.391 25.1252 201.823 24.5759 202.441 24.1599C203.071 23.7332 203.823 23.5199 204.697 23.5199Z" fill="black"/>
<path d="M216.434 31.9999V30.1439L216.386 29.8399V26.7359C216.386 26.0212 216.183 25.4719 215.778 25.0879C215.383 24.7039 214.791 24.5119 214.002 24.5119C213.458 24.5119 212.941 24.6025 212.45 24.7839C211.959 24.9652 211.543 25.2052 211.202 25.5039L210.69 24.6559C211.117 24.2932 211.629 24.0159 212.226 23.8239C212.823 23.6212 213.453 23.5199 214.114 23.5199C215.202 23.5199 216.039 23.7918 216.626 24.3358C217.223 24.8692 217.522 25.6852 217.522 26.7839V31.9999H216.434ZM213.538 32.0799C212.909 32.0799 212.359 31.9785 211.89 31.7759C211.431 31.5625 211.079 31.2745 210.834 30.9118C210.589 30.5385 210.466 30.1119 210.466 29.6319C210.466 29.1945 210.567 28.7998 210.77 28.4478C210.983 28.0852 211.325 27.7972 211.794 27.5839C212.274 27.3599 212.914 27.2479 213.714 27.2479H216.61V28.0959H213.746C212.935 28.0959 212.37 28.2399 212.05 28.5279C211.741 28.8159 211.586 29.1732 211.586 29.5998C211.586 30.0798 211.773 30.4639 212.146 30.7519C212.519 31.0399 213.042 31.1838 213.714 31.1838C214.354 31.1838 214.903 31.0399 215.362 30.7519C215.831 30.4532 216.173 30.0265 216.386 29.4719L216.642 30.2559C216.429 30.8105 216.055 31.2532 215.522 31.5839C214.999 31.9145 214.338 32.0799 213.538 32.0799Z" fill="black"/>
<path d="M220.608 31.9999V23.5998H221.744V31.9999H220.608ZM221.184 21.7439C220.949 21.7439 220.752 21.6639 220.592 21.5039C220.432 21.3439 220.352 21.1519 220.352 20.9279C220.352 20.7039 220.432 20.5172 220.592 20.3679C220.752 20.2079 220.949 20.1278 221.184 20.1278C221.418 20.1278 221.616 20.2025 221.776 20.3519C221.936 20.5012 222.016 20.6878 222.016 20.9118C222.016 21.1465 221.936 21.3439 221.776 21.5039C221.626 21.6639 221.429 21.7439 221.184 21.7439Z" fill="black"/>
<path d="M224.904 31.9999V20.1278H226.04V31.9999H224.904Z" fill="black"/>
</svg>
