<svg width="299" height="127" viewBox="0 0 299 127" fill="none" xmlns="http://www.w3.org/2000/svg">
<path d="M109.669 28V16.16L111.509 20.92L98.9891 0H107.349L116.389 15.16H111.549L120.629 0H128.309L115.829 20.92L117.589 16.16V28H109.669Z" fill="black"/>
<path d="M138.461 28.36C136.087 28.36 133.981 27.88 132.141 26.92C130.301 25.96 128.847 24.64 127.781 22.96C126.741 21.2533 126.221 19.3067 126.221 17.12C126.221 14.9333 126.741 13 127.781 11.32C128.847 9.64 130.301 8.33333 132.141 7.4C133.981 6.44 136.087 5.96 138.461 5.96C140.834 5.96 142.941 6.44 144.781 7.4C146.647 8.33333 148.101 9.64 149.141 11.32C150.181 13 150.701 14.9333 150.701 17.12C150.701 19.3067 150.181 21.2533 149.141 22.96C148.101 24.64 146.647 25.96 144.781 26.92C142.941 27.88 140.834 28.36 138.461 28.36ZM138.461 22.32C139.341 22.32 140.114 22.12 140.781 21.72C141.474 21.32 142.021 20.7333 142.421 19.96C142.821 19.16 143.021 18.2133 143.021 17.12C143.021 16.0267 142.821 15.1067 142.421 14.36C142.021 13.5867 141.474 13 140.781 12.6C140.114 12.2 139.341 12 138.461 12C137.607 12 136.834 12.2 136.141 12.6C135.474 13 134.927 13.5867 134.501 14.36C134.101 15.1067 133.901 16.0267 133.901 17.12C133.901 18.2133 134.101 19.16 134.501 19.96C134.927 20.7333 135.474 21.32 136.141 21.72C136.834 22.12 137.607 22.32 138.461 22.32Z" fill="black"/>
<path d="M163.341 28.36C161.581 28.36 159.995 28.0133 158.581 27.32C157.195 26.6267 156.101 25.5467 155.301 24.08C154.528 22.5867 154.141 20.7067 154.141 18.44V6.32H161.741V17.2C161.741 18.88 162.048 20.08 162.661 20.8C163.301 21.52 164.195 21.88 165.341 21.88C166.088 21.88 166.768 21.7067 167.381 21.36C167.995 21.0133 168.488 20.4667 168.861 19.72C169.235 18.9467 169.421 17.96 169.421 16.76V6.32H177.021V28H169.781V21.88L171.181 23.6C170.435 25.2 169.355 26.4 167.941 27.2C166.528 27.9733 164.995 28.36 163.341 28.36Z" fill="black"/>
<path d="M181.917 28V6.32H189.157V12.64L188.077 10.84C188.717 9.21334 189.757 8 191.197 7.2C192.637 6.37334 194.383 5.96 196.437 5.96V12.8C196.09 12.7467 195.783 12.72 195.517 12.72C195.277 12.6933 195.01 12.68 194.717 12.68C193.17 12.68 191.917 13.1067 190.957 13.96C189.997 14.7867 189.517 16.1467 189.517 18.04V28H181.917Z" fill="black"/>
<path d="M0.147705 77V49H12.9477C15.5077 49 17.7077 49.4133 19.5477 50.24C21.4144 51.0667 22.8544 52.2667 23.8677 53.84C24.881 55.3867 25.3877 57.2267 25.3877 59.36C25.3877 61.4667 24.881 63.2933 23.8677 64.84C22.8544 66.36 21.4144 67.5333 19.5477 68.36C17.7077 69.16 15.5077 69.56 12.9477 69.56H4.54771L8.06771 66.24V77H0.147705ZM17.4677 77L10.5077 66.8H18.9477L25.9477 77H17.4677ZM8.06771 67.08L4.54771 63.44H12.4677C14.121 63.44 15.3477 63.08 16.1477 62.36C16.9744 61.64 17.3877 60.64 17.3877 59.36C17.3877 58.0533 16.9744 57.04 16.1477 56.32C15.3477 55.6 14.121 55.24 12.4677 55.24H4.54771L8.06771 51.6V67.08Z" fill="black"/>
<path d="M40.7571 77.36C38.1971 77.36 35.9571 76.88 34.0371 75.92C32.1437 74.9333 30.6637 73.6 29.5971 71.92C28.5571 70.2133 28.0371 68.28 28.0371 66.12C28.0371 63.96 28.5437 62.04 29.5571 60.36C30.5971 58.6533 32.0237 57.3333 33.8371 56.4C35.6504 55.44 37.6904 54.96 39.9571 54.96C42.0904 54.96 44.0371 55.4 45.7971 56.28C47.5571 57.1333 48.9571 58.4 49.9971 60.08C51.0371 61.76 51.5571 63.8 51.5571 66.2C51.5571 66.4667 51.5437 66.7733 51.5171 67.12C51.4904 67.4667 51.4637 67.7867 51.4371 68.08H34.2771V64.08H47.3971L44.5171 65.2C44.5437 64.2133 44.3571 63.36 43.9571 62.64C43.5837 61.92 43.0504 61.36 42.3571 60.96C41.6904 60.56 40.9037 60.36 39.9971 60.36C39.0904 60.36 38.2904 60.56 37.5971 60.96C36.9304 61.36 36.4104 61.9333 36.0371 62.68C35.6637 63.4 35.4771 64.2533 35.4771 65.24V66.4C35.4771 67.4667 35.6904 68.3867 36.1171 69.16C36.5704 69.9333 37.2104 70.5333 38.0371 70.96C38.8638 71.36 39.8504 71.56 40.9971 71.56C42.0637 71.56 42.9704 71.4133 43.7171 71.12C44.4904 70.8 45.2504 70.32 45.9971 69.68L49.9971 73.84C48.9571 74.9867 47.6771 75.8667 46.1571 76.48C44.6371 77.0667 42.8371 77.36 40.7571 77.36Z" fill="black"/>
<path d="M62.9411 77.36C61.1011 77.36 59.3011 77.1467 57.5411 76.72C55.8078 76.2933 54.4078 75.76 53.3411 75.12L55.6211 69.92C56.6345 70.5333 57.8211 71.0267 59.1811 71.4C60.5411 71.7467 61.8745 71.92 63.1811 71.92C64.4611 71.92 65.3411 71.7867 65.8211 71.52C66.3278 71.2533 66.5811 70.8933 66.5811 70.44C66.5811 70.0133 66.3411 69.7067 65.8611 69.52C65.4078 69.3067 64.7945 69.1467 64.0211 69.04C63.2745 68.9333 62.4478 68.8133 61.5411 68.68C60.6345 68.5467 59.7145 68.3733 58.7811 68.16C57.8745 67.92 57.0345 67.5733 56.2611 67.12C55.5145 66.64 54.9145 66 54.4611 65.2C54.0078 64.4 53.7811 63.3867 53.7811 62.16C53.7811 60.7733 54.1811 59.5467 54.9811 58.48C55.8078 57.3867 57.0078 56.5333 58.5811 55.92C60.1545 55.28 62.0745 54.96 64.3411 54.96C65.8611 54.96 67.3945 55.12 68.9411 55.44C70.5145 55.7333 71.8345 56.1867 72.9011 56.8L70.6211 61.96C69.5545 61.3467 68.4878 60.9333 67.4211 60.72C66.3545 60.48 65.3411 60.36 64.3811 60.36C63.1012 60.36 62.1945 60.5067 61.6611 60.8C61.1545 61.0933 60.9011 61.4533 60.9011 61.88C60.9011 62.3067 61.1278 62.64 61.5811 62.88C62.0345 63.0933 62.6345 63.2667 63.3811 63.4C64.1545 63.5067 64.9945 63.6267 65.9011 63.76C66.8078 63.8667 67.7145 64.04 68.6211 64.28C69.5545 64.52 70.3945 64.88 71.1411 65.36C71.9145 65.8133 72.5278 66.44 72.9811 67.24C73.4345 68.0133 73.6611 69.0133 73.6611 70.24C73.6611 71.5733 73.2478 72.7733 72.4211 73.84C71.6211 74.9067 70.4212 75.76 68.8212 76.4C67.2478 77.04 65.2878 77.36 62.9411 77.36Z" fill="black"/>
<path d="M88.2961 77.36C85.7361 77.36 83.4961 76.88 81.5761 75.92C79.6828 74.9333 78.2028 73.6 77.1361 71.92C76.0961 70.2133 75.5761 68.28 75.5761 66.12C75.5761 63.96 76.0828 62.04 77.0961 60.36C78.1361 58.6533 79.5628 57.3333 81.3761 56.4C83.1895 55.44 85.2295 54.96 87.4961 54.96C89.6295 54.96 91.5761 55.4 93.3362 56.28C95.0962 57.1333 96.4961 58.4 97.5361 60.08C98.5761 61.76 99.0961 63.8 99.0961 66.2C99.0961 66.4667 99.0828 66.7733 99.0561 67.12C99.0295 67.4667 99.0028 67.7867 98.9761 68.08H81.8161V64.08H94.9361L92.0561 65.2C92.0828 64.2133 91.8961 63.36 91.4961 62.64C91.1228 61.92 90.5895 61.36 89.8961 60.96C89.2295 60.56 88.4428 60.36 87.5361 60.36C86.6295 60.36 85.8295 60.56 85.1361 60.96C84.4695 61.36 83.9495 61.9333 83.5761 62.68C83.2028 63.4 83.0161 64.2533 83.0161 65.24V66.4C83.0161 67.4667 83.2295 68.3867 83.6561 69.16C84.1095 69.9333 84.7495 70.5333 85.5761 70.96C86.4028 71.36 87.3895 71.56 88.5361 71.56C89.6028 71.56 90.5095 71.4133 91.2561 71.12C92.0295 70.8 92.7895 70.32 93.5361 69.68L97.5361 73.84C96.4961 74.9867 95.2161 75.8667 93.6961 76.48C92.1761 77.0667 90.3761 77.36 88.2961 77.36Z" fill="black"/>
<path d="M102.6 77V55.32H109.84V61.64L108.76 59.84C109.4 58.2133 110.44 57 111.88 56.2C113.32 55.3733 115.067 54.96 117.12 54.96V61.8C116.774 61.7467 116.467 61.72 116.2 61.72C115.96 61.6933 115.694 61.68 115.4 61.68C113.854 61.68 112.6 62.1067 111.64 62.96C110.68 63.7867 110.2 65.1467 110.2 67.04V77H102.6Z" fill="black"/>
<path d="M126.961 77L118.041 55.32H125.841L132.961 73.44H129.041L136.521 55.32H143.761L134.801 77H126.961Z" fill="black"/>
<path d="M158.223 77V72.96L157.703 71.96V64.52C157.703 63.32 157.33 62.4 156.583 61.76C155.863 61.0933 154.703 60.76 153.103 60.76C152.063 60.76 151.01 60.9333 149.943 61.28C148.876 61.6 147.97 62.0533 147.223 62.64L144.663 57.48C145.89 56.68 147.356 56.0667 149.063 55.64C150.796 55.1867 152.516 54.96 154.223 54.96C157.743 54.96 160.463 55.7733 162.383 57.4C164.33 59 165.303 61.52 165.303 64.96V77H158.223ZM151.823 77.36C150.09 77.36 148.623 77.0667 147.423 76.48C146.223 75.8933 145.303 75.0933 144.663 74.08C144.05 73.0667 143.743 71.9333 143.743 70.68C143.743 69.3467 144.076 68.2 144.743 67.24C145.436 66.2533 146.49 65.5067 147.903 65C149.316 64.4667 151.143 64.2 153.383 64.2H158.503V68.16H154.423C153.196 68.16 152.33 68.36 151.823 68.76C151.343 69.16 151.103 69.6933 151.103 70.36C151.103 71.0267 151.356 71.56 151.863 71.96C152.37 72.36 153.063 72.56 153.943 72.56C154.77 72.56 155.516 72.36 156.183 71.96C156.876 71.5333 157.383 70.8933 157.703 70.04L158.743 72.84C158.343 74.3333 157.556 75.4667 156.383 76.24C155.236 76.9867 153.716 77.36 151.823 77.36Z" fill="black"/>
<path d="M179.78 77.36C177.007 77.36 174.847 76.68 173.3 75.32C171.754 73.9333 170.98 71.8533 170.98 69.08V50.48H178.58V69C178.58 69.7733 178.794 70.3867 179.22 70.84C179.647 71.2667 180.194 71.48 180.86 71.48C181.767 71.48 182.54 71.2533 183.18 70.8L185.06 76.12C184.42 76.5467 183.634 76.8533 182.7 77.04C181.767 77.2533 180.794 77.36 179.78 77.36ZM167.82 61.8V56.12H183.54V61.8H167.82Z" fill="black"/>
<path d="M187.991 77V55.32H195.591V77H187.991ZM191.791 52.92C190.404 52.92 189.284 52.5333 188.431 51.76C187.577 50.9867 187.151 50.0267 187.151 48.88C187.151 47.7333 187.577 46.7733 188.431 46C189.284 45.2267 190.404 44.84 191.791 44.84C193.178 44.84 194.298 45.2133 195.151 45.96C196.004 46.68 196.431 47.6133 196.431 48.76C196.431 49.96 196.004 50.96 195.151 51.76C194.324 52.5333 193.204 52.92 191.791 52.92Z" fill="black"/>
<path d="M211.41 77.36C209.037 77.36 206.93 76.88 205.09 75.92C203.25 74.96 201.797 73.64 200.73 71.96C199.69 70.2533 199.17 68.3067 199.17 66.12C199.17 63.9333 199.69 62 200.73 60.32C201.797 58.64 203.25 57.3333 205.09 56.4C206.93 55.44 209.037 54.96 211.41 54.96C213.783 54.96 215.89 55.44 217.73 56.4C219.597 57.3333 221.05 58.64 222.09 60.32C223.13 62 223.65 63.9333 223.65 66.12C223.65 68.3067 223.13 70.2533 222.09 71.96C221.05 73.64 219.597 74.96 217.73 75.92C215.89 76.88 213.783 77.36 211.41 77.36ZM211.41 71.32C212.29 71.32 213.063 71.12 213.73 70.72C214.423 70.32 214.97 69.7333 215.37 68.96C215.77 68.16 215.97 67.2133 215.97 66.12C215.97 65.0267 215.77 64.1067 215.37 63.36C214.97 62.5867 214.423 62 213.73 61.6C213.063 61.2 212.29 61 211.41 61C210.557 61 209.783 61.2 209.09 61.6C208.423 62 207.877 62.5867 207.45 63.36C207.05 64.1067 206.85 65.0267 206.85 66.12C206.85 67.2133 207.05 68.16 207.45 68.96C207.877 69.7333 208.423 70.32 209.09 70.72C209.783 71.12 210.557 71.32 211.41 71.32Z" fill="black"/>
<path d="M241.291 54.96C242.971 54.96 244.491 55.3067 245.851 56C247.211 56.6667 248.277 57.7067 249.051 59.12C249.851 60.5333 250.251 62.36 250.251 64.6V77H242.651V65.84C242.651 64.2933 242.331 63.1733 241.691 62.48C241.077 61.76 240.211 61.4 239.091 61.4C238.291 61.4 237.557 61.5867 236.891 61.96C236.224 62.3067 235.704 62.8533 235.331 63.6C234.957 64.3467 234.771 65.32 234.771 66.52V77H227.171V55.32H234.411V61.48L233.011 59.68C233.837 58.1067 234.971 56.9333 236.411 56.16C237.851 55.36 239.477 54.96 241.291 54.96Z" fill="black"/>
<path d="M267.023 77V49H274.943V77H267.023Z" fill="black"/>
<path d="M288.097 77.36C286.257 77.36 284.457 77.1467 282.697 76.72C280.964 76.2933 279.564 75.76 278.497 75.12L280.777 69.92C281.791 70.5333 282.977 71.0267 284.337 71.4C285.697 71.7467 287.031 71.92 288.337 71.92C289.617 71.92 290.497 71.7867 290.977 71.52C291.484 71.2533 291.737 70.8933 291.737 70.44C291.737 70.0133 291.497 69.7067 291.017 69.52C290.564 69.3067 289.951 69.1467 289.177 69.04C288.431 68.9333 287.604 68.8133 286.697 68.68C285.791 68.5467 284.871 68.3733 283.937 68.16C283.031 67.92 282.191 67.5733 281.417 67.12C280.671 66.64 280.071 66 279.617 65.2C279.164 64.4 278.937 63.3867 278.937 62.16C278.937 60.7733 279.337 59.5467 280.137 58.48C280.964 57.3867 282.164 56.5333 283.737 55.92C285.311 55.28 287.231 54.96 289.497 54.96C291.017 54.96 292.551 55.12 294.097 55.44C295.671 55.7333 296.991 56.1867 298.057 56.8L295.777 61.96C294.711 61.3467 293.644 60.9333 292.577 60.72C291.511 60.48 290.497 60.36 289.537 60.36C288.257 60.36 287.351 60.5067 286.817 60.8C286.311 61.0933 286.057 61.4533 286.057 61.88C286.057 62.3067 286.284 62.64 286.737 62.88C287.191 63.0933 287.791 63.2667 288.537 63.4C289.311 63.5067 290.151 63.6267 291.057 63.76C291.964 63.8667 292.871 64.04 293.777 64.28C294.711 64.52 295.551 64.88 296.297 65.36C297.071 65.8133 297.684 66.44 298.137 67.24C298.591 68.0133 298.817 69.0133 298.817 70.24C298.817 71.5733 298.404 72.7733 297.577 73.84C296.777 74.9067 295.577 75.76 293.977 76.4C292.404 77.04 290.444 77.36 288.097 77.36Z" fill="black"/>
<path d="M46.1976 126.56C43.9842 126.56 41.9309 126.213 40.0375 125.52C38.1709 124.8 36.5442 123.787 35.1576 122.48C33.7976 121.173 32.7309 119.64 31.9576 117.88C31.1842 116.093 30.7976 114.133 30.7976 112C30.7976 109.867 31.1842 107.92 31.9576 106.16C32.7309 104.373 33.7976 102.827 35.1576 101.52C36.5442 100.213 38.1709 99.2133 40.0375 98.52C41.9309 97.8 43.9842 97.44 46.1976 97.44C48.7842 97.44 51.0909 97.8933 53.1175 98.8C55.1709 99.7067 56.8776 101.013 58.2376 102.72L53.1976 107.28C52.2909 106.213 51.2909 105.4 50.1976 104.84C49.1309 104.28 47.9309 104 46.5976 104C45.4509 104 44.3975 104.187 43.4375 104.56C42.4776 104.933 41.6509 105.48 40.9576 106.2C40.2909 106.893 39.7575 107.733 39.3575 108.72C38.9842 109.707 38.7976 110.8 38.7976 112C38.7976 113.2 38.9842 114.293 39.3575 115.28C39.7575 116.267 40.2909 117.12 40.9576 117.84C41.6509 118.533 42.4776 119.067 43.4375 119.44C44.3975 119.813 45.4509 120 46.5976 120C47.9309 120 49.1309 119.72 50.1976 119.16C51.2909 118.6 52.2909 117.787 53.1976 116.72L58.2376 121.28C56.8776 122.96 55.1709 124.267 53.1175 125.2C51.0909 126.107 48.7842 126.56 46.1976 126.56Z" fill="black"/>
<path d="M71.5857 126.36C69.2123 126.36 67.1057 125.88 65.2657 124.92C63.4257 123.96 61.9723 122.64 60.9057 120.96C59.8657 119.253 59.3457 117.307 59.3457 115.12C59.3457 112.933 59.8657 111 60.9057 109.32C61.9723 107.64 63.4257 106.333 65.2657 105.4C67.1057 104.44 69.2123 103.96 71.5857 103.96C73.959 103.96 76.0657 104.44 77.9057 105.4C79.7723 106.333 81.2257 107.64 82.2657 109.32C83.3057 111 83.8257 112.933 83.8257 115.12C83.8257 117.307 83.3057 119.253 82.2657 120.96C81.2257 122.64 79.7723 123.96 77.9057 124.92C76.0657 125.88 73.959 126.36 71.5857 126.36ZM71.5857 120.32C72.4657 120.32 73.239 120.12 73.9057 119.72C74.599 119.32 75.1457 118.733 75.5457 117.96C75.9457 117.16 76.1457 116.213 76.1457 115.12C76.1457 114.027 75.9457 113.107 75.5457 112.36C75.1457 111.587 74.599 111 73.9057 110.6C73.239 110.2 72.4657 110 71.5857 110C70.7323 110 69.959 110.2 69.2657 110.6C68.599 111 68.0523 111.587 67.6257 112.36C67.2257 113.107 67.0257 114.027 67.0257 115.12C67.0257 116.213 67.2257 117.16 67.6257 117.96C68.0523 118.733 68.599 119.32 69.2657 119.72C69.959 120.12 70.7323 120.32 71.5857 120.32Z" fill="black"/>
<path d="M101.466 103.96C103.146 103.96 104.666 104.307 106.026 105C107.386 105.667 108.453 106.707 109.226 108.12C110.026 109.533 110.426 111.36 110.426 113.6V126H102.826V114.84C102.826 113.293 102.506 112.173 101.866 111.48C101.253 110.76 100.386 110.4 99.2663 110.4C98.4663 110.4 97.733 110.587 97.0663 110.96C96.3996 111.307 95.8796 111.853 95.5063 112.6C95.133 113.347 94.9463 114.32 94.9463 115.52V126H87.3463V104.32H94.5863V110.48L93.1863 108.68C94.013 107.107 95.1463 105.933 96.5863 105.16C98.0263 104.36 99.653 103.96 101.466 103.96Z" fill="black"/>
<path d="M116.078 126V104.56C116.078 101.947 116.851 99.8667 118.398 98.32C119.971 96.7467 122.211 95.96 125.118 95.96C126.051 95.96 126.971 96.0533 127.878 96.24C128.785 96.4267 129.545 96.7067 130.158 97.08L128.278 102.44C127.958 102.253 127.598 102.107 127.198 102C126.798 101.867 126.398 101.8 125.998 101.8C125.198 101.8 124.571 102.04 124.118 102.52C123.691 102.973 123.478 103.68 123.478 104.64V106.2L123.678 109.36V126H116.078ZM112.918 110.8V105.12H128.638V110.8H112.918ZM132.118 126V104.32H139.718V126H132.118ZM135.918 101.92C134.531 101.92 133.411 101.533 132.558 100.76C131.705 99.9867 131.278 99.0267 131.278 97.88C131.278 96.7333 131.705 95.7733 132.558 95C133.411 94.2267 134.531 93.84 135.918 93.84C137.305 93.84 138.425 94.2133 139.278 94.96C140.131 95.68 140.558 96.6133 140.558 97.76C140.558 98.96 140.131 99.96 139.278 100.76C138.451 101.533 137.331 101.92 135.918 101.92Z" fill="black"/>
<path d="M144.651 126V104.32H151.891V110.64L150.811 108.84C151.451 107.213 152.491 106 153.931 105.2C155.371 104.373 157.118 103.96 159.171 103.96V110.8C158.824 110.747 158.518 110.72 158.251 110.72C158.011 110.693 157.744 110.68 157.451 110.68C155.904 110.68 154.651 111.107 153.691 111.96C152.731 112.787 152.251 114.147 152.251 116.04V126H144.651Z" fill="black"/>
<path d="M190.547 103.96C192.227 103.96 193.721 104.307 195.027 105C196.361 105.667 197.401 106.707 198.147 108.12C198.921 109.533 199.307 111.36 199.307 113.6V126H191.707V114.84C191.707 113.293 191.414 112.173 190.827 111.48C190.241 110.76 189.441 110.4 188.427 110.4C187.707 110.4 187.054 110.573 186.467 110.92C185.881 111.267 185.427 111.8 185.107 112.52C184.787 113.213 184.627 114.12 184.627 115.24V126H177.027V114.84C177.027 113.293 176.734 112.173 176.147 111.48C175.587 110.76 174.787 110.4 173.747 110.4C173.001 110.4 172.334 110.573 171.747 110.92C171.187 111.267 170.734 111.8 170.387 112.52C170.067 113.213 169.907 114.12 169.907 115.24V126H162.307V104.32H169.547V110.36L168.107 108.64C168.907 107.093 170.001 105.933 171.387 105.16C172.774 104.36 174.321 103.96 176.027 103.96C177.974 103.96 179.681 104.467 181.147 105.48C182.641 106.467 183.641 108.013 184.147 110.12L181.667 109.6C182.441 107.84 183.601 106.467 185.147 105.48C186.721 104.467 188.521 103.96 190.547 103.96Z" fill="black"/>
<path d="M215.738 126.36C213.178 126.36 210.938 125.88 209.018 124.92C207.124 123.933 205.644 122.6 204.578 120.92C203.538 119.213 203.018 117.28 203.018 115.12C203.018 112.96 203.524 111.04 204.538 109.36C205.578 107.653 207.004 106.333 208.818 105.4C210.631 104.44 212.671 103.96 214.938 103.96C217.071 103.96 219.018 104.4 220.778 105.28C222.538 106.133 223.938 107.4 224.978 109.08C226.018 110.76 226.538 112.8 226.538 115.2C226.538 115.467 226.524 115.773 226.498 116.12C226.471 116.467 226.444 116.787 226.418 117.08H209.258V113.08H222.378L219.498 114.2C219.524 113.213 219.338 112.36 218.938 111.64C218.564 110.92 218.031 110.36 217.338 109.96C216.671 109.56 215.884 109.36 214.978 109.36C214.071 109.36 213.271 109.56 212.578 109.96C211.911 110.36 211.391 110.933 211.018 111.68C210.644 112.4 210.458 113.253 210.458 114.24V115.4C210.458 116.467 210.671 117.387 211.098 118.16C211.551 118.933 212.191 119.533 213.018 119.96C213.844 120.36 214.831 120.56 215.978 120.56C217.044 120.56 217.951 120.413 218.698 120.12C219.471 119.8 220.231 119.32 220.978 118.68L224.978 122.84C223.938 123.987 222.658 124.867 221.138 125.48C219.618 126.067 217.818 126.36 215.738 126.36Z" fill="black"/>
<path d="M239.482 126.36C237.508 126.36 235.708 125.907 234.082 125C232.482 124.067 231.202 122.773 230.242 121.12C229.282 119.44 228.802 117.44 228.802 115.12C228.802 112.827 229.282 110.853 230.242 109.2C231.202 107.52 232.482 106.227 234.082 105.32C235.708 104.413 237.508 103.96 239.482 103.96C241.348 103.96 242.922 104.36 244.202 105.16C245.508 105.96 246.495 107.187 247.162 108.84C247.828 110.493 248.162 112.587 248.162 115.12C248.162 117.707 247.842 119.827 247.202 121.48C246.562 123.133 245.602 124.36 244.322 125.16C243.042 125.96 241.428 126.36 239.482 126.36ZM241.082 120.32C241.935 120.32 242.695 120.12 243.362 119.72C244.055 119.32 244.602 118.733 245.002 117.96C245.402 117.16 245.602 116.213 245.602 115.12C245.602 114.027 245.402 113.107 245.002 112.36C244.602 111.587 244.055 111 243.362 110.6C242.695 110.2 241.935 110 241.082 110C240.202 110 239.415 110.2 238.722 110.6C238.055 111 237.522 111.587 237.122 112.36C236.722 113.107 236.522 114.027 236.522 115.12C236.522 116.213 236.722 117.16 237.122 117.96C237.522 118.733 238.055 119.32 238.722 119.72C239.415 120.12 240.202 120.32 241.082 120.32ZM245.842 126V122.28L245.882 115.12L245.482 107.96V96.32H253.082V126H245.842Z" fill="black"/>
<path d="M258.531 115.8L257.051 98H266.091L264.571 115.8H258.531ZM261.571 126.36C260.238 126.36 259.145 125.947 258.291 125.12C257.438 124.293 257.011 123.307 257.011 122.16C257.011 120.987 257.438 120.013 258.291 119.24C259.145 118.44 260.238 118.04 261.571 118.04C262.905 118.04 263.985 118.44 264.811 119.24C265.665 120.013 266.091 120.987 266.091 122.16C266.091 123.307 265.665 124.293 264.811 125.12C263.985 125.947 262.905 126.36 261.571 126.36Z" fill="black"/>
</svg>
